%TF.GenerationSoftware,KiCad,Pcbnew,8.0.8*%
%TF.CreationDate,2025-05-20T22:02:41+02:00*%
%TF.ProjectId,Bernd_V1,4265726e-645f-4563-912e-6b696361645f,REV3*%
%TF.SameCoordinates,Original*%
%TF.FileFunction,Copper,L3,Inr*%
%TF.FilePolarity,Positive*%
%FSLAX46Y46*%
G04 Gerber Fmt 4.6, Leading zero omitted, Abs format (unit mm)*
G04 Created by KiCad (PCBNEW 8.0.8) date 2025-05-20 22:02:41*
%MOMM*%
%LPD*%
G01*
G04 APERTURE LIST*
%TA.AperFunction,ComponentPad*%
%ADD10O,2.000000X1.100000*%
%TD*%
%TA.AperFunction,ComponentPad*%
%ADD11O,1.800000X1.200000*%
%TD*%
%TA.AperFunction,ViaPad*%
%ADD12C,0.450000*%
%TD*%
%TA.AperFunction,Conductor*%
%ADD13C,0.150000*%
%TD*%
%TA.AperFunction,Conductor*%
%ADD14C,0.400000*%
%TD*%
%TA.AperFunction,Conductor*%
%ADD15C,0.800000*%
%TD*%
G04 APERTURE END LIST*
D10*
%TO.N,GND*%
%TO.C,J3*%
X55324879Y42865006D03*
D11*
X59525032Y42865006D03*
D10*
X55324879Y51514994D03*
D11*
X59525032Y51514994D03*
%TD*%
D12*
%TO.N,GND*%
X59232051Y1500000D03*
X55767949Y1500000D03*
X55500000Y2500000D03*
X59500000Y2500000D03*
X56500000Y767949D03*
X55500000Y3500000D03*
X57500000Y500000D03*
X58500000Y767949D03*
X59500000Y3500000D03*
X4232051Y1500000D03*
X767949Y1500000D03*
X500000Y2500000D03*
X4500000Y2500000D03*
X1500000Y767949D03*
X500000Y3500000D03*
X2500000Y500000D03*
X3500000Y767949D03*
X4500000Y3500000D03*
X767949Y58500000D03*
X4232051Y58500000D03*
X4500000Y57500000D03*
X500000Y57500000D03*
X3500000Y59232051D03*
X4500000Y56500000D03*
X2500000Y59500000D03*
X1500000Y59232051D03*
X500000Y56500000D03*
X55767949Y58500000D03*
X56500000Y59232051D03*
X58500000Y59232051D03*
X59232051Y58500000D03*
X57500000Y59500000D03*
X59500000Y56500000D03*
X59500000Y57500000D03*
X55500000Y57500000D03*
X55500000Y56500000D03*
X59500000Y53500000D03*
X59500000Y52500000D03*
X59500000Y55500000D03*
X58500000Y55500000D03*
X57500000Y55500000D03*
X56500000Y55500000D03*
X55500000Y55500000D03*
X54500000Y55500000D03*
X59500000Y4500000D03*
X58500000Y4500000D03*
X57500000Y4500000D03*
X56500000Y4500000D03*
X55500000Y4500000D03*
X54500000Y4500000D03*
X500000Y4500000D03*
X1500000Y4500000D03*
X2500000Y4500000D03*
X3500000Y4500000D03*
X4500000Y4500000D03*
X5500000Y4500000D03*
X500000Y6500000D03*
X500000Y53500000D03*
X500000Y55500000D03*
X1500000Y55500000D03*
X2500000Y55500000D03*
X3500000Y55500000D03*
X4500000Y55500000D03*
X5500000Y55500000D03*
X13390000Y13460000D03*
X59500000Y10500000D03*
X15230000Y11500000D03*
X2500000Y28500000D03*
X51775000Y22650000D03*
X500000Y25500000D03*
X26370000Y21880000D03*
X57500000Y14500000D03*
X16200000Y53490000D03*
X7500000Y29500000D03*
X13670000Y53500000D03*
X6500000Y42500000D03*
X22770000Y42230000D03*
X14500000Y4500000D03*
X7500000Y7500000D03*
X6500000Y46500000D03*
X52800000Y15800000D03*
X46490000Y29750000D03*
X40738092Y22004489D03*
X29500000Y6500000D03*
X7500000Y51500000D03*
X30250000Y14500000D03*
X20500000Y4500000D03*
X11000000Y24030000D03*
X11110000Y30030000D03*
X5500000Y33500000D03*
X31500000Y6500000D03*
X47015001Y21286551D03*
X26260000Y32860000D03*
X4500000Y24500000D03*
X59500000Y39500000D03*
X59500000Y16500000D03*
X57500000Y30500000D03*
X32500000Y42500000D03*
X30330000Y43470000D03*
X5500000Y25500000D03*
X58000000Y50500000D03*
X58500000Y7500000D03*
X500000Y28500000D03*
X12500000Y4500000D03*
X6500000Y44500000D03*
X21260000Y26630000D03*
X8500000Y30500000D03*
X500000Y24500000D03*
X8500000Y4500000D03*
X45240000Y27250000D03*
X23900000Y21880000D03*
X44500000Y7500000D03*
X51400000Y14200000D03*
X35754998Y33339082D03*
X6500000Y50500000D03*
X49340000Y35450000D03*
X6500000Y52500000D03*
X42490000Y37000000D03*
X26500000Y18000000D03*
X4500000Y12500000D03*
X52500000Y4500000D03*
X7500000Y37500000D03*
X7500000Y25500000D03*
X58500000Y25500000D03*
X53432219Y46773486D03*
X38180000Y28750000D03*
X36500000Y55500000D03*
X12348199Y29991801D03*
X35500000Y53500000D03*
X58500000Y27500000D03*
X32500000Y38500000D03*
X59500000Y22500000D03*
X46490000Y27250000D03*
X3500000Y19500000D03*
X18710000Y8520000D03*
X30250000Y11500000D03*
X7500000Y27500000D03*
X23850000Y53500000D03*
X42970000Y19000000D03*
X47500000Y55500000D03*
X31250000Y17500000D03*
X59500000Y19500000D03*
X4500000Y26500000D03*
X31250000Y11500000D03*
X500000Y32500000D03*
X28880000Y27900000D03*
X29020000Y19960000D03*
X500000Y13500000D03*
X7500000Y23500000D03*
X34500000Y4500000D03*
X500000Y46500000D03*
X45240000Y29750000D03*
X4500000Y36500000D03*
X31250000Y16500000D03*
X40042281Y16460000D03*
X30500000Y50500000D03*
X46500000Y4500000D03*
X47500000Y4500000D03*
X50820000Y51980000D03*
X35270000Y18500000D03*
X26380000Y16500000D03*
X500000Y22500000D03*
X39000000Y21000000D03*
X500000Y18500000D03*
X59500000Y7500000D03*
X5500000Y23500000D03*
X12080000Y11520000D03*
X26500000Y55500000D03*
X500000Y20500000D03*
X2500000Y42500000D03*
X38781265Y27110000D03*
X5500000Y41500000D03*
X23860000Y44820000D03*
X12500000Y55500000D03*
X59500000Y36500000D03*
X29080000Y21470000D03*
X13680000Y51170000D03*
X13680000Y8500000D03*
X41500000Y14500000D03*
X29500000Y53500000D03*
X4500000Y40500000D03*
X29000000Y31000000D03*
X45500000Y6500000D03*
X35500000Y41500000D03*
X15500000Y55500000D03*
X37500000Y39500000D03*
X48500000Y9500000D03*
X7500000Y31500000D03*
X23500000Y4500000D03*
X500000Y50500000D03*
X5500000Y9500000D03*
X7500000Y11500000D03*
X48500000Y55500000D03*
X7500000Y4500000D03*
X4500000Y20500000D03*
X52250000Y33300000D03*
X26340000Y26630000D03*
X8500000Y38500000D03*
X35500000Y44500000D03*
X8500000Y6500000D03*
X59500000Y31500000D03*
X49500000Y55500000D03*
X45500000Y14500000D03*
X26390000Y53460000D03*
X4500000Y38500000D03*
X5500000Y35500000D03*
X28500000Y55500000D03*
X44500000Y15500000D03*
X35500000Y43500000D03*
X34500000Y50500000D03*
X500000Y29500000D03*
X58500000Y13500000D03*
X21310000Y53490000D03*
X1500000Y19500000D03*
X12230000Y24070000D03*
X31500000Y47500000D03*
X37500000Y4500000D03*
X31500000Y51500000D03*
X41240000Y31320000D03*
X21320000Y14510000D03*
X1500000Y29500000D03*
X5500000Y45500000D03*
X500000Y14500000D03*
X500000Y27500000D03*
X44993446Y38669535D03*
X58500000Y35500000D03*
X29500000Y51500000D03*
X46910000Y16930000D03*
X47740000Y52120000D03*
X45330000Y16940000D03*
X6500000Y14500000D03*
X47020000Y17970000D03*
X48330000Y51530000D03*
X11780000Y48000000D03*
X49500000Y12000000D03*
X46500000Y7500000D03*
X13480000Y24090000D03*
X19500000Y55500000D03*
X57500000Y24500000D03*
X41500000Y55500000D03*
X39281038Y15460082D03*
X41500000Y16500000D03*
X28810000Y8460000D03*
X17000000Y12500000D03*
X42500000Y9500000D03*
X59500000Y32500000D03*
X32790000Y32000000D03*
X58500000Y11500000D03*
X6500000Y4500000D03*
X39000000Y19500000D03*
X18590000Y24130000D03*
X20160000Y42030000D03*
X8500000Y26500000D03*
X47500000Y8500000D03*
X500000Y37500000D03*
X54500000Y29500000D03*
X13500000Y4500000D03*
X6500000Y10500000D03*
X26360000Y19690000D03*
X23800000Y32880000D03*
X16200000Y51170000D03*
X58500000Y15500000D03*
X56200000Y48400000D03*
X6500000Y12500000D03*
X500000Y34500000D03*
X48500000Y4500000D03*
X46500000Y55500000D03*
X26390000Y15530000D03*
X48750000Y27000000D03*
X15830000Y12530000D03*
X500000Y48500000D03*
X500000Y42500000D03*
X43500000Y43500000D03*
X37500000Y43500000D03*
X7500000Y41500000D03*
X59500000Y46500000D03*
X22540000Y36120000D03*
X16118199Y29931801D03*
X35729677Y26821178D03*
X15920000Y15560000D03*
X11010000Y8510000D03*
X43500000Y41500000D03*
X14853199Y29936801D03*
X14760000Y24100000D03*
X42990000Y37000000D03*
X33500000Y55500000D03*
X8500000Y46500000D03*
X18860000Y42030000D03*
X20500000Y18000000D03*
X5500000Y37500000D03*
X51500000Y6500000D03*
X6500000Y8500000D03*
X40740000Y33000000D03*
X500000Y12500000D03*
X24390000Y12590000D03*
X43500000Y6500000D03*
X41500000Y18500000D03*
X6500000Y18500000D03*
X31250000Y8500000D03*
X43500000Y4500000D03*
X20500000Y55500000D03*
X59500000Y26500000D03*
X8500000Y22500000D03*
X49500000Y8500000D03*
X5500000Y15500000D03*
X20550000Y24110000D03*
X52500000Y55500000D03*
X33500000Y4500000D03*
X7500000Y17500000D03*
X23500000Y55500000D03*
X26350000Y14480000D03*
X30140000Y22250000D03*
X32500000Y50500000D03*
X50500000Y4500000D03*
X30500000Y52500000D03*
X39290000Y16480000D03*
X59500000Y38500000D03*
X5500000Y29500000D03*
X29500000Y55500000D03*
X50510000Y39440000D03*
X500000Y10500000D03*
X59500000Y18500000D03*
X23840000Y39180000D03*
X57500000Y28500000D03*
X25350000Y36130000D03*
X59500000Y15500000D03*
X53067445Y25668950D03*
X46490000Y28500000D03*
X14873199Y36093199D03*
X8500000Y50500000D03*
X36500000Y52500000D03*
X33500000Y49500000D03*
X24500000Y55500000D03*
X17410000Y29930000D03*
X15500000Y4500000D03*
X57500000Y34500000D03*
X23860000Y10470000D03*
X59500000Y49500000D03*
X21500000Y11470000D03*
X54365227Y35773130D03*
X31500000Y55500000D03*
X3500000Y29500000D03*
X15023199Y42046801D03*
X45500000Y4500000D03*
X6500000Y36500000D03*
X500000Y39500000D03*
X7500000Y15500000D03*
X51500000Y4500000D03*
X52800000Y31600000D03*
X43500000Y8500000D03*
X59500000Y13500000D03*
X34500000Y55500000D03*
X16210000Y6540000D03*
X59500000Y9500000D03*
X23800000Y27900000D03*
X29347982Y26284379D03*
X8500000Y34500000D03*
X53500000Y4500000D03*
X5500000Y21500000D03*
X20500000Y12500000D03*
X59500000Y40500000D03*
X12328199Y36078199D03*
X6500000Y48500000D03*
X59500000Y28500000D03*
X30500000Y4500000D03*
X42500000Y55500000D03*
X32500000Y4500000D03*
X22500000Y55500000D03*
X53550000Y51090000D03*
X49500000Y13500000D03*
X43990000Y27250000D03*
X45610000Y20400000D03*
X4500000Y32500000D03*
X5500000Y13500000D03*
X26400000Y51160000D03*
X54510343Y21250000D03*
X23870000Y16520000D03*
X14500000Y12500000D03*
X59500000Y25500000D03*
X59500000Y23500000D03*
X3500000Y41500000D03*
X40060000Y35490000D03*
X8500000Y18500000D03*
X47500000Y14500000D03*
X21300000Y15520000D03*
X14410000Y48000000D03*
X29500000Y49500000D03*
X23140000Y12470000D03*
X42500000Y42500000D03*
X59500000Y37500000D03*
X22440000Y48000000D03*
X500000Y30500000D03*
X59500000Y8500000D03*
X7500000Y49500000D03*
X22000000Y18000000D03*
X8500000Y40500000D03*
X7500000Y33500000D03*
X41039956Y26199592D03*
X39500000Y55500000D03*
X25190000Y48420000D03*
X35235000Y38000000D03*
X44500000Y42500000D03*
X38500000Y55500000D03*
X4500000Y52500000D03*
X7500000Y21500000D03*
X57500000Y36600000D03*
X33500000Y51500000D03*
X59500000Y47500000D03*
X7500000Y39500000D03*
X21500000Y4500000D03*
X47015001Y22243529D03*
X9500000Y55500000D03*
X37500000Y55500000D03*
X8500000Y44500000D03*
X32500000Y46500000D03*
X500000Y8500000D03*
X59500000Y14500000D03*
X35500000Y49500000D03*
X1500000Y31500000D03*
X30250000Y8500000D03*
X53500000Y43180000D03*
X57000000Y46400000D03*
X21500000Y55500000D03*
X4500000Y30500000D03*
X2500000Y16500000D03*
X19410000Y48000000D03*
X44230000Y11340000D03*
X16500000Y4500000D03*
X21280000Y19600000D03*
X500000Y52500000D03*
X8500000Y32500000D03*
X13593199Y29956801D03*
X45500000Y16500000D03*
X50520000Y40530000D03*
X43990000Y28500000D03*
X11010000Y6550000D03*
X18750000Y10490000D03*
X57000000Y49500000D03*
X29500000Y4500000D03*
X4500000Y34500000D03*
X28500000Y4500000D03*
X18730000Y29940000D03*
X6500000Y38500000D03*
X5500000Y47500000D03*
X30250000Y12500000D03*
X24500000Y4500000D03*
X39500000Y4500000D03*
X19950000Y36120000D03*
X25500000Y55500000D03*
X16288199Y42031801D03*
X57500000Y40500000D03*
X40020000Y40120000D03*
X32750000Y25510000D03*
X11500000Y4500000D03*
X53500000Y42500000D03*
X26500000Y4500000D03*
X55500000Y6500000D03*
X21300000Y16520000D03*
X48820000Y19797820D03*
X16200000Y8530000D03*
X8500000Y28500000D03*
X38500000Y4500000D03*
X17500000Y55500000D03*
X8500000Y24500000D03*
X57500000Y32500000D03*
X26310000Y44830000D03*
X1500000Y43500000D03*
X40075769Y15462307D03*
X33500000Y53500000D03*
X52004862Y31638464D03*
X47920000Y19760000D03*
X3500000Y31500000D03*
X23870000Y14490000D03*
X9500000Y4500000D03*
X41500000Y4500000D03*
X52575000Y12975000D03*
X30250000Y16500000D03*
X25000000Y18000000D03*
X31250000Y9500000D03*
X33250000Y18500000D03*
X8500000Y10500000D03*
X23800000Y26630000D03*
X18500000Y55500000D03*
X8500000Y14500000D03*
X30150000Y27900000D03*
X21250000Y10500000D03*
X46500000Y15500000D03*
X31250000Y10500000D03*
X20000000Y11500000D03*
X5500000Y17500000D03*
X31250000Y14500000D03*
X57500000Y18500000D03*
X49268199Y20818199D03*
X34500000Y52500000D03*
X57500000Y26500000D03*
X4500000Y10500000D03*
X8500000Y16500000D03*
X53440000Y48610000D03*
X6500000Y32500000D03*
X39296395Y14550000D03*
X50175000Y34025000D03*
X13756801Y42053199D03*
X21310000Y51170000D03*
X5500000Y31500000D03*
X31500000Y53500000D03*
X49500000Y4500000D03*
X19500000Y4500000D03*
X53500000Y6500000D03*
X23860000Y15500000D03*
X31500000Y45500000D03*
X500000Y45500000D03*
X21250000Y8530000D03*
X18700000Y6520000D03*
X44500000Y55500000D03*
X21260000Y27900000D03*
X59500000Y20500000D03*
X42500000Y15500000D03*
X31250000Y21000000D03*
X59500000Y21500000D03*
X53550000Y50410000D03*
X23860000Y8540003D03*
X31250000Y15500000D03*
X500000Y40500000D03*
X6500000Y28500000D03*
X22690000Y30280000D03*
X18680000Y36110000D03*
X58500000Y29500000D03*
X32240000Y33120000D03*
X57500000Y8500000D03*
X29860000Y33120000D03*
X59500000Y29500000D03*
X30250000Y13500000D03*
X33240000Y13200000D03*
X53140000Y28550000D03*
X59500000Y12500000D03*
X45500000Y55500000D03*
X58500000Y39500000D03*
X31250000Y12500000D03*
X3500000Y17500000D03*
X17320000Y24120000D03*
X30250000Y10500000D03*
X43990000Y29750000D03*
X8500000Y48500000D03*
X25500000Y4500000D03*
X54500000Y17500000D03*
X31500000Y43500000D03*
X21300000Y39180000D03*
X14500000Y55500000D03*
X5500000Y39500000D03*
X43500000Y16500000D03*
X8500000Y42500000D03*
X2500000Y40500000D03*
X53500000Y41000000D03*
X3500000Y53500000D03*
X31500000Y39500000D03*
X51730227Y24355227D03*
X33000000Y20250000D03*
X50500000Y55500000D03*
X26310000Y10470000D03*
X11130000Y51170000D03*
X25580000Y12580000D03*
X5500000Y11500000D03*
X4500000Y44500000D03*
X8500000Y20500000D03*
X59500000Y33500000D03*
X26310000Y8540000D03*
X500000Y41500000D03*
X2500000Y30500000D03*
X6500000Y24500000D03*
X49500000Y6500000D03*
X6500000Y22500000D03*
X58500000Y23500000D03*
X52575000Y27650000D03*
X53560000Y51780000D03*
X4500000Y28500000D03*
X30250000Y9500000D03*
X41500000Y8500000D03*
X45500000Y8500000D03*
X4500000Y14500000D03*
X16900000Y47990000D03*
X500000Y51500000D03*
X18750000Y51170000D03*
X59500000Y44500000D03*
X26310000Y6530000D03*
X11170699Y42049301D03*
X9690000Y30040000D03*
X30500000Y48500000D03*
X2500000Y6500000D03*
X3500000Y7500000D03*
X5500000Y7500000D03*
X29000000Y34000000D03*
X58500000Y9500000D03*
X4500000Y48500000D03*
X2500000Y52500000D03*
X5500000Y27500000D03*
X51500000Y55500000D03*
X43850000Y20310000D03*
X53500000Y8500000D03*
X7500000Y55500000D03*
X40000000Y22000000D03*
X42500000Y4500000D03*
X4500000Y6500000D03*
X4500000Y22500000D03*
X21250000Y6500000D03*
X56500000Y7500000D03*
X37500000Y41500000D03*
X11760000Y12660000D03*
X43500000Y14500000D03*
X57000000Y47800000D03*
X31360000Y22940000D03*
X500000Y31500000D03*
X31250000Y13500000D03*
X7500000Y43500000D03*
X31500000Y49500000D03*
X23500000Y18000000D03*
X4500000Y18500000D03*
X4500000Y42500000D03*
X30250000Y15500000D03*
X10500000Y4500000D03*
X59500000Y11500000D03*
X11140000Y53490000D03*
X41500000Y10500000D03*
X8500000Y8500000D03*
X37990000Y31510000D03*
X1500000Y17500000D03*
X53510000Y43870000D03*
X500000Y16500000D03*
X500000Y9500000D03*
X500000Y15500000D03*
X6500000Y6500000D03*
X7500000Y47500000D03*
X21270000Y21880000D03*
X36500000Y42500000D03*
X50500000Y7500000D03*
X40500000Y55500000D03*
X28740000Y42750000D03*
X57920000Y53480000D03*
X17500000Y4500000D03*
X59500000Y24500000D03*
X59500000Y27500000D03*
X52500000Y7500000D03*
X58500000Y33500000D03*
X2500000Y18500000D03*
X16023199Y24113199D03*
X500000Y44500000D03*
X6500000Y20500000D03*
X58500000Y31500000D03*
X35500000Y55500000D03*
X18750000Y53460000D03*
X58500000Y21500000D03*
X500000Y35500000D03*
X59500000Y41500000D03*
X43500000Y55500000D03*
X500000Y21500000D03*
X40500000Y4500000D03*
X59500000Y45500000D03*
X23820000Y23020000D03*
X51500000Y8500000D03*
X54500000Y19500000D03*
X7480000Y53470000D03*
X7500000Y19500000D03*
X57500000Y20500000D03*
X32500000Y52500000D03*
X500000Y47500000D03*
X57000000Y51500000D03*
X17450000Y17700000D03*
X35750584Y12879218D03*
X32500000Y44500000D03*
X28850000Y10480000D03*
X57500000Y16500000D03*
X53500000Y55500000D03*
X7500000Y9500000D03*
X59500000Y50500000D03*
X57500000Y12500000D03*
X13610000Y36080000D03*
X54500000Y24250000D03*
X16123199Y36113199D03*
X35215000Y34000000D03*
X22500000Y4500000D03*
X58500000Y37500000D03*
X35235000Y31500000D03*
X27500000Y4500000D03*
X13680000Y6570000D03*
X13430000Y11490000D03*
X41990000Y37000000D03*
X35729414Y13570781D03*
X54500000Y7500000D03*
X22060000Y12490000D03*
X35660000Y20550000D03*
X35500000Y46500000D03*
X35500000Y4500000D03*
X38220000Y25900000D03*
X59500000Y35500000D03*
X23860000Y51160000D03*
X18500000Y11500000D03*
X7500000Y45500000D03*
X59500000Y48500000D03*
X11070000Y36060000D03*
X500000Y36500000D03*
X27500000Y55500000D03*
X26340000Y27900000D03*
X59500000Y34500000D03*
X18500000Y4500000D03*
X46870000Y38680000D03*
X18300000Y12550000D03*
X500000Y11500000D03*
X8500000Y36500000D03*
X4500000Y46500000D03*
X57500000Y38500000D03*
X49340000Y34850000D03*
X31500000Y41500000D03*
X39500000Y21500000D03*
X58500000Y41500000D03*
X32500000Y40500000D03*
X26380000Y39180000D03*
X48500000Y15500000D03*
X50500000Y9500000D03*
X12470000Y42050000D03*
X6500000Y30500000D03*
X30500000Y55500000D03*
X7500000Y35500000D03*
X5500000Y49500000D03*
X500000Y7500000D03*
X6500000Y34500000D03*
X22971801Y23571801D03*
X56200000Y47100000D03*
X16500000Y55500000D03*
X13500000Y55500000D03*
X500000Y33500000D03*
X35500000Y51500000D03*
X58500000Y19500000D03*
X5500000Y51500000D03*
X35270000Y25000000D03*
X40750000Y17500000D03*
X44500000Y4500000D03*
X6500000Y26500000D03*
X5500000Y43500000D03*
X4500000Y50500000D03*
X23880000Y19610000D03*
X38500000Y19000000D03*
X9860000Y42030000D03*
X17000000Y11500000D03*
X500000Y43500000D03*
X5490000Y53500000D03*
X5500000Y19500000D03*
X58000000Y48500000D03*
X4500000Y16500000D03*
X23860000Y7330000D03*
X58500000Y17500000D03*
X10500000Y55500000D03*
X6500000Y40500000D03*
X500000Y19500000D03*
X20500000Y30000000D03*
X57500000Y22500000D03*
X8500000Y12500000D03*
X6500000Y55500000D03*
X17570000Y42030000D03*
X500000Y17500000D03*
X500000Y38500000D03*
X33775000Y11125000D03*
X40500000Y9500000D03*
X40085415Y14560000D03*
X11500000Y55500000D03*
X500000Y23500000D03*
X4500000Y8500000D03*
X57500000Y6500000D03*
X500000Y26500000D03*
X17403199Y36113199D03*
X8500000Y52500000D03*
X10410000Y12650000D03*
X9370000Y12640000D03*
X7500000Y13500000D03*
X6500000Y16500000D03*
X30150000Y31710000D03*
X29080000Y22980000D03*
X8500000Y55500000D03*
X59500000Y17500000D03*
X45240000Y28500000D03*
X32500000Y55500000D03*
X31500000Y4500000D03*
X58510000Y52820000D03*
X36500000Y4500000D03*
X1500000Y41500000D03*
X3500000Y43500000D03*
X47500000Y12000000D03*
X59500000Y30500000D03*
X57500000Y10500000D03*
X19200000Y12550000D03*
X44560000Y36350000D03*
X500000Y49500000D03*
%TO.N,+3V3*%
X41240000Y32400000D03*
X48040000Y32450000D03*
X51250000Y35500000D03*
X50050000Y24400000D03*
X41255000Y24658750D03*
X36715000Y31250000D03*
X36715000Y32000000D03*
X53790000Y52960000D03*
X48430000Y29790000D03*
X51750000Y39500000D03*
X45840000Y32500000D03*
X36750000Y18250000D03*
X47000000Y40000000D03*
X48500000Y39250000D03*
X50325000Y32825000D03*
X40705000Y23958750D03*
X51750000Y36500000D03*
X49638199Y33511801D03*
X51250000Y38750000D03*
X48425000Y30850000D03*
X51750000Y34250000D03*
X36750000Y19000000D03*
X51951445Y28193716D03*
X50775000Y23625000D03*
X42990000Y38250000D03*
X50500000Y37800000D03*
X42490000Y38250000D03*
X36750000Y24750000D03*
X54300000Y37000000D03*
X37310000Y18640000D03*
X41240000Y29700000D03*
X47500000Y39250000D03*
X41255000Y27800000D03*
X49500000Y39250000D03*
X51750000Y38000000D03*
X37530000Y13440000D03*
X50950000Y32100000D03*
X37310000Y31640000D03*
X44740000Y24600000D03*
X51250000Y37250000D03*
X36715000Y37750000D03*
X41990000Y38250000D03*
X37380000Y25160000D03*
X48000000Y40000000D03*
X36750000Y25500000D03*
X49810000Y51240000D03*
X49000000Y40000000D03*
X37043062Y13440000D03*
%TO.N,+1V1*%
X46940000Y31900000D03*
X46940000Y35450000D03*
X45889898Y22790051D03*
X39740000Y28700027D03*
X46940000Y32500000D03*
X49450000Y28700000D03*
X41240000Y28700000D03*
X51350000Y28699898D03*
X46940000Y34850000D03*
X45900000Y24960000D03*
%TO.N,MCU_OE*%
X36230000Y13240000D03*
X49275000Y21445000D03*
%TO.N,MCU_R32*%
X36230000Y26490000D03*
X39595129Y27110000D03*
%TO.N,MCU_LAT*%
X49270330Y20194312D03*
X39695177Y14101697D03*
%TO.N,MCU_G21*%
X38020000Y32135311D03*
X36250000Y33000000D03*
%TO.N,MCU_E*%
X47470000Y20160000D03*
X39677145Y15910750D03*
%TO.N,MCU_B42*%
X41855764Y22589367D03*
X36230000Y20090000D03*
%TO.N,HUB_CLK*%
X12990000Y12000000D03*
X30750000Y11950000D03*
%TO.N,HUB_C*%
X15650000Y15000000D03*
X30750000Y15000000D03*
%TO.N,HUB_G11*%
X28760000Y43470000D03*
X30330000Y42740000D03*
%TO.N,HUB_OE*%
X9859982Y13050000D03*
X33330000Y12400000D03*
X30750000Y9950000D03*
X35250000Y13210000D03*
%TO.N,HUB_LAT*%
X30750000Y11000000D03*
X12990000Y11000000D03*
%TO.N,HUB_E*%
X30750000Y13050000D03*
X18750000Y13050000D03*
%TO.N,HUB_A*%
X30750000Y17000000D03*
X17900000Y17300000D03*
%TO.N,HUB_D*%
X30750000Y14000000D03*
X13670000Y14000000D03*
%TO.N,HUB_B*%
X16240000Y16140000D03*
X30750000Y16000000D03*
%TO.N,HUB_G21*%
X29850000Y32500000D03*
X35260000Y33000000D03*
%TO.N,HUB_B32*%
X22390000Y24070000D03*
X24420000Y23470000D03*
%TO.N,HUB_R32*%
X31530000Y26080000D03*
X35247042Y26464720D03*
%TO.N,HUB_G31*%
X28350000Y22960000D03*
X29350000Y25650000D03*
%TO.N,HUB_G42*%
X33271472Y20785075D03*
X23860000Y7940000D03*
%TO.N,HUB_G41*%
X30750000Y9000000D03*
X32375000Y22025000D03*
%TO.N,HUB_B42*%
X35272890Y20091580D03*
X33268329Y19713341D03*
%TO.N,+5V*%
X33984894Y13600000D03*
X34456938Y20110000D03*
X34500000Y45925000D03*
X34403507Y33132489D03*
X34500000Y47025000D03*
X33950000Y46475000D03*
X34400509Y26629491D03*
X33900000Y33130000D03*
X34456938Y13590000D03*
X33950000Y47025000D03*
X33881935Y20110000D03*
X33900000Y26630000D03*
X33950000Y45925000D03*
X34500000Y46475000D03*
%TO.N,MCU_CLK*%
X39679662Y15011638D03*
X48349471Y20178996D03*
%TO.N,RESET_PORT*%
X35700000Y12100000D03*
X54800000Y38498094D03*
%TO.N,USB_PORT_DP*%
X53541783Y48016600D03*
X45593400Y38677170D03*
%TO.N,USB_PORT_DN*%
X46246600Y38677170D03*
X53541783Y47363400D03*
%TO.N,EXT_03*%
X51364633Y22212276D03*
X51250000Y24825000D03*
%TO.N,EXT_08*%
X53520000Y25275000D03*
X54500000Y22040000D03*
%TO.N,EXT_09*%
X54500000Y23498865D03*
X50717793Y27890000D03*
%TO.N,EXT_04*%
X52143366Y22176387D03*
X52225000Y23875000D03*
%TO.N,EXT_10*%
X50704976Y29099948D03*
X54500000Y25000000D03*
%TO.N,EXT_07*%
X52643180Y26093218D03*
X54500000Y20510000D03*
%TO.N,DIO_PORT*%
X54840000Y36140000D03*
X49250000Y27500000D03*
%TO.N,CLK_PORT*%
X48250000Y26500000D03*
X53897170Y35397730D03*
%TO.N,/RUN*%
X46950000Y22840000D03*
X52750000Y37050000D03*
%TO.N,VDBG*%
X54250000Y39500000D03*
X53750000Y39500000D03*
X53250000Y39500000D03*
X37400000Y44600000D03*
X54750000Y39500000D03*
X36900000Y44600000D03*
X38900000Y44600000D03*
X37900000Y44600000D03*
X38400000Y44600000D03*
%TO.N,SDA_NODE*%
X44870000Y11490000D03*
X52400000Y31149898D03*
%TO.N,SCL_NODE*%
X52401693Y32088494D03*
X43870000Y10830000D03*
%TD*%
D13*
%TO.N,+3V3*%
X50540000Y52960000D02*
X53790000Y52960000D01*
X49810000Y52230000D02*
X50540000Y52960000D01*
D14*
X48425000Y30850000D02*
X48425000Y29795000D01*
X54300000Y36825000D02*
X54300000Y37000000D01*
D13*
X49810000Y51240000D02*
X49810000Y52230000D01*
D14*
X51750000Y34250000D02*
X51750000Y34275000D01*
X48425000Y30925000D02*
X50325000Y32825000D01*
X48425000Y29795000D02*
X48430000Y29790000D01*
X51750000Y34250000D02*
X50325000Y32825000D01*
X48425000Y30850000D02*
X48425000Y30925000D01*
X51750000Y34275000D02*
X54300000Y36825000D01*
D13*
%TO.N,MCU_OE*%
X36480000Y12990000D02*
X48115000Y12990000D01*
X49451801Y21268199D02*
X49275000Y21445000D01*
X48115000Y12990000D02*
X50140000Y15015000D01*
X50140000Y20582795D02*
X49454596Y21268199D01*
X49454596Y21268199D02*
X49451801Y21268199D01*
X36230000Y13240000D02*
X36480000Y12990000D01*
X50140000Y15015000D02*
X50140000Y20582795D01*
%TO.N,MCU_R32*%
X39026397Y26490000D02*
X36230000Y26490000D01*
X39595129Y27058732D02*
X39026397Y26490000D01*
X39595129Y27110000D02*
X39595129Y27058732D01*
%TO.N,MCU_LAT*%
X39695177Y14101697D02*
X39806874Y13990000D01*
X39806874Y13990000D02*
X47990000Y13990000D01*
X49270000Y15270000D02*
X49270000Y20193982D01*
X49270000Y20193982D02*
X49270330Y20194312D01*
X47990000Y13990000D02*
X49270000Y15270000D01*
%TO.N,MCU_G21*%
X36930000Y33000000D02*
X36250000Y33000000D01*
X38020000Y32135311D02*
X37794689Y32135311D01*
X37794689Y32135311D02*
X36930000Y33000000D01*
%TO.N,MCU_E*%
X39677145Y15910750D02*
X39776395Y16010000D01*
X39776395Y16010000D02*
X46910000Y16010000D01*
X46910000Y16010000D02*
X47470000Y16570000D01*
X47470000Y16570000D02*
X47470000Y20160000D01*
%TO.N,MCU_B42*%
X41855764Y22485764D02*
X39460000Y20090000D01*
X41855764Y22589367D02*
X41855764Y22485764D01*
X39460000Y20090000D02*
X36230000Y20090000D01*
%TO.N,HUB_CLK*%
X13040000Y11950000D02*
X12990000Y12000000D01*
X30750000Y11950000D02*
X13040000Y11950000D01*
%TO.N,HUB_C*%
X30750000Y15000000D02*
X15650000Y15000000D01*
%TO.N,HUB_G11*%
X29280000Y43470000D02*
X30010000Y42740000D01*
X28760000Y43470000D02*
X29280000Y43470000D01*
X30010000Y42740000D02*
X30330000Y42740000D01*
%TO.N,HUB_OE*%
X34860000Y12820000D02*
X35250000Y13210000D01*
X9859982Y12109982D02*
X9859982Y13050000D01*
X9850000Y12100000D02*
X9859982Y12109982D01*
X11900000Y9950000D02*
X9850000Y12000000D01*
X9850000Y12000000D02*
X9850000Y12100000D01*
X33330000Y12400000D02*
X33750000Y12820000D01*
X30750000Y9950000D02*
X11900000Y9950000D01*
X33750000Y12820000D02*
X34860000Y12820000D01*
%TO.N,HUB_LAT*%
X12990000Y11000000D02*
X30750000Y11000000D01*
%TO.N,HUB_E*%
X30750000Y13050000D02*
X18750000Y13050000D01*
%TO.N,HUB_A*%
X18200000Y17000000D02*
X17900000Y17300000D01*
X30750000Y17000000D02*
X18200000Y17000000D01*
%TO.N,HUB_D*%
X13670000Y14000000D02*
X30750000Y14000000D01*
%TO.N,HUB_B*%
X30750000Y16000000D02*
X16380000Y16000000D01*
X16380000Y16000000D02*
X16240000Y16140000D01*
%TO.N,HUB_G21*%
X35260000Y33000000D02*
X34760000Y32500000D01*
X34760000Y32500000D02*
X29850000Y32500000D01*
%TO.N,HUB_B32*%
X22390000Y24070000D02*
X23109999Y24070000D01*
X23709999Y23470000D02*
X24420000Y23470000D01*
X23109999Y24070000D02*
X23709999Y23470000D01*
%TO.N,HUB_R32*%
X34920000Y26070000D02*
X31540000Y26070000D01*
X35247042Y26464720D02*
X35247042Y26397042D01*
X35247042Y26397042D02*
X34920000Y26070000D01*
X31540000Y26070000D02*
X31530000Y26080000D01*
%TO.N,HUB_G31*%
X29350000Y25650000D02*
X29350000Y24800000D01*
X28350000Y23800000D02*
X28350000Y22960000D01*
X29350000Y24800000D02*
X28350000Y23800000D01*
%TO.N,HUB_G42*%
X31500000Y7940000D02*
X23860000Y7940000D01*
X32898678Y20785075D02*
X32500000Y20386397D01*
X33271472Y20785075D02*
X32898678Y20785075D01*
X32500000Y20386397D02*
X32500000Y8940000D01*
X32500000Y8940000D02*
X31500000Y7940000D01*
%TO.N,HUB_G41*%
X31750000Y21400000D02*
X32375000Y22025000D01*
X30750000Y9000000D02*
X31500000Y9000000D01*
X31500000Y9000000D02*
X31750000Y9250000D01*
X31750000Y9250000D02*
X31750000Y21400000D01*
%TO.N,HUB_B42*%
X33268329Y19713341D02*
X33321670Y19660000D01*
X34841310Y19660000D02*
X35272890Y20091580D01*
X33321670Y19660000D02*
X34841310Y19660000D01*
%TO.N,MCU_CLK*%
X39681300Y15010000D02*
X47210000Y15010000D01*
X48370000Y20158467D02*
X48349471Y20178996D01*
X39679662Y15011638D02*
X39681300Y15010000D01*
X47210000Y15010000D02*
X48370000Y16170000D01*
X48370000Y16170000D02*
X48370000Y20158467D01*
%TO.N,RESET_PORT*%
X54800000Y38498094D02*
X56291906Y38498094D01*
X54360000Y10050000D02*
X43190000Y10050000D01*
X56880000Y37910000D02*
X56880000Y12570000D01*
X56880000Y12570000D02*
X54360000Y10050000D01*
X56291906Y38498094D02*
X56880000Y37910000D01*
X43190000Y10050000D02*
X41140000Y12100000D01*
X41140000Y12100000D02*
X35700000Y12100000D01*
%TO.N,EXT_03*%
X51250000Y24825000D02*
X51250000Y22326909D01*
X51250000Y22326909D02*
X51364633Y22212276D01*
%TO.N,EXT_08*%
X53520000Y23020000D02*
X54500000Y22040000D01*
X53520000Y25275000D02*
X53520000Y23020000D01*
%TO.N,EXT_09*%
X54000000Y23998865D02*
X54000000Y26100000D01*
X54500000Y23498865D02*
X54000000Y23998865D01*
X52975000Y27125000D02*
X51482793Y27125000D01*
X54000000Y26100000D02*
X52975000Y27125000D01*
X51482793Y27125000D02*
X50717793Y27890000D01*
%TO.N,EXT_04*%
X52225000Y22258021D02*
X52143366Y22176387D01*
X52225000Y23875000D02*
X52225000Y22258021D01*
%TO.N,EXT_10*%
X54500000Y26425000D02*
X51775102Y29149898D01*
X50754926Y29149898D02*
X50704976Y29099948D01*
X54500000Y25000000D02*
X54500000Y26425000D01*
X51775102Y29149898D02*
X50754926Y29149898D01*
%TO.N,EXT_07*%
X53025000Y24975000D02*
X53025000Y21985000D01*
X52643180Y26093218D02*
X52643180Y25881082D01*
X52643180Y25881082D02*
X52617445Y25855347D01*
X53025000Y21985000D02*
X54500000Y20510000D01*
X52617445Y25855347D02*
X52617445Y25382555D01*
X52617445Y25382555D02*
X53025000Y24975000D01*
%TO.N,DIO_PORT*%
X52256801Y32576801D02*
X52253603Y32576801D01*
X54840000Y36140000D02*
X54840000Y35160000D01*
X50150000Y28400000D02*
X49250000Y27500000D01*
X50150000Y30473198D02*
X50150000Y28400000D01*
X52253603Y32576801D02*
X50150000Y30473198D01*
X54840000Y35160000D02*
X52256801Y32576801D01*
%TO.N,CLK_PORT*%
X48250000Y28500000D02*
X48250000Y26500000D01*
X49325000Y31150000D02*
X49325000Y29575000D01*
X53572730Y35397730D02*
X49325000Y31150000D01*
X53897170Y35397730D02*
X53572730Y35397730D01*
X49325000Y29575000D02*
X48250000Y28500000D01*
%TO.N,/RUN*%
X52660000Y35860000D02*
X46950000Y30150000D01*
X46950000Y30150000D02*
X46950000Y22840000D01*
X52660000Y36960000D02*
X52660000Y35860000D01*
X52750000Y37050000D02*
X52660000Y36960000D01*
D15*
%TO.N,VDBG*%
X53250000Y39500000D02*
X54750000Y39500000D01*
X48150000Y44600000D02*
X53250000Y39500000D01*
X36900000Y44600000D02*
X48150000Y44600000D01*
D13*
%TO.N,SDA_NODE*%
X53320000Y11490000D02*
X55600000Y13770000D01*
X55600000Y30000000D02*
X54450102Y31149898D01*
X55600000Y13770000D02*
X55600000Y30000000D01*
X44870000Y11490000D02*
X53320000Y11490000D01*
X54450102Y31149898D02*
X52400000Y31149898D01*
%TO.N,SCL_NODE*%
X53910000Y10840000D02*
X56280000Y13210000D01*
X43880000Y10840000D02*
X53910000Y10840000D01*
X56280000Y30320000D02*
X54511506Y32088494D01*
X43870000Y10830000D02*
X43880000Y10840000D01*
X56280000Y13210000D02*
X56280000Y30320000D01*
X54511506Y32088494D02*
X52401693Y32088494D01*
%TD*%
%TA.AperFunction,Conductor*%
%TO.N,GND*%
G36*
X54512688Y36437356D02*
G01*
X54534362Y36385030D01*
X54526297Y36351435D01*
X54478426Y36257483D01*
X54459819Y36140000D01*
X54478426Y36022518D01*
X54478426Y36022517D01*
X54498022Y35984059D01*
X54524683Y35931733D01*
X54532428Y35916534D01*
X54592826Y35856136D01*
X54614500Y35803810D01*
X54614500Y35284058D01*
X54592826Y35231732D01*
X52140657Y32779564D01*
X52129447Y32770363D01*
X52125865Y32767970D01*
X52062432Y32704536D01*
X51450338Y32092443D01*
X51398012Y32070769D01*
X51345686Y32092443D01*
X51324923Y32133193D01*
X51313421Y32205822D01*
X51311574Y32217483D01*
X51311573Y32217484D01*
X51310544Y32219503D01*
X51257573Y32323465D01*
X51173465Y32407573D01*
X51173464Y32407574D01*
X51084035Y32453140D01*
X51047252Y32496207D01*
X51051696Y32552669D01*
X51065301Y32571397D01*
X53577094Y35083191D01*
X53629419Y35104864D01*
X53668237Y35092253D01*
X53668517Y35092801D01*
X53671978Y35091038D01*
X53672912Y35090734D01*
X53673702Y35090160D01*
X53673705Y35090157D01*
X53779688Y35036156D01*
X53897170Y35017549D01*
X54014652Y35036156D01*
X54120635Y35090157D01*
X54204743Y35174265D01*
X54258744Y35280248D01*
X54277351Y35397730D01*
X54258744Y35515212D01*
X54204743Y35621195D01*
X54120635Y35705303D01*
X54068654Y35731789D01*
X54014653Y35759304D01*
X53912352Y35775507D01*
X53864061Y35805100D01*
X53850839Y35860172D01*
X53871600Y35900920D01*
X54408039Y36437358D01*
X54460362Y36459030D01*
X54512688Y36437356D01*
G37*
%TD.AperFunction*%
%TA.AperFunction,Conductor*%
G36*
X2541597Y59999855D02*
G01*
X2809010Y59983031D01*
X2818206Y59981869D01*
X3117771Y59924724D01*
X3126759Y59922416D01*
X3416799Y59828176D01*
X3425424Y59824761D01*
X3701369Y59694911D01*
X3709503Y59690440D01*
X3966991Y59527033D01*
X3974496Y59521581D01*
X4181771Y59350108D01*
X4209471Y59327192D01*
X4216246Y59320830D01*
X4425001Y59098528D01*
X4430924Y59091368D01*
X4610167Y58844662D01*
X4615147Y58836816D01*
X4762064Y58569575D01*
X4766020Y58561166D01*
X4801931Y58470466D01*
X4875210Y58285383D01*
X4878277Y58277638D01*
X4881149Y58268800D01*
X4956986Y57973431D01*
X4958728Y57964302D01*
X4997022Y57661168D01*
X4997596Y57653056D01*
X4999997Y57500145D01*
X5002312Y57382129D01*
X5039189Y57149294D01*
X5039192Y57149281D01*
X5112035Y56925093D01*
X5219061Y56715041D01*
X5219368Y56714618D01*
X5357628Y56524322D01*
X5524322Y56357628D01*
X5715040Y56219062D01*
X5925087Y56112038D01*
X5925089Y56112038D01*
X5925092Y56112036D01*
X6149280Y56039193D01*
X6149286Y56039192D01*
X6149291Y56039190D01*
X6382129Y56002312D01*
X6500000Y56000000D01*
X53499989Y56000000D01*
X53500000Y56000000D01*
X53617871Y56002312D01*
X53850709Y56039190D01*
X53850716Y56039193D01*
X53850719Y56039193D01*
X54074907Y56112036D01*
X54074907Y56112037D01*
X54074913Y56112038D01*
X54284960Y56219062D01*
X54475678Y56357628D01*
X54642372Y56524322D01*
X54780938Y56715040D01*
X54887962Y56925087D01*
X54959932Y57146588D01*
X54960807Y57149281D01*
X54960807Y57149284D01*
X54960810Y57149291D01*
X54997688Y57382129D01*
X54999690Y57484231D01*
X55000000Y57500005D01*
X56097469Y57500005D01*
X56097469Y57500000D01*
X56117642Y57262975D01*
X56117642Y57262972D01*
X56117643Y57262971D01*
X56177585Y57032761D01*
X56275571Y56815993D01*
X56408781Y56618902D01*
X56408785Y56618898D01*
X56573380Y56447161D01*
X56573383Y56447159D01*
X56764643Y56305704D01*
X56872588Y56251280D01*
X56977056Y56198607D01*
X57204509Y56128950D01*
X57204516Y56128948D01*
X57440475Y56098733D01*
X57678146Y56108829D01*
X57910693Y56158947D01*
X58131425Y56247644D01*
X58333991Y56372369D01*
X58512566Y56529534D01*
X58662010Y56714618D01*
X58778026Y56922296D01*
X58857275Y57146593D01*
X58897478Y57381057D01*
X58900000Y57500000D01*
X58897478Y57618943D01*
X58857275Y57853407D01*
X58778026Y58077704D01*
X58718642Y58184007D01*
X58662012Y58285379D01*
X58662009Y58285383D01*
X58512565Y58470467D01*
X58333992Y58627631D01*
X58225715Y58694299D01*
X58131425Y58752356D01*
X58009389Y58801394D01*
X57910694Y58841053D01*
X57910691Y58841054D01*
X57742031Y58877403D01*
X57678146Y58891171D01*
X57678144Y58891172D01*
X57678138Y58891172D01*
X57440479Y58901268D01*
X57245858Y58876346D01*
X57204516Y58871052D01*
X57204515Y58871052D01*
X57204509Y58871051D01*
X56977056Y58801394D01*
X56764648Y58694299D01*
X56764646Y58694298D01*
X56573380Y58552840D01*
X56408785Y58381103D01*
X56408783Y58381101D01*
X56408781Y58381098D01*
X56332881Y58268800D01*
X56275572Y58184009D01*
X56177585Y57967241D01*
X56177584Y57967236D01*
X56117642Y57737026D01*
X56097469Y57500005D01*
X55000000Y57500005D01*
X55000003Y57500145D01*
X55002403Y57653056D01*
X55002977Y57661168D01*
X55041271Y57964302D01*
X55043013Y57973431D01*
X55118855Y58268816D01*
X55121716Y58277622D01*
X55233983Y58561175D01*
X55237930Y58569567D01*
X55384857Y58836825D01*
X55389826Y58844654D01*
X55569084Y59091379D01*
X55574988Y59098518D01*
X55783759Y59320837D01*
X55790521Y59327186D01*
X56025511Y59521587D01*
X56033000Y59527028D01*
X56290503Y59690444D01*
X56298623Y59694908D01*
X56574580Y59824764D01*
X56583194Y59828174D01*
X56873243Y59922417D01*
X56882224Y59924723D01*
X57181795Y59981869D01*
X57190987Y59983031D01*
X57458402Y59999855D01*
X57463048Y60000000D01*
X57536952Y60000000D01*
X57541597Y59999855D01*
X57809010Y59983031D01*
X57818206Y59981869D01*
X58117771Y59924724D01*
X58126759Y59922416D01*
X58416799Y59828176D01*
X58425424Y59824761D01*
X58701369Y59694911D01*
X58709503Y59690440D01*
X58966991Y59527033D01*
X58974496Y59521581D01*
X59181771Y59350108D01*
X59209471Y59327192D01*
X59216246Y59320830D01*
X59425001Y59098528D01*
X59430924Y59091368D01*
X59610167Y58844662D01*
X59615147Y58836816D01*
X59762064Y58569575D01*
X59766020Y58561166D01*
X59801931Y58470466D01*
X59875210Y58285383D01*
X59878277Y58277638D01*
X59881149Y58268800D01*
X59956986Y57973431D01*
X59958728Y57964302D01*
X59997022Y57661168D01*
X59997596Y57653056D01*
X59999991Y57500574D01*
X60000000Y57499412D01*
X60000000Y2500588D01*
X59999991Y2499426D01*
X59997596Y2346944D01*
X59997022Y2338832D01*
X59958728Y2035698D01*
X59956986Y2026569D01*
X59881149Y1731200D01*
X59878277Y1722362D01*
X59766020Y1438834D01*
X59762064Y1430425D01*
X59615147Y1163184D01*
X59610167Y1155338D01*
X59430924Y908632D01*
X59425001Y901472D01*
X59216246Y679170D01*
X59209471Y672808D01*
X58974502Y478424D01*
X58966984Y472962D01*
X58709507Y309563D01*
X58701364Y305086D01*
X58425432Y175242D01*
X58416791Y171821D01*
X58126766Y77586D01*
X58117765Y75275D01*
X57818218Y18133D01*
X57808999Y16968D01*
X57541628Y146D01*
X57536981Y0D01*
X57463019Y0D01*
X57458372Y146D01*
X57191000Y16968D01*
X57181781Y18133D01*
X56882234Y75275D01*
X56873233Y77586D01*
X56583208Y171821D01*
X56574567Y175242D01*
X56298635Y305086D01*
X56290492Y309563D01*
X56255627Y331689D01*
X56033011Y472965D01*
X56025501Y478421D01*
X55790528Y672808D01*
X55783753Y679170D01*
X55574998Y901472D01*
X55569075Y908632D01*
X55569074Y908633D01*
X55389831Y1155339D01*
X55384852Y1163184D01*
X55384851Y1163185D01*
X55237934Y1430427D01*
X55233979Y1438834D01*
X55230682Y1447161D01*
X55121718Y1722373D01*
X55118853Y1731189D01*
X55043013Y2026570D01*
X55041272Y2035697D01*
X55002977Y2338831D01*
X55002403Y2346928D01*
X55000000Y2499999D01*
X55000000Y2500005D01*
X56097469Y2500005D01*
X56097469Y2500000D01*
X56117642Y2262975D01*
X56117642Y2262972D01*
X56117643Y2262971D01*
X56147946Y2146593D01*
X56177584Y2032765D01*
X56177585Y2032760D01*
X56180384Y2026569D01*
X56275571Y1815993D01*
X56408781Y1618902D01*
X56408785Y1618898D01*
X56573380Y1447161D01*
X56596009Y1430425D01*
X56764643Y1305704D01*
X56872588Y1251280D01*
X56977056Y1198607D01*
X57118344Y1155338D01*
X57204516Y1128948D01*
X57440475Y1098733D01*
X57678146Y1108829D01*
X57910693Y1158947D01*
X58131425Y1247644D01*
X58333991Y1372369D01*
X58512566Y1529534D01*
X58662010Y1714618D01*
X58778026Y1922296D01*
X58857275Y2146593D01*
X58897478Y2381057D01*
X58900000Y2500000D01*
X58897478Y2618943D01*
X58857275Y2853407D01*
X58778026Y3077704D01*
X58718642Y3184007D01*
X58662012Y3285379D01*
X58662009Y3285383D01*
X58512565Y3470467D01*
X58333992Y3627631D01*
X58225715Y3694299D01*
X58131425Y3752356D01*
X58009389Y3801394D01*
X57910694Y3841053D01*
X57910691Y3841054D01*
X57742031Y3877403D01*
X57678146Y3891171D01*
X57678144Y3891172D01*
X57678138Y3891172D01*
X57440479Y3901268D01*
X57245858Y3876346D01*
X57204516Y3871052D01*
X57204515Y3871052D01*
X57204509Y3871051D01*
X56977056Y3801394D01*
X56764648Y3694299D01*
X56764646Y3694298D01*
X56573380Y3552840D01*
X56408785Y3381103D01*
X56408783Y3381101D01*
X56408781Y3381098D01*
X56343846Y3285023D01*
X56275572Y3184009D01*
X56177585Y2967241D01*
X56177584Y2967236D01*
X56117642Y2737026D01*
X56097469Y2500005D01*
X55000000Y2500005D01*
X54997808Y2617879D01*
X54960927Y2850737D01*
X54960925Y2850742D01*
X54960924Y2850748D01*
X54888075Y3074953D01*
X54888073Y3074956D01*
X54888073Y3074958D01*
X54781072Y3284960D01*
X54781040Y3285023D01*
X54642467Y3475752D01*
X54642466Y3475753D01*
X54642464Y3475756D01*
X54475756Y3642463D01*
X54475753Y3642466D01*
X54475751Y3642467D01*
X54285025Y3781039D01*
X54285019Y3781042D01*
X54074961Y3888073D01*
X54074956Y3888075D01*
X53850748Y3960924D01*
X53850735Y3960927D01*
X53617876Y3997808D01*
X53500011Y4000000D01*
X53500000Y4000000D01*
X6500000Y4000000D01*
X6391951Y3997881D01*
X6382128Y3997688D01*
X6149293Y3960811D01*
X6149280Y3960808D01*
X5925092Y3887965D01*
X5715040Y3780939D01*
X5524326Y3642376D01*
X5357624Y3475674D01*
X5219061Y3284960D01*
X5112035Y3074908D01*
X5039192Y2850720D01*
X5039189Y2850707D01*
X5002312Y2617872D01*
X4999997Y2499855D01*
X4997596Y2346945D01*
X4997022Y2338833D01*
X4958728Y2035699D01*
X4956986Y2026570D01*
X4881149Y1731201D01*
X4878277Y1722363D01*
X4766020Y1438835D01*
X4762064Y1430426D01*
X4615147Y1163185D01*
X4610167Y1155339D01*
X4430924Y908633D01*
X4425001Y901473D01*
X4216246Y679171D01*
X4209471Y672809D01*
X3974502Y478425D01*
X3966984Y472963D01*
X3709507Y309564D01*
X3701364Y305087D01*
X3425432Y175243D01*
X3416791Y171822D01*
X3126766Y77587D01*
X3117765Y75276D01*
X2818218Y18134D01*
X2808999Y16969D01*
X2541612Y146D01*
X2536965Y0D01*
X2463035Y0D01*
X2458388Y146D01*
X2191000Y16969D01*
X2181781Y18134D01*
X1882234Y75276D01*
X1873233Y77587D01*
X1583208Y171822D01*
X1574567Y175243D01*
X1298635Y305087D01*
X1290492Y309564D01*
X1033017Y472962D01*
X1033011Y472966D01*
X1025501Y478422D01*
X790528Y672809D01*
X783753Y679171D01*
X574998Y901473D01*
X569075Y908633D01*
X389832Y1155339D01*
X384852Y1163185D01*
X237935Y1430426D01*
X233980Y1438832D01*
X121718Y1722374D01*
X118853Y1731190D01*
X43013Y2026570D01*
X41271Y2035699D01*
X2977Y2338833D01*
X2403Y2346945D01*
X9Y2499427D01*
X5Y2500005D01*
X1097469Y2500005D01*
X1097469Y2500000D01*
X1117642Y2262975D01*
X1117642Y2262972D01*
X1117643Y2262971D01*
X1147946Y2146593D01*
X1177584Y2032765D01*
X1177585Y2032760D01*
X1180384Y2026569D01*
X1275571Y1815993D01*
X1408781Y1618902D01*
X1408785Y1618898D01*
X1573380Y1447161D01*
X1596009Y1430425D01*
X1764643Y1305704D01*
X1872588Y1251280D01*
X1977056Y1198607D01*
X2118344Y1155338D01*
X2204516Y1128948D01*
X2440475Y1098733D01*
X2678146Y1108829D01*
X2910693Y1158947D01*
X3131425Y1247644D01*
X3333991Y1372369D01*
X3512566Y1529534D01*
X3662010Y1714618D01*
X3778026Y1922296D01*
X3857275Y2146593D01*
X3897478Y2381057D01*
X3900000Y2500000D01*
X3897478Y2618943D01*
X3857275Y2853407D01*
X3778026Y3077704D01*
X3718642Y3184007D01*
X3662012Y3285379D01*
X3662009Y3285383D01*
X3512565Y3470467D01*
X3333992Y3627631D01*
X3225715Y3694299D01*
X3131425Y3752356D01*
X3009389Y3801394D01*
X2910694Y3841053D01*
X2910691Y3841054D01*
X2742031Y3877403D01*
X2678146Y3891171D01*
X2678144Y3891172D01*
X2678138Y3891172D01*
X2440479Y3901268D01*
X2245858Y3876346D01*
X2204516Y3871052D01*
X2204515Y3871052D01*
X2204509Y3871051D01*
X1977056Y3801394D01*
X1764648Y3694299D01*
X1764646Y3694298D01*
X1573380Y3552840D01*
X1408785Y3381103D01*
X1408783Y3381101D01*
X1408781Y3381098D01*
X1343846Y3285023D01*
X1275572Y3184009D01*
X1177585Y2967241D01*
X1177584Y2967236D01*
X1117642Y2737026D01*
X1097469Y2500005D01*
X5Y2500005D01*
X0Y2500589D01*
X0Y7940000D01*
X23479819Y7940000D01*
X23498426Y7822518D01*
X23498426Y7822517D01*
X23525941Y7768516D01*
X23552427Y7716535D01*
X23636535Y7632427D01*
X23742518Y7578426D01*
X23860000Y7559819D01*
X23977482Y7578426D01*
X24083465Y7632427D01*
X24143864Y7692826D01*
X24196190Y7714500D01*
X31446525Y7714500D01*
X31446533Y7714499D01*
X31455145Y7714499D01*
X31544854Y7714499D01*
X31544855Y7714499D01*
X31603460Y7738775D01*
X31627736Y7748830D01*
X31691170Y7812264D01*
X31691170Y7812265D01*
X31701575Y7822670D01*
X31701577Y7822673D01*
X32617327Y8738423D01*
X32617330Y8738425D01*
X32627735Y8748830D01*
X32627736Y8748830D01*
X32691170Y8812264D01*
X32705390Y8846595D01*
X32725501Y8895146D01*
X32725501Y8984855D01*
X32725501Y8990813D01*
X32725500Y8990827D01*
X32725500Y12400000D01*
X32949819Y12400000D01*
X32968426Y12282518D01*
X32968426Y12282517D01*
X32995941Y12228516D01*
X33022427Y12176535D01*
X33106535Y12092427D01*
X33212518Y12038426D01*
X33330000Y12019819D01*
X33447482Y12038426D01*
X33553465Y12092427D01*
X33561038Y12100000D01*
X35319819Y12100000D01*
X35338426Y11982518D01*
X35338426Y11982517D01*
X35352373Y11955145D01*
X35392427Y11876535D01*
X35476535Y11792427D01*
X35582518Y11738426D01*
X35700000Y11719819D01*
X35817482Y11738426D01*
X35923465Y11792427D01*
X35983864Y11852826D01*
X36036190Y11874500D01*
X41015943Y11874500D01*
X41068269Y11852826D01*
X42994609Y9926486D01*
X42994612Y9926482D01*
X42998830Y9922264D01*
X43062264Y9858830D01*
X43096595Y9844610D01*
X43145146Y9824499D01*
X43145147Y9824499D01*
X43243467Y9824499D01*
X43243475Y9824500D01*
X54306525Y9824500D01*
X54306533Y9824499D01*
X54315145Y9824499D01*
X54404854Y9824499D01*
X54404855Y9824499D01*
X54463460Y9848775D01*
X54487736Y9858830D01*
X54551170Y9922264D01*
X54551170Y9922265D01*
X54561575Y9932670D01*
X54561577Y9932673D01*
X56997327Y12368423D01*
X56997330Y12368425D01*
X57007735Y12378830D01*
X57007736Y12378830D01*
X57071170Y12442264D01*
X57105500Y12525145D01*
X57105500Y37856525D01*
X57105501Y37856534D01*
X57105501Y37954854D01*
X57077081Y38023465D01*
X57075809Y38026535D01*
X57071170Y38037736D01*
X57007736Y38101170D01*
X57003521Y38105385D01*
X57003514Y38105391D01*
X56493484Y38615421D01*
X56493484Y38615422D01*
X56419644Y38689262D01*
X56419642Y38689264D01*
X56395366Y38699320D01*
X56395364Y38699321D01*
X56395364Y38699322D01*
X56336761Y38723595D01*
X56247051Y38723595D01*
X56238439Y38723595D01*
X56238431Y38723594D01*
X55136190Y38723594D01*
X55083864Y38745268D01*
X55023466Y38805666D01*
X55023465Y38805667D01*
X54940959Y38847706D01*
X54904177Y38890773D01*
X54908621Y38947236D01*
X54951688Y38984018D01*
X54955390Y38985116D01*
X54962485Y38987016D01*
X55088015Y39059491D01*
X55190509Y39161985D01*
X55262984Y39287515D01*
X55300499Y39427523D01*
X55300500Y39427523D01*
X55300500Y39572477D01*
X55300499Y39572478D01*
X55299967Y39574462D01*
X55262984Y39712485D01*
X55190509Y39838015D01*
X55088015Y39940509D01*
X54962486Y40012984D01*
X54962481Y40012986D01*
X54822477Y40050500D01*
X54822475Y40050500D01*
X53508677Y40050500D01*
X53456351Y40072174D01*
X49149354Y44379171D01*
X55244559Y44379171D01*
X55244559Y44221048D01*
X55285481Y44068323D01*
X55308862Y44027826D01*
X55364542Y43931385D01*
X55476348Y43819579D01*
X55549105Y43777573D01*
X55613285Y43740519D01*
X55700411Y43717174D01*
X55766010Y43699597D01*
X55766011Y43699596D01*
X55766013Y43699596D01*
X55924133Y43699596D01*
X55924133Y43699597D01*
X56031485Y43728362D01*
X56076858Y43740519D01*
X56076858Y43740520D01*
X56076861Y43740520D01*
X56213796Y43819579D01*
X56325602Y43931385D01*
X56404661Y44068320D01*
X56445584Y44221048D01*
X56445585Y44221048D01*
X56445585Y44379170D01*
X56445584Y44379171D01*
X56404662Y44531896D01*
X56325601Y44668834D01*
X56213796Y44780639D01*
X56076858Y44859700D01*
X55924133Y44900622D01*
X55924131Y44900622D01*
X55766013Y44900622D01*
X55766011Y44900622D01*
X55613285Y44859700D01*
X55476347Y44780639D01*
X55364542Y44668834D01*
X55285481Y44531896D01*
X55244559Y44379171D01*
X49149354Y44379171D01*
X48488015Y45040510D01*
X48362482Y45112986D01*
X48222477Y45150500D01*
X48222475Y45150500D01*
X36827525Y45150500D01*
X36827523Y45150500D01*
X36687518Y45112986D01*
X36687513Y45112984D01*
X36561984Y45040509D01*
X36459491Y44938016D01*
X36387016Y44812487D01*
X36387014Y44812482D01*
X36349500Y44672478D01*
X36349500Y44527523D01*
X36387014Y44387519D01*
X36387016Y44387514D01*
X36391835Y44379168D01*
X36459491Y44261985D01*
X36561985Y44159491D01*
X36687515Y44087016D01*
X36687516Y44087016D01*
X36687518Y44087015D01*
X36757277Y44068323D01*
X36827522Y44049501D01*
X36827523Y44049500D01*
X36827525Y44049500D01*
X47891323Y44049500D01*
X47943649Y44027826D01*
X52031363Y39940112D01*
X52053037Y39887786D01*
X52031363Y39835460D01*
X51979037Y39813786D01*
X51945441Y39821852D01*
X51867483Y39861574D01*
X51750000Y39880181D01*
X51632517Y39861574D01*
X51632516Y39861574D01*
X51526533Y39807572D01*
X51442428Y39723467D01*
X51388426Y39617484D01*
X51388426Y39617483D01*
X51369819Y39500000D01*
X51388426Y39382518D01*
X51388426Y39382517D01*
X51396087Y39367482D01*
X51436832Y39287515D01*
X51442428Y39276534D01*
X51526239Y39192723D01*
X51530450Y39182557D01*
X51559681Y39175539D01*
X51632518Y39138426D01*
X51750000Y39119819D01*
X51867482Y39138426D01*
X51973465Y39192427D01*
X52057573Y39276535D01*
X52111574Y39382518D01*
X52130181Y39500000D01*
X52111574Y39617482D01*
X52071850Y39695443D01*
X52067407Y39751905D01*
X52104189Y39794972D01*
X52160652Y39799416D01*
X52190111Y39781364D01*
X52911985Y39059490D01*
X53037515Y38987016D01*
X53037517Y38987015D01*
X53088087Y38973465D01*
X53177522Y38949501D01*
X53177523Y38949500D01*
X54550592Y38949500D01*
X54602918Y38927826D01*
X54624592Y38875500D01*
X54602918Y38823174D01*
X54584189Y38809568D01*
X54576884Y38805846D01*
X54576533Y38805666D01*
X54492428Y38721561D01*
X54438426Y38615578D01*
X54438426Y38615577D01*
X54419819Y38498094D01*
X54438426Y38380612D01*
X54438426Y38380611D01*
X54445116Y38367482D01*
X54492427Y38274629D01*
X54576535Y38190521D01*
X54682518Y38136520D01*
X54800000Y38117913D01*
X54917482Y38136520D01*
X55023465Y38190521D01*
X55083864Y38250920D01*
X55136190Y38272594D01*
X56167849Y38272594D01*
X56220175Y38250920D01*
X56632826Y37838269D01*
X56654500Y37785943D01*
X56654500Y12694057D01*
X56632826Y12641731D01*
X54288269Y10297174D01*
X54235943Y10275500D01*
X43314057Y10275500D01*
X43261731Y10297174D01*
X42728905Y10830000D01*
X43489819Y10830000D01*
X43508426Y10712518D01*
X43508426Y10712517D01*
X43508554Y10712266D01*
X43562427Y10606535D01*
X43646535Y10522427D01*
X43752518Y10468426D01*
X43870000Y10449819D01*
X43987482Y10468426D01*
X44093465Y10522427D01*
X44163864Y10592826D01*
X44216190Y10614500D01*
X53856525Y10614500D01*
X53856533Y10614499D01*
X53865145Y10614499D01*
X53954854Y10614499D01*
X53954855Y10614499D01*
X54013594Y10638830D01*
X54037736Y10648830D01*
X54101170Y10712264D01*
X54101170Y10712265D01*
X54111575Y10722670D01*
X54111577Y10722673D01*
X56397327Y13008423D01*
X56397330Y13008425D01*
X56407735Y13018830D01*
X56407736Y13018830D01*
X56471170Y13082264D01*
X56505500Y13165145D01*
X56505500Y30364855D01*
X56482773Y30419723D01*
X56471171Y30447734D01*
X56471169Y30447737D01*
X56403521Y30515385D01*
X56403514Y30515391D01*
X54713084Y32205821D01*
X54713084Y32205822D01*
X54639243Y32279663D01*
X54639239Y32279666D01*
X54610877Y32291413D01*
X54556361Y32313995D01*
X54466651Y32313995D01*
X54458039Y32313995D01*
X54458031Y32313994D01*
X52737883Y32313994D01*
X52685557Y32335668D01*
X52625159Y32396066D01*
X52625158Y32396067D01*
X52563417Y32427526D01*
X52526636Y32470592D01*
X52531080Y32527055D01*
X52544685Y32545782D01*
X54957327Y34958423D01*
X54957330Y34958425D01*
X54967735Y34968830D01*
X54967736Y34968830D01*
X55031170Y35032264D01*
X55055150Y35090157D01*
X55065501Y35115145D01*
X55065501Y35204855D01*
X55065501Y35210813D01*
X55065500Y35210827D01*
X55065500Y35803810D01*
X55087174Y35856136D01*
X55111219Y35880181D01*
X55147573Y35916535D01*
X55201574Y36022518D01*
X55220181Y36140000D01*
X55201574Y36257482D01*
X55147573Y36363465D01*
X55063465Y36447573D01*
X55011484Y36474059D01*
X54957483Y36501574D01*
X54840000Y36520181D01*
X54722517Y36501574D01*
X54722513Y36501573D01*
X54628566Y36453704D01*
X54572104Y36449260D01*
X54529037Y36486043D01*
X54524593Y36542505D01*
X54542644Y36571963D01*
X54580470Y36609788D01*
X54626614Y36689712D01*
X54628066Y36695131D01*
X54628730Y36697607D01*
X54650500Y36778857D01*
X54650500Y36843019D01*
X54658565Y36876614D01*
X54661574Y36882518D01*
X54680181Y37000000D01*
X54661574Y37117482D01*
X54607573Y37223465D01*
X54523465Y37307573D01*
X54471484Y37334059D01*
X54417483Y37361574D01*
X54300000Y37380181D01*
X54182517Y37361574D01*
X54182516Y37361574D01*
X54076533Y37307572D01*
X53992428Y37223467D01*
X53938426Y37117484D01*
X53938426Y37117483D01*
X53919819Y37000000D01*
X53919819Y36999997D01*
X53922055Y36985876D01*
X53908832Y36930804D01*
X53901292Y36921976D01*
X53011826Y36032509D01*
X52959500Y36010835D01*
X52907174Y36032509D01*
X52885500Y36084835D01*
X52885500Y36652260D01*
X52907174Y36704586D01*
X52925904Y36718194D01*
X52973465Y36742427D01*
X53057573Y36826535D01*
X53111574Y36932518D01*
X53130181Y37050000D01*
X53111574Y37167482D01*
X53057573Y37273465D01*
X52973465Y37357573D01*
X52912911Y37388427D01*
X52867483Y37411574D01*
X52750000Y37430181D01*
X52632517Y37411574D01*
X52632516Y37411574D01*
X52526533Y37357572D01*
X52442428Y37273467D01*
X52388426Y37167484D01*
X52388426Y37167483D01*
X52369819Y37050000D01*
X52388425Y36932520D01*
X52388425Y36932519D01*
X52388426Y36932518D01*
X52426434Y36857922D01*
X52434500Y36824329D01*
X52434500Y35984059D01*
X52412826Y35931733D01*
X51680118Y35199025D01*
X51627792Y35177351D01*
X51575466Y35199025D01*
X51553792Y35251351D01*
X51561856Y35284943D01*
X51611574Y35382518D01*
X51630181Y35500000D01*
X51611574Y35617482D01*
X51557573Y35723465D01*
X51473465Y35807573D01*
X51378155Y35856136D01*
X51367483Y35861574D01*
X51250000Y35880181D01*
X51132517Y35861574D01*
X51132516Y35861574D01*
X51026533Y35807572D01*
X50942428Y35723467D01*
X50888426Y35617484D01*
X50888426Y35617483D01*
X50869819Y35500000D01*
X50888426Y35382518D01*
X50888426Y35382517D01*
X50913902Y35332518D01*
X50942427Y35276535D01*
X51026535Y35192427D01*
X51132518Y35138426D01*
X51250000Y35119819D01*
X51367482Y35138426D01*
X51465055Y35188143D01*
X51521514Y35192587D01*
X51564582Y35155804D01*
X51569027Y35099342D01*
X51550974Y35069882D01*
X50109126Y33628034D01*
X50056800Y33606360D01*
X50004474Y33628034D01*
X49990866Y33646764D01*
X49990478Y33647524D01*
X49945772Y33735266D01*
X49861664Y33819374D01*
X49809683Y33845860D01*
X49755682Y33873375D01*
X49638199Y33891982D01*
X49520716Y33873375D01*
X49520715Y33873375D01*
X49414732Y33819373D01*
X49330627Y33735268D01*
X49276625Y33629285D01*
X49276625Y33629284D01*
X49258018Y33511801D01*
X49276625Y33394319D01*
X49276625Y33394318D01*
X49293309Y33361574D01*
X49330626Y33288336D01*
X49414734Y33204228D01*
X49495825Y33162910D01*
X49503236Y33159134D01*
X49540018Y33116067D01*
X49535574Y33059604D01*
X49521966Y33040874D01*
X46822265Y30341171D01*
X46758830Y30277737D01*
X46748774Y30253464D01*
X46748774Y30253461D01*
X46746624Y30248269D01*
X46724499Y30194854D01*
X46724499Y30096534D01*
X46724500Y30096525D01*
X46724500Y23176190D01*
X46702826Y23123864D01*
X46642428Y23063467D01*
X46588426Y22957484D01*
X46588426Y22957483D01*
X46569819Y22840000D01*
X46588426Y22722518D01*
X46588426Y22722517D01*
X46613876Y22672569D01*
X46642427Y22616535D01*
X46726535Y22532427D01*
X46832518Y22478426D01*
X46950000Y22459819D01*
X47067482Y22478426D01*
X47173465Y22532427D01*
X47257573Y22616535D01*
X47311574Y22722518D01*
X47330181Y22840000D01*
X47311574Y22957482D01*
X47257573Y23063465D01*
X47197174Y23123864D01*
X47175500Y23176190D01*
X47175500Y23625000D01*
X50394819Y23625000D01*
X50413426Y23507518D01*
X50413426Y23507517D01*
X50432542Y23470000D01*
X50467427Y23401535D01*
X50551535Y23317427D01*
X50657518Y23263426D01*
X50775000Y23244819D01*
X50892482Y23263426D01*
X50916905Y23275871D01*
X50973365Y23280315D01*
X51016434Y23243533D01*
X51024500Y23209936D01*
X51024500Y22389606D01*
X51016435Y22356012D01*
X51003059Y22329761D01*
X51003059Y22329759D01*
X50984452Y22212276D01*
X51003059Y22094794D01*
X51003059Y22094793D01*
X51017102Y22067233D01*
X51057060Y21988811D01*
X51141168Y21904703D01*
X51247151Y21850702D01*
X51364633Y21832095D01*
X51482115Y21850702D01*
X51588098Y21904703D01*
X51672206Y21988811D01*
X51678922Y22001993D01*
X51721989Y22038775D01*
X51778451Y22034331D01*
X51810790Y22001993D01*
X51835793Y21952922D01*
X51919901Y21868814D01*
X52025884Y21814813D01*
X52143366Y21796206D01*
X52260848Y21814813D01*
X52366831Y21868814D01*
X52450939Y21952922D01*
X52504940Y22058905D01*
X52523547Y22176387D01*
X52504940Y22293869D01*
X52504939Y22293871D01*
X52504939Y22293872D01*
X52458566Y22384883D01*
X52450500Y22418479D01*
X52450500Y23538810D01*
X52472174Y23591136D01*
X52497387Y23616349D01*
X52532573Y23651535D01*
X52586574Y23757518D01*
X52605181Y23875000D01*
X52586574Y23992482D01*
X52532573Y24098465D01*
X52448465Y24182573D01*
X52375364Y24219820D01*
X52342483Y24236574D01*
X52225000Y24255181D01*
X52107517Y24236574D01*
X52107516Y24236574D01*
X52001533Y24182572D01*
X51917428Y24098467D01*
X51863426Y23992484D01*
X51863426Y23992483D01*
X51844819Y23875000D01*
X51863426Y23757518D01*
X51863426Y23757517D01*
X51917428Y23651534D01*
X51977826Y23591136D01*
X51999500Y23538810D01*
X51999500Y22569865D01*
X51977826Y22517539D01*
X51959096Y22503931D01*
X51919900Y22483960D01*
X51835793Y22399853D01*
X51829074Y22386667D01*
X51786005Y22349887D01*
X51729542Y22354335D01*
X51697208Y22386672D01*
X51672206Y22435741D01*
X51588099Y22519848D01*
X51588098Y22519849D01*
X51545666Y22541469D01*
X51515904Y22556634D01*
X51479122Y22599701D01*
X51475500Y22622568D01*
X51475500Y24488810D01*
X51497174Y24541136D01*
X51497306Y24541268D01*
X51557573Y24601535D01*
X51611574Y24707518D01*
X51630181Y24825000D01*
X51611574Y24942482D01*
X51557573Y25048465D01*
X51473465Y25132573D01*
X51407525Y25166171D01*
X51367483Y25186574D01*
X51250000Y25205181D01*
X51132517Y25186574D01*
X51132516Y25186574D01*
X51026533Y25132572D01*
X50942428Y25048467D01*
X50888426Y24942484D01*
X50888426Y24942483D01*
X50869819Y24825000D01*
X50888426Y24707518D01*
X50888426Y24707517D01*
X50915941Y24653516D01*
X50933110Y24619820D01*
X50942428Y24601534D01*
X51002826Y24541136D01*
X51024500Y24488810D01*
X51024500Y24040065D01*
X51002826Y23987739D01*
X50950500Y23966065D01*
X50916905Y23974130D01*
X50892482Y23986574D01*
X50775000Y24005181D01*
X50657517Y23986574D01*
X50657516Y23986574D01*
X50551533Y23932572D01*
X50467428Y23848467D01*
X50413426Y23742484D01*
X50413426Y23742483D01*
X50394819Y23625000D01*
X47175500Y23625000D01*
X47175500Y24400000D01*
X49669819Y24400000D01*
X49688426Y24282518D01*
X49688426Y24282517D01*
X49696678Y24266322D01*
X49742427Y24176535D01*
X49826535Y24092427D01*
X49932518Y24038426D01*
X50050000Y24019819D01*
X50167482Y24038426D01*
X50273465Y24092427D01*
X50357573Y24176535D01*
X50411574Y24282518D01*
X50430181Y24400000D01*
X50411574Y24517482D01*
X50357573Y24623465D01*
X50273465Y24707573D01*
X50203029Y24743462D01*
X50167483Y24761574D01*
X50050000Y24780181D01*
X49932517Y24761574D01*
X49932516Y24761574D01*
X49826533Y24707572D01*
X49742428Y24623467D01*
X49688426Y24517484D01*
X49688426Y24517483D01*
X49669819Y24400000D01*
X47175500Y24400000D01*
X47175500Y30025943D01*
X47197174Y30078269D01*
X47547248Y30428343D01*
X47931744Y30812840D01*
X47984069Y30834513D01*
X48036395Y30812839D01*
X48057158Y30772090D01*
X48063425Y30732520D01*
X48063425Y30732519D01*
X48063426Y30732518D01*
X48066434Y30726614D01*
X48074500Y30693019D01*
X48074500Y29937170D01*
X48068814Y29913482D01*
X48070226Y29913023D01*
X48068426Y29907483D01*
X48049819Y29790000D01*
X48068426Y29672518D01*
X48068426Y29672517D01*
X48092216Y29625827D01*
X48122427Y29566535D01*
X48206535Y29482427D01*
X48312518Y29428426D01*
X48430000Y29409819D01*
X48547482Y29428426D01*
X48653465Y29482427D01*
X48737573Y29566535D01*
X48791574Y29672518D01*
X48810181Y29790000D01*
X48791574Y29907482D01*
X48783565Y29923202D01*
X48775500Y29956796D01*
X48775500Y30693019D01*
X48783565Y30726614D01*
X48786574Y30732518D01*
X48793797Y30778130D01*
X48814558Y30818878D01*
X48973174Y30977494D01*
X49025500Y30999167D01*
X49077826Y30977493D01*
X49099500Y30925167D01*
X49099500Y29699058D01*
X49077826Y29646732D01*
X48058830Y28627736D01*
X48053197Y28614137D01*
X48024499Y28544856D01*
X48024499Y28446534D01*
X48024500Y28446525D01*
X48024500Y26836190D01*
X48002826Y26783864D01*
X47942428Y26723467D01*
X47888426Y26617484D01*
X47888426Y26617483D01*
X47869819Y26500000D01*
X47888426Y26382518D01*
X47888426Y26382517D01*
X47906710Y26346633D01*
X47942427Y26276535D01*
X48026535Y26192427D01*
X48132518Y26138426D01*
X48250000Y26119819D01*
X48367482Y26138426D01*
X48473465Y26192427D01*
X48557573Y26276535D01*
X48611574Y26382518D01*
X48630181Y26500000D01*
X48611574Y26617482D01*
X48557573Y26723465D01*
X48497174Y26783864D01*
X48475500Y26836190D01*
X48475500Y28375944D01*
X48497173Y28428269D01*
X48967939Y28899036D01*
X49020265Y28920709D01*
X49072591Y28899035D01*
X49094265Y28846709D01*
X49088701Y28823519D01*
X49090226Y28823023D01*
X49088426Y28817483D01*
X49069819Y28700000D01*
X49088426Y28582518D01*
X49088426Y28582517D01*
X49100561Y28558701D01*
X49142427Y28476535D01*
X49226535Y28392427D01*
X49332518Y28338426D01*
X49450000Y28319819D01*
X49567482Y28338426D01*
X49567487Y28338429D01*
X49573023Y28340226D01*
X49574057Y28337041D01*
X49619491Y28340670D01*
X49662601Y28303938D01*
X49667111Y28247480D01*
X49649032Y28217939D01*
X49329558Y27898465D01*
X49277232Y27876791D01*
X49265658Y27877702D01*
X49250003Y27880181D01*
X49250000Y27880181D01*
X49132517Y27861574D01*
X49132516Y27861574D01*
X49026533Y27807572D01*
X48942428Y27723467D01*
X48888426Y27617484D01*
X48888426Y27617483D01*
X48869819Y27500000D01*
X48888426Y27382518D01*
X48888426Y27382517D01*
X48904739Y27350501D01*
X48942427Y27276535D01*
X49026535Y27192427D01*
X49132518Y27138426D01*
X49250000Y27119819D01*
X49367482Y27138426D01*
X49473465Y27192427D01*
X49557573Y27276535D01*
X49611574Y27382518D01*
X49630181Y27500000D01*
X49627701Y27515656D01*
X49640919Y27570727D01*
X49648457Y27579554D01*
X50267327Y28198423D01*
X50267330Y28198425D01*
X50277735Y28208830D01*
X50277736Y28208830D01*
X50341170Y28272264D01*
X50375500Y28355145D01*
X50375500Y28725634D01*
X50397174Y28777960D01*
X50449500Y28799634D01*
X50483093Y28791569D01*
X50587494Y28738374D01*
X50704976Y28719767D01*
X50822458Y28738374D01*
X50862424Y28758739D01*
X50918886Y28763183D01*
X50961954Y28726400D01*
X50969109Y28704380D01*
X50988426Y28582416D01*
X50988426Y28582415D01*
X51000509Y28558701D01*
X51042427Y28476433D01*
X51126535Y28392325D01*
X51232518Y28338324D01*
X51350000Y28319717D01*
X51467482Y28338324D01*
X51472086Y28340670D01*
X51475883Y28342604D01*
X51532345Y28347050D01*
X51575413Y28310268D01*
X51582569Y28265095D01*
X51571264Y28193716D01*
X51584908Y28107572D01*
X51589871Y28076234D01*
X51589871Y28076233D01*
X51616757Y28023467D01*
X51643872Y27970251D01*
X51727980Y27886143D01*
X51833963Y27832142D01*
X51951445Y27813535D01*
X52068927Y27832142D01*
X52174910Y27886143D01*
X52259018Y27970251D01*
X52313019Y28076234D01*
X52319947Y28119983D01*
X52349538Y28168273D01*
X52404610Y28181496D01*
X52445362Y28160733D01*
X53159227Y27446868D01*
X53180901Y27394542D01*
X53159227Y27342216D01*
X53106901Y27320542D01*
X53078584Y27326174D01*
X53060982Y27333465D01*
X53019855Y27350501D01*
X52930145Y27350501D01*
X52921533Y27350501D01*
X52921525Y27350500D01*
X51606851Y27350500D01*
X51554525Y27372174D01*
X51116256Y27810442D01*
X51094582Y27862768D01*
X51095493Y27874339D01*
X51097974Y27890000D01*
X51079367Y28007482D01*
X51025366Y28113465D01*
X50941258Y28197573D01*
X50889277Y28224059D01*
X50835276Y28251574D01*
X50717793Y28270181D01*
X50600310Y28251574D01*
X50600309Y28251574D01*
X50494326Y28197572D01*
X50410221Y28113467D01*
X50356219Y28007484D01*
X50356219Y28007483D01*
X50337612Y27890000D01*
X50356219Y27772518D01*
X50356219Y27772517D01*
X50381212Y27723467D01*
X50410220Y27666535D01*
X50494328Y27582427D01*
X50600311Y27528426D01*
X50717793Y27509819D01*
X50733446Y27512299D01*
X50788517Y27499081D01*
X50797350Y27491538D01*
X51355057Y26933830D01*
X51437938Y26899500D01*
X51527647Y26899500D01*
X52850943Y26899500D01*
X52903269Y26877826D01*
X53752826Y26028269D01*
X53774500Y25975943D01*
X53774500Y25687517D01*
X53752826Y25635191D01*
X53700500Y25613517D01*
X53666904Y25621583D01*
X53637483Y25636574D01*
X53520000Y25655181D01*
X53402517Y25636574D01*
X53402516Y25636574D01*
X53296533Y25582572D01*
X53212428Y25498467D01*
X53158426Y25392484D01*
X53158426Y25392483D01*
X53149424Y25335646D01*
X53119831Y25287355D01*
X53064759Y25274133D01*
X53024009Y25294896D01*
X52864619Y25454286D01*
X52842945Y25506612D01*
X52842945Y25731294D01*
X52864619Y25783620D01*
X52866642Y25785644D01*
X52866645Y25785645D01*
X52950753Y25869753D01*
X53004754Y25975736D01*
X53023361Y26093218D01*
X53004754Y26210700D01*
X52950753Y26316683D01*
X52866645Y26400791D01*
X52786604Y26441574D01*
X52760663Y26454792D01*
X52643180Y26473399D01*
X52525697Y26454792D01*
X52525696Y26454792D01*
X52419713Y26400790D01*
X52335608Y26316685D01*
X52281606Y26210702D01*
X52281606Y26210701D01*
X52262999Y26093218D01*
X52281606Y25975736D01*
X52281606Y25975735D01*
X52335608Y25869752D01*
X52370271Y25835089D01*
X52391945Y25782763D01*
X52391945Y25433382D01*
X52391944Y25433368D01*
X52391944Y25427410D01*
X52391944Y25337700D01*
X52408596Y25297500D01*
X52426274Y25254820D01*
X52500116Y25180978D01*
X52500118Y25180977D01*
X52777826Y24903269D01*
X52799500Y24850943D01*
X52799500Y22035827D01*
X52799499Y22035813D01*
X52799499Y21940145D01*
X52820564Y21889291D01*
X52833828Y21857267D01*
X52833831Y21857263D01*
X52907671Y21783423D01*
X52907673Y21783422D01*
X54101535Y20589560D01*
X54123209Y20537234D01*
X54122298Y20525661D01*
X54119819Y20510005D01*
X54119819Y20510001D01*
X54119819Y20510000D01*
X54122958Y20490182D01*
X54138426Y20392518D01*
X54138426Y20392517D01*
X54158288Y20353537D01*
X54192427Y20286535D01*
X54276535Y20202427D01*
X54382518Y20148426D01*
X54500000Y20129819D01*
X54617482Y20148426D01*
X54723465Y20202427D01*
X54807573Y20286535D01*
X54861574Y20392518D01*
X54880181Y20510000D01*
X54861574Y20627482D01*
X54807573Y20733465D01*
X54723465Y20817573D01*
X54671484Y20844059D01*
X54617483Y20871574D01*
X54500000Y20890181D01*
X54499995Y20890181D01*
X54484339Y20887702D01*
X54429267Y20900926D01*
X54420440Y20908465D01*
X53272174Y22056731D01*
X53250500Y22109057D01*
X53250500Y22791942D01*
X53272174Y22844268D01*
X53324500Y22865942D01*
X53376826Y22844268D01*
X53402671Y22818423D01*
X53402673Y22818422D01*
X54101535Y22119559D01*
X54123209Y22067233D01*
X54122298Y22055660D01*
X54119819Y22040004D01*
X54119819Y22040001D01*
X54138426Y21922518D01*
X54138426Y21922517D01*
X54146069Y21907518D01*
X54192427Y21816535D01*
X54276535Y21732427D01*
X54382518Y21678426D01*
X54500000Y21659819D01*
X54617482Y21678426D01*
X54723465Y21732427D01*
X54807573Y21816535D01*
X54861574Y21922518D01*
X54880181Y22040000D01*
X54861574Y22157482D01*
X54807573Y22263465D01*
X54723465Y22347573D01*
X54650240Y22384883D01*
X54617483Y22401574D01*
X54500000Y22420181D01*
X54499996Y22420181D01*
X54484340Y22417702D01*
X54429268Y22430926D01*
X54420441Y22438465D01*
X53767174Y23091732D01*
X53745500Y23144058D01*
X53745500Y23755807D01*
X53767174Y23808133D01*
X53819500Y23829807D01*
X53871826Y23808133D01*
X53882671Y23797288D01*
X53882673Y23797287D01*
X54101535Y23578425D01*
X54123209Y23526099D01*
X54122298Y23514526D01*
X54119819Y23498870D01*
X54119819Y23498866D01*
X54138426Y23381383D01*
X54138426Y23381382D01*
X54153133Y23352518D01*
X54192427Y23275400D01*
X54276535Y23191292D01*
X54382518Y23137291D01*
X54500000Y23118684D01*
X54617482Y23137291D01*
X54723465Y23191292D01*
X54807573Y23275400D01*
X54861574Y23381383D01*
X54880181Y23498865D01*
X54861574Y23616347D01*
X54807573Y23722330D01*
X54723465Y23806438D01*
X54655109Y23841267D01*
X54617483Y23860439D01*
X54500000Y23879046D01*
X54499995Y23879046D01*
X54484339Y23876567D01*
X54429267Y23889791D01*
X54420440Y23897330D01*
X54247174Y24070596D01*
X54225500Y24122922D01*
X54225500Y24597674D01*
X54247174Y24650000D01*
X54299500Y24671674D01*
X54333095Y24663609D01*
X54382518Y24638426D01*
X54500000Y24619819D01*
X54617482Y24638426D01*
X54723465Y24692427D01*
X54807573Y24776535D01*
X54861574Y24882518D01*
X54880181Y25000000D01*
X54861574Y25117482D01*
X54807573Y25223465D01*
X54747174Y25283864D01*
X54725500Y25336190D01*
X54725500Y26371525D01*
X54725501Y26371534D01*
X54725501Y26469854D01*
X54691170Y26552735D01*
X54691169Y26552737D01*
X54623521Y26620385D01*
X54623514Y26620391D01*
X51976680Y29267225D01*
X51976680Y29267226D01*
X51902840Y29341066D01*
X51902838Y29341068D01*
X51878562Y29351124D01*
X51878560Y29351125D01*
X51878560Y29351126D01*
X51819957Y29375399D01*
X51730247Y29375399D01*
X51721635Y29375399D01*
X51721627Y29375398D01*
X50991216Y29375398D01*
X50938890Y29397072D01*
X50928442Y29407520D01*
X50928441Y29407521D01*
X50876460Y29434007D01*
X50822459Y29461522D01*
X50704976Y29480129D01*
X50587493Y29461522D01*
X50587489Y29461521D01*
X50483095Y29408329D01*
X50426633Y29403885D01*
X50383566Y29440668D01*
X50375500Y29474263D01*
X50375500Y30349142D01*
X50397173Y30401467D01*
X51943324Y31947619D01*
X51995649Y31969292D01*
X52047975Y31947618D01*
X52061579Y31928893D01*
X52094120Y31865029D01*
X52178228Y31780921D01*
X52284211Y31726920D01*
X52401693Y31708313D01*
X52519175Y31726920D01*
X52625158Y31780921D01*
X52685557Y31841320D01*
X52737883Y31862994D01*
X54387449Y31862994D01*
X54439775Y31841320D01*
X56032826Y30248269D01*
X56054500Y30195943D01*
X56054500Y13334057D01*
X56032826Y13281731D01*
X53838269Y11087174D01*
X53785943Y11065500D01*
X45155190Y11065500D01*
X45102864Y11087174D01*
X45081190Y11139500D01*
X45102864Y11191826D01*
X45153864Y11242826D01*
X45206190Y11264500D01*
X53266525Y11264500D01*
X53266533Y11264499D01*
X53275145Y11264499D01*
X53364854Y11264499D01*
X53364855Y11264499D01*
X53423460Y11288775D01*
X53447736Y11298830D01*
X53511170Y11362264D01*
X53511170Y11362265D01*
X53521575Y11372670D01*
X53521577Y11372673D01*
X55717327Y13568423D01*
X55717330Y13568425D01*
X55727735Y13578830D01*
X55727736Y13578830D01*
X55791170Y13642264D01*
X55811948Y13692427D01*
X55825501Y13725145D01*
X55825501Y13814855D01*
X55825501Y13820813D01*
X55825500Y13820827D01*
X55825500Y30044855D01*
X55825499Y30044857D01*
X55791171Y30127734D01*
X55791169Y30127737D01*
X55727735Y30191171D01*
X55192290Y30726616D01*
X54651680Y31267226D01*
X54577839Y31341067D01*
X54577838Y31341068D01*
X54549261Y31352905D01*
X54494957Y31375399D01*
X54405247Y31375399D01*
X54396635Y31375399D01*
X54396627Y31375398D01*
X52736190Y31375398D01*
X52683864Y31397072D01*
X52623466Y31457470D01*
X52623465Y31457471D01*
X52571484Y31483957D01*
X52517483Y31511472D01*
X52400000Y31530079D01*
X52282517Y31511472D01*
X52282516Y31511472D01*
X52176533Y31457470D01*
X52092428Y31373365D01*
X52038426Y31267382D01*
X52038426Y31267381D01*
X52019819Y31149898D01*
X52038426Y31032416D01*
X52038426Y31032415D01*
X52041423Y31026534D01*
X52092427Y30926433D01*
X52176535Y30842325D01*
X52282518Y30788324D01*
X52400000Y30769717D01*
X52517482Y30788324D01*
X52623465Y30842325D01*
X52683864Y30902724D01*
X52736190Y30924398D01*
X54326045Y30924398D01*
X54378371Y30902724D01*
X55352826Y29928269D01*
X55374500Y29875943D01*
X55374500Y13894057D01*
X55352826Y13841731D01*
X53248269Y11737174D01*
X53195943Y11715500D01*
X45206190Y11715500D01*
X45153864Y11737174D01*
X45093466Y11797572D01*
X45093465Y11797573D01*
X45041484Y11824059D01*
X44987483Y11851574D01*
X44870000Y11870181D01*
X44752517Y11851574D01*
X44752516Y11851574D01*
X44646533Y11797572D01*
X44562428Y11713467D01*
X44508426Y11607484D01*
X44508426Y11607483D01*
X44489819Y11490000D01*
X44508426Y11372518D01*
X44508426Y11372517D01*
X44562428Y11266534D01*
X44637136Y11191826D01*
X44658810Y11139500D01*
X44637136Y11087174D01*
X44584810Y11065500D01*
X44196190Y11065500D01*
X44143864Y11087174D01*
X44093466Y11137572D01*
X44093465Y11137573D01*
X44041484Y11164059D01*
X43987483Y11191574D01*
X43870000Y11210181D01*
X43752517Y11191574D01*
X43752516Y11191574D01*
X43646533Y11137572D01*
X43562428Y11053467D01*
X43508426Y10947484D01*
X43508426Y10947483D01*
X43489819Y10830000D01*
X42728905Y10830000D01*
X41341578Y12217327D01*
X41341578Y12217328D01*
X41267738Y12291168D01*
X41267736Y12291170D01*
X41243460Y12301226D01*
X41243458Y12301227D01*
X41243458Y12301228D01*
X41184855Y12325501D01*
X41095145Y12325501D01*
X41086533Y12325501D01*
X41086525Y12325500D01*
X36036190Y12325500D01*
X35983864Y12347174D01*
X35923466Y12407572D01*
X35923465Y12407573D01*
X35834510Y12452898D01*
X35817483Y12461574D01*
X35700000Y12480181D01*
X35582517Y12461574D01*
X35582516Y12461574D01*
X35476533Y12407572D01*
X35392428Y12323467D01*
X35338426Y12217484D01*
X35338426Y12217483D01*
X35319819Y12100000D01*
X33561038Y12100000D01*
X33637573Y12176535D01*
X33691574Y12282518D01*
X33710181Y12400000D01*
X33707701Y12415656D01*
X33720919Y12470727D01*
X33728464Y12479560D01*
X33821732Y12572826D01*
X33874057Y12594500D01*
X34806525Y12594500D01*
X34806533Y12594499D01*
X34815145Y12594499D01*
X34904854Y12594499D01*
X34904855Y12594499D01*
X34963460Y12618775D01*
X34987736Y12628830D01*
X35051170Y12692264D01*
X35051170Y12692265D01*
X35061575Y12702670D01*
X35061577Y12702673D01*
X35170441Y12811538D01*
X35222766Y12833211D01*
X35234340Y12832300D01*
X35245706Y12830500D01*
X35249999Y12829819D01*
X35250000Y12829819D01*
X35367482Y12848426D01*
X35473465Y12902427D01*
X35557573Y12986535D01*
X35611574Y13092518D01*
X35630181Y13210000D01*
X35625430Y13240000D01*
X35849819Y13240000D01*
X35868426Y13122518D01*
X35868426Y13122517D01*
X35883712Y13092518D01*
X35922427Y13016535D01*
X36006535Y12932427D01*
X36112518Y12878426D01*
X36230000Y12859819D01*
X36245656Y12862299D01*
X36300727Y12849078D01*
X36309558Y12841536D01*
X36352264Y12798830D01*
X36435145Y12764500D01*
X36524854Y12764500D01*
X48061525Y12764500D01*
X48061533Y12764499D01*
X48070145Y12764499D01*
X48159854Y12764499D01*
X48159855Y12764499D01*
X48218460Y12788775D01*
X48242736Y12798830D01*
X48306170Y12862264D01*
X48306170Y12862265D01*
X48316575Y12872670D01*
X48316576Y12872673D01*
X50331170Y14887264D01*
X50365500Y14970145D01*
X50365500Y15059854D01*
X50365500Y20529320D01*
X50365501Y20529329D01*
X50365501Y20627649D01*
X50331170Y20710530D01*
X50331169Y20710532D01*
X50263521Y20778180D01*
X50263514Y20778186D01*
X49673846Y21367854D01*
X49652172Y21420180D01*
X49653082Y21431751D01*
X49655181Y21445000D01*
X49636574Y21562482D01*
X49582573Y21668465D01*
X49498465Y21752573D01*
X49446484Y21779059D01*
X49392483Y21806574D01*
X49275000Y21825181D01*
X49157517Y21806574D01*
X49157516Y21806574D01*
X49051533Y21752572D01*
X48967428Y21668467D01*
X48913426Y21562484D01*
X48913426Y21562483D01*
X48894819Y21445000D01*
X48913426Y21327518D01*
X48913426Y21327517D01*
X48939705Y21275943D01*
X48967427Y21221535D01*
X49051535Y21137427D01*
X49157518Y21083426D01*
X49275000Y21064819D01*
X49275001Y21064819D01*
X49279109Y21065471D01*
X49293066Y21067681D01*
X49348138Y21054463D01*
X49356971Y21046919D01*
X49892826Y20511064D01*
X49914500Y20458738D01*
X49914500Y15139058D01*
X49892826Y15086732D01*
X48043269Y13237174D01*
X47990943Y13215500D01*
X37957803Y13215500D01*
X37905477Y13237174D01*
X37883803Y13289500D01*
X37890354Y13316789D01*
X37889774Y13316977D01*
X37891571Y13322513D01*
X37891574Y13322518D01*
X37910181Y13440000D01*
X37891574Y13557482D01*
X37837573Y13663465D01*
X37753465Y13747573D01*
X37696624Y13776535D01*
X37647483Y13801574D01*
X37530000Y13820181D01*
X37412517Y13801574D01*
X37412513Y13801573D01*
X37320126Y13754499D01*
X37263664Y13750055D01*
X37252936Y13754499D01*
X37160548Y13801573D01*
X37160544Y13801574D01*
X37043062Y13820181D01*
X36925579Y13801574D01*
X36925578Y13801574D01*
X36819595Y13747572D01*
X36735490Y13663467D01*
X36681488Y13557484D01*
X36671451Y13494114D01*
X36641858Y13445823D01*
X36586785Y13432602D01*
X36542242Y13459899D01*
X36541691Y13459347D01*
X36539395Y13461643D01*
X36538494Y13462195D01*
X36538489Y13462203D01*
X36537574Y13463462D01*
X36537573Y13463465D01*
X36453465Y13547573D01*
X36392120Y13578830D01*
X36347483Y13601574D01*
X36230000Y13620181D01*
X36112517Y13601574D01*
X36112516Y13601574D01*
X36006533Y13547572D01*
X35922428Y13463467D01*
X35868426Y13357484D01*
X35868426Y13357483D01*
X35849819Y13240000D01*
X35625430Y13240000D01*
X35611574Y13327482D01*
X35557573Y13433465D01*
X35473465Y13517573D01*
X35414587Y13547573D01*
X35367483Y13571574D01*
X35250000Y13590181D01*
X35132517Y13571574D01*
X35132516Y13571574D01*
X35026533Y13517572D01*
X34948885Y13439924D01*
X34896559Y13418250D01*
X34844233Y13439924D01*
X34822559Y13492250D01*
X34823469Y13503819D01*
X34837119Y13590000D01*
X34818512Y13707482D01*
X34764511Y13813465D01*
X34680403Y13897573D01*
X34628422Y13924059D01*
X34574421Y13951574D01*
X34456938Y13970181D01*
X34339455Y13951574D01*
X34264323Y13913292D01*
X34207861Y13908849D01*
X34197136Y13913292D01*
X34153307Y13935624D01*
X34102377Y13961574D01*
X33984894Y13980181D01*
X33867411Y13961574D01*
X33867410Y13961574D01*
X33761427Y13907572D01*
X33677322Y13823467D01*
X33623320Y13717484D01*
X33623320Y13717483D01*
X33604713Y13600000D01*
X33623320Y13482518D01*
X33623320Y13482517D01*
X33628415Y13472518D01*
X33677321Y13376535D01*
X33761429Y13292427D01*
X33867412Y13238426D01*
X33984894Y13219819D01*
X34102376Y13238426D01*
X34177509Y13276709D01*
X34233969Y13281153D01*
X34244689Y13276713D01*
X34339456Y13228426D01*
X34456938Y13209819D01*
X34574420Y13228426D01*
X34680403Y13282427D01*
X34758053Y13360078D01*
X34810378Y13381751D01*
X34862704Y13360077D01*
X34884378Y13307751D01*
X34883467Y13296175D01*
X34869819Y13210001D01*
X34869819Y13209997D01*
X34872298Y13194342D01*
X34859075Y13139270D01*
X34851536Y13130443D01*
X34788270Y13067175D01*
X34735944Y13045500D01*
X33803475Y13045500D01*
X33803467Y13045501D01*
X33794855Y13045501D01*
X33705146Y13045501D01*
X33656594Y13025392D01*
X33656595Y13025391D01*
X33622267Y13011172D01*
X33622265Y13011171D01*
X33558829Y12947735D01*
X33409558Y12798465D01*
X33357232Y12776791D01*
X33345658Y12777702D01*
X33330003Y12780181D01*
X33330000Y12780181D01*
X33212517Y12761574D01*
X33212516Y12761574D01*
X33106533Y12707572D01*
X33022428Y12623467D01*
X32968426Y12517484D01*
X32968426Y12517483D01*
X32949819Y12400000D01*
X32725500Y12400000D01*
X32725500Y14101697D01*
X39314996Y14101697D01*
X39333603Y13984215D01*
X39333603Y13984214D01*
X39345139Y13961574D01*
X39387604Y13878232D01*
X39471712Y13794124D01*
X39577695Y13740123D01*
X39695177Y13721516D01*
X39812659Y13740123D01*
X39827281Y13747573D01*
X39844673Y13756434D01*
X39878268Y13764500D01*
X47936525Y13764500D01*
X47936533Y13764499D01*
X47945145Y13764499D01*
X48034854Y13764499D01*
X48034855Y13764499D01*
X48093460Y13788775D01*
X48117736Y13798830D01*
X48181170Y13862264D01*
X48181170Y13862265D01*
X48191575Y13872670D01*
X48191576Y13872673D01*
X49461170Y15142264D01*
X49495500Y15225145D01*
X49495500Y15314854D01*
X49495500Y19857792D01*
X49517174Y19910118D01*
X49543864Y19936808D01*
X49577903Y19970847D01*
X49631904Y20076830D01*
X49650511Y20194312D01*
X49631904Y20311794D01*
X49577903Y20417777D01*
X49493795Y20501885D01*
X49418635Y20540181D01*
X49387813Y20555886D01*
X49270330Y20574493D01*
X49152847Y20555886D01*
X49152846Y20555886D01*
X49046863Y20501884D01*
X48962758Y20417779D01*
X48908756Y20311796D01*
X48908756Y20311795D01*
X48890149Y20194312D01*
X48908756Y20076830D01*
X48908756Y20076829D01*
X48912689Y20069111D01*
X48961906Y19972517D01*
X48962758Y19970846D01*
X49022826Y19910778D01*
X49044500Y19858452D01*
X49044500Y15394058D01*
X49022826Y15341732D01*
X47918269Y14237174D01*
X47865943Y14215500D01*
X40103973Y14215500D01*
X40051647Y14237174D01*
X40038039Y14255904D01*
X40029569Y14272526D01*
X40002750Y14325162D01*
X39918642Y14409270D01*
X39866661Y14435756D01*
X39812660Y14463271D01*
X39695177Y14481878D01*
X39577694Y14463271D01*
X39577693Y14463271D01*
X39471710Y14409269D01*
X39387605Y14325164D01*
X39333603Y14219181D01*
X39333603Y14219180D01*
X39314996Y14101697D01*
X32725500Y14101697D01*
X32725500Y15910750D01*
X39296964Y15910750D01*
X39315571Y15793268D01*
X39315571Y15793267D01*
X39332614Y15759819D01*
X39369572Y15687285D01*
X39453680Y15603177D01*
X39559663Y15549176D01*
X39654953Y15534084D01*
X39673480Y15522731D01*
X39701851Y15534483D01*
X39794627Y15549176D01*
X39900610Y15603177D01*
X39984718Y15687285D01*
X40013664Y15744095D01*
X40056732Y15780878D01*
X40079599Y15784500D01*
X46856525Y15784500D01*
X46856533Y15784499D01*
X46865145Y15784499D01*
X46954854Y15784499D01*
X46954855Y15784499D01*
X47013594Y15808830D01*
X47037736Y15818830D01*
X47101170Y15882264D01*
X47101170Y15882265D01*
X47111575Y15892670D01*
X47111577Y15892673D01*
X47587327Y16368423D01*
X47587330Y16368425D01*
X47597735Y16378830D01*
X47597736Y16378830D01*
X47661170Y16442264D01*
X47675765Y16477500D01*
X47695501Y16525146D01*
X47695501Y16614855D01*
X47695501Y16620813D01*
X47695500Y16620827D01*
X47695500Y19823810D01*
X47717174Y19876136D01*
X47739870Y19898832D01*
X47777573Y19936535D01*
X47831574Y20042518D01*
X47838150Y20084044D01*
X47867742Y20132334D01*
X47922813Y20145557D01*
X47971105Y20115965D01*
X47984328Y20084046D01*
X47987897Y20061513D01*
X47997575Y20042519D01*
X48038467Y19962264D01*
X48041899Y19955530D01*
X48122826Y19874603D01*
X48144500Y19822277D01*
X48144500Y16294057D01*
X48122826Y16241731D01*
X47138269Y15257174D01*
X47085943Y15235500D01*
X40017490Y15235500D01*
X39965164Y15257174D01*
X39903128Y15319210D01*
X39903127Y15319211D01*
X39819985Y15361574D01*
X39797145Y15373212D01*
X39701853Y15388305D01*
X39683325Y15399659D01*
X39654953Y15387906D01*
X39562179Y15373212D01*
X39562178Y15373212D01*
X39456195Y15319210D01*
X39372090Y15235105D01*
X39318088Y15129122D01*
X39318088Y15129121D01*
X39299481Y15011638D01*
X39318088Y14894156D01*
X39318088Y14894155D01*
X39324018Y14882517D01*
X39372089Y14788173D01*
X39456197Y14704065D01*
X39562180Y14650064D01*
X39679662Y14631457D01*
X39797144Y14650064D01*
X39903127Y14704065D01*
X39961888Y14762826D01*
X40014214Y14784500D01*
X47156525Y14784500D01*
X47156533Y14784499D01*
X47165145Y14784499D01*
X47254854Y14784499D01*
X47254855Y14784499D01*
X47313594Y14808830D01*
X47337736Y14818830D01*
X47401170Y14882264D01*
X47401170Y14882265D01*
X47411575Y14892670D01*
X47411577Y14892673D01*
X48487327Y15968423D01*
X48487330Y15968425D01*
X48497735Y15978830D01*
X48497736Y15978830D01*
X48561170Y16042264D01*
X48583074Y16095145D01*
X48595501Y16125146D01*
X48595501Y16214855D01*
X48595501Y16220813D01*
X48595500Y16220827D01*
X48595500Y19863335D01*
X48617174Y19915661D01*
X48619796Y19918283D01*
X48657044Y19955531D01*
X48711045Y20061514D01*
X48729652Y20178996D01*
X48711045Y20296478D01*
X48657044Y20402461D01*
X48572936Y20486569D01*
X48520955Y20513055D01*
X48466954Y20540570D01*
X48349471Y20559177D01*
X48231988Y20540570D01*
X48231987Y20540570D01*
X48126004Y20486568D01*
X48041899Y20402463D01*
X47987897Y20296480D01*
X47987897Y20296479D01*
X47981320Y20254953D01*
X47951727Y20206662D01*
X47896655Y20193440D01*
X47848364Y20223033D01*
X47835142Y20254954D01*
X47831574Y20277483D01*
X47831573Y20277484D01*
X47821895Y20296478D01*
X47777573Y20383465D01*
X47693465Y20467573D01*
X47626124Y20501885D01*
X47587483Y20521574D01*
X47470000Y20540181D01*
X47352517Y20521574D01*
X47352516Y20521574D01*
X47246533Y20467572D01*
X47162428Y20383467D01*
X47108426Y20277484D01*
X47108426Y20277483D01*
X47089819Y20160000D01*
X47108426Y20042518D01*
X47108426Y20042517D01*
X47119434Y20020913D01*
X47149317Y19962264D01*
X47162428Y19936534D01*
X47222826Y19876136D01*
X47244500Y19823810D01*
X47244500Y16694057D01*
X47222826Y16641731D01*
X46838269Y16257174D01*
X46785943Y16235500D01*
X39884663Y16235500D01*
X39851070Y16243565D01*
X39794627Y16272324D01*
X39794625Y16272325D01*
X39794624Y16272325D01*
X39677145Y16290931D01*
X39559662Y16272324D01*
X39559661Y16272324D01*
X39453678Y16218322D01*
X39369573Y16134217D01*
X39315571Y16028234D01*
X39315571Y16028233D01*
X39296964Y15910750D01*
X32725500Y15910750D01*
X32725500Y19000000D01*
X36369819Y19000000D01*
X36388426Y18882518D01*
X36388426Y18882517D01*
X36398133Y18863467D01*
X36442427Y18776535D01*
X36526535Y18692427D01*
X36529466Y18690934D01*
X36530897Y18689259D01*
X36531243Y18689007D01*
X36531182Y18688924D01*
X36566249Y18647866D01*
X36561804Y18591404D01*
X36529466Y18559067D01*
X36528144Y18558394D01*
X36526534Y18557573D01*
X36442428Y18473467D01*
X36388426Y18367484D01*
X36388426Y18367483D01*
X36369819Y18250000D01*
X36388426Y18132518D01*
X36388426Y18132517D01*
X36415941Y18078516D01*
X36442427Y18026535D01*
X36526535Y17942427D01*
X36632518Y17888426D01*
X36750000Y17869819D01*
X36867482Y17888426D01*
X36973465Y17942427D01*
X37057573Y18026535D01*
X37111574Y18132518D01*
X37124522Y18214275D01*
X37154114Y18262564D01*
X37209187Y18275786D01*
X37310000Y18259819D01*
X37427482Y18278426D01*
X37533465Y18332427D01*
X37617573Y18416535D01*
X37671574Y18522518D01*
X37690181Y18640000D01*
X37671574Y18757482D01*
X37617573Y18863465D01*
X37533465Y18947573D01*
X37481484Y18974059D01*
X37427483Y19001574D01*
X37310000Y19020181D01*
X37309999Y19020181D01*
X37204551Y19003481D01*
X37149479Y19016703D01*
X37119887Y19064994D01*
X37111574Y19117482D01*
X37057573Y19223465D01*
X36973465Y19307573D01*
X36921484Y19334059D01*
X36867483Y19361574D01*
X36750000Y19380181D01*
X36632517Y19361574D01*
X36632516Y19361574D01*
X36526533Y19307572D01*
X36442428Y19223467D01*
X36388426Y19117484D01*
X36388426Y19117483D01*
X36369819Y19000000D01*
X32725500Y19000000D01*
X32725500Y19713341D01*
X32888148Y19713341D01*
X32906755Y19595859D01*
X32906755Y19595858D01*
X32933853Y19542676D01*
X32960756Y19489876D01*
X33044864Y19405768D01*
X33150847Y19351767D01*
X33268329Y19333160D01*
X33385811Y19351767D01*
X33491794Y19405768D01*
X33498852Y19412826D01*
X33551178Y19434500D01*
X34787835Y19434500D01*
X34787843Y19434499D01*
X34796455Y19434499D01*
X34886164Y19434499D01*
X34886165Y19434499D01*
X34944770Y19458775D01*
X34969046Y19468830D01*
X35032480Y19532264D01*
X35032480Y19532265D01*
X35042885Y19542670D01*
X35042886Y19542673D01*
X35193331Y19693117D01*
X35245656Y19714790D01*
X35257230Y19713880D01*
X35272890Y19711399D01*
X35390372Y19730006D01*
X35496355Y19784007D01*
X35580463Y19868115D01*
X35634464Y19974098D01*
X35652821Y20090000D01*
X35849819Y20090000D01*
X35868426Y19972518D01*
X35868426Y19972517D01*
X35886621Y19936808D01*
X35922427Y19866535D01*
X36006535Y19782427D01*
X36112518Y19728426D01*
X36230000Y19709819D01*
X36347482Y19728426D01*
X36453465Y19782427D01*
X36513864Y19842826D01*
X36566190Y19864500D01*
X39406525Y19864500D01*
X39406533Y19864499D01*
X39415145Y19864499D01*
X39504854Y19864499D01*
X39504855Y19864499D01*
X39563460Y19888775D01*
X39587736Y19898830D01*
X39651170Y19962264D01*
X39651170Y19962265D01*
X39661575Y19972670D01*
X39661577Y19972673D01*
X41889056Y22200153D01*
X41929804Y22220914D01*
X41973246Y22227793D01*
X42079229Y22281794D01*
X42163337Y22365902D01*
X42217338Y22471885D01*
X42235945Y22589367D01*
X42217338Y22706849D01*
X42174944Y22790051D01*
X45509717Y22790051D01*
X45528324Y22672569D01*
X45528324Y22672568D01*
X45538586Y22652429D01*
X45582325Y22566586D01*
X45666433Y22482478D01*
X45772416Y22428477D01*
X45889898Y22409870D01*
X46007380Y22428477D01*
X46113363Y22482478D01*
X46197471Y22566586D01*
X46251472Y22672569D01*
X46270079Y22790051D01*
X46251472Y22907533D01*
X46197471Y23013516D01*
X46113363Y23097624D01*
X46061382Y23124110D01*
X46007381Y23151625D01*
X45889898Y23170232D01*
X45772415Y23151625D01*
X45772414Y23151625D01*
X45666431Y23097623D01*
X45582326Y23013518D01*
X45528324Y22907535D01*
X45528324Y22907534D01*
X45509717Y22790051D01*
X42174944Y22790051D01*
X42163337Y22812832D01*
X42079229Y22896940D01*
X42020494Y22926867D01*
X41973247Y22950941D01*
X41855764Y22969548D01*
X41738281Y22950941D01*
X41738280Y22950941D01*
X41632297Y22896939D01*
X41548192Y22812834D01*
X41494190Y22706851D01*
X41494190Y22706850D01*
X41475583Y22589367D01*
X41475583Y22589366D01*
X41492227Y22484272D01*
X41479005Y22429200D01*
X41471464Y22420371D01*
X39388269Y20337174D01*
X39335943Y20315500D01*
X36566190Y20315500D01*
X36513864Y20337174D01*
X36453466Y20397572D01*
X36453465Y20397573D01*
X36387364Y20431253D01*
X36347483Y20451574D01*
X36230000Y20470181D01*
X36112517Y20451574D01*
X36112516Y20451574D01*
X36006533Y20397572D01*
X35922428Y20313467D01*
X35868426Y20207484D01*
X35868426Y20207483D01*
X35849819Y20090000D01*
X35652821Y20090000D01*
X35653071Y20091580D01*
X35634464Y20209062D01*
X35580463Y20315045D01*
X35496355Y20399153D01*
X35433355Y20431253D01*
X35390373Y20453154D01*
X35272890Y20471761D01*
X35155407Y20453154D01*
X35155406Y20453154D01*
X35049423Y20399152D01*
X34965317Y20315046D01*
X34935540Y20256606D01*
X34892472Y20219823D01*
X34836010Y20224268D01*
X34803672Y20256607D01*
X34800750Y20262341D01*
X34764511Y20333465D01*
X34680403Y20417573D01*
X34628422Y20444059D01*
X34574421Y20471574D01*
X34456938Y20490181D01*
X34339455Y20471574D01*
X34339451Y20471573D01*
X34233477Y20417577D01*
X34233474Y20417575D01*
X34221759Y20405860D01*
X34169431Y20384189D01*
X34117110Y20405863D01*
X34105401Y20417572D01*
X34105400Y20417573D01*
X34053419Y20444059D01*
X33999418Y20471574D01*
X33881935Y20490181D01*
X33764452Y20471574D01*
X33764451Y20471574D01*
X33658468Y20417572D01*
X33574363Y20333467D01*
X33520361Y20227484D01*
X33520361Y20227483D01*
X33503887Y20123470D01*
X33474294Y20075179D01*
X33419222Y20061957D01*
X33397204Y20069111D01*
X33385813Y20074915D01*
X33268329Y20093522D01*
X33150846Y20074915D01*
X33150845Y20074915D01*
X33044862Y20020913D01*
X32960757Y19936808D01*
X32906755Y19830825D01*
X32906755Y19830824D01*
X32888148Y19713341D01*
X32725500Y19713341D01*
X32725500Y20262341D01*
X32747173Y20314666D01*
X32926682Y20494176D01*
X32979008Y20515849D01*
X33031334Y20494175D01*
X33048007Y20477502D01*
X33153990Y20423501D01*
X33271472Y20404894D01*
X33388954Y20423501D01*
X33494937Y20477502D01*
X33579045Y20561610D01*
X33633046Y20667593D01*
X33651653Y20785075D01*
X33633046Y20902557D01*
X33579045Y21008540D01*
X33494937Y21092648D01*
X33442956Y21119134D01*
X33388955Y21146649D01*
X33271472Y21165256D01*
X33153989Y21146649D01*
X33153988Y21146649D01*
X33048005Y21092647D01*
X32987609Y21032250D01*
X32935283Y21010576D01*
X32853824Y21010576D01*
X32812991Y20993662D01*
X32812990Y20993662D01*
X32770944Y20976247D01*
X32308828Y20514131D01*
X32298909Y20490182D01*
X32298909Y20490181D01*
X32274499Y20431253D01*
X32274499Y20332931D01*
X32274500Y20332922D01*
X32274500Y9064057D01*
X32252826Y9011731D01*
X31428269Y8187174D01*
X31375943Y8165500D01*
X24196190Y8165500D01*
X24143864Y8187174D01*
X24083466Y8247572D01*
X24083465Y8247573D01*
X24031484Y8274059D01*
X23977483Y8301574D01*
X23860000Y8320181D01*
X23742517Y8301574D01*
X23742516Y8301574D01*
X23636533Y8247572D01*
X23552428Y8163467D01*
X23498426Y8057484D01*
X23498426Y8057483D01*
X23479819Y7940000D01*
X0Y7940000D01*
X0Y9000000D01*
X30369819Y9000000D01*
X30388426Y8882518D01*
X30388426Y8882517D01*
X30406730Y8846595D01*
X30442427Y8776535D01*
X30526535Y8692427D01*
X30632518Y8638426D01*
X30750000Y8619819D01*
X30867482Y8638426D01*
X30973465Y8692427D01*
X31033864Y8752826D01*
X31086190Y8774500D01*
X31446525Y8774500D01*
X31446533Y8774499D01*
X31455145Y8774499D01*
X31544854Y8774499D01*
X31544855Y8774499D01*
X31603460Y8798775D01*
X31627736Y8808830D01*
X31691170Y8872264D01*
X31691170Y8872265D01*
X31701575Y8882670D01*
X31701576Y8882673D01*
X31941170Y9122264D01*
X31975500Y9205145D01*
X31975500Y9294854D01*
X31975500Y21275943D01*
X31997174Y21328269D01*
X32113906Y21445001D01*
X32295441Y21626537D01*
X32347766Y21648210D01*
X32359340Y21647300D01*
X32375000Y21644819D01*
X32492482Y21663426D01*
X32598465Y21717427D01*
X32682573Y21801535D01*
X32736574Y21907518D01*
X32755181Y22025000D01*
X32736574Y22142482D01*
X32682573Y22248465D01*
X32598465Y22332573D01*
X32533053Y22365902D01*
X32492483Y22386574D01*
X32375000Y22405181D01*
X32257517Y22386574D01*
X32257516Y22386574D01*
X32151533Y22332572D01*
X32067428Y22248467D01*
X32013426Y22142484D01*
X32013426Y22142483D01*
X31994819Y22025000D01*
X31994819Y22024998D01*
X31997298Y22009343D01*
X31984075Y21954271D01*
X31976535Y21945443D01*
X31622265Y21591171D01*
X31558831Y21527737D01*
X31558830Y21527735D01*
X31524499Y21444856D01*
X31524499Y21346534D01*
X31524500Y21346525D01*
X31524500Y9374058D01*
X31502826Y9321732D01*
X31428269Y9247174D01*
X31375943Y9225500D01*
X31086190Y9225500D01*
X31033864Y9247174D01*
X30973466Y9307572D01*
X30973465Y9307573D01*
X30903139Y9343406D01*
X30867483Y9361574D01*
X30750000Y9380181D01*
X30632517Y9361574D01*
X30632516Y9361574D01*
X30526533Y9307572D01*
X30442428Y9223467D01*
X30388426Y9117484D01*
X30388426Y9117483D01*
X30369819Y9000000D01*
X0Y9000000D01*
X0Y13050000D01*
X9479801Y13050000D01*
X9498408Y12932518D01*
X9498408Y12932517D01*
X9498453Y12932429D01*
X9549472Y12832299D01*
X9552410Y12826534D01*
X9612808Y12766136D01*
X9634482Y12713810D01*
X9634482Y12183676D01*
X9628850Y12155359D01*
X9624499Y12144855D01*
X9624499Y12044855D01*
X9624499Y11955145D01*
X9639549Y11918812D01*
X9658829Y11872266D01*
X9658831Y11872263D01*
X9732671Y11798423D01*
X9732673Y11798422D01*
X11704609Y9826486D01*
X11704612Y9826482D01*
X11708830Y9822264D01*
X11772264Y9758830D01*
X11806595Y9744610D01*
X11855146Y9724499D01*
X11855147Y9724499D01*
X11953467Y9724499D01*
X11953475Y9724500D01*
X30413810Y9724500D01*
X30466136Y9702826D01*
X30526535Y9642427D01*
X30632518Y9588426D01*
X30750000Y9569819D01*
X30867482Y9588426D01*
X30973465Y9642427D01*
X31057573Y9726535D01*
X31111574Y9832518D01*
X31130181Y9950000D01*
X31111574Y10067482D01*
X31057573Y10173465D01*
X30973465Y10257573D01*
X30895744Y10297174D01*
X30867483Y10311574D01*
X30750000Y10330181D01*
X30632517Y10311574D01*
X30632516Y10311574D01*
X30526533Y10257572D01*
X30466136Y10197174D01*
X30413810Y10175500D01*
X12024057Y10175500D01*
X11971731Y10197174D01*
X11168905Y11000000D01*
X12609819Y11000000D01*
X12628426Y10882518D01*
X12628426Y10882517D01*
X12655185Y10830000D01*
X12682427Y10776535D01*
X12766535Y10692427D01*
X12872518Y10638426D01*
X12990000Y10619819D01*
X13107482Y10638426D01*
X13213465Y10692427D01*
X13273864Y10752826D01*
X13326190Y10774500D01*
X30413810Y10774500D01*
X30466136Y10752826D01*
X30526535Y10692427D01*
X30632518Y10638426D01*
X30750000Y10619819D01*
X30867482Y10638426D01*
X30973465Y10692427D01*
X31057573Y10776535D01*
X31111574Y10882518D01*
X31130181Y11000000D01*
X31111574Y11117482D01*
X31057573Y11223465D01*
X30973465Y11307573D01*
X30921484Y11334059D01*
X30867483Y11361574D01*
X30750000Y11380181D01*
X30632517Y11361574D01*
X30632516Y11361574D01*
X30526533Y11307572D01*
X30466136Y11247174D01*
X30413810Y11225500D01*
X13326190Y11225500D01*
X13273864Y11247174D01*
X13213466Y11307572D01*
X13213465Y11307573D01*
X13161484Y11334059D01*
X13107483Y11361574D01*
X12990000Y11380181D01*
X12872517Y11361574D01*
X12872516Y11361574D01*
X12766533Y11307572D01*
X12682428Y11223467D01*
X12628426Y11117484D01*
X12628426Y11117483D01*
X12609819Y11000000D01*
X11168905Y11000000D01*
X10168905Y12000000D01*
X12609819Y12000000D01*
X12628426Y11882518D01*
X12628426Y11882517D01*
X12633651Y11872263D01*
X12682427Y11776535D01*
X12766535Y11692427D01*
X12872518Y11638426D01*
X12990000Y11619819D01*
X13107482Y11638426D01*
X13213465Y11692427D01*
X13223864Y11702826D01*
X13276190Y11724500D01*
X30413810Y11724500D01*
X30466136Y11702826D01*
X30526535Y11642427D01*
X30632518Y11588426D01*
X30750000Y11569819D01*
X30867482Y11588426D01*
X30973465Y11642427D01*
X31057573Y11726535D01*
X31111574Y11832518D01*
X31130181Y11950000D01*
X31111574Y12067482D01*
X31057573Y12173465D01*
X30973465Y12257573D01*
X30907525Y12291171D01*
X30867483Y12311574D01*
X30750000Y12330181D01*
X30632517Y12311574D01*
X30632516Y12311574D01*
X30526533Y12257572D01*
X30466136Y12197174D01*
X30413810Y12175500D01*
X13367360Y12175500D01*
X13315034Y12197174D01*
X13301426Y12215904D01*
X13297573Y12223465D01*
X13213466Y12307572D01*
X13213465Y12307573D01*
X13135744Y12347174D01*
X13107483Y12361574D01*
X12990000Y12380181D01*
X12872517Y12361574D01*
X12872516Y12361574D01*
X12766533Y12307572D01*
X12682428Y12223467D01*
X12628426Y12117484D01*
X12628426Y12117483D01*
X12609819Y12000000D01*
X10168905Y12000000D01*
X10107157Y12061748D01*
X10085483Y12114074D01*
X10085483Y12160795D01*
X10085482Y12160809D01*
X10085482Y12713810D01*
X10107156Y12766136D01*
X10129797Y12788777D01*
X10167555Y12826535D01*
X10221556Y12932518D01*
X10240163Y13050000D01*
X18369819Y13050000D01*
X18388426Y12932518D01*
X18388426Y12932517D01*
X18388471Y12932429D01*
X18442427Y12826535D01*
X18526535Y12742427D01*
X18632518Y12688426D01*
X18750000Y12669819D01*
X18867482Y12688426D01*
X18973465Y12742427D01*
X19033864Y12802826D01*
X19086190Y12824500D01*
X30413810Y12824500D01*
X30466136Y12802826D01*
X30526535Y12742427D01*
X30632518Y12688426D01*
X30750000Y12669819D01*
X30867482Y12688426D01*
X30973465Y12742427D01*
X31057573Y12826535D01*
X31111574Y12932518D01*
X31130181Y13050000D01*
X31111574Y13167482D01*
X31057573Y13273465D01*
X30973465Y13357573D01*
X30921484Y13384059D01*
X30867483Y13411574D01*
X30750000Y13430181D01*
X30632517Y13411574D01*
X30632516Y13411574D01*
X30526533Y13357572D01*
X30466136Y13297174D01*
X30413810Y13275500D01*
X19086190Y13275500D01*
X19033864Y13297174D01*
X18973466Y13357572D01*
X18973465Y13357573D01*
X18921484Y13384059D01*
X18867483Y13411574D01*
X18750000Y13430181D01*
X18632517Y13411574D01*
X18632516Y13411574D01*
X18526533Y13357572D01*
X18442428Y13273467D01*
X18388426Y13167484D01*
X18388426Y13167483D01*
X18369819Y13050000D01*
X10240163Y13050000D01*
X10221556Y13167482D01*
X10167555Y13273465D01*
X10083447Y13357573D01*
X10031466Y13384059D01*
X9977465Y13411574D01*
X9859982Y13430181D01*
X9742499Y13411574D01*
X9742498Y13411574D01*
X9636515Y13357572D01*
X9552410Y13273467D01*
X9498408Y13167484D01*
X9498408Y13167483D01*
X9479801Y13050000D01*
X0Y13050000D01*
X0Y14000000D01*
X13289819Y14000000D01*
X13308426Y13882518D01*
X13308426Y13882517D01*
X13318745Y13862266D01*
X13362427Y13776535D01*
X13446535Y13692427D01*
X13552518Y13638426D01*
X13670000Y13619819D01*
X13787482Y13638426D01*
X13893465Y13692427D01*
X13953864Y13752826D01*
X14006190Y13774500D01*
X30413810Y13774500D01*
X30466136Y13752826D01*
X30526535Y13692427D01*
X30632518Y13638426D01*
X30750000Y13619819D01*
X30867482Y13638426D01*
X30973465Y13692427D01*
X31057573Y13776535D01*
X31111574Y13882518D01*
X31130181Y14000000D01*
X31111574Y14117482D01*
X31057573Y14223465D01*
X30973465Y14307573D01*
X30921484Y14334059D01*
X30867483Y14361574D01*
X30750000Y14380181D01*
X30632517Y14361574D01*
X30632516Y14361574D01*
X30526533Y14307572D01*
X30466136Y14247174D01*
X30413810Y14225500D01*
X14006190Y14225500D01*
X13953864Y14247174D01*
X13893466Y14307572D01*
X13893465Y14307573D01*
X13841484Y14334059D01*
X13787483Y14361574D01*
X13670000Y14380181D01*
X13552517Y14361574D01*
X13552516Y14361574D01*
X13446533Y14307572D01*
X13362428Y14223467D01*
X13308426Y14117484D01*
X13308426Y14117483D01*
X13289819Y14000000D01*
X0Y14000000D01*
X0Y15000000D01*
X15269819Y15000000D01*
X15288426Y14882518D01*
X15288426Y14882517D01*
X15288554Y14882266D01*
X15342427Y14776535D01*
X15426535Y14692427D01*
X15532518Y14638426D01*
X15650000Y14619819D01*
X15767482Y14638426D01*
X15873465Y14692427D01*
X15933864Y14752826D01*
X15986190Y14774500D01*
X30413810Y14774500D01*
X30466136Y14752826D01*
X30526535Y14692427D01*
X30632518Y14638426D01*
X30750000Y14619819D01*
X30867482Y14638426D01*
X30973465Y14692427D01*
X31057573Y14776535D01*
X31111574Y14882518D01*
X31130181Y15000000D01*
X31111574Y15117482D01*
X31057573Y15223465D01*
X30973465Y15307573D01*
X30906424Y15341732D01*
X30867483Y15361574D01*
X30750000Y15380181D01*
X30632517Y15361574D01*
X30632516Y15361574D01*
X30526533Y15307572D01*
X30466136Y15247174D01*
X30413810Y15225500D01*
X15986190Y15225500D01*
X15933864Y15247174D01*
X15873466Y15307572D01*
X15873465Y15307573D01*
X15806424Y15341732D01*
X15767483Y15361574D01*
X15650000Y15380181D01*
X15532517Y15361574D01*
X15532516Y15361574D01*
X15426533Y15307572D01*
X15342428Y15223467D01*
X15288426Y15117484D01*
X15288426Y15117483D01*
X15269819Y15000000D01*
X0Y15000000D01*
X0Y16140000D01*
X15859819Y16140000D01*
X15878426Y16022518D01*
X15878426Y16022517D01*
X15889899Y16000000D01*
X15932427Y15916535D01*
X16016535Y15832427D01*
X16122518Y15778426D01*
X16240000Y15759819D01*
X16326933Y15773588D01*
X16338509Y15774499D01*
X16433467Y15774499D01*
X16433475Y15774500D01*
X30413810Y15774500D01*
X30466136Y15752826D01*
X30526535Y15692427D01*
X30632518Y15638426D01*
X30750000Y15619819D01*
X30867482Y15638426D01*
X30973465Y15692427D01*
X31057573Y15776535D01*
X31111574Y15882518D01*
X31130181Y16000000D01*
X31111574Y16117482D01*
X31057573Y16223465D01*
X30973465Y16307573D01*
X30921484Y16334059D01*
X30867483Y16361574D01*
X30750000Y16380181D01*
X30632517Y16361574D01*
X30632516Y16361574D01*
X30526533Y16307572D01*
X30466136Y16247174D01*
X30413810Y16225500D01*
X16663217Y16225500D01*
X16610891Y16247174D01*
X16597283Y16265904D01*
X16576051Y16307573D01*
X16547573Y16363465D01*
X16463465Y16447573D01*
X16404730Y16477500D01*
X16357483Y16501574D01*
X16240000Y16520181D01*
X16122517Y16501574D01*
X16122516Y16501574D01*
X16016533Y16447572D01*
X15932428Y16363467D01*
X15878426Y16257484D01*
X15878426Y16257483D01*
X15859819Y16140000D01*
X0Y16140000D01*
X0Y17300000D01*
X17519819Y17300000D01*
X17538426Y17182518D01*
X17538426Y17182517D01*
X17565941Y17128516D01*
X17592427Y17076535D01*
X17676535Y16992427D01*
X17782518Y16938426D01*
X17900000Y16919819D01*
X17915653Y16922299D01*
X17970724Y16909081D01*
X17979558Y16901537D01*
X18004609Y16876486D01*
X18004612Y16876482D01*
X18008830Y16872264D01*
X18072264Y16808830D01*
X18096539Y16798775D01*
X18155145Y16774499D01*
X18155146Y16774499D01*
X18253467Y16774499D01*
X18253475Y16774500D01*
X30413810Y16774500D01*
X30466136Y16752826D01*
X30526535Y16692427D01*
X30632518Y16638426D01*
X30750000Y16619819D01*
X30867482Y16638426D01*
X30973465Y16692427D01*
X31057573Y16776535D01*
X31111574Y16882518D01*
X31130181Y17000000D01*
X31111574Y17117482D01*
X31057573Y17223465D01*
X30973465Y17307573D01*
X30921484Y17334059D01*
X30867483Y17361574D01*
X30750000Y17380181D01*
X30632517Y17361574D01*
X30632516Y17361574D01*
X30526533Y17307572D01*
X30466136Y17247174D01*
X30413810Y17225500D01*
X18354181Y17225500D01*
X18301855Y17247174D01*
X18282278Y17294435D01*
X18281092Y17294247D01*
X18280308Y17299192D01*
X18280181Y17299500D01*
X18280181Y17299999D01*
X18278982Y17307572D01*
X18261574Y17417482D01*
X18207573Y17523465D01*
X18123465Y17607573D01*
X18071484Y17634059D01*
X18017483Y17661574D01*
X17900000Y17680181D01*
X17782517Y17661574D01*
X17782516Y17661574D01*
X17676533Y17607572D01*
X17592428Y17523467D01*
X17538426Y17417484D01*
X17538426Y17417483D01*
X17519819Y17300000D01*
X0Y17300000D01*
X0Y22960000D01*
X27969819Y22960000D01*
X27988426Y22842518D01*
X27988426Y22842517D01*
X28003551Y22812834D01*
X28042427Y22736535D01*
X28126535Y22652427D01*
X28232518Y22598426D01*
X28350000Y22579819D01*
X28467482Y22598426D01*
X28573465Y22652427D01*
X28657573Y22736535D01*
X28711574Y22842518D01*
X28730181Y22960000D01*
X28711574Y23077482D01*
X28657573Y23183465D01*
X28597174Y23243864D01*
X28575500Y23296190D01*
X28575500Y23675944D01*
X28597173Y23728269D01*
X28827654Y23958750D01*
X40324819Y23958750D01*
X40343426Y23841268D01*
X40343426Y23841267D01*
X40360309Y23808133D01*
X40397427Y23735285D01*
X40481535Y23651177D01*
X40587518Y23597176D01*
X40705000Y23578569D01*
X40822482Y23597176D01*
X40928465Y23651177D01*
X41012573Y23735285D01*
X41066574Y23841268D01*
X41085181Y23958750D01*
X41066574Y24076232D01*
X41012573Y24182215D01*
X40978760Y24216028D01*
X40957086Y24268354D01*
X40966317Y24290641D01*
X40928913Y24275147D01*
X40895318Y24283213D01*
X40822486Y24320323D01*
X40822482Y24320324D01*
X40705000Y24338931D01*
X40587517Y24320324D01*
X40587516Y24320324D01*
X40481533Y24266322D01*
X40397428Y24182217D01*
X40343426Y24076234D01*
X40343426Y24076233D01*
X40324819Y23958750D01*
X28827654Y23958750D01*
X29467327Y24598424D01*
X29467330Y24598425D01*
X29477735Y24608830D01*
X29477736Y24608830D01*
X29541170Y24672264D01*
X29567792Y24736535D01*
X29575501Y24755146D01*
X29575501Y24844855D01*
X29575501Y24850813D01*
X29575500Y24850827D01*
X29575500Y25313810D01*
X29597174Y25366136D01*
X29623522Y25392484D01*
X29657573Y25426535D01*
X29695005Y25500000D01*
X36369819Y25500000D01*
X36388426Y25382518D01*
X36388426Y25382517D01*
X36396773Y25366136D01*
X36442427Y25276535D01*
X36526535Y25192427D01*
X36529466Y25190934D01*
X36530897Y25189259D01*
X36531243Y25189007D01*
X36531182Y25188924D01*
X36566249Y25147866D01*
X36561804Y25091404D01*
X36529466Y25059067D01*
X36528144Y25058394D01*
X36526534Y25057573D01*
X36442428Y24973467D01*
X36388426Y24867484D01*
X36388426Y24867483D01*
X36369819Y24750000D01*
X36388426Y24632518D01*
X36388426Y24632517D01*
X36404213Y24601534D01*
X36442427Y24526535D01*
X36526535Y24442427D01*
X36632518Y24388426D01*
X36750000Y24369819D01*
X36867482Y24388426D01*
X36973465Y24442427D01*
X37057573Y24526535D01*
X37111574Y24632518D01*
X37115729Y24658750D01*
X40874819Y24658750D01*
X40893426Y24541268D01*
X40893426Y24541267D01*
X40947428Y24435284D01*
X40981239Y24401473D01*
X41002913Y24349147D01*
X40993681Y24326861D01*
X41031086Y24342354D01*
X41064681Y24334289D01*
X41137518Y24297176D01*
X41255000Y24278569D01*
X41372482Y24297176D01*
X41478465Y24351177D01*
X41562573Y24435285D01*
X41616574Y24541268D01*
X41625876Y24600000D01*
X44359819Y24600000D01*
X44378426Y24482518D01*
X44378426Y24482517D01*
X44398852Y24442429D01*
X44432427Y24376535D01*
X44516535Y24292427D01*
X44622518Y24238426D01*
X44740000Y24219819D01*
X44857482Y24238426D01*
X44963465Y24292427D01*
X45047573Y24376535D01*
X45101574Y24482518D01*
X45120181Y24600000D01*
X45101574Y24717482D01*
X45047573Y24823465D01*
X44963465Y24907573D01*
X44894952Y24942482D01*
X44860572Y24960000D01*
X45519819Y24960000D01*
X45538426Y24842518D01*
X45538426Y24842517D01*
X45565941Y24788516D01*
X45592427Y24736535D01*
X45676535Y24652427D01*
X45782518Y24598426D01*
X45900000Y24579819D01*
X46017482Y24598426D01*
X46123465Y24652427D01*
X46207573Y24736535D01*
X46261574Y24842518D01*
X46280181Y24960000D01*
X46261574Y25077482D01*
X46207573Y25183465D01*
X46123465Y25267573D01*
X46064730Y25297500D01*
X46017483Y25321574D01*
X45900000Y25340181D01*
X45782517Y25321574D01*
X45782516Y25321574D01*
X45676533Y25267572D01*
X45592428Y25183467D01*
X45538426Y25077484D01*
X45538426Y25077483D01*
X45519819Y24960000D01*
X44860572Y24960000D01*
X44857483Y24961574D01*
X44740000Y24980181D01*
X44622517Y24961574D01*
X44622516Y24961574D01*
X44516533Y24907572D01*
X44432428Y24823467D01*
X44378426Y24717484D01*
X44378426Y24717483D01*
X44359819Y24600000D01*
X41625876Y24600000D01*
X41635181Y24658750D01*
X41616574Y24776232D01*
X41562573Y24882215D01*
X41478465Y24966323D01*
X41412370Y25000000D01*
X41372483Y25020324D01*
X41255000Y25038931D01*
X41137517Y25020324D01*
X41137516Y25020324D01*
X41031533Y24966322D01*
X40947428Y24882217D01*
X40893426Y24776234D01*
X40893426Y24776233D01*
X40874819Y24658750D01*
X37115729Y24658750D01*
X37130181Y24750000D01*
X37130180Y24750001D01*
X37131092Y24755752D01*
X37134378Y24755232D01*
X37151855Y24797424D01*
X37204181Y24819098D01*
X37237777Y24811032D01*
X37262518Y24798426D01*
X37380000Y24779819D01*
X37497482Y24798426D01*
X37603465Y24852427D01*
X37687573Y24936535D01*
X37741574Y25042518D01*
X37760181Y25160000D01*
X37741574Y25277482D01*
X37687573Y25383465D01*
X37603465Y25467573D01*
X37541066Y25499367D01*
X37497483Y25521574D01*
X37380000Y25540181D01*
X37262517Y25521574D01*
X37262514Y25521574D01*
X37227651Y25503810D01*
X37171188Y25499367D01*
X37128122Y25536151D01*
X37120968Y25558169D01*
X37117103Y25582573D01*
X37111574Y25617482D01*
X37057573Y25723465D01*
X36973465Y25807573D01*
X36877372Y25856535D01*
X36867483Y25861574D01*
X36750000Y25880181D01*
X36632517Y25861574D01*
X36632516Y25861574D01*
X36526533Y25807572D01*
X36442428Y25723467D01*
X36388426Y25617484D01*
X36388426Y25617483D01*
X36369819Y25500000D01*
X29695005Y25500000D01*
X29711574Y25532518D01*
X29730181Y25650000D01*
X29711574Y25767482D01*
X29657573Y25873465D01*
X29573465Y25957573D01*
X29521484Y25984059D01*
X29467483Y26011574D01*
X29350000Y26030181D01*
X29232517Y26011574D01*
X29232516Y26011574D01*
X29126533Y25957572D01*
X29042428Y25873467D01*
X28988426Y25767484D01*
X28988426Y25767483D01*
X28969819Y25650000D01*
X28988426Y25532518D01*
X28988426Y25532517D01*
X29003053Y25503810D01*
X29041981Y25427410D01*
X29042428Y25426534D01*
X29102826Y25366136D01*
X29124500Y25313810D01*
X29124500Y24924058D01*
X29102826Y24871732D01*
X28158830Y23927737D01*
X28148774Y23903464D01*
X28148774Y23903461D01*
X28125195Y23846534D01*
X28124499Y23844854D01*
X28124499Y23746534D01*
X28124500Y23746525D01*
X28124500Y23296190D01*
X28102826Y23243864D01*
X28042428Y23183467D01*
X27988426Y23077484D01*
X27988426Y23077483D01*
X27969819Y22960000D01*
X0Y22960000D01*
X0Y24070000D01*
X22009819Y24070000D01*
X22028426Y23952518D01*
X22028426Y23952517D01*
X22041053Y23927736D01*
X22082427Y23846535D01*
X22166535Y23762427D01*
X22272518Y23708426D01*
X22390000Y23689819D01*
X22507482Y23708426D01*
X22613465Y23762427D01*
X22673864Y23822826D01*
X22726190Y23844500D01*
X22985942Y23844500D01*
X23038268Y23822826D01*
X23514608Y23346486D01*
X23514611Y23346482D01*
X23518829Y23342264D01*
X23582263Y23278830D01*
X23665144Y23244500D01*
X23754854Y23244500D01*
X24083810Y23244500D01*
X24136136Y23222826D01*
X24196535Y23162427D01*
X24302518Y23108426D01*
X24420000Y23089819D01*
X24537482Y23108426D01*
X24643465Y23162427D01*
X24727573Y23246535D01*
X24781574Y23352518D01*
X24800181Y23470000D01*
X24781574Y23587482D01*
X24727573Y23693465D01*
X24643465Y23777573D01*
X24583488Y23808133D01*
X24537483Y23831574D01*
X24420000Y23850181D01*
X24302517Y23831574D01*
X24302516Y23831574D01*
X24196533Y23777572D01*
X24136136Y23717174D01*
X24083810Y23695500D01*
X23834056Y23695500D01*
X23781730Y23717174D01*
X23311577Y24187327D01*
X23311577Y24187328D01*
X23237734Y24261171D01*
X23195730Y24278569D01*
X23154854Y24295501D01*
X23065144Y24295501D01*
X23056532Y24295501D01*
X23056524Y24295500D01*
X22726190Y24295500D01*
X22673864Y24317174D01*
X22613466Y24377572D01*
X22613465Y24377573D01*
X22561484Y24404059D01*
X22507483Y24431574D01*
X22390000Y24450181D01*
X22272517Y24431574D01*
X22272516Y24431574D01*
X22166533Y24377572D01*
X22082428Y24293467D01*
X22028426Y24187484D01*
X22028426Y24187483D01*
X22009819Y24070000D01*
X0Y24070000D01*
X0Y26080000D01*
X31149819Y26080000D01*
X31168426Y25962518D01*
X31168426Y25962517D01*
X31178745Y25942266D01*
X31222427Y25856535D01*
X31306535Y25772427D01*
X31412518Y25718426D01*
X31530000Y25699819D01*
X31647482Y25718426D01*
X31753465Y25772427D01*
X31803864Y25822826D01*
X31856190Y25844500D01*
X34866525Y25844500D01*
X34866533Y25844499D01*
X34875145Y25844499D01*
X34964854Y25844499D01*
X34964855Y25844499D01*
X35025822Y25869753D01*
X35047736Y25878830D01*
X35111170Y25942264D01*
X35111170Y25942265D01*
X35121575Y25952670D01*
X35121577Y25952673D01*
X35237648Y26068745D01*
X35278395Y26089506D01*
X35364524Y26103146D01*
X35470507Y26157147D01*
X35554615Y26241255D01*
X35608616Y26347238D01*
X35627223Y26464720D01*
X35623219Y26490000D01*
X35849819Y26490000D01*
X35868426Y26372518D01*
X35868426Y26372517D01*
X35878168Y26353398D01*
X35922427Y26266535D01*
X36006535Y26182427D01*
X36112518Y26128426D01*
X36230000Y26109819D01*
X36347482Y26128426D01*
X36453465Y26182427D01*
X36513864Y26242826D01*
X36566190Y26264500D01*
X38972922Y26264500D01*
X38972930Y26264499D01*
X38981542Y26264499D01*
X39071251Y26264499D01*
X39071252Y26264499D01*
X39135640Y26291170D01*
X39154133Y26298830D01*
X39217567Y26362264D01*
X39217567Y26362265D01*
X39227972Y26372670D01*
X39227974Y26372673D01*
X39566236Y26710936D01*
X39606982Y26731697D01*
X39712611Y26748426D01*
X39818594Y26802427D01*
X39902702Y26886535D01*
X39956703Y26992518D01*
X39975310Y27110000D01*
X39956703Y27227482D01*
X39902702Y27333465D01*
X39818594Y27417573D01*
X39761099Y27446868D01*
X39712612Y27471574D01*
X39595129Y27490181D01*
X39477646Y27471574D01*
X39477645Y27471574D01*
X39371662Y27417572D01*
X39287557Y27333467D01*
X39233555Y27227484D01*
X39233555Y27227483D01*
X39214948Y27110000D01*
X39224437Y27050085D01*
X39211215Y26995013D01*
X39203674Y26986184D01*
X38954666Y26737174D01*
X38902340Y26715500D01*
X36566190Y26715500D01*
X36513864Y26737174D01*
X36453466Y26797572D01*
X36453465Y26797573D01*
X36360579Y26844901D01*
X36347483Y26851574D01*
X36230000Y26870181D01*
X36112517Y26851574D01*
X36112516Y26851574D01*
X36006533Y26797572D01*
X35922428Y26713467D01*
X35868426Y26607484D01*
X35868426Y26607483D01*
X35849819Y26490000D01*
X35623219Y26490000D01*
X35608616Y26582202D01*
X35554615Y26688185D01*
X35470507Y26772293D01*
X35405260Y26805538D01*
X35364525Y26826294D01*
X35247042Y26844901D01*
X35129559Y26826294D01*
X35129558Y26826294D01*
X35023575Y26772292D01*
X34939470Y26688187D01*
X34914645Y26639466D01*
X34871577Y26602684D01*
X34815114Y26607129D01*
X34778332Y26650197D01*
X34775622Y26661487D01*
X34762083Y26746973D01*
X34708082Y26852956D01*
X34623974Y26937064D01*
X34527571Y26986184D01*
X34517992Y26991065D01*
X34400509Y27009672D01*
X34283026Y26991065D01*
X34184348Y26940786D01*
X34127886Y26936343D01*
X34117157Y26940787D01*
X34017483Y26991574D01*
X33900000Y27010181D01*
X33782517Y26991574D01*
X33782516Y26991574D01*
X33676533Y26937572D01*
X33592428Y26853467D01*
X33538426Y26747484D01*
X33538426Y26747483D01*
X33519819Y26630000D01*
X33538426Y26512518D01*
X33538426Y26512517D01*
X33538685Y26512009D01*
X33592427Y26406535D01*
X33592428Y26406534D01*
X33594180Y26403096D01*
X33598624Y26346633D01*
X33561842Y26303566D01*
X33528246Y26295500D01*
X31876190Y26295500D01*
X31823864Y26317174D01*
X31753466Y26387572D01*
X31753465Y26387573D01*
X31701484Y26414059D01*
X31647483Y26441574D01*
X31530000Y26460181D01*
X31412517Y26441574D01*
X31412516Y26441574D01*
X31306533Y26387572D01*
X31222428Y26303467D01*
X31168426Y26197484D01*
X31168426Y26197483D01*
X31149819Y26080000D01*
X0Y26080000D01*
X0Y27800000D01*
X40874819Y27800000D01*
X40893426Y27682518D01*
X40893426Y27682517D01*
X40901570Y27666534D01*
X40947427Y27576535D01*
X41031535Y27492427D01*
X41137518Y27438426D01*
X41255000Y27419819D01*
X41372482Y27438426D01*
X41478465Y27492427D01*
X41562573Y27576535D01*
X41616574Y27682518D01*
X41635181Y27800000D01*
X41616574Y27917482D01*
X41562573Y28023465D01*
X41478465Y28107573D01*
X41426484Y28134059D01*
X41372483Y28161574D01*
X41268146Y28178099D01*
X41253804Y28186888D01*
X41226854Y28175724D01*
X41137516Y28161574D01*
X41031533Y28107572D01*
X40947428Y28023467D01*
X40893426Y27917484D01*
X40893426Y27917483D01*
X40874819Y27800000D01*
X0Y27800000D01*
X0Y28700027D01*
X39359819Y28700027D01*
X39378426Y28582545D01*
X39378426Y28582544D01*
X39378492Y28582415D01*
X39432427Y28476562D01*
X39516535Y28392454D01*
X39622518Y28338453D01*
X39740000Y28319846D01*
X39857482Y28338453D01*
X39963465Y28392454D01*
X40047573Y28476562D01*
X40101574Y28582545D01*
X40120177Y28700000D01*
X40859819Y28700000D01*
X40878426Y28582518D01*
X40878426Y28582517D01*
X40890561Y28558701D01*
X40932427Y28476535D01*
X41016535Y28392427D01*
X41114318Y28342604D01*
X41122516Y28338427D01*
X41122517Y28338426D01*
X41144384Y28334963D01*
X41226853Y28321902D01*
X41241194Y28313114D01*
X41268145Y28324277D01*
X41357482Y28338426D01*
X41463465Y28392427D01*
X41547573Y28476535D01*
X41601574Y28582518D01*
X41620181Y28700000D01*
X41601574Y28817482D01*
X41547573Y28923465D01*
X41463465Y29007573D01*
X41411484Y29034059D01*
X41357483Y29061574D01*
X41240000Y29080181D01*
X41122517Y29061574D01*
X41122516Y29061574D01*
X41016533Y29007572D01*
X40932428Y28923467D01*
X40878426Y28817484D01*
X40878426Y28817483D01*
X40859819Y28700000D01*
X40120177Y28700000D01*
X40120181Y28700027D01*
X40101574Y28817509D01*
X40047573Y28923492D01*
X39963465Y29007600D01*
X39911484Y29034086D01*
X39857483Y29061601D01*
X39740000Y29080208D01*
X39622517Y29061601D01*
X39622516Y29061601D01*
X39516533Y29007599D01*
X39432428Y28923494D01*
X39378426Y28817511D01*
X39378426Y28817510D01*
X39359819Y28700027D01*
X0Y28700027D01*
X0Y29700000D01*
X40859819Y29700000D01*
X40878426Y29582518D01*
X40878426Y29582517D01*
X40886570Y29566534D01*
X40932427Y29476535D01*
X41016535Y29392427D01*
X41122518Y29338426D01*
X41240000Y29319819D01*
X41357482Y29338426D01*
X41463465Y29392427D01*
X41547573Y29476535D01*
X41601574Y29582518D01*
X41620181Y29700000D01*
X41601574Y29817482D01*
X41547573Y29923465D01*
X41463465Y30007573D01*
X41390291Y30044857D01*
X41357483Y30061574D01*
X41240000Y30080181D01*
X41122517Y30061574D01*
X41122516Y30061574D01*
X41016533Y30007572D01*
X40932428Y29923467D01*
X40878426Y29817484D01*
X40878426Y29817483D01*
X40859819Y29700000D01*
X0Y29700000D01*
X0Y32500000D01*
X29469819Y32500000D01*
X29488426Y32382518D01*
X29488426Y32382517D01*
X29499097Y32361574D01*
X29542427Y32276535D01*
X29626535Y32192427D01*
X29732518Y32138426D01*
X29850000Y32119819D01*
X29967482Y32138426D01*
X30073465Y32192427D01*
X30133864Y32252826D01*
X30186190Y32274500D01*
X34706525Y32274500D01*
X34706533Y32274499D01*
X34715145Y32274499D01*
X34804854Y32274499D01*
X34804855Y32274499D01*
X34863460Y32298775D01*
X34887736Y32308830D01*
X34951170Y32372264D01*
X34951170Y32372265D01*
X34961575Y32382670D01*
X34961577Y32382673D01*
X35180441Y32601538D01*
X35232766Y32623211D01*
X35244340Y32622300D01*
X35255706Y32620500D01*
X35259999Y32619819D01*
X35260000Y32619819D01*
X35377482Y32638426D01*
X35483465Y32692427D01*
X35567573Y32776535D01*
X35621574Y32882518D01*
X35640181Y33000000D01*
X35869819Y33000000D01*
X35888426Y32882518D01*
X35888426Y32882517D01*
X35899097Y32861574D01*
X35942427Y32776535D01*
X36026535Y32692427D01*
X36132518Y32638426D01*
X36250000Y32619819D01*
X36367482Y32638426D01*
X36473465Y32692427D01*
X36533864Y32752826D01*
X36586190Y32774500D01*
X36805943Y32774500D01*
X36858269Y32752826D01*
X37482736Y32128359D01*
X37504410Y32076033D01*
X37482736Y32023707D01*
X37430410Y32002033D01*
X37418834Y32002944D01*
X37310000Y32020181D01*
X37192517Y32001574D01*
X37186977Y31999774D01*
X37186484Y32001291D01*
X37136493Y31997366D01*
X37093433Y32034157D01*
X37086285Y32056165D01*
X37084122Y32069820D01*
X37076574Y32117482D01*
X37076574Y32117483D01*
X37076573Y32117484D01*
X37075383Y32119820D01*
X37022573Y32223465D01*
X36938465Y32307573D01*
X36883325Y32335668D01*
X36832483Y32361574D01*
X36715000Y32380181D01*
X36597517Y32361574D01*
X36597516Y32361574D01*
X36491533Y32307572D01*
X36407428Y32223467D01*
X36353426Y32117484D01*
X36353426Y32117483D01*
X36334819Y32000000D01*
X36353426Y31882518D01*
X36353426Y31882517D01*
X36356474Y31876536D01*
X36407427Y31776535D01*
X36491535Y31692427D01*
X36494466Y31690934D01*
X36495897Y31689259D01*
X36496243Y31689007D01*
X36496182Y31688924D01*
X36531249Y31647866D01*
X36526804Y31591404D01*
X36494466Y31559067D01*
X36493144Y31558394D01*
X36491534Y31557573D01*
X36407428Y31473467D01*
X36353426Y31367484D01*
X36353426Y31367483D01*
X36334819Y31250000D01*
X36353426Y31132518D01*
X36353426Y31132517D01*
X36368049Y31103818D01*
X36407427Y31026535D01*
X36491535Y30942427D01*
X36597518Y30888426D01*
X36715000Y30869819D01*
X36832482Y30888426D01*
X36938465Y30942427D01*
X37022573Y31026535D01*
X37076574Y31132518D01*
X37090682Y31221599D01*
X37120274Y31269888D01*
X37175347Y31283110D01*
X37186712Y31279414D01*
X37186977Y31280226D01*
X37192514Y31278428D01*
X37192518Y31278426D01*
X37310000Y31259819D01*
X37427482Y31278426D01*
X37533465Y31332427D01*
X37617573Y31416535D01*
X37671574Y31522518D01*
X37690181Y31640000D01*
X37671574Y31757482D01*
X37671573Y31757483D01*
X37670663Y31763234D01*
X37673668Y31763710D01*
X37677304Y31809967D01*
X37720367Y31846755D01*
X37776830Y31842317D01*
X37795568Y31828705D01*
X37796535Y31827738D01*
X37902518Y31773737D01*
X38020000Y31755130D01*
X38137482Y31773737D01*
X38243465Y31827738D01*
X38327573Y31911846D01*
X38381574Y32017829D01*
X38400181Y32135311D01*
X38381574Y32252793D01*
X38327573Y32358776D01*
X38286349Y32400000D01*
X40859819Y32400000D01*
X40878426Y32282518D01*
X40878426Y32282517D01*
X40905941Y32228516D01*
X40932427Y32176535D01*
X41016535Y32092427D01*
X41122518Y32038426D01*
X41240000Y32019819D01*
X41357482Y32038426D01*
X41463465Y32092427D01*
X41547573Y32176535D01*
X41601574Y32282518D01*
X41620181Y32400000D01*
X41604343Y32500000D01*
X45459819Y32500000D01*
X45478426Y32382518D01*
X45478426Y32382517D01*
X45489097Y32361574D01*
X45532427Y32276535D01*
X45616535Y32192427D01*
X45722518Y32138426D01*
X45840000Y32119819D01*
X45957482Y32138426D01*
X46063465Y32192427D01*
X46147573Y32276535D01*
X46201574Y32382518D01*
X46220181Y32500000D01*
X46559819Y32500000D01*
X46578426Y32382518D01*
X46578426Y32382517D01*
X46589097Y32361574D01*
X46630833Y32279663D01*
X46632428Y32276534D01*
X46656636Y32252326D01*
X46678310Y32200000D01*
X46656636Y32147674D01*
X46632428Y32123467D01*
X46578426Y32017484D01*
X46578426Y32017483D01*
X46559819Y31900000D01*
X46578426Y31782518D01*
X46578426Y31782517D01*
X46591182Y31757482D01*
X46632427Y31676535D01*
X46716535Y31592427D01*
X46822518Y31538426D01*
X46940000Y31519819D01*
X47057482Y31538426D01*
X47163465Y31592427D01*
X47247573Y31676535D01*
X47301574Y31782518D01*
X47320181Y31900000D01*
X47301574Y32017482D01*
X47247573Y32123465D01*
X47223364Y32147674D01*
X47201690Y32200000D01*
X47223364Y32252326D01*
X47223864Y32252826D01*
X47247573Y32276535D01*
X47301574Y32382518D01*
X47312262Y32450000D01*
X47659819Y32450000D01*
X47678426Y32332518D01*
X47678426Y32332517D01*
X47695618Y32298777D01*
X47732427Y32226535D01*
X47816535Y32142427D01*
X47922518Y32088426D01*
X48040000Y32069819D01*
X48157482Y32088426D01*
X48263465Y32142427D01*
X48347573Y32226535D01*
X48401574Y32332518D01*
X48420181Y32450000D01*
X48401574Y32567482D01*
X48347573Y32673465D01*
X48263465Y32757573D01*
X48181179Y32799500D01*
X48157483Y32811574D01*
X48040000Y32830181D01*
X47922517Y32811574D01*
X47922516Y32811574D01*
X47816533Y32757572D01*
X47732428Y32673467D01*
X47678426Y32567484D01*
X47678426Y32567483D01*
X47659819Y32450000D01*
X47312262Y32450000D01*
X47320181Y32500000D01*
X47301574Y32617482D01*
X47247573Y32723465D01*
X47163465Y32807573D01*
X47076351Y32851960D01*
X47057483Y32861574D01*
X46940000Y32880181D01*
X46822517Y32861574D01*
X46822516Y32861574D01*
X46716533Y32807572D01*
X46632428Y32723467D01*
X46578426Y32617484D01*
X46578426Y32617483D01*
X46559819Y32500000D01*
X46220181Y32500000D01*
X46201574Y32617482D01*
X46147573Y32723465D01*
X46063465Y32807573D01*
X45976351Y32851960D01*
X45957483Y32861574D01*
X45840000Y32880181D01*
X45722517Y32861574D01*
X45722516Y32861574D01*
X45616533Y32807572D01*
X45532428Y32723467D01*
X45478426Y32617484D01*
X45478426Y32617483D01*
X45459819Y32500000D01*
X41604343Y32500000D01*
X41601574Y32517482D01*
X41547573Y32623465D01*
X41463465Y32707573D01*
X41375668Y32752308D01*
X41357483Y32761574D01*
X41240000Y32780181D01*
X41122517Y32761574D01*
X41122516Y32761574D01*
X41016533Y32707572D01*
X40932428Y32623467D01*
X40878426Y32517484D01*
X40878426Y32517483D01*
X40859819Y32400000D01*
X38286349Y32400000D01*
X38243465Y32442884D01*
X38189085Y32470592D01*
X38137483Y32496885D01*
X38020000Y32515492D01*
X37902517Y32496885D01*
X37902515Y32496885D01*
X37850721Y32470495D01*
X37794258Y32466052D01*
X37764801Y32484104D01*
X37131578Y33117327D01*
X37131578Y33117328D01*
X37057737Y33191169D01*
X37057733Y33191172D01*
X37023910Y33205181D01*
X36974855Y33225501D01*
X36885145Y33225501D01*
X36876533Y33225501D01*
X36876525Y33225500D01*
X36586190Y33225500D01*
X36533864Y33247174D01*
X36473466Y33307572D01*
X36473465Y33307573D01*
X36421484Y33334059D01*
X36367483Y33361574D01*
X36250000Y33380181D01*
X36132517Y33361574D01*
X36132516Y33361574D01*
X36026533Y33307572D01*
X35942428Y33223467D01*
X35888426Y33117484D01*
X35888426Y33117483D01*
X35869819Y33000000D01*
X35640181Y33000000D01*
X35621574Y33117482D01*
X35567573Y33223465D01*
X35483465Y33307573D01*
X35431484Y33334059D01*
X35377483Y33361574D01*
X35260000Y33380181D01*
X35142517Y33361574D01*
X35142516Y33361574D01*
X35036533Y33307572D01*
X34952428Y33223467D01*
X34916104Y33152179D01*
X34873036Y33115397D01*
X34816573Y33119842D01*
X34779791Y33162910D01*
X34777082Y33174194D01*
X34765081Y33249971D01*
X34765081Y33249972D01*
X34765080Y33249973D01*
X34764051Y33251992D01*
X34711080Y33355954D01*
X34626972Y33440062D01*
X34574991Y33466548D01*
X34520990Y33494063D01*
X34403507Y33512670D01*
X34286024Y33494063D01*
X34286020Y33494062D01*
X34182906Y33441522D01*
X34126444Y33437078D01*
X34115716Y33441522D01*
X34017486Y33491573D01*
X34017482Y33491574D01*
X33900000Y33510181D01*
X33782517Y33491574D01*
X33782516Y33491574D01*
X33676533Y33437572D01*
X33592428Y33353467D01*
X33538426Y33247484D01*
X33538426Y33247483D01*
X33519819Y33130000D01*
X33538426Y33012518D01*
X33538426Y33012517D01*
X33592428Y32906534D01*
X33647136Y32851826D01*
X33668810Y32799500D01*
X33647136Y32747174D01*
X33594810Y32725500D01*
X30186190Y32725500D01*
X30133864Y32747174D01*
X30073466Y32807572D01*
X30073465Y32807573D01*
X29986351Y32851960D01*
X29967483Y32861574D01*
X29850000Y32880181D01*
X29732517Y32861574D01*
X29732516Y32861574D01*
X29626533Y32807572D01*
X29542428Y32723467D01*
X29488426Y32617484D01*
X29488426Y32617483D01*
X29469819Y32500000D01*
X0Y32500000D01*
X0Y35450000D01*
X46559819Y35450000D01*
X46578426Y35332518D01*
X46578426Y35332517D01*
X46632428Y35226534D01*
X46656636Y35202326D01*
X46678310Y35150000D01*
X46656636Y35097674D01*
X46632428Y35073467D01*
X46578426Y34967484D01*
X46578426Y34967483D01*
X46559819Y34850000D01*
X46578426Y34732518D01*
X46578426Y34732517D01*
X46605941Y34678516D01*
X46632427Y34626535D01*
X46716535Y34542427D01*
X46822518Y34488426D01*
X46940000Y34469819D01*
X47057482Y34488426D01*
X47163465Y34542427D01*
X47247573Y34626535D01*
X47301574Y34732518D01*
X47320181Y34850000D01*
X47301574Y34967482D01*
X47247573Y35073465D01*
X47223364Y35097674D01*
X47201690Y35150000D01*
X47223364Y35202326D01*
X47231865Y35210827D01*
X47247573Y35226535D01*
X47301574Y35332518D01*
X47320181Y35450000D01*
X47301574Y35567482D01*
X47247573Y35673465D01*
X47163465Y35757573D01*
X47072720Y35803810D01*
X47057483Y35811574D01*
X46940000Y35830181D01*
X46822517Y35811574D01*
X46822516Y35811574D01*
X46716533Y35757572D01*
X46632428Y35673467D01*
X46578426Y35567484D01*
X46578426Y35567483D01*
X46559819Y35450000D01*
X0Y35450000D01*
X0Y36500000D01*
X51369819Y36500000D01*
X51388426Y36382518D01*
X51388426Y36382517D01*
X51415941Y36328516D01*
X51442427Y36276535D01*
X51526535Y36192427D01*
X51632518Y36138426D01*
X51750000Y36119819D01*
X51867482Y36138426D01*
X51973465Y36192427D01*
X52057573Y36276535D01*
X52111574Y36382518D01*
X52130181Y36500000D01*
X52111574Y36617482D01*
X52057573Y36723465D01*
X51973465Y36807573D01*
X51905716Y36842093D01*
X51867483Y36861574D01*
X51750000Y36880181D01*
X51632517Y36861574D01*
X51559681Y36824462D01*
X51535607Y36822568D01*
X51526239Y36807278D01*
X51442428Y36723467D01*
X51388426Y36617484D01*
X51388426Y36617483D01*
X51369819Y36500000D01*
X0Y36500000D01*
X0Y37250000D01*
X50869819Y37250000D01*
X50888426Y37132518D01*
X50888426Y37132517D01*
X50896087Y37117482D01*
X50942427Y37026535D01*
X51026535Y36942427D01*
X51132518Y36888426D01*
X51250000Y36869819D01*
X51367482Y36888426D01*
X51440318Y36925539D01*
X51464390Y36927433D01*
X51473758Y36942721D01*
X51557573Y37026535D01*
X51611574Y37132518D01*
X51630181Y37250000D01*
X51611574Y37367482D01*
X51557573Y37473465D01*
X51473760Y37557278D01*
X51469548Y37567445D01*
X51440318Y37574463D01*
X51367486Y37611573D01*
X51367482Y37611574D01*
X51250000Y37630181D01*
X51132517Y37611574D01*
X51132516Y37611574D01*
X51026533Y37557572D01*
X50942428Y37473467D01*
X50888426Y37367484D01*
X50888426Y37367483D01*
X50869819Y37250000D01*
X0Y37250000D01*
X0Y37750000D01*
X36334819Y37750000D01*
X36353426Y37632518D01*
X36353426Y37632517D01*
X36359896Y37619820D01*
X36407427Y37526535D01*
X36491535Y37442427D01*
X36597518Y37388426D01*
X36715000Y37369819D01*
X36832482Y37388426D01*
X36938465Y37442427D01*
X37022573Y37526535D01*
X37076574Y37632518D01*
X37095181Y37750000D01*
X37087262Y37800000D01*
X50119819Y37800000D01*
X50138426Y37682518D01*
X50138426Y37682517D01*
X50141982Y37675538D01*
X50192427Y37576535D01*
X50276535Y37492427D01*
X50382518Y37438426D01*
X50500000Y37419819D01*
X50617482Y37438426D01*
X50723465Y37492427D01*
X50807573Y37576535D01*
X50861574Y37682518D01*
X50880181Y37800000D01*
X50861574Y37917482D01*
X50819529Y38000000D01*
X51369819Y38000000D01*
X51388426Y37882518D01*
X51388426Y37882517D01*
X51401670Y37856525D01*
X51437633Y37785943D01*
X51442428Y37776534D01*
X51526239Y37692723D01*
X51530450Y37682557D01*
X51559681Y37675539D01*
X51632518Y37638426D01*
X51750000Y37619819D01*
X51867482Y37638426D01*
X51973465Y37692427D01*
X52057573Y37776535D01*
X52111574Y37882518D01*
X52130181Y38000000D01*
X52111574Y38117482D01*
X52057573Y38223465D01*
X51973465Y38307573D01*
X51921484Y38334059D01*
X51867483Y38361574D01*
X51750000Y38380181D01*
X51632517Y38361574D01*
X51559681Y38324462D01*
X51535607Y38322568D01*
X51526239Y38307278D01*
X51442428Y38223467D01*
X51388426Y38117484D01*
X51388426Y38117483D01*
X51369819Y38000000D01*
X50819529Y38000000D01*
X50807573Y38023465D01*
X50723465Y38107573D01*
X50666651Y38136521D01*
X50617483Y38161574D01*
X50500000Y38180181D01*
X50382517Y38161574D01*
X50382516Y38161574D01*
X50276533Y38107572D01*
X50192428Y38023467D01*
X50138426Y37917484D01*
X50138426Y37917483D01*
X50119819Y37800000D01*
X37087262Y37800000D01*
X37076574Y37867482D01*
X37022573Y37973465D01*
X36938465Y38057573D01*
X36886484Y38084059D01*
X36832483Y38111574D01*
X36715000Y38130181D01*
X36597517Y38111574D01*
X36597516Y38111574D01*
X36491533Y38057572D01*
X36407428Y37973467D01*
X36353426Y37867484D01*
X36353426Y37867483D01*
X36334819Y37750000D01*
X0Y37750000D01*
X0Y38250000D01*
X41609819Y38250000D01*
X41628426Y38132518D01*
X41628426Y38132517D01*
X41655941Y38078516D01*
X41682427Y38026535D01*
X41766535Y37942427D01*
X41872518Y37888426D01*
X41990000Y37869819D01*
X42107482Y37888426D01*
X42206405Y37938831D01*
X42262867Y37943274D01*
X42273588Y37938834D01*
X42372518Y37888426D01*
X42490000Y37869819D01*
X42607482Y37888426D01*
X42706405Y37938831D01*
X42762867Y37943274D01*
X42773588Y37938834D01*
X42872518Y37888426D01*
X42990000Y37869819D01*
X43107482Y37888426D01*
X43213465Y37942427D01*
X43297573Y38026535D01*
X43351574Y38132518D01*
X43370181Y38250000D01*
X43351574Y38367482D01*
X43297573Y38473465D01*
X43213465Y38557573D01*
X43161484Y38584059D01*
X43107483Y38611574D01*
X42990000Y38630181D01*
X42872517Y38611574D01*
X42872513Y38611573D01*
X42773595Y38561171D01*
X42717133Y38556727D01*
X42706405Y38561171D01*
X42607486Y38611573D01*
X42607482Y38611574D01*
X42490000Y38630181D01*
X42372517Y38611574D01*
X42372513Y38611573D01*
X42273595Y38561171D01*
X42217133Y38556727D01*
X42206405Y38561171D01*
X42107486Y38611573D01*
X42107482Y38611574D01*
X41990000Y38630181D01*
X41872517Y38611574D01*
X41872516Y38611574D01*
X41766533Y38557572D01*
X41682428Y38473467D01*
X41628426Y38367484D01*
X41628426Y38367483D01*
X41609819Y38250000D01*
X0Y38250000D01*
X0Y38677170D01*
X45213219Y38677170D01*
X45231826Y38559688D01*
X45231826Y38559687D01*
X45246424Y38531038D01*
X45285827Y38453705D01*
X45369935Y38369597D01*
X45475918Y38315596D01*
X45593400Y38296989D01*
X45710882Y38315596D01*
X45816865Y38369597D01*
X45867674Y38420406D01*
X45920000Y38442080D01*
X45972326Y38420406D01*
X46023135Y38369597D01*
X46129118Y38315596D01*
X46246600Y38296989D01*
X46364082Y38315596D01*
X46470065Y38369597D01*
X46554173Y38453705D01*
X46608174Y38559688D01*
X46626781Y38677170D01*
X46615246Y38750000D01*
X50869819Y38750000D01*
X50888426Y38632518D01*
X50888426Y38632517D01*
X50897137Y38615421D01*
X50942427Y38526535D01*
X51026535Y38442427D01*
X51132518Y38388426D01*
X51250000Y38369819D01*
X51367482Y38388426D01*
X51440318Y38425539D01*
X51464390Y38427433D01*
X51473758Y38442721D01*
X51557573Y38526535D01*
X51611574Y38632518D01*
X51630181Y38750000D01*
X51611574Y38867482D01*
X51557573Y38973465D01*
X51473760Y39057278D01*
X51469548Y39067445D01*
X51440318Y39074463D01*
X51367486Y39111573D01*
X51367482Y39111574D01*
X51250000Y39130181D01*
X51132517Y39111574D01*
X51132516Y39111574D01*
X51026533Y39057572D01*
X50942428Y38973467D01*
X50888426Y38867484D01*
X50888426Y38867483D01*
X50869819Y38750000D01*
X46615246Y38750000D01*
X46608174Y38794652D01*
X46554173Y38900635D01*
X46470065Y38984743D01*
X46418084Y39011229D01*
X46364083Y39038744D01*
X46246600Y39057351D01*
X46129117Y39038744D01*
X46129116Y39038744D01*
X46023133Y38984742D01*
X45972326Y38933934D01*
X45920000Y38912260D01*
X45867674Y38933934D01*
X45816866Y38984742D01*
X45816865Y38984743D01*
X45764884Y39011229D01*
X45710883Y39038744D01*
X45593400Y39057351D01*
X45475917Y39038744D01*
X45475916Y39038744D01*
X45369933Y38984742D01*
X45285828Y38900637D01*
X45231826Y38794654D01*
X45231826Y38794653D01*
X45213219Y38677170D01*
X0Y38677170D01*
X0Y39250000D01*
X47119819Y39250000D01*
X47138426Y39132518D01*
X47138426Y39132517D01*
X47144896Y39119820D01*
X47192427Y39026535D01*
X47276535Y38942427D01*
X47382518Y38888426D01*
X47500000Y38869819D01*
X47617482Y38888426D01*
X47723465Y38942427D01*
X47807573Y39026535D01*
X47861574Y39132518D01*
X47880181Y39250000D01*
X48119819Y39250000D01*
X48138426Y39132518D01*
X48138426Y39132517D01*
X48144896Y39119820D01*
X48192427Y39026535D01*
X48276535Y38942427D01*
X48382518Y38888426D01*
X48500000Y38869819D01*
X48617482Y38888426D01*
X48723465Y38942427D01*
X48807573Y39026535D01*
X48861574Y39132518D01*
X48880181Y39250000D01*
X49119819Y39250000D01*
X49138426Y39132518D01*
X49138426Y39132517D01*
X49144896Y39119820D01*
X49192427Y39026535D01*
X49276535Y38942427D01*
X49382518Y38888426D01*
X49500000Y38869819D01*
X49617482Y38888426D01*
X49723465Y38942427D01*
X49807573Y39026535D01*
X49861574Y39132518D01*
X49880181Y39250000D01*
X49861574Y39367482D01*
X49807573Y39473465D01*
X49723465Y39557573D01*
X49671484Y39584059D01*
X49617483Y39611574D01*
X49500000Y39630181D01*
X49382517Y39611574D01*
X49309681Y39574462D01*
X49285607Y39572568D01*
X49276239Y39557278D01*
X49192428Y39473467D01*
X49138426Y39367484D01*
X49138426Y39367483D01*
X49119819Y39250000D01*
X48880181Y39250000D01*
X48861574Y39367482D01*
X48807573Y39473465D01*
X48723760Y39557278D01*
X48719548Y39567445D01*
X48690318Y39574463D01*
X48617486Y39611573D01*
X48617482Y39611574D01*
X48500000Y39630181D01*
X48382517Y39611574D01*
X48309681Y39574462D01*
X48285607Y39572568D01*
X48276239Y39557278D01*
X48192428Y39473467D01*
X48138426Y39367484D01*
X48138426Y39367483D01*
X48119819Y39250000D01*
X47880181Y39250000D01*
X47861574Y39367482D01*
X47807573Y39473465D01*
X47723760Y39557278D01*
X47719548Y39567445D01*
X47690318Y39574463D01*
X47617486Y39611573D01*
X47617482Y39611574D01*
X47500000Y39630181D01*
X47382517Y39611574D01*
X47309681Y39574462D01*
X47285607Y39572568D01*
X47276239Y39557278D01*
X47192428Y39473467D01*
X47138426Y39367484D01*
X47138426Y39367483D01*
X47119819Y39250000D01*
X0Y39250000D01*
X0Y40000000D01*
X46619819Y40000000D01*
X46638426Y39882518D01*
X46638426Y39882517D01*
X46649097Y39861574D01*
X46692427Y39776535D01*
X46776535Y39692427D01*
X46882518Y39638426D01*
X47000000Y39619819D01*
X47117482Y39638426D01*
X47190318Y39675539D01*
X47214390Y39677433D01*
X47223758Y39692721D01*
X47307573Y39776535D01*
X47361574Y39882518D01*
X47380181Y40000000D01*
X47619819Y40000000D01*
X47638426Y39882518D01*
X47638426Y39882517D01*
X47649097Y39861574D01*
X47676612Y39807573D01*
X47692428Y39776534D01*
X47776239Y39692723D01*
X47780450Y39682557D01*
X47809681Y39675539D01*
X47882518Y39638426D01*
X48000000Y39619819D01*
X48117482Y39638426D01*
X48190318Y39675539D01*
X48214390Y39677433D01*
X48223758Y39692721D01*
X48307573Y39776535D01*
X48361574Y39882518D01*
X48380181Y40000000D01*
X48619819Y40000000D01*
X48638426Y39882518D01*
X48638426Y39882517D01*
X48649097Y39861574D01*
X48676612Y39807573D01*
X48692428Y39776534D01*
X48776239Y39692723D01*
X48780450Y39682557D01*
X48809681Y39675539D01*
X48882518Y39638426D01*
X49000000Y39619819D01*
X49117482Y39638426D01*
X49190318Y39675539D01*
X49214390Y39677433D01*
X49223758Y39692721D01*
X49307573Y39776535D01*
X49361574Y39882518D01*
X49380181Y40000000D01*
X49361574Y40117482D01*
X49307573Y40223465D01*
X49223465Y40307573D01*
X49171484Y40334059D01*
X49117483Y40361574D01*
X49000000Y40380181D01*
X48882517Y40361574D01*
X48882516Y40361574D01*
X48776533Y40307572D01*
X48692428Y40223467D01*
X48638426Y40117484D01*
X48638426Y40117483D01*
X48619819Y40000000D01*
X48380181Y40000000D01*
X48361574Y40117482D01*
X48307573Y40223465D01*
X48223465Y40307573D01*
X48171484Y40334059D01*
X48117483Y40361574D01*
X48000000Y40380181D01*
X47882517Y40361574D01*
X47882516Y40361574D01*
X47776533Y40307572D01*
X47692428Y40223467D01*
X47638426Y40117484D01*
X47638426Y40117483D01*
X47619819Y40000000D01*
X47380181Y40000000D01*
X47361574Y40117482D01*
X47307573Y40223465D01*
X47223465Y40307573D01*
X47171484Y40334059D01*
X47117483Y40361574D01*
X47000000Y40380181D01*
X46882517Y40361574D01*
X46882516Y40361574D01*
X46776533Y40307572D01*
X46692428Y40223467D01*
X46638426Y40117484D01*
X46638426Y40117483D01*
X46619819Y40000000D01*
X0Y40000000D01*
X0Y43470000D01*
X28379819Y43470000D01*
X28398426Y43352518D01*
X28398426Y43352517D01*
X28425941Y43298516D01*
X28452427Y43246535D01*
X28536535Y43162427D01*
X28642518Y43108426D01*
X28760000Y43089819D01*
X28877482Y43108426D01*
X28983465Y43162427D01*
X29043864Y43222826D01*
X29096190Y43244500D01*
X29155943Y43244500D01*
X29208269Y43222826D01*
X29814609Y42616486D01*
X29814612Y42616482D01*
X29818830Y42612264D01*
X29882264Y42548830D01*
X29906539Y42538775D01*
X29965145Y42514499D01*
X29993811Y42514499D01*
X30046137Y42492825D01*
X30106535Y42432427D01*
X30212518Y42378426D01*
X30330000Y42359819D01*
X30447482Y42378426D01*
X30553465Y42432427D01*
X30637573Y42516535D01*
X30691574Y42622518D01*
X30710181Y42740000D01*
X30691574Y42857482D01*
X30637573Y42963465D01*
X30553465Y43047573D01*
X30470551Y43089820D01*
X30447483Y43101574D01*
X30330000Y43120181D01*
X30212517Y43101574D01*
X30212513Y43101573D01*
X30101346Y43044930D01*
X30100319Y43046945D01*
X30053232Y43035649D01*
X30012495Y43056410D01*
X29481578Y43587327D01*
X29481578Y43587328D01*
X29407738Y43661168D01*
X29407736Y43661170D01*
X29383460Y43671226D01*
X29383458Y43671227D01*
X29383458Y43671228D01*
X29324855Y43695501D01*
X29235145Y43695501D01*
X29226533Y43695501D01*
X29226525Y43695500D01*
X29096190Y43695500D01*
X29043864Y43717174D01*
X28983466Y43777572D01*
X28983465Y43777573D01*
X28901022Y43819580D01*
X28877483Y43831574D01*
X28760000Y43850181D01*
X28642517Y43831574D01*
X28642516Y43831574D01*
X28536533Y43777572D01*
X28452428Y43693467D01*
X28398426Y43587484D01*
X28398426Y43587483D01*
X28379819Y43470000D01*
X0Y43470000D01*
X0Y47025000D01*
X33569819Y47025000D01*
X33588426Y46907518D01*
X33588426Y46907517D01*
X33642428Y46801533D01*
X33645853Y46796819D01*
X33644364Y46795738D01*
X33663310Y46750000D01*
X33644364Y46704263D01*
X33645853Y46703181D01*
X33642428Y46698468D01*
X33588426Y46592484D01*
X33588426Y46592483D01*
X33569819Y46475000D01*
X33588426Y46357518D01*
X33588426Y46357517D01*
X33642428Y46251533D01*
X33645853Y46246819D01*
X33644364Y46245738D01*
X33663310Y46200000D01*
X33644364Y46154263D01*
X33645853Y46153181D01*
X33642428Y46148468D01*
X33588426Y46042484D01*
X33588426Y46042483D01*
X33569819Y45925000D01*
X33588426Y45807518D01*
X33588426Y45807517D01*
X33615941Y45753516D01*
X33642427Y45701535D01*
X33726535Y45617427D01*
X33832518Y45563426D01*
X33950000Y45544819D01*
X34067482Y45563426D01*
X34173465Y45617427D01*
X34173467Y45617429D01*
X34178181Y45620853D01*
X34179262Y45619365D01*
X34225000Y45638310D01*
X34270737Y45619365D01*
X34271819Y45620853D01*
X34276532Y45617429D01*
X34276534Y45617428D01*
X34276535Y45617427D01*
X34382518Y45563426D01*
X34500000Y45544819D01*
X34617482Y45563426D01*
X34723465Y45617427D01*
X34807573Y45701535D01*
X34861574Y45807518D01*
X34880181Y45925000D01*
X34861574Y46042482D01*
X34807573Y46148465D01*
X34807572Y46148466D01*
X34807571Y46148468D01*
X34804147Y46153181D01*
X34805635Y46154263D01*
X34786690Y46200000D01*
X34805635Y46245738D01*
X34804147Y46246819D01*
X34807571Y46251533D01*
X34807573Y46251535D01*
X34861574Y46357518D01*
X34880181Y46475000D01*
X34861574Y46592482D01*
X34807573Y46698465D01*
X34807572Y46698466D01*
X34807571Y46698468D01*
X34804147Y46703181D01*
X34805635Y46704263D01*
X34786690Y46750000D01*
X34805635Y46795738D01*
X34804147Y46796819D01*
X34807571Y46801533D01*
X34807573Y46801535D01*
X34861574Y46907518D01*
X34880181Y47025000D01*
X34861574Y47142482D01*
X34807573Y47248465D01*
X34723465Y47332573D01*
X34662964Y47363400D01*
X34617483Y47386574D01*
X34500000Y47405181D01*
X34382517Y47386574D01*
X34382516Y47386574D01*
X34276532Y47332572D01*
X34271819Y47329147D01*
X34270737Y47330636D01*
X34225000Y47311690D01*
X34179262Y47330636D01*
X34178181Y47329147D01*
X34173467Y47332572D01*
X34067483Y47386574D01*
X33950000Y47405181D01*
X33832517Y47386574D01*
X33832516Y47386574D01*
X33726533Y47332572D01*
X33642428Y47248467D01*
X33588426Y47142484D01*
X33588426Y47142483D01*
X33569819Y47025000D01*
X0Y47025000D01*
X0Y48016600D01*
X53161602Y48016600D01*
X53180209Y47899118D01*
X53180209Y47899117D01*
X53234211Y47793134D01*
X53285019Y47742326D01*
X53306693Y47690000D01*
X53285019Y47637674D01*
X53234211Y47586867D01*
X53180209Y47480884D01*
X53180209Y47480883D01*
X53161602Y47363400D01*
X53180209Y47245918D01*
X53180209Y47245917D01*
X53207724Y47191916D01*
X53234210Y47139935D01*
X53318318Y47055827D01*
X53424301Y47001826D01*
X53541783Y46983219D01*
X53659265Y47001826D01*
X53765248Y47055827D01*
X53849356Y47139935D01*
X53903357Y47245918D01*
X53921964Y47363400D01*
X53903357Y47480882D01*
X53849356Y47586865D01*
X53798547Y47637674D01*
X53776873Y47690000D01*
X53798547Y47742326D01*
X53849356Y47793135D01*
X53903357Y47899118D01*
X53921964Y48016600D01*
X53903357Y48134082D01*
X53849356Y48240065D01*
X53765248Y48324173D01*
X53713267Y48350659D01*
X53659266Y48378174D01*
X53541783Y48396781D01*
X53424300Y48378174D01*
X53424299Y48378174D01*
X53318316Y48324172D01*
X53234211Y48240067D01*
X53180209Y48134084D01*
X53180209Y48134083D01*
X53161602Y48016600D01*
X0Y48016600D01*
X0Y50159207D01*
X55244559Y50159207D01*
X55244559Y50001084D01*
X55285481Y49848359D01*
X55285483Y49848356D01*
X55364542Y49711421D01*
X55476348Y49599615D01*
X55613283Y49520556D01*
X55613285Y49520555D01*
X55720637Y49491791D01*
X55766010Y49479633D01*
X55766011Y49479632D01*
X55766013Y49479632D01*
X55924133Y49479632D01*
X55924133Y49479633D01*
X56031485Y49508398D01*
X56076858Y49520555D01*
X56076858Y49520556D01*
X56076861Y49520556D01*
X56213796Y49599615D01*
X56325602Y49711421D01*
X56404661Y49848356D01*
X56445584Y50001084D01*
X56445585Y50001084D01*
X56445585Y50159206D01*
X56445584Y50159207D01*
X56404662Y50311932D01*
X56325601Y50448870D01*
X56213796Y50560675D01*
X56076858Y50639736D01*
X55924133Y50680658D01*
X55924131Y50680658D01*
X55766013Y50680658D01*
X55766011Y50680658D01*
X55613285Y50639736D01*
X55476347Y50560675D01*
X55364542Y50448870D01*
X55285481Y50311932D01*
X55244559Y50159207D01*
X0Y50159207D01*
X0Y51240000D01*
X49429819Y51240000D01*
X49448426Y51122518D01*
X49448426Y51122517D01*
X49475941Y51068516D01*
X49502427Y51016535D01*
X49586535Y50932427D01*
X49692518Y50878426D01*
X49810000Y50859819D01*
X49927482Y50878426D01*
X50033465Y50932427D01*
X50117573Y51016535D01*
X50171574Y51122518D01*
X50190181Y51240000D01*
X50171574Y51357482D01*
X50117573Y51463465D01*
X50057174Y51523864D01*
X50035500Y51576190D01*
X50035500Y52105943D01*
X50057174Y52158269D01*
X50611731Y52712826D01*
X50664057Y52734500D01*
X53453810Y52734500D01*
X53506136Y52712826D01*
X53566535Y52652427D01*
X53672518Y52598426D01*
X53790000Y52579819D01*
X53907482Y52598426D01*
X54013465Y52652427D01*
X54097573Y52736535D01*
X54151574Y52842518D01*
X54170181Y52960000D01*
X54151574Y53077482D01*
X54097573Y53183465D01*
X54013465Y53267573D01*
X53961484Y53294059D01*
X53907483Y53321574D01*
X53790000Y53340181D01*
X53672517Y53321574D01*
X53672516Y53321574D01*
X53566533Y53267572D01*
X53506136Y53207174D01*
X53453810Y53185500D01*
X50593475Y53185500D01*
X50593467Y53185501D01*
X50584855Y53185501D01*
X50495145Y53185501D01*
X50436539Y53161226D01*
X50436537Y53161225D01*
X50436536Y53161226D01*
X50412263Y53151170D01*
X49618831Y52357737D01*
X49618830Y52357735D01*
X49584499Y52274856D01*
X49584499Y52176534D01*
X49584500Y52176525D01*
X49584500Y51576190D01*
X49562826Y51523864D01*
X49502428Y51463467D01*
X49448426Y51357484D01*
X49448426Y51357483D01*
X49429819Y51240000D01*
X0Y51240000D01*
X0Y57499412D01*
X5Y57500005D01*
X1097469Y57500005D01*
X1097469Y57500000D01*
X1117642Y57262975D01*
X1117642Y57262972D01*
X1117643Y57262971D01*
X1177585Y57032761D01*
X1275571Y56815993D01*
X1408781Y56618902D01*
X1408785Y56618898D01*
X1573380Y56447161D01*
X1573383Y56447159D01*
X1764643Y56305704D01*
X1872588Y56251280D01*
X1977056Y56198607D01*
X2204509Y56128950D01*
X2204516Y56128948D01*
X2440475Y56098733D01*
X2678146Y56108829D01*
X2910693Y56158947D01*
X3131425Y56247644D01*
X3333991Y56372369D01*
X3512566Y56529534D01*
X3662010Y56714618D01*
X3778026Y56922296D01*
X3857275Y57146593D01*
X3897478Y57381057D01*
X3900000Y57500000D01*
X3897478Y57618943D01*
X3857275Y57853407D01*
X3778026Y58077704D01*
X3718642Y58184007D01*
X3662012Y58285379D01*
X3662009Y58285383D01*
X3512565Y58470467D01*
X3333992Y58627631D01*
X3225715Y58694299D01*
X3131425Y58752356D01*
X3009389Y58801394D01*
X2910694Y58841053D01*
X2910691Y58841054D01*
X2742031Y58877403D01*
X2678146Y58891171D01*
X2678144Y58891172D01*
X2678138Y58891172D01*
X2440479Y58901268D01*
X2245858Y58876346D01*
X2204516Y58871052D01*
X2204515Y58871052D01*
X2204509Y58871051D01*
X1977056Y58801394D01*
X1764648Y58694299D01*
X1764646Y58694298D01*
X1573380Y58552840D01*
X1408785Y58381103D01*
X1408783Y58381101D01*
X1408781Y58381098D01*
X1332881Y58268800D01*
X1275572Y58184009D01*
X1177585Y57967241D01*
X1177584Y57967236D01*
X1117642Y57737026D01*
X1097469Y57500005D01*
X5Y57500005D01*
X9Y57500574D01*
X2403Y57653056D01*
X2977Y57661168D01*
X41271Y57964302D01*
X43013Y57973431D01*
X118855Y58268816D01*
X121716Y58277622D01*
X233983Y58561175D01*
X237930Y58569567D01*
X384857Y58836825D01*
X389826Y58844654D01*
X569084Y59091379D01*
X574988Y59098518D01*
X783759Y59320837D01*
X790521Y59327186D01*
X1025511Y59521587D01*
X1033000Y59527028D01*
X1290503Y59690444D01*
X1298623Y59694908D01*
X1574580Y59824764D01*
X1583194Y59828174D01*
X1873243Y59922417D01*
X1882224Y59924723D01*
X2181795Y59981869D01*
X2190987Y59983031D01*
X2458402Y59999855D01*
X2463048Y60000000D01*
X2536952Y60000000D01*
X2541597Y59999855D01*
G37*
%TD.AperFunction*%
%TD*%
M02*
