M48
; DRILL file {KiCad 8.0.8} date 2025-05-20T22:02:41+0200
; FORMAT={-:-/ absolute / inch / decimal}
; #@! TF.CreationDate,2025-05-20T22:02:41+02:00
; #@! TF.GenerationSoftware,Kicad,Pcbnew,8.0.8
; #@! TF.FileFunction,Plated,1,4,PTH
FMAT,2
INCH
; #@! TA.AperFunction,Plated,PTH,ViaDrill
T1C0.0079
; #@! TA.AperFunction,Plated,PTH,ComponentDrill
T2C0.0236
%
G90
G05
T1
X0.0197Y2.2638
X0.0197Y2.2244
X0.0197Y2.185
X0.0197Y2.1063
X0.0197Y2.0669
X0.0197Y2.0276
X0.0197Y1.9882
X0.0197Y1.9488
X0.0197Y1.9094
X0.0197Y1.8701
X0.0197Y1.8307
X0.0197Y1.7913
X0.0197Y1.752
X0.0197Y1.7126
X0.0197Y1.6732
X0.0197Y1.6339
X0.0197Y1.5945
X0.0197Y1.5551
X0.0197Y1.5157
X0.0197Y1.4764
X0.0197Y1.437
X0.0197Y1.3976
X0.0197Y1.3583
X0.0197Y1.3189
X0.0197Y1.2795
X0.0197Y1.2402
X0.0197Y1.2008
X0.0197Y1.1614
X0.0197Y1.122
X0.0197Y1.0827
X0.0197Y1.0433
X0.0197Y1.0039
X0.0197Y0.9646
X0.0197Y0.9252
X0.0197Y0.8858
X0.0197Y0.8465
X0.0197Y0.8071
X0.0197Y0.7677
X0.0197Y0.7283
X0.0197Y0.689
X0.0197Y0.6496
X0.0197Y0.6102
X0.0197Y0.5709
X0.0197Y0.5315
X0.0197Y0.4921
X0.0197Y0.4528
X0.0197Y0.4134
X0.0197Y0.374
X0.0197Y0.3346
X0.0197Y0.2953
X0.0197Y0.2559
X0.0197Y0.1772
X0.0197Y0.1378
X0.0197Y0.0984
X0.0302Y2.3031
X0.0302Y0.0591
X0.0591Y2.332
X0.0591Y2.185
X0.0591Y1.7126
X0.0591Y1.6339
X0.0591Y1.2402
X0.0591Y1.1614
X0.0591Y0.7677
X0.0591Y0.689
X0.0591Y0.1772
X0.0591Y0.0302
X0.0984Y2.3425
X0.0984Y2.185
X0.0984Y2.0669
X0.0984Y1.6732
X0.0984Y1.5945
X0.0984Y1.2008
X0.0984Y1.122
X0.0984Y0.7283
X0.0984Y0.6496
X0.0984Y0.2559
X0.0984Y0.1772
X0.0984Y0.0197
X0.1378Y2.332
X0.1378Y2.185
X0.1378Y2.1063
X0.1378Y1.7126
X0.1378Y1.6339
X0.1378Y1.2402
X0.1378Y1.1614
X0.1378Y0.7677
X0.1378Y0.689
X0.1378Y0.2953
X0.1378Y0.1772
X0.1378Y0.0302
X0.1666Y2.3031
X0.1666Y0.0591
X0.1772Y2.2638
X0.1772Y2.2244
X0.1772Y2.185
X0.1772Y2.0669
X0.1772Y1.9882
X0.1772Y1.9094
X0.1772Y1.8307
X0.1772Y1.752
X0.1772Y1.6732
X0.1772Y1.5945
X0.1772Y1.5157
X0.1772Y1.437
X0.1772Y1.3583
X0.1772Y1.2795
X0.1772Y1.2008
X0.1772Y1.122
X0.1772Y1.0433
X0.1772Y0.9646
X0.1772Y0.8858
X0.1772Y0.8071
X0.1772Y0.7283
X0.1772Y0.6496
X0.1772Y0.5709
X0.1772Y0.4921
X0.1772Y0.4134
X0.1772Y0.3346
X0.1772Y0.2559
X0.1772Y0.1772
X0.1772Y0.1378
X0.1772Y0.0984
X0.2161Y2.1063
X0.2165Y2.185
X0.2165Y2.0276
X0.2165Y1.9488
X0.2165Y1.8701
X0.2165Y1.7913
X0.2165Y1.7126
X0.2165Y1.6339
X0.2165Y1.5551
X0.2165Y1.4764
X0.2165Y1.3976
X0.2165Y1.3189
X0.2165Y1.2402
X0.2165Y1.1614
X0.2165Y1.0827
X0.2165Y1.0039
X0.2165Y0.9252
X0.2165Y0.8465
X0.2165Y0.7677
X0.2165Y0.689
X0.2165Y0.6102
X0.2165Y0.5315
X0.2165Y0.4528
X0.2165Y0.374
X0.2165Y0.2953
X0.2165Y0.1772
X0.2559Y2.185
X0.2559Y2.0669
X0.2559Y1.9882
X0.2559Y1.9094
X0.2559Y1.8307
X0.2559Y1.752
X0.2559Y1.6732
X0.2559Y1.5945
X0.2559Y1.5157
X0.2559Y1.437
X0.2559Y1.3583
X0.2559Y1.2795
X0.2559Y1.2008
X0.2559Y1.122
X0.2559Y1.0433
X0.2559Y0.9646
X0.2559Y0.8858
X0.2559Y0.8071
X0.2559Y0.7283
X0.2559Y0.6496
X0.2559Y0.5709
X0.2559Y0.4921
X0.2559Y0.4134
X0.2559Y0.3346
X0.2559Y0.2559
X0.2559Y0.1772
X0.2945Y2.1051
X0.2953Y2.185
X0.2953Y2.0276
X0.2953Y1.9488
X0.2953Y1.8701
X0.2953Y1.7913
X0.2953Y1.7126
X0.2953Y1.6339
X0.2953Y1.5551
X0.2953Y1.4764
X0.2953Y1.3976
X0.2953Y1.3189
X0.2953Y1.2402
X0.2953Y1.1614
X0.2953Y1.0827
X0.2953Y1.0039
X0.2953Y0.9252
X0.2953Y0.8465
X0.2953Y0.7677
X0.2953Y0.689
X0.2953Y0.6102
X0.2953Y0.5315
X0.2953Y0.4528
X0.2953Y0.374
X0.2953Y0.2953
X0.2953Y0.1772
X0.3346Y2.185
X0.3346Y2.0669
X0.3346Y1.9882
X0.3346Y1.9094
X0.3346Y1.8307
X0.3346Y1.752
X0.3346Y1.6732
X0.3346Y1.5945
X0.3346Y1.5157
X0.3346Y1.437
X0.3346Y1.3583
X0.3346Y1.2795
X0.3346Y1.2008
X0.3346Y1.122
X0.3346Y1.0433
X0.3346Y0.9646
X0.3346Y0.8858
X0.3346Y0.8071
X0.3346Y0.7283
X0.3346Y0.6496
X0.3346Y0.5709
X0.3346Y0.4921
X0.3346Y0.4134
X0.3346Y0.3346
X0.3346Y0.2559
X0.3346Y0.1772
X0.3689Y0.4976
X0.374Y2.185
X0.374Y0.1772
X0.3815Y1.1827
X0.3882Y0.5138
X0.3882Y1.6547
X0.4098Y0.498
X0.4134Y2.185
X0.4134Y0.1772
X0.4331Y0.9461
X0.4335Y0.335
X0.4335Y0.2579
X0.4358Y1.4197
X0.4374Y1.1823
X0.4382Y2.0146
X0.4386Y2.1059
X0.4398Y1.6555
X0.4528Y2.185
X0.4528Y0.1772
X0.463Y0.4984
X0.4638Y1.8898
X0.4756Y0.4535
X0.4815Y0.9476
X0.4854Y1.4204
X0.4861Y1.1808
X0.4909Y1.6555
X0.4921Y2.185
X0.4921Y0.1772
X0.5114Y0.4724
X0.5114Y0.4331
X0.5272Y0.5299
X0.5287Y0.4524
X0.5307Y0.9484
X0.5315Y2.185
X0.5315Y0.1772
X0.5352Y1.1794
X0.5358Y1.4205
X0.5382Y2.1063
X0.5382Y0.5512
X0.5386Y2.0146
X0.5386Y0.3346
X0.5386Y0.2587
X0.5416Y1.6556
X0.5673Y1.8898
X0.5709Y2.185
X0.5709Y0.4921
X0.5709Y0.1772
X0.5811Y0.9488
X0.5848Y1.1786
X0.5856Y1.421
X0.5915Y1.6554
X0.5996Y0.4528
X0.6102Y2.185
X0.6102Y0.1772
X0.6161Y0.5906
X0.6232Y0.4933
X0.6268Y0.6126
X0.6308Y0.9493
X0.6346Y1.1784
X0.6348Y1.4218
X0.6378Y2.1059
X0.6378Y2.0146
X0.6378Y0.3358
X0.6382Y0.2575
X0.6394Y0.6354
X0.6413Y1.6548
X0.6496Y2.185
X0.6496Y0.1772
X0.6654Y1.8894
X0.6693Y0.4921
X0.6693Y0.4528
X0.6819Y0.9496
X0.6852Y1.4218
X0.6854Y1.1783
X0.687Y0.6969
X0.689Y2.185
X0.689Y0.1772
X0.6917Y1.6547
X0.7047Y0.6811
X0.7205Y0.4941
X0.7283Y2.185
X0.7283Y0.4528
X0.7283Y0.1772
X0.7319Y0.95
X0.7354Y1.4217
X0.7362Y0.2567
X0.7366Y0.3354
X0.7374Y1.1787
X0.7382Y2.1047
X0.7382Y2.0146
X0.7382Y0.5138
X0.7382Y0.413
X0.7425Y1.6547
X0.7559Y0.4941
X0.7642Y1.8898
X0.7677Y2.185
X0.7677Y0.1772
X0.7854Y1.422
X0.7874Y0.4528
X0.7937Y1.6547
X0.8071Y2.185
X0.8071Y1.1811
X0.8071Y0.7087
X0.8071Y0.4921
X0.8071Y0.1772
X0.8091Y0.9492
X0.8366Y0.4134
X0.8366Y0.3358
X0.8366Y0.2559
X0.837Y1.0984
X0.837Y1.0484
X0.8374Y0.8614
X0.8378Y0.7717
X0.8386Y1.5425
X0.8386Y0.6504
X0.8386Y0.611
X0.839Y2.1059
X0.839Y2.0146
X0.8394Y0.5713
X0.8465Y2.185
X0.8465Y0.4516
X0.8465Y0.1772
X0.8661Y0.7087
X0.8685Y0.4917
X0.8815Y0.9476
X0.8835Y1.8898
X0.8858Y2.185
X0.8858Y0.1772
X0.8874Y1.422
X0.8933Y1.1921
X0.8965Y1.6626
X0.9044Y0.928
X0.911Y0.4909
X0.9252Y2.185
X0.9252Y0.7087
X0.9252Y0.1772
X0.937Y1.2945
X0.937Y1.0984
X0.937Y1.0484
X0.9378Y0.9063
X0.9386Y1.5425
X0.939Y2.1063
X0.9394Y2.0142
X0.9394Y1.7646
X0.9394Y0.6102
X0.9394Y0.4122
X0.9394Y0.3362
X0.9394Y0.3126
X0.9394Y0.2886
X0.9398Y0.6504
X0.9398Y0.5705
X0.9402Y0.772
X0.9409Y0.8614
X0.9602Y0.4957
X0.9614Y0.924
X0.9646Y2.185
X0.9646Y0.1772
X0.9843Y0.7087
X0.9917Y1.9063
X0.998Y1.4224
X1.0039Y2.185
X1.0039Y0.1772
X1.0071Y0.4953
X1.0339Y1.2937
X1.0358Y1.765
X1.0358Y0.4122
X1.0358Y0.3362
X1.0358Y0.2571
X1.037Y1.0984
X1.037Y1.0484
X1.0374Y0.5701
X1.0378Y0.7752
X1.0382Y0.8614
X1.0386Y1.5425
X1.0386Y0.6496
X1.039Y2.1047
X1.039Y0.6114
X1.0394Y2.0142
X1.0433Y2.185
X1.0433Y0.7087
X1.0433Y0.1772
X1.0827Y2.185
X1.0827Y0.1772
X1.1161Y0.9039
X1.122Y2.185
X1.122Y0.1772
X1.1315Y1.6831
X1.1323Y1.7114
X1.1343Y0.3331
X1.1358Y0.4126
X1.137Y1.0984
X1.1417Y1.3386
X1.1417Y1.2205
X1.1425Y0.7858
X1.1449Y0.9047
X1.1449Y0.8453
X1.1554Y1.0348
X1.1555Y1.0098
X1.1614Y2.185
X1.1614Y2.1063
X1.1614Y2.0276
X1.1614Y1.9488
X1.1614Y0.2559
X1.1614Y0.1772
X1.1752Y1.2795
X1.1756Y1.3039
X1.1866Y0.876
X1.187Y1.2484
X1.187Y1.0984
X1.1909Y0.6496
X1.1909Y0.6102
X1.1909Y0.5709
X1.1909Y0.5315
X1.1909Y0.4921
X1.1909Y0.4528
X1.1909Y0.4134
X1.1909Y0.374
X1.1909Y0.3346
X1.1941Y1.7114
X1.1941Y1.6827
X1.2008Y2.185
X1.2008Y2.0669
X1.2008Y1.9882
X1.2008Y1.9094
X1.2008Y0.1772
X1.2106Y0.6693
X1.2106Y0.6299
X1.2106Y0.5906
X1.2106Y0.5512
X1.2106Y0.5138
X1.2106Y0.4705
X1.2106Y0.4331
X1.2106Y0.3917
X1.2106Y0.3543
X1.2303Y0.8268
X1.2303Y0.689
X1.2303Y0.6496
X1.2303Y0.6102
X1.2303Y0.5709
X1.2303Y0.5315
X1.2303Y0.4921
X1.2303Y0.4528
X1.2303Y0.4134
X1.2303Y0.374
X1.2303Y0.3346
X1.2346Y0.9031
X1.2402Y2.185
X1.2402Y2.1063
X1.2402Y2.0276
X1.2402Y1.9488
X1.2402Y1.8701
X1.2402Y1.7913
X1.2402Y1.7126
X1.2402Y1.6339
X1.2402Y1.5551
X1.2402Y0.2559
X1.2402Y0.1772
X1.2413Y1.0268
X1.2693Y1.3039
X1.2746Y0.8671
X1.2795Y2.185
X1.2795Y2.0669
X1.2795Y1.9882
X1.2795Y1.8307
X1.2795Y1.752
X1.2795Y1.6732
X1.2795Y1.5945
X1.2795Y1.5157
X1.2795Y0.1772
X1.2894Y1.0043
X1.2909Y1.2598
X1.2992Y0.7972
X1.3087Y0.5197
X1.3091Y0.7283
X1.3098Y0.7761
X1.3099Y0.8183
X1.3122Y0.4882
X1.3189Y2.185
X1.3189Y2.1063
X1.3189Y2.0276
X1.3189Y1.9488
X1.3189Y0.1772
X1.3297Y0.438
X1.3339Y0.7917
X1.3346Y1.3043
X1.3346Y1.0484
X1.3366Y1.8514
X1.3366Y1.8297
X1.3366Y1.8081
X1.338Y0.5354
X1.3544Y1.0484
X1.3545Y1.3044
X1.3566Y0.7917
X1.3566Y0.535
X1.3583Y2.185
X1.3583Y2.0669
X1.3583Y1.9882
X1.3583Y1.8514
X1.3583Y1.8297
X1.3583Y1.8081
X1.3583Y0.1772
X1.3864Y1.3386
X1.3872Y1.4961
X1.3872Y1.2402
X1.3877Y1.0419
X1.3878Y0.5201
X1.3882Y1.2992
X1.3886Y0.9843
X1.3886Y0.7283
X1.3887Y0.791
X1.3976Y2.185
X1.3976Y2.1063
X1.3976Y2.0276
X1.3976Y1.9488
X1.3976Y1.8307
X1.3976Y1.752
X1.3976Y1.7126
X1.3976Y1.6339
X1.3976Y0.1772
X1.4039Y0.8091
X1.4055Y0.4764
X1.4067Y0.5343
X1.4067Y1.056
X1.4075Y0.5071
X1.4077Y1.3126
X1.4264Y1.0429
X1.4264Y0.7909
X1.4264Y0.5213
X1.4272Y1.2992
X1.437Y2.185
X1.437Y2.0669
X1.437Y1.6732
X1.437Y0.1772
X1.4455Y1.4862
X1.4455Y1.2598
X1.4455Y1.2303
X1.4469Y1.0039
X1.4469Y0.9744
X1.4469Y0.748
X1.4469Y0.7185
X1.4528Y1.7559
X1.4584Y0.5291
X1.4689Y1.2457
X1.4689Y0.7339
X1.4717Y0.9906
X1.4724Y1.7559
X1.4764Y2.185
X1.4764Y1.7126
X1.4764Y1.6339
X1.4764Y1.5551
X1.4764Y0.1772
X1.4776Y0.5291
X1.4921Y1.7559
X1.4957Y1.2406
X1.4969Y1.2652
X1.5031Y1.1319
X1.5047Y1.0197
X1.5118Y1.7559
X1.5157Y2.185
X1.5157Y0.748
X1.5157Y0.1772
X1.5268Y1.0673
X1.5315Y1.7559
X1.5354Y0.8268
X1.5354Y0.7677
X1.5465Y0.6087
X1.5469Y0.6488
X1.5471Y0.5728
X1.5551Y2.185
X1.5551Y0.8465
X1.5551Y0.1772
X1.5589Y1.0673
X1.5621Y0.6264
X1.5622Y0.591
X1.5628Y0.5552
X1.5646Y1.1299
X1.5748Y0.8661
X1.5756Y1.5795
X1.5765Y0.648
X1.5772Y1.3972
X1.5778Y0.6088
X1.5782Y0.5732
X1.5945Y2.185
X1.5945Y0.374
X1.5945Y0.1772
X1.6026Y0.9433
X1.6039Y0.8663
X1.6039Y1.2992
X1.6043Y0.689
X1.6157Y1.0315
X1.6236Y1.2756
X1.6236Y1.2331
X1.6236Y1.1693
X1.6236Y1.1299
X1.6242Y1.0945
X1.6242Y0.9708
X1.6339Y2.185
X1.6339Y0.7283
X1.6339Y0.6496
X1.6339Y0.5709
X1.6339Y0.4134
X1.6339Y0.3346
X1.6339Y0.1772
X1.6479Y0.8893
X1.6531Y1.5059
X1.6531Y1.4567
X1.6728Y1.5059
X1.6728Y1.4567
X1.6732Y2.185
X1.6732Y1.6732
X1.6732Y0.6102
X1.6732Y0.374
X1.6732Y0.1772
X1.6917Y0.748
X1.6925Y1.5059
X1.6925Y1.4567
X1.7126Y2.185
X1.7126Y1.7126
X1.7126Y1.6339
X1.7126Y0.6496
X1.7126Y0.5709
X1.7126Y0.3346
X1.7126Y0.2559
X1.7126Y0.1772
X1.7264Y0.7996
X1.7272Y0.4264
X1.7319Y1.1713
X1.7319Y1.122
X1.7319Y1.0728
X1.7413Y0.4465
X1.752Y2.185
X1.752Y1.6732
X1.752Y0.6102
X1.752Y0.2953
X1.752Y0.1772
X1.7543Y1.4311
X1.7614Y0.9685
X1.7665Y0.4524
X1.7714Y1.5224
X1.7811Y1.1713
X1.7811Y1.122
X1.7811Y1.0728
X1.7846Y0.6669
X1.7913Y2.185
X1.7913Y0.6496
X1.7913Y0.5709
X1.7913Y0.3346
X1.7913Y0.2559
X1.7913Y0.1772
X1.795Y1.5227
X1.7957Y0.8031
X1.8047Y1.2795
X1.8067Y0.8972
X1.8071Y0.9827
X1.8207Y1.5227
X1.8303Y1.1713
X1.8303Y1.122
X1.8303Y1.0728
X1.8307Y2.185
X1.8307Y0.6102
X1.8307Y0.2953
X1.8307Y0.1772
X1.8453Y1.5228
X1.8469Y0.6665
X1.848Y1.3957
X1.848Y1.372
X1.848Y1.2795
X1.848Y1.2559
X1.8484Y0.8992
X1.8504Y1.5748
X1.851Y0.8757
X1.851Y0.8381
X1.8512Y0.7075
X1.8689Y0.7937
X1.8701Y2.185
X1.8701Y1.5453
X1.8701Y0.5709
X1.8701Y0.4724
X1.8701Y0.3346
X1.8701Y0.1772
X1.8795Y2.052
X1.8866Y0.778
X1.8898Y1.5748
X1.8913Y1.2776
X1.8996Y1.0433
X1.9028Y2.0287
X1.9035Y0.7944
X1.9065Y1.2146
X1.9067Y1.1728
X1.9094Y2.185
X1.9094Y1.5453
X1.9094Y0.6102
X1.9094Y0.374
X1.9094Y0.1772
X1.9193Y1.063
X1.922Y0.7794
X1.9291Y1.5748
X1.939Y1.0827
X1.9397Y0.8196
X1.9398Y0.7951
X1.94Y0.8443
X1.9425Y1.3957
X1.9425Y1.372
X1.9469Y1.1299
X1.9488Y2.185
X1.9488Y1.5453
X1.9488Y0.5315
X1.9488Y0.4724
X1.9488Y0.3346
X1.9488Y0.2559
X1.9488Y0.1772
X1.9543Y1.3194
X1.961Y2.0173
X1.9705Y0.9606
X1.9754Y1.3396
X1.9813Y1.2923
X1.9882Y2.185
X1.9882Y1.4882
X1.9882Y0.374
X1.9882Y0.2953
X1.9882Y0.1772
X1.9886Y1.5528
X1.989Y1.5957
X1.9963Y1.1457
X1.9968Y1.098
X1.999Y0.9301
X2.0008Y2.0465
X2.0059Y1.2638
X2.0177Y1.5256
X2.0177Y1.4665
X2.0177Y1.3976
X2.0177Y0.9774
X2.0217Y1.1299
X2.0222Y0.8745
X2.0236Y0.5591
X2.0276Y2.185
X2.0276Y0.3346
X2.0276Y0.2559
X2.0276Y0.1772
X2.0366Y0.9589
X2.0374Y1.5551
X2.0374Y1.4961
X2.0374Y1.437
X2.0374Y1.3484
X2.0384Y0.8917
X2.0453Y1.11
X2.0474Y1.2456
X2.0529Y0.8731
X2.0561Y0.94
X2.0571Y1.311
X2.063Y1.2264
X2.0631Y1.2633
X2.0669Y2.185
X2.0669Y0.2953
X2.0669Y0.1772
X2.0699Y1.0886
X2.0699Y0.5108
X2.0726Y1.0273
X2.0768Y1.4587
X2.0787Y1.2441
X2.0787Y0.622
X2.0893Y1.0106
X2.0921Y1.124
X2.0965Y1.5551
X2.1036Y1.8415
X2.1039Y1.9138
X2.1063Y2.185
X2.1063Y1.7
X2.1063Y1.6732
X2.1063Y1.6142
X2.1063Y0.3346
X2.1063Y0.2559
X2.1063Y0.1772
X2.1067Y1.7272
X2.1071Y0.9951
X2.1079Y1.8904
X2.1079Y1.8647
X2.1083Y2.0114
X2.1083Y1.9846
X2.1087Y2.0386
X2.1161Y1.5551
X2.1177Y2.085
X2.1219Y1.3936
X2.1358Y1.5551
X2.1378Y1.4567
X2.1404Y1.4084
X2.1457Y2.185
X2.1457Y1.1614
X2.1457Y0.9843
X2.1457Y0.9547
X2.1457Y0.9252
X2.1457Y0.8677
X2.1457Y0.8075
X2.1457Y0.7677
X2.1457Y0.689
X2.1457Y0.2953
X2.1457Y0.1772
X2.1461Y0.8366
X2.1555Y1.5551
X2.1575Y1.5157
X2.1591Y1.4228
X2.185Y2.2638
X2.185Y2.2244
X2.185Y2.185
X2.185Y0.2559
X2.185Y0.1772
X2.185Y0.1378
X2.185Y0.0984
X2.1956Y2.3031
X2.1956Y0.0591
X2.2126Y1.9055
X2.2126Y1.8543
X2.2244Y2.332
X2.2244Y2.185
X2.2244Y0.2953
X2.2244Y0.1772
X2.2244Y0.0302
X2.2441Y2.0276
X2.2441Y1.9488
X2.2441Y1.8819
X2.2441Y1.8268
X2.2638Y2.3425
X2.2638Y2.185
X2.2638Y1.5945
X2.2638Y1.5157
X2.2638Y1.4409
X2.2638Y1.3583
X2.2638Y1.2795
X2.2638Y1.2008
X2.2638Y1.122
X2.2638Y1.0433
X2.2638Y0.9646
X2.2638Y0.8858
X2.2638Y0.8071
X2.2638Y0.7283
X2.2638Y0.6496
X2.2638Y0.5709
X2.2638Y0.4921
X2.2638Y0.4134
X2.2638Y0.3346
X2.2638Y0.2559
X2.2638Y0.1772
X2.2638Y0.0197
X2.2803Y2.1055
X2.2835Y1.9882
X2.2835Y1.9094
X2.3031Y2.332
X2.3031Y2.185
X2.3031Y1.6339
X2.3031Y1.5551
X2.3031Y1.4764
X2.3031Y1.3976
X2.3031Y1.3189
X2.3031Y1.2402
X2.3031Y1.1614
X2.3031Y1.0827
X2.3031Y1.0039
X2.3031Y0.9252
X2.3031Y0.8465
X2.3031Y0.7677
X2.3031Y0.689
X2.3031Y0.6102
X2.3031Y0.5315
X2.3031Y0.4528
X2.3031Y0.374
X2.3031Y0.2953
X2.3031Y0.1772
X2.3031Y0.0302
X2.3035Y2.0795
X2.332Y2.3031
X2.332Y0.0591
X2.3425Y2.2638
X2.3425Y2.2244
X2.3425Y2.185
X2.3425Y2.1063
X2.3425Y2.0669
X2.3425Y1.9882
X2.3425Y1.9488
X2.3425Y1.9094
X2.3425Y1.8701
X2.3425Y1.8307
X2.3425Y1.7913
X2.3425Y1.752
X2.3425Y1.6339
X2.3425Y1.5945
X2.3425Y1.5551
X2.3425Y1.5157
X2.3425Y1.4764
X2.3425Y1.437
X2.3425Y1.3976
X2.3425Y1.3583
X2.3425Y1.3189
X2.3425Y1.2795
X2.3425Y1.2402
X2.3425Y1.2008
X2.3425Y1.1614
X2.3425Y1.122
X2.3425Y1.0827
X2.3425Y1.0433
X2.3425Y1.0039
X2.3425Y0.9646
X2.3425Y0.9252
X2.3425Y0.8858
X2.3425Y0.8465
X2.3425Y0.8071
X2.3425Y0.7677
X2.3425Y0.7283
X2.3425Y0.689
X2.3425Y0.6496
X2.3425Y0.6102
X2.3425Y0.5709
X2.3425Y0.5315
X2.3425Y0.4921
X2.3425Y0.4528
X2.3425Y0.4134
X2.3425Y0.374
X2.3425Y0.3346
X2.3425Y0.2953
X2.3425Y0.1772
X2.3425Y0.1378
X2.3425Y0.0984
T2
G00X2.1604Y2.0281
M15
G01X2.1959Y2.0281
M16
G05
G00X2.1604Y1.6876
M15
G01X2.1959Y1.6876
M16
G05
G00X2.3317Y2.0281
M15
G01X2.3553Y2.0281
M16
G05
G00X2.3317Y1.6876
M15
G01X2.3553Y1.6876
M16
G05
M30
