%TF.GenerationSoftware,KiCad,Pcbnew,8.0.8*%
%TF.CreationDate,2025-05-20T22:02:41+02:00*%
%TF.ProjectId,Bernd_V1,4265726e-645f-4563-912e-6b696361645f,REV3*%
%TF.SameCoordinates,Original*%
%TF.FileFunction,Soldermask,Top*%
%TF.FilePolarity,Negative*%
%FSLAX46Y46*%
G04 Gerber Fmt 4.6, Leading zero omitted, Abs format (unit mm)*
G04 Created by KiCad (PCBNEW 8.0.8) date 2025-05-20 22:02:41*
%MOMM*%
%LPD*%
G01*
G04 APERTURE LIST*
G04 Aperture macros list*
%AMRoundRect*
0 Rectangle with rounded corners*
0 $1 Rounding radius*
0 $2 $3 $4 $5 $6 $7 $8 $9 X,Y pos of 4 corners*
0 Add a 4 corners polygon primitive as box body*
4,1,4,$2,$3,$4,$5,$6,$7,$8,$9,$2,$3,0*
0 Add four circle primitives for the rounded corners*
1,1,$1+$1,$2,$3*
1,1,$1+$1,$4,$5*
1,1,$1+$1,$6,$7*
1,1,$1+$1,$8,$9*
0 Add four rect primitives between the rounded corners*
20,1,$1+$1,$2,$3,$4,$5,0*
20,1,$1+$1,$4,$5,$6,$7,0*
20,1,$1+$1,$6,$7,$8,$9,0*
20,1,$1+$1,$8,$9,$2,$3,0*%
G04 Aperture macros list end*
%ADD10C,1.000000*%
%ADD11RoundRect,0.155000X0.021213X-0.240416X0.240416X-0.021213X-0.021213X0.240416X-0.240416X0.021213X0*%
%ADD12RoundRect,0.150000X0.150000X0.200000X-0.150000X0.200000X-0.150000X-0.200000X0.150000X-0.200000X0*%
%ADD13RoundRect,0.150000X-0.200000X0.150000X-0.200000X-0.150000X0.200000X-0.150000X0.200000X0.150000X0*%
%ADD14RoundRect,0.165000X0.165000X0.640000X-0.165000X0.640000X-0.165000X-0.640000X0.165000X-0.640000X0*%
%ADD15RoundRect,0.262500X0.367500X0.667500X-0.367500X0.667500X-0.367500X-0.667500X0.367500X-0.667500X0*%
%ADD16RoundRect,0.030000X0.167996X-0.332499X0.167996X0.332499X-0.167996X0.332499X-0.167996X-0.332499X0*%
%ADD17RoundRect,0.030000X0.332499X-0.140005X0.332499X0.140005X-0.332499X0.140005X-0.332499X-0.140005X0*%
%ADD18RoundRect,0.030000X1.025006X-1.525006X1.025006X1.525006X-1.025006X1.525006X-1.025006X-1.525006X0*%
%ADD19RoundRect,0.030000X0.600000X2.050000X-0.600000X2.050000X-0.600000X-2.050000X0.600000X-2.050000X0*%
%ADD20RoundRect,0.155000X-0.155000X-0.185000X0.155000X-0.185000X0.155000X0.185000X-0.155000X0.185000X0*%
%ADD21RoundRect,0.155000X-0.240416X-0.021213X-0.021213X-0.240416X0.240416X0.021213X0.021213X0.240416X0*%
%ADD22RoundRect,0.150000X-0.150000X-0.200000X0.150000X-0.200000X0.150000X0.200000X-0.150000X0.200000X0*%
%ADD23RoundRect,0.030000X-0.650000X0.350000X-0.650000X-0.350000X0.650000X-0.350000X0.650000X0.350000X0*%
%ADD24RoundRect,0.155000X0.155000X0.185000X-0.155000X0.185000X-0.155000X-0.185000X0.155000X-0.185000X0*%
%ADD25RoundRect,0.155000X-0.185000X0.155000X-0.185000X-0.155000X0.185000X-0.155000X0.185000X0.155000X0*%
%ADD26C,0.760025*%
%ADD27RoundRect,0.030000X0.512516X-0.275005X0.512516X0.275005X-0.512516X0.275005X-0.512516X-0.275005X0*%
%ADD28RoundRect,0.030000X0.512516X-0.275006X0.512516X0.275006X-0.512516X0.275006X-0.512516X-0.275006X0*%
%ADD29RoundRect,0.030000X0.550000X-0.150000X0.550000X0.150000X-0.550000X0.150000X-0.550000X-0.150000X0*%
%ADD30O,2.060000X1.160000*%
%ADD31O,1.860000X1.260000*%
%ADD32RoundRect,0.240000X-0.240000X-0.265000X0.240000X-0.265000X0.240000X0.265000X-0.240000X0.265000X0*%
%ADD33RoundRect,0.390000X-0.390000X0.640000X-0.390000X-0.640000X0.390000X-0.640000X0.390000X0.640000X0*%
%ADD34RoundRect,0.515000X-1.415000X0.515000X-1.415000X-0.515000X1.415000X-0.515000X1.415000X0.515000X0*%
%ADD35RoundRect,0.030000X0.775006X-0.300000X0.775006X0.300000X-0.775006X0.300000X-0.775006X-0.300000X0*%
%ADD36RoundRect,0.030000X0.630861X-0.750000X0.630861X0.750000X-0.630861X0.750000X-0.630861X-0.750000X0*%
%ADD37RoundRect,0.030000X-0.350000X-0.800000X0.350000X-0.800000X0.350000X0.800000X-0.350000X0.800000X0*%
%ADD38RoundRect,0.155000X-0.021213X0.240416X-0.240416X0.021213X0.021213X-0.240416X0.240416X-0.021213X0*%
%ADD39RoundRect,0.155000X0.185000X-0.155000X0.185000X0.155000X-0.185000X0.155000X-0.185000X-0.155000X0*%
%ADD40RoundRect,0.150000X0.200000X-0.150000X0.200000X0.150000X-0.200000X0.150000X-0.200000X-0.150000X0*%
%ADD41RoundRect,0.155000X0.240416X0.021213X0.021213X0.240416X-0.240416X-0.021213X-0.021213X-0.240416X0*%
%ADD42RoundRect,0.030000X-0.140005X0.300000X-0.140005X-0.300000X0.140005X-0.300000X0.140005X0.300000X0*%
%ADD43RoundRect,0.030000X0.850000X-0.150000X0.850000X0.150000X-0.850000X0.150000X-0.850000X-0.150000X0*%
%ADD44RoundRect,0.030000X0.650000X-0.350000X0.650000X0.350000X-0.650000X0.350000X-0.650000X-0.350000X0*%
%ADD45RoundRect,0.240000X0.265000X-0.240000X0.265000X0.240000X-0.265000X0.240000X-0.265000X-0.240000X0*%
%ADD46RoundRect,0.150000X-0.247487X-0.035355X-0.035355X-0.247487X0.247487X0.035355X0.035355X0.247487X0*%
%ADD47RoundRect,0.030000X-0.700000X-0.600000X0.700000X-0.600000X0.700000X0.600000X-0.700000X0.600000X0*%
%ADD48RoundRect,0.233750X0.233750X0.271250X-0.233750X0.271250X-0.233750X-0.271250X0.233750X-0.271250X0*%
%ADD49RoundRect,0.030000X-0.332499X-0.100000X0.332499X-0.100000X0.332499X0.100000X-0.332499X0.100000X0*%
%ADD50RoundRect,0.030000X-0.100000X-0.332499X0.100000X-0.332499X0.100000X0.332499X-0.100000X0.332499X0*%
%ADD51RoundRect,0.030000X-1.700000X-1.700000X1.700000X-1.700000X1.700000X1.700000X-1.700000X1.700000X0*%
%ADD52RoundRect,0.030000X1.255000X0.500000X-1.255000X0.500000X-1.255000X-0.500000X1.255000X-0.500000X0*%
G04 APERTURE END LIST*
D10*
X55500000Y57500000D02*
G75*
G02*
X53500000Y55500000I-1999999J-1D01*
G01*
X59500000Y57500000D02*
G75*
G02*
X55500000Y57500000I-2000000J0D01*
G01*
X55500000Y57500000D02*
G75*
G02*
X59500000Y57500000I2000000J0D01*
G01*
X57499999Y55499999D02*
G75*
G02*
X59499999Y53499999I1J-1999999D01*
G01*
X4500000Y2500000D02*
G75*
G02*
X6500000Y4500000I2000000J0D01*
G01*
X4500000Y57500000D02*
G75*
G02*
X500000Y57500000I-2000000J0D01*
G01*
X500000Y57500000D02*
G75*
G02*
X4500000Y57500000I2000000J0D01*
G01*
X4500000Y2500000D02*
G75*
G02*
X500000Y2500000I-2000000J0D01*
G01*
X500000Y2500000D02*
G75*
G02*
X4500000Y2500000I2000000J0D01*
G01*
X6500000Y55500000D02*
G75*
G02*
X4500000Y57500000I0J2000000D01*
G01*
X59500000Y2499999D02*
G75*
G02*
X55500000Y2499999I-2000000J0D01*
G01*
X55500000Y2499999D02*
G75*
G02*
X59500000Y2499999I2000000J0D01*
G01*
X53500000Y4499999D02*
G75*
G02*
X55500000Y2499999I0J-2000000D01*
G01*
X500001Y53499999D02*
G75*
G02*
X2500001Y55499999I1999999J1D01*
G01*
X2500001Y4500001D02*
G75*
G02*
X500001Y6500001I-1J1999999D01*
G01*
X59499999Y6500000D02*
G75*
G02*
X57499999Y4500000I-1999999J-1D01*
G01*
D11*
%TO.C,C24*%
X51250589Y32280589D03*
X51929411Y32959411D03*
%TD*%
D12*
%TO.C,R5*%
X54310000Y37500000D03*
X53290000Y37500000D03*
%TD*%
D13*
%TO.C,R8*%
X46390000Y37810000D03*
X46390000Y36790000D03*
%TD*%
D14*
%TO.C,J2*%
X46870000Y9745000D03*
X45870000Y9745000D03*
X44870000Y9745000D03*
X43870000Y9745000D03*
D15*
X48170000Y7220000D03*
X42570000Y7220000D03*
%TD*%
D16*
%TO.C,U12*%
X36500064Y20092520D03*
D17*
X37407607Y20499936D03*
X37407607Y21000064D03*
X37407607Y21499936D03*
X37407607Y22000064D03*
X37407607Y22499936D03*
X37407607Y23000064D03*
X37407607Y23499936D03*
X37407607Y24000064D03*
D16*
X36500064Y24407480D03*
X34999936Y24407480D03*
D17*
X34092393Y24000064D03*
X34092393Y23499936D03*
X34092393Y23000064D03*
X34092393Y22499936D03*
X34092393Y22000064D03*
X34092393Y21499936D03*
X34092393Y21000064D03*
X34092393Y20499936D03*
D16*
X34999936Y20092520D03*
D18*
X35750000Y22250000D03*
%TD*%
D13*
%TO.C,R7*%
X45450000Y37810000D03*
X45450000Y36790000D03*
%TD*%
D19*
%TO.C,U8*%
X27640018Y15200025D03*
X27640018Y8799975D03*
X25100013Y15200025D03*
X25100013Y8799975D03*
X22560008Y15200025D03*
X22560008Y8799975D03*
X20020003Y15200025D03*
X20020003Y8799975D03*
X17479997Y15200025D03*
X17479997Y8799975D03*
X14939992Y15200025D03*
X14939992Y8799975D03*
X12399987Y15200025D03*
X12399987Y8799975D03*
X9859982Y15200025D03*
X9859982Y8799975D03*
%TD*%
D12*
%TO.C,R14*%
X54410000Y40500000D03*
X53390000Y40500000D03*
%TD*%
D20*
%TO.C,C19*%
X49440000Y51970000D03*
X50400000Y51970000D03*
%TD*%
D21*
%TO.C,C10*%
X46180589Y22449411D03*
X46859411Y21770589D03*
%TD*%
D22*
%TO.C,C7*%
X47730000Y35540000D03*
X48750000Y35540000D03*
%TD*%
D23*
%TO.C,U16*%
X38274987Y40424943D03*
X33775013Y40424943D03*
X38274987Y42575057D03*
X33775013Y42575057D03*
%TD*%
D24*
%TO.C,C5*%
X34230000Y25500000D03*
X33270000Y25500000D03*
%TD*%
%TO.C,C26*%
X36230000Y25500000D03*
X35270000Y25500000D03*
%TD*%
D20*
%TO.C,C16*%
X51745000Y28075000D03*
X52705000Y28075000D03*
%TD*%
D19*
%TO.C,U6*%
X27640018Y39200025D03*
X27640018Y32799975D03*
X25100013Y39200025D03*
X25100013Y32799975D03*
X22560008Y39200025D03*
X22560008Y32799975D03*
X20020003Y39200025D03*
X20020003Y32799975D03*
X17479997Y39200025D03*
X17479997Y32799975D03*
X14939992Y39200025D03*
X14939992Y32799975D03*
X12399987Y39200025D03*
X12399987Y32799975D03*
X9859982Y39200025D03*
X9859982Y32799975D03*
%TD*%
D22*
%TO.C,R12*%
X37300000Y11470000D03*
X38320000Y11470000D03*
%TD*%
D16*
%TO.C,U9*%
X36500064Y13592520D03*
D17*
X37407607Y13999936D03*
X37407607Y14500064D03*
X37407607Y14999936D03*
X37407607Y15500064D03*
X37407607Y15999936D03*
X37407607Y16500064D03*
X37407607Y16999936D03*
X37407607Y17500064D03*
D16*
X36500064Y17907480D03*
X34999936Y17907480D03*
D17*
X34092393Y17500064D03*
X34092393Y16999936D03*
X34092393Y16500064D03*
X34092393Y15999936D03*
X34092393Y15500064D03*
X34092393Y14999936D03*
X34092393Y14500064D03*
X34092393Y13999936D03*
D16*
X34999936Y13592520D03*
D18*
X35750000Y15750000D03*
%TD*%
D25*
%TO.C,C4*%
X47640000Y18980000D03*
X47640000Y18020000D03*
%TD*%
D26*
%TO.C,J3*%
X55845072Y44300109D03*
X55845072Y50080145D03*
D27*
X54737484Y43989976D03*
D28*
X54737484Y44790076D03*
D29*
X54774968Y45440064D03*
X54774968Y45940191D03*
X54774968Y46440064D03*
X54774968Y46939936D03*
X54774968Y47440064D03*
X54774968Y47939936D03*
X54774968Y48440064D03*
X54774968Y48940191D03*
D28*
X54737484Y49590178D03*
X54737484Y50390025D03*
D30*
X55324879Y42865006D03*
D31*
X59525032Y42865006D03*
D30*
X55324879Y51514994D03*
D31*
X59525032Y51514994D03*
%TD*%
D22*
%TO.C,C6*%
X47730000Y34600000D03*
X48750000Y34600000D03*
%TD*%
D32*
%TO.C,C27*%
X46755000Y52130000D03*
X48305000Y52130000D03*
%TD*%
D33*
%TO.C,U13*%
X51280000Y50140000D03*
X48980000Y50140000D03*
D34*
X48980000Y43840000D03*
D33*
X46680000Y50140000D03*
%TD*%
D24*
%TO.C,C20*%
X41480000Y39900000D03*
X40520000Y39900000D03*
%TD*%
D12*
%TO.C,R6*%
X54310000Y38500000D03*
X53290000Y38500000D03*
%TD*%
D16*
%TO.C,U11*%
X36500064Y26592520D03*
D17*
X37407607Y26999936D03*
X37407607Y27500064D03*
X37407607Y27999936D03*
X37407607Y28500064D03*
X37407607Y28999936D03*
X37407607Y29500064D03*
X37407607Y29999936D03*
X37407607Y30500064D03*
D16*
X36500064Y30907480D03*
X34999936Y30907480D03*
D17*
X34092393Y30500064D03*
X34092393Y29999936D03*
X34092393Y29500064D03*
X34092393Y28999936D03*
X34092393Y28500064D03*
X34092393Y27999936D03*
X34092393Y27500064D03*
X34092393Y26999936D03*
D16*
X34999936Y26592520D03*
D18*
X35750000Y28750000D03*
%TD*%
D35*
%TO.C,U15*%
X55813246Y32500127D03*
X55811721Y33498095D03*
X55811722Y34498095D03*
X55811722Y35498095D03*
X55813246Y36500127D03*
X55811722Y37498096D03*
X55811722Y38498094D03*
X55813246Y39499873D03*
D36*
X59319139Y40800102D03*
X59319139Y31199898D03*
%TD*%
D12*
%TO.C,R13*%
X54410000Y41500000D03*
X53390000Y41500000D03*
%TD*%
D24*
%TO.C,C25*%
X41435000Y35158750D03*
X40475000Y35158750D03*
%TD*%
D37*
%TO.C,L1*%
X47540000Y37150000D03*
X48940000Y37150000D03*
%TD*%
D38*
%TO.C,C21*%
X41479411Y22039411D03*
X40800589Y21360589D03*
%TD*%
%TO.C,C17*%
X39209411Y26569411D03*
X38530589Y25890589D03*
%TD*%
D21*
%TO.C,C18*%
X51085589Y23914411D03*
X51764411Y23235589D03*
%TD*%
D35*
%TO.C,U4*%
X55813246Y20500127D03*
X55811721Y21498095D03*
X55811722Y22498095D03*
X55811722Y23498095D03*
X55813246Y24500127D03*
X55811722Y25498096D03*
X55811722Y26498094D03*
X55813246Y27499873D03*
D36*
X59319139Y28800102D03*
X59319139Y19199898D03*
%TD*%
D39*
%TO.C,C3*%
X42360000Y18030000D03*
X42360000Y18990000D03*
%TD*%
D40*
%TO.C,R15*%
X35100000Y11415000D03*
X35100000Y12435000D03*
%TD*%
D24*
%TO.C,C1*%
X34230000Y32000000D03*
X33270000Y32000000D03*
%TD*%
%TO.C,C2*%
X36195000Y32000000D03*
X35235000Y32000000D03*
%TD*%
D41*
%TO.C,C15*%
X39219411Y30890589D03*
X38540589Y31569411D03*
%TD*%
D24*
%TO.C,C22*%
X34230000Y19010000D03*
X33270000Y19010000D03*
%TD*%
D25*
%TO.C,C29*%
X34170000Y12405000D03*
X34170000Y11445000D03*
%TD*%
D42*
%TO.C,U2*%
X41599936Y36092507D03*
X42100064Y36092507D03*
X42599936Y36092507D03*
X43100064Y36092507D03*
X43100064Y39107493D03*
X42599936Y39107493D03*
X42100064Y39107493D03*
X41599936Y39107493D03*
D43*
X42350000Y37600000D03*
%TD*%
D25*
%TO.C,C30*%
X36410000Y12440000D03*
X36410000Y11480000D03*
%TD*%
D44*
%TO.C,U17*%
X33775013Y9475057D03*
X38274987Y9475057D03*
X33775013Y7324943D03*
X38274987Y7324943D03*
%TD*%
D45*
%TO.C,C28*%
X50520000Y38435000D03*
X50520000Y39985000D03*
%TD*%
D46*
%TO.C,R2*%
X45679376Y21640624D03*
X46400624Y20919376D03*
%TD*%
D24*
%TO.C,C14*%
X36195000Y38500000D03*
X35235000Y38500000D03*
%TD*%
D16*
%TO.C,U10*%
X36500064Y33092520D03*
D17*
X37407607Y33499936D03*
X37407607Y34000064D03*
X37407607Y34499936D03*
X37407607Y35000064D03*
X37407607Y35499936D03*
X37407607Y36000064D03*
X37407607Y36499936D03*
X37407607Y37000064D03*
D16*
X36500064Y37407480D03*
X34999936Y37407480D03*
D17*
X34092393Y37000064D03*
X34092393Y36499936D03*
X34092393Y36000064D03*
X34092393Y35499936D03*
X34092393Y35000064D03*
X34092393Y34499936D03*
X34092393Y34000064D03*
X34092393Y33499936D03*
D16*
X34999936Y33092520D03*
D18*
X35750000Y35250000D03*
%TD*%
D13*
%TO.C,R4*%
X40620000Y39020000D03*
X40620000Y38000000D03*
%TD*%
D38*
%TO.C,C13*%
X44459411Y21599411D03*
X43780589Y20920589D03*
%TD*%
D35*
%TO.C,U3*%
X55813246Y8500127D03*
X55811721Y9498095D03*
X55811722Y10498095D03*
X55811722Y11498095D03*
X55813246Y12500127D03*
X55811722Y13498096D03*
X55811722Y14498094D03*
X55813246Y15499873D03*
D36*
X59319139Y16800102D03*
X59319139Y7199898D03*
%TD*%
D47*
%TO.C,Y1*%
X43939924Y17649987D03*
X46140076Y17649987D03*
X46140076Y19350013D03*
X43939924Y19350013D03*
%TD*%
D19*
%TO.C,U5*%
X27640018Y51200025D03*
X27640018Y44799975D03*
X25100013Y51200025D03*
X25100013Y44799975D03*
X22560008Y51200025D03*
X22560008Y44799975D03*
X20020003Y51200025D03*
X20020003Y44799975D03*
X17479997Y51200025D03*
X17479997Y44799975D03*
X14939992Y51200025D03*
X14939992Y44799975D03*
X12399987Y51200025D03*
X12399987Y44799975D03*
X9859982Y51200025D03*
X9859982Y44799975D03*
%TD*%
D12*
%TO.C,R10*%
X55190000Y52970000D03*
X54170000Y52970000D03*
%TD*%
D48*
%TO.C,D1*%
X57877500Y52820000D03*
X56302500Y52820000D03*
%TD*%
D24*
%TO.C,C8*%
X39490000Y28750000D03*
X38530000Y28750000D03*
%TD*%
D40*
%TO.C,R1*%
X40620000Y36140000D03*
X40620000Y37160000D03*
%TD*%
D49*
%TO.C,U1*%
X40332456Y32300102D03*
X40332456Y31900051D03*
X40332456Y31500000D03*
X40332456Y31099949D03*
X40332456Y30699898D03*
X40332456Y30300102D03*
X40332456Y29900051D03*
X40332456Y29500000D03*
X40332456Y29099949D03*
X40332456Y28699898D03*
X40332456Y28300102D03*
X40332456Y27900051D03*
X40332456Y27500000D03*
X40332456Y27099949D03*
X40332456Y26699898D03*
X40332456Y26300102D03*
X40332456Y25900051D03*
X40332456Y25500000D03*
X40332456Y25099949D03*
X40332456Y24699898D03*
D50*
X41439898Y23592456D03*
X41839949Y23592456D03*
X42240000Y23592456D03*
X42640051Y23592456D03*
X43040102Y23592456D03*
X43439898Y23592456D03*
X43839949Y23592456D03*
X44240000Y23592456D03*
X44640051Y23592456D03*
X45040102Y23592456D03*
X45439898Y23592456D03*
X45839949Y23592456D03*
X46240000Y23592456D03*
X46640051Y23592456D03*
X47040102Y23592456D03*
X47439898Y23592456D03*
X47839949Y23592456D03*
X48240000Y23592456D03*
X48640051Y23592456D03*
X49040102Y23592456D03*
D49*
X50147544Y24699898D03*
X50147544Y25099949D03*
X50147544Y25500000D03*
X50147544Y25900051D03*
X50147544Y26300102D03*
X50147544Y26699898D03*
X50147544Y27099949D03*
X50147544Y27500000D03*
X50147544Y27900051D03*
X50147544Y28300102D03*
X50147544Y28699898D03*
X50147544Y29099949D03*
X50147544Y29500000D03*
X50147544Y29900051D03*
X50147544Y30300102D03*
X50147544Y30699898D03*
X50147544Y31099949D03*
X50147544Y31500000D03*
X50147544Y31900051D03*
X50147544Y32300102D03*
D50*
X49040102Y33407544D03*
X48640051Y33407544D03*
X48240000Y33407544D03*
X47839949Y33407544D03*
X47439898Y33407544D03*
X47040102Y33407544D03*
X46640051Y33407544D03*
X46240000Y33407544D03*
X45839949Y33407544D03*
X45439898Y33407544D03*
X45040102Y33407544D03*
X44640051Y33407544D03*
X44240000Y33407544D03*
X43839949Y33407544D03*
X43439898Y33407544D03*
X43040102Y33407544D03*
X42640051Y33407544D03*
X42240000Y33407544D03*
X41839949Y33407544D03*
X41439898Y33407544D03*
D51*
X45240000Y28500000D03*
%TD*%
D20*
%TO.C,C11*%
X51745000Y29000000D03*
X52705000Y29000000D03*
%TD*%
D25*
%TO.C,C9*%
X50440000Y35480000D03*
X50440000Y34520000D03*
%TD*%
D13*
%TO.C,R3*%
X50440000Y37360000D03*
X50440000Y36340000D03*
%TD*%
D19*
%TO.C,U7*%
X27640018Y27200025D03*
X27640018Y20799975D03*
X25100013Y27200025D03*
X25100013Y20799975D03*
X22560008Y27200025D03*
X22560008Y20799975D03*
X20020003Y27200025D03*
X20020003Y20799975D03*
X17479997Y27200025D03*
X17479997Y20799975D03*
X14939992Y27200025D03*
X14939992Y20799975D03*
X12399987Y27200025D03*
X12399987Y20799975D03*
X9859982Y27200025D03*
X9859982Y20799975D03*
%TD*%
D24*
%TO.C,C23*%
X36230000Y19000000D03*
X35270000Y19000000D03*
%TD*%
D22*
%TO.C,R11*%
X37300000Y12420000D03*
X38320000Y12420000D03*
%TD*%
D41*
%TO.C,C12*%
X45379411Y35310589D03*
X44700589Y35989411D03*
%TD*%
D52*
%TO.C,JP1*%
X37910000Y45460000D03*
X34600000Y48000000D03*
X37910000Y50540000D03*
%TD*%
G36*
X59413242Y58996574D02*
G01*
X59457641Y58985915D01*
X59509226Y58959631D01*
X59543946Y58929977D01*
X59563731Y58908573D01*
X59593278Y58867906D01*
X59595520Y58864717D01*
X59609885Y58843579D01*
X59614056Y58837007D01*
X59627066Y58815010D01*
X59628998Y58811622D01*
X59748203Y58594788D01*
X59750028Y58591341D01*
X59761642Y58568545D01*
X59764954Y58561508D01*
X59775115Y58538031D01*
X59776608Y58534425D01*
X59867690Y58304377D01*
X59869067Y58300735D01*
X59877731Y58276671D01*
X59880140Y58269256D01*
X59887274Y58244697D01*
X59888300Y58240945D01*
X59949834Y58001290D01*
X59950744Y57997501D01*
X59956327Y57972523D01*
X59957787Y57964870D01*
X59961784Y57939631D01*
X59962332Y57935776D01*
X59993868Y57686136D01*
X59994249Y57682750D01*
X59996444Y57660466D01*
X59996925Y57653666D01*
X59997890Y57631342D01*
X59997991Y57627934D01*
X59999938Y57503925D01*
X59999945Y57503405D01*
X59999979Y57500450D01*
X59999986Y57499533D01*
X59999999Y57496373D01*
X60000000Y57495863D01*
X60000000Y2504137D01*
X59999999Y2503627D01*
X59999986Y2500467D01*
X59999979Y2499551D01*
X59999945Y2496595D01*
X59999938Y2496074D01*
X59997991Y2372066D01*
X59997890Y2368658D01*
X59996925Y2346334D01*
X59996444Y2339534D01*
X59994249Y2317250D01*
X59993868Y2313864D01*
X59962332Y2064224D01*
X59961784Y2060369D01*
X59957787Y2035130D01*
X59956327Y2027477D01*
X59950744Y2002499D01*
X59949834Y1998710D01*
X59888300Y1759055D01*
X59887274Y1755303D01*
X59880140Y1730744D01*
X59877731Y1723329D01*
X59869067Y1699265D01*
X59867690Y1695623D01*
X59776608Y1465575D01*
X59775115Y1461969D01*
X59764954Y1438492D01*
X59761642Y1431455D01*
X59750028Y1408659D01*
X59748203Y1405212D01*
X59629000Y1188382D01*
X59627068Y1184994D01*
X59614058Y1162997D01*
X59609889Y1156428D01*
X59595512Y1135271D01*
X59593270Y1132080D01*
X59563735Y1091428D01*
X59543946Y1070022D01*
X59509226Y1040369D01*
X59457645Y1014086D01*
X59413245Y1003426D01*
X59384296Y1000000D01*
X59265865Y1000000D01*
X59241674Y1002383D01*
X59184604Y1013735D01*
X59139905Y1032250D01*
X59101873Y1057662D01*
X59067661Y1091874D01*
X59042249Y1129906D01*
X59023733Y1174606D01*
X59012382Y1231675D01*
X59010000Y1255865D01*
X59010000Y3499994D01*
X59009998Y3500010D01*
X58992963Y3629409D01*
X58992961Y3629414D01*
X58943015Y3749996D01*
X58943015Y3749997D01*
X58863550Y3853556D01*
X58808513Y3895788D01*
X58767311Y3952216D01*
X58760000Y3994163D01*
X58760000Y5005838D01*
X58779685Y5072877D01*
X58808514Y5104214D01*
X58863551Y5146446D01*
X58943015Y5250004D01*
X58943015Y5250005D01*
X58992961Y5370587D01*
X58992963Y5370592D01*
X59009998Y5499991D01*
X59010000Y5500007D01*
X59010000Y54499994D01*
X59009998Y54500010D01*
X58992963Y54629409D01*
X58992961Y54629414D01*
X58943015Y54749996D01*
X58943015Y54749997D01*
X58863550Y54853556D01*
X58808513Y54895788D01*
X58767311Y54952216D01*
X58760000Y54994163D01*
X58760000Y56005838D01*
X58779685Y56072877D01*
X58808514Y56104214D01*
X58863551Y56146446D01*
X58943015Y56250004D01*
X58943015Y56250005D01*
X58992961Y56370587D01*
X58992963Y56370592D01*
X59009998Y56499991D01*
X59010000Y56500007D01*
X59010000Y58744136D01*
X59012382Y58768325D01*
X59023733Y58825395D01*
X59042249Y58870098D01*
X59067661Y58908129D01*
X59101871Y58942339D01*
X59139902Y58967751D01*
X59184605Y58986267D01*
X59241676Y58997618D01*
X59265865Y59000000D01*
X59384295Y59000000D01*
X59413242Y58996574D01*
G37*
G36*
X763327Y58997617D02*
G01*
X822312Y58985884D01*
X867010Y58967370D01*
X906662Y58940876D01*
X940875Y58906663D01*
X967369Y58867011D01*
X985883Y58822314D01*
X997617Y58763327D01*
X1000000Y58739134D01*
X1000000Y56500007D01*
X1000001Y56499991D01*
X1017036Y56370592D01*
X1017038Y56370587D01*
X1066984Y56250005D01*
X1066984Y56250004D01*
X1146448Y56146446D01*
X1201486Y56104214D01*
X1242689Y56047786D01*
X1250000Y56005838D01*
X1250000Y54994163D01*
X1230315Y54927124D01*
X1201487Y54895788D01*
X1146449Y54853556D01*
X1066984Y54749997D01*
X1066984Y54749996D01*
X1017038Y54629414D01*
X1017036Y54629409D01*
X1000001Y54500010D01*
X1000000Y54499994D01*
X1000000Y5500007D01*
X1000001Y5499991D01*
X1017036Y5370592D01*
X1017038Y5370587D01*
X1066984Y5250005D01*
X1066984Y5250004D01*
X1146448Y5146446D01*
X1201486Y5104214D01*
X1242689Y5047786D01*
X1250000Y5005838D01*
X1250000Y3994163D01*
X1230315Y3927124D01*
X1201487Y3895788D01*
X1146449Y3853556D01*
X1066984Y3749997D01*
X1066984Y3749996D01*
X1017038Y3629414D01*
X1017036Y3629409D01*
X1000001Y3500010D01*
X1000000Y3499994D01*
X1000000Y1260866D01*
X997617Y1236673D01*
X985883Y1177687D01*
X967369Y1132990D01*
X940875Y1093338D01*
X906662Y1059125D01*
X867010Y1032631D01*
X822313Y1014117D01*
X763328Y1002383D01*
X739135Y1000000D01*
X615705Y1000000D01*
X586756Y1003426D01*
X542356Y1014086D01*
X490776Y1040367D01*
X456056Y1070019D01*
X436266Y1091428D01*
X406715Y1132103D01*
X404475Y1135290D01*
X390114Y1156422D01*
X385943Y1162994D01*
X372933Y1184991D01*
X371001Y1188379D01*
X251796Y1405213D01*
X249971Y1408660D01*
X238357Y1431456D01*
X235045Y1438493D01*
X224884Y1461970D01*
X223391Y1465576D01*
X132309Y1695624D01*
X130932Y1699266D01*
X122268Y1723330D01*
X119859Y1730745D01*
X112725Y1755304D01*
X111699Y1759056D01*
X50165Y1998711D01*
X49255Y2002500D01*
X43672Y2027478D01*
X42212Y2035131D01*
X38215Y2060370D01*
X37667Y2064225D01*
X6131Y2313865D01*
X5750Y2317251D01*
X3555Y2339535D01*
X3074Y2346335D01*
X2109Y2368659D01*
X2008Y2372068D01*
X62Y2496076D01*
X56Y2496554D01*
X21Y2499510D01*
X13Y2500507D01*
X1Y2503667D01*
X0Y2504138D01*
X0Y57495863D01*
X1Y57496334D01*
X13Y57499494D01*
X21Y57500492D01*
X56Y57503447D01*
X62Y57503924D01*
X2008Y57627933D01*
X2109Y57631342D01*
X3074Y57653666D01*
X3555Y57660466D01*
X5750Y57682750D01*
X6131Y57686136D01*
X37667Y57935776D01*
X38215Y57939631D01*
X42212Y57964870D01*
X43672Y57972523D01*
X49255Y57997501D01*
X50165Y58001290D01*
X111699Y58240945D01*
X112725Y58244697D01*
X119859Y58269256D01*
X122268Y58276671D01*
X130932Y58300735D01*
X132309Y58304377D01*
X223391Y58534425D01*
X224884Y58538031D01*
X235045Y58561508D01*
X238357Y58568545D01*
X249971Y58591341D01*
X251796Y58594788D01*
X371001Y58811622D01*
X372933Y58815010D01*
X385943Y58837007D01*
X390114Y58843579D01*
X404479Y58864717D01*
X406721Y58867906D01*
X436268Y58908573D01*
X456053Y58929977D01*
X490773Y58959631D01*
X542359Y58985915D01*
X586759Y58996574D01*
X615705Y59000000D01*
X739135Y59000000D01*
X763327Y58997617D01*
G37*
G36*
X1072876Y56230315D02*
G01*
X1104212Y56201487D01*
X1146444Y56146450D01*
X1250004Y56066985D01*
X1370586Y56017039D01*
X1370591Y56017037D01*
X1499990Y56000002D01*
X1500007Y56000000D01*
X58509993Y56000000D01*
X58510009Y56000002D01*
X58639408Y56017037D01*
X58639413Y56017039D01*
X58759995Y56066985D01*
X58759996Y56066985D01*
X58863555Y56146450D01*
X58905788Y56201487D01*
X58962216Y56242689D01*
X59004163Y56250000D01*
X59876000Y56250000D01*
X59943039Y56230315D01*
X59988794Y56177511D01*
X60000000Y56126000D01*
X60000000Y54874000D01*
X59980315Y54806961D01*
X59927511Y54761206D01*
X59876000Y54750000D01*
X59004163Y54750000D01*
X58937124Y54769685D01*
X58905788Y54798513D01*
X58863555Y54853551D01*
X58759995Y54933016D01*
X58639413Y54982962D01*
X58639408Y54982964D01*
X58510009Y54999999D01*
X58509993Y55000000D01*
X1500007Y55000000D01*
X1499990Y54999999D01*
X1370591Y54982964D01*
X1370586Y54982962D01*
X1250004Y54933016D01*
X1250003Y54933016D01*
X1146444Y54853551D01*
X1104212Y54798513D01*
X1047784Y54757311D01*
X1005837Y54750000D01*
X124000Y54750000D01*
X56961Y54769685D01*
X11206Y54822489D01*
X0Y54874000D01*
X0Y56126000D01*
X19685Y56193039D01*
X72489Y56238794D01*
X124000Y56250000D01*
X1005837Y56250000D01*
X1072876Y56230315D01*
G37*
G36*
X1072876Y5230315D02*
G01*
X1104212Y5201487D01*
X1146444Y5146450D01*
X1250004Y5066985D01*
X1370586Y5017039D01*
X1370591Y5017037D01*
X1499990Y5000002D01*
X1500007Y5000000D01*
X58509993Y5000000D01*
X58510009Y5000002D01*
X58639408Y5017037D01*
X58639413Y5017039D01*
X58759995Y5066985D01*
X58759996Y5066985D01*
X58863555Y5146450D01*
X58905788Y5201487D01*
X58962216Y5242689D01*
X59004163Y5250000D01*
X59876000Y5250000D01*
X59943039Y5230315D01*
X59988794Y5177511D01*
X60000000Y5126000D01*
X60000000Y3874000D01*
X59980315Y3806961D01*
X59927511Y3761206D01*
X59876000Y3750000D01*
X59004163Y3750000D01*
X58937124Y3769685D01*
X58905788Y3798513D01*
X58863555Y3853551D01*
X58759995Y3933016D01*
X58639413Y3982962D01*
X58639408Y3982964D01*
X58510009Y3999999D01*
X58509993Y4000000D01*
X1500007Y4000000D01*
X1499990Y3999999D01*
X1370591Y3982964D01*
X1370586Y3982962D01*
X1250004Y3933016D01*
X1250003Y3933016D01*
X1146444Y3853551D01*
X1104212Y3798513D01*
X1047784Y3757311D01*
X1005837Y3750000D01*
X124000Y3750000D01*
X56961Y3769685D01*
X11206Y3822489D01*
X0Y3874000D01*
X0Y5126000D01*
X19685Y5193039D01*
X72489Y5238794D01*
X124000Y5250000D01*
X1005837Y5250000D01*
X1072876Y5230315D01*
G37*
M02*
