%TF.GenerationSoftware,KiCad,Pcbnew,8.0.8*%
%TF.CreationDate,2025-05-20T22:02:41+02:00*%
%TF.ProjectId,Bernd_V1,4265726e-645f-4563-912e-6b696361645f,REV3*%
%TF.SameCoordinates,Original*%
%TF.FileFunction,Profile,NP*%
%FSLAX46Y46*%
G04 Gerber Fmt 4.6, Leading zero omitted, Abs format (unit mm)*
G04 Created by KiCad (PCBNEW 8.0.8) date 2025-05-20 22:02:41*
%MOMM*%
%LPD*%
G01*
G04 APERTURE LIST*
%TA.AperFunction,Profile*%
%ADD10C,0.100000*%
%TD*%
%TA.AperFunction,Profile*%
%ADD11C,0.050000*%
%TD*%
G04 APERTURE END LIST*
D10*
X55000000Y57500000D02*
G75*
G02*
X53500000Y56000000I-1500001J1D01*
G01*
X55000000Y57500000D02*
G75*
G02*
X60000000Y57500000I2500000J0D01*
G01*
X60000000Y2499999D02*
G75*
G02*
X55000000Y2499999I-2500000J0D01*
G01*
X6500000Y56000000D02*
G75*
G02*
X5000000Y57500000I0J1500000D01*
G01*
X0Y57500000D02*
G75*
G02*
X5000000Y57500000I2500000J0D01*
G01*
X0Y2500000D02*
X0Y57500000D01*
D11*
X3900000Y57500000D02*
G75*
G02*
X1100000Y57500000I-1400000J0D01*
G01*
X1100000Y57500000D02*
G75*
G02*
X3900000Y57500000I1400000J0D01*
G01*
D10*
X60000000Y57500000D02*
X60000000Y2499999D01*
D11*
X58900000Y2500000D02*
G75*
G02*
X56100000Y2500000I-1400000J0D01*
G01*
X56100000Y2500000D02*
G75*
G02*
X58900000Y2500000I1400000J0D01*
G01*
D10*
X6500000Y56000000D02*
X53500000Y56000000D01*
X5000000Y2500000D02*
G75*
G02*
X0Y2500000I-2500000J0D01*
G01*
X53500000Y4000000D02*
X6500000Y4000000D01*
X5000000Y2500000D02*
G75*
G02*
X6500000Y4000000I1500000J0D01*
G01*
D11*
X3900000Y2500000D02*
G75*
G02*
X1100000Y2500000I-1400000J0D01*
G01*
X1100000Y2500000D02*
G75*
G02*
X3900000Y2500000I1400000J0D01*
G01*
X58900000Y57500000D02*
G75*
G02*
X56100000Y57500000I-1400000J0D01*
G01*
X56100000Y57500000D02*
G75*
G02*
X58900000Y57500000I1400000J0D01*
G01*
D10*
X53500000Y3999999D02*
G75*
G02*
X55000000Y2499999I0J-1500000D01*
G01*
M02*
