%TF.GenerationSoftware,KiCad,Pcbnew,8.0.8*%
%TF.CreationDate,2025-05-20T22:02:41+02:00*%
%TF.ProjectId,Bernd_V1,4265726e-645f-4563-912e-6b696361645f,REV3*%
%TF.SameCoordinates,Original*%
%TF.FileFunction,Legend,Top*%
%TF.FilePolarity,Positive*%
%FSLAX46Y46*%
G04 Gerber Fmt 4.6, Leading zero omitted, Abs format (unit mm)*
G04 Created by KiCad (PCBNEW 8.0.8) date 2025-05-20 22:02:41*
%MOMM*%
%LPD*%
G01*
G04 APERTURE LIST*
G04 Aperture macros list*
%AMRoundRect*
0 Rectangle with rounded corners*
0 $1 Rounding radius*
0 $2 $3 $4 $5 $6 $7 $8 $9 X,Y pos of 4 corners*
0 Add a 4 corners polygon primitive as box body*
4,1,4,$2,$3,$4,$5,$6,$7,$8,$9,$2,$3,0*
0 Add four circle primitives for the rounded corners*
1,1,$1+$1,$2,$3*
1,1,$1+$1,$4,$5*
1,1,$1+$1,$6,$7*
1,1,$1+$1,$8,$9*
0 Add four rect primitives between the rounded corners*
20,1,$1+$1,$2,$3,$4,$5,0*
20,1,$1+$1,$4,$5,$6,$7,0*
20,1,$1+$1,$6,$7,$8,$9,0*
20,1,$1+$1,$8,$9,$2,$3,0*%
G04 Aperture macros list end*
%ADD10C,0.150000*%
%ADD11C,0.120000*%
%ADD12C,0.152400*%
%ADD13C,0.150013*%
%ADD14C,0.059995*%
%ADD15C,0.254000*%
%ADD16C,0.000000*%
%ADD17C,0.129997*%
%ADD18C,0.100000*%
%ADD19C,0.300000*%
%ADD20C,1.000000*%
%ADD21RoundRect,0.155000X0.021213X-0.240416X0.240416X-0.021213X-0.021213X0.240416X-0.240416X0.021213X0*%
%ADD22RoundRect,0.150000X0.150000X0.200000X-0.150000X0.200000X-0.150000X-0.200000X0.150000X-0.200000X0*%
%ADD23RoundRect,0.150000X-0.200000X0.150000X-0.200000X-0.150000X0.200000X-0.150000X0.200000X0.150000X0*%
%ADD24RoundRect,0.165000X0.165000X0.640000X-0.165000X0.640000X-0.165000X-0.640000X0.165000X-0.640000X0*%
%ADD25RoundRect,0.262500X0.367500X0.667500X-0.367500X0.667500X-0.367500X-0.667500X0.367500X-0.667500X0*%
%ADD26RoundRect,0.030000X0.167996X-0.332499X0.167996X0.332499X-0.167996X0.332499X-0.167996X-0.332499X0*%
%ADD27RoundRect,0.030000X0.332499X-0.140005X0.332499X0.140005X-0.332499X0.140005X-0.332499X-0.140005X0*%
%ADD28RoundRect,0.030000X1.025006X-1.525006X1.025006X1.525006X-1.025006X1.525006X-1.025006X-1.525006X0*%
%ADD29RoundRect,0.030000X0.600000X2.050000X-0.600000X2.050000X-0.600000X-2.050000X0.600000X-2.050000X0*%
%ADD30RoundRect,0.155000X-0.155000X-0.185000X0.155000X-0.185000X0.155000X0.185000X-0.155000X0.185000X0*%
%ADD31RoundRect,0.155000X-0.240416X-0.021213X-0.021213X-0.240416X0.240416X0.021213X0.021213X0.240416X0*%
%ADD32RoundRect,0.150000X-0.150000X-0.200000X0.150000X-0.200000X0.150000X0.200000X-0.150000X0.200000X0*%
%ADD33RoundRect,0.030000X-0.650000X0.350000X-0.650000X-0.350000X0.650000X-0.350000X0.650000X0.350000X0*%
%ADD34RoundRect,0.155000X0.155000X0.185000X-0.155000X0.185000X-0.155000X-0.185000X0.155000X-0.185000X0*%
%ADD35RoundRect,0.155000X-0.185000X0.155000X-0.185000X-0.155000X0.185000X-0.155000X0.185000X0.155000X0*%
%ADD36C,0.760025*%
%ADD37RoundRect,0.030000X0.512516X-0.275005X0.512516X0.275005X-0.512516X0.275005X-0.512516X-0.275005X0*%
%ADD38RoundRect,0.030000X0.512516X-0.275006X0.512516X0.275006X-0.512516X0.275006X-0.512516X-0.275006X0*%
%ADD39RoundRect,0.030000X0.550000X-0.150000X0.550000X0.150000X-0.550000X0.150000X-0.550000X-0.150000X0*%
%ADD40O,2.060000X1.160000*%
%ADD41O,1.860000X1.260000*%
%ADD42RoundRect,0.240000X-0.240000X-0.265000X0.240000X-0.265000X0.240000X0.265000X-0.240000X0.265000X0*%
%ADD43RoundRect,0.390000X-0.390000X0.640000X-0.390000X-0.640000X0.390000X-0.640000X0.390000X0.640000X0*%
%ADD44RoundRect,0.515000X-1.415000X0.515000X-1.415000X-0.515000X1.415000X-0.515000X1.415000X0.515000X0*%
%ADD45RoundRect,0.030000X0.775006X-0.300000X0.775006X0.300000X-0.775006X0.300000X-0.775006X-0.300000X0*%
%ADD46RoundRect,0.030000X0.630861X-0.750000X0.630861X0.750000X-0.630861X0.750000X-0.630861X-0.750000X0*%
%ADD47RoundRect,0.030000X-0.350000X-0.800000X0.350000X-0.800000X0.350000X0.800000X-0.350000X0.800000X0*%
%ADD48RoundRect,0.155000X-0.021213X0.240416X-0.240416X0.021213X0.021213X-0.240416X0.240416X-0.021213X0*%
%ADD49RoundRect,0.155000X0.185000X-0.155000X0.185000X0.155000X-0.185000X0.155000X-0.185000X-0.155000X0*%
%ADD50RoundRect,0.150000X0.200000X-0.150000X0.200000X0.150000X-0.200000X0.150000X-0.200000X-0.150000X0*%
%ADD51RoundRect,0.155000X0.240416X0.021213X0.021213X0.240416X-0.240416X-0.021213X-0.021213X-0.240416X0*%
%ADD52RoundRect,0.030000X-0.140005X0.300000X-0.140005X-0.300000X0.140005X-0.300000X0.140005X0.300000X0*%
%ADD53RoundRect,0.030000X0.850000X-0.150000X0.850000X0.150000X-0.850000X0.150000X-0.850000X-0.150000X0*%
%ADD54RoundRect,0.030000X0.650000X-0.350000X0.650000X0.350000X-0.650000X0.350000X-0.650000X-0.350000X0*%
%ADD55RoundRect,0.240000X0.265000X-0.240000X0.265000X0.240000X-0.265000X0.240000X-0.265000X-0.240000X0*%
%ADD56RoundRect,0.150000X-0.247487X-0.035355X-0.035355X-0.247487X0.247487X0.035355X0.035355X0.247487X0*%
%ADD57RoundRect,0.030000X-0.700000X-0.600000X0.700000X-0.600000X0.700000X0.600000X-0.700000X0.600000X0*%
%ADD58RoundRect,0.233750X0.233750X0.271250X-0.233750X0.271250X-0.233750X-0.271250X0.233750X-0.271250X0*%
%ADD59RoundRect,0.030000X-0.332499X-0.100000X0.332499X-0.100000X0.332499X0.100000X-0.332499X0.100000X0*%
%ADD60RoundRect,0.030000X-0.100000X-0.332499X0.100000X-0.332499X0.100000X0.332499X-0.100000X0.332499X0*%
%ADD61RoundRect,0.030000X-1.700000X-1.700000X1.700000X-1.700000X1.700000X1.700000X-1.700000X1.700000X0*%
%ADD62RoundRect,0.030000X1.255000X0.500000X-1.255000X0.500000X-1.255000X-0.500000X1.255000X-0.500000X0*%
G04 APERTURE END LIST*
D10*
G36*
X3337967Y45213800D02*
G01*
X2655064Y44979621D01*
X2655064Y45448187D01*
X3337967Y45213800D01*
G37*
G36*
X3428825Y48051291D02*
G01*
X3428574Y48039982D01*
X3410627Y47964108D01*
X3364345Y47904012D01*
X3338834Y47885087D01*
X3267888Y47856156D01*
X3194352Y47848325D01*
X3162276Y47849685D01*
X3088337Y47865945D01*
X3023993Y47904012D01*
X3012535Y47914769D01*
X2972151Y47978021D01*
X2959879Y48051291D01*
X2959879Y48444033D01*
X3428825Y48444033D01*
X3428825Y48051291D01*
G37*
G36*
X3127977Y49803960D02*
G01*
X3206986Y49792706D01*
X3283286Y49764363D01*
X3347493Y49719347D01*
X3364123Y49702797D01*
X3407743Y49640744D01*
X3433188Y49568100D01*
X3440549Y49493667D01*
X3440186Y49476255D01*
X3427463Y49395762D01*
X3396565Y49326217D01*
X3347493Y49267620D01*
X3316901Y49243134D01*
X3246648Y49206612D01*
X3173080Y49187936D01*
X3099464Y49182624D01*
X2656163Y49182624D01*
X2627840Y49183371D01*
X2549208Y49194576D01*
X2472987Y49222798D01*
X2408501Y49267620D01*
X2391805Y49284050D01*
X2348013Y49345931D01*
X2322468Y49418760D01*
X2315078Y49493667D01*
X2315443Y49510949D01*
X2328216Y49591005D01*
X2359235Y49660472D01*
X2408501Y49719347D01*
X2439277Y49743939D01*
X2509630Y49780619D01*
X2582982Y49799375D01*
X2656163Y49804710D01*
X3099464Y49804710D01*
X3127977Y49803960D01*
G37*
G36*
X3428825Y50688747D02*
G01*
X3426327Y50651447D01*
X3403769Y50580527D01*
X3357751Y50523151D01*
X3314297Y50493044D01*
X3244908Y50468228D01*
X3169806Y50460869D01*
X3121580Y50463849D01*
X3048697Y50482825D01*
X2983693Y50523151D01*
X2963323Y50543615D01*
X2924654Y50611576D01*
X2912984Y50688747D01*
X2912984Y51065736D01*
X3428825Y51065736D01*
X3428825Y50688747D01*
G37*
G36*
X3812380Y44405262D02*
G01*
X1943247Y44405262D01*
X1943247Y45629257D01*
X2127500Y45629257D01*
X2455762Y45516591D01*
X2455762Y44911276D01*
X2127500Y44798709D01*
X2127500Y44571929D01*
X3628128Y45124407D01*
X3628128Y45303559D01*
X2127500Y45855670D01*
X2127500Y45629257D01*
X1943247Y45629257D01*
X1943247Y47067969D01*
X2127500Y47067969D01*
X2127500Y46858042D01*
X3428825Y46858042D01*
X3428825Y46434525D01*
X3628128Y46434525D01*
X3628128Y47491486D01*
X3428825Y47491486D01*
X3428825Y47067969D01*
X2127500Y47067969D01*
X1943247Y47067969D01*
X1943247Y48444033D01*
X2127500Y48444033D01*
X2760577Y48444033D01*
X2760577Y48131276D01*
X2127500Y47811322D01*
X2127500Y47561828D01*
X2782660Y47907746D01*
X2783928Y47902411D01*
X2814799Y47831472D01*
X2852909Y47774750D01*
X2904583Y47722026D01*
X2966474Y47679431D01*
X2972619Y47676073D01*
X3044372Y47646166D01*
X3116214Y47630174D01*
X3194352Y47624843D01*
X3202516Y47624896D01*
X3280498Y47631250D01*
X3351824Y47648194D01*
X3422597Y47679065D01*
X3479090Y47717054D01*
X3531563Y47768842D01*
X3573906Y47831106D01*
X3577242Y47837252D01*
X3606947Y47909107D01*
X3622832Y47981192D01*
X3628128Y48059717D01*
X3628128Y48562369D01*
X3628128Y48654326D01*
X2127500Y48654326D01*
X2127500Y48444033D01*
X1943247Y48444033D01*
X1943247Y49493667D01*
X2109914Y49493667D01*
X2112335Y49435595D01*
X2123097Y49362574D01*
X2145496Y49286447D01*
X2178790Y49216696D01*
X2201683Y49180907D01*
X2249786Y49123070D01*
X2306758Y49073694D01*
X2372597Y49032781D01*
X2437833Y49004090D01*
X2508244Y48983596D01*
X2583829Y48971300D01*
X2664590Y48967202D01*
X3091038Y48967202D01*
X3162379Y48970340D01*
X3238846Y48981611D01*
X3309909Y49001080D01*
X3383396Y49032781D01*
X3420963Y49054466D01*
X3481731Y49100080D01*
X3533689Y49154157D01*
X3576837Y49216696D01*
X3600244Y49262488D01*
X3626274Y49336490D01*
X3641408Y49416868D01*
X3645713Y49493667D01*
X3643292Y49551751D01*
X3632530Y49624830D01*
X3610131Y49701076D01*
X3576837Y49771005D01*
X3553953Y49806697D01*
X3505911Y49864451D01*
X3449058Y49913858D01*
X3383396Y49954920D01*
X3318412Y49983450D01*
X3248025Y50003829D01*
X3172233Y50016057D01*
X3091038Y50020132D01*
X2664590Y50020132D01*
X2593641Y50017012D01*
X2517409Y50005803D01*
X2446351Y49986443D01*
X2372597Y49954920D01*
X2334925Y49933138D01*
X2274012Y49887440D01*
X2221967Y49833395D01*
X2178790Y49771005D01*
X2155383Y49725088D01*
X2129353Y49650947D01*
X2114219Y49570489D01*
X2109914Y49493667D01*
X1943247Y49493667D01*
X1943247Y51065736D01*
X2127500Y51065736D01*
X2713682Y51065736D01*
X2713682Y50695708D01*
X2713737Y50687247D01*
X2720349Y50606418D01*
X2737980Y50532459D01*
X2770102Y50459037D01*
X2809873Y50400240D01*
X2864034Y50345728D01*
X2929105Y50301867D01*
X2948713Y50291784D01*
X3018494Y50265337D01*
X3095073Y50249909D01*
X3169806Y50245446D01*
X3195522Y50245942D01*
X3268844Y50253381D01*
X3343584Y50272114D01*
X3411240Y50301867D01*
X3471075Y50341301D01*
X3526479Y50394844D01*
X3570975Y50459037D01*
X3581189Y50478237D01*
X3607979Y50546701D01*
X3623607Y50622035D01*
X3628128Y50695708D01*
X3628128Y51167585D01*
X3628128Y51276029D01*
X2127500Y51276029D01*
X2127500Y51065736D01*
X1943247Y51065736D01*
X1943247Y51442696D01*
X3812380Y51442696D01*
X3812380Y44405262D01*
G37*
G36*
X41658241Y45938649D02*
G01*
X41730661Y45926490D01*
X41800912Y45899893D01*
X41865032Y45854297D01*
X41891313Y45825657D01*
X41930511Y45757966D01*
X41950556Y45685175D01*
X41956257Y45611032D01*
X41956257Y45168464D01*
X41955455Y45139616D01*
X41943429Y45060529D01*
X41913139Y44985775D01*
X41865032Y44924831D01*
X41834806Y44900028D01*
X41763350Y44863034D01*
X41686499Y44844117D01*
X41608211Y44838736D01*
X41337102Y44838736D01*
X41337102Y45940759D01*
X41608211Y45940759D01*
X41658241Y45938649D01*
G37*
G36*
X43128394Y45315192D02*
G01*
X43199525Y45295641D01*
X43260148Y45251995D01*
X43283274Y45220311D01*
X43311152Y45149842D01*
X43319499Y45071377D01*
X43319499Y45068446D01*
X43317051Y45030184D01*
X43294959Y44957180D01*
X43249889Y44897720D01*
X43231050Y44882522D01*
X43163481Y44851175D01*
X43091002Y44836927D01*
X43013584Y44832874D01*
X42693016Y44832874D01*
X42693016Y45319406D01*
X43065242Y45319406D01*
X43128394Y45315192D01*
G37*
G36*
X43098123Y45943141D02*
G01*
X43169671Y45926989D01*
X43234136Y45890934D01*
X43256547Y45868068D01*
X43290808Y45799286D01*
X43300081Y45723139D01*
X43299154Y45697459D01*
X43283331Y45624911D01*
X43240730Y45561939D01*
X43207506Y45537896D01*
X43138376Y45513478D01*
X43065242Y45506984D01*
X42693016Y45506984D01*
X42693016Y45946621D01*
X43036299Y45946621D01*
X43098123Y45943141D01*
G37*
G36*
X44999616Y44455181D02*
G01*
X39562828Y44455181D01*
X39562828Y46140062D01*
X39729495Y46140062D01*
X40218225Y44639433D01*
X40417894Y44639433D01*
X41126808Y44639433D01*
X41268958Y44639433D01*
X41337102Y44639433D01*
X41600884Y44639433D01*
X42483822Y44639433D01*
X42607653Y44639433D01*
X42693016Y44639433D01*
X43091986Y44639433D01*
X43117027Y44639874D01*
X43199460Y44648359D01*
X43273795Y44667644D01*
X43348831Y44702906D01*
X43413288Y44752274D01*
X43420591Y44759419D01*
X43470668Y44821603D01*
X43505908Y44892718D01*
X43526310Y44972763D01*
X43531990Y45050128D01*
X43531990Y45053425D01*
X43531689Y45069886D01*
X43521171Y45148668D01*
X43495625Y45221583D01*
X43455053Y45288631D01*
X43440146Y45307147D01*
X43382501Y45358495D01*
X43312620Y45393887D01*
X43239265Y45412096D01*
X43256603Y45415563D01*
X43327362Y45437649D01*
X43392048Y45474629D01*
X43446261Y45530431D01*
X43481037Y45590452D01*
X43482763Y45595644D01*
X43777820Y45595644D01*
X43777820Y45151611D01*
X43780139Y45093251D01*
X43790443Y45019807D01*
X43811888Y44943148D01*
X43843766Y44872808D01*
X43865680Y44836790D01*
X43911706Y44778540D01*
X43966195Y44728753D01*
X44029146Y44687427D01*
X44083327Y44661874D01*
X44158656Y44638243D01*
X44230967Y44625947D01*
X44308316Y44621848D01*
X44366362Y44624308D01*
X44439268Y44635242D01*
X44515157Y44657998D01*
X44584554Y44691824D01*
X44620026Y44715077D01*
X44677429Y44763922D01*
X44726544Y44821749D01*
X44767370Y44888561D01*
X44796061Y44954644D01*
X44816555Y45026131D01*
X44828851Y45103022D01*
X44832949Y45185316D01*
X44832949Y45448366D01*
X44313445Y45448366D01*
X44313445Y45249064D01*
X44617527Y45249064D01*
X44617527Y45183118D01*
X44615461Y45132374D01*
X44603560Y45058701D01*
X44577526Y44986876D01*
X44532897Y44920801D01*
X44516605Y44904040D01*
X44455182Y44860076D01*
X44382810Y44834431D01*
X44308316Y44827012D01*
X44282152Y44827791D01*
X44209535Y44839480D01*
X44139181Y44868918D01*
X44079704Y44915672D01*
X44064253Y44932808D01*
X44023724Y44997322D01*
X44000082Y45073214D01*
X43993242Y45151244D01*
X43993242Y45596011D01*
X43994559Y45635149D01*
X44007149Y45716051D01*
X44033070Y45787042D01*
X44077506Y45854297D01*
X44093861Y45871844D01*
X44155398Y45917869D01*
X44227741Y45944716D01*
X44302088Y45952483D01*
X44343058Y45949520D01*
X44416262Y45928297D01*
X44480507Y45890567D01*
X44523175Y45851422D01*
X44566632Y45785794D01*
X44592981Y45712148D01*
X44820493Y45712148D01*
X44815266Y45736990D01*
X44794561Y45807924D01*
X44762719Y45880417D01*
X44721575Y45946255D01*
X44712281Y45958584D01*
X44661777Y46015034D01*
X44604547Y46062826D01*
X44540591Y46101960D01*
X44527080Y46108703D01*
X44456733Y46135894D01*
X44381736Y46152209D01*
X44302088Y46157647D01*
X44244042Y46155187D01*
X44171135Y46144253D01*
X44095246Y46121498D01*
X44025849Y46087671D01*
X43990474Y46064532D01*
X43933154Y46015894D01*
X43884008Y45958272D01*
X43843033Y45891667D01*
X43814503Y45825767D01*
X43794124Y45754463D01*
X43781896Y45677756D01*
X43777820Y45595644D01*
X43482763Y45595644D01*
X43504414Y45660773D01*
X43512206Y45735595D01*
X43512101Y45747063D01*
X43505451Y45823248D01*
X43485187Y45901558D01*
X43451413Y45970526D01*
X43404129Y46030152D01*
X43375335Y46055912D01*
X43307099Y46097128D01*
X43235748Y46121922D01*
X43153527Y46136198D01*
X43074401Y46140062D01*
X42693016Y46140062D01*
X42483822Y46140062D01*
X42483822Y44639433D01*
X41600884Y44639433D01*
X41677665Y44642466D01*
X41759147Y44653360D01*
X41833942Y44672176D01*
X41910095Y44702815D01*
X41948558Y44724007D01*
X42010263Y44769142D01*
X42062288Y44823261D01*
X42104635Y44886363D01*
X42130759Y44941481D01*
X42154918Y45019353D01*
X42167489Y45095191D01*
X42171679Y45177256D01*
X42171679Y45602239D01*
X42170369Y45649241D01*
X42162360Y45723070D01*
X42143139Y45804227D01*
X42113433Y45877270D01*
X42073243Y45942198D01*
X42022569Y45999011D01*
X41983460Y46032070D01*
X41917583Y46073393D01*
X41843051Y46104799D01*
X41759863Y46126287D01*
X41683928Y46136618D01*
X41601983Y46140062D01*
X41337102Y46140062D01*
X41126808Y46140062D01*
X41126808Y44639433D01*
X40417894Y44639433D01*
X40906257Y46140062D01*
X40677646Y46140062D01*
X40317876Y44963666D01*
X39958473Y46140062D01*
X39729495Y46140062D01*
X39562828Y46140062D01*
X39562828Y46324314D01*
X44999616Y46324314D01*
X44999616Y44455181D01*
G37*
G36*
X2807472Y33128804D02*
G01*
X2803258Y33065651D01*
X2783707Y32994520D01*
X2740061Y32933898D01*
X2708377Y32910772D01*
X2637908Y32882893D01*
X2559443Y32874547D01*
X2556512Y32874547D01*
X2518250Y32876994D01*
X2445246Y32899087D01*
X2385786Y32944156D01*
X2370588Y32962995D01*
X2339241Y33030565D01*
X2324993Y33103044D01*
X2320940Y33180461D01*
X2320940Y33501030D01*
X2807472Y33501030D01*
X2807472Y33128804D01*
G37*
G36*
X3434687Y33157746D02*
G01*
X3431207Y33095922D01*
X3415055Y33024374D01*
X3379000Y32959910D01*
X3356134Y32937498D01*
X3287352Y32903238D01*
X3211205Y32893964D01*
X3185525Y32894891D01*
X3112977Y32910714D01*
X3050005Y32953315D01*
X3025962Y32986540D01*
X3001544Y33055669D01*
X2995050Y33128804D01*
X2995050Y33501030D01*
X3434687Y33501030D01*
X3434687Y33157746D01*
G37*
G36*
X3428825Y36049826D02*
G01*
X3428574Y36038517D01*
X3410627Y35962643D01*
X3364345Y35902547D01*
X3338834Y35883622D01*
X3267888Y35854691D01*
X3194352Y35846860D01*
X3162276Y35848220D01*
X3088337Y35864480D01*
X3023993Y35902547D01*
X3012535Y35913304D01*
X2972151Y35976556D01*
X2959879Y36049826D01*
X2959879Y36442568D01*
X3428825Y36442568D01*
X3428825Y36049826D01*
G37*
G36*
X3127977Y37802495D02*
G01*
X3206986Y37791241D01*
X3283286Y37762898D01*
X3347493Y37717882D01*
X3364123Y37701332D01*
X3407743Y37639279D01*
X3433188Y37566635D01*
X3440549Y37492202D01*
X3440186Y37474790D01*
X3427463Y37394297D01*
X3396565Y37324752D01*
X3347493Y37266155D01*
X3316901Y37241669D01*
X3246648Y37205147D01*
X3173080Y37186471D01*
X3099464Y37181159D01*
X2656163Y37181159D01*
X2627840Y37181906D01*
X2549208Y37193111D01*
X2472987Y37221333D01*
X2408501Y37266155D01*
X2391805Y37282585D01*
X2348013Y37344466D01*
X2322468Y37417295D01*
X2315078Y37492202D01*
X2315443Y37509484D01*
X2328216Y37589540D01*
X2359235Y37659007D01*
X2408501Y37717882D01*
X2439277Y37742474D01*
X2509630Y37779154D01*
X2582982Y37797910D01*
X2656163Y37803245D01*
X3099464Y37803245D01*
X3127977Y37802495D01*
G37*
G36*
X3428825Y38687282D02*
G01*
X3426327Y38649982D01*
X3403769Y38579062D01*
X3357751Y38521686D01*
X3314297Y38491579D01*
X3244908Y38466763D01*
X3169806Y38459404D01*
X3121580Y38462384D01*
X3048697Y38481360D01*
X2983693Y38521686D01*
X2963323Y38542150D01*
X2924654Y38610111D01*
X2912984Y38687282D01*
X2912984Y39064271D01*
X3428825Y39064271D01*
X3428825Y38687282D01*
G37*
G36*
X3812380Y32495388D02*
G01*
X1943247Y32495388D01*
X1943247Y33586393D01*
X2127500Y33586393D01*
X2127500Y33102059D01*
X2127940Y33077019D01*
X2136425Y32994585D01*
X2155710Y32920251D01*
X2190972Y32845215D01*
X2240340Y32780757D01*
X2247485Y32773455D01*
X2309669Y32723377D01*
X2380784Y32688137D01*
X2460829Y32667736D01*
X2538194Y32662055D01*
X2541491Y32662055D01*
X2557952Y32662356D01*
X2636734Y32672875D01*
X2709649Y32698420D01*
X2776697Y32738992D01*
X2795213Y32753899D01*
X2846561Y32811545D01*
X2881953Y32881426D01*
X2900162Y32954781D01*
X2903629Y32937443D01*
X2925715Y32866683D01*
X2962695Y32801997D01*
X3018497Y32747785D01*
X3078518Y32713009D01*
X3148839Y32689632D01*
X3223661Y32681839D01*
X3235129Y32681945D01*
X3311314Y32688594D01*
X3389624Y32708858D01*
X3458592Y32742633D01*
X3518218Y32789917D01*
X3543978Y32818711D01*
X3585194Y32886946D01*
X3609988Y32958297D01*
X3624264Y33040518D01*
X3628128Y33119644D01*
X3628128Y33586393D01*
X3628128Y33710224D01*
X2127500Y33710224D01*
X2127500Y33586393D01*
X1943247Y33586393D01*
X1943247Y35066504D01*
X2127500Y35066504D01*
X2127500Y34856577D01*
X3428825Y34856577D01*
X3428825Y34433060D01*
X3628128Y34433060D01*
X3628128Y35490021D01*
X3428825Y35490021D01*
X3428825Y35066504D01*
X2127500Y35066504D01*
X1943247Y35066504D01*
X1943247Y36442568D01*
X2127500Y36442568D01*
X2760577Y36442568D01*
X2760577Y36129811D01*
X2127500Y35809857D01*
X2127500Y35560363D01*
X2782660Y35906281D01*
X2783928Y35900946D01*
X2814799Y35830007D01*
X2852909Y35773285D01*
X2904583Y35720561D01*
X2966474Y35677966D01*
X2972619Y35674608D01*
X3044372Y35644701D01*
X3116214Y35628709D01*
X3194352Y35623378D01*
X3202516Y35623431D01*
X3280498Y35629785D01*
X3351824Y35646729D01*
X3422597Y35677600D01*
X3479090Y35715589D01*
X3531563Y35767377D01*
X3573906Y35829641D01*
X3577242Y35835787D01*
X3606947Y35907642D01*
X3622832Y35979727D01*
X3628128Y36058252D01*
X3628128Y36560904D01*
X3628128Y36652861D01*
X2127500Y36652861D01*
X2127500Y36442568D01*
X1943247Y36442568D01*
X1943247Y37492202D01*
X2109914Y37492202D01*
X2112335Y37434130D01*
X2123097Y37361109D01*
X2145496Y37284982D01*
X2178790Y37215231D01*
X2201683Y37179442D01*
X2249786Y37121605D01*
X2306758Y37072229D01*
X2372597Y37031316D01*
X2437833Y37002625D01*
X2508244Y36982131D01*
X2583829Y36969835D01*
X2664590Y36965737D01*
X3091038Y36965737D01*
X3162379Y36968875D01*
X3238846Y36980146D01*
X3309909Y36999615D01*
X3383396Y37031316D01*
X3420963Y37053001D01*
X3481731Y37098615D01*
X3533689Y37152692D01*
X3576837Y37215231D01*
X3600244Y37261023D01*
X3626274Y37335025D01*
X3641408Y37415403D01*
X3645713Y37492202D01*
X3643292Y37550286D01*
X3632530Y37623365D01*
X3610131Y37699611D01*
X3576837Y37769540D01*
X3553953Y37805232D01*
X3505911Y37862986D01*
X3449058Y37912393D01*
X3383396Y37953455D01*
X3318412Y37981985D01*
X3248025Y38002364D01*
X3172233Y38014592D01*
X3091038Y38018667D01*
X2664590Y38018667D01*
X2593641Y38015547D01*
X2517409Y38004338D01*
X2446351Y37984978D01*
X2372597Y37953455D01*
X2334925Y37931673D01*
X2274012Y37885975D01*
X2221967Y37831930D01*
X2178790Y37769540D01*
X2155383Y37723623D01*
X2129353Y37649482D01*
X2114219Y37569024D01*
X2109914Y37492202D01*
X1943247Y37492202D01*
X1943247Y39064271D01*
X2127500Y39064271D01*
X2713682Y39064271D01*
X2713682Y38694243D01*
X2713737Y38685782D01*
X2720349Y38604953D01*
X2737980Y38530994D01*
X2770102Y38457572D01*
X2809873Y38398775D01*
X2864034Y38344263D01*
X2929105Y38300402D01*
X2948713Y38290319D01*
X3018494Y38263872D01*
X3095073Y38248444D01*
X3169806Y38243981D01*
X3195522Y38244477D01*
X3268844Y38251916D01*
X3343584Y38270649D01*
X3411240Y38300402D01*
X3471075Y38339836D01*
X3526479Y38393379D01*
X3570975Y38457572D01*
X3581189Y38476772D01*
X3607979Y38545236D01*
X3623607Y38620570D01*
X3628128Y38694243D01*
X3628128Y39166120D01*
X3628128Y39274564D01*
X2127500Y39274564D01*
X2127500Y39064271D01*
X1943247Y39064271D01*
X1943247Y39441231D01*
X3812380Y39441231D01*
X3812380Y32495388D01*
G37*
G36*
X44391129Y50475192D02*
G01*
X44462260Y50455641D01*
X44522883Y50411995D01*
X44546009Y50380311D01*
X44573888Y50309842D01*
X44582234Y50231377D01*
X44582234Y50228446D01*
X44579787Y50190184D01*
X44557694Y50117180D01*
X44512625Y50057720D01*
X44493786Y50042522D01*
X44426216Y50011175D01*
X44353737Y49996927D01*
X44276320Y49992874D01*
X43955751Y49992874D01*
X43955751Y50479406D01*
X44327977Y50479406D01*
X44391129Y50475192D01*
G37*
G36*
X44360858Y51103141D02*
G01*
X44432407Y51086989D01*
X44496871Y51050934D01*
X44519282Y51028068D01*
X44553543Y50959286D01*
X44562817Y50883139D01*
X44561889Y50857459D01*
X44546066Y50784911D01*
X44503466Y50721939D01*
X44470241Y50697896D01*
X44401111Y50673478D01*
X44327977Y50666984D01*
X43955751Y50666984D01*
X43955751Y51106621D01*
X44299034Y51106621D01*
X44360858Y51103141D01*
G37*
G36*
X44961392Y49615181D02*
G01*
X39606303Y49615181D01*
X39606303Y51300062D01*
X39772970Y51300062D01*
X40261700Y49799433D01*
X40461369Y49799433D01*
X40637590Y50340920D01*
X41118992Y50340920D01*
X41120200Y50291971D01*
X41127579Y50215097D01*
X41145289Y50130617D01*
X41172659Y50054612D01*
X41209689Y49987082D01*
X41256379Y49928027D01*
X41283196Y49901904D01*
X41342762Y49857364D01*
X41410236Y49823104D01*
X41485618Y49799121D01*
X41568909Y49785417D01*
X41644359Y49781848D01*
X41675375Y49782419D01*
X41763084Y49790984D01*
X41842781Y49809828D01*
X41914467Y49838949D01*
X41978141Y49878349D01*
X42033804Y49928027D01*
X42066176Y49966456D01*
X42067117Y49967961D01*
X42381850Y49967961D01*
X42409701Y49945464D01*
X42472607Y49901669D01*
X42539020Y49864646D01*
X42570920Y49849843D01*
X42643040Y49822718D01*
X42719272Y49802364D01*
X42774485Y49792447D01*
X42851258Y49784272D01*
X42924802Y49781848D01*
X42957085Y49782292D01*
X43033760Y49787283D01*
X43110817Y49799433D01*
X43746557Y49799433D01*
X43870388Y49799433D01*
X43955751Y49799433D01*
X44354722Y49799433D01*
X44379762Y49799874D01*
X44462196Y49808359D01*
X44536530Y49827644D01*
X44611566Y49862906D01*
X44676023Y49912274D01*
X44683326Y49919419D01*
X44733404Y49981603D01*
X44768643Y50052718D01*
X44789045Y50132763D01*
X44794725Y50210128D01*
X44794725Y50213425D01*
X44794425Y50229886D01*
X44783906Y50308668D01*
X44758361Y50381583D01*
X44717789Y50448631D01*
X44702881Y50467147D01*
X44645236Y50518495D01*
X44575355Y50553887D01*
X44502000Y50572096D01*
X44519338Y50575563D01*
X44590097Y50597649D01*
X44654784Y50634629D01*
X44708996Y50690431D01*
X44743772Y50750452D01*
X44767149Y50820773D01*
X44774941Y50895595D01*
X44774836Y50907063D01*
X44768187Y50983248D01*
X44747922Y51061558D01*
X44714148Y51130526D01*
X44666864Y51190152D01*
X44638070Y51215912D01*
X44569835Y51257128D01*
X44498483Y51281922D01*
X44416262Y51296198D01*
X44337136Y51300062D01*
X43955751Y51300062D01*
X43746557Y51300062D01*
X43746557Y49799433D01*
X43110817Y49799433D01*
X43118167Y49800592D01*
X43194279Y49821887D01*
X43262097Y49851167D01*
X43330734Y49895421D01*
X43372318Y49933326D01*
X43418695Y49994116D01*
X43451258Y50063917D01*
X43470006Y50142730D01*
X43475081Y50217455D01*
X43475081Y50219653D01*
X43473135Y50271282D01*
X43460745Y50349430D01*
X43434415Y50419322D01*
X43429227Y50428766D01*
X43383659Y50491475D01*
X43326337Y50539856D01*
X43313566Y50547981D01*
X43245747Y50583004D01*
X43176494Y50607267D01*
X43155886Y50613020D01*
X43083758Y50631442D01*
X43011630Y50647200D01*
X42988830Y50651912D01*
X42912003Y50669032D01*
X42839805Y50687134D01*
X42771611Y50712127D01*
X42710479Y50752713D01*
X42673384Y50807210D01*
X42661020Y50882040D01*
X42661020Y50883139D01*
X42665087Y50929892D01*
X42694221Y51003696D01*
X42746016Y51056796D01*
X42756908Y51064249D01*
X42826383Y51096646D01*
X42903591Y51113476D01*
X42984519Y51118345D01*
X43005940Y51117858D01*
X43080733Y51108492D01*
X43155245Y51087204D01*
X43192449Y51072162D01*
X43261634Y51035856D01*
X43325604Y50992682D01*
X43445406Y51160477D01*
X43424880Y51175026D01*
X43362647Y51214384D01*
X43292344Y51250569D01*
X43220824Y51278812D01*
X43206377Y51283515D01*
X43133498Y51302477D01*
X43059545Y51313855D01*
X42984519Y51317647D01*
X42968808Y51317534D01*
X42893591Y51313590D01*
X42810674Y51301418D01*
X42735768Y51281132D01*
X42658503Y51247210D01*
X42592143Y51202242D01*
X42552036Y51163871D01*
X42507307Y51102397D01*
X42475901Y51031876D01*
X42457819Y50952310D01*
X42452925Y50876911D01*
X42452925Y50875812D01*
X42455650Y50813347D01*
X42468295Y50738225D01*
X42496522Y50665519D01*
X42505013Y50651137D01*
X42551195Y50592453D01*
X42612660Y50544985D01*
X42630921Y50534887D01*
X42698260Y50504954D01*
X42770929Y50483436D01*
X42792424Y50478656D01*
X42867207Y50463098D01*
X42941288Y50449364D01*
X42957584Y50446548D01*
X43030393Y50431622D01*
X43102489Y50412361D01*
X43161704Y50388569D01*
X43221557Y50344584D01*
X43255629Y50289079D01*
X43266986Y50213425D01*
X43266986Y50212326D01*
X43262691Y50166733D01*
X43231924Y50094431D01*
X43177227Y50041967D01*
X43147494Y50024446D01*
X43077241Y49998314D01*
X43001716Y49984951D01*
X42924802Y49981150D01*
X42851186Y49984764D01*
X42774175Y49997086D01*
X42701320Y50018153D01*
X42638659Y50045086D01*
X42573616Y50082978D01*
X42512642Y50129528D01*
X42381850Y49967961D01*
X42067117Y49967961D01*
X42106640Y50031160D01*
X42137394Y50104340D01*
X42158435Y50185995D01*
X42168551Y50260515D01*
X42171923Y50340920D01*
X42171923Y51300062D01*
X41961997Y51300062D01*
X41961997Y50331761D01*
X41960697Y50291798D01*
X41948271Y50210381D01*
X41922688Y50140729D01*
X41878832Y50077138D01*
X41862702Y50061031D01*
X41800191Y50018785D01*
X41724228Y49994141D01*
X41644359Y49987012D01*
X41616790Y49987804D01*
X41541233Y49999686D01*
X41469856Y50029610D01*
X41411717Y50077138D01*
X41387970Y50107118D01*
X41352550Y50177972D01*
X41334438Y50254160D01*
X41329286Y50331761D01*
X41329286Y51300062D01*
X41118992Y51300062D01*
X41118992Y50340920D01*
X40637590Y50340920D01*
X40949732Y51300062D01*
X40721121Y51300062D01*
X40361351Y50123666D01*
X40001948Y51300062D01*
X39772970Y51300062D01*
X39606303Y51300062D01*
X39606303Y51484314D01*
X44961392Y51484314D01*
X44961392Y49615181D01*
G37*
G36*
X44805240Y47009455D02*
G01*
X39777680Y47009455D01*
X39777680Y48694336D01*
X39944347Y48694336D01*
X40433077Y47193707D01*
X40632746Y47193707D01*
X40687592Y47362235D01*
X41218196Y47362235D01*
X41246047Y47339738D01*
X41308953Y47295943D01*
X41375366Y47258920D01*
X41407265Y47244117D01*
X41479385Y47216992D01*
X41555617Y47196638D01*
X41610830Y47186721D01*
X41687604Y47178546D01*
X41761148Y47176122D01*
X41793431Y47176566D01*
X41870106Y47181557D01*
X41954513Y47194866D01*
X42030625Y47216161D01*
X42098442Y47245441D01*
X42167079Y47289695D01*
X42208664Y47327600D01*
X42255041Y47388390D01*
X42287604Y47458191D01*
X42306352Y47537004D01*
X42311427Y47611729D01*
X42311427Y47613927D01*
X42309481Y47665556D01*
X42297090Y47743704D01*
X42270760Y47813596D01*
X42265572Y47823040D01*
X42220004Y47885749D01*
X42162683Y47934130D01*
X42149911Y47942255D01*
X42082093Y47977278D01*
X42012840Y48001541D01*
X41992232Y48007294D01*
X41920104Y48025716D01*
X41847976Y48041474D01*
X41825175Y48046186D01*
X41748349Y48063306D01*
X41676151Y48081408D01*
X41607957Y48106401D01*
X41546824Y48146987D01*
X41509730Y48201484D01*
X41497365Y48276314D01*
X41497365Y48277413D01*
X41501432Y48324166D01*
X41530567Y48397970D01*
X41582362Y48451070D01*
X41593254Y48458523D01*
X41662728Y48490920D01*
X41739937Y48507750D01*
X41820865Y48512619D01*
X41842286Y48512132D01*
X41917078Y48502766D01*
X41991591Y48481478D01*
X42028794Y48466436D01*
X42097979Y48430130D01*
X42161950Y48386956D01*
X42281751Y48554751D01*
X42261226Y48569300D01*
X42198993Y48608658D01*
X42128690Y48644843D01*
X42057170Y48673086D01*
X42042723Y48677789D01*
X41979125Y48694336D01*
X42387264Y48694336D01*
X42843754Y47803704D01*
X42843754Y47193707D01*
X43053681Y47193707D01*
X43053681Y47362235D01*
X43545342Y47362235D01*
X43573192Y47339738D01*
X43636099Y47295943D01*
X43702512Y47258920D01*
X43734411Y47244117D01*
X43806531Y47216992D01*
X43882763Y47196638D01*
X43937976Y47186721D01*
X44014750Y47178546D01*
X44088293Y47176122D01*
X44120576Y47176566D01*
X44197252Y47181557D01*
X44281659Y47194866D01*
X44357771Y47216161D01*
X44425588Y47245441D01*
X44494225Y47289695D01*
X44535809Y47327600D01*
X44582187Y47388390D01*
X44614750Y47458191D01*
X44633498Y47537004D01*
X44638573Y47611729D01*
X44638573Y47613927D01*
X44636627Y47665556D01*
X44624236Y47743704D01*
X44597906Y47813596D01*
X44592718Y47823040D01*
X44547150Y47885749D01*
X44489829Y47934130D01*
X44477057Y47942255D01*
X44409238Y47977278D01*
X44339986Y48001541D01*
X44319378Y48007294D01*
X44247250Y48025716D01*
X44175122Y48041474D01*
X44152321Y48046186D01*
X44075495Y48063306D01*
X44003297Y48081408D01*
X43935103Y48106401D01*
X43873970Y48146987D01*
X43836876Y48201484D01*
X43824511Y48276314D01*
X43824511Y48277413D01*
X43828578Y48324166D01*
X43857713Y48397970D01*
X43909508Y48451070D01*
X43920400Y48458523D01*
X43989874Y48490920D01*
X44067083Y48507750D01*
X44148011Y48512619D01*
X44169432Y48512132D01*
X44244224Y48502766D01*
X44318736Y48481478D01*
X44355940Y48466436D01*
X44425125Y48430130D01*
X44489096Y48386956D01*
X44608897Y48554751D01*
X44588372Y48569300D01*
X44526139Y48608658D01*
X44455835Y48644843D01*
X44384316Y48673086D01*
X44369869Y48677789D01*
X44296989Y48696751D01*
X44223037Y48708129D01*
X44148011Y48711921D01*
X44132300Y48711808D01*
X44057082Y48707864D01*
X43974165Y48695692D01*
X43899259Y48675406D01*
X43821995Y48641484D01*
X43755635Y48596516D01*
X43715528Y48558145D01*
X43670798Y48496671D01*
X43639393Y48426150D01*
X43621311Y48346584D01*
X43616416Y48271185D01*
X43616416Y48270086D01*
X43619141Y48207621D01*
X43631786Y48132499D01*
X43660014Y48059793D01*
X43668505Y48045411D01*
X43714687Y47986727D01*
X43776151Y47939259D01*
X43794412Y47929161D01*
X43861751Y47899228D01*
X43934420Y47877710D01*
X43955916Y47872930D01*
X44030698Y47857372D01*
X44104780Y47843638D01*
X44121075Y47840822D01*
X44193884Y47825896D01*
X44265980Y47806635D01*
X44325195Y47782843D01*
X44385048Y47738858D01*
X44419120Y47683353D01*
X44430478Y47607699D01*
X44430478Y47606600D01*
X44426182Y47561007D01*
X44395415Y47488705D01*
X44340718Y47436241D01*
X44310985Y47418720D01*
X44240732Y47392588D01*
X44165207Y47379225D01*
X44088293Y47375424D01*
X44014677Y47379038D01*
X43937666Y47391360D01*
X43864811Y47412427D01*
X43802150Y47439360D01*
X43737107Y47477252D01*
X43676134Y47523802D01*
X43545342Y47362235D01*
X43053681Y47362235D01*
X43053681Y47803704D01*
X43510171Y48694336D01*
X43276430Y48694336D01*
X42948534Y48017294D01*
X42621004Y48694336D01*
X42387264Y48694336D01*
X41979125Y48694336D01*
X41969843Y48696751D01*
X41895891Y48708129D01*
X41820865Y48711921D01*
X41805154Y48711808D01*
X41729936Y48707864D01*
X41647019Y48695692D01*
X41572114Y48675406D01*
X41494849Y48641484D01*
X41428489Y48596516D01*
X41388382Y48558145D01*
X41343653Y48496671D01*
X41312247Y48426150D01*
X41294165Y48346584D01*
X41289270Y48271185D01*
X41289270Y48270086D01*
X41291995Y48207621D01*
X41304640Y48132499D01*
X41332868Y48059793D01*
X41341359Y48045411D01*
X41387541Y47986727D01*
X41449005Y47939259D01*
X41467266Y47929161D01*
X41534606Y47899228D01*
X41607275Y47877710D01*
X41628770Y47872930D01*
X41703552Y47857372D01*
X41777634Y47843638D01*
X41793929Y47840822D01*
X41866738Y47825896D01*
X41938834Y47806635D01*
X41998049Y47782843D01*
X42057903Y47738858D01*
X42091974Y47683353D01*
X42103332Y47607699D01*
X42103332Y47606600D01*
X42099037Y47561007D01*
X42068270Y47488705D01*
X42013573Y47436241D01*
X41983839Y47418720D01*
X41913586Y47392588D01*
X41838061Y47379225D01*
X41761148Y47375424D01*
X41687531Y47379038D01*
X41610520Y47391360D01*
X41537665Y47412427D01*
X41475004Y47439360D01*
X41409961Y47477252D01*
X41348988Y47523802D01*
X41218196Y47362235D01*
X40687592Y47362235D01*
X41121109Y48694336D01*
X40892498Y48694336D01*
X40532728Y47517940D01*
X40173325Y48694336D01*
X39944347Y48694336D01*
X39777680Y48694336D01*
X39777680Y48878588D01*
X44805240Y48878588D01*
X44805240Y47009455D01*
G37*
G36*
X3428825Y24021249D02*
G01*
X3428574Y24009940D01*
X3410627Y23934066D01*
X3364345Y23873970D01*
X3338834Y23855045D01*
X3267888Y23826114D01*
X3194352Y23818283D01*
X3162276Y23819643D01*
X3088337Y23835903D01*
X3023993Y23873970D01*
X3012535Y23884727D01*
X2972151Y23947979D01*
X2959879Y24021249D01*
X2959879Y24413991D01*
X3428825Y24413991D01*
X3428825Y24021249D01*
G37*
G36*
X3127977Y25773918D02*
G01*
X3206986Y25762664D01*
X3283286Y25734321D01*
X3347493Y25689305D01*
X3364123Y25672755D01*
X3407743Y25610702D01*
X3433188Y25538058D01*
X3440549Y25463625D01*
X3440186Y25446213D01*
X3427463Y25365720D01*
X3396565Y25296175D01*
X3347493Y25237578D01*
X3316901Y25213092D01*
X3246648Y25176570D01*
X3173080Y25157894D01*
X3099464Y25152582D01*
X2656163Y25152582D01*
X2627840Y25153329D01*
X2549208Y25164534D01*
X2472987Y25192756D01*
X2408501Y25237578D01*
X2391805Y25254008D01*
X2348013Y25315889D01*
X2322468Y25388718D01*
X2315078Y25463625D01*
X2315443Y25480907D01*
X2328216Y25560963D01*
X2359235Y25630430D01*
X2408501Y25689305D01*
X2439277Y25713897D01*
X2509630Y25750577D01*
X2582982Y25769333D01*
X2656163Y25774668D01*
X3099464Y25774668D01*
X3127977Y25773918D01*
G37*
G36*
X3428825Y26658705D02*
G01*
X3426327Y26621405D01*
X3403769Y26550485D01*
X3357751Y26493109D01*
X3314297Y26463002D01*
X3244908Y26438186D01*
X3169806Y26430827D01*
X3121580Y26433807D01*
X3048697Y26452783D01*
X2983693Y26493109D01*
X2963323Y26513573D01*
X2924654Y26581534D01*
X2912984Y26658705D01*
X2912984Y27035694D01*
X3428825Y27035694D01*
X3428825Y26658705D01*
G37*
G36*
X3812380Y20508211D02*
G01*
X1943247Y20508211D01*
X1943247Y21191085D01*
X2109914Y21191085D01*
X2110132Y21174962D01*
X2117745Y21097009D01*
X2136235Y21023493D01*
X2165601Y20954414D01*
X2172781Y20941129D01*
X2213876Y20878696D01*
X2263628Y20822919D01*
X2322039Y20773796D01*
X2341160Y20760476D01*
X2409224Y20722122D01*
X2483942Y20693071D01*
X2556878Y20674878D01*
X2556878Y20890300D01*
X2495280Y20911513D01*
X2431799Y20949720D01*
X2377360Y21006804D01*
X2353092Y21045174D01*
X2325357Y21113481D01*
X2315078Y21191085D01*
X2315459Y21208138D01*
X2328782Y21287049D01*
X2361140Y21355371D01*
X2412531Y21413102D01*
X2451291Y21441614D01*
X2517739Y21473321D01*
X2594156Y21491755D01*
X2670451Y21496999D01*
X3084077Y21496999D01*
X3123215Y21495688D01*
X3204117Y21483153D01*
X3275108Y21457344D01*
X3342363Y21413102D01*
X3359910Y21396894D01*
X3405935Y21335986D01*
X3432782Y21264488D01*
X3440549Y21191085D01*
X3434799Y21134154D01*
X3410507Y21063224D01*
X3376949Y21008720D01*
X3325877Y20955513D01*
X3270756Y20918375D01*
X3198749Y20890300D01*
X3198749Y20674878D01*
X3223660Y20680102D01*
X3294799Y20700758D01*
X3367521Y20732478D01*
X3433588Y20773430D01*
X3445962Y20782635D01*
X3502591Y20832781D01*
X3550490Y20889796D01*
X3589659Y20953681D01*
X3596447Y20967231D01*
X3623817Y21037555D01*
X3640239Y21112173D01*
X3645713Y21191085D01*
X3644005Y21239023D01*
X3632319Y21320535D01*
X3609564Y21395902D01*
X3575737Y21465125D01*
X3552598Y21500588D01*
X3503960Y21557930D01*
X3446338Y21606925D01*
X3379733Y21647575D01*
X3313833Y21675945D01*
X3242529Y21696210D01*
X3165822Y21708368D01*
X3083710Y21712421D01*
X2670818Y21712421D01*
X2599103Y21709318D01*
X2522081Y21698173D01*
X2450325Y21678921D01*
X2375894Y21647575D01*
X2337773Y21626022D01*
X2276097Y21580736D01*
X2223347Y21527104D01*
X2179523Y21465125D01*
X2155867Y21419659D01*
X2129560Y21346340D01*
X2114265Y21266876D01*
X2109914Y21191085D01*
X1943247Y21191085D01*
X1943247Y23037927D01*
X2127500Y23037927D01*
X2127500Y22828000D01*
X3428825Y22828000D01*
X3428825Y22404483D01*
X3628128Y22404483D01*
X3628128Y23461444D01*
X3428825Y23461444D01*
X3428825Y23037927D01*
X2127500Y23037927D01*
X1943247Y23037927D01*
X1943247Y24413991D01*
X2127500Y24413991D01*
X2760577Y24413991D01*
X2760577Y24101234D01*
X2127500Y23781280D01*
X2127500Y23531786D01*
X2782660Y23877704D01*
X2783928Y23872369D01*
X2814799Y23801430D01*
X2852909Y23744708D01*
X2904583Y23691984D01*
X2966474Y23649389D01*
X2972619Y23646031D01*
X3044372Y23616124D01*
X3116214Y23600132D01*
X3194352Y23594801D01*
X3202516Y23594854D01*
X3280498Y23601208D01*
X3351824Y23618152D01*
X3422597Y23649023D01*
X3479090Y23687012D01*
X3531563Y23738800D01*
X3573906Y23801064D01*
X3577242Y23807210D01*
X3606947Y23879065D01*
X3622832Y23951150D01*
X3628128Y24029675D01*
X3628128Y24532327D01*
X3628128Y24624284D01*
X2127500Y24624284D01*
X2127500Y24413991D01*
X1943247Y24413991D01*
X1943247Y25463625D01*
X2109914Y25463625D01*
X2112335Y25405553D01*
X2123097Y25332532D01*
X2145496Y25256405D01*
X2178790Y25186654D01*
X2201683Y25150865D01*
X2249786Y25093028D01*
X2306758Y25043652D01*
X2372597Y25002739D01*
X2437833Y24974048D01*
X2508244Y24953554D01*
X2583829Y24941258D01*
X2664590Y24937160D01*
X3091038Y24937160D01*
X3162379Y24940298D01*
X3238846Y24951569D01*
X3309909Y24971038D01*
X3383396Y25002739D01*
X3420963Y25024424D01*
X3481731Y25070038D01*
X3533689Y25124115D01*
X3576837Y25186654D01*
X3600244Y25232446D01*
X3626274Y25306448D01*
X3641408Y25386826D01*
X3645713Y25463625D01*
X3643292Y25521709D01*
X3632530Y25594788D01*
X3610131Y25671034D01*
X3576837Y25740963D01*
X3553953Y25776655D01*
X3505911Y25834409D01*
X3449058Y25883816D01*
X3383396Y25924878D01*
X3318412Y25953408D01*
X3248025Y25973787D01*
X3172233Y25986015D01*
X3091038Y25990090D01*
X2664590Y25990090D01*
X2593641Y25986970D01*
X2517409Y25975761D01*
X2446351Y25956401D01*
X2372597Y25924878D01*
X2334925Y25903096D01*
X2274012Y25857398D01*
X2221967Y25803353D01*
X2178790Y25740963D01*
X2155383Y25695046D01*
X2129353Y25620905D01*
X2114219Y25540447D01*
X2109914Y25463625D01*
X1943247Y25463625D01*
X1943247Y27035694D01*
X2127500Y27035694D01*
X2713682Y27035694D01*
X2713682Y26665666D01*
X2713737Y26657205D01*
X2720349Y26576376D01*
X2737980Y26502417D01*
X2770102Y26428995D01*
X2809873Y26370198D01*
X2864034Y26315686D01*
X2929105Y26271825D01*
X2948713Y26261742D01*
X3018494Y26235295D01*
X3095073Y26219867D01*
X3169806Y26215404D01*
X3195522Y26215900D01*
X3268844Y26223339D01*
X3343584Y26242072D01*
X3411240Y26271825D01*
X3471075Y26311259D01*
X3526479Y26364802D01*
X3570975Y26428995D01*
X3581189Y26448195D01*
X3607979Y26516659D01*
X3623607Y26591993D01*
X3628128Y26665666D01*
X3628128Y27137543D01*
X3628128Y27245987D01*
X2127500Y27245987D01*
X2127500Y27035694D01*
X1943247Y27035694D01*
X1943247Y27412654D01*
X3812380Y27412654D01*
X3812380Y20508211D01*
G37*
G36*
X53899021Y33419625D02*
G01*
X53978108Y33407598D01*
X54052862Y33377309D01*
X54113806Y33329202D01*
X54138609Y33298975D01*
X54175603Y33227520D01*
X54194520Y33150668D01*
X54199901Y33072380D01*
X54199901Y32801271D01*
X53097878Y32801271D01*
X53097878Y33072380D01*
X53099988Y33122410D01*
X53112147Y33194830D01*
X53138744Y33265081D01*
X53184340Y33329202D01*
X53212980Y33355482D01*
X53280671Y33394680D01*
X53353462Y33414725D01*
X53427605Y33420427D01*
X53870173Y33420427D01*
X53899021Y33419625D01*
G37*
G36*
X53341178Y34763323D02*
G01*
X53413726Y34747500D01*
X53476698Y34704900D01*
X53500741Y34671675D01*
X53525159Y34602546D01*
X53531653Y34529411D01*
X53531653Y34157185D01*
X53092016Y34157185D01*
X53092016Y34500468D01*
X53095496Y34562292D01*
X53111648Y34633841D01*
X53147703Y34698305D01*
X53170569Y34720716D01*
X53239351Y34754977D01*
X53315498Y34764251D01*
X53341178Y34763323D01*
G37*
G36*
X54008453Y34781221D02*
G01*
X54081457Y34759128D01*
X54140917Y34714059D01*
X54156115Y34695220D01*
X54187462Y34627650D01*
X54201710Y34555171D01*
X54205763Y34477754D01*
X54205763Y34157185D01*
X53719231Y34157185D01*
X53719231Y34529411D01*
X53723445Y34592563D01*
X53742996Y34663694D01*
X53786642Y34724317D01*
X53818326Y34747443D01*
X53888795Y34775322D01*
X53967260Y34783668D01*
X53970191Y34783668D01*
X54008453Y34781221D01*
G37*
G36*
X54583456Y32424311D02*
G01*
X52714323Y32424311D01*
X52714323Y33066152D01*
X52898575Y33066152D01*
X52898575Y32801271D01*
X52898575Y32590978D01*
X54399204Y32590978D01*
X54399204Y32801271D01*
X54399204Y33065053D01*
X54396171Y33141834D01*
X54385277Y33223316D01*
X54366461Y33298112D01*
X54335822Y33374265D01*
X54314630Y33412728D01*
X54269495Y33474432D01*
X54215376Y33526458D01*
X54152274Y33568804D01*
X54097156Y33594928D01*
X54019284Y33619088D01*
X53943446Y33631658D01*
X53861381Y33635849D01*
X53436398Y33635849D01*
X53389396Y33634538D01*
X53315567Y33626529D01*
X53234410Y33607308D01*
X53161367Y33577603D01*
X53096439Y33537413D01*
X53039626Y33486738D01*
X53006567Y33447629D01*
X52965244Y33381752D01*
X52933838Y33307220D01*
X52912350Y33224032D01*
X52902019Y33148098D01*
X52898575Y33066152D01*
X52714323Y33066152D01*
X52714323Y34538570D01*
X52898575Y34538570D01*
X52898575Y34157185D01*
X52898575Y33947991D01*
X54399204Y33947991D01*
X54399204Y34157185D01*
X54399204Y34556156D01*
X54398763Y34581196D01*
X54390278Y34663630D01*
X54370993Y34737964D01*
X54335731Y34813000D01*
X54286363Y34877457D01*
X54279218Y34884760D01*
X54217034Y34934838D01*
X54145919Y34970077D01*
X54065874Y34990479D01*
X53988509Y34996159D01*
X53985212Y34996159D01*
X53968751Y34995859D01*
X53889969Y34985340D01*
X53817054Y34959795D01*
X53750006Y34919223D01*
X53731490Y34904315D01*
X53680142Y34846670D01*
X53644750Y34776789D01*
X53626541Y34703434D01*
X53623074Y34720772D01*
X53600988Y34791532D01*
X53564008Y34856218D01*
X53508206Y34910430D01*
X53448185Y34945206D01*
X53377864Y34968583D01*
X53303042Y34976376D01*
X53291574Y34976270D01*
X53215389Y34969621D01*
X53137079Y34949356D01*
X53068111Y34915582D01*
X53008485Y34868298D01*
X52982725Y34839504D01*
X52941509Y34771269D01*
X52916715Y34699917D01*
X52902439Y34617696D01*
X52898575Y34538570D01*
X52714323Y34538570D01*
X52714323Y35766257D01*
X52880990Y35766257D01*
X52883450Y35708211D01*
X52894384Y35635305D01*
X52917139Y35559416D01*
X52950966Y35490018D01*
X52974105Y35454643D01*
X53022743Y35397324D01*
X53080365Y35348177D01*
X53146970Y35307203D01*
X53212870Y35278672D01*
X53284174Y35258293D01*
X53360881Y35246065D01*
X53442993Y35241990D01*
X53887026Y35241990D01*
X53945386Y35244308D01*
X54018830Y35254612D01*
X54095489Y35276057D01*
X54165829Y35307935D01*
X54201847Y35329849D01*
X54260097Y35375876D01*
X54309884Y35430365D01*
X54351210Y35493316D01*
X54376763Y35547497D01*
X54400394Y35622825D01*
X54412690Y35695136D01*
X54416789Y35772485D01*
X54414329Y35830531D01*
X54403395Y35903437D01*
X54380639Y35979326D01*
X54346813Y36048724D01*
X54323560Y36084196D01*
X54274715Y36141599D01*
X54216888Y36190713D01*
X54150076Y36231540D01*
X54083993Y36260230D01*
X54012506Y36280724D01*
X53935615Y36293020D01*
X53853321Y36297119D01*
X53590271Y36297119D01*
X53590271Y35777614D01*
X53789573Y35777614D01*
X53789573Y36081697D01*
X53855519Y36081697D01*
X53906263Y36079630D01*
X53979936Y36067729D01*
X54051761Y36041696D01*
X54117836Y35997066D01*
X54134597Y35980774D01*
X54178561Y35919351D01*
X54204206Y35846980D01*
X54211625Y35772485D01*
X54210846Y35746322D01*
X54199157Y35673704D01*
X54169719Y35603351D01*
X54122965Y35543874D01*
X54105829Y35528422D01*
X54041315Y35487893D01*
X53965423Y35464251D01*
X53887393Y35457412D01*
X53442626Y35457412D01*
X53403488Y35458728D01*
X53322586Y35471319D01*
X53251595Y35497240D01*
X53184340Y35541676D01*
X53166793Y35558030D01*
X53120768Y35619568D01*
X53093921Y35691910D01*
X53086154Y35766257D01*
X53089117Y35807227D01*
X53110340Y35880431D01*
X53148070Y35944676D01*
X53187215Y35987345D01*
X53252843Y36030802D01*
X53326489Y36057150D01*
X53326489Y36284662D01*
X53301647Y36279435D01*
X53230713Y36258731D01*
X53158220Y36226888D01*
X53092382Y36185744D01*
X53080053Y36176450D01*
X53023603Y36125947D01*
X52975811Y36068716D01*
X52936677Y36004760D01*
X52929934Y35991249D01*
X52902743Y35920903D01*
X52886428Y35845905D01*
X52880990Y35766257D01*
X52714323Y35766257D01*
X52714323Y36463786D01*
X54583456Y36463786D01*
X54583456Y32424311D01*
G37*
G36*
X53403419Y10745398D02*
G01*
X53476302Y10726421D01*
X53541306Y10686096D01*
X53561676Y10665631D01*
X53600345Y10597671D01*
X53612015Y10520500D01*
X53612015Y10143511D01*
X53096174Y10143511D01*
X53096174Y10520500D01*
X53098672Y10557800D01*
X53121230Y10628720D01*
X53167248Y10686096D01*
X53210702Y10716203D01*
X53280091Y10741019D01*
X53355193Y10748378D01*
X53403419Y10745398D01*
G37*
G36*
X53897159Y12603266D02*
G01*
X53975791Y12592061D01*
X54052012Y12563839D01*
X54116498Y12519017D01*
X54133194Y12502587D01*
X54176986Y12440706D01*
X54202531Y12367877D01*
X54209921Y12292970D01*
X54209556Y12275688D01*
X54196783Y12195632D01*
X54165764Y12126165D01*
X54116498Y12067290D01*
X54085722Y12042698D01*
X54015369Y12006018D01*
X53942017Y11987262D01*
X53868836Y11981927D01*
X53425535Y11981927D01*
X53397022Y11982677D01*
X53318013Y11993931D01*
X53241713Y12022274D01*
X53177506Y12067290D01*
X53160876Y12083840D01*
X53117256Y12145893D01*
X53091811Y12218536D01*
X53084450Y12292970D01*
X53084813Y12310382D01*
X53097536Y12390875D01*
X53128434Y12460420D01*
X53177506Y12519017D01*
X53208098Y12543503D01*
X53278351Y12580025D01*
X53351919Y12598701D01*
X53425535Y12604013D01*
X53868836Y12604013D01*
X53897159Y12603266D01*
G37*
G36*
X53869935Y13979065D02*
G01*
X53187032Y14213451D01*
X53869935Y14447631D01*
X53869935Y13979065D01*
G37*
G36*
X54581752Y8399279D02*
G01*
X52712619Y8399279D01*
X52712619Y9090213D01*
X52879286Y9090213D01*
X52881746Y9032168D01*
X52892680Y8959261D01*
X52915435Y8883372D01*
X52949262Y8813975D01*
X52972401Y8778600D01*
X53021039Y8721280D01*
X53078661Y8672134D01*
X53145266Y8631159D01*
X53211166Y8602628D01*
X53282470Y8582249D01*
X53359177Y8570022D01*
X53441289Y8565946D01*
X53885322Y8565946D01*
X53943682Y8568265D01*
X54017126Y8578569D01*
X54093785Y8600014D01*
X54164125Y8631892D01*
X54200143Y8653806D01*
X54258393Y8699832D01*
X54308180Y8754321D01*
X54349506Y8817272D01*
X54375059Y8871453D01*
X54398690Y8946782D01*
X54410986Y9019093D01*
X54415085Y9096442D01*
X54412625Y9154488D01*
X54401691Y9227394D01*
X54378935Y9303283D01*
X54345109Y9372680D01*
X54321856Y9408152D01*
X54273011Y9465555D01*
X54215184Y9514670D01*
X54148372Y9555496D01*
X54082289Y9584187D01*
X54010802Y9604681D01*
X53933911Y9616977D01*
X53851617Y9621075D01*
X53588567Y9621075D01*
X53588567Y9101571D01*
X53787869Y9101571D01*
X53787869Y9405653D01*
X53853815Y9405653D01*
X53904559Y9403587D01*
X53978232Y9391686D01*
X54050057Y9365652D01*
X54116132Y9321023D01*
X54132893Y9304731D01*
X54176857Y9243308D01*
X54202502Y9170936D01*
X54209921Y9096442D01*
X54209142Y9070278D01*
X54197453Y8997661D01*
X54168015Y8927307D01*
X54121261Y8867830D01*
X54104125Y8852379D01*
X54039611Y8811850D01*
X53963719Y8788208D01*
X53885689Y8781368D01*
X53440922Y8781368D01*
X53401784Y8782685D01*
X53320882Y8795275D01*
X53249891Y8821196D01*
X53182636Y8865632D01*
X53165089Y8881987D01*
X53119064Y8943524D01*
X53092217Y9015867D01*
X53084450Y9090213D01*
X53087413Y9131184D01*
X53108636Y9204387D01*
X53146366Y9268633D01*
X53185511Y9311301D01*
X53251139Y9354758D01*
X53324785Y9381107D01*
X53324785Y9608619D01*
X53299943Y9603392D01*
X53229009Y9582687D01*
X53156516Y9550845D01*
X53090678Y9509701D01*
X53078349Y9500407D01*
X53021899Y9449903D01*
X52974107Y9392673D01*
X52934973Y9328717D01*
X52928230Y9315206D01*
X52901039Y9244859D01*
X52884724Y9169862D01*
X52879286Y9090213D01*
X52712619Y9090213D01*
X52712619Y10513539D01*
X52896871Y10513539D01*
X52896871Y10143511D01*
X52896871Y9933218D01*
X54397500Y9933218D01*
X54397500Y10143511D01*
X53811317Y10143511D01*
X53811317Y10513539D01*
X53811262Y10521999D01*
X53804650Y10602829D01*
X53787019Y10676788D01*
X53754897Y10750210D01*
X53715126Y10809007D01*
X53660965Y10863519D01*
X53595894Y10907380D01*
X53576286Y10917463D01*
X53506505Y10943910D01*
X53429926Y10959337D01*
X53355193Y10963800D01*
X53329477Y10963304D01*
X53256155Y10955866D01*
X53181415Y10937133D01*
X53113759Y10907380D01*
X53053924Y10867946D01*
X52998520Y10814403D01*
X52954024Y10750210D01*
X52943810Y10731010D01*
X52917020Y10662546D01*
X52901392Y10587212D01*
X52896871Y10513539D01*
X52712619Y10513539D01*
X52712619Y11219889D01*
X52896871Y11219889D01*
X54397500Y11219889D01*
X54397500Y11430182D01*
X52896871Y11430182D01*
X52896871Y11219889D01*
X52712619Y11219889D01*
X52712619Y12292970D01*
X52879286Y12292970D01*
X52881707Y12234885D01*
X52892469Y12161807D01*
X52914868Y12085561D01*
X52948162Y12015632D01*
X52971046Y11979940D01*
X53019088Y11922186D01*
X53075941Y11872779D01*
X53141603Y11831717D01*
X53206587Y11803187D01*
X53276974Y11782808D01*
X53352766Y11770580D01*
X53433961Y11766504D01*
X53860409Y11766504D01*
X53931358Y11769625D01*
X54007590Y11780833D01*
X54078648Y11800194D01*
X54152402Y11831717D01*
X54190074Y11853499D01*
X54250987Y11899197D01*
X54303032Y11953242D01*
X54346209Y12015632D01*
X54369616Y12061549D01*
X54395646Y12135690D01*
X54410780Y12216148D01*
X54415085Y12292970D01*
X54412664Y12351042D01*
X54401902Y12424063D01*
X54379503Y12500190D01*
X54346209Y12569941D01*
X54323316Y12605730D01*
X54275213Y12663567D01*
X54218241Y12712943D01*
X54152402Y12753856D01*
X54087166Y12782547D01*
X54016755Y12803041D01*
X53941170Y12815337D01*
X53860409Y12819435D01*
X53433961Y12819435D01*
X53362620Y12816297D01*
X53286153Y12805026D01*
X53215090Y12785557D01*
X53141603Y12753856D01*
X53104036Y12732171D01*
X53043268Y12686557D01*
X52991310Y12632480D01*
X52948162Y12569941D01*
X52924755Y12524149D01*
X52898725Y12450147D01*
X52883591Y12369769D01*
X52879286Y12292970D01*
X52712619Y12292970D01*
X52712619Y14302844D01*
X52896871Y14302844D01*
X52896871Y14123692D01*
X54397500Y13571581D01*
X54397500Y13797994D01*
X54069237Y13910661D01*
X54069237Y14515975D01*
X54397500Y14628542D01*
X54397500Y14855322D01*
X52896871Y14302844D01*
X52712619Y14302844D01*
X52712619Y15021989D01*
X54581752Y15021989D01*
X54581752Y8399279D01*
G37*
G36*
X3428825Y9239812D02*
G01*
X3426715Y9189782D01*
X3414556Y9117362D01*
X3387959Y9047112D01*
X3342363Y8982991D01*
X3313723Y8956710D01*
X3246032Y8917512D01*
X3173241Y8897467D01*
X3099098Y8891766D01*
X2656530Y8891766D01*
X2627682Y8892568D01*
X2548595Y8904594D01*
X2473841Y8934884D01*
X2412897Y8982991D01*
X2388094Y9013217D01*
X2351100Y9084673D01*
X2332183Y9161525D01*
X2326802Y9239812D01*
X2326802Y9510922D01*
X3428825Y9510922D01*
X3428825Y9239812D01*
G37*
G36*
X3428825Y12060817D02*
G01*
X3428574Y12049508D01*
X3410627Y11973634D01*
X3364345Y11913538D01*
X3338834Y11894613D01*
X3267888Y11865682D01*
X3194352Y11857851D01*
X3162276Y11859211D01*
X3088337Y11875471D01*
X3023993Y11913538D01*
X3012535Y11924295D01*
X2972151Y11987547D01*
X2959879Y12060817D01*
X2959879Y12453559D01*
X3428825Y12453559D01*
X3428825Y12060817D01*
G37*
G36*
X3127977Y13813486D02*
G01*
X3206986Y13802232D01*
X3283286Y13773889D01*
X3347493Y13728873D01*
X3364123Y13712323D01*
X3407743Y13650270D01*
X3433188Y13577626D01*
X3440549Y13503193D01*
X3440186Y13485781D01*
X3427463Y13405288D01*
X3396565Y13335743D01*
X3347493Y13277146D01*
X3316901Y13252660D01*
X3246648Y13216138D01*
X3173080Y13197462D01*
X3099464Y13192150D01*
X2656163Y13192150D01*
X2627840Y13192897D01*
X2549208Y13204102D01*
X2472987Y13232324D01*
X2408501Y13277146D01*
X2391805Y13293576D01*
X2348013Y13355457D01*
X2322468Y13428286D01*
X2315078Y13503193D01*
X2315443Y13520475D01*
X2328216Y13600531D01*
X2359235Y13669998D01*
X2408501Y13728873D01*
X2439277Y13753465D01*
X2509630Y13790145D01*
X2582982Y13808901D01*
X2656163Y13814236D01*
X3099464Y13814236D01*
X3127977Y13813486D01*
G37*
G36*
X3428825Y14698273D02*
G01*
X3426327Y14660973D01*
X3403769Y14590053D01*
X3357751Y14532677D01*
X3314297Y14502570D01*
X3244908Y14477754D01*
X3169806Y14470395D01*
X3121580Y14473375D01*
X3048697Y14492351D01*
X2983693Y14532677D01*
X2963323Y14553141D01*
X2924654Y14621102D01*
X2912984Y14698273D01*
X2912984Y15075262D01*
X3428825Y15075262D01*
X3428825Y14698273D01*
G37*
G36*
X3812380Y8509677D02*
G01*
X1943247Y8509677D01*
X1943247Y9579065D01*
X2127500Y9579065D01*
X2127500Y9247139D01*
X2130532Y9170358D01*
X2141426Y9088876D01*
X2160242Y9014081D01*
X2190881Y8937928D01*
X2212073Y8899465D01*
X2257208Y8837760D01*
X2311327Y8785735D01*
X2374429Y8743388D01*
X2429547Y8717265D01*
X2507419Y8693105D01*
X2583257Y8680534D01*
X2665322Y8676344D01*
X3090305Y8676344D01*
X3137307Y8677654D01*
X3211136Y8685663D01*
X3292293Y8704884D01*
X3365336Y8734590D01*
X3430264Y8774780D01*
X3487077Y8825454D01*
X3520136Y8864563D01*
X3561459Y8930440D01*
X3592865Y9004972D01*
X3614353Y9088160D01*
X3624684Y9164095D01*
X3628128Y9246040D01*
X3628128Y9579065D01*
X3628128Y9721215D01*
X2127500Y9721215D01*
X2127500Y9579065D01*
X1943247Y9579065D01*
X1943247Y11077495D01*
X2127500Y11077495D01*
X2127500Y10867568D01*
X3428825Y10867568D01*
X3428825Y10444051D01*
X3628128Y10444051D01*
X3628128Y11501012D01*
X3428825Y11501012D01*
X3428825Y11077495D01*
X2127500Y11077495D01*
X1943247Y11077495D01*
X1943247Y12453559D01*
X2127500Y12453559D01*
X2760577Y12453559D01*
X2760577Y12140802D01*
X2127500Y11820848D01*
X2127500Y11571354D01*
X2782660Y11917272D01*
X2783928Y11911937D01*
X2814799Y11840998D01*
X2852909Y11784276D01*
X2904583Y11731552D01*
X2966474Y11688957D01*
X2972619Y11685599D01*
X3044372Y11655692D01*
X3116214Y11639700D01*
X3194352Y11634369D01*
X3202516Y11634422D01*
X3280498Y11640776D01*
X3351824Y11657720D01*
X3422597Y11688591D01*
X3479090Y11726580D01*
X3531563Y11778368D01*
X3573906Y11840632D01*
X3577242Y11846778D01*
X3606947Y11918633D01*
X3622832Y11990718D01*
X3628128Y12069243D01*
X3628128Y12571895D01*
X3628128Y12663852D01*
X2127500Y12663852D01*
X2127500Y12453559D01*
X1943247Y12453559D01*
X1943247Y13503193D01*
X2109914Y13503193D01*
X2112335Y13445121D01*
X2123097Y13372100D01*
X2145496Y13295973D01*
X2178790Y13226222D01*
X2201683Y13190433D01*
X2249786Y13132596D01*
X2306758Y13083220D01*
X2372597Y13042307D01*
X2437833Y13013616D01*
X2508244Y12993122D01*
X2583829Y12980826D01*
X2664590Y12976728D01*
X3091038Y12976728D01*
X3162379Y12979866D01*
X3238846Y12991137D01*
X3309909Y13010606D01*
X3383396Y13042307D01*
X3420963Y13063992D01*
X3481731Y13109606D01*
X3533689Y13163683D01*
X3576837Y13226222D01*
X3600244Y13272014D01*
X3626274Y13346016D01*
X3641408Y13426394D01*
X3645713Y13503193D01*
X3643292Y13561277D01*
X3632530Y13634356D01*
X3610131Y13710602D01*
X3576837Y13780531D01*
X3553953Y13816223D01*
X3505911Y13873977D01*
X3449058Y13923384D01*
X3383396Y13964446D01*
X3318412Y13992976D01*
X3248025Y14013355D01*
X3172233Y14025583D01*
X3091038Y14029658D01*
X2664590Y14029658D01*
X2593641Y14026538D01*
X2517409Y14015329D01*
X2446351Y13995969D01*
X2372597Y13964446D01*
X2334925Y13942664D01*
X2274012Y13896966D01*
X2221967Y13842921D01*
X2178790Y13780531D01*
X2155383Y13734614D01*
X2129353Y13660473D01*
X2114219Y13580015D01*
X2109914Y13503193D01*
X1943247Y13503193D01*
X1943247Y15075262D01*
X2127500Y15075262D01*
X2713682Y15075262D01*
X2713682Y14705234D01*
X2713737Y14696773D01*
X2720349Y14615944D01*
X2737980Y14541985D01*
X2770102Y14468563D01*
X2809873Y14409766D01*
X2864034Y14355254D01*
X2929105Y14311393D01*
X2948713Y14301310D01*
X3018494Y14274863D01*
X3095073Y14259435D01*
X3169806Y14254972D01*
X3195522Y14255468D01*
X3268844Y14262907D01*
X3343584Y14281640D01*
X3411240Y14311393D01*
X3471075Y14350827D01*
X3526479Y14404370D01*
X3570975Y14468563D01*
X3581189Y14487763D01*
X3607979Y14556227D01*
X3623607Y14631561D01*
X3628128Y14705234D01*
X3628128Y15177111D01*
X3628128Y15285555D01*
X2127500Y15285555D01*
X2127500Y15075262D01*
X1943247Y15075262D01*
X1943247Y15452222D01*
X3812380Y15452222D01*
X3812380Y8509677D01*
G37*
G36*
X53485123Y22676824D02*
G01*
X53558006Y22657847D01*
X53623010Y22617522D01*
X53643380Y22597057D01*
X53682049Y22529097D01*
X53693719Y22451926D01*
X53693719Y22074937D01*
X53177878Y22074937D01*
X53177878Y22451926D01*
X53180376Y22489226D01*
X53202934Y22560146D01*
X53248952Y22617522D01*
X53292406Y22647629D01*
X53361795Y22672445D01*
X53436897Y22679804D01*
X53485123Y22676824D01*
G37*
G36*
X53978863Y24534692D02*
G01*
X54057495Y24523487D01*
X54133716Y24495265D01*
X54198202Y24450443D01*
X54214898Y24434013D01*
X54258690Y24372132D01*
X54284235Y24299303D01*
X54291625Y24224396D01*
X54291260Y24207114D01*
X54278487Y24127058D01*
X54247468Y24057591D01*
X54198202Y23998716D01*
X54167426Y23974124D01*
X54097073Y23937444D01*
X54023721Y23918688D01*
X53950540Y23913353D01*
X53507239Y23913353D01*
X53478726Y23914103D01*
X53399717Y23925357D01*
X53323417Y23953700D01*
X53259210Y23998716D01*
X53242580Y24015266D01*
X53198960Y24077319D01*
X53173515Y24149962D01*
X53166154Y24224396D01*
X53166517Y24241808D01*
X53179240Y24322301D01*
X53210138Y24391846D01*
X53259210Y24450443D01*
X53289802Y24474929D01*
X53360055Y24511451D01*
X53433623Y24530127D01*
X53507239Y24535439D01*
X53950540Y24535439D01*
X53978863Y24534692D01*
G37*
G36*
X53421178Y26462321D02*
G01*
X53493726Y26446498D01*
X53556698Y26403897D01*
X53580741Y26370672D01*
X53605159Y26301543D01*
X53611653Y26228409D01*
X53611653Y25856182D01*
X53172016Y25856182D01*
X53172016Y26199466D01*
X53175496Y26261290D01*
X53191648Y26332838D01*
X53227703Y26397302D01*
X53250569Y26419714D01*
X53319351Y26453974D01*
X53395498Y26463248D01*
X53421178Y26462321D01*
G37*
G36*
X54088453Y26480218D02*
G01*
X54161457Y26458125D01*
X54220917Y26413056D01*
X54236115Y26394217D01*
X54267462Y26326647D01*
X54281710Y26254168D01*
X54285763Y26176751D01*
X54285763Y25856182D01*
X53799231Y25856182D01*
X53799231Y26228409D01*
X53803445Y26291561D01*
X53822996Y26362692D01*
X53866642Y26423314D01*
X53898326Y26446440D01*
X53968795Y26474319D01*
X54047260Y26482665D01*
X54050191Y26482665D01*
X54088453Y26480218D01*
G37*
G36*
X54663456Y20330705D02*
G01*
X52794323Y20330705D01*
X52794323Y21021639D01*
X52960990Y21021639D01*
X52963450Y20963594D01*
X52974384Y20890687D01*
X52997139Y20814798D01*
X53030966Y20745401D01*
X53054105Y20710026D01*
X53102743Y20652706D01*
X53160365Y20603560D01*
X53226970Y20562585D01*
X53292870Y20534054D01*
X53364174Y20513675D01*
X53440881Y20501448D01*
X53522993Y20497372D01*
X53967026Y20497372D01*
X54025386Y20499691D01*
X54098830Y20509995D01*
X54175489Y20531440D01*
X54245829Y20563318D01*
X54281847Y20585232D01*
X54340097Y20631258D01*
X54389884Y20685747D01*
X54431210Y20748698D01*
X54456763Y20802879D01*
X54480394Y20878208D01*
X54492690Y20950519D01*
X54496789Y21027868D01*
X54494329Y21085914D01*
X54483395Y21158820D01*
X54460639Y21234709D01*
X54426813Y21304106D01*
X54403560Y21339578D01*
X54354715Y21396981D01*
X54296888Y21446096D01*
X54230076Y21486922D01*
X54163993Y21515613D01*
X54092506Y21536107D01*
X54015615Y21548403D01*
X53933321Y21552501D01*
X53670271Y21552501D01*
X53670271Y21032997D01*
X53869573Y21032997D01*
X53869573Y21337079D01*
X53935519Y21337079D01*
X53986263Y21335013D01*
X54059936Y21323112D01*
X54131761Y21297078D01*
X54197836Y21252449D01*
X54214597Y21236157D01*
X54258561Y21174734D01*
X54284206Y21102362D01*
X54291625Y21027868D01*
X54290846Y21001704D01*
X54279157Y20929087D01*
X54249719Y20858733D01*
X54202965Y20799256D01*
X54185829Y20783805D01*
X54121315Y20743276D01*
X54045423Y20719634D01*
X53967393Y20712794D01*
X53522626Y20712794D01*
X53483488Y20714111D01*
X53402586Y20726701D01*
X53331595Y20752622D01*
X53264340Y20797058D01*
X53246793Y20813413D01*
X53200768Y20874950D01*
X53173921Y20947293D01*
X53166154Y21021639D01*
X53169117Y21062610D01*
X53190340Y21135813D01*
X53228070Y21200059D01*
X53267215Y21242727D01*
X53332843Y21286184D01*
X53406489Y21312533D01*
X53406489Y21540045D01*
X53381647Y21534818D01*
X53310713Y21514113D01*
X53238220Y21482271D01*
X53172382Y21441127D01*
X53160053Y21431833D01*
X53103603Y21381329D01*
X53055811Y21324099D01*
X53016677Y21260143D01*
X53009934Y21246632D01*
X52982743Y21176285D01*
X52966428Y21101288D01*
X52960990Y21021639D01*
X52794323Y21021639D01*
X52794323Y22444965D01*
X52978575Y22444965D01*
X52978575Y22074937D01*
X52978575Y21864644D01*
X54479204Y21864644D01*
X54479204Y22074937D01*
X53893021Y22074937D01*
X53893021Y22444965D01*
X53892966Y22453425D01*
X53886354Y22534255D01*
X53868723Y22608214D01*
X53836601Y22681636D01*
X53796830Y22740433D01*
X53742669Y22794945D01*
X53677598Y22838806D01*
X53657990Y22848889D01*
X53588209Y22875336D01*
X53511630Y22890763D01*
X53436897Y22895226D01*
X53411181Y22894730D01*
X53337859Y22887292D01*
X53263119Y22868559D01*
X53195463Y22838806D01*
X53135628Y22799372D01*
X53080224Y22745829D01*
X53035728Y22681636D01*
X53025514Y22662436D01*
X52998724Y22593972D01*
X52983096Y22518638D01*
X52978575Y22444965D01*
X52794323Y22444965D01*
X52794323Y23151315D01*
X52978575Y23151315D01*
X54479204Y23151315D01*
X54479204Y23361608D01*
X52978575Y23361608D01*
X52978575Y23151315D01*
X52794323Y23151315D01*
X52794323Y24224396D01*
X52960990Y24224396D01*
X52963411Y24166311D01*
X52974173Y24093233D01*
X52996572Y24016987D01*
X53029866Y23947058D01*
X53052750Y23911366D01*
X53100792Y23853612D01*
X53157645Y23804205D01*
X53223307Y23763143D01*
X53288291Y23734613D01*
X53358678Y23714234D01*
X53434470Y23702006D01*
X53515665Y23697930D01*
X53942113Y23697930D01*
X54013062Y23701051D01*
X54089294Y23712259D01*
X54160352Y23731620D01*
X54234106Y23763143D01*
X54271778Y23784925D01*
X54332691Y23830623D01*
X54384736Y23884668D01*
X54427913Y23947058D01*
X54451320Y23992975D01*
X54477350Y24067116D01*
X54492484Y24147574D01*
X54496789Y24224396D01*
X54494368Y24282468D01*
X54483606Y24355489D01*
X54461207Y24431616D01*
X54427913Y24501367D01*
X54405020Y24537156D01*
X54356917Y24594993D01*
X54299945Y24644369D01*
X54234106Y24685282D01*
X54168870Y24713973D01*
X54098459Y24734467D01*
X54022874Y24746763D01*
X53942113Y24750861D01*
X53515665Y24750861D01*
X53444324Y24747723D01*
X53367857Y24736452D01*
X53296794Y24716983D01*
X53223307Y24685282D01*
X53185740Y24663597D01*
X53124972Y24617983D01*
X53073014Y24563906D01*
X53029866Y24501367D01*
X53006459Y24455575D01*
X52980429Y24381573D01*
X52965295Y24301195D01*
X52960990Y24224396D01*
X52794323Y24224396D01*
X52794323Y26237568D01*
X52978575Y26237568D01*
X52978575Y25856182D01*
X52978575Y25646988D01*
X54479204Y25646988D01*
X54479204Y25856182D01*
X54479204Y26255153D01*
X54478763Y26280193D01*
X54470278Y26362627D01*
X54450993Y26436961D01*
X54415731Y26511997D01*
X54366363Y26576455D01*
X54359218Y26583758D01*
X54297034Y26633835D01*
X54225919Y26669075D01*
X54145874Y26689477D01*
X54068509Y26695157D01*
X54065212Y26695157D01*
X54048751Y26694856D01*
X53969969Y26684337D01*
X53897054Y26658792D01*
X53830006Y26618220D01*
X53811490Y26603313D01*
X53760142Y26545667D01*
X53724750Y26475786D01*
X53706541Y26402432D01*
X53703074Y26419769D01*
X53680988Y26490529D01*
X53644008Y26555215D01*
X53588206Y26609427D01*
X53528185Y26644203D01*
X53457864Y26667581D01*
X53383042Y26675373D01*
X53371574Y26675267D01*
X53295389Y26668618D01*
X53217079Y26648354D01*
X53148111Y26614579D01*
X53088485Y26567295D01*
X53062725Y26538502D01*
X53021509Y26470266D01*
X52996715Y26398915D01*
X52982439Y26316694D01*
X52978575Y26237568D01*
X52794323Y26237568D01*
X52794323Y26861824D01*
X54663456Y26861824D01*
X54663456Y20330705D01*
G37*
G36*
X46980533Y11053248D02*
G01*
X43978602Y11053248D01*
X43978602Y11237500D01*
X44145269Y11237500D01*
X44355562Y11237500D01*
X44355562Y12347584D01*
X44650485Y12347584D01*
X44650485Y12346485D01*
X44868106Y12346485D01*
X44868106Y12347584D01*
X44870834Y12365873D01*
X44893955Y12440746D01*
X44937715Y12501824D01*
X44944989Y12508434D01*
X45012560Y12545963D01*
X45085360Y12556412D01*
X45097321Y12556217D01*
X45171272Y12543955D01*
X45234836Y12506586D01*
X45276001Y12442559D01*
X45287593Y12367002D01*
X45287593Y12364803D01*
X45283421Y12317395D01*
X45262313Y12243537D01*
X45234187Y12184316D01*
X45191605Y12119339D01*
X44669170Y11419217D01*
X44669170Y11237500D01*
X45514006Y11237500D01*
X45514006Y11436803D01*
X44947240Y11436803D01*
X45381016Y12028481D01*
X45402220Y12058577D01*
X45441890Y12125730D01*
X45472157Y12193711D01*
X45776323Y12193711D01*
X45776323Y11780819D01*
X45779426Y11709104D01*
X45790571Y11632082D01*
X45809822Y11560326D01*
X45841169Y11485895D01*
X45862722Y11447774D01*
X45908008Y11386098D01*
X45961640Y11333348D01*
X46023618Y11289524D01*
X46069085Y11265868D01*
X46142404Y11239561D01*
X46221867Y11224266D01*
X46297659Y11219915D01*
X46313782Y11220133D01*
X46391734Y11227746D01*
X46465251Y11246236D01*
X46534330Y11275602D01*
X46547615Y11282782D01*
X46610047Y11323877D01*
X46665825Y11373629D01*
X46714948Y11432040D01*
X46728268Y11451161D01*
X46766622Y11519225D01*
X46795673Y11593943D01*
X46813866Y11666879D01*
X46598444Y11666879D01*
X46577231Y11605281D01*
X46539024Y11541800D01*
X46481940Y11487361D01*
X46443570Y11463093D01*
X46375263Y11435358D01*
X46297659Y11425079D01*
X46280606Y11425460D01*
X46201694Y11438783D01*
X46133373Y11471141D01*
X46075642Y11522532D01*
X46047130Y11561292D01*
X46015423Y11627740D01*
X45996988Y11704157D01*
X45991745Y11780452D01*
X45991745Y12194078D01*
X45993056Y12233216D01*
X46005591Y12314118D01*
X46031399Y12385109D01*
X46075642Y12452364D01*
X46091849Y12469911D01*
X46152758Y12515936D01*
X46224256Y12542783D01*
X46297659Y12550550D01*
X46354590Y12544800D01*
X46425520Y12520508D01*
X46480024Y12486950D01*
X46533231Y12435878D01*
X46570368Y12380757D01*
X46598444Y12308750D01*
X46813866Y12308750D01*
X46808642Y12333661D01*
X46787986Y12404800D01*
X46756265Y12477522D01*
X46715314Y12543589D01*
X46706109Y12555963D01*
X46655963Y12612592D01*
X46598948Y12660491D01*
X46535063Y12699660D01*
X46521513Y12706448D01*
X46451188Y12733818D01*
X46376570Y12750240D01*
X46297659Y12755714D01*
X46249720Y12754006D01*
X46168209Y12742320D01*
X46092842Y12719565D01*
X46023618Y12685738D01*
X45988156Y12662599D01*
X45930814Y12613961D01*
X45881818Y12556339D01*
X45841169Y12489734D01*
X45812799Y12423834D01*
X45792534Y12352530D01*
X45780375Y12275823D01*
X45776323Y12193711D01*
X45472157Y12193711D01*
X45472973Y12195543D01*
X45478866Y12211890D01*
X45498701Y12286302D01*
X45505946Y12362605D01*
X45505946Y12363704D01*
X45505838Y12375322D01*
X45499053Y12451998D01*
X45478377Y12529667D01*
X45443916Y12596712D01*
X45395670Y12653132D01*
X45381528Y12665554D01*
X45317803Y12707228D01*
X45242630Y12736079D01*
X45167462Y12750805D01*
X45083528Y12755714D01*
X45072440Y12755610D01*
X44998371Y12749028D01*
X44921320Y12728969D01*
X44852375Y12695539D01*
X44791535Y12648736D01*
X44777718Y12635023D01*
X44729118Y12573359D01*
X44691187Y12500796D01*
X44666752Y12428363D01*
X44650485Y12347584D01*
X44355562Y12347584D01*
X44355562Y12738129D01*
X44145269Y12738129D01*
X44145269Y11237500D01*
X43978602Y11237500D01*
X43978602Y12922381D01*
X46980533Y12922381D01*
X46980533Y11053248D01*
G37*
X35421666Y43675181D02*
X35421666Y42960896D01*
X35421666Y42960896D02*
X35374047Y42818039D01*
X35374047Y42818039D02*
X35278809Y42722800D01*
X35278809Y42722800D02*
X35135952Y42675181D01*
X35135952Y42675181D02*
X35040714Y42675181D01*
X35897857Y42675181D02*
X35897857Y43675181D01*
X35897857Y43675181D02*
X36278809Y43675181D01*
X36278809Y43675181D02*
X36374047Y43627562D01*
X36374047Y43627562D02*
X36421666Y43579943D01*
X36421666Y43579943D02*
X36469285Y43484705D01*
X36469285Y43484705D02*
X36469285Y43341848D01*
X36469285Y43341848D02*
X36421666Y43246610D01*
X36421666Y43246610D02*
X36374047Y43198991D01*
X36374047Y43198991D02*
X36278809Y43151372D01*
X36278809Y43151372D02*
X35897857Y43151372D01*
X37421666Y42675181D02*
X36850238Y42675181D01*
X37135952Y42675181D02*
X37135952Y43675181D01*
X37135952Y43675181D02*
X37040714Y43532324D01*
X37040714Y43532324D02*
X36945476Y43437086D01*
X36945476Y43437086D02*
X36850238Y43389467D01*
D11*
%TO.C,C24*%
X51259190Y32798307D02*
X51411693Y32950810D01*
X51768307Y32289190D02*
X51920810Y32441693D01*
%TO.C,R5*%
X53953641Y37880000D02*
X53646359Y37880000D01*
X53953641Y37120000D02*
X53646359Y37120000D01*
%TO.C,R8*%
X46010000Y37453641D02*
X46010000Y37146359D01*
X46770000Y37453641D02*
X46770000Y37146359D01*
%TO.C,J2*%
X42260000Y9530000D02*
X43310000Y9530000D01*
X42260000Y8380000D02*
X42260000Y9530000D01*
X47310000Y6410000D02*
X43430000Y6410000D01*
X47430000Y9530000D02*
X47430000Y10520000D01*
X48480000Y9530000D02*
X47430000Y9530000D01*
X48480000Y8380000D02*
X48480000Y9530000D01*
D12*
%TO.C,U12*%
X33923787Y24576213D02*
X33923787Y24330493D01*
X33923787Y19923787D02*
X33923787Y20169507D01*
X34641491Y24576213D02*
X33923787Y24576213D01*
X34641491Y19923787D02*
X33923787Y19923787D01*
X36858509Y24576213D02*
X37576213Y24576213D01*
X36858509Y19923787D02*
X37576213Y19923787D01*
X37576213Y24576213D02*
X37576213Y24330493D01*
X37576213Y19923787D02*
X37576213Y20169507D01*
D13*
X36586932Y19328994D02*
G75*
G02*
X36437072Y19328994I-74930J0D01*
G01*
X36437072Y19328994D02*
G75*
G02*
X36586932Y19328994I74930J0D01*
G01*
D14*
X37500063Y20029782D02*
G75*
G02*
X37440119Y20029782I-29972J0D01*
G01*
X37440119Y20029782D02*
G75*
G02*
X37500063Y20029782I29972J0D01*
G01*
D11*
%TO.C,R7*%
X45070000Y37453641D02*
X45070000Y37146359D01*
X45830000Y37453641D02*
X45830000Y37146359D01*
D15*
%TO.C,U8*%
X16450000Y15174625D02*
X15950000Y15174625D01*
X19050000Y15175006D02*
X18450000Y15175006D01*
X21550000Y15174625D02*
X21050000Y15174625D01*
X32212026Y15683134D02*
G75*
G02*
X31704026Y15683134I-254000J0D01*
G01*
X31704026Y15683134D02*
G75*
G02*
X32212026Y15683134I254000J0D01*
G01*
D11*
%TO.C,R14*%
X54053641Y40880000D02*
X53746359Y40880000D01*
X54053641Y40120000D02*
X53746359Y40120000D01*
%TO.C,C19*%
X49812164Y52330000D02*
X50027836Y52330000D01*
X49812164Y51610000D02*
X50027836Y51610000D01*
%TO.C,C10*%
X46189190Y21931693D02*
X46341693Y21779190D01*
X46698307Y22440810D02*
X46850810Y22288307D01*
%TO.C,C7*%
X48086359Y35920000D02*
X48393641Y35920000D01*
X48086359Y35160000D02*
X48393641Y35160000D01*
D15*
%TO.C,U16*%
X33924949Y40981077D02*
X33924949Y42018821D01*
X33924949Y39799949D02*
X33924949Y39868809D01*
X36786925Y42134925D02*
X35262922Y42134925D01*
X36786951Y40864948D02*
X35262948Y40864948D01*
X38124949Y40981077D02*
X38124949Y42018821D01*
X38124949Y39799924D02*
X33924949Y39799949D01*
X38124949Y39799924D02*
X38124949Y39868809D01*
X35262948Y40864948D02*
G75*
G02*
X35264141Y42134365I4567J634705D01*
G01*
X36786925Y42134925D02*
G75*
G02*
X36788145Y40864363I610J-635281D01*
G01*
D14*
X38605011Y39875006D02*
G75*
G02*
X38545015Y39875006I-29998J0D01*
G01*
X38545015Y39875006D02*
G75*
G02*
X38605011Y39875006I29998J0D01*
G01*
D11*
%TO.C,C5*%
X33857836Y25860000D02*
X33642164Y25860000D01*
X33857836Y25140000D02*
X33642164Y25140000D01*
%TO.C,C26*%
X35857836Y25860000D02*
X35642164Y25860000D01*
X35857836Y25140000D02*
X35642164Y25140000D01*
%TO.C,C16*%
X52117164Y28435000D02*
X52332836Y28435000D01*
X52117164Y27715000D02*
X52332836Y27715000D01*
D16*
%TO.C,G\u002A\u002A\u002A*%
G36*
X40191770Y8420688D02*
G01*
X40230579Y8420682D01*
X40269245Y8420673D01*
X40307695Y8420661D01*
X40345860Y8420645D01*
X40383670Y8420626D01*
X40421055Y8420604D01*
X40457943Y8420578D01*
X40494266Y8420548D01*
X40529952Y8420515D01*
X40564932Y8420479D01*
X40599135Y8420439D01*
X40632491Y8420395D01*
X40664930Y8420349D01*
X40696381Y8420298D01*
X40726775Y8420245D01*
X40756041Y8420188D01*
X40784109Y8420127D01*
X40810908Y8420063D01*
X40836369Y8419995D01*
X40860421Y8419925D01*
X40882994Y8419850D01*
X40904018Y8419772D01*
X40923422Y8419691D01*
X40941137Y8419606D01*
X40957092Y8419518D01*
X40971216Y8419426D01*
X40983440Y8419331D01*
X40993693Y8419233D01*
X41001905Y8419131D01*
X41008006Y8419025D01*
X41011926Y8418917D01*
X41013516Y8418818D01*
X41032477Y8414969D01*
X41050541Y8408998D01*
X41067626Y8400949D01*
X41083645Y8390862D01*
X41098515Y8378781D01*
X41103799Y8373723D01*
X41116621Y8359308D01*
X41127463Y8343711D01*
X41136285Y8327018D01*
X41143043Y8309313D01*
X41147696Y8290680D01*
X41148894Y8283441D01*
X41149005Y8281502D01*
X41149114Y8277320D01*
X41149219Y8270965D01*
X41149320Y8262507D01*
X41149418Y8252016D01*
X41149513Y8239563D01*
X41149604Y8225218D01*
X41149692Y8209050D01*
X41149776Y8191131D01*
X41149857Y8171530D01*
X41149935Y8150318D01*
X41150009Y8127565D01*
X41150079Y8103340D01*
X41150146Y8077715D01*
X41150210Y8050759D01*
X41150270Y8022543D01*
X41150327Y7993136D01*
X41150380Y7962610D01*
X41150430Y7931033D01*
X41150476Y7898478D01*
X41150519Y7865013D01*
X41150559Y7830708D01*
X41150595Y7795635D01*
X41150627Y7759863D01*
X41150656Y7723463D01*
X41150682Y7686504D01*
X41150704Y7649058D01*
X41150723Y7611193D01*
X41150738Y7572981D01*
X41150750Y7534491D01*
X41150759Y7495794D01*
X41150764Y7456960D01*
X41150765Y7418059D01*
X41150764Y7379161D01*
X41150758Y7340337D01*
X41150749Y7301657D01*
X41150737Y7263191D01*
X41150721Y7225009D01*
X41150702Y7187181D01*
X41150680Y7149778D01*
X41150654Y7112870D01*
X41150624Y7076527D01*
X41150591Y7040819D01*
X41150555Y7005816D01*
X41150515Y6971590D01*
X41150472Y6938209D01*
X41150425Y6905744D01*
X41150375Y6874265D01*
X41150321Y6843843D01*
X41150264Y6814548D01*
X41150204Y6786449D01*
X41150140Y6759618D01*
X41150073Y6734124D01*
X41150002Y6710037D01*
X41149927Y6687428D01*
X41149850Y6666368D01*
X41149768Y6646925D01*
X41149684Y6629171D01*
X41149596Y6613175D01*
X41149504Y6599008D01*
X41149409Y6586740D01*
X41149311Y6576441D01*
X41149209Y6568182D01*
X41149104Y6562032D01*
X41148995Y6558062D01*
X41148894Y6556407D01*
X41145044Y6537447D01*
X41139074Y6519382D01*
X41131024Y6502298D01*
X41120938Y6486279D01*
X41108857Y6471409D01*
X41103799Y6466125D01*
X41089384Y6453303D01*
X41073787Y6442461D01*
X41057094Y6433639D01*
X41039389Y6426881D01*
X41020756Y6422228D01*
X41013516Y6421030D01*
X41011611Y6420923D01*
X41007463Y6420819D01*
X41001143Y6420719D01*
X40992720Y6420622D01*
X40982265Y6420529D01*
X40969848Y6420439D01*
X40955539Y6420352D01*
X40939408Y6420269D01*
X40921526Y6420189D01*
X40901961Y6420112D01*
X40880786Y6420039D01*
X40858069Y6419969D01*
X40833881Y6419903D01*
X40808291Y6419840D01*
X40781371Y6419780D01*
X40753190Y6419724D01*
X40723819Y6419671D01*
X40693326Y6419622D01*
X40661784Y6419576D01*
X40629261Y6419533D01*
X40595828Y6419493D01*
X40561554Y6419457D01*
X40526511Y6419425D01*
X40490769Y6419395D01*
X40454396Y6419369D01*
X40417464Y6419346D01*
X40380043Y6419327D01*
X40342202Y6419311D01*
X40304012Y6419298D01*
X40265543Y6419289D01*
X40226866Y6419283D01*
X40188049Y6419280D01*
X40149164Y6419280D01*
X40110281Y6419284D01*
X40071469Y6419291D01*
X40032799Y6419301D01*
X39994341Y6419315D01*
X39956165Y6419332D01*
X39918341Y6419352D01*
X39880939Y6419376D01*
X39844030Y6419403D01*
X39807683Y6419433D01*
X39771969Y6419466D01*
X39736957Y6419503D01*
X39702719Y6419542D01*
X39669324Y6419586D01*
X39636842Y6419632D01*
X39605343Y6419682D01*
X39574898Y6419734D01*
X39545576Y6419791D01*
X39517448Y6419850D01*
X39490584Y6419913D01*
X39465054Y6419978D01*
X39440927Y6420047D01*
X39418276Y6420120D01*
X39397168Y6420195D01*
X39377675Y6420274D01*
X39359866Y6420356D01*
X39343813Y6420441D01*
X39329584Y6420529D01*
X39317250Y6420621D01*
X39306881Y6420715D01*
X39298548Y6420813D01*
X39292320Y6420914D01*
X39288267Y6421019D01*
X39286483Y6421123D01*
X39267835Y6425038D01*
X39249922Y6431116D01*
X39232898Y6439278D01*
X39216915Y6449446D01*
X39202127Y6461544D01*
X39197357Y6466125D01*
X39184536Y6480540D01*
X39173693Y6496137D01*
X39164872Y6512830D01*
X39158113Y6530535D01*
X39153461Y6549168D01*
X39152263Y6556407D01*
X39152151Y6558346D01*
X39152042Y6562528D01*
X39151937Y6568883D01*
X39151836Y6577341D01*
X39151738Y6587832D01*
X39151643Y6600285D01*
X39151552Y6614630D01*
X39151464Y6630798D01*
X39151380Y6648717D01*
X39151299Y6668318D01*
X39151222Y6689530D01*
X39151148Y6712283D01*
X39151077Y6736508D01*
X39151010Y6762133D01*
X39150946Y6789089D01*
X39150886Y6817306D01*
X39150830Y6846712D01*
X39150776Y6877238D01*
X39150726Y6908815D01*
X39150680Y6941370D01*
X39150637Y6974835D01*
X39150598Y7009140D01*
X39150563Y7044213D01*
X39150530Y7079985D01*
X39150501Y7116385D01*
X39150475Y7153344D01*
X39150453Y7190790D01*
X39150434Y7228655D01*
X39150419Y7266867D01*
X39150407Y7305357D01*
X39150398Y7344054D01*
X39150393Y7382888D01*
X39150392Y7421789D01*
X39150394Y7460687D01*
X39150399Y7499511D01*
X39150408Y7538191D01*
X39150420Y7576657D01*
X39150436Y7614839D01*
X39150455Y7652667D01*
X39150478Y7690070D01*
X39150504Y7726978D01*
X39150533Y7763321D01*
X39150565Y7799029D01*
X39150601Y7834032D01*
X39150630Y7859010D01*
X39226044Y7859010D01*
X39226064Y7858863D01*
X39226347Y7858529D01*
X39226988Y7857936D01*
X39228084Y7857008D01*
X39229731Y7855672D01*
X39232026Y7853854D01*
X39235065Y7851479D01*
X39238944Y7848474D01*
X39243759Y7844764D01*
X39249607Y7840275D01*
X39256584Y7834933D01*
X39264785Y7828664D01*
X39274308Y7821395D01*
X39285249Y7813050D01*
X39297704Y7803555D01*
X39311768Y7792838D01*
X39327539Y7780822D01*
X39334312Y7775664D01*
X39344711Y7767726D01*
X39354563Y7760176D01*
X39363713Y7753134D01*
X39372007Y7746720D01*
X39379292Y7741053D01*
X39385412Y7736254D01*
X39390214Y7732444D01*
X39393543Y7729741D01*
X39395245Y7728267D01*
X39395436Y7728047D01*
X39394999Y7726632D01*
X39393418Y7723705D01*
X39390908Y7719625D01*
X39387688Y7714749D01*
X39385624Y7711761D01*
X39375239Y7696967D01*
X39367619Y7672624D01*
X39355329Y7629881D01*
X39345313Y7587411D01*
X39337561Y7545124D01*
X39332062Y7502930D01*
X39328806Y7460739D01*
X39327783Y7418462D01*
X39328982Y7376007D01*
X39330515Y7353411D01*
X39335188Y7310049D01*
X39342108Y7267236D01*
X39351276Y7224963D01*
X39362696Y7183220D01*
X39376369Y7141997D01*
X39392297Y7101286D01*
X39399862Y7083887D01*
X39418393Y7045347D01*
X39438988Y7007797D01*
X39461580Y6971322D01*
X39486103Y6936011D01*
X39512491Y6901951D01*
X39540677Y6869227D01*
X39570594Y6837929D01*
X39602177Y6808141D01*
X39625990Y6787613D01*
X39657719Y6762689D01*
X39691172Y6739100D01*
X39726083Y6716997D01*
X39762188Y6696532D01*
X39799225Y6677854D01*
X39836929Y6661114D01*
X39870644Y6648036D01*
X39910379Y6634853D01*
X39951183Y6623627D01*
X39992814Y6614408D01*
X40035034Y6607243D01*
X40077604Y6602181D01*
X40108935Y6599832D01*
X40117864Y6599467D01*
X40128617Y6599251D01*
X40140710Y6599177D01*
X40153658Y6599237D01*
X40166978Y6599422D01*
X40180186Y6599726D01*
X40192796Y6600141D01*
X40204326Y6600659D01*
X40214290Y6601272D01*
X40218004Y6601566D01*
X40261524Y6606368D01*
X40304035Y6613216D01*
X40345671Y6622144D01*
X40386568Y6633188D01*
X40426861Y6646383D01*
X40466684Y6661764D01*
X40491242Y6672433D01*
X40529604Y6691072D01*
X40566966Y6711756D01*
X40603233Y6734398D01*
X40638308Y6758914D01*
X40672095Y6785218D01*
X40704500Y6813225D01*
X40735425Y6842850D01*
X40764775Y6874009D01*
X40792454Y6906615D01*
X40818366Y6940584D01*
X40842416Y6975831D01*
X40854232Y6994764D01*
X40875761Y7032589D01*
X40895189Y7071327D01*
X40912501Y7110892D01*
X40927679Y7151196D01*
X40940709Y7192154D01*
X40951575Y7233680D01*
X40960261Y7275686D01*
X40966750Y7318086D01*
X40971027Y7360794D01*
X40973077Y7403724D01*
X40972882Y7446789D01*
X40970428Y7489902D01*
X40965699Y7532977D01*
X40959826Y7569779D01*
X40951162Y7610886D01*
X40940278Y7651732D01*
X40927252Y7692109D01*
X40912164Y7731806D01*
X40895095Y7770614D01*
X40876125Y7808324D01*
X40855332Y7844725D01*
X40854441Y7846188D01*
X40846811Y7858428D01*
X40838953Y7870561D01*
X40831037Y7882352D01*
X40823232Y7893567D01*
X40815709Y7903973D01*
X40808636Y7913335D01*
X40802183Y7921419D01*
X40796521Y7927992D01*
X40791818Y7932818D01*
X40791329Y7933266D01*
X40780487Y7941667D01*
X40767989Y7948911D01*
X40754304Y7954750D01*
X40745588Y7957511D01*
X40739954Y7958595D01*
X40732680Y7959308D01*
X40724412Y7959651D01*
X40715792Y7959626D01*
X40707464Y7959235D01*
X40700073Y7958480D01*
X40694262Y7957363D01*
X40694252Y7957360D01*
X40680631Y7952555D01*
X40667462Y7945751D01*
X40655160Y7937241D01*
X40644141Y7927318D01*
X40634821Y7916276D01*
X40633556Y7914485D01*
X40626148Y7901724D01*
X40620637Y7887914D01*
X40617066Y7873393D01*
X40615481Y7858499D01*
X40615927Y7843570D01*
X40618449Y7828945D01*
X40621051Y7820249D01*
X40623470Y7813854D01*
X40626095Y7808064D01*
X40629232Y7802335D01*
X40633186Y7796123D01*
X40638263Y7788886D01*
X40640141Y7786310D01*
X40661986Y7754793D01*
X40681605Y7722754D01*
X40699032Y7690105D01*
X40714301Y7656755D01*
X40727445Y7622616D01*
X40738499Y7587599D01*
X40747497Y7551615D01*
X40754473Y7514573D01*
X40759461Y7476386D01*
X40759847Y7472556D01*
X40760429Y7464779D01*
X40760867Y7455138D01*
X40761162Y7444078D01*
X40761317Y7432043D01*
X40761334Y7419480D01*
X40761216Y7406831D01*
X40760966Y7394543D01*
X40760585Y7383061D01*
X40760077Y7372828D01*
X40759443Y7364291D01*
X40759225Y7362086D01*
X40754033Y7323571D01*
X40746781Y7286101D01*
X40737461Y7249654D01*
X40726065Y7214203D01*
X40712582Y7179725D01*
X40697005Y7146193D01*
X40679325Y7113585D01*
X40659717Y7082152D01*
X40639830Y7054241D01*
X40617834Y7027012D01*
X40593872Y7000618D01*
X40568085Y6975208D01*
X40540616Y6950935D01*
X40521832Y6935765D01*
X40498062Y6918373D01*
X40472448Y6901736D01*
X40445398Y6886073D01*
X40417316Y6871601D01*
X40388610Y6858538D01*
X40359686Y6847103D01*
X40350314Y6843776D01*
X40314836Y6832747D01*
X40278879Y6823936D01*
X40242558Y6817334D01*
X40205986Y6812933D01*
X40169276Y6810726D01*
X40132543Y6810703D01*
X40095900Y6812858D01*
X40059460Y6817181D01*
X40023337Y6823664D01*
X39987645Y6832300D01*
X39952497Y6843079D01*
X39918007Y6855995D01*
X39884288Y6871038D01*
X39869487Y6878452D01*
X39836804Y6896681D01*
X39805387Y6916798D01*
X39775322Y6938728D01*
X39746697Y6962391D01*
X39719597Y6987711D01*
X39694110Y7014611D01*
X39670322Y7043013D01*
X39648319Y7072840D01*
X39642784Y7080995D01*
X39622659Y7113122D01*
X39604763Y7145809D01*
X39589061Y7179143D01*
X39575517Y7213212D01*
X39564096Y7248103D01*
X39554763Y7283903D01*
X39549045Y7311768D01*
X39546392Y7327155D01*
X39544260Y7341524D01*
X39542605Y7355402D01*
X39541383Y7369319D01*
X39540550Y7383804D01*
X39540060Y7399386D01*
X39539871Y7416595D01*
X39539866Y7421659D01*
X39540054Y7440896D01*
X39540627Y7458427D01*
X39541642Y7474835D01*
X39543156Y7490705D01*
X39545228Y7506620D01*
X39547916Y7523165D01*
X39551278Y7540922D01*
X39552073Y7544853D01*
X39553402Y7551061D01*
X39555004Y7558073D01*
X39556779Y7565506D01*
X39558630Y7572975D01*
X39560458Y7580099D01*
X39562165Y7586492D01*
X39563652Y7591773D01*
X39564821Y7595558D01*
X39565565Y7597446D01*
X39566519Y7597126D01*
X39569049Y7595559D01*
X39573180Y7592724D01*
X39578941Y7588601D01*
X39586359Y7583169D01*
X39595461Y7576409D01*
X39606276Y7568300D01*
X39618829Y7558821D01*
X39633150Y7547953D01*
X39647969Y7536665D01*
X39729520Y7474447D01*
X39729768Y7499529D01*
X39729887Y7511855D01*
X39730013Y7525638D01*
X39730147Y7540754D01*
X39730287Y7557079D01*
X39730432Y7574488D01*
X39730582Y7592859D01*
X39730735Y7612067D01*
X39730891Y7631989D01*
X39731049Y7652500D01*
X39731208Y7673477D01*
X39731367Y7694796D01*
X39731525Y7716333D01*
X39731682Y7737964D01*
X39731837Y7759565D01*
X39731988Y7781013D01*
X39731999Y7782566D01*
X40034903Y7782566D01*
X40034903Y7425129D01*
X40038070Y7413644D01*
X40043476Y7398099D01*
X40050684Y7383806D01*
X40059524Y7370867D01*
X40069829Y7359381D01*
X40081429Y7349446D01*
X40094156Y7341163D01*
X40107843Y7334630D01*
X40122321Y7329947D01*
X40137421Y7327213D01*
X40152975Y7326529D01*
X40168815Y7327992D01*
X40179414Y7330200D01*
X40194767Y7335289D01*
X40209046Y7342355D01*
X40222112Y7351257D01*
X40233823Y7361854D01*
X40244038Y7374007D01*
X40252616Y7387574D01*
X40259416Y7402415D01*
X40263087Y7413644D01*
X40266254Y7425129D01*
X40266254Y7782566D01*
X40266254Y8140003D01*
X40263087Y8151488D01*
X40257585Y8167287D01*
X40250192Y8181862D01*
X40241034Y8195089D01*
X40230236Y8206841D01*
X40217927Y8216991D01*
X40204231Y8225413D01*
X40189277Y8231980D01*
X40179414Y8235069D01*
X40174450Y8236323D01*
X40170118Y8237184D01*
X40165760Y8237724D01*
X40160722Y8238010D01*
X40154345Y8238112D01*
X40150578Y8238117D01*
X40143241Y8238051D01*
X40137552Y8237833D01*
X40132846Y8237392D01*
X40128459Y8236658D01*
X40123727Y8235558D01*
X40121742Y8235041D01*
X40106134Y8229743D01*
X40091684Y8222501D01*
X40078522Y8213447D01*
X40066778Y8202708D01*
X40056582Y8190416D01*
X40048062Y8176698D01*
X40041349Y8161686D01*
X40038070Y8151488D01*
X40034903Y8140003D01*
X40034903Y7782566D01*
X39731999Y7782566D01*
X39732135Y7802183D01*
X39732277Y7822953D01*
X39732414Y7843197D01*
X39732544Y7862792D01*
X39732666Y7881614D01*
X39732780Y7899540D01*
X39732884Y7916446D01*
X39732978Y7932206D01*
X39733062Y7946699D01*
X39733133Y7959800D01*
X39733192Y7971385D01*
X39733238Y7981330D01*
X39733269Y7989511D01*
X39733284Y7995805D01*
X39733284Y8000088D01*
X39733266Y8002235D01*
X39733253Y8002472D01*
X39732123Y8002199D01*
X39728888Y8001328D01*
X39723669Y7999893D01*
X39716585Y7997929D01*
X39707759Y7995468D01*
X39697309Y7992546D01*
X39685357Y7989197D01*
X39672023Y7985454D01*
X39657429Y7981352D01*
X39641693Y7976924D01*
X39624937Y7972206D01*
X39607281Y7967230D01*
X39588847Y7962031D01*
X39569753Y7956644D01*
X39550122Y7951101D01*
X39530073Y7945438D01*
X39509727Y7939689D01*
X39489205Y7933886D01*
X39468626Y7928066D01*
X39448112Y7922261D01*
X39427784Y7916506D01*
X39407760Y7910834D01*
X39388163Y7905281D01*
X39369113Y7899879D01*
X39350730Y7894664D01*
X39333135Y7889669D01*
X39316447Y7884928D01*
X39300789Y7880476D01*
X39286280Y7876346D01*
X39273041Y7872573D01*
X39261192Y7869190D01*
X39250854Y7866232D01*
X39242148Y7863733D01*
X39235193Y7861727D01*
X39230111Y7860248D01*
X39227022Y7859330D01*
X39226044Y7859010D01*
X39150630Y7859010D01*
X39150641Y7868258D01*
X39150684Y7901639D01*
X39150731Y7934104D01*
X39150781Y7965583D01*
X39150835Y7996005D01*
X39150892Y8025300D01*
X39150952Y8053399D01*
X39151016Y8080230D01*
X39151084Y8105724D01*
X39151155Y8129811D01*
X39151188Y8140003D01*
X39151229Y8152420D01*
X39151307Y8173480D01*
X39151388Y8192923D01*
X39151473Y8210677D01*
X39151561Y8226673D01*
X39151652Y8240840D01*
X39151747Y8253108D01*
X39151846Y8263407D01*
X39151947Y8271666D01*
X39152053Y8277816D01*
X39152162Y8281786D01*
X39152263Y8283441D01*
X39156112Y8302401D01*
X39162082Y8320466D01*
X39170132Y8337550D01*
X39180218Y8353569D01*
X39192300Y8368439D01*
X39197357Y8373723D01*
X39211773Y8386545D01*
X39227369Y8397387D01*
X39244062Y8406209D01*
X39261768Y8412967D01*
X39280401Y8417620D01*
X39287640Y8418818D01*
X39289579Y8418930D01*
X39293761Y8419038D01*
X39300116Y8419143D01*
X39308574Y8419245D01*
X39319065Y8419343D01*
X39331518Y8419438D01*
X39345863Y8419529D01*
X39362030Y8419617D01*
X39379949Y8419701D01*
X39399549Y8419782D01*
X39420760Y8419859D01*
X39443512Y8419933D01*
X39467735Y8420004D01*
X39493359Y8420071D01*
X39520312Y8420134D01*
X39548526Y8420195D01*
X39577929Y8420251D01*
X39608452Y8420305D01*
X39640025Y8420354D01*
X39672576Y8420401D01*
X39706036Y8420444D01*
X39740335Y8420483D01*
X39775402Y8420519D01*
X39811168Y8420552D01*
X39847561Y8420581D01*
X39884512Y8420607D01*
X39921951Y8420629D01*
X39959806Y8420648D01*
X39998009Y8420663D01*
X40036489Y8420675D01*
X40075175Y8420683D01*
X40113997Y8420688D01*
X40152885Y8420690D01*
X40191770Y8420688D01*
G37*
D15*
%TO.C,U6*%
X16450000Y39174625D02*
X15950000Y39174625D01*
X19050000Y39175006D02*
X18450000Y39175006D01*
X21550000Y39174625D02*
X21050000Y39174625D01*
X32212026Y39683134D02*
G75*
G02*
X31704026Y39683134I-254000J0D01*
G01*
X31704026Y39683134D02*
G75*
G02*
X32212026Y39683134I254000J0D01*
G01*
D11*
%TO.C,R12*%
X37656359Y11850000D02*
X37963641Y11850000D01*
X37656359Y11090000D02*
X37963641Y11090000D01*
D12*
%TO.C,U9*%
X33923787Y18076213D02*
X33923787Y17830493D01*
X33923787Y13423787D02*
X33923787Y13669507D01*
X34641491Y18076213D02*
X33923787Y18076213D01*
X34641491Y13423787D02*
X33923787Y13423787D01*
X36858509Y18076213D02*
X37576213Y18076213D01*
X36858509Y13423787D02*
X37576213Y13423787D01*
X37576213Y18076213D02*
X37576213Y17830493D01*
X37576213Y13423787D02*
X37576213Y13669507D01*
D13*
X36586932Y12828994D02*
G75*
G02*
X36437072Y12828994I-74930J0D01*
G01*
X36437072Y12828994D02*
G75*
G02*
X36586932Y12828994I74930J0D01*
G01*
D14*
X37500063Y13529782D02*
G75*
G02*
X37440119Y13529782I-29972J0D01*
G01*
X37440119Y13529782D02*
G75*
G02*
X37500063Y13529782I29972J0D01*
G01*
D11*
%TO.C,C4*%
X47280000Y18607836D02*
X47280000Y18392164D01*
X48000000Y18607836D02*
X48000000Y18392164D01*
D15*
%TO.C,J3*%
X58150000Y51762085D02*
X56900000Y51762085D01*
X58150000Y42690076D02*
X56900000Y42690076D01*
D11*
%TO.C,C6*%
X48086359Y34980000D02*
X48393641Y34980000D01*
X48086359Y34220000D02*
X48393641Y34220000D01*
%TO.C,C27*%
X47389420Y52640000D02*
X47670580Y52640000D01*
X47389420Y51620000D02*
X47670580Y51620000D01*
%TO.C,U13*%
X45570000Y48840000D02*
X45570000Y45080000D01*
X45570000Y45080000D02*
X46830000Y45080000D01*
X52390000Y48840000D02*
X52390000Y45080000D01*
X52390000Y45080000D02*
X51130000Y45080000D01*
X52620000Y49880000D02*
X52290000Y50120000D01*
X52620000Y50360000D01*
X52620000Y49880000D01*
G36*
X52620000Y49880000D02*
G01*
X52290000Y50120000D01*
X52620000Y50360000D01*
X52620000Y49880000D01*
G37*
%TO.C,C20*%
X41107836Y40260000D02*
X40892164Y40260000D01*
X41107836Y39540000D02*
X40892164Y39540000D01*
%TO.C,R6*%
X53953641Y38880000D02*
X53646359Y38880000D01*
X53953641Y38120000D02*
X53646359Y38120000D01*
D12*
%TO.C,U11*%
X33923787Y31076213D02*
X33923787Y30830493D01*
X33923787Y26423787D02*
X33923787Y26669507D01*
X34641491Y31076213D02*
X33923787Y31076213D01*
X34641491Y26423787D02*
X33923787Y26423787D01*
X36858509Y31076213D02*
X37576213Y31076213D01*
X36858509Y26423787D02*
X37576213Y26423787D01*
X37576213Y31076213D02*
X37576213Y30830493D01*
X37576213Y26423787D02*
X37576213Y26669507D01*
D13*
X36586932Y25828994D02*
G75*
G02*
X36437072Y25828994I-74930J0D01*
G01*
X36437072Y25828994D02*
G75*
G02*
X36586932Y25828994I74930J0D01*
G01*
D14*
X37500063Y26529782D02*
G75*
G02*
X37440119Y26529782I-29972J0D01*
G01*
X37440119Y26529782D02*
G75*
G02*
X37500063Y26529782I29972J0D01*
G01*
D15*
%TO.C,U15*%
X55890005Y31940005D02*
X55890005Y30740005D01*
X55890005Y30740005D02*
X58430010Y30740005D01*
X55930010Y41219990D02*
X58469990Y41219990D01*
X55930010Y39980010D02*
X55930010Y41219990D01*
D14*
X56180023Y31000000D02*
G75*
G02*
X56120079Y31000000I-29972J0D01*
G01*
X56120079Y31000000D02*
G75*
G02*
X56180023Y31000000I29972J0D01*
G01*
D11*
%TO.C,R13*%
X54053641Y41880000D02*
X53746359Y41880000D01*
X54053641Y41120000D02*
X53746359Y41120000D01*
%TO.C,C25*%
X41062836Y35518750D02*
X40847164Y35518750D01*
X41062836Y34798750D02*
X40847164Y34798750D01*
D15*
%TO.C,L1*%
X48140000Y37950000D02*
X48340000Y37950000D01*
X48140000Y36350000D02*
X48340000Y36350000D01*
D17*
X47304998Y38250000D02*
G75*
G02*
X47175002Y38250000I-64998J0D01*
G01*
X47175002Y38250000D02*
G75*
G02*
X47304998Y38250000I64998J0D01*
G01*
D11*
%TO.C,C21*%
X40961693Y22030810D02*
X40809190Y21878307D01*
X41470810Y21521693D02*
X41318307Y21369190D01*
%TO.C,C17*%
X38691693Y26560810D02*
X38539190Y26408307D01*
X39200810Y26051693D02*
X39048307Y25899190D01*
%TO.C,C18*%
X51094190Y23396693D02*
X51246693Y23244190D01*
X51603307Y23905810D02*
X51755810Y23753307D01*
D16*
%TO.C,G\u002A\u002A\u002A*%
G36*
X40323948Y43657656D02*
G01*
X40365354Y43657650D01*
X40406606Y43657641D01*
X40447629Y43657628D01*
X40488348Y43657611D01*
X40528688Y43657591D01*
X40568573Y43657567D01*
X40607930Y43657539D01*
X40646683Y43657507D01*
X40684757Y43657472D01*
X40722077Y43657433D01*
X40758568Y43657391D01*
X40794156Y43657344D01*
X40828765Y43657294D01*
X40862321Y43657241D01*
X40894749Y43657184D01*
X40925973Y43657123D01*
X40955918Y43657058D01*
X40984511Y43656990D01*
X41011675Y43656918D01*
X41037337Y43656842D01*
X41061420Y43656763D01*
X41083850Y43656680D01*
X41104553Y43656593D01*
X41123453Y43656502D01*
X41140475Y43656408D01*
X41155544Y43656311D01*
X41168586Y43656209D01*
X41179525Y43656104D01*
X41188287Y43655995D01*
X41194796Y43655883D01*
X41198978Y43655767D01*
X41200675Y43655661D01*
X41220904Y43651555D01*
X41240177Y43645185D01*
X41258404Y43636597D01*
X41275495Y43625835D01*
X41291360Y43612946D01*
X41296998Y43607550D01*
X41310677Y43592170D01*
X41322245Y43575530D01*
X41331657Y43557720D01*
X41338868Y43538830D01*
X41343832Y43518950D01*
X41345109Y43511227D01*
X41345229Y43509158D01*
X41345345Y43504696D01*
X41345457Y43497916D01*
X41345565Y43488892D01*
X41345670Y43477700D01*
X41345771Y43464413D01*
X41345868Y43449108D01*
X41345961Y43431859D01*
X41346051Y43412741D01*
X41346138Y43391829D01*
X41346220Y43369197D01*
X41346299Y43344921D01*
X41346374Y43319076D01*
X41346446Y43291736D01*
X41346514Y43262977D01*
X41346578Y43232873D01*
X41346639Y43201499D01*
X41346695Y43168930D01*
X41346749Y43135241D01*
X41346798Y43100507D01*
X41346844Y43064803D01*
X41346886Y43028204D01*
X41346924Y42990784D01*
X41346959Y42952619D01*
X41346990Y42913783D01*
X41347018Y42874351D01*
X41347041Y42834399D01*
X41347061Y42794001D01*
X41347078Y42753232D01*
X41347091Y42712167D01*
X41347100Y42670881D01*
X41347105Y42629449D01*
X41347107Y42587945D01*
X41347105Y42546445D01*
X41347099Y42505023D01*
X41347089Y42463755D01*
X41347076Y42422715D01*
X41347060Y42381979D01*
X41347039Y42341620D01*
X41347015Y42301715D01*
X41346987Y42262337D01*
X41346956Y42223562D01*
X41346921Y42185465D01*
X41346882Y42148121D01*
X41346840Y42111604D01*
X41346793Y42075990D01*
X41346744Y42041353D01*
X41346690Y42007768D01*
X41346633Y41975311D01*
X41346572Y41944055D01*
X41346507Y41914077D01*
X41346439Y41885450D01*
X41346367Y41858250D01*
X41346292Y41832552D01*
X41346212Y41808431D01*
X41346130Y41785961D01*
X41346043Y41765217D01*
X41345953Y41746275D01*
X41345859Y41729209D01*
X41345761Y41714094D01*
X41345660Y41701005D01*
X41345555Y41690018D01*
X41345446Y41681206D01*
X41345334Y41674644D01*
X41345218Y41670409D01*
X41345109Y41668644D01*
X41341003Y41648415D01*
X41334633Y41629141D01*
X41326045Y41610914D01*
X41315284Y41593823D01*
X41302394Y41577958D01*
X41296998Y41572320D01*
X41281618Y41558641D01*
X41264978Y41547073D01*
X41247168Y41537661D01*
X41228278Y41530451D01*
X41208398Y41525487D01*
X41200675Y41524209D01*
X41198642Y41524095D01*
X41194217Y41523984D01*
X41187473Y41523877D01*
X41178487Y41523774D01*
X41167333Y41523674D01*
X41154085Y41523578D01*
X41138818Y41523485D01*
X41121608Y41523396D01*
X41102529Y41523311D01*
X41081656Y41523229D01*
X41059064Y41523151D01*
X41034827Y41523077D01*
X41009020Y41523006D01*
X40981719Y41522939D01*
X40952998Y41522875D01*
X40922931Y41522815D01*
X40891594Y41522759D01*
X40859062Y41522706D01*
X40825409Y41522657D01*
X40790710Y41522611D01*
X40755040Y41522569D01*
X40718474Y41522531D01*
X40681086Y41522496D01*
X40642952Y41522464D01*
X40604146Y41522437D01*
X40564743Y41522412D01*
X40524818Y41522392D01*
X40484445Y41522375D01*
X40443700Y41522361D01*
X40402658Y41522351D01*
X40361392Y41522344D01*
X40319979Y41522341D01*
X40278492Y41522342D01*
X40237007Y41522346D01*
X40195598Y41522353D01*
X40154341Y41522364D01*
X40113310Y41522379D01*
X40072579Y41522397D01*
X40032225Y41522419D01*
X39992321Y41522444D01*
X39952942Y41522472D01*
X39914163Y41522504D01*
X39876060Y41522540D01*
X39838706Y41522579D01*
X39802177Y41522622D01*
X39766547Y41522668D01*
X39731892Y41522717D01*
X39698286Y41522770D01*
X39665803Y41522826D01*
X39634520Y41522886D01*
X39604510Y41522950D01*
X39575848Y41523016D01*
X39548610Y41523087D01*
X39522870Y41523160D01*
X39498702Y41523237D01*
X39476182Y41523318D01*
X39455385Y41523402D01*
X39436385Y41523489D01*
X39419257Y41523580D01*
X39404076Y41523674D01*
X39390917Y41523772D01*
X39379855Y41523873D01*
X39370964Y41523977D01*
X39364319Y41524085D01*
X39359996Y41524197D01*
X39358092Y41524308D01*
X39338197Y41528485D01*
X39319085Y41534970D01*
X39300921Y41543677D01*
X39283869Y41554526D01*
X39268092Y41567433D01*
X39263003Y41572320D01*
X39249324Y41587700D01*
X39237756Y41604340D01*
X39228344Y41622150D01*
X39221133Y41641040D01*
X39216169Y41660920D01*
X39214891Y41668644D01*
X39214772Y41670712D01*
X39214656Y41675174D01*
X39214544Y41681954D01*
X39214436Y41690978D01*
X39214331Y41702170D01*
X39214230Y41715457D01*
X39214133Y41730762D01*
X39214039Y41748011D01*
X39213949Y41767129D01*
X39213863Y41788041D01*
X39213781Y41810673D01*
X39213702Y41834949D01*
X39213626Y41860794D01*
X39213555Y41888134D01*
X39213487Y41916893D01*
X39213423Y41946998D01*
X39213387Y41965345D01*
X39334685Y41965345D01*
X39334725Y41955615D01*
X39334878Y41946370D01*
X39335144Y41938078D01*
X39335524Y41931206D01*
X39336018Y41926219D01*
X39336155Y41925346D01*
X39337055Y41920121D01*
X39338163Y41913582D01*
X39339288Y41906851D01*
X39339699Y41904366D01*
X39340882Y41898612D01*
X39342732Y41891331D01*
X39345066Y41883099D01*
X39347702Y41874495D01*
X39350457Y41866099D01*
X39353151Y41858487D01*
X39355600Y41852239D01*
X39357250Y41848630D01*
X39359039Y41844868D01*
X39361242Y41839857D01*
X39363396Y41834653D01*
X39363482Y41834437D01*
X39366759Y41827260D01*
X39371241Y41818952D01*
X39376505Y41810232D01*
X39382125Y41801822D01*
X39385197Y41797612D01*
X39388318Y41793351D01*
X39391237Y41789142D01*
X39393006Y41786401D01*
X39394493Y41784513D01*
X39397521Y41781126D01*
X39401869Y41776472D01*
X39407316Y41770782D01*
X39413642Y41764287D01*
X39420626Y41757218D01*
X39427039Y41750807D01*
X39458396Y41719635D01*
X39478590Y41707296D01*
X39486216Y41702734D01*
X39494383Y41698013D01*
X39502377Y41693534D01*
X39509486Y41689700D01*
X39513461Y41687660D01*
X39522141Y41683689D01*
X39532095Y41679698D01*
X39542560Y41675953D01*
X39552773Y41672720D01*
X39561970Y41670262D01*
X39566046Y41669389D01*
X39570842Y41668460D01*
X39576732Y41667296D01*
X39582090Y41666220D01*
X39587439Y41665279D01*
X39594181Y41664298D01*
X39601251Y41663427D01*
X39604921Y41663045D01*
X39611125Y41662406D01*
X39617029Y41661719D01*
X39621827Y41661080D01*
X39624051Y41660722D01*
X39632168Y41659794D01*
X39641433Y41659651D01*
X39650656Y41660292D01*
X39653670Y41660704D01*
X39658510Y41661373D01*
X39664786Y41662109D01*
X39671469Y41662795D01*
X39674651Y41663084D01*
X39681497Y41663729D01*
X39687487Y41664461D01*
X39693098Y41665392D01*
X39698808Y41666634D01*
X39705096Y41668300D01*
X39712438Y41670500D01*
X39721314Y41673347D01*
X39728183Y41675614D01*
X39742049Y41680557D01*
X39755674Y41686051D01*
X39768704Y41691917D01*
X39780787Y41697976D01*
X39791568Y41704050D01*
X39800693Y41709961D01*
X39807810Y41715529D01*
X39808556Y41716207D01*
X39812144Y41719137D01*
X39816913Y41722520D01*
X39821865Y41725651D01*
X39822132Y41725807D01*
X39826036Y41728325D01*
X39830176Y41731539D01*
X39834882Y41735747D01*
X39840486Y41741246D01*
X39847318Y41748333D01*
X39847689Y41748725D01*
X39853216Y41754712D01*
X39858411Y41760603D01*
X39862924Y41765981D01*
X39866409Y41770431D01*
X39868515Y41773538D01*
X39868523Y41773552D01*
X39871584Y41778340D01*
X39875436Y41783518D01*
X39878287Y41786890D01*
X39881804Y41791268D01*
X39886054Y41797383D01*
X39890742Y41804724D01*
X39895575Y41812783D01*
X39900259Y41821051D01*
X39904499Y41829019D01*
X39908002Y41836179D01*
X39910473Y41842021D01*
X39910986Y41843491D01*
X39913066Y41849381D01*
X39915504Y41855496D01*
X39917802Y41860596D01*
X39917991Y41860975D01*
X39920047Y41865976D01*
X39922235Y41872929D01*
X39924428Y41881331D01*
X39926499Y41890679D01*
X39928319Y41900472D01*
X39928848Y41903749D01*
X39929665Y41908535D01*
X39930771Y41914413D01*
X39931860Y41919793D01*
X39932525Y41924383D01*
X39933055Y41930908D01*
X39933446Y41938836D01*
X39933692Y41947637D01*
X39933788Y41956781D01*
X39933729Y41965736D01*
X39933509Y41973971D01*
X39933124Y41980957D01*
X39932568Y41986162D01*
X39932524Y41986437D01*
X39931905Y41990668D01*
X39931168Y41996427D01*
X39930428Y42002785D01*
X39930063Y42006183D01*
X39928065Y42018696D01*
X39924790Y42031270D01*
X39924525Y42032100D01*
X39922539Y42038558D01*
X39920645Y42045271D01*
X39919121Y42051230D01*
X39918527Y42053892D01*
X39916946Y42059609D01*
X39914224Y42066690D01*
X39910254Y42075392D01*
X39907378Y42081208D01*
X39903769Y42088460D01*
X39901193Y42093964D01*
X39899493Y42098132D01*
X39898509Y42101377D01*
X39898085Y42104111D01*
X39898032Y42105564D01*
X39898032Y42111436D01*
X39930288Y42144274D01*
X39941710Y42155901D01*
X39951535Y42165895D01*
X39959899Y42174380D01*
X39966935Y42181483D01*
X39972779Y42187330D01*
X39977564Y42192046D01*
X39981426Y42195758D01*
X39984500Y42198591D01*
X39986919Y42200671D01*
X39988819Y42202123D01*
X39990333Y42203075D01*
X39991598Y42203651D01*
X39992746Y42203977D01*
X39993913Y42204179D01*
X39994458Y42204260D01*
X39997956Y42204436D01*
X40002799Y42204055D01*
X40009322Y42203077D01*
X40017862Y42201460D01*
X40018430Y42201345D01*
X40025869Y42199889D01*
X40033399Y42198510D01*
X40040251Y42197342D01*
X40045659Y42196519D01*
X40046746Y42196377D01*
X40052717Y42195524D01*
X40059797Y42194346D01*
X40066689Y42193064D01*
X40068344Y42192729D01*
X40079103Y42190572D01*
X40088487Y42188858D01*
X40097512Y42187407D01*
X40104751Y42186373D01*
X40110999Y42185428D01*
X40117733Y42184266D01*
X40123264Y42183188D01*
X40131868Y42181395D01*
X40140788Y42179603D01*
X40149641Y42177880D01*
X40158046Y42176298D01*
X40165620Y42174927D01*
X40171982Y42173837D01*
X40176750Y42173099D01*
X40179541Y42172783D01*
X40179770Y42172777D01*
X40182116Y42172527D01*
X40186466Y42171836D01*
X40192409Y42170779D01*
X40199536Y42169429D01*
X40207435Y42167861D01*
X40210888Y42167155D01*
X40219730Y42165374D01*
X40228665Y42163656D01*
X40237098Y42162108D01*
X40244434Y42160840D01*
X40250078Y42159959D01*
X40250998Y42159833D01*
X40257166Y42158928D01*
X40264846Y42157671D01*
X40273135Y42156214D01*
X40281130Y42154714D01*
X40282496Y42154445D01*
X40290024Y42153001D01*
X40297709Y42151608D01*
X40304758Y42150403D01*
X40310383Y42149526D01*
X40311498Y42149371D01*
X40317983Y42148405D01*
X40325916Y42147077D01*
X40334596Y42145517D01*
X40343318Y42143859D01*
X40351380Y42142234D01*
X40358078Y42140773D01*
X40360842Y42140110D01*
X40365335Y42139136D01*
X40371187Y42138084D01*
X40377300Y42137147D01*
X40378737Y42136953D01*
X40383739Y42136227D01*
X40390486Y42135139D01*
X40398300Y42133803D01*
X40406504Y42132335D01*
X40412054Y42131302D01*
X40420263Y42129777D01*
X40428676Y42128268D01*
X40436574Y42126899D01*
X40443240Y42125796D01*
X40446610Y42125276D01*
X40451495Y42124503D01*
X40458255Y42123359D01*
X40466340Y42121938D01*
X40475203Y42120339D01*
X40484295Y42118658D01*
X40487954Y42117970D01*
X40501138Y42115503D01*
X40512256Y42113498D01*
X40521656Y42111911D01*
X40529689Y42110696D01*
X40536702Y42109808D01*
X40543046Y42109202D01*
X40549069Y42108832D01*
X40555120Y42108653D01*
X40560152Y42108617D01*
X40574085Y42109062D01*
X40587091Y42110475D01*
X40599714Y42112991D01*
X40612495Y42116747D01*
X40625978Y42121878D01*
X40640703Y42128521D01*
X40641934Y42129113D01*
X40649214Y42132685D01*
X40654775Y42135593D01*
X40659147Y42138181D01*
X40662864Y42140795D01*
X40666456Y42143779D01*
X40670457Y42147480D01*
X40670936Y42147938D01*
X40676123Y42152639D01*
X40681793Y42157363D01*
X40687097Y42161419D01*
X40689738Y42163237D01*
X40692895Y42165539D01*
X40697142Y42169090D01*
X40702578Y42173986D01*
X40709305Y42180319D01*
X40717422Y42188185D01*
X40727029Y42197677D01*
X40737143Y42207799D01*
X40748217Y42218874D01*
X40757628Y42228154D01*
X40765389Y42235651D01*
X40771515Y42241380D01*
X40776021Y42245354D01*
X40778922Y42247587D01*
X40779852Y42248083D01*
X40782564Y42248693D01*
X40785223Y42248523D01*
X40788138Y42247384D01*
X40791620Y42245089D01*
X40795979Y42241450D01*
X40801526Y42236278D01*
X40805130Y42232777D01*
X40811642Y42226631D01*
X40817751Y42221312D01*
X40823032Y42217174D01*
X40826728Y42214751D01*
X40831564Y42211773D01*
X40836390Y42208342D01*
X40839288Y42205964D01*
X40843563Y42202720D01*
X40849432Y42199095D01*
X40856144Y42195476D01*
X40862947Y42192251D01*
X40869088Y42189809D01*
X40872637Y42188761D01*
X40888606Y42185650D01*
X40903323Y42183976D01*
X40917534Y42183729D01*
X40931985Y42184896D01*
X40947423Y42187469D01*
X40948377Y42187663D01*
X40959576Y42190723D01*
X40970480Y42195105D01*
X40980377Y42200472D01*
X40988554Y42206491D01*
X40988723Y42206641D01*
X40993296Y42210310D01*
X40998550Y42213971D01*
X41001360Y42215689D01*
X41004788Y42218075D01*
X41009669Y42222178D01*
X41016041Y42228035D01*
X41023945Y42235683D01*
X41033422Y42245158D01*
X41034095Y42245840D01*
X41051649Y42263634D01*
X41067553Y42279760D01*
X41081892Y42294305D01*
X41094751Y42307358D01*
X41106215Y42319006D01*
X41116368Y42329338D01*
X41125295Y42338442D01*
X41133080Y42346405D01*
X41139809Y42353316D01*
X41145565Y42359263D01*
X41150434Y42364334D01*
X41154500Y42368616D01*
X41157848Y42372199D01*
X41160562Y42375169D01*
X41162727Y42377616D01*
X41164428Y42379626D01*
X41165749Y42381289D01*
X41166776Y42382691D01*
X41167592Y42383922D01*
X41168283Y42385069D01*
X41168733Y42385862D01*
X41171612Y42390583D01*
X41174755Y42395085D01*
X41177287Y42398175D01*
X41180781Y42402688D01*
X41184527Y42408852D01*
X41188161Y42415931D01*
X41191319Y42423186D01*
X41193634Y42429880D01*
X41194331Y42432638D01*
X41196378Y42442971D01*
X41197736Y42451758D01*
X41198485Y42459800D01*
X41198699Y42467896D01*
X41198489Y42476098D01*
X41198090Y42483670D01*
X41197553Y42490005D01*
X41196759Y42495924D01*
X41195590Y42502245D01*
X41193927Y42509790D01*
X41193077Y42513418D01*
X41191133Y42519129D01*
X41187793Y42526174D01*
X41183327Y42534068D01*
X41178008Y42542326D01*
X41173366Y42548803D01*
X41170482Y42552922D01*
X41167346Y42557818D01*
X41165716Y42560558D01*
X41164541Y42562214D01*
X41162350Y42564816D01*
X41159075Y42568436D01*
X41154647Y42573141D01*
X41148998Y42579001D01*
X41142060Y42586085D01*
X41133763Y42594463D01*
X41124041Y42604205D01*
X41112824Y42615379D01*
X41100044Y42628054D01*
X41085633Y42642301D01*
X41069522Y42658189D01*
X41067993Y42659695D01*
X41052463Y42674981D01*
X41038584Y42688618D01*
X41026261Y42700696D01*
X41015397Y42711307D01*
X41005896Y42720544D01*
X40997661Y42728498D01*
X40990596Y42735261D01*
X40984605Y42740924D01*
X40979590Y42745581D01*
X40975456Y42749322D01*
X40972107Y42752239D01*
X40969444Y42754425D01*
X40967373Y42755971D01*
X40965966Y42756873D01*
X40960994Y42759973D01*
X40956008Y42763470D01*
X40952427Y42766323D01*
X40947086Y42770318D01*
X40940114Y42774518D01*
X40932272Y42778521D01*
X40924322Y42781924D01*
X40919906Y42783483D01*
X40915322Y42784708D01*
X40909172Y42786023D01*
X40902344Y42787252D01*
X40897142Y42788033D01*
X40891350Y42788849D01*
X40886465Y42789603D01*
X40883002Y42790212D01*
X40881472Y42790592D01*
X40881471Y42790593D01*
X40879856Y42790678D01*
X40876310Y42790383D01*
X40871330Y42789779D01*
X40865409Y42788940D01*
X40859045Y42787936D01*
X40852733Y42786841D01*
X40846968Y42785727D01*
X40844623Y42785225D01*
X40837074Y42782972D01*
X40828063Y42779321D01*
X40818011Y42774468D01*
X40807338Y42768611D01*
X40801257Y42764971D01*
X40799343Y42763742D01*
X40797325Y42762323D01*
X40795088Y42760604D01*
X40792519Y42758475D01*
X40789503Y42755824D01*
X40785926Y42752540D01*
X40781672Y42748512D01*
X40776628Y42743629D01*
X40770678Y42737781D01*
X40763710Y42730856D01*
X40755607Y42722743D01*
X40746256Y42713331D01*
X40735543Y42702510D01*
X40723351Y42690168D01*
X40709569Y42676194D01*
X40706845Y42673431D01*
X40692674Y42659057D01*
X40680116Y42646313D01*
X40669056Y42635068D01*
X40659380Y42625190D01*
X40650972Y42616547D01*
X40643719Y42609007D01*
X40637505Y42602438D01*
X40632216Y42596709D01*
X40627736Y42591687D01*
X40623952Y42587240D01*
X40620747Y42583237D01*
X40618009Y42579546D01*
X40615620Y42576034D01*
X40613468Y42572570D01*
X40611437Y42569023D01*
X40609413Y42565259D01*
X40607280Y42561148D01*
X40604923Y42556557D01*
X40604597Y42555923D01*
X40601505Y42549493D01*
X40599040Y42543262D01*
X40597059Y42536683D01*
X40595420Y42529210D01*
X40593979Y42520296D01*
X40592761Y42510827D01*
X40592203Y42498490D01*
X40593219Y42485322D01*
X40595659Y42471842D01*
X40599372Y42458572D01*
X40604209Y42446031D01*
X40610018Y42434742D01*
X40616650Y42425224D01*
X40617874Y42423790D01*
X40621537Y42419245D01*
X40625320Y42413942D01*
X40627459Y42410587D01*
X40630069Y42406891D01*
X40634120Y42402010D01*
X40639210Y42396399D01*
X40644939Y42390517D01*
X40646234Y42389242D01*
X40651688Y42383867D01*
X40655590Y42379858D01*
X40658194Y42376898D01*
X40659751Y42374665D01*
X40660513Y42372843D01*
X40660733Y42371112D01*
X40660735Y42370898D01*
X40660405Y42367043D01*
X40659641Y42363837D01*
X40658535Y42362320D01*
X40655874Y42359277D01*
X40651861Y42354913D01*
X40646700Y42349436D01*
X40640593Y42343051D01*
X40633745Y42335964D01*
X40626359Y42328381D01*
X40618637Y42320508D01*
X40610784Y42312552D01*
X40603002Y42304718D01*
X40595496Y42297212D01*
X40588468Y42290241D01*
X40582121Y42284011D01*
X40576660Y42278727D01*
X40572287Y42274595D01*
X40569206Y42271822D01*
X40567659Y42270634D01*
X40563754Y42269306D01*
X40558550Y42268804D01*
X40551784Y42269137D01*
X40543194Y42270317D01*
X40534235Y42271999D01*
X40524580Y42273945D01*
X40516846Y42275438D01*
X40510547Y42276560D01*
X40505195Y42277397D01*
X40500302Y42278032D01*
X40497210Y42278368D01*
X40491545Y42279123D01*
X40485363Y42280205D01*
X40482401Y42280831D01*
X40477782Y42281823D01*
X40471241Y42283129D01*
X40463290Y42284655D01*
X40454441Y42286307D01*
X40445206Y42287991D01*
X40436098Y42289614D01*
X40427629Y42291082D01*
X40420311Y42292302D01*
X40415757Y42293017D01*
X40410166Y42293926D01*
X40402921Y42295207D01*
X40394781Y42296718D01*
X40386505Y42298321D01*
X40382435Y42299137D01*
X40374722Y42300678D01*
X40367076Y42302155D01*
X40360150Y42303446D01*
X40354595Y42304428D01*
X40352198Y42304818D01*
X40341800Y42306450D01*
X40333228Y42307896D01*
X40325859Y42309266D01*
X40320110Y42310445D01*
X40313550Y42311793D01*
X40305944Y42313266D01*
X40297863Y42314763D01*
X40289877Y42316183D01*
X40282557Y42317424D01*
X40276474Y42318384D01*
X40272199Y42318964D01*
X40271978Y42318988D01*
X40268333Y42319441D01*
X40264071Y42320114D01*
X40258794Y42321081D01*
X40252103Y42322416D01*
X40243600Y42324196D01*
X40238656Y42325251D01*
X40233499Y42326231D01*
X40227110Y42327268D01*
X40220712Y42328166D01*
X40219527Y42328313D01*
X40215126Y42328854D01*
X40211285Y42329360D01*
X40207586Y42329904D01*
X40203613Y42330559D01*
X40198948Y42331396D01*
X40193174Y42332489D01*
X40185876Y42333910D01*
X40176634Y42335731D01*
X40175098Y42336035D01*
X40167524Y42337523D01*
X40160349Y42338916D01*
X40154102Y42340112D01*
X40149310Y42341011D01*
X40146829Y42341457D01*
X40141741Y42343063D01*
X40138211Y42345691D01*
X40136554Y42348997D01*
X40136909Y42352231D01*
X40137851Y42353316D01*
X40140467Y42356096D01*
X40144697Y42360510D01*
X40150481Y42366497D01*
X40157759Y42373996D01*
X40166470Y42382945D01*
X40176556Y42393283D01*
X40187955Y42404950D01*
X40200607Y42417883D01*
X40214453Y42432022D01*
X40229433Y42447305D01*
X40245486Y42463671D01*
X40262553Y42481059D01*
X40280573Y42499408D01*
X40299486Y42518656D01*
X40319232Y42538742D01*
X40339752Y42559605D01*
X40360985Y42581184D01*
X40382871Y42603417D01*
X40405350Y42626244D01*
X40428363Y42649602D01*
X40451848Y42673432D01*
X40465123Y42686897D01*
X40488846Y42710959D01*
X40512132Y42734582D01*
X40534920Y42757703D01*
X40557152Y42780262D01*
X40578766Y42802197D01*
X40599702Y42823448D01*
X40619900Y42843953D01*
X40639301Y42863652D01*
X40657843Y42882483D01*
X40675468Y42900385D01*
X40692114Y42917296D01*
X40707722Y42933157D01*
X40722231Y42947906D01*
X40735582Y42961481D01*
X40747714Y42973822D01*
X40758567Y42984867D01*
X40768081Y42994556D01*
X40776196Y43002827D01*
X40782851Y43009620D01*
X40787988Y43014872D01*
X40791544Y43018524D01*
X40793461Y43020513D01*
X40793796Y43020878D01*
X40796343Y43023212D01*
X40800213Y43025553D01*
X40804343Y43027352D01*
X40807631Y43028058D01*
X40810844Y43027492D01*
X40812925Y43026688D01*
X40814319Y43025563D01*
X40817277Y43022869D01*
X40821617Y43018780D01*
X40827157Y43013471D01*
X40833716Y43007117D01*
X40841112Y42999894D01*
X40849163Y42991976D01*
X40857688Y42983539D01*
X40858199Y42983032D01*
X40868481Y42972846D01*
X40877203Y42964267D01*
X40884533Y42957140D01*
X40890641Y42951311D01*
X40895693Y42946623D01*
X40899859Y42942923D01*
X40903306Y42940055D01*
X40906203Y42937864D01*
X40908719Y42936195D01*
X40909626Y42935656D01*
X40914327Y42932832D01*
X40918655Y42930024D01*
X40921784Y42927773D01*
X40922130Y42927491D01*
X40929201Y42922690D01*
X40938187Y42918376D01*
X40948562Y42914695D01*
X40959796Y42911791D01*
X40971361Y42909813D01*
X40982729Y42908905D01*
X40989272Y42908936D01*
X40998032Y42909630D01*
X41007018Y42910924D01*
X41015554Y42912678D01*
X41022964Y42914755D01*
X41028504Y42916981D01*
X41032516Y42918858D01*
X41037439Y42920938D01*
X41040174Y42922004D01*
X41045265Y42924505D01*
X41050651Y42928087D01*
X41053499Y42930426D01*
X41058144Y42934241D01*
X41063437Y42938033D01*
X41067080Y42940303D01*
X41072294Y42943799D01*
X41075932Y42947711D01*
X41077435Y42950089D01*
X41080176Y42954756D01*
X41083238Y42959542D01*
X41087074Y42965137D01*
X41090168Y42969493D01*
X41093719Y42975544D01*
X41097428Y42983974D01*
X41101269Y42994699D01*
X41105217Y43007638D01*
X41109248Y43022706D01*
X41113338Y43039823D01*
X41117460Y43058903D01*
X41118468Y43063848D01*
X41119476Y43068806D01*
X41120365Y43073028D01*
X41121261Y43077061D01*
X41122293Y43081451D01*
X41123588Y43086742D01*
X41125272Y43093480D01*
X41126825Y43099638D01*
X41128417Y43106204D01*
X41129971Y43113051D01*
X41131251Y43119121D01*
X41131730Y43121623D01*
X41132607Y43126142D01*
X41133405Y43129702D01*
X41133966Y43131608D01*
X41134012Y43131695D01*
X41134544Y43133318D01*
X41135559Y43137166D01*
X41137010Y43143052D01*
X41138854Y43150791D01*
X41141045Y43160196D01*
X41143538Y43171080D01*
X41144549Y43175538D01*
X41146737Y43185124D01*
X41149053Y43195130D01*
X41151394Y43205119D01*
X41153656Y43214650D01*
X41155732Y43223284D01*
X41157520Y43230583D01*
X41158915Y43236107D01*
X41159377Y43237863D01*
X41160954Y43244106D01*
X41162560Y43251064D01*
X41163675Y43256375D01*
X41164866Y43262098D01*
X41166203Y43267972D01*
X41167316Y43272419D01*
X41168861Y43278309D01*
X41170584Y43285151D01*
X41172352Y43292381D01*
X41174030Y43299436D01*
X41175484Y43305751D01*
X41176580Y43310765D01*
X41177160Y43313763D01*
X41177990Y43317731D01*
X41179277Y43322719D01*
X41180269Y43326104D01*
X41181741Y43331464D01*
X41183169Y43337699D01*
X41184017Y43342148D01*
X41184901Y43346941D01*
X41186182Y43353241D01*
X41187675Y43360159D01*
X41188910Y43365597D01*
X41191459Y43377740D01*
X41193280Y43389048D01*
X41194334Y43399150D01*
X41194581Y43407669D01*
X41194048Y43413865D01*
X41193214Y43418839D01*
X41192235Y43424950D01*
X41191321Y43430892D01*
X41191304Y43431007D01*
X41190142Y43437118D01*
X41188529Y43443581D01*
X41186846Y43448902D01*
X41185402Y43453384D01*
X41184523Y43457308D01*
X41184394Y43459740D01*
X41184271Y43460711D01*
X41183512Y43462156D01*
X41181971Y43464229D01*
X41179502Y43467089D01*
X41175960Y43470890D01*
X41171200Y43475791D01*
X41165076Y43481948D01*
X41157443Y43489517D01*
X41149349Y43497484D01*
X41140432Y43506225D01*
X41133092Y43513380D01*
X41127152Y43519101D01*
X41122440Y43523542D01*
X41118781Y43526855D01*
X41116000Y43529195D01*
X41113923Y43530714D01*
X41112374Y43531567D01*
X41111181Y43531905D01*
X41110202Y43531888D01*
X41106247Y43532257D01*
X41101080Y43534188D01*
X41100203Y43534619D01*
X41094598Y43536835D01*
X41087187Y43538860D01*
X41078632Y43540572D01*
X41069595Y43541852D01*
X41060738Y43542578D01*
X41055977Y43542697D01*
X41050073Y43542402D01*
X41042449Y43541586D01*
X41033693Y43540355D01*
X41024391Y43538812D01*
X41015132Y43537064D01*
X41006503Y43535214D01*
X40999090Y43533369D01*
X40993482Y43531632D01*
X40992988Y43531447D01*
X40990415Y43530706D01*
X40986070Y43529702D01*
X40980615Y43528580D01*
X40976060Y43527726D01*
X40969698Y43526483D01*
X40963450Y43525091D01*
X40958190Y43523753D01*
X40955696Y43523001D01*
X40951822Y43521864D01*
X40946259Y43520448D01*
X40939743Y43518933D01*
X40933012Y43517496D01*
X40932865Y43517466D01*
X40925978Y43516024D01*
X40919131Y43514507D01*
X40913123Y43513096D01*
X40908799Y43511987D01*
X40897367Y43508915D01*
X40885603Y43505944D01*
X40874308Y43503270D01*
X40864287Y43501086D01*
X40861284Y43500484D01*
X40854569Y43499077D01*
X40847379Y43497411D01*
X40840947Y43495776D01*
X40839069Y43495255D01*
X40833219Y43493664D01*
X40827131Y43492141D01*
X40822063Y43491000D01*
X40821791Y43490945D01*
X40817626Y43490053D01*
X40811849Y43488741D01*
X40805243Y43487189D01*
X40798960Y43485669D01*
X40791375Y43483853D01*
X40782997Y43481923D01*
X40774985Y43480145D01*
X40769957Y43479078D01*
X40757932Y43476488D01*
X40745602Y43473630D01*
X40733768Y43470700D01*
X40723230Y43467891D01*
X40719357Y43466786D01*
X40713493Y43465207D01*
X40706430Y43463501D01*
X40699403Y43461962D01*
X40697142Y43461510D01*
X40684709Y43458860D01*
X40670124Y43455314D01*
X40653522Y43450906D01*
X40647777Y43449310D01*
X40641910Y43447414D01*
X40634878Y43444766D01*
X40627699Y43441762D01*
X40623094Y43439644D01*
X40618400Y43437346D01*
X40614626Y43435344D01*
X40611364Y43433319D01*
X40608210Y43430954D01*
X40604757Y43427931D01*
X40600600Y43423933D01*
X40595334Y43418641D01*
X40592136Y43415389D01*
X40586157Y43409267D01*
X40581645Y43404524D01*
X40578320Y43400796D01*
X40575901Y43397718D01*
X40574109Y43394926D01*
X40572663Y43392056D01*
X40571282Y43388744D01*
X40570918Y43387812D01*
X40568618Y43381963D01*
X40566151Y43375797D01*
X40564019Y43370569D01*
X40563861Y43370188D01*
X40562067Y43365100D01*
X40560584Y43359067D01*
X40559343Y43351685D01*
X40558270Y43342549D01*
X40557520Y43334126D01*
X40557619Y43324622D01*
X40559276Y43313362D01*
X40562467Y43300482D01*
X40565495Y43290883D01*
X40568082Y43283607D01*
X40570398Y43278049D01*
X40572794Y43273535D01*
X40575621Y43269395D01*
X40578738Y43265534D01*
X40582368Y43260873D01*
X40586138Y43255455D01*
X40588367Y43251896D01*
X40589933Y43249590D01*
X40592408Y43246517D01*
X40595912Y43242554D01*
X40600564Y43237575D01*
X40606485Y43231454D01*
X40613796Y43224067D01*
X40622614Y43215289D01*
X40633062Y43204993D01*
X40637744Y43200403D01*
X40648330Y43190025D01*
X40657275Y43181213D01*
X40664704Y43173812D01*
X40670744Y43167666D01*
X40675522Y43162619D01*
X40679165Y43158517D01*
X40681799Y43155203D01*
X40683551Y43152522D01*
X40684548Y43150319D01*
X40684916Y43148437D01*
X40684782Y43146723D01*
X40684273Y43145019D01*
X40683810Y43143865D01*
X40682794Y43142629D01*
X40680068Y43139667D01*
X40675661Y43135006D01*
X40669599Y43128674D01*
X40661909Y43120698D01*
X40652619Y43111108D01*
X40641756Y43099929D01*
X40629346Y43087190D01*
X40615418Y43072919D01*
X40599998Y43057144D01*
X40583113Y43039892D01*
X40564791Y43021191D01*
X40545058Y43001068D01*
X40523943Y42979552D01*
X40501472Y42956671D01*
X40477672Y42932452D01*
X40452570Y42906922D01*
X40426194Y42880110D01*
X40398571Y42852044D01*
X40369728Y42822750D01*
X40339692Y42792258D01*
X40331257Y42783696D01*
X40299405Y42751368D01*
X40269240Y42720752D01*
X40240716Y42691801D01*
X40213787Y42664468D01*
X40188407Y42638708D01*
X40164531Y42614475D01*
X40142112Y42591722D01*
X40121104Y42570404D01*
X40101461Y42550473D01*
X40083137Y42531885D01*
X40066087Y42514592D01*
X40050264Y42498548D01*
X40035623Y42483708D01*
X40022116Y42470025D01*
X40009699Y42457454D01*
X39998326Y42445947D01*
X39987949Y42435458D01*
X39978524Y42425942D01*
X39970005Y42417353D01*
X39962345Y42409643D01*
X39955498Y42402767D01*
X39949418Y42396680D01*
X39944060Y42391333D01*
X39939378Y42386682D01*
X39935324Y42382681D01*
X39931855Y42379282D01*
X39928922Y42376441D01*
X39926481Y42374110D01*
X39924486Y42372243D01*
X39922890Y42370795D01*
X39921648Y42369719D01*
X39920713Y42368970D01*
X39920040Y42368499D01*
X39919582Y42368263D01*
X39919294Y42368214D01*
X39919129Y42368307D01*
X39919042Y42368494D01*
X39918986Y42368731D01*
X39918916Y42368970D01*
X39918786Y42369166D01*
X39918549Y42369272D01*
X39918519Y42369276D01*
X39915991Y42369882D01*
X39913963Y42371331D01*
X39912307Y42373929D01*
X39910890Y42377983D01*
X39909583Y42383800D01*
X39908255Y42391684D01*
X39907859Y42394323D01*
X39906546Y42403204D01*
X39905337Y42411291D01*
X39904164Y42419040D01*
X39902954Y42426902D01*
X39901639Y42435333D01*
X39900147Y42444786D01*
X39898408Y42455714D01*
X39896352Y42468572D01*
X39896087Y42470223D01*
X39895100Y42476524D01*
X39894118Y42483020D01*
X39893313Y42488575D01*
X39893120Y42489969D01*
X39892398Y42494981D01*
X39891427Y42501293D01*
X39890385Y42507776D01*
X39890062Y42509715D01*
X39888561Y42518734D01*
X39887423Y42525815D01*
X39886578Y42531450D01*
X39885959Y42536132D01*
X39885496Y42540352D01*
X39885120Y42544604D01*
X39885049Y42545506D01*
X39884524Y42550995D01*
X39883851Y42556365D01*
X39883200Y42560315D01*
X39882587Y42563645D01*
X39881724Y42568754D01*
X39880720Y42574981D01*
X39879682Y42581663D01*
X39879551Y42582530D01*
X39878498Y42589452D01*
X39877456Y42596229D01*
X39876541Y42602115D01*
X39875869Y42606363D01*
X39875831Y42606596D01*
X39875169Y42610748D01*
X39874254Y42616565D01*
X39873208Y42623274D01*
X39872161Y42630045D01*
X39871102Y42636873D01*
X39870049Y42643578D01*
X39869126Y42649385D01*
X39868458Y42653494D01*
X39867782Y42657645D01*
X39866854Y42663462D01*
X39865797Y42670171D01*
X39864741Y42676942D01*
X39863586Y42684378D01*
X39862355Y42692277D01*
X39861207Y42699625D01*
X39860409Y42704711D01*
X39859370Y42711430D01*
X39858191Y42719254D01*
X39857073Y42726841D01*
X39856704Y42729394D01*
X39855764Y42735771D01*
X39854782Y42742157D01*
X39853906Y42747585D01*
X39853535Y42749757D01*
X39852569Y42755477D01*
X39851585Y42761707D01*
X39851161Y42764567D01*
X39849826Y42773827D01*
X39848752Y42781168D01*
X39847861Y42787114D01*
X39847070Y42792190D01*
X39846302Y42796922D01*
X39845516Y42801591D01*
X39844490Y42807691D01*
X39843464Y42813917D01*
X39842624Y42819128D01*
X39842471Y42820104D01*
X39841760Y42824639D01*
X39840813Y42830632D01*
X39839787Y42837105D01*
X39839280Y42840285D01*
X39838547Y42844797D01*
X39838014Y42848603D01*
X39837818Y42851927D01*
X39838096Y42854993D01*
X39838987Y42858025D01*
X39840626Y42861246D01*
X39843153Y42864880D01*
X39846703Y42869151D01*
X39851415Y42874282D01*
X39857425Y42880498D01*
X39864872Y42888021D01*
X39873892Y42897076D01*
X39874553Y42897741D01*
X39908836Y42932183D01*
X39915654Y42932748D01*
X39918367Y42932857D01*
X39921203Y42932657D01*
X39924576Y42932052D01*
X39928895Y42930943D01*
X39934572Y42929234D01*
X39942020Y42926829D01*
X39945117Y42925806D01*
X39952798Y42923329D01*
X39960270Y42921046D01*
X39966990Y42919112D01*
X39972417Y42917685D01*
X39975783Y42916957D01*
X39990344Y42914653D01*
X40003069Y42912981D01*
X40014509Y42911945D01*
X40025215Y42911548D01*
X40035738Y42911791D01*
X40046628Y42912679D01*
X40058437Y42914215D01*
X40071715Y42916400D01*
X40077782Y42917498D01*
X40085131Y42918936D01*
X40091748Y42920449D01*
X40098127Y42922196D01*
X40104759Y42924336D01*
X40112138Y42927029D01*
X40120755Y42930434D01*
X40131102Y42934711D01*
X40131506Y42934880D01*
X40137288Y42937645D01*
X40144386Y42941561D01*
X40152271Y42946287D01*
X40160412Y42951476D01*
X40168279Y42956786D01*
X40175342Y42961872D01*
X40181070Y42966390D01*
X40183737Y42968773D01*
X40188318Y42973010D01*
X40193070Y42977118D01*
X40197188Y42980410D01*
X40198393Y42981287D01*
X40202375Y42984650D01*
X40206533Y42989074D01*
X40209283Y42992642D01*
X40212260Y42996604D01*
X40216379Y43001545D01*
X40221009Y43006723D01*
X40224044Y43009920D01*
X40227496Y43013520D01*
X40230315Y43016709D01*
X40232778Y43019914D01*
X40235160Y43023564D01*
X40237738Y43028087D01*
X40240787Y43033911D01*
X40244582Y43041463D01*
X40245281Y43042867D01*
X40254311Y43062355D01*
X40261418Y43080664D01*
X40266683Y43098051D01*
X40270192Y43114772D01*
X40271185Y43121853D01*
X40272423Y43132615D01*
X40273476Y43142517D01*
X40274323Y43151292D01*
X40274940Y43158673D01*
X40275305Y43164392D01*
X40275396Y43168182D01*
X40275211Y43169747D01*
X40274865Y43171338D01*
X40274406Y43174917D01*
X40273885Y43180009D01*
X40273353Y43186138D01*
X40273168Y43188521D01*
X40272556Y43195341D01*
X40271805Y43201713D01*
X40271001Y43207017D01*
X40270228Y43210632D01*
X40270050Y43211199D01*
X40268863Y43215065D01*
X40267516Y43220200D01*
X40266382Y43225135D01*
X40265291Y43229544D01*
X40263578Y43235588D01*
X40261449Y43242573D01*
X40259111Y43249808D01*
X40258276Y43252286D01*
X40255044Y43261307D01*
X40251886Y43268946D01*
X40248338Y43276201D01*
X40243937Y43284073D01*
X40242067Y43287229D01*
X40236556Y43296345D01*
X40232013Y43303641D01*
X40228201Y43309451D01*
X40224885Y43314111D01*
X40221831Y43317955D01*
X40218802Y43321318D01*
X40216500Y43323636D01*
X40212713Y43327660D01*
X40209205Y43331958D01*
X40207031Y43335130D01*
X40202902Y43340206D01*
X40196916Y43344835D01*
X40196906Y43344841D01*
X40193336Y43347403D01*
X40188627Y43351238D01*
X40183365Y43355849D01*
X40178132Y43360741D01*
X40177566Y43361291D01*
X40170952Y43367440D01*
X40164286Y43372916D01*
X40157097Y43378035D01*
X40148913Y43383113D01*
X40139265Y43388466D01*
X40130051Y43393223D01*
X40116533Y43399462D01*
X40102494Y43404885D01*
X40088429Y43409353D01*
X40074833Y43412723D01*
X40062204Y43414856D01*
X40051213Y43415610D01*
X40046046Y43415880D01*
X40040824Y43416529D01*
X40038725Y43416939D01*
X40035762Y43417365D01*
X40031126Y43417723D01*
X40025327Y43418004D01*
X40018874Y43418201D01*
X40012279Y43418307D01*
X40006051Y43418313D01*
X40000701Y43418211D01*
X39996739Y43417995D01*
X39994675Y43417656D01*
X39994585Y43417611D01*
X39992918Y43417136D01*
X39989367Y43416445D01*
X39984497Y43415639D01*
X39980215Y43415007D01*
X39967424Y43412949D01*
X39955717Y43410446D01*
X39944518Y43407310D01*
X39933254Y43403351D01*
X39921349Y43398381D01*
X39908229Y43392211D01*
X39903166Y43389694D01*
X39894317Y43385159D01*
X39887337Y43381369D01*
X39881832Y43378084D01*
X39877406Y43375063D01*
X39873667Y43372069D01*
X39872636Y43371154D01*
X39867995Y43367230D01*
X39863017Y43363462D01*
X39858679Y43360586D01*
X39858169Y43360290D01*
X39851776Y43355870D01*
X39845040Y43349830D01*
X39838591Y43342819D01*
X39833058Y43335487D01*
X39831045Y43332275D01*
X39827508Y43326854D01*
X39823125Y43321040D01*
X39818972Y43316231D01*
X39816366Y43313164D01*
X39813125Y43308872D01*
X39809544Y43303804D01*
X39805917Y43298410D01*
X39802540Y43293139D01*
X39799706Y43288443D01*
X39797710Y43284769D01*
X39796845Y43282568D01*
X39796831Y43282405D01*
X39796293Y43280993D01*
X39794845Y43277925D01*
X39792740Y43273724D01*
X39791310Y43270962D01*
X39786014Y43259489D01*
X39781178Y43246407D01*
X39777077Y43232565D01*
X39773987Y43218815D01*
X39773484Y43215971D01*
X39772690Y43211338D01*
X39771645Y43205386D01*
X39770546Y43199224D01*
X39770280Y43197753D01*
X39769515Y43192913D01*
X39769020Y43188025D01*
X39768774Y43182539D01*
X39768758Y43175902D01*
X39768953Y43167565D01*
X39769079Y43163835D01*
X39769359Y43156577D01*
X39769649Y43150191D01*
X39769925Y43145078D01*
X39770167Y43141639D01*
X39770350Y43140280D01*
X39770709Y43138823D01*
X39771323Y43135461D01*
X39772098Y43130728D01*
X39772761Y43126395D01*
X39773763Y43120329D01*
X39774887Y43114595D01*
X39775967Y43109997D01*
X39776555Y43108032D01*
X39777793Y43103999D01*
X39779154Y43098783D01*
X39780157Y43094367D01*
X39781454Y43089543D01*
X39783507Y43083449D01*
X39785983Y43077030D01*
X39787523Y43073439D01*
X39790533Y43066272D01*
X39792318Y43060669D01*
X39792961Y43056095D01*
X39792540Y43052017D01*
X39791315Y43048320D01*
X39789940Y43046270D01*
X39786910Y43042632D01*
X39782342Y43037536D01*
X39776356Y43031109D01*
X39769071Y43023480D01*
X39760605Y43014778D01*
X39755088Y43009175D01*
X39747420Y43001368D01*
X39740235Y42993953D01*
X39733737Y42987146D01*
X39728127Y42981165D01*
X39723608Y42976226D01*
X39720383Y42972545D01*
X39718655Y42970339D01*
X39718485Y42970053D01*
X39716637Y42966794D01*
X39713946Y42962495D01*
X39711160Y42958328D01*
X39700427Y42940802D01*
X39691449Y42921857D01*
X39684426Y42901991D01*
X39679560Y42881701D01*
X39678978Y42878343D01*
X39677839Y42868396D01*
X39677370Y42857232D01*
X39677562Y42845812D01*
X39678407Y42835097D01*
X39679458Y42828126D01*
X39680108Y42824277D01*
X39680933Y42818699D01*
X39681829Y42812114D01*
X39682696Y42805244D01*
X39682765Y42804677D01*
X39683765Y42796782D01*
X39684951Y42788112D01*
X39686163Y42779798D01*
X39687100Y42773823D01*
X39688184Y42767185D01*
X39689259Y42760506D01*
X39690178Y42754700D01*
X39690655Y42751608D01*
X39691322Y42747240D01*
X39692221Y42741411D01*
X39693383Y42733915D01*
X39694841Y42724544D01*
X39696627Y42713091D01*
X39698128Y42703477D01*
X39698925Y42698463D01*
X39699948Y42692147D01*
X39701013Y42685661D01*
X39701334Y42683730D01*
X39702343Y42677545D01*
X39703330Y42671276D01*
X39704129Y42665996D01*
X39704329Y42664601D01*
X39704942Y42660454D01*
X39705839Y42654645D01*
X39706899Y42647944D01*
X39707996Y42641152D01*
X39709104Y42634330D01*
X39710177Y42627631D01*
X39711092Y42621827D01*
X39711725Y42617703D01*
X39713098Y42608623D01*
X39714794Y42597601D01*
X39716737Y42585134D01*
X39718850Y42571716D01*
X39719092Y42570189D01*
X39720178Y42563272D01*
X39721224Y42556499D01*
X39722116Y42550616D01*
X39722741Y42546366D01*
X39722775Y42546123D01*
X39724437Y42534705D01*
X39726062Y42524229D01*
X39727543Y42515388D01*
X39727784Y42514035D01*
X39728720Y42508491D01*
X39729688Y42502237D01*
X39730205Y42498608D01*
X39732157Y42485269D01*
X39734438Y42471384D01*
X39735189Y42467137D01*
X39736117Y42461591D01*
X39737063Y42455334D01*
X39737561Y42451710D01*
X39738198Y42447236D01*
X39739141Y42441166D01*
X39740257Y42434335D01*
X39741293Y42428262D01*
X39742485Y42420910D01*
X39743613Y42413038D01*
X39744531Y42405706D01*
X39745008Y42401057D01*
X39745624Y42394836D01*
X39746374Y42388549D01*
X39747126Y42383279D01*
X39747355Y42381927D01*
X39748165Y42377256D01*
X39749169Y42371219D01*
X39750190Y42364888D01*
X39750510Y42362852D01*
X39752272Y42351527D01*
X39753978Y42340492D01*
X39755573Y42330100D01*
X39757005Y42320705D01*
X39758219Y42312658D01*
X39759161Y42306314D01*
X39759778Y42302024D01*
X39759815Y42301761D01*
X39760438Y42297557D01*
X39761361Y42291722D01*
X39762455Y42285058D01*
X39763495Y42278930D01*
X39764637Y42272123D01*
X39765723Y42265331D01*
X39766622Y42259390D01*
X39767161Y42255481D01*
X39767836Y42250684D01*
X39768565Y42246383D01*
X39769081Y42243970D01*
X39769101Y42239480D01*
X39766999Y42235613D01*
X39763945Y42233408D01*
X39762272Y42232912D01*
X39760164Y42232916D01*
X39757289Y42233523D01*
X39753318Y42234830D01*
X39747918Y42236940D01*
X39740760Y42239953D01*
X39736975Y42241586D01*
X39730425Y42244235D01*
X39723024Y42246935D01*
X39716150Y42249188D01*
X39714761Y42249599D01*
X39707957Y42251370D01*
X39699586Y42253266D01*
X39690356Y42255154D01*
X39680975Y42256898D01*
X39672154Y42258365D01*
X39664599Y42259420D01*
X39661075Y42259789D01*
X39656064Y42260259D01*
X39649732Y42260910D01*
X39643210Y42261626D01*
X39641207Y42261856D01*
X39634745Y42262469D01*
X39629128Y42262602D01*
X39623282Y42262232D01*
X39616134Y42261336D01*
X39615907Y42261303D01*
X39609184Y42260456D01*
X39602196Y42259772D01*
X39595999Y42259347D01*
X39593276Y42259257D01*
X39588043Y42259036D01*
X39583160Y42258565D01*
X39579701Y42257950D01*
X39576662Y42257166D01*
X39571946Y42255999D01*
X39566278Y42254626D01*
X39562094Y42253629D01*
X39555565Y42251985D01*
X39548878Y42250135D01*
X39543037Y42248365D01*
X39540496Y42247509D01*
X39530108Y42243792D01*
X39521618Y42240704D01*
X39514600Y42238044D01*
X39508627Y42235613D01*
X39503272Y42233212D01*
X39498109Y42230641D01*
X39492710Y42227701D01*
X39486649Y42224191D01*
X39479499Y42219911D01*
X39472690Y42215790D01*
X39451643Y42203030D01*
X39420761Y42171510D01*
X39411869Y42162356D01*
X39404132Y42154228D01*
X39397671Y42147260D01*
X39392609Y42141587D01*
X39389068Y42137344D01*
X39387170Y42134664D01*
X39387075Y42134486D01*
X39384457Y42129950D01*
X39381319Y42125303D01*
X39380363Y42124044D01*
X39376937Y42119274D01*
X39373015Y42113126D01*
X39369023Y42106340D01*
X39365386Y42099656D01*
X39362532Y42093815D01*
X39361431Y42091176D01*
X39359543Y42086419D01*
X39357181Y42080795D01*
X39355277Y42076464D01*
X39350657Y42064927D01*
X39346293Y42051510D01*
X39342343Y42036796D01*
X39338962Y42021372D01*
X39336306Y42005822D01*
X39336180Y42004949D01*
X39335656Y41999790D01*
X39335244Y41992783D01*
X39334945Y41984396D01*
X39334759Y41975094D01*
X39334685Y41965345D01*
X39213387Y41965345D01*
X39213362Y41978371D01*
X39213305Y42010940D01*
X39213252Y42044629D01*
X39213203Y42079363D01*
X39213157Y42115067D01*
X39213115Y42151667D01*
X39213076Y42189086D01*
X39213042Y42227252D01*
X39213011Y42266087D01*
X39212983Y42305519D01*
X39212959Y42345471D01*
X39212939Y42385869D01*
X39212923Y42426638D01*
X39212910Y42467703D01*
X39212901Y42508989D01*
X39212896Y42550421D01*
X39212894Y42591925D01*
X39212896Y42633425D01*
X39212902Y42674847D01*
X39212911Y42716115D01*
X39212924Y42757155D01*
X39212941Y42797891D01*
X39212962Y42838250D01*
X39212986Y42878155D01*
X39213013Y42917533D01*
X39213045Y42956308D01*
X39213080Y42994405D01*
X39213119Y43031749D01*
X39213161Y43068266D01*
X39213207Y43103880D01*
X39213257Y43138517D01*
X39213311Y43172102D01*
X39213368Y43204559D01*
X39213429Y43235815D01*
X39213493Y43265793D01*
X39213562Y43294420D01*
X39213634Y43321620D01*
X39213709Y43347318D01*
X39213788Y43371439D01*
X39213871Y43393909D01*
X39213958Y43414653D01*
X39214048Y43433595D01*
X39214142Y43450661D01*
X39214240Y43465776D01*
X39214341Y43478865D01*
X39214446Y43489852D01*
X39214555Y43498664D01*
X39214667Y43505226D01*
X39214783Y43509461D01*
X39214891Y43511227D01*
X39218998Y43531455D01*
X39225368Y43550729D01*
X39233956Y43568956D01*
X39244717Y43586047D01*
X39257607Y43601912D01*
X39263003Y43607550D01*
X39278383Y43621229D01*
X39295023Y43632797D01*
X39312833Y43642209D01*
X39331723Y43649419D01*
X39351602Y43654383D01*
X39359326Y43655661D01*
X39361395Y43655781D01*
X39365857Y43655896D01*
X39372637Y43656008D01*
X39381661Y43656117D01*
X39392854Y43656221D01*
X39406140Y43656322D01*
X39421445Y43656420D01*
X39438694Y43656513D01*
X39457811Y43656603D01*
X39478723Y43656690D01*
X39501353Y43656772D01*
X39525627Y43656851D01*
X39551471Y43656926D01*
X39578809Y43656998D01*
X39607566Y43657066D01*
X39637667Y43657130D01*
X39669038Y43657191D01*
X39701603Y43657247D01*
X39735288Y43657301D01*
X39770017Y43657350D01*
X39805716Y43657396D01*
X39842309Y43657438D01*
X39879723Y43657476D01*
X39917881Y43657511D01*
X39956710Y43657542D01*
X39996133Y43657570D01*
X40036076Y43657593D01*
X40076465Y43657613D01*
X40117224Y43657630D01*
X40158278Y43657642D01*
X40199552Y43657651D01*
X40240972Y43657657D01*
X40282462Y43657658D01*
X40323948Y43657656D01*
G37*
D15*
%TO.C,U4*%
X55890005Y19940005D02*
X55890005Y18740005D01*
X55890005Y18740005D02*
X58430010Y18740005D01*
X55930010Y29219990D02*
X58469990Y29219990D01*
X55930010Y27980010D02*
X55930010Y29219990D01*
D14*
X56180023Y19000000D02*
G75*
G02*
X56120079Y19000000I-29972J0D01*
G01*
X56120079Y19000000D02*
G75*
G02*
X56180023Y19000000I29972J0D01*
G01*
D11*
%TO.C,C3*%
X42000000Y18402164D02*
X42000000Y18617836D01*
X42720000Y18402164D02*
X42720000Y18617836D01*
%TO.C,R15*%
X34720000Y11771359D02*
X34720000Y12078641D01*
X35480000Y11771359D02*
X35480000Y12078641D01*
%TO.C,C1*%
X33857836Y32360000D02*
X33642164Y32360000D01*
X33857836Y31640000D02*
X33642164Y31640000D01*
%TO.C,C2*%
X35822836Y32360000D02*
X35607164Y32360000D01*
X35822836Y31640000D02*
X35607164Y31640000D01*
%TO.C,C15*%
X38701693Y30899190D02*
X38549190Y31051693D01*
X39210810Y31408307D02*
X39058307Y31560810D01*
%TO.C,C22*%
X33857836Y19370000D02*
X33642164Y19370000D01*
X33857836Y18650000D02*
X33642164Y18650000D01*
%TO.C,C29*%
X33810000Y12032836D02*
X33810000Y11817164D01*
X34530000Y12032836D02*
X34530000Y11817164D01*
D12*
%TO.C,U2*%
X41273851Y39176327D02*
X41273851Y36023952D01*
X43426327Y36023952D02*
X43426327Y39176327D01*
D14*
X41279972Y35700000D02*
G75*
G02*
X41220028Y35700000I-29972J0D01*
G01*
X41220028Y35700000D02*
G75*
G02*
X41279972Y35700000I29972J0D01*
G01*
D11*
%TO.C,C30*%
X36050000Y12067836D02*
X36050000Y11852164D01*
X36770000Y12067836D02*
X36770000Y11852164D01*
D15*
%TO.C,U17*%
X33925051Y10100076D02*
X33925051Y10031191D01*
X33925051Y10100076D02*
X38125051Y10100051D01*
X33925051Y8918923D02*
X33925051Y7881179D01*
X35263049Y9035052D02*
X36787052Y9035052D01*
X35263075Y7765075D02*
X36787078Y7765075D01*
X38125051Y10100051D02*
X38125051Y10031191D01*
X38125051Y8918923D02*
X38125051Y7881179D01*
X35263075Y7765075D02*
G75*
G02*
X35261855Y9035637I-610J635281D01*
G01*
X36787052Y9035052D02*
G75*
G02*
X36785859Y7765635I-4567J-634705D01*
G01*
D14*
X33504985Y10024994D02*
G75*
G02*
X33444989Y10024994I-29998J0D01*
G01*
X33444989Y10024994D02*
G75*
G02*
X33504985Y10024994I29998J0D01*
G01*
D11*
%TO.C,C28*%
X50010000Y39069420D02*
X50010000Y39350580D01*
X51030000Y39069420D02*
X51030000Y39350580D01*
%TO.C,R2*%
X45662659Y21119940D02*
X45879940Y20902659D01*
X46200060Y21657341D02*
X46417341Y21440060D01*
%TO.C,C14*%
X35822836Y38860000D02*
X35607164Y38860000D01*
X35822836Y38140000D02*
X35607164Y38140000D01*
D12*
%TO.C,U10*%
X33923787Y37576213D02*
X33923787Y37330493D01*
X33923787Y32923787D02*
X33923787Y33169507D01*
X34641491Y37576213D02*
X33923787Y37576213D01*
X34641491Y32923787D02*
X33923787Y32923787D01*
X36858509Y37576213D02*
X37576213Y37576213D01*
X36858509Y32923787D02*
X37576213Y32923787D01*
X37576213Y37576213D02*
X37576213Y37330493D01*
X37576213Y32923787D02*
X37576213Y33169507D01*
D13*
X36586932Y32328994D02*
G75*
G02*
X36437072Y32328994I-74930J0D01*
G01*
X36437072Y32328994D02*
G75*
G02*
X36586932Y32328994I74930J0D01*
G01*
D14*
X37500063Y33029782D02*
G75*
G02*
X37440119Y33029782I-29972J0D01*
G01*
X37440119Y33029782D02*
G75*
G02*
X37500063Y33029782I29972J0D01*
G01*
D11*
%TO.C,R4*%
X40240000Y38663641D02*
X40240000Y38356359D01*
X41000000Y38663641D02*
X41000000Y38356359D01*
%TO.C,C13*%
X43941693Y21590810D02*
X43789190Y21438307D01*
X44450810Y21081693D02*
X44298307Y20929190D01*
D15*
%TO.C,U3*%
X55890005Y7940005D02*
X55890005Y6740005D01*
X55890005Y6740005D02*
X58430010Y6740005D01*
X55930010Y17219990D02*
X58469990Y17219990D01*
X55930010Y15980010D02*
X55930010Y17219990D01*
D14*
X56180023Y7000000D02*
G75*
G02*
X56120079Y7000000I-29972J0D01*
G01*
X56120079Y7000000D02*
G75*
G02*
X56180023Y7000000I29972J0D01*
G01*
D12*
%TO.C,Y1*%
X42782799Y18250114D02*
X42782799Y16592913D01*
X42782799Y16592913D02*
X44640000Y16592913D01*
X43011400Y20178740D02*
X47068600Y20178740D01*
X43011400Y16821514D02*
X43011400Y20178740D01*
X47068600Y20178740D02*
X47068600Y16821514D01*
X47068600Y16821514D02*
X43011400Y16821514D01*
D15*
%TO.C,U5*%
X16450000Y51174625D02*
X15950000Y51174625D01*
X19050000Y51175006D02*
X18450000Y51175006D01*
X21550000Y51174625D02*
X21050000Y51174625D01*
X32212026Y51683134D02*
G75*
G02*
X31704026Y51683134I-254000J0D01*
G01*
X31704026Y51683134D02*
G75*
G02*
X32212026Y51683134I254000J0D01*
G01*
D11*
%TO.C,R10*%
X54833641Y53350000D02*
X54526359Y53350000D01*
X54833641Y52590000D02*
X54526359Y52590000D01*
D18*
%TO.C,D1*%
X58490000Y53420000D02*
X58390000Y53420000D01*
X58490000Y53320000D02*
X58490000Y53420000D01*
D11*
%TO.C,C8*%
X39117836Y29110000D02*
X38902164Y29110000D01*
X39117836Y28390000D02*
X38902164Y28390000D01*
%TO.C,R1*%
X40240000Y36496359D02*
X40240000Y36803641D01*
X41000000Y36496359D02*
X41000000Y36803641D01*
D12*
%TO.C,U1*%
X40163800Y33576200D02*
X41175611Y33576200D01*
X40163800Y32564389D02*
X40163800Y33576200D01*
X40163800Y24435611D02*
X40163800Y23423800D01*
X40163800Y23423800D02*
X41175611Y23423800D01*
X50316200Y33576200D02*
X49304389Y33576200D01*
X50316200Y32564389D02*
X50316200Y33576200D01*
X50316200Y24435611D02*
X50316200Y23423800D01*
X50316200Y23423800D02*
X49304389Y23423800D01*
D19*
X39732482Y32300102D02*
G75*
G02*
X39432456Y32300102I-150013J0D01*
G01*
X39432456Y32300102D02*
G75*
G02*
X39732482Y32300102I150013J0D01*
G01*
D14*
X40269972Y33500000D02*
G75*
G02*
X40210028Y33500000I-29972J0D01*
G01*
X40210028Y33500000D02*
G75*
G02*
X40269972Y33500000I29972J0D01*
G01*
D11*
%TO.C,C11*%
X52117164Y29360000D02*
X52332836Y29360000D01*
X52117164Y28640000D02*
X52332836Y28640000D01*
%TO.C,C9*%
X50080000Y35107836D02*
X50080000Y34892164D01*
X50800000Y35107836D02*
X50800000Y34892164D01*
%TO.C,R3*%
X50060000Y37003641D02*
X50060000Y36696359D01*
X50820000Y37003641D02*
X50820000Y36696359D01*
D15*
%TO.C,U7*%
X16450000Y27174625D02*
X15950000Y27174625D01*
X19050000Y27175006D02*
X18450000Y27175006D01*
X21550000Y27174625D02*
X21050000Y27174625D01*
X32212026Y27683134D02*
G75*
G02*
X31704026Y27683134I-254000J0D01*
G01*
X31704026Y27683134D02*
G75*
G02*
X32212026Y27683134I254000J0D01*
G01*
D11*
%TO.C,C23*%
X35857836Y19360000D02*
X35642164Y19360000D01*
X35857836Y18640000D02*
X35642164Y18640000D01*
%TO.C,R11*%
X37656359Y12800000D02*
X37963641Y12800000D01*
X37656359Y12040000D02*
X37963641Y12040000D01*
%TO.C,C12*%
X44861693Y35319190D02*
X44709190Y35471693D01*
X45370810Y35828307D02*
X45218307Y35980810D01*
%TO.C,JP1*%
X34925000Y51300000D02*
X34925000Y51870000D01*
X34925000Y48760000D02*
X34925000Y51870000D01*
X34925000Y44130000D02*
X34925000Y47240000D01*
X37585000Y51870000D02*
X34925000Y51870000D01*
X37585000Y46220000D02*
X37585000Y49780000D01*
X37585000Y44700000D02*
X39105000Y44700000D01*
X37585000Y44130000D02*
X34925000Y44130000D01*
X37585000Y44130000D02*
X37585000Y44700000D01*
%TD*%
G36*
X3758059Y27748939D02*
G01*
X3863223Y27735094D01*
X3894491Y27726716D01*
X3984918Y27689260D01*
X4012951Y27673075D01*
X4090601Y27613492D01*
X4113491Y27590602D01*
X4173074Y27512952D01*
X4189259Y27484919D01*
X4226715Y27394492D01*
X4235093Y27363225D01*
X4248939Y27258061D01*
X4250000Y27241875D01*
X4250000Y20508126D01*
X4248939Y20491940D01*
X4235093Y20386776D01*
X4226715Y20355509D01*
X4189259Y20265082D01*
X4173074Y20237049D01*
X4113491Y20159399D01*
X4090601Y20136509D01*
X4012951Y20076926D01*
X3984918Y20060741D01*
X3894491Y20023285D01*
X3863224Y20014907D01*
X3758060Y20001061D01*
X3741874Y20000000D01*
X2008126Y20000000D01*
X1991940Y20001061D01*
X1886775Y20014907D01*
X1855508Y20023285D01*
X1765081Y20060741D01*
X1737048Y20076926D01*
X1659398Y20136509D01*
X1636508Y20159399D01*
X1576925Y20237049D01*
X1560740Y20265082D01*
X1523284Y20355509D01*
X1514906Y20386777D01*
X1501061Y20491941D01*
X1500000Y20508126D01*
X1500000Y20669878D01*
X2104914Y20669878D01*
X3650710Y20669878D01*
X3650710Y27250987D01*
X2104914Y27250987D01*
X2104914Y20669878D01*
X1500000Y20669878D01*
X1500000Y27241875D01*
X1501061Y27258060D01*
X1514906Y27363224D01*
X1523284Y27394492D01*
X1560740Y27484919D01*
X1576925Y27512952D01*
X1636508Y27590602D01*
X1659398Y27613492D01*
X1737048Y27673075D01*
X1765081Y27689260D01*
X1855508Y27726716D01*
X1886776Y27735094D01*
X1991941Y27748939D01*
X2008126Y27750000D01*
X3741874Y27750000D01*
X3758059Y27748939D01*
G37*
G36*
X46848059Y13108939D02*
G01*
X46953223Y13095094D01*
X46984491Y13086716D01*
X47074918Y13049260D01*
X47102951Y13033075D01*
X47180601Y12973492D01*
X47203491Y12950602D01*
X47263074Y12872952D01*
X47279259Y12844919D01*
X47316715Y12754492D01*
X47325093Y12723225D01*
X47338939Y12618061D01*
X47340000Y12601875D01*
X47340000Y11368126D01*
X47338939Y11351940D01*
X47325093Y11246776D01*
X47316715Y11215509D01*
X47279259Y11125082D01*
X47263074Y11097049D01*
X47203491Y11019399D01*
X47180601Y10996509D01*
X47102951Y10936926D01*
X47074918Y10920741D01*
X46984491Y10883285D01*
X46953224Y10874907D01*
X46848060Y10861061D01*
X46831874Y10860000D01*
X44098126Y10860000D01*
X44081940Y10861061D01*
X43976775Y10874907D01*
X43945508Y10883285D01*
X43855081Y10920741D01*
X43827048Y10936926D01*
X43749398Y10996509D01*
X43726508Y11019399D01*
X43666925Y11097049D01*
X43650740Y11125082D01*
X43613530Y11214915D01*
X44140269Y11214915D01*
X46818866Y11214915D01*
X46818866Y12760714D01*
X44140269Y12760714D01*
X44140269Y11214915D01*
X43613530Y11214915D01*
X43613284Y11215509D01*
X43604906Y11246777D01*
X43591061Y11351941D01*
X43590000Y11368126D01*
X43590000Y12601875D01*
X43591061Y12618060D01*
X43604906Y12723224D01*
X43613284Y12754492D01*
X43650740Y12844919D01*
X43666925Y12872952D01*
X43726508Y12950602D01*
X43749398Y12973492D01*
X43827048Y13033075D01*
X43855081Y13049260D01*
X43945508Y13086716D01*
X43976776Y13095094D01*
X44081941Y13108939D01*
X44098126Y13110000D01*
X46831874Y13110000D01*
X46848059Y13108939D01*
G37*
G36*
X3758059Y39748939D02*
G01*
X3863223Y39735094D01*
X3894491Y39726716D01*
X3984918Y39689260D01*
X4012951Y39673075D01*
X4090601Y39613492D01*
X4113491Y39590602D01*
X4173074Y39512952D01*
X4189259Y39484919D01*
X4226715Y39394492D01*
X4235093Y39363225D01*
X4248939Y39258061D01*
X4250000Y39241875D01*
X4250000Y32508126D01*
X4248939Y32491940D01*
X4235093Y32386776D01*
X4226715Y32355509D01*
X4189259Y32265082D01*
X4173074Y32237049D01*
X4113491Y32159399D01*
X4090601Y32136509D01*
X4012951Y32076926D01*
X3984918Y32060741D01*
X3894491Y32023285D01*
X3863224Y32014907D01*
X3758060Y32001061D01*
X3741874Y32000000D01*
X2008126Y32000000D01*
X1991940Y32001061D01*
X1886775Y32014907D01*
X1855508Y32023285D01*
X1765081Y32060741D01*
X1737048Y32076926D01*
X1659398Y32136509D01*
X1636508Y32159399D01*
X1576925Y32237049D01*
X1560740Y32265082D01*
X1523284Y32355509D01*
X1514906Y32386777D01*
X1501061Y32491941D01*
X1500000Y32508126D01*
X1500000Y32657055D01*
X2104918Y32657055D01*
X3650709Y32657055D01*
X3650709Y39279564D01*
X2104918Y39279564D01*
X2104918Y32657055D01*
X1500000Y32657055D01*
X1500000Y39241875D01*
X1501061Y39258060D01*
X1514906Y39363224D01*
X1523284Y39394492D01*
X1560740Y39484919D01*
X1576925Y39512952D01*
X1636508Y39590602D01*
X1659398Y39613492D01*
X1737048Y39673075D01*
X1765081Y39689260D01*
X1855508Y39726716D01*
X1886776Y39735094D01*
X1991941Y39748939D01*
X2008126Y39750000D01*
X3741874Y39750000D01*
X3758059Y39748939D01*
G37*
G36*
X54351624Y27058935D02*
G01*
X54456974Y27045040D01*
X54488296Y27036632D01*
X54578863Y26999041D01*
X54606932Y26982799D01*
X54684651Y26923014D01*
X54707549Y26900049D01*
X54767110Y26822156D01*
X54783271Y26794039D01*
X54820597Y26703368D01*
X54828915Y26672025D01*
X54842508Y26566623D01*
X54843525Y26550404D01*
X54826466Y20656672D01*
X54825363Y20640519D01*
X54811263Y20535574D01*
X54802825Y20504385D01*
X54765243Y20414207D01*
X54749033Y20386256D01*
X54689427Y20308847D01*
X54666547Y20286032D01*
X54588964Y20226649D01*
X54560965Y20210520D01*
X54470680Y20173200D01*
X54439468Y20164853D01*
X54334490Y20151057D01*
X54318333Y20150000D01*
X53092834Y20150000D01*
X53076633Y20151063D01*
X52971375Y20164934D01*
X52940082Y20173327D01*
X52849586Y20210850D01*
X52821534Y20227064D01*
X52743849Y20286749D01*
X52720956Y20309675D01*
X52661382Y20387448D01*
X52645208Y20415524D01*
X52613474Y20492372D01*
X52955994Y20492372D01*
X54501785Y20492372D01*
X54501785Y26700157D01*
X52955994Y26700157D01*
X52955994Y20492372D01*
X52613474Y20492372D01*
X52607819Y20506067D01*
X52599471Y20537373D01*
X52585752Y20642659D01*
X52584713Y20658860D01*
X52593242Y26552602D01*
X52594324Y26568771D01*
X52608296Y26673826D01*
X52616705Y26705055D01*
X52654225Y26795358D01*
X52670422Y26823351D01*
X52730014Y26900877D01*
X52752899Y26923729D01*
X52830520Y26983215D01*
X52858536Y26999371D01*
X52948889Y27036758D01*
X52980130Y27045121D01*
X53085204Y27058941D01*
X53101374Y27060000D01*
X54335410Y27060000D01*
X54351624Y27058935D01*
G37*
G36*
X3758059Y15748939D02*
G01*
X3863223Y15735094D01*
X3894491Y15726716D01*
X3984918Y15689260D01*
X4012951Y15673075D01*
X4090601Y15613492D01*
X4113491Y15590602D01*
X4173074Y15512952D01*
X4189259Y15484919D01*
X4226715Y15394492D01*
X4235093Y15363225D01*
X4248939Y15258061D01*
X4250000Y15241875D01*
X4250000Y8508126D01*
X4248939Y8491940D01*
X4235093Y8386776D01*
X4226715Y8355509D01*
X4189259Y8265082D01*
X4173074Y8237049D01*
X4113491Y8159399D01*
X4090601Y8136509D01*
X4012951Y8076926D01*
X3984918Y8060741D01*
X3894491Y8023285D01*
X3863224Y8014907D01*
X3758060Y8001061D01*
X3741874Y8000000D01*
X2008126Y8000000D01*
X1991940Y8001061D01*
X1886775Y8014907D01*
X1855508Y8023285D01*
X1765081Y8060741D01*
X1737048Y8076926D01*
X1659398Y8136509D01*
X1636508Y8159399D01*
X1576925Y8237049D01*
X1560740Y8265082D01*
X1523284Y8355509D01*
X1514906Y8386777D01*
X1501061Y8491941D01*
X1500000Y8508126D01*
X1500000Y8671344D01*
X2104918Y8671344D01*
X3650709Y8671344D01*
X3650709Y15290555D01*
X2104918Y15290555D01*
X2104918Y8671344D01*
X1500000Y8671344D01*
X1500000Y15241875D01*
X1501061Y15258060D01*
X1514906Y15363224D01*
X1523284Y15394492D01*
X1560740Y15484919D01*
X1576925Y15512952D01*
X1636508Y15590602D01*
X1659398Y15613492D01*
X1737048Y15673075D01*
X1765081Y15689260D01*
X1855508Y15726716D01*
X1886776Y15735094D01*
X1991941Y15748939D01*
X2008126Y15750000D01*
X3741874Y15750000D01*
X3758059Y15748939D01*
G37*
G36*
X44692195Y51672800D02*
G01*
X44708360Y51671714D01*
X44813393Y51657719D01*
X44844616Y51649305D01*
X44934895Y51611774D01*
X44962879Y51595575D01*
X45040389Y51535977D01*
X45063234Y51513093D01*
X45122696Y51435487D01*
X45138848Y51407474D01*
X45176226Y51317127D01*
X45184586Y51285891D01*
X45198401Y51180840D01*
X45199460Y51164672D01*
X45199460Y49930926D01*
X45198397Y49914723D01*
X45184521Y49809445D01*
X45176125Y49778146D01*
X45138589Y49687636D01*
X45122370Y49659581D01*
X45062669Y49581892D01*
X45039735Y49558998D01*
X44961941Y49499428D01*
X44933859Y49483257D01*
X44843287Y49445877D01*
X44811975Y49437535D01*
X44706678Y49423839D01*
X44690472Y49422803D01*
X39856724Y49431067D01*
X39840559Y49432153D01*
X39735526Y49446148D01*
X39704303Y49454562D01*
X39614024Y49492093D01*
X39586040Y49508292D01*
X39508530Y49567890D01*
X39485685Y49590774D01*
X39426223Y49668380D01*
X39410071Y49696393D01*
X39376785Y49776848D01*
X39768216Y49776848D01*
X44799725Y49776848D01*
X44799725Y51322647D01*
X39768216Y51322647D01*
X39768216Y49776848D01*
X39376785Y49776848D01*
X39372693Y49786740D01*
X39364332Y49817977D01*
X39350518Y49923028D01*
X39349460Y49939195D01*
X39349460Y51172941D01*
X39350523Y51189143D01*
X39364398Y51294421D01*
X39372794Y51325721D01*
X39410330Y51416231D01*
X39426549Y51444286D01*
X39486250Y51521975D01*
X39509184Y51544869D01*
X39586978Y51604439D01*
X39615060Y51620610D01*
X39705632Y51657990D01*
X39736944Y51666332D01*
X39842241Y51680028D01*
X39858447Y51681064D01*
X44692195Y51672800D01*
G37*
G36*
X44702209Y46512800D02*
G01*
X44718374Y46511714D01*
X44823407Y46497719D01*
X44854630Y46489305D01*
X44944909Y46451774D01*
X44972893Y46435575D01*
X45050403Y46375977D01*
X45073248Y46353093D01*
X45132710Y46275487D01*
X45148862Y46247474D01*
X45186240Y46157127D01*
X45194600Y46125891D01*
X45208415Y46020840D01*
X45209474Y46004672D01*
X45209474Y44770926D01*
X45208411Y44754723D01*
X45194535Y44649445D01*
X45186139Y44618146D01*
X45148603Y44527636D01*
X45132384Y44499581D01*
X45072683Y44421892D01*
X45049749Y44398998D01*
X44971955Y44339428D01*
X44943873Y44323257D01*
X44853301Y44285877D01*
X44821989Y44277535D01*
X44716692Y44263839D01*
X44700486Y44262803D01*
X39866738Y44271067D01*
X39850573Y44272153D01*
X39745540Y44286148D01*
X39714317Y44294562D01*
X39624038Y44332093D01*
X39596054Y44348292D01*
X39518544Y44407890D01*
X39495699Y44430774D01*
X39436237Y44508380D01*
X39420085Y44536393D01*
X39386798Y44616852D01*
X39724741Y44616852D01*
X44837949Y44616852D01*
X44837949Y46162643D01*
X39724741Y46162643D01*
X39724741Y44616852D01*
X39386798Y44616852D01*
X39382707Y44626740D01*
X39374346Y44657977D01*
X39360532Y44763028D01*
X39359474Y44779195D01*
X39359474Y46012941D01*
X39360537Y46029143D01*
X39374412Y46134421D01*
X39382808Y46165721D01*
X39420344Y46256231D01*
X39436563Y46284286D01*
X39496264Y46361975D01*
X39519198Y46384869D01*
X39596992Y46444439D01*
X39625074Y46460610D01*
X39715646Y46497990D01*
X39746958Y46506332D01*
X39852255Y46520028D01*
X39868461Y46521064D01*
X44702209Y46512800D01*
G37*
G36*
X54291958Y36673936D02*
G01*
X54397268Y36660052D01*
X54428577Y36651651D01*
X54519107Y36614093D01*
X54547167Y36597864D01*
X54624870Y36538126D01*
X54647766Y36515179D01*
X54707334Y36437340D01*
X54723501Y36409242D01*
X54760857Y36318629D01*
X54769189Y36287303D01*
X54782839Y36181962D01*
X54783867Y36165752D01*
X54776127Y32682005D01*
X54775033Y32665843D01*
X54760992Y32560852D01*
X54752568Y32529645D01*
X54715015Y32439410D01*
X54698811Y32411440D01*
X54639211Y32333976D01*
X54616328Y32311144D01*
X54538726Y32251712D01*
X54510720Y32235571D01*
X54420405Y32198220D01*
X54389179Y32189865D01*
X54284159Y32176058D01*
X54267996Y32175000D01*
X53042103Y32175000D01*
X53025917Y32176061D01*
X52920752Y32189907D01*
X52889485Y32198285D01*
X52799058Y32235741D01*
X52771025Y32251926D01*
X52693375Y32311509D01*
X52670485Y32334399D01*
X52610902Y32412049D01*
X52594717Y32440082D01*
X52557261Y32530509D01*
X52548883Y32561777D01*
X52545697Y32585978D01*
X52875994Y32585978D01*
X54421785Y32585978D01*
X54421785Y36302119D01*
X52875994Y36302119D01*
X52875994Y32585978D01*
X52545697Y32585978D01*
X52535038Y32666941D01*
X52533977Y32683126D01*
X52533977Y36166875D01*
X52535038Y36183060D01*
X52548883Y36288224D01*
X52557261Y36319492D01*
X52594717Y36409919D01*
X52610902Y36437952D01*
X52670485Y36515602D01*
X52693375Y36538492D01*
X52771025Y36598075D01*
X52799058Y36614260D01*
X52889485Y36651716D01*
X52920753Y36660094D01*
X53025918Y36673939D01*
X53042103Y36675000D01*
X54275750Y36675000D01*
X54291958Y36673936D01*
G37*
G36*
X39509999Y43849901D02*
G01*
X39510000Y43849999D01*
X39510371Y43849998D01*
X39510372Y43849998D01*
X39510735Y43849997D01*
X41293956Y43841255D01*
X41308341Y43839772D01*
X41382142Y43824763D01*
X41408694Y43813650D01*
X41465034Y43775755D01*
X41485338Y43755351D01*
X41522957Y43698825D01*
X41533940Y43672219D01*
X41548587Y43598350D01*
X41550000Y43583957D01*
X41550000Y41558472D01*
X41548570Y41543993D01*
X41533747Y41469700D01*
X41522634Y41442960D01*
X41484590Y41386236D01*
X41464067Y41365808D01*
X41407168Y41328027D01*
X41380377Y41317038D01*
X41306018Y41302560D01*
X41291532Y41301197D01*
X39641159Y41308838D01*
X39641150Y41308837D01*
X39545131Y41290142D01*
X39463631Y41236026D01*
X39409140Y41154782D01*
X39389996Y41058840D01*
X39389983Y39624003D01*
X39388565Y39609589D01*
X39373874Y39535616D01*
X39362861Y39508979D01*
X39325141Y39452407D01*
X39304784Y39431997D01*
X39248310Y39394129D01*
X39221702Y39383046D01*
X39147771Y39368163D01*
X39133361Y39366708D01*
X33007954Y39350676D01*
X32993490Y39352065D01*
X32919250Y39366655D01*
X32892508Y39377670D01*
X32835727Y39415476D01*
X32815251Y39435899D01*
X32777296Y39492582D01*
X32766211Y39519295D01*
X32751427Y39593495D01*
X32750000Y39607955D01*
X32750000Y40000000D01*
X33050000Y40000000D01*
X34500000Y40000000D01*
X37550000Y40000000D01*
X39000000Y40000000D01*
X39000000Y40850000D01*
X37550000Y40850000D01*
X37550000Y40000000D01*
X34500000Y40000000D01*
X34500000Y40850000D01*
X33050000Y40850000D01*
X33050000Y40000000D01*
X32750000Y40000000D01*
X32750000Y42150000D01*
X33050000Y42150000D01*
X34500000Y42150000D01*
X37550000Y42150000D01*
X39000000Y42150000D01*
X39000000Y43000000D01*
X37550000Y43000000D01*
X37550000Y42150000D01*
X34500000Y42150000D01*
X34500000Y43000000D01*
X33050000Y43000000D01*
X33050000Y42150000D01*
X32750000Y42150000D01*
X32750000Y43568956D01*
X39233955Y43568956D01*
X39233955Y43568955D01*
X39263002Y41572321D01*
X39263003Y41572320D01*
X41296998Y41572320D01*
X41322245Y43575530D01*
X39233955Y43568956D01*
X32750000Y43568956D01*
X32750000Y43592712D01*
X32751422Y43607148D01*
X32766158Y43681234D01*
X32777207Y43707910D01*
X32815045Y43764538D01*
X32835462Y43784955D01*
X32892090Y43822793D01*
X32918766Y43833842D01*
X32992852Y43848578D01*
X33007288Y43850000D01*
X39509759Y43850000D01*
X39509999Y43849901D01*
G37*
G36*
X3758059Y51748939D02*
G01*
X3863223Y51735094D01*
X3894491Y51726716D01*
X3984918Y51689260D01*
X4012951Y51673075D01*
X4090601Y51613492D01*
X4113491Y51590602D01*
X4173074Y51512952D01*
X4189259Y51484919D01*
X4226715Y51394492D01*
X4235093Y51363225D01*
X4248939Y51258061D01*
X4250000Y51241875D01*
X4250000Y44508126D01*
X4248939Y44491940D01*
X4235093Y44386776D01*
X4226715Y44355509D01*
X4189259Y44265082D01*
X4173074Y44237049D01*
X4113491Y44159399D01*
X4090601Y44136509D01*
X4012951Y44076926D01*
X3984918Y44060741D01*
X3894491Y44023285D01*
X3863224Y44014907D01*
X3758060Y44001061D01*
X3741874Y44000000D01*
X2008126Y44000000D01*
X1991940Y44001061D01*
X1886775Y44014907D01*
X1855508Y44023285D01*
X1765081Y44060741D01*
X1737048Y44076926D01*
X1659398Y44136509D01*
X1636508Y44159399D01*
X1576925Y44237049D01*
X1560740Y44265082D01*
X1523284Y44355509D01*
X1514906Y44386777D01*
X1501061Y44491941D01*
X1500000Y44508126D01*
X1500000Y44567237D01*
X2104918Y44567237D01*
X3650709Y44567237D01*
X3650709Y51281029D01*
X2104918Y51281029D01*
X2104918Y44567237D01*
X1500000Y44567237D01*
X1500000Y51241875D01*
X1501061Y51258060D01*
X1514906Y51363224D01*
X1523284Y51394492D01*
X1560740Y51484919D01*
X1576925Y51512952D01*
X1636508Y51590602D01*
X1659398Y51613492D01*
X1737048Y51673075D01*
X1765081Y51689260D01*
X1855508Y51726716D01*
X1886776Y51735094D01*
X1991941Y51748939D01*
X2008126Y51750000D01*
X3741874Y51750000D01*
X3758059Y51748939D01*
G37*
G36*
X39257148Y10748578D02*
G01*
X39331233Y10733842D01*
X39357909Y10722793D01*
X39414537Y10684955D01*
X39434954Y10664538D01*
X39472792Y10607910D01*
X39483841Y10581235D01*
X39498578Y10507149D01*
X39500000Y10492712D01*
X39500000Y8830001D01*
X39519029Y8734330D01*
X39573222Y8653224D01*
X39573223Y8653223D01*
X39654329Y8599030D01*
X39750001Y8580000D01*
X41042712Y8580000D01*
X41057148Y8578578D01*
X41131233Y8563842D01*
X41157909Y8552793D01*
X41214537Y8514955D01*
X41234954Y8494538D01*
X41272792Y8437910D01*
X41283841Y8411235D01*
X41298578Y8337149D01*
X41300000Y8322712D01*
X41300000Y6516990D01*
X41298580Y6502564D01*
X41283865Y6428531D01*
X41272832Y6401872D01*
X41235046Y6345268D01*
X41214656Y6324854D01*
X41158095Y6287002D01*
X41131449Y6275938D01*
X41057435Y6261137D01*
X41043011Y6259700D01*
X33007586Y6250302D01*
X32993137Y6251709D01*
X32918983Y6266380D01*
X32892277Y6277414D01*
X32835579Y6315239D01*
X32815136Y6335659D01*
X32777247Y6392310D01*
X32766182Y6419002D01*
X32751424Y6493140D01*
X32750000Y6507587D01*
X32750000Y6600000D01*
X39200000Y6600000D01*
X41050000Y6600000D01*
X41050000Y8350000D01*
X39200000Y8350000D01*
X39200000Y6600000D01*
X32750000Y6600000D01*
X32750000Y6900000D01*
X33050000Y6900000D01*
X34500000Y6900000D01*
X37550000Y6900000D01*
X39000000Y6900000D01*
X39000000Y7750000D01*
X37550000Y7750000D01*
X37550000Y6900000D01*
X34500000Y6900000D01*
X34500000Y7750000D01*
X33050000Y7750000D01*
X33050000Y6900000D01*
X32750000Y6900000D01*
X32750000Y9050000D01*
X33050000Y9050000D01*
X34500000Y9050000D01*
X37550000Y9050000D01*
X39000000Y9050000D01*
X39000000Y9900000D01*
X37550000Y9900000D01*
X37550000Y9050000D01*
X34500000Y9050000D01*
X34500000Y9900000D01*
X33050000Y9900000D01*
X33050000Y9050000D01*
X32750000Y9050000D01*
X32750000Y10492712D01*
X32751422Y10507148D01*
X32766158Y10581234D01*
X32777207Y10607910D01*
X32815045Y10664538D01*
X32835462Y10684955D01*
X32892090Y10722793D01*
X32918766Y10733842D01*
X32992852Y10748578D01*
X33007288Y10750000D01*
X39242712Y10750000D01*
X39257148Y10748578D01*
G37*
G36*
X44692114Y49067074D02*
G01*
X44708279Y49065988D01*
X44813312Y49051993D01*
X44844535Y49043579D01*
X44934814Y49006048D01*
X44962798Y48989849D01*
X45040308Y48930251D01*
X45063153Y48907367D01*
X45122615Y48829761D01*
X45138767Y48801748D01*
X45176145Y48711401D01*
X45184505Y48680165D01*
X45198320Y48575114D01*
X45199379Y48558946D01*
X45199379Y47325200D01*
X45198316Y47308997D01*
X45184440Y47203719D01*
X45176044Y47172420D01*
X45138508Y47081910D01*
X45122289Y47053855D01*
X45062588Y46976166D01*
X45039654Y46953272D01*
X44961860Y46893702D01*
X44933778Y46877531D01*
X44843206Y46840151D01*
X44811894Y46831809D01*
X44706597Y46818113D01*
X44690391Y46817077D01*
X39856643Y46825341D01*
X39840478Y46826427D01*
X39735445Y46840422D01*
X39704222Y46848836D01*
X39613943Y46886367D01*
X39585959Y46902566D01*
X39508449Y46962164D01*
X39485604Y46985048D01*
X39426142Y47062654D01*
X39409990Y47090667D01*
X39376704Y47171122D01*
X39939593Y47171122D01*
X44643573Y47171122D01*
X44643573Y48716921D01*
X39939593Y48716921D01*
X39939593Y47171122D01*
X39376704Y47171122D01*
X39372612Y47181014D01*
X39364251Y47212251D01*
X39350437Y47317302D01*
X39349379Y47333469D01*
X39349379Y48567215D01*
X39350442Y48583417D01*
X39364317Y48688695D01*
X39372713Y48719995D01*
X39410249Y48810505D01*
X39426468Y48838560D01*
X39486169Y48916249D01*
X39509103Y48939143D01*
X39586897Y48998713D01*
X39614979Y49014884D01*
X39705551Y49052264D01*
X39736863Y49060606D01*
X39842160Y49074302D01*
X39858366Y49075338D01*
X44692114Y49067074D01*
G37*
G36*
X54283059Y15198939D02*
G01*
X54388223Y15185094D01*
X54419491Y15176716D01*
X54509918Y15139260D01*
X54537951Y15123075D01*
X54615601Y15063492D01*
X54638491Y15040602D01*
X54698074Y14962952D01*
X54714259Y14934919D01*
X54751715Y14844492D01*
X54760093Y14813225D01*
X54773939Y14708061D01*
X54775000Y14691875D01*
X54775000Y8708126D01*
X54773939Y8691940D01*
X54760093Y8586776D01*
X54751715Y8555509D01*
X54714259Y8465082D01*
X54698074Y8437049D01*
X54638491Y8359399D01*
X54615601Y8336509D01*
X54537951Y8276926D01*
X54509918Y8260741D01*
X54419491Y8223285D01*
X54388224Y8214907D01*
X54283060Y8201061D01*
X54266874Y8200000D01*
X53033126Y8200000D01*
X53016940Y8201061D01*
X52911775Y8214907D01*
X52880508Y8223285D01*
X52790081Y8260741D01*
X52762048Y8276926D01*
X52684398Y8336509D01*
X52661508Y8359399D01*
X52601925Y8437049D01*
X52585740Y8465082D01*
X52548284Y8555509D01*
X52546827Y8560946D01*
X52874290Y8560946D01*
X54420081Y8560946D01*
X54420081Y14860014D01*
X52874290Y14860014D01*
X52874290Y8560946D01*
X52546827Y8560946D01*
X52539906Y8586777D01*
X52526061Y8691941D01*
X52525000Y8708126D01*
X52525000Y14691875D01*
X52526061Y14708060D01*
X52539906Y14813224D01*
X52548284Y14844492D01*
X52585740Y14934919D01*
X52601925Y14962952D01*
X52661508Y15040602D01*
X52684398Y15063492D01*
X52762048Y15123075D01*
X52790081Y15139260D01*
X52880508Y15176716D01*
X52911776Y15185094D01*
X53016941Y15198939D01*
X53033126Y15200000D01*
X54266874Y15200000D01*
X54283059Y15198939D01*
G37*
%LPC*%
D20*
X55500000Y57500000D02*
G75*
G02*
X53500000Y55500000I-1999999J-1D01*
G01*
X59500000Y57500000D02*
G75*
G02*
X55500000Y57500000I-2000000J0D01*
G01*
X55500000Y57500000D02*
G75*
G02*
X59500000Y57500000I2000000J0D01*
G01*
X57499999Y55499999D02*
G75*
G02*
X59499999Y53499999I1J-1999999D01*
G01*
X4500000Y2500000D02*
G75*
G02*
X6500000Y4500000I2000000J0D01*
G01*
X4500000Y57500000D02*
G75*
G02*
X500000Y57500000I-2000000J0D01*
G01*
X500000Y57500000D02*
G75*
G02*
X4500000Y57500000I2000000J0D01*
G01*
X4500000Y2500000D02*
G75*
G02*
X500000Y2500000I-2000000J0D01*
G01*
X500000Y2500000D02*
G75*
G02*
X4500000Y2500000I2000000J0D01*
G01*
X6500000Y55500000D02*
G75*
G02*
X4500000Y57500000I0J2000000D01*
G01*
X59500000Y2499999D02*
G75*
G02*
X55500000Y2499999I-2000000J0D01*
G01*
X55500000Y2499999D02*
G75*
G02*
X59500000Y2499999I2000000J0D01*
G01*
X53500000Y4499999D02*
G75*
G02*
X55500000Y2499999I0J-2000000D01*
G01*
X500001Y53499999D02*
G75*
G02*
X2500001Y55499999I1999999J1D01*
G01*
X2500001Y4500001D02*
G75*
G02*
X500001Y6500001I-1J1999999D01*
G01*
X59499999Y6500000D02*
G75*
G02*
X57499999Y4500000I-1999999J-1D01*
G01*
D21*
%TO.C,C24*%
X51250589Y32280589D03*
X51929411Y32959411D03*
%TD*%
D22*
%TO.C,R5*%
X54310000Y37500000D03*
X53290000Y37500000D03*
%TD*%
D23*
%TO.C,R8*%
X46390000Y37810000D03*
X46390000Y36790000D03*
%TD*%
D24*
%TO.C,J2*%
X46870000Y9745000D03*
X45870000Y9745000D03*
X44870000Y9745000D03*
X43870000Y9745000D03*
D25*
X48170000Y7220000D03*
X42570000Y7220000D03*
%TD*%
D26*
%TO.C,U12*%
X36500064Y20092520D03*
D27*
X37407607Y20499936D03*
X37407607Y21000064D03*
X37407607Y21499936D03*
X37407607Y22000064D03*
X37407607Y22499936D03*
X37407607Y23000064D03*
X37407607Y23499936D03*
X37407607Y24000064D03*
D26*
X36500064Y24407480D03*
X34999936Y24407480D03*
D27*
X34092393Y24000064D03*
X34092393Y23499936D03*
X34092393Y23000064D03*
X34092393Y22499936D03*
X34092393Y22000064D03*
X34092393Y21499936D03*
X34092393Y21000064D03*
X34092393Y20499936D03*
D26*
X34999936Y20092520D03*
D28*
X35750000Y22250000D03*
%TD*%
D23*
%TO.C,R7*%
X45450000Y37810000D03*
X45450000Y36790000D03*
%TD*%
D29*
%TO.C,U8*%
X27640018Y15200025D03*
X27640018Y8799975D03*
X25100013Y15200025D03*
X25100013Y8799975D03*
X22560008Y15200025D03*
X22560008Y8799975D03*
X20020003Y15200025D03*
X20020003Y8799975D03*
X17479997Y15200025D03*
X17479997Y8799975D03*
X14939992Y15200025D03*
X14939992Y8799975D03*
X12399987Y15200025D03*
X12399987Y8799975D03*
X9859982Y15200025D03*
X9859982Y8799975D03*
%TD*%
D22*
%TO.C,R14*%
X54410000Y40500000D03*
X53390000Y40500000D03*
%TD*%
D30*
%TO.C,C19*%
X49440000Y51970000D03*
X50400000Y51970000D03*
%TD*%
D31*
%TO.C,C10*%
X46180589Y22449411D03*
X46859411Y21770589D03*
%TD*%
D32*
%TO.C,C7*%
X47730000Y35540000D03*
X48750000Y35540000D03*
%TD*%
D33*
%TO.C,U16*%
X38274987Y40424943D03*
X33775013Y40424943D03*
X38274987Y42575057D03*
X33775013Y42575057D03*
%TD*%
D34*
%TO.C,C5*%
X34230000Y25500000D03*
X33270000Y25500000D03*
%TD*%
%TO.C,C26*%
X36230000Y25500000D03*
X35270000Y25500000D03*
%TD*%
D30*
%TO.C,C16*%
X51745000Y28075000D03*
X52705000Y28075000D03*
%TD*%
D29*
%TO.C,U6*%
X27640018Y39200025D03*
X27640018Y32799975D03*
X25100013Y39200025D03*
X25100013Y32799975D03*
X22560008Y39200025D03*
X22560008Y32799975D03*
X20020003Y39200025D03*
X20020003Y32799975D03*
X17479997Y39200025D03*
X17479997Y32799975D03*
X14939992Y39200025D03*
X14939992Y32799975D03*
X12399987Y39200025D03*
X12399987Y32799975D03*
X9859982Y39200025D03*
X9859982Y32799975D03*
%TD*%
D32*
%TO.C,R12*%
X37300000Y11470000D03*
X38320000Y11470000D03*
%TD*%
D26*
%TO.C,U9*%
X36500064Y13592520D03*
D27*
X37407607Y13999936D03*
X37407607Y14500064D03*
X37407607Y14999936D03*
X37407607Y15500064D03*
X37407607Y15999936D03*
X37407607Y16500064D03*
X37407607Y16999936D03*
X37407607Y17500064D03*
D26*
X36500064Y17907480D03*
X34999936Y17907480D03*
D27*
X34092393Y17500064D03*
X34092393Y16999936D03*
X34092393Y16500064D03*
X34092393Y15999936D03*
X34092393Y15500064D03*
X34092393Y14999936D03*
X34092393Y14500064D03*
X34092393Y13999936D03*
D26*
X34999936Y13592520D03*
D28*
X35750000Y15750000D03*
%TD*%
D35*
%TO.C,C4*%
X47640000Y18980000D03*
X47640000Y18020000D03*
%TD*%
D36*
%TO.C,J3*%
X55845072Y44300109D03*
X55845072Y50080145D03*
D37*
X54737484Y43989976D03*
D38*
X54737484Y44790076D03*
D39*
X54774968Y45440064D03*
X54774968Y45940191D03*
X54774968Y46440064D03*
X54774968Y46939936D03*
X54774968Y47440064D03*
X54774968Y47939936D03*
X54774968Y48440064D03*
X54774968Y48940191D03*
D38*
X54737484Y49590178D03*
X54737484Y50390025D03*
D40*
X55324879Y42865006D03*
D41*
X59525032Y42865006D03*
D40*
X55324879Y51514994D03*
D41*
X59525032Y51514994D03*
%TD*%
D32*
%TO.C,C6*%
X47730000Y34600000D03*
X48750000Y34600000D03*
%TD*%
D42*
%TO.C,C27*%
X46755000Y52130000D03*
X48305000Y52130000D03*
%TD*%
D43*
%TO.C,U13*%
X51280000Y50140000D03*
X48980000Y50140000D03*
D44*
X48980000Y43840000D03*
D43*
X46680000Y50140000D03*
%TD*%
D34*
%TO.C,C20*%
X41480000Y39900000D03*
X40520000Y39900000D03*
%TD*%
D22*
%TO.C,R6*%
X54310000Y38500000D03*
X53290000Y38500000D03*
%TD*%
D26*
%TO.C,U11*%
X36500064Y26592520D03*
D27*
X37407607Y26999936D03*
X37407607Y27500064D03*
X37407607Y27999936D03*
X37407607Y28500064D03*
X37407607Y28999936D03*
X37407607Y29500064D03*
X37407607Y29999936D03*
X37407607Y30500064D03*
D26*
X36500064Y30907480D03*
X34999936Y30907480D03*
D27*
X34092393Y30500064D03*
X34092393Y29999936D03*
X34092393Y29500064D03*
X34092393Y28999936D03*
X34092393Y28500064D03*
X34092393Y27999936D03*
X34092393Y27500064D03*
X34092393Y26999936D03*
D26*
X34999936Y26592520D03*
D28*
X35750000Y28750000D03*
%TD*%
D45*
%TO.C,U15*%
X55813246Y32500127D03*
X55811721Y33498095D03*
X55811722Y34498095D03*
X55811722Y35498095D03*
X55813246Y36500127D03*
X55811722Y37498096D03*
X55811722Y38498094D03*
X55813246Y39499873D03*
D46*
X59319139Y40800102D03*
X59319139Y31199898D03*
%TD*%
D22*
%TO.C,R13*%
X54410000Y41500000D03*
X53390000Y41500000D03*
%TD*%
D34*
%TO.C,C25*%
X41435000Y35158750D03*
X40475000Y35158750D03*
%TD*%
D47*
%TO.C,L1*%
X47540000Y37150000D03*
X48940000Y37150000D03*
%TD*%
D48*
%TO.C,C21*%
X41479411Y22039411D03*
X40800589Y21360589D03*
%TD*%
%TO.C,C17*%
X39209411Y26569411D03*
X38530589Y25890589D03*
%TD*%
D31*
%TO.C,C18*%
X51085589Y23914411D03*
X51764411Y23235589D03*
%TD*%
D45*
%TO.C,U4*%
X55813246Y20500127D03*
X55811721Y21498095D03*
X55811722Y22498095D03*
X55811722Y23498095D03*
X55813246Y24500127D03*
X55811722Y25498096D03*
X55811722Y26498094D03*
X55813246Y27499873D03*
D46*
X59319139Y28800102D03*
X59319139Y19199898D03*
%TD*%
D49*
%TO.C,C3*%
X42360000Y18030000D03*
X42360000Y18990000D03*
%TD*%
D50*
%TO.C,R15*%
X35100000Y11415000D03*
X35100000Y12435000D03*
%TD*%
D34*
%TO.C,C1*%
X34230000Y32000000D03*
X33270000Y32000000D03*
%TD*%
%TO.C,C2*%
X36195000Y32000000D03*
X35235000Y32000000D03*
%TD*%
D51*
%TO.C,C15*%
X39219411Y30890589D03*
X38540589Y31569411D03*
%TD*%
D34*
%TO.C,C22*%
X34230000Y19010000D03*
X33270000Y19010000D03*
%TD*%
D35*
%TO.C,C29*%
X34170000Y12405000D03*
X34170000Y11445000D03*
%TD*%
D52*
%TO.C,U2*%
X41599936Y36092507D03*
X42100064Y36092507D03*
X42599936Y36092507D03*
X43100064Y36092507D03*
X43100064Y39107493D03*
X42599936Y39107493D03*
X42100064Y39107493D03*
X41599936Y39107493D03*
D53*
X42350000Y37600000D03*
%TD*%
D35*
%TO.C,C30*%
X36410000Y12440000D03*
X36410000Y11480000D03*
%TD*%
D54*
%TO.C,U17*%
X33775013Y9475057D03*
X38274987Y9475057D03*
X33775013Y7324943D03*
X38274987Y7324943D03*
%TD*%
D55*
%TO.C,C28*%
X50520000Y38435000D03*
X50520000Y39985000D03*
%TD*%
D56*
%TO.C,R2*%
X45679376Y21640624D03*
X46400624Y20919376D03*
%TD*%
D34*
%TO.C,C14*%
X36195000Y38500000D03*
X35235000Y38500000D03*
%TD*%
D26*
%TO.C,U10*%
X36500064Y33092520D03*
D27*
X37407607Y33499936D03*
X37407607Y34000064D03*
X37407607Y34499936D03*
X37407607Y35000064D03*
X37407607Y35499936D03*
X37407607Y36000064D03*
X37407607Y36499936D03*
X37407607Y37000064D03*
D26*
X36500064Y37407480D03*
X34999936Y37407480D03*
D27*
X34092393Y37000064D03*
X34092393Y36499936D03*
X34092393Y36000064D03*
X34092393Y35499936D03*
X34092393Y35000064D03*
X34092393Y34499936D03*
X34092393Y34000064D03*
X34092393Y33499936D03*
D26*
X34999936Y33092520D03*
D28*
X35750000Y35250000D03*
%TD*%
D23*
%TO.C,R4*%
X40620000Y39020000D03*
X40620000Y38000000D03*
%TD*%
D48*
%TO.C,C13*%
X44459411Y21599411D03*
X43780589Y20920589D03*
%TD*%
D45*
%TO.C,U3*%
X55813246Y8500127D03*
X55811721Y9498095D03*
X55811722Y10498095D03*
X55811722Y11498095D03*
X55813246Y12500127D03*
X55811722Y13498096D03*
X55811722Y14498094D03*
X55813246Y15499873D03*
D46*
X59319139Y16800102D03*
X59319139Y7199898D03*
%TD*%
D57*
%TO.C,Y1*%
X43939924Y17649987D03*
X46140076Y17649987D03*
X46140076Y19350013D03*
X43939924Y19350013D03*
%TD*%
D29*
%TO.C,U5*%
X27640018Y51200025D03*
X27640018Y44799975D03*
X25100013Y51200025D03*
X25100013Y44799975D03*
X22560008Y51200025D03*
X22560008Y44799975D03*
X20020003Y51200025D03*
X20020003Y44799975D03*
X17479997Y51200025D03*
X17479997Y44799975D03*
X14939992Y51200025D03*
X14939992Y44799975D03*
X12399987Y51200025D03*
X12399987Y44799975D03*
X9859982Y51200025D03*
X9859982Y44799975D03*
%TD*%
D22*
%TO.C,R10*%
X55190000Y52970000D03*
X54170000Y52970000D03*
%TD*%
D58*
%TO.C,D1*%
X57877500Y52820000D03*
X56302500Y52820000D03*
%TD*%
D34*
%TO.C,C8*%
X39490000Y28750000D03*
X38530000Y28750000D03*
%TD*%
D50*
%TO.C,R1*%
X40620000Y36140000D03*
X40620000Y37160000D03*
%TD*%
D59*
%TO.C,U1*%
X40332456Y32300102D03*
X40332456Y31900051D03*
X40332456Y31500000D03*
X40332456Y31099949D03*
X40332456Y30699898D03*
X40332456Y30300102D03*
X40332456Y29900051D03*
X40332456Y29500000D03*
X40332456Y29099949D03*
X40332456Y28699898D03*
X40332456Y28300102D03*
X40332456Y27900051D03*
X40332456Y27500000D03*
X40332456Y27099949D03*
X40332456Y26699898D03*
X40332456Y26300102D03*
X40332456Y25900051D03*
X40332456Y25500000D03*
X40332456Y25099949D03*
X40332456Y24699898D03*
D60*
X41439898Y23592456D03*
X41839949Y23592456D03*
X42240000Y23592456D03*
X42640051Y23592456D03*
X43040102Y23592456D03*
X43439898Y23592456D03*
X43839949Y23592456D03*
X44240000Y23592456D03*
X44640051Y23592456D03*
X45040102Y23592456D03*
X45439898Y23592456D03*
X45839949Y23592456D03*
X46240000Y23592456D03*
X46640051Y23592456D03*
X47040102Y23592456D03*
X47439898Y23592456D03*
X47839949Y23592456D03*
X48240000Y23592456D03*
X48640051Y23592456D03*
X49040102Y23592456D03*
D59*
X50147544Y24699898D03*
X50147544Y25099949D03*
X50147544Y25500000D03*
X50147544Y25900051D03*
X50147544Y26300102D03*
X50147544Y26699898D03*
X50147544Y27099949D03*
X50147544Y27500000D03*
X50147544Y27900051D03*
X50147544Y28300102D03*
X50147544Y28699898D03*
X50147544Y29099949D03*
X50147544Y29500000D03*
X50147544Y29900051D03*
X50147544Y30300102D03*
X50147544Y30699898D03*
X50147544Y31099949D03*
X50147544Y31500000D03*
X50147544Y31900051D03*
X50147544Y32300102D03*
D60*
X49040102Y33407544D03*
X48640051Y33407544D03*
X48240000Y33407544D03*
X47839949Y33407544D03*
X47439898Y33407544D03*
X47040102Y33407544D03*
X46640051Y33407544D03*
X46240000Y33407544D03*
X45839949Y33407544D03*
X45439898Y33407544D03*
X45040102Y33407544D03*
X44640051Y33407544D03*
X44240000Y33407544D03*
X43839949Y33407544D03*
X43439898Y33407544D03*
X43040102Y33407544D03*
X42640051Y33407544D03*
X42240000Y33407544D03*
X41839949Y33407544D03*
X41439898Y33407544D03*
D61*
X45240000Y28500000D03*
%TD*%
D30*
%TO.C,C11*%
X51745000Y29000000D03*
X52705000Y29000000D03*
%TD*%
D35*
%TO.C,C9*%
X50440000Y35480000D03*
X50440000Y34520000D03*
%TD*%
D23*
%TO.C,R3*%
X50440000Y37360000D03*
X50440000Y36340000D03*
%TD*%
D29*
%TO.C,U7*%
X27640018Y27200025D03*
X27640018Y20799975D03*
X25100013Y27200025D03*
X25100013Y20799975D03*
X22560008Y27200025D03*
X22560008Y20799975D03*
X20020003Y27200025D03*
X20020003Y20799975D03*
X17479997Y27200025D03*
X17479997Y20799975D03*
X14939992Y27200025D03*
X14939992Y20799975D03*
X12399987Y27200025D03*
X12399987Y20799975D03*
X9859982Y27200025D03*
X9859982Y20799975D03*
%TD*%
D34*
%TO.C,C23*%
X36230000Y19000000D03*
X35270000Y19000000D03*
%TD*%
D32*
%TO.C,R11*%
X37300000Y12420000D03*
X38320000Y12420000D03*
%TD*%
D51*
%TO.C,C12*%
X45379411Y35310589D03*
X44700589Y35989411D03*
%TD*%
D62*
%TO.C,JP1*%
X37910000Y45460000D03*
X34600000Y48000000D03*
X37910000Y50540000D03*
%TD*%
G36*
X59413242Y58996574D02*
G01*
X59457641Y58985915D01*
X59509226Y58959631D01*
X59543946Y58929977D01*
X59563731Y58908573D01*
X59593278Y58867906D01*
X59595520Y58864717D01*
X59609885Y58843579D01*
X59614056Y58837007D01*
X59627066Y58815010D01*
X59628998Y58811622D01*
X59748203Y58594788D01*
X59750028Y58591341D01*
X59761642Y58568545D01*
X59764954Y58561508D01*
X59775115Y58538031D01*
X59776608Y58534425D01*
X59867690Y58304377D01*
X59869067Y58300735D01*
X59877731Y58276671D01*
X59880140Y58269256D01*
X59887274Y58244697D01*
X59888300Y58240945D01*
X59949834Y58001290D01*
X59950744Y57997501D01*
X59956327Y57972523D01*
X59957787Y57964870D01*
X59961784Y57939631D01*
X59962332Y57935776D01*
X59993868Y57686136D01*
X59994249Y57682750D01*
X59996444Y57660466D01*
X59996925Y57653666D01*
X59997890Y57631342D01*
X59997991Y57627934D01*
X59999938Y57503925D01*
X59999945Y57503405D01*
X59999979Y57500450D01*
X59999986Y57499533D01*
X59999999Y57496373D01*
X60000000Y57495863D01*
X60000000Y2504137D01*
X59999999Y2503627D01*
X59999986Y2500467D01*
X59999979Y2499551D01*
X59999945Y2496595D01*
X59999938Y2496074D01*
X59997991Y2372066D01*
X59997890Y2368658D01*
X59996925Y2346334D01*
X59996444Y2339534D01*
X59994249Y2317250D01*
X59993868Y2313864D01*
X59962332Y2064224D01*
X59961784Y2060369D01*
X59957787Y2035130D01*
X59956327Y2027477D01*
X59950744Y2002499D01*
X59949834Y1998710D01*
X59888300Y1759055D01*
X59887274Y1755303D01*
X59880140Y1730744D01*
X59877731Y1723329D01*
X59869067Y1699265D01*
X59867690Y1695623D01*
X59776608Y1465575D01*
X59775115Y1461969D01*
X59764954Y1438492D01*
X59761642Y1431455D01*
X59750028Y1408659D01*
X59748203Y1405212D01*
X59629000Y1188382D01*
X59627068Y1184994D01*
X59614058Y1162997D01*
X59609889Y1156428D01*
X59595512Y1135271D01*
X59593270Y1132080D01*
X59563735Y1091428D01*
X59543946Y1070022D01*
X59509226Y1040369D01*
X59457645Y1014086D01*
X59413245Y1003426D01*
X59384296Y1000000D01*
X59265865Y1000000D01*
X59241674Y1002383D01*
X59184604Y1013735D01*
X59139905Y1032250D01*
X59101873Y1057662D01*
X59067661Y1091874D01*
X59042249Y1129906D01*
X59023733Y1174606D01*
X59012382Y1231675D01*
X59010000Y1255865D01*
X59010000Y3499994D01*
X59009998Y3500010D01*
X58992963Y3629409D01*
X58992961Y3629414D01*
X58943015Y3749996D01*
X58943015Y3749997D01*
X58863550Y3853556D01*
X58808513Y3895788D01*
X58767311Y3952216D01*
X58760000Y3994163D01*
X58760000Y5005838D01*
X58779685Y5072877D01*
X58808514Y5104214D01*
X58863551Y5146446D01*
X58943015Y5250004D01*
X58943015Y5250005D01*
X58992961Y5370587D01*
X58992963Y5370592D01*
X59009998Y5499991D01*
X59010000Y5500007D01*
X59010000Y54499994D01*
X59009998Y54500010D01*
X58992963Y54629409D01*
X58992961Y54629414D01*
X58943015Y54749996D01*
X58943015Y54749997D01*
X58863550Y54853556D01*
X58808513Y54895788D01*
X58767311Y54952216D01*
X58760000Y54994163D01*
X58760000Y56005838D01*
X58779685Y56072877D01*
X58808514Y56104214D01*
X58863551Y56146446D01*
X58943015Y56250004D01*
X58943015Y56250005D01*
X58992961Y56370587D01*
X58992963Y56370592D01*
X59009998Y56499991D01*
X59010000Y56500007D01*
X59010000Y58744136D01*
X59012382Y58768325D01*
X59023733Y58825395D01*
X59042249Y58870098D01*
X59067661Y58908129D01*
X59101871Y58942339D01*
X59139902Y58967751D01*
X59184605Y58986267D01*
X59241676Y58997618D01*
X59265865Y59000000D01*
X59384295Y59000000D01*
X59413242Y58996574D01*
G37*
G36*
X763327Y58997617D02*
G01*
X822312Y58985884D01*
X867010Y58967370D01*
X906662Y58940876D01*
X940875Y58906663D01*
X967369Y58867011D01*
X985883Y58822314D01*
X997617Y58763327D01*
X1000000Y58739134D01*
X1000000Y56500007D01*
X1000001Y56499991D01*
X1017036Y56370592D01*
X1017038Y56370587D01*
X1066984Y56250005D01*
X1066984Y56250004D01*
X1146448Y56146446D01*
X1201486Y56104214D01*
X1242689Y56047786D01*
X1250000Y56005838D01*
X1250000Y54994163D01*
X1230315Y54927124D01*
X1201487Y54895788D01*
X1146449Y54853556D01*
X1066984Y54749997D01*
X1066984Y54749996D01*
X1017038Y54629414D01*
X1017036Y54629409D01*
X1000001Y54500010D01*
X1000000Y54499994D01*
X1000000Y5500007D01*
X1000001Y5499991D01*
X1017036Y5370592D01*
X1017038Y5370587D01*
X1066984Y5250005D01*
X1066984Y5250004D01*
X1146448Y5146446D01*
X1201486Y5104214D01*
X1242689Y5047786D01*
X1250000Y5005838D01*
X1250000Y3994163D01*
X1230315Y3927124D01*
X1201487Y3895788D01*
X1146449Y3853556D01*
X1066984Y3749997D01*
X1066984Y3749996D01*
X1017038Y3629414D01*
X1017036Y3629409D01*
X1000001Y3500010D01*
X1000000Y3499994D01*
X1000000Y1260866D01*
X997617Y1236673D01*
X985883Y1177687D01*
X967369Y1132990D01*
X940875Y1093338D01*
X906662Y1059125D01*
X867010Y1032631D01*
X822313Y1014117D01*
X763328Y1002383D01*
X739135Y1000000D01*
X615705Y1000000D01*
X586756Y1003426D01*
X542356Y1014086D01*
X490776Y1040367D01*
X456056Y1070019D01*
X436266Y1091428D01*
X406715Y1132103D01*
X404475Y1135290D01*
X390114Y1156422D01*
X385943Y1162994D01*
X372933Y1184991D01*
X371001Y1188379D01*
X251796Y1405213D01*
X249971Y1408660D01*
X238357Y1431456D01*
X235045Y1438493D01*
X224884Y1461970D01*
X223391Y1465576D01*
X132309Y1695624D01*
X130932Y1699266D01*
X122268Y1723330D01*
X119859Y1730745D01*
X112725Y1755304D01*
X111699Y1759056D01*
X50165Y1998711D01*
X49255Y2002500D01*
X43672Y2027478D01*
X42212Y2035131D01*
X38215Y2060370D01*
X37667Y2064225D01*
X6131Y2313865D01*
X5750Y2317251D01*
X3555Y2339535D01*
X3074Y2346335D01*
X2109Y2368659D01*
X2008Y2372068D01*
X62Y2496076D01*
X56Y2496554D01*
X21Y2499510D01*
X13Y2500507D01*
X1Y2503667D01*
X0Y2504138D01*
X0Y57495863D01*
X1Y57496334D01*
X13Y57499494D01*
X21Y57500492D01*
X56Y57503447D01*
X62Y57503924D01*
X2008Y57627933D01*
X2109Y57631342D01*
X3074Y57653666D01*
X3555Y57660466D01*
X5750Y57682750D01*
X6131Y57686136D01*
X37667Y57935776D01*
X38215Y57939631D01*
X42212Y57964870D01*
X43672Y57972523D01*
X49255Y57997501D01*
X50165Y58001290D01*
X111699Y58240945D01*
X112725Y58244697D01*
X119859Y58269256D01*
X122268Y58276671D01*
X130932Y58300735D01*
X132309Y58304377D01*
X223391Y58534425D01*
X224884Y58538031D01*
X235045Y58561508D01*
X238357Y58568545D01*
X249971Y58591341D01*
X251796Y58594788D01*
X371001Y58811622D01*
X372933Y58815010D01*
X385943Y58837007D01*
X390114Y58843579D01*
X404479Y58864717D01*
X406721Y58867906D01*
X436268Y58908573D01*
X456053Y58929977D01*
X490773Y58959631D01*
X542359Y58985915D01*
X586759Y58996574D01*
X615705Y59000000D01*
X739135Y59000000D01*
X763327Y58997617D01*
G37*
G36*
X1072876Y56230315D02*
G01*
X1104212Y56201487D01*
X1146444Y56146450D01*
X1250004Y56066985D01*
X1370586Y56017039D01*
X1370591Y56017037D01*
X1499990Y56000002D01*
X1500007Y56000000D01*
X58509993Y56000000D01*
X58510009Y56000002D01*
X58639408Y56017037D01*
X58639413Y56017039D01*
X58759995Y56066985D01*
X58759996Y56066985D01*
X58863555Y56146450D01*
X58905788Y56201487D01*
X58962216Y56242689D01*
X59004163Y56250000D01*
X59876000Y56250000D01*
X59943039Y56230315D01*
X59988794Y56177511D01*
X60000000Y56126000D01*
X60000000Y54874000D01*
X59980315Y54806961D01*
X59927511Y54761206D01*
X59876000Y54750000D01*
X59004163Y54750000D01*
X58937124Y54769685D01*
X58905788Y54798513D01*
X58863555Y54853551D01*
X58759995Y54933016D01*
X58639413Y54982962D01*
X58639408Y54982964D01*
X58510009Y54999999D01*
X58509993Y55000000D01*
X1500007Y55000000D01*
X1499990Y54999999D01*
X1370591Y54982964D01*
X1370586Y54982962D01*
X1250004Y54933016D01*
X1250003Y54933016D01*
X1146444Y54853551D01*
X1104212Y54798513D01*
X1047784Y54757311D01*
X1005837Y54750000D01*
X124000Y54750000D01*
X56961Y54769685D01*
X11206Y54822489D01*
X0Y54874000D01*
X0Y56126000D01*
X19685Y56193039D01*
X72489Y56238794D01*
X124000Y56250000D01*
X1005837Y56250000D01*
X1072876Y56230315D01*
G37*
G36*
X1072876Y5230315D02*
G01*
X1104212Y5201487D01*
X1146444Y5146450D01*
X1250004Y5066985D01*
X1370586Y5017039D01*
X1370591Y5017037D01*
X1499990Y5000002D01*
X1500007Y5000000D01*
X58509993Y5000000D01*
X58510009Y5000002D01*
X58639408Y5017037D01*
X58639413Y5017039D01*
X58759995Y5066985D01*
X58759996Y5066985D01*
X58863555Y5146450D01*
X58905788Y5201487D01*
X58962216Y5242689D01*
X59004163Y5250000D01*
X59876000Y5250000D01*
X59943039Y5230315D01*
X59988794Y5177511D01*
X60000000Y5126000D01*
X60000000Y3874000D01*
X59980315Y3806961D01*
X59927511Y3761206D01*
X59876000Y3750000D01*
X59004163Y3750000D01*
X58937124Y3769685D01*
X58905788Y3798513D01*
X58863555Y3853551D01*
X58759995Y3933016D01*
X58639413Y3982962D01*
X58639408Y3982964D01*
X58510009Y3999999D01*
X58509993Y4000000D01*
X1500007Y4000000D01*
X1499990Y3999999D01*
X1370591Y3982964D01*
X1370586Y3982962D01*
X1250004Y3933016D01*
X1250003Y3933016D01*
X1146444Y3853551D01*
X1104212Y3798513D01*
X1047784Y3757311D01*
X1005837Y3750000D01*
X124000Y3750000D01*
X56961Y3769685D01*
X11206Y3822489D01*
X0Y3874000D01*
X0Y5126000D01*
X19685Y5193039D01*
X72489Y5238794D01*
X124000Y5250000D01*
X1005837Y5250000D01*
X1072876Y5230315D01*
G37*
%LPD*%
M02*
