M48
; DRILL file {KiCad 8.0.8} date 2025-04-16T19:26:52+0200
; FORMAT={-:-/ absolute / inch / decimal}
; #@! TF.CreationDate,2025-04-16T19:26:52+02:00
; #@! TF.GenerationSoftware,Kicad,Pcbnew,8.0.8
; #@! TF.FileFunction,Plated,1,4,PTH
FMAT,2
INCH
; #@! TA.AperFunction,Plated,PTH,ViaDrill
T1C0.0098
; #@! TA.AperFunction,Plated,PTH,ComponentDrill
T2C0.0236
%
G90
G05
T1
X0.0197Y0.7087
X0.0197Y0.6693
X0.0197Y0.6299
X0.0197Y0.5906
X0.0197Y0.5512
X0.0197Y0.5118
X0.0197Y0.4724
X0.0197Y0.4331
X0.0197Y0.3937
X0.0197Y0.3543
X0.0197Y0.315
X0.0197Y0.2756
X0.0197Y0.2362
X0.0197Y0.1969
X0.0197Y0.1575
X0.0197Y0.1181
X0.0197Y0.0787
X0.037Y0.7504
X0.037Y0.037
X0.0787Y0.7677
X0.0787Y0.0197
X0.0827Y0.5118
X0.0827Y0.4331
X0.0827Y0.3543
X0.0827Y0.2756
X0.1181Y0.7677
X0.1181Y0.0197
X0.1575Y0.7677
X0.1575Y0.0197
X0.1888Y0.4266
X0.189Y0.3697
X0.1969Y0.7677
X0.1969Y0.0197
X0.2126Y0.7008
X0.2126Y0.6496
X0.2126Y0.628
X0.2126Y0.7224
X0.2127Y0.6752
X0.2205Y0.5354
X0.2205Y0.252
X0.2362Y0.7677
X0.2362Y0.0197
X0.2402Y0.5354
X0.2402Y0.252
X0.2598Y0.5354
X0.2598Y0.252
X0.2717Y0.1146
X0.2719Y0.6983
X0.2756Y0.7677
X0.2756Y0.0197
X0.2805Y0.7224
X0.2835Y0.189
X0.2953Y0.0551
X0.3047Y0.3717
X0.3047Y0.3976
X0.315Y0.7677
X0.315Y0.0197
X0.3346Y0.0551
X0.3386Y0.2264
X0.3386Y0.1969
X0.3475Y0.5403
X0.3537Y0.5155
X0.3543Y0.7677
X0.3543Y0.0197
X0.3583Y0.4272
X0.3701Y0.0551
X0.3752Y0.3717
X0.3812Y0.5862
X0.3909Y0.3913
X0.3937Y0.7677
X0.3937Y0.6417
X0.3937Y0.0197
X0.3976Y0.3031
X0.3976Y0.2795
X0.3976Y0.2559
X0.3996Y0.5357
X0.4134Y0.5866
X0.4331Y0.7677
X0.4331Y0.0197
X0.4478Y0.3786
X0.448Y0.4122
X0.4488Y0.5866
X0.4593Y0.4958
X0.4646Y0.5512
X0.4724Y0.7677
X0.4724Y0.1496
X0.4724Y0.0827
X0.4724Y0.0197
X0.4882Y0.5728
X0.4884Y0.2695
X0.4906Y0.0587
X0.4951Y0.609
X0.5118Y0.7677
X0.5118Y0.5512
X0.5118Y0.5236
X0.5118Y0.0197
X0.5272Y0.4122
X0.5274Y0.4572
X0.5276Y0.4882
X0.5276Y0.3799
X0.5284Y0.3031
X0.5295Y0.1298
X0.5315Y0.0591
X0.5378Y0.2236
X0.5512Y0.7677
X0.5512Y0.0197
X0.5709Y0.0591
X0.5846Y0.5748
X0.5906Y0.7677
X0.5906Y0.4331
X0.5906Y0.3937
X0.5906Y0.3543
X0.5906Y0.0197
X0.6122Y0.5748
X0.6186Y0.2923
X0.6299Y0.7677
X0.6299Y0.4331
X0.6299Y0.3937
X0.6299Y0.3543
X0.6299Y0.0197
X0.6451Y0.2916
X0.6451Y0.0886
X0.6693Y0.7677
X0.6693Y0.5011
X0.6693Y0.4331
X0.6693Y0.3937
X0.6693Y0.3543
X0.6693Y0.3031
X0.6693Y0.0197
X0.689Y0.5748
X0.6947Y0.2919
X0.7087Y0.7677
X0.7087Y0.0197
X0.7148Y0.2244
X0.7154Y0.198
X0.7313Y0.449
X0.7313Y0.2924
X0.7317Y0.3919
X0.7322Y0.3307
X0.7323Y0.4803
X0.7323Y0.3583
X0.7429Y0.1043
X0.748Y0.7677
X0.748Y0.0197
X0.7534Y0.2707
X0.7539Y0.5748
X0.7677Y0.5413
X0.7741Y0.1169
X0.7874Y0.7677
X0.7874Y0.0197
X0.7913Y0.0965
X0.7951Y0.132
X0.8004Y0.4495
X0.8248Y0.4843
X0.8268Y0.7677
X0.8268Y0.5433
X0.8268Y0.0197
X0.8504Y0.6138
X0.8606Y0.1307
X0.8634Y0.4843
X0.8634Y0.4232
X0.8661Y0.7677
X0.8661Y0.0197
X0.874Y0.5748
X0.874Y0.5433
X0.8927Y0.3445
X0.8937Y0.2854
X0.9055Y0.7677
X0.9055Y0.0197
X0.9173Y0.3878
X0.9449Y0.7677
X0.9449Y0.0197
X0.9508Y0.3957
X0.9764Y0.2051
X0.9843Y0.7677
X0.9843Y0.7185
X0.9843Y0.4055
X0.9843Y0.0197
X0.9972Y0.6339
X1.0059Y0.2051
X1.0236Y0.7677
X1.0236Y0.6791
X1.0236Y0.0197
X1.0315Y0.4685
X1.0315Y0.437
X1.0315Y0.4055
X1.0315Y0.2598
X1.0394Y0.1181
X1.063Y0.7677
X1.063Y0.0197
X1.0669Y0.1772
X1.0669Y0.1181
X1.0925Y0.6299
X1.1024Y0.7677
X1.1024Y0.0197
X1.1181Y0.2244
X1.1417Y0.7677
X1.1417Y0.0197
X1.1811Y0.7677
X1.1811Y0.5945
X1.1811Y0.5118
X1.1811Y0.4331
X1.1811Y0.3543
X1.1811Y0.2717
X1.1811Y0.1929
X1.1811Y0.0197
X1.2205Y0.748
X1.2205Y0.0346
X1.2378Y0.7063
X1.2378Y0.6669
X1.2378Y0.6275
X1.2378Y0.5094
X1.2378Y0.4701
X1.2378Y0.4307
X1.2378Y0.3913
X1.2378Y0.3519
X1.2378Y0.3126
X1.2378Y0.2732
X1.2378Y0.1551
X1.2378Y0.1157
X1.2378Y0.0764
X1.2402Y0.5906
X1.2402Y0.5512
X1.2402Y0.2362
X1.2402Y0.1969
T2
G00X0.064Y0.564
M15
G01X0.0404Y0.564
M16
G05
G00X0.064Y0.2234
M15
G01X0.0404Y0.2234
M16
G05
G00X0.2352Y0.564
M15
G01X0.1998Y0.564
M16
G05
G00X0.2352Y0.2234
M15
G01X0.1998Y0.2234
M16
G05
M30
