%TF.GenerationSoftware,KiCad,Pcbnew,8.0.8*%
%TF.CreationDate,2025-04-16T19:26:52+02:00*%
%TF.ProjectId,PicoFlash,5069636f-466c-4617-9368-2e6b69636164,1.0*%
%TF.SameCoordinates,Original*%
%TF.FileFunction,Legend,Top*%
%TF.FilePolarity,Positive*%
%FSLAX46Y46*%
G04 Gerber Fmt 4.6, Leading zero omitted, Abs format (unit mm)*
G04 Created by KiCad (PCBNEW 8.0.8) date 2025-04-16 19:26:52*
%MOMM*%
%LPD*%
G01*
G04 APERTURE LIST*
G04 Aperture macros list*
%AMRoundRect*
0 Rectangle with rounded corners*
0 $1 Rounding radius*
0 $2 $3 $4 $5 $6 $7 $8 $9 X,Y pos of 4 corners*
0 Add a 4 corners polygon primitive as box body*
4,1,4,$2,$3,$4,$5,$6,$7,$8,$9,$2,$3,0*
0 Add four circle primitives for the rounded corners*
1,1,$1+$1,$2,$3*
1,1,$1+$1,$4,$5*
1,1,$1+$1,$6,$7*
1,1,$1+$1,$8,$9*
0 Add four rect primitives between the rounded corners*
20,1,$1+$1,$2,$3,$4,$5,0*
20,1,$1+$1,$4,$5,$6,$7,0*
20,1,$1+$1,$6,$7,$8,$9,0*
20,1,$1+$1,$8,$9,$2,$3,0*%
G04 Aperture macros list end*
%ADD10C,0.153000*%
%ADD11C,0.120000*%
%ADD12C,0.100000*%
%ADD13C,0.254000*%
%ADD14C,0.059995*%
%ADD15C,0.152400*%
%ADD16C,0.000000*%
%ADD17C,1.750000*%
%ADD18C,1.000000*%
%ADD19RoundRect,0.140000X0.170000X-0.140000X0.170000X0.140000X-0.170000X0.140000X-0.170000X-0.140000X0*%
%ADD20RoundRect,0.225000X-0.225000X-0.250000X0.225000X-0.250000X0.225000X0.250000X-0.225000X0.250000X0*%
%ADD21RoundRect,0.135000X-0.135000X-0.185000X0.135000X-0.185000X0.135000X0.185000X-0.135000X0.185000X0*%
%ADD22RoundRect,0.135000X0.185000X-0.135000X0.185000X0.135000X-0.185000X0.135000X-0.185000X-0.135000X0*%
%ADD23RoundRect,0.135000X0.135000X0.185000X-0.135000X0.185000X-0.135000X-0.185000X0.135000X-0.185000X0*%
%ADD24RoundRect,0.140000X0.140000X0.170000X-0.140000X0.170000X-0.140000X-0.170000X0.140000X-0.170000X0*%
%ADD25RoundRect,0.135000X-0.185000X0.135000X-0.185000X-0.135000X0.185000X-0.135000X0.185000X0.135000X0*%
%ADD26RoundRect,0.050000X0.050000X-0.387500X0.050000X0.387500X-0.050000X0.387500X-0.050000X-0.387500X0*%
%ADD27RoundRect,0.050000X0.387500X-0.050000X0.387500X0.050000X-0.387500X0.050000X-0.387500X-0.050000X0*%
%ADD28R,3.200000X3.200000*%
%ADD29RoundRect,0.218750X-0.218750X-0.256250X0.218750X-0.256250X0.218750X0.256250X-0.218750X0.256250X0*%
%ADD30R,1.550013X0.600000*%
%ADD31R,1.261722X1.500000*%
%ADD32RoundRect,0.150000X-0.150000X0.512500X-0.150000X-0.512500X0.150000X-0.512500X0.150000X0.512500X0*%
%ADD33R,0.600000X0.280010*%
%ADD34R,0.300000X1.700000*%
%ADD35C,0.700025*%
%ADD36R,1.025032X0.550010*%
%ADD37R,1.025032X0.550012*%
%ADD38R,1.100000X0.300000*%
%ADD39O,2.000000X1.100000*%
%ADD40O,1.800000X1.200000*%
%ADD41R,1.300000X0.700000*%
%ADD42RoundRect,0.140000X-0.170000X0.140000X-0.170000X-0.140000X0.170000X-0.140000X0.170000X0.140000X0*%
%ADD43R,1.200000X1.400000*%
%ADD44RoundRect,0.140000X-0.140000X-0.170000X0.140000X-0.170000X0.140000X0.170000X-0.140000X0.170000X0*%
%ADD45RoundRect,0.218750X0.218750X0.256250X-0.218750X0.256250X-0.218750X-0.256250X0.218750X-0.256250X0*%
%ADD46R,0.398781X0.551181*%
G04 APERTURE END LIST*
D10*
G36*
X7533149Y4152383D02*
G01*
X7583732Y4140419D01*
X7623796Y4109564D01*
X7636412Y4092557D01*
X7655700Y4045260D01*
X7660921Y3996236D01*
X7660014Y3974851D01*
X7649174Y3925559D01*
X7623796Y3882663D01*
X7616624Y3875024D01*
X7574457Y3848101D01*
X7525610Y3839920D01*
X7263782Y3839920D01*
X7263782Y4152551D01*
X7525610Y4152551D01*
X7533149Y4152383D01*
G37*
G36*
X9761390Y3162166D02*
G01*
X7012475Y3162166D01*
X7012475Y3285000D01*
X7123586Y3285000D01*
X7263782Y3285000D01*
X7263782Y3707052D01*
X7472287Y3707052D01*
X7685589Y3285000D01*
X7851919Y3285000D01*
X7661319Y3645991D01*
X7995045Y3645991D01*
X7995850Y3613359D01*
X8000769Y3562109D01*
X8012576Y3505789D01*
X8030823Y3455119D01*
X8055509Y3410100D01*
X8086636Y3370730D01*
X8104514Y3353314D01*
X8144225Y3323621D01*
X8189207Y3300781D01*
X8239462Y3284792D01*
X8294989Y3275656D01*
X8345289Y3273277D01*
X8365967Y3273658D01*
X8424439Y3279368D01*
X8448260Y3285000D01*
X8912421Y3285000D01*
X9051151Y3285000D01*
X9051151Y4021670D01*
X9521807Y3285000D01*
X9650279Y3285000D01*
X9650279Y4285419D01*
X9511549Y4285419D01*
X9511549Y3537356D01*
X9039672Y4285419D01*
X8912421Y4285419D01*
X8912421Y3285000D01*
X8448260Y3285000D01*
X8477570Y3291930D01*
X8525361Y3311344D01*
X8567811Y3337611D01*
X8604919Y3370730D01*
X8626500Y3396349D01*
X8653477Y3439485D01*
X8673979Y3488272D01*
X8688007Y3542708D01*
X8694751Y3592388D01*
X8696999Y3645991D01*
X8696999Y4285419D01*
X8557048Y4285419D01*
X8557048Y3639885D01*
X8556181Y3613244D01*
X8547897Y3558965D01*
X8530842Y3512531D01*
X8501605Y3470137D01*
X8490851Y3459399D01*
X8449177Y3431235D01*
X8398535Y3414806D01*
X8345289Y3410053D01*
X8326910Y3410581D01*
X8276539Y3418502D01*
X8228954Y3438452D01*
X8190195Y3470137D01*
X8174363Y3490123D01*
X8150750Y3537359D01*
X8138675Y3588152D01*
X8135240Y3639885D01*
X8135240Y4285419D01*
X7995045Y4285419D01*
X7995045Y3645991D01*
X7661319Y3645991D01*
X7621306Y3721775D01*
X7624864Y3722620D01*
X7672156Y3743200D01*
X7709971Y3768607D01*
X7745120Y3803056D01*
X7773517Y3844317D01*
X7775756Y3848413D01*
X7795693Y3896249D01*
X7806355Y3944143D01*
X7809909Y3996236D01*
X7809873Y4001678D01*
X7805637Y4053666D01*
X7794341Y4101217D01*
X7773761Y4148399D01*
X7748435Y4186061D01*
X7713910Y4221043D01*
X7672400Y4249271D01*
X7668303Y4251495D01*
X7620399Y4271299D01*
X7572343Y4281889D01*
X7519993Y4285419D01*
X7263782Y4285419D01*
X7123586Y4285419D01*
X7123586Y3285000D01*
X7012475Y3285000D01*
X7012475Y4396530D01*
X9761390Y4396530D01*
X9761390Y3162166D01*
G37*
G36*
X8303897Y2560125D02*
G01*
X8357558Y2551643D01*
X8403922Y2531044D01*
X8442986Y2498329D01*
X8459310Y2477935D01*
X8483658Y2431099D01*
X8496109Y2382054D01*
X8499651Y2332977D01*
X8499651Y2037443D01*
X8499153Y2018561D01*
X8491682Y1966139D01*
X8472868Y1915325D01*
X8442986Y1872335D01*
X8432033Y1861204D01*
X8390779Y1832010D01*
X8342226Y1814979D01*
X8292288Y1810053D01*
X8280767Y1810296D01*
X8227396Y1818811D01*
X8181085Y1839491D01*
X8141835Y1872335D01*
X8125440Y1892852D01*
X8100987Y1939754D01*
X8088483Y1988655D01*
X8084926Y2037443D01*
X8084926Y2332977D01*
X8085426Y2351985D01*
X8092929Y2404658D01*
X8111824Y2455525D01*
X8141835Y2498329D01*
X8152869Y2509416D01*
X8194237Y2538496D01*
X8242666Y2555460D01*
X8292288Y2560367D01*
X8303897Y2560125D01*
G37*
G36*
X9700817Y1562166D02*
G01*
X6991959Y1562166D01*
X6991959Y2322474D01*
X7103070Y2322474D01*
X7103070Y2047213D01*
X7105139Y1999403D01*
X7112569Y1948055D01*
X7125403Y1900217D01*
X7146301Y1850597D01*
X7160669Y1825183D01*
X7190860Y1784066D01*
X7226615Y1748899D01*
X7267934Y1719683D01*
X7298245Y1703912D01*
X7347124Y1686374D01*
X7400100Y1676177D01*
X7450628Y1673277D01*
X7461376Y1673422D01*
X7513345Y1678498D01*
X7562355Y1690824D01*
X7608408Y1710402D01*
X7617265Y1715188D01*
X7658887Y1742585D01*
X7696072Y1775753D01*
X7728820Y1814693D01*
X7737700Y1827441D01*
X7763269Y1872817D01*
X7782637Y1922629D01*
X7794766Y1971253D01*
X7651151Y1971253D01*
X7637009Y1930187D01*
X7611538Y1887867D01*
X7573482Y1851574D01*
X7547901Y1835395D01*
X7502363Y1816905D01*
X7450628Y1810053D01*
X7439259Y1810307D01*
X7386651Y1819189D01*
X7341104Y1840761D01*
X7302616Y1875021D01*
X7283608Y1900862D01*
X7262470Y1945160D01*
X7250181Y1996105D01*
X7246685Y2046968D01*
X7246685Y2322719D01*
X7246840Y2327359D01*
X7941311Y2327359D01*
X7941311Y2043061D01*
X7941558Y2037443D01*
X7943392Y1995762D01*
X7950864Y1944940D01*
X7963771Y1897568D01*
X7984787Y1848399D01*
X7999308Y1823284D01*
X8029773Y1782676D01*
X8065803Y1747979D01*
X8107397Y1719194D01*
X8138008Y1703590D01*
X8187435Y1686236D01*
X8241074Y1676147D01*
X8292288Y1673277D01*
X8331003Y1674891D01*
X8379683Y1682066D01*
X8389655Y1685000D01*
X8851849Y1685000D01*
X8990579Y1685000D01*
X8990579Y2421668D01*
X9461235Y1685000D01*
X9589706Y1685000D01*
X9589706Y2685419D01*
X9450976Y2685419D01*
X9450976Y1937358D01*
X8979099Y2685419D01*
X8851849Y2685419D01*
X8851849Y1685000D01*
X8389655Y1685000D01*
X8430435Y1696998D01*
X8476936Y1719194D01*
X8500795Y1734456D01*
X8539353Y1766525D01*
X8572270Y1804506D01*
X8599546Y1848399D01*
X8618673Y1891889D01*
X8632336Y1938830D01*
X8640533Y1989220D01*
X8643265Y2043061D01*
X8643265Y2327359D01*
X8641173Y2374920D01*
X8633659Y2425898D01*
X8620680Y2473274D01*
X8599546Y2522265D01*
X8585089Y2547309D01*
X8554680Y2587821D01*
X8518629Y2622460D01*
X8476936Y2651225D01*
X8446408Y2666830D01*
X8397073Y2684184D01*
X8343488Y2694273D01*
X8292288Y2697143D01*
X8253565Y2695529D01*
X8204847Y2688354D01*
X8154016Y2673422D01*
X8107397Y2651225D01*
X8083602Y2635970D01*
X8045099Y2603941D01*
X8012161Y2566040D01*
X7984787Y2522265D01*
X7965766Y2478942D01*
X7952180Y2432017D01*
X7944029Y2381490D01*
X7941593Y2332977D01*
X7941311Y2327359D01*
X7246840Y2327359D01*
X7247559Y2348811D01*
X7255916Y2402746D01*
X7273121Y2450073D01*
X7302616Y2494910D01*
X7313421Y2506608D01*
X7354027Y2537291D01*
X7401692Y2555189D01*
X7450628Y2560367D01*
X7488582Y2556533D01*
X7535868Y2540339D01*
X7572204Y2517967D01*
X7607676Y2483919D01*
X7632434Y2447172D01*
X7651151Y2399167D01*
X7794766Y2399167D01*
X7791283Y2415774D01*
X7777512Y2463200D01*
X7756365Y2511681D01*
X7729064Y2555726D01*
X7722928Y2563975D01*
X7689497Y2601728D01*
X7651487Y2633661D01*
X7608897Y2659774D01*
X7599864Y2664299D01*
X7552981Y2682546D01*
X7503235Y2693494D01*
X7450628Y2697143D01*
X7418668Y2696004D01*
X7364328Y2688214D01*
X7314083Y2673043D01*
X7267934Y2650492D01*
X7244292Y2635066D01*
X7206064Y2602641D01*
X7173400Y2564226D01*
X7146301Y2519823D01*
X7127387Y2475889D01*
X7113878Y2428354D01*
X7105772Y2377215D01*
X7103070Y2322474D01*
X6991959Y2322474D01*
X6991959Y2808254D01*
X9700817Y2808254D01*
X9700817Y1562166D01*
G37*
G36*
X23533149Y2552383D02*
G01*
X23583732Y2540419D01*
X23623796Y2509564D01*
X23636412Y2492557D01*
X23655700Y2445260D01*
X23660921Y2396236D01*
X23660014Y2374851D01*
X23649174Y2325559D01*
X23623796Y2282663D01*
X23616624Y2275024D01*
X23574457Y2248101D01*
X23525610Y2239920D01*
X23263782Y2239920D01*
X23263782Y2552551D01*
X23525610Y2552551D01*
X23533149Y2552383D01*
G37*
G36*
X24808110Y1573889D02*
G01*
X23012475Y1573889D01*
X23012475Y1685000D01*
X23123586Y1685000D01*
X23263782Y1685000D01*
X23263782Y2107052D01*
X23472287Y2107052D01*
X23685589Y1685000D01*
X23851919Y1685000D01*
X23926168Y1685000D01*
X24083461Y1685000D01*
X24310275Y2073501D01*
X24539706Y1685000D01*
X24696999Y1685000D01*
X24383147Y2195963D01*
X24681856Y2685419D01*
X24524563Y2685419D01*
X24309367Y2317679D01*
X24091765Y2685419D01*
X23934473Y2685419D01*
X24236431Y2195419D01*
X23926168Y1685000D01*
X23851919Y1685000D01*
X23621306Y2121775D01*
X23624864Y2122620D01*
X23672156Y2143200D01*
X23709971Y2168607D01*
X23745120Y2203056D01*
X23773517Y2244317D01*
X23775756Y2248413D01*
X23795693Y2296249D01*
X23806355Y2344143D01*
X23809909Y2396236D01*
X23809873Y2401678D01*
X23805637Y2453666D01*
X23794341Y2501217D01*
X23773761Y2548399D01*
X23748435Y2586061D01*
X23713910Y2621043D01*
X23672400Y2649271D01*
X23668303Y2651495D01*
X23620399Y2671299D01*
X23572343Y2681889D01*
X23519993Y2685419D01*
X23263782Y2685419D01*
X23123586Y2685419D01*
X23123586Y1685000D01*
X23012475Y1685000D01*
X23012475Y2796530D01*
X24808110Y2796530D01*
X24808110Y1573889D01*
G37*
G36*
X24710762Y3173889D02*
G01*
X22975211Y3173889D01*
X22975211Y4152551D01*
X23086322Y4152551D01*
X23368667Y4152551D01*
X23368667Y3285000D01*
X23508618Y3285000D01*
X23828820Y3285000D01*
X23986113Y3285000D01*
X24212927Y3673501D01*
X24442358Y3285000D01*
X24599651Y3285000D01*
X24285799Y3795963D01*
X24584508Y4285419D01*
X24427215Y4285419D01*
X24212018Y3917678D01*
X23994417Y4285419D01*
X23837124Y4285419D01*
X24139083Y3795419D01*
X23828820Y3285000D01*
X23508618Y3285000D01*
X23508618Y4152551D01*
X23790963Y4152551D01*
X23790963Y4285419D01*
X23086322Y4285419D01*
X23086322Y4152551D01*
X22975211Y4152551D01*
X22975211Y4396530D01*
X24710762Y4396530D01*
X24710762Y3173889D01*
G37*
D11*
%TO.C,C1*%
X20260000Y2992164D02*
X20260000Y3207836D01*
X20980000Y2992164D02*
X20980000Y3207836D01*
%TO.C,C15*%
X11859420Y18810000D02*
X12140580Y18810000D01*
X11859420Y17790000D02*
X12140580Y17790000D01*
%TO.C,R20*%
X9396359Y5730000D02*
X9703641Y5730000D01*
X9396359Y4970000D02*
X9703641Y4970000D01*
%TO.C,R15*%
X14480000Y3846359D02*
X14480000Y4153641D01*
X15240000Y3846359D02*
X15240000Y4153641D01*
%TO.C,R16*%
X20620000Y6496359D02*
X20620000Y6803641D01*
X21380000Y6496359D02*
X21380000Y6803641D01*
%TO.C,R17*%
X19503641Y5020000D02*
X19196359Y5020000D01*
X19503641Y5780000D02*
X19196359Y5780000D01*
%TO.C,R2*%
X21896359Y3930000D02*
X22203641Y3930000D01*
X21896359Y3170000D02*
X22203641Y3170000D01*
%TO.C,C3*%
X16607836Y14240000D02*
X16392164Y14240000D01*
X16607836Y14960000D02*
X16392164Y14960000D01*
%TO.C,R11*%
X7740000Y9786359D02*
X7740000Y10093641D01*
X8500000Y9786359D02*
X8500000Y10093641D01*
%TO.C,R10*%
X9440000Y10093641D02*
X9440000Y9786359D01*
X8680000Y10093641D02*
X8680000Y9786359D01*
%TO.C,R13*%
X21570000Y6496359D02*
X21570000Y6803641D01*
X22330000Y6496359D02*
X22330000Y6803641D01*
%TO.C,U2*%
X13040000Y6390000D02*
X12630000Y6390000D01*
X19610000Y6390000D02*
X18960000Y6390000D01*
X12390000Y7040000D02*
X12390000Y6690000D01*
X19610000Y7040000D02*
X19610000Y6390000D01*
X12390000Y12960000D02*
X12390000Y13610000D01*
X19610000Y12960000D02*
X19610000Y13610000D01*
X12390000Y13610000D02*
X13040000Y13610000D01*
X19610000Y13610000D02*
X18960000Y13610000D01*
X12390000Y6390000D02*
X12060000Y6150000D01*
X12060000Y6630000D01*
X12390000Y6390000D01*
G36*
X12390000Y6390000D02*
G01*
X12060000Y6150000D01*
X12060000Y6630000D01*
X12390000Y6390000D01*
G37*
D12*
%TO.C,D2*%
X4100000Y17400000D02*
X4100000Y17300000D01*
X4100000Y17300000D02*
X4200000Y17300000D01*
D13*
%TO.C,J2*%
X27890005Y4740005D02*
X30430010Y4740005D01*
X27890005Y5940005D02*
X27890005Y4740005D01*
X27930010Y13980010D02*
X27930010Y15219990D01*
X27930010Y15219990D02*
X30469990Y15219990D01*
D14*
X28180023Y5000000D02*
G75*
G02*
X28120079Y5000000I-29972J0D01*
G01*
X28120079Y5000000D02*
G75*
G02*
X28180023Y5000000I29972J0D01*
G01*
D12*
%TO.C,D5*%
X4100000Y15850000D02*
X4100000Y15750000D01*
X4100000Y15750000D02*
X4200000Y15750000D01*
D11*
%TO.C,U1*%
X10360000Y16950000D02*
X10360000Y17750000D01*
X10360000Y16950000D02*
X10360000Y16150000D01*
X7240000Y16950000D02*
X7240000Y17750000D01*
X7240000Y16950000D02*
X7240000Y16150000D01*
X10640000Y18010000D02*
X10310000Y18250000D01*
X10640000Y18490000D01*
X10640000Y18010000D01*
G36*
X10640000Y18010000D02*
G01*
X10310000Y18250000D01*
X10640000Y18490000D01*
X10640000Y18010000D01*
G37*
%TO.C,R4*%
X11153641Y1420000D02*
X10846359Y1420000D01*
X11153641Y2180000D02*
X10846359Y2180000D01*
%TO.C,R19*%
X19946359Y14980000D02*
X20253641Y14980000D01*
X19946359Y14220000D02*
X20253641Y14220000D01*
D15*
%TO.C,U4*%
X7823673Y6003851D02*
X10976048Y6003851D01*
X10976048Y8156327D02*
X7823673Y8156327D01*
D14*
X11329972Y5980000D02*
G75*
G02*
X11270028Y5980000I-29972J0D01*
G01*
X11270028Y5980000D02*
G75*
G02*
X11329972Y5980000I29972J0D01*
G01*
D11*
%TO.C,R24*%
X10633641Y10940000D02*
X10326359Y10940000D01*
X10633641Y11700000D02*
X10326359Y11700000D01*
%TO.C,C16*%
X25580000Y5572164D02*
X25580000Y5787836D01*
X26300000Y5572164D02*
X26300000Y5787836D01*
%TO.C,R1*%
X21896359Y2980000D02*
X22203641Y2980000D01*
X21896359Y2220000D02*
X22203641Y2220000D01*
D13*
%TO.C,J10*%
X2700000Y14499924D02*
X3950000Y14499924D01*
X2700000Y5427915D02*
X3950000Y5427915D01*
D11*
%TO.C,R25*%
X10633641Y11880000D02*
X10326359Y11880000D01*
X10633641Y12640000D02*
X10326359Y12640000D01*
D13*
%TO.C,U5*%
X18599949Y15499924D02*
X18599949Y15568809D01*
X18599949Y15499924D02*
X14399949Y15499949D01*
X18599949Y16681077D02*
X18599949Y17718821D01*
X17261951Y16564948D02*
X15737948Y16564948D01*
X17261925Y17834925D02*
X15737922Y17834925D01*
X14399949Y15499949D02*
X14399949Y15568809D01*
X14399949Y16681077D02*
X14399949Y17718821D01*
X17261925Y17834925D02*
G75*
G02*
X17263145Y16564363I610J-635281D01*
G01*
X15737948Y16564948D02*
G75*
G02*
X15739141Y17834365I4567J634705D01*
G01*
D14*
X19080011Y15575006D02*
G75*
G02*
X19020015Y15575006I-29998J0D01*
G01*
X19020015Y15575006D02*
G75*
G02*
X19080011Y15575006I29998J0D01*
G01*
D11*
%TO.C,R6*%
X9830000Y13853641D02*
X9830000Y13546359D01*
X9070000Y13853641D02*
X9070000Y13546359D01*
%TO.C,R14*%
X15720000Y3846359D02*
X15720000Y4153641D01*
X16480000Y3846359D02*
X16480000Y4153641D01*
%TO.C,C8*%
X13930000Y4647836D02*
X13930000Y4432164D01*
X13210000Y4647836D02*
X13210000Y4432164D01*
%TO.C,C7*%
X10657836Y9110000D02*
X10442164Y9110000D01*
X10657836Y9830000D02*
X10442164Y9830000D01*
D15*
%TO.C,Y1*%
X24409886Y7792799D02*
X26067087Y7792799D01*
X26067087Y7792799D02*
X26067087Y9650000D01*
X22481260Y8021400D02*
X22481260Y12078600D01*
X25838486Y8021400D02*
X22481260Y8021400D01*
X22481260Y12078600D02*
X25838486Y12078600D01*
X25838486Y12078600D02*
X25838486Y8021400D01*
D11*
%TO.C,C6*%
X7807836Y4990000D02*
X7592164Y4990000D01*
X7807836Y5710000D02*
X7592164Y5710000D01*
%TO.C,C19*%
X21342164Y8805800D02*
X21557836Y8805800D01*
X21342164Y8085800D02*
X21557836Y8085800D01*
%TO.C,R12*%
X21276359Y9760000D02*
X21583641Y9760000D01*
X21276359Y9000000D02*
X21583641Y9000000D01*
%TO.C,C20*%
X22557836Y12290000D02*
X22342164Y12290000D01*
X22557836Y13010000D02*
X22342164Y13010000D01*
%TO.C,C4*%
X13792164Y14960000D02*
X14007836Y14960000D01*
X13792164Y14240000D02*
X14007836Y14240000D01*
%TO.C,R7*%
X11296359Y5730000D02*
X11603641Y5730000D01*
X11296359Y4970000D02*
X11603641Y4970000D01*
D12*
%TO.C,D6*%
X4050000Y1600000D02*
X4050000Y1500000D01*
X4050000Y1500000D02*
X4150000Y1500000D01*
D11*
%TO.C,R5*%
X11153641Y3420000D02*
X10846359Y3420000D01*
X11153641Y4180000D02*
X10846359Y4180000D01*
%TO.C,C9*%
X11007836Y12830000D02*
X10792164Y12830000D01*
X11007836Y13550000D02*
X10792164Y13550000D01*
D13*
%TO.C,U8*%
X26449949Y15499924D02*
X26449949Y15568809D01*
X26449949Y15499924D02*
X22249949Y15499949D01*
X26449949Y16681077D02*
X26449949Y17718821D01*
X25111951Y16564948D02*
X23587948Y16564948D01*
X25111925Y17834925D02*
X23587922Y17834925D01*
X22249949Y15499949D02*
X22249949Y15568809D01*
X22249949Y16681077D02*
X22249949Y17718821D01*
X25111925Y17834925D02*
G75*
G02*
X25113145Y16564363I610J-635281D01*
G01*
X23587948Y16564948D02*
G75*
G02*
X23589141Y17834365I4567J634705D01*
G01*
D14*
X26930011Y15575006D02*
G75*
G02*
X26870015Y15575006I-29998J0D01*
G01*
X26870015Y15575006D02*
G75*
G02*
X26930011Y15575006I29998J0D01*
G01*
D11*
%TO.C,C18*%
X21342164Y11585800D02*
X21557836Y11585800D01*
X21342164Y10865800D02*
X21557836Y10865800D01*
D12*
%TO.C,D1*%
X27750000Y2700000D02*
X27750000Y2800000D01*
X27750000Y2800000D02*
X27650000Y2800000D01*
D11*
%TO.C,C11*%
X11007836Y13750000D02*
X10792164Y13750000D01*
X11007836Y14470000D02*
X10792164Y14470000D01*
%TO.C,C14*%
X11859420Y16560000D02*
X12140580Y16560000D01*
X11859420Y15540000D02*
X12140580Y15540000D01*
D12*
%TO.C,D7*%
X4050000Y3250000D02*
X4050000Y3150000D01*
X4050000Y3150000D02*
X4150000Y3150000D01*
%TO.C,D4*%
X27750000Y4250000D02*
X27750000Y4350000D01*
X27750000Y4350000D02*
X27650000Y4350000D01*
D11*
%TO.C,C10*%
X17342164Y5750000D02*
X17557836Y5750000D01*
X17342164Y5030000D02*
X17557836Y5030000D01*
D13*
%TO.C,U3*%
X17749949Y2899949D02*
X17749949Y4299949D01*
X17759500Y2899949D02*
X17749949Y2899949D01*
X19080302Y2899949D02*
X18619596Y2899949D01*
X19949949Y2899949D02*
X19940399Y2899949D01*
X19949949Y2899949D02*
X19949949Y4299949D01*
X17759500Y4299949D02*
X17749949Y4299949D01*
X19949949Y4299949D02*
X19914999Y4299949D01*
D14*
X19904940Y4662459D02*
G75*
G02*
X19844946Y4662459I-29997J0D01*
G01*
X19844946Y4662459D02*
G75*
G02*
X19904940Y4662459I29997J0D01*
G01*
D11*
%TO.C,R3*%
X11153641Y2420000D02*
X10846359Y2420000D01*
X11153641Y3180000D02*
X10846359Y3180000D01*
D13*
%TO.C,U6*%
X22649949Y5499949D02*
X22649949Y6899949D01*
X22659500Y5499949D02*
X22649949Y5499949D01*
X23980302Y5499949D02*
X23519596Y5499949D01*
X24849949Y5499949D02*
X24840399Y5499949D01*
X24849949Y5499949D02*
X24849949Y6899949D01*
X22659500Y6899949D02*
X22649949Y6899949D01*
X24849949Y6899949D02*
X24814999Y6899949D01*
D14*
X24804940Y7262459D02*
G75*
G02*
X24744946Y7262459I-29997J0D01*
G01*
X24744946Y7262459D02*
G75*
G02*
X24804940Y7262459I29997J0D01*
G01*
D11*
%TO.C,R9*%
X16670000Y3846359D02*
X16670000Y4153641D01*
X17430000Y3846359D02*
X17430000Y4153641D01*
%TO.C,R18*%
X25203641Y12270000D02*
X24896359Y12270000D01*
X25203641Y13030000D02*
X24896359Y13030000D01*
%TO.C,C2*%
X21342164Y10665800D02*
X21557836Y10665800D01*
X21342164Y9945800D02*
X21557836Y9945800D01*
%TO.C,C17*%
X10657836Y10030000D02*
X10442164Y10030000D01*
X10657836Y10750000D02*
X10442164Y10750000D01*
D16*
%TO.C,G\u002A\u002A\u002A*%
G36*
X20226163Y16819664D02*
G01*
X20251234Y16819662D01*
X20276209Y16819658D01*
X20301041Y16819652D01*
X20325686Y16819645D01*
X20350098Y16819637D01*
X20374230Y16819627D01*
X20398038Y16819616D01*
X20421476Y16819603D01*
X20444497Y16819589D01*
X20467057Y16819573D01*
X20489110Y16819555D01*
X20510610Y16819536D01*
X20531512Y16819515D01*
X20551770Y16819493D01*
X20571338Y16819469D01*
X20590171Y16819444D01*
X20608223Y16819417D01*
X20625448Y16819389D01*
X20641801Y16819359D01*
X20657237Y16819328D01*
X20671709Y16819295D01*
X20685172Y16819261D01*
X20697580Y16819225D01*
X20708888Y16819188D01*
X20719050Y16819149D01*
X20728021Y16819108D01*
X20735755Y16819066D01*
X20742206Y16819023D01*
X20747328Y16818978D01*
X20751077Y16818932D01*
X20753405Y16818884D01*
X20754202Y16818846D01*
X20766386Y16816794D01*
X20778159Y16813327D01*
X20789406Y16808498D01*
X20800013Y16802364D01*
X20809863Y16794979D01*
X20816172Y16789172D01*
X20824389Y16779910D01*
X20831394Y16769814D01*
X20837131Y16758997D01*
X20841545Y16747576D01*
X20844581Y16735663D01*
X20845846Y16727201D01*
X20845895Y16725994D01*
X20845943Y16723332D01*
X20845989Y16719261D01*
X20846033Y16713826D01*
X20846076Y16707074D01*
X20846118Y16699049D01*
X20846158Y16689797D01*
X20846197Y16679365D01*
X20846234Y16667797D01*
X20846269Y16655139D01*
X20846303Y16641438D01*
X20846335Y16626737D01*
X20846366Y16611084D01*
X20846396Y16594523D01*
X20846424Y16577100D01*
X20846450Y16558861D01*
X20846475Y16539852D01*
X20846498Y16520117D01*
X20846520Y16499704D01*
X20846540Y16478656D01*
X20846559Y16457021D01*
X20846576Y16434842D01*
X20846592Y16412167D01*
X20846606Y16389041D01*
X20846619Y16365509D01*
X20846630Y16341617D01*
X20846640Y16317410D01*
X20846648Y16292935D01*
X20846655Y16268236D01*
X20846660Y16243359D01*
X20846664Y16218351D01*
X20846666Y16193256D01*
X20846666Y16168120D01*
X20846666Y16142989D01*
X20846663Y16117909D01*
X20846659Y16092924D01*
X20846654Y16068081D01*
X20846647Y16043425D01*
X20846638Y16019002D01*
X20846628Y15994857D01*
X20846617Y15971037D01*
X20846604Y15947586D01*
X20846589Y15924550D01*
X20846573Y15901975D01*
X20846555Y15879907D01*
X20846536Y15858390D01*
X20846516Y15837472D01*
X20846493Y15817196D01*
X20846470Y15797610D01*
X20846445Y15778758D01*
X20846418Y15760686D01*
X20846390Y15743440D01*
X20846360Y15727065D01*
X20846329Y15711607D01*
X20846296Y15697112D01*
X20846262Y15683624D01*
X20846226Y15671191D01*
X20846189Y15659857D01*
X20846150Y15649668D01*
X20846109Y15640669D01*
X20846068Y15632907D01*
X20846024Y15626426D01*
X20845979Y15621273D01*
X20845933Y15617493D01*
X20845885Y15615131D01*
X20845846Y15614298D01*
X20843794Y15602114D01*
X20840327Y15590341D01*
X20835499Y15579094D01*
X20829365Y15568487D01*
X20821980Y15558636D01*
X20816172Y15552328D01*
X20806910Y15544111D01*
X20796814Y15537106D01*
X20785998Y15531369D01*
X20774576Y15526955D01*
X20762664Y15523919D01*
X20754202Y15522654D01*
X20753055Y15522611D01*
X20750455Y15522570D01*
X20746445Y15522530D01*
X20741072Y15522491D01*
X20734381Y15522454D01*
X20726418Y15522418D01*
X20717228Y15522384D01*
X20706856Y15522351D01*
X20695348Y15522319D01*
X20682750Y15522288D01*
X20669107Y15522259D01*
X20654464Y15522231D01*
X20638868Y15522205D01*
X20622363Y15522180D01*
X20604995Y15522156D01*
X20586810Y15522134D01*
X20567853Y15522112D01*
X20548170Y15522093D01*
X20527806Y15522074D01*
X20506806Y15522057D01*
X20485217Y15522041D01*
X20463083Y15522027D01*
X20440451Y15522014D01*
X20417365Y15522002D01*
X20393871Y15521992D01*
X20370016Y15521983D01*
X20345843Y15521975D01*
X20321399Y15521968D01*
X20296729Y15521963D01*
X20271879Y15521959D01*
X20246894Y15521957D01*
X20221820Y15521956D01*
X20196702Y15521956D01*
X20171586Y15521957D01*
X20146517Y15521960D01*
X20121541Y15521964D01*
X20096703Y15521969D01*
X20072049Y15521976D01*
X20047624Y15521984D01*
X20023475Y15521993D01*
X19999645Y15522004D01*
X19976181Y15522016D01*
X19953129Y15522029D01*
X19930533Y15522043D01*
X19908440Y15522059D01*
X19886894Y15522076D01*
X19865942Y15522095D01*
X19845629Y15522114D01*
X19826000Y15522135D01*
X19807101Y15522158D01*
X19788978Y15522181D01*
X19771675Y15522206D01*
X19755239Y15522232D01*
X19739715Y15522260D01*
X19725148Y15522288D01*
X19711584Y15522318D01*
X19699068Y15522350D01*
X19687647Y15522382D01*
X19677364Y15522416D01*
X19668267Y15522451D01*
X19660400Y15522488D01*
X19653810Y15522525D01*
X19648540Y15522564D01*
X19644638Y15522605D01*
X19642148Y15522646D01*
X19641140Y15522686D01*
X19629357Y15524723D01*
X19617967Y15528148D01*
X19607080Y15532876D01*
X19596805Y15538822D01*
X19587250Y15545900D01*
X19578525Y15554027D01*
X19570739Y15563117D01*
X19564001Y15573084D01*
X19558419Y15583845D01*
X19556355Y15588816D01*
X19555483Y15591305D01*
X19554410Y15594690D01*
X19553308Y15598415D01*
X19552792Y15600262D01*
X19550748Y15607764D01*
X19550748Y15789573D01*
X19622719Y15789573D01*
X19622839Y15782570D01*
X19623147Y15776119D01*
X19623644Y15770597D01*
X19623953Y15768362D01*
X19624615Y15764199D01*
X19625320Y15759685D01*
X19625946Y15755599D01*
X19626124Y15754418D01*
X19626816Y15750986D01*
X19627990Y15746472D01*
X19629547Y15741176D01*
X19631387Y15735398D01*
X19633411Y15729438D01*
X19635519Y15723597D01*
X19637610Y15718175D01*
X19639586Y15713473D01*
X19640067Y15712410D01*
X19644052Y15704416D01*
X19648346Y15697014D01*
X19652716Y15690596D01*
X19653856Y15689112D01*
X19655763Y15686542D01*
X19657493Y15683944D01*
X19658460Y15682274D01*
X19659330Y15681082D01*
X19661145Y15678985D01*
X19663775Y15676120D01*
X19667087Y15672628D01*
X19670951Y15668646D01*
X19675235Y15664314D01*
X19679100Y15660468D01*
X19684949Y15654728D01*
X19689871Y15649985D01*
X19693969Y15646144D01*
X19697349Y15643113D01*
X19700113Y15640796D01*
X19702366Y15639100D01*
X19703655Y15638256D01*
X19709616Y15634643D01*
X19714514Y15631698D01*
X19718561Y15629301D01*
X19721970Y15627330D01*
X19724953Y15625664D01*
X19727723Y15624180D01*
X19730492Y15622759D01*
X19732851Y15621584D01*
X19741153Y15617944D01*
X19750503Y15614624D01*
X19760465Y15611741D01*
X19770602Y15609411D01*
X19780477Y15607749D01*
X19787794Y15606987D01*
X19791192Y15606694D01*
X19794495Y15606323D01*
X19797029Y15605950D01*
X19797171Y15605924D01*
X19799857Y15605624D01*
X19803697Y15605473D01*
X19808353Y15605464D01*
X19813486Y15605589D01*
X19818758Y15605842D01*
X19823832Y15606215D01*
X19827177Y15606555D01*
X19831415Y15607085D01*
X19835998Y15607713D01*
X19840165Y15608335D01*
X19841577Y15608564D01*
X19845579Y15609410D01*
X19850629Y15610751D01*
X19856403Y15612475D01*
X19862576Y15614473D01*
X19868822Y15616634D01*
X19874817Y15618848D01*
X19880235Y15621006D01*
X19884753Y15622998D01*
X19886064Y15623636D01*
X19891657Y15626555D01*
X19897108Y15629591D01*
X19902169Y15632590D01*
X19906589Y15635400D01*
X19910119Y15637869D01*
X19912319Y15639664D01*
X19914814Y15641684D01*
X19917777Y15643686D01*
X19919215Y15644516D01*
X19921281Y15645909D01*
X19924100Y15648223D01*
X19927459Y15651242D01*
X19931147Y15654751D01*
X19934951Y15658536D01*
X19938659Y15662381D01*
X19942058Y15666071D01*
X19944936Y15669391D01*
X19947080Y15672127D01*
X19948183Y15673860D01*
X19949741Y15676455D01*
X19951878Y15679413D01*
X19953877Y15681804D01*
X19956573Y15685123D01*
X19959636Y15689500D01*
X19962872Y15694599D01*
X19966089Y15700086D01*
X19969093Y15705627D01*
X19971692Y15710886D01*
X19973692Y15715529D01*
X19974320Y15717252D01*
X19975607Y15720830D01*
X19977032Y15724435D01*
X19978340Y15727433D01*
X19978678Y15728129D01*
X19979511Y15730035D01*
X19980357Y15732508D01*
X19981250Y15735689D01*
X19982223Y15739723D01*
X19983309Y15744752D01*
X19984543Y15750919D01*
X19985957Y15758366D01*
X19986608Y15761884D01*
X19987294Y15765709D01*
X19987790Y15768847D01*
X19988117Y15771651D01*
X19988293Y15774472D01*
X19988339Y15777662D01*
X19988275Y15781574D01*
X19988121Y15786560D01*
X19988079Y15787764D01*
X19987860Y15792811D01*
X19987566Y15797755D01*
X19987223Y15802245D01*
X19986860Y15805931D01*
X19986508Y15808428D01*
X19985968Y15811942D01*
X19985590Y15815597D01*
X19985458Y15818400D01*
X19985173Y15821666D01*
X19984287Y15825837D01*
X19982758Y15831114D01*
X19982505Y15831903D01*
X19981282Y15835853D01*
X19980165Y15839740D01*
X19979282Y15843103D01*
X19978778Y15845387D01*
X19977999Y15848174D01*
X19976477Y15852104D01*
X19974264Y15857049D01*
X19971913Y15861891D01*
X19969696Y15866374D01*
X19968097Y15869755D01*
X19967031Y15872260D01*
X19966412Y15874110D01*
X19966156Y15875530D01*
X19966177Y15876744D01*
X19966196Y15876902D01*
X19966363Y15877631D01*
X19966738Y15878481D01*
X19967406Y15879548D01*
X19968453Y15880927D01*
X19969964Y15882714D01*
X19972025Y15885004D01*
X19974721Y15887891D01*
X19978138Y15891471D01*
X19982361Y15895839D01*
X19987476Y15901090D01*
X19993037Y15906777D01*
X19998269Y15912102D01*
X20003240Y15917121D01*
X20007840Y15921727D01*
X20011960Y15925814D01*
X20015492Y15929274D01*
X20018327Y15932000D01*
X20020356Y15933884D01*
X20021471Y15934821D01*
X20021574Y15934884D01*
X20024104Y15935682D01*
X20027553Y15935882D01*
X20032061Y15935477D01*
X20037766Y15934463D01*
X20039168Y15934164D01*
X20043425Y15933291D01*
X20048040Y15932441D01*
X20052288Y15931743D01*
X20054097Y15931485D01*
X20057656Y15930964D01*
X20062070Y15930243D01*
X20066724Y15929424D01*
X20070225Y15928765D01*
X20075620Y15927713D01*
X20079775Y15926910D01*
X20082921Y15926316D01*
X20085290Y15925889D01*
X20087115Y15925589D01*
X20088626Y15925376D01*
X20090057Y15925208D01*
X20091229Y15925087D01*
X20093177Y15924861D01*
X20095422Y15924534D01*
X20098168Y15924067D01*
X20101623Y15923424D01*
X20105992Y15922565D01*
X20111480Y15921454D01*
X20115984Y15920529D01*
X20119618Y15919790D01*
X20122818Y15919174D01*
X20125953Y15918617D01*
X20129388Y15918057D01*
X20133492Y15917433D01*
X20138632Y15916684D01*
X20139989Y15916489D01*
X20143755Y15915892D01*
X20147864Y15915159D01*
X20150866Y15914563D01*
X20159303Y15912792D01*
X20166410Y15911357D01*
X20172313Y15910234D01*
X20177137Y15909399D01*
X20180497Y15908896D01*
X20193528Y15906819D01*
X20203376Y15904860D01*
X20206803Y15904193D01*
X20210879Y15903510D01*
X20214760Y15902951D01*
X20215003Y15902920D01*
X20218573Y15902403D01*
X20223349Y15901607D01*
X20229070Y15900579D01*
X20235479Y15899366D01*
X20242317Y15898016D01*
X20245009Y15897469D01*
X20246651Y15897134D01*
X20249236Y15896607D01*
X20252236Y15895996D01*
X20252572Y15895927D01*
X20256172Y15895261D01*
X20260419Y15894573D01*
X20264469Y15893999D01*
X20264949Y15893938D01*
X20268036Y15893494D01*
X20272157Y15892814D01*
X20276880Y15891974D01*
X20281773Y15891050D01*
X20284392Y15890531D01*
X20288723Y15889679D01*
X20292672Y15888946D01*
X20295949Y15888381D01*
X20298265Y15888035D01*
X20299202Y15887950D01*
X20300729Y15887800D01*
X20303479Y15887387D01*
X20307204Y15886754D01*
X20311658Y15885945D01*
X20316595Y15885006D01*
X20321769Y15883981D01*
X20326025Y15883104D01*
X20338557Y15880696D01*
X20349956Y15878999D01*
X20360414Y15878031D01*
X20370128Y15877806D01*
X20379291Y15878341D01*
X20388099Y15879651D01*
X20396746Y15881752D01*
X20405426Y15884658D01*
X20414333Y15888387D01*
X20418932Y15890564D01*
X20423323Y15892750D01*
X20426689Y15894545D01*
X20429375Y15896176D01*
X20431724Y15897869D01*
X20434078Y15899850D01*
X20436766Y15902333D01*
X20439882Y15905144D01*
X20443152Y15907866D01*
X20446142Y15910149D01*
X20448029Y15911419D01*
X20449681Y15912581D01*
X20451943Y15914451D01*
X20454881Y15917092D01*
X20458560Y15920566D01*
X20463048Y15924936D01*
X20468410Y15930265D01*
X20474713Y15936617D01*
X20476227Y15938151D01*
X20481971Y15943969D01*
X20486771Y15948798D01*
X20490722Y15952728D01*
X20493922Y15955848D01*
X20496467Y15958250D01*
X20498455Y15960024D01*
X20499982Y15961259D01*
X20501146Y15962046D01*
X20502042Y15962474D01*
X20502500Y15962599D01*
X20504751Y15962809D01*
X20506613Y15962644D01*
X20506722Y15962612D01*
X20507779Y15961918D01*
X20509639Y15960343D01*
X20512071Y15958094D01*
X20514846Y15955378D01*
X20515977Y15954233D01*
X20521075Y15949313D01*
X20525754Y15945391D01*
X20529302Y15942935D01*
X20532401Y15940940D01*
X20535472Y15938779D01*
X20537927Y15936867D01*
X20538248Y15936591D01*
X20542390Y15933586D01*
X20547678Y15930750D01*
X20553757Y15928239D01*
X20560273Y15926209D01*
X20563822Y15925372D01*
X20567883Y15924594D01*
X20571519Y15924080D01*
X20575237Y15923788D01*
X20579543Y15923674D01*
X20583701Y15923682D01*
X20593421Y15924098D01*
X20601962Y15925179D01*
X20609508Y15926964D01*
X20616245Y15929489D01*
X20619592Y15931164D01*
X20622947Y15933125D01*
X20626278Y15935274D01*
X20629036Y15937254D01*
X20629866Y15937925D01*
X20632639Y15940103D01*
X20635750Y15942273D01*
X20637514Y15943370D01*
X20638654Y15944196D01*
X20640484Y15945764D01*
X20643041Y15948109D01*
X20646362Y15951268D01*
X20650483Y15955277D01*
X20655442Y15960172D01*
X20661274Y15965990D01*
X20668018Y15972766D01*
X20675708Y15980537D01*
X20684384Y15989338D01*
X20688689Y15993716D01*
X20697171Y16002356D01*
X20704656Y16009999D01*
X20711207Y16016710D01*
X20716885Y16022556D01*
X20721752Y16027601D01*
X20725871Y16031913D01*
X20729304Y16035557D01*
X20732112Y16038599D01*
X20734358Y16041103D01*
X20736104Y16043137D01*
X20737412Y16044765D01*
X20738344Y16046054D01*
X20738819Y16046814D01*
X20740617Y16049701D01*
X20742550Y16052447D01*
X20744202Y16054462D01*
X20744217Y16054477D01*
X20745652Y16056318D01*
X20747425Y16059065D01*
X20749247Y16062260D01*
X20750102Y16063912D01*
X20753066Y16071266D01*
X20755201Y16079614D01*
X20756483Y16088687D01*
X20756891Y16098215D01*
X20756400Y16107926D01*
X20754989Y16117552D01*
X20754772Y16118615D01*
X20753897Y16122629D01*
X20753085Y16125774D01*
X20752172Y16128439D01*
X20750992Y16131010D01*
X20749380Y16133876D01*
X20747171Y16137424D01*
X20745938Y16139347D01*
X20742218Y16145085D01*
X20739112Y16149758D01*
X20736454Y16153581D01*
X20734078Y16156770D01*
X20731818Y16159540D01*
X20729507Y16162106D01*
X20726978Y16164685D01*
X20724584Y16166999D01*
X20722807Y16168709D01*
X20720056Y16171384D01*
X20716425Y16174930D01*
X20712007Y16179256D01*
X20706894Y16184272D01*
X20701181Y16189885D01*
X20694960Y16196005D01*
X20688324Y16202539D01*
X20681366Y16209396D01*
X20674181Y16216484D01*
X20667986Y16222600D01*
X20659089Y16231378D01*
X20651196Y16239143D01*
X20644252Y16245946D01*
X20638205Y16251839D01*
X20633000Y16256872D01*
X20628584Y16261098D01*
X20624902Y16264567D01*
X20621902Y16267330D01*
X20619529Y16269439D01*
X20617730Y16270945D01*
X20616450Y16271899D01*
X20615864Y16272252D01*
X20613200Y16273820D01*
X20610195Y16275905D01*
X20608059Y16277595D01*
X20604034Y16280555D01*
X20599044Y16283503D01*
X20593602Y16286176D01*
X20588224Y16288311D01*
X20585576Y16289132D01*
X20582455Y16289878D01*
X20578424Y16290684D01*
X20574068Y16291442D01*
X20570925Y16291913D01*
X20567259Y16292397D01*
X20564412Y16292685D01*
X20561942Y16292770D01*
X20559406Y16292644D01*
X20556361Y16292300D01*
X20552365Y16291731D01*
X20551421Y16291590D01*
X20546254Y16290796D01*
X20542239Y16290094D01*
X20539040Y16289392D01*
X20536322Y16288597D01*
X20533748Y16287614D01*
X20530981Y16286351D01*
X20528940Y16285345D01*
X20525083Y16283400D01*
X20521729Y16281648D01*
X20518738Y16279975D01*
X20515968Y16278267D01*
X20513280Y16276409D01*
X20510532Y16274287D01*
X20507583Y16271787D01*
X20504293Y16268793D01*
X20500521Y16265192D01*
X20496126Y16260869D01*
X20490967Y16255710D01*
X20484905Y16249600D01*
X20484615Y16249308D01*
X20478608Y16243244D01*
X20471815Y16236386D01*
X20464504Y16229006D01*
X20456945Y16221377D01*
X20449408Y16213769D01*
X20442162Y16206455D01*
X20435477Y16199706D01*
X20433172Y16197380D01*
X20427034Y16191175D01*
X20421858Y16185917D01*
X20417544Y16181495D01*
X20413991Y16177800D01*
X20411098Y16174720D01*
X20408764Y16172143D01*
X20406889Y16169961D01*
X20405371Y16168060D01*
X20404109Y16166332D01*
X20403003Y16164665D01*
X20402200Y16163362D01*
X20398341Y16156751D01*
X20395300Y16151054D01*
X20392969Y16146003D01*
X20391241Y16141332D01*
X20390009Y16136773D01*
X20389163Y16132061D01*
X20388974Y16130617D01*
X20388519Y16127071D01*
X20388018Y16123468D01*
X20387578Y16120569D01*
X20387565Y16120490D01*
X20387354Y16117109D01*
X20387590Y16112552D01*
X20388246Y16107067D01*
X20389291Y16100901D01*
X20390624Y16094610D01*
X20392292Y16089127D01*
X20394751Y16083229D01*
X20397738Y16077453D01*
X20400987Y16072334D01*
X20402806Y16069974D01*
X20405139Y16067023D01*
X20407489Y16063768D01*
X20409303Y16060986D01*
X20411188Y16058351D01*
X20414005Y16055091D01*
X20417495Y16051497D01*
X20419631Y16049460D01*
X20423361Y16045929D01*
X20426061Y16043156D01*
X20427856Y16040939D01*
X20428870Y16039079D01*
X20429228Y16037373D01*
X20429054Y16035622D01*
X20428806Y16034664D01*
X20428441Y16033787D01*
X20427752Y16032666D01*
X20426654Y16031209D01*
X20425062Y16029323D01*
X20422890Y16026914D01*
X20420053Y16023889D01*
X20416467Y16020155D01*
X20412044Y16015619D01*
X20406701Y16010188D01*
X20402281Y16005717D01*
X20397066Y16000477D01*
X20392067Y15995507D01*
X20387404Y15990921D01*
X20383195Y15986836D01*
X20379560Y15983364D01*
X20376617Y15980622D01*
X20374486Y15978722D01*
X20373285Y15977781D01*
X20373284Y15977780D01*
X20371244Y15976703D01*
X20369162Y15976043D01*
X20366759Y15975797D01*
X20363754Y15975961D01*
X20359868Y15976530D01*
X20354819Y15977502D01*
X20354730Y15977520D01*
X20348920Y15978681D01*
X20343699Y15979649D01*
X20338436Y15980532D01*
X20332500Y15981441D01*
X20330526Y15981731D01*
X20326920Y15982307D01*
X20322145Y15983146D01*
X20316498Y15984194D01*
X20310275Y15985394D01*
X20303773Y15986692D01*
X20300895Y15987280D01*
X20293205Y15988718D01*
X20285166Y15989967D01*
X20282142Y15990368D01*
X20280229Y15990665D01*
X20277149Y15991212D01*
X20273206Y15991952D01*
X20268700Y15992829D01*
X20263935Y15993785D01*
X20263763Y15993820D01*
X20258682Y15994832D01*
X20253555Y15995810D01*
X20248768Y15996683D01*
X20244711Y15997381D01*
X20242009Y15997799D01*
X20239029Y15998257D01*
X20234945Y15998942D01*
X20230086Y15999795D01*
X20224780Y16000755D01*
X20219358Y16001759D01*
X20214147Y16002748D01*
X20209478Y16003661D01*
X20205678Y16004437D01*
X20203376Y16004944D01*
X20200891Y16005424D01*
X20197775Y16005890D01*
X20195875Y16006117D01*
X20193602Y16006424D01*
X20190221Y16006970D01*
X20186092Y16007692D01*
X20181576Y16008529D01*
X20178615Y16009102D01*
X20174079Y16009976D01*
X20169734Y16010775D01*
X20165928Y16011438D01*
X20163011Y16011904D01*
X20161736Y16012074D01*
X20158527Y16012483D01*
X20154919Y16013018D01*
X20153116Y16013318D01*
X20151548Y16013597D01*
X20149791Y16013922D01*
X20147660Y16014327D01*
X20144972Y16014851D01*
X20141541Y16015528D01*
X20137183Y16016395D01*
X20131714Y16017488D01*
X20125344Y16018764D01*
X20122252Y16019336D01*
X20119508Y16019762D01*
X20117618Y16019963D01*
X20117381Y16019970D01*
X20115412Y16020433D01*
X20113459Y16021525D01*
X20112390Y16022446D01*
X20111697Y16023354D01*
X20111458Y16024374D01*
X20111755Y16025626D01*
X20112666Y16027235D01*
X20114270Y16029322D01*
X20116649Y16032011D01*
X20119880Y16035423D01*
X20124045Y16039683D01*
X20127509Y16043186D01*
X20129258Y16044953D01*
X20132017Y16047747D01*
X20135744Y16051524D01*
X20140397Y16056242D01*
X20145934Y16061858D01*
X20152313Y16068329D01*
X20159491Y16075612D01*
X20167426Y16083664D01*
X20176076Y16092442D01*
X20185399Y16101904D01*
X20195353Y16112007D01*
X20205895Y16122708D01*
X20216983Y16133965D01*
X20228576Y16145733D01*
X20240630Y16157971D01*
X20253104Y16170636D01*
X20265955Y16183684D01*
X20279142Y16197074D01*
X20292622Y16210762D01*
X20306352Y16224705D01*
X20320292Y16238860D01*
X20327460Y16246140D01*
X20341332Y16260226D01*
X20354944Y16274044D01*
X20368259Y16287557D01*
X20381238Y16300725D01*
X20393842Y16313510D01*
X20406034Y16325872D01*
X20417774Y16337773D01*
X20429026Y16349174D01*
X20439749Y16360037D01*
X20449907Y16370323D01*
X20459461Y16379992D01*
X20468372Y16389006D01*
X20476602Y16397327D01*
X20484113Y16404915D01*
X20490867Y16411733D01*
X20496824Y16417740D01*
X20501948Y16422898D01*
X20506199Y16427169D01*
X20509540Y16430514D01*
X20511931Y16432894D01*
X20513335Y16434270D01*
X20513709Y16434614D01*
X20516860Y16436045D01*
X20518964Y16436302D01*
X20519656Y16436271D01*
X20520363Y16436120D01*
X20521182Y16435763D01*
X20522210Y16435116D01*
X20523543Y16434091D01*
X20525278Y16432605D01*
X20527513Y16430571D01*
X20530344Y16427904D01*
X20533869Y16424517D01*
X20538183Y16420326D01*
X20543384Y16415245D01*
X20548827Y16409914D01*
X20555440Y16403454D01*
X20561092Y16397978D01*
X20565875Y16393400D01*
X20569884Y16389636D01*
X20573210Y16386601D01*
X20575946Y16384209D01*
X20578184Y16382376D01*
X20580018Y16381016D01*
X20581231Y16380229D01*
X20583956Y16378532D01*
X20586336Y16376956D01*
X20587950Y16375779D01*
X20588202Y16375565D01*
X20590271Y16374091D01*
X20593391Y16372360D01*
X20597174Y16370550D01*
X20601234Y16368834D01*
X20605184Y16367388D01*
X20608280Y16366474D01*
X20612968Y16365572D01*
X20618728Y16364898D01*
X20624584Y16364522D01*
X20629191Y16364379D01*
X20632795Y16364401D01*
X20635886Y16364624D01*
X20638955Y16365081D01*
X20642078Y16365713D01*
X20645698Y16366604D01*
X20649192Y16367641D01*
X20652013Y16368654D01*
X20652955Y16369076D01*
X20655708Y16370342D01*
X20658517Y16371464D01*
X20659466Y16371791D01*
X20662281Y16372916D01*
X20665087Y16374576D01*
X20668257Y16377013D01*
X20670395Y16378863D01*
X20673089Y16381005D01*
X20676149Y16383075D01*
X20677694Y16383971D01*
X20680163Y16385493D01*
X20681915Y16387243D01*
X20683481Y16389775D01*
X20683779Y16390347D01*
X20685445Y16393276D01*
X20687568Y16396582D01*
X20689410Y16399170D01*
X20691496Y16402245D01*
X20693487Y16405890D01*
X20695418Y16410221D01*
X20697326Y16415350D01*
X20699246Y16421392D01*
X20701216Y16428462D01*
X20703270Y16436673D01*
X20705447Y16446141D01*
X20707781Y16456978D01*
X20707852Y16457318D01*
X20709167Y16463576D01*
X20710232Y16468583D01*
X20711095Y16472555D01*
X20711808Y16475710D01*
X20712419Y16478266D01*
X20712980Y16480441D01*
X20713539Y16482452D01*
X20713897Y16483680D01*
X20714841Y16487167D01*
X20715796Y16491165D01*
X20716430Y16494182D01*
X20717044Y16497155D01*
X20717912Y16501050D01*
X20718914Y16505339D01*
X20719821Y16509066D01*
X20720839Y16513223D01*
X20721838Y16517425D01*
X20722698Y16521155D01*
X20723254Y16523694D01*
X20724077Y16527372D01*
X20725069Y16531449D01*
X20725788Y16534196D01*
X20726501Y16536941D01*
X20727422Y16540688D01*
X20728439Y16544973D01*
X20729442Y16549332D01*
X20729581Y16549949D01*
X20730570Y16554280D01*
X20731587Y16558604D01*
X20732522Y16562459D01*
X20733264Y16565380D01*
X20733350Y16565703D01*
X20734232Y16569187D01*
X20735085Y16572890D01*
X20735615Y16575454D01*
X20736280Y16578661D01*
X20737136Y16582397D01*
X20737832Y16585206D01*
X20738520Y16587950D01*
X20739424Y16591694D01*
X20740433Y16595976D01*
X20741439Y16600333D01*
X20741581Y16600959D01*
X20742573Y16605242D01*
X20743588Y16609473D01*
X20744515Y16613207D01*
X20745247Y16615997D01*
X20745342Y16616337D01*
X20746235Y16619833D01*
X20747111Y16623794D01*
X20747619Y16626464D01*
X20748170Y16629376D01*
X20748965Y16633203D01*
X20749890Y16637406D01*
X20750656Y16640717D01*
X20752572Y16649810D01*
X20753731Y16657846D01*
X20754153Y16665052D01*
X20753861Y16671651D01*
X20753688Y16673155D01*
X20752878Y16679043D01*
X20752093Y16683759D01*
X20751268Y16687629D01*
X20750338Y16690977D01*
X20749722Y16692812D01*
X20748988Y16695352D01*
X20748640Y16697552D01*
X20748684Y16698550D01*
X20748645Y16699104D01*
X20748241Y16699925D01*
X20747386Y16701108D01*
X20745992Y16702747D01*
X20743973Y16704936D01*
X20741239Y16707769D01*
X20737705Y16711340D01*
X20733283Y16715744D01*
X20727885Y16721074D01*
X20726630Y16722309D01*
X20721022Y16727814D01*
X20716375Y16732344D01*
X20712591Y16735985D01*
X20709573Y16738826D01*
X20707222Y16740954D01*
X20705442Y16742457D01*
X20704134Y16743422D01*
X20703201Y16743936D01*
X20702544Y16744089D01*
X20702356Y16744071D01*
X20700692Y16744183D01*
X20698310Y16744837D01*
X20696512Y16745547D01*
X20692455Y16747005D01*
X20687326Y16748283D01*
X20681548Y16749301D01*
X20675546Y16749977D01*
X20671772Y16750196D01*
X20667640Y16750249D01*
X20663867Y16750074D01*
X20659970Y16749617D01*
X20655464Y16748827D01*
X20651589Y16748026D01*
X20648401Y16747354D01*
X20644522Y16746553D01*
X20640734Y16745785D01*
X20640337Y16745705D01*
X20637251Y16745037D01*
X20634606Y16744371D01*
X20632848Y16743823D01*
X20632538Y16743687D01*
X20631269Y16743263D01*
X20628868Y16742660D01*
X20625677Y16741957D01*
X20622041Y16741236D01*
X20622036Y16741235D01*
X20617670Y16740350D01*
X20613044Y16739307D01*
X20608796Y16738255D01*
X20606317Y16737572D01*
X20602664Y16736569D01*
X20598894Y16735652D01*
X20595692Y16734986D01*
X20595047Y16734876D01*
X20591947Y16734298D01*
X20588195Y16733483D01*
X20584579Y16732602D01*
X20584433Y16732563D01*
X20581047Y16731700D01*
X20576852Y16730670D01*
X20572504Y16729633D01*
X20570198Y16729097D01*
X20566767Y16728279D01*
X20563806Y16727516D01*
X20561665Y16726903D01*
X20560760Y16726572D01*
X20559611Y16726208D01*
X20557295Y16725652D01*
X20554126Y16724974D01*
X20550414Y16724244D01*
X20549508Y16724074D01*
X20545548Y16723296D01*
X20541897Y16722499D01*
X20538925Y16721770D01*
X20537003Y16721194D01*
X20536817Y16721122D01*
X20535017Y16720544D01*
X20532159Y16719811D01*
X20528662Y16719024D01*
X20525564Y16718401D01*
X20521294Y16717534D01*
X20516768Y16716521D01*
X20512647Y16715514D01*
X20510562Y16714952D01*
X20506796Y16713960D01*
X20502339Y16712900D01*
X20497978Y16711959D01*
X20496684Y16711704D01*
X20491652Y16710671D01*
X20485767Y16709352D01*
X20479539Y16707870D01*
X20473479Y16706349D01*
X20468095Y16704911D01*
X20465553Y16704184D01*
X20462057Y16703255D01*
X20458095Y16702353D01*
X20455426Y16701835D01*
X20452579Y16701267D01*
X20448799Y16700410D01*
X20444596Y16699382D01*
X20440798Y16698390D01*
X20437156Y16697431D01*
X20433956Y16696638D01*
X20431519Y16696088D01*
X20430168Y16695856D01*
X20430094Y16695853D01*
X20428379Y16695577D01*
X20425597Y16694823D01*
X20422061Y16693701D01*
X20418083Y16692322D01*
X20413978Y16690797D01*
X20410057Y16689235D01*
X20406635Y16687748D01*
X20405166Y16687046D01*
X20402432Y16685613D01*
X20400055Y16684167D01*
X20397746Y16682485D01*
X20395217Y16680342D01*
X20392181Y16677513D01*
X20389161Y16674574D01*
X20385996Y16671425D01*
X20383109Y16668486D01*
X20380714Y16665981D01*
X20379025Y16664134D01*
X20378366Y16663333D01*
X20377312Y16661527D01*
X20375908Y16658644D01*
X20374297Y16655023D01*
X20372620Y16651004D01*
X20371021Y16646927D01*
X20369641Y16643132D01*
X20368735Y16640345D01*
X20367968Y16637334D01*
X20367442Y16634437D01*
X20367283Y16632613D01*
X20367157Y16630335D01*
X20366828Y16627307D01*
X20366452Y16624720D01*
X20366099Y16622127D01*
X20366019Y16619818D01*
X20366241Y16617298D01*
X20366795Y16614071D01*
X20367207Y16612030D01*
X20368428Y16606783D01*
X20369964Y16601160D01*
X20371657Y16595675D01*
X20373353Y16590847D01*
X20374300Y16588496D01*
X20375325Y16586652D01*
X20377020Y16584136D01*
X20379070Y16581410D01*
X20379707Y16580620D01*
X20381859Y16577863D01*
X20383815Y16575129D01*
X20385227Y16572907D01*
X20385473Y16572454D01*
X20386588Y16570789D01*
X20388533Y16568399D01*
X20391045Y16565590D01*
X20393863Y16562665D01*
X20394209Y16562322D01*
X20396419Y16560135D01*
X20399523Y16557066D01*
X20403347Y16553285D01*
X20407717Y16548966D01*
X20412460Y16544278D01*
X20417401Y16539395D01*
X20422219Y16534634D01*
X20426847Y16530036D01*
X20431141Y16525723D01*
X20434981Y16521817D01*
X20438249Y16518442D01*
X20440827Y16515720D01*
X20442595Y16513775D01*
X20443434Y16512728D01*
X20443482Y16512631D01*
X20443624Y16512255D01*
X20443771Y16511914D01*
X20443895Y16511578D01*
X20443963Y16511215D01*
X20443946Y16510793D01*
X20443815Y16510281D01*
X20443537Y16509647D01*
X20443084Y16508859D01*
X20442425Y16507886D01*
X20441529Y16506696D01*
X20440367Y16505257D01*
X20438908Y16503539D01*
X20437122Y16501508D01*
X20434978Y16499135D01*
X20432446Y16496386D01*
X20429497Y16493230D01*
X20426099Y16489637D01*
X20422222Y16485573D01*
X20417837Y16481008D01*
X20412913Y16475910D01*
X20407419Y16470247D01*
X20401325Y16463987D01*
X20394602Y16457100D01*
X20387218Y16449553D01*
X20379144Y16441315D01*
X20370349Y16432353D01*
X20360803Y16422637D01*
X20350476Y16412135D01*
X20339337Y16400816D01*
X20327356Y16388647D01*
X20314503Y16375596D01*
X20300747Y16361633D01*
X20286059Y16346726D01*
X20270408Y16330843D01*
X20253763Y16313952D01*
X20236968Y16296908D01*
X20217362Y16277012D01*
X20198782Y16258156D01*
X20181199Y16240314D01*
X20164587Y16223457D01*
X20148917Y16207556D01*
X20134161Y16192585D01*
X20120293Y16178516D01*
X20107284Y16165319D01*
X20095107Y16152968D01*
X20083734Y16141435D01*
X20073138Y16130691D01*
X20063291Y16120709D01*
X20054166Y16111461D01*
X20045734Y16102918D01*
X20037969Y16095054D01*
X20030842Y16087839D01*
X20024326Y16081247D01*
X20018393Y16075249D01*
X20013016Y16069816D01*
X20008167Y16064923D01*
X20003819Y16060539D01*
X19999943Y16056638D01*
X19996513Y16053192D01*
X19993500Y16050172D01*
X19990877Y16047551D01*
X19988617Y16045301D01*
X19986691Y16043394D01*
X19985072Y16041801D01*
X19983733Y16040496D01*
X19982646Y16039450D01*
X19981783Y16038634D01*
X19981117Y16038023D01*
X19980620Y16037586D01*
X19980264Y16037297D01*
X19980022Y16037127D01*
X19979959Y16037091D01*
X19978530Y16036771D01*
X19976910Y16037529D01*
X19976598Y16037755D01*
X19975515Y16038698D01*
X19974711Y16039846D01*
X19974092Y16041488D01*
X19973564Y16043908D01*
X19973035Y16047394D01*
X19972744Y16049601D01*
X19972259Y16053181D01*
X19971741Y16056699D01*
X19971283Y16059529D01*
X19971180Y16060103D01*
X19970808Y16062253D01*
X19970283Y16065482D01*
X19969670Y16069384D01*
X19969034Y16073553D01*
X19968913Y16074356D01*
X19968281Y16078529D01*
X19967663Y16082514D01*
X19967122Y16085905D01*
X19966724Y16088295D01*
X19966668Y16088609D01*
X19966298Y16090786D01*
X19965772Y16094027D01*
X19965158Y16097915D01*
X19964523Y16102029D01*
X19964453Y16102486D01*
X19963864Y16106350D01*
X19963360Y16109632D01*
X19962890Y16112657D01*
X19962401Y16115750D01*
X19961843Y16119233D01*
X19961164Y16123433D01*
X19960314Y16128672D01*
X19959957Y16130863D01*
X19959366Y16134760D01*
X19958884Y16138435D01*
X19958563Y16141462D01*
X19958453Y16143348D01*
X19958307Y16145761D01*
X19957926Y16148940D01*
X19957409Y16152103D01*
X19956867Y16155175D01*
X19956218Y16159159D01*
X19955555Y16163480D01*
X19955099Y16166624D01*
X19954481Y16170891D01*
X19953809Y16175328D01*
X19953175Y16179327D01*
X19952790Y16181627D01*
X19952076Y16185840D01*
X19951329Y16190415D01*
X19950610Y16194973D01*
X19949978Y16199135D01*
X19949490Y16202521D01*
X19949234Y16204506D01*
X19949004Y16206187D01*
X19948570Y16209077D01*
X19947973Y16212906D01*
X19947258Y16217404D01*
X19946469Y16222299D01*
X19945648Y16227323D01*
X19944839Y16232205D01*
X19944085Y16236674D01*
X19943813Y16238263D01*
X19943185Y16241993D01*
X19942564Y16245892D01*
X19941895Y16250312D01*
X19941125Y16255602D01*
X19940444Y16260392D01*
X19940073Y16262914D01*
X19939535Y16266447D01*
X19938901Y16270521D01*
X19938248Y16274645D01*
X19937521Y16279218D01*
X19936750Y16284128D01*
X19936034Y16288735D01*
X19935549Y16291899D01*
X19934906Y16296061D01*
X19934193Y16300581D01*
X19933533Y16304667D01*
X19933349Y16305776D01*
X19932818Y16309122D01*
X19932179Y16313384D01*
X19931516Y16317988D01*
X19930969Y16321952D01*
X19930436Y16326094D01*
X19930135Y16329059D01*
X19930058Y16331154D01*
X19930200Y16332685D01*
X19930552Y16333956D01*
X19930697Y16334330D01*
X19931421Y16335370D01*
X19933063Y16337322D01*
X19935478Y16340036D01*
X19938523Y16343361D01*
X19942055Y16347149D01*
X19945929Y16351250D01*
X19950001Y16355514D01*
X19954128Y16359793D01*
X19958167Y16363936D01*
X19961972Y16367793D01*
X19965402Y16371216D01*
X19968311Y16374055D01*
X19970557Y16376161D01*
X19971994Y16377383D01*
X19972266Y16377566D01*
X19973984Y16378401D01*
X19975786Y16378871D01*
X19977890Y16378948D01*
X19980519Y16378604D01*
X19983889Y16377809D01*
X19988223Y16376536D01*
X19993710Y16374764D01*
X19998327Y16373271D01*
X20002750Y16371905D01*
X20006668Y16370756D01*
X20009775Y16369914D01*
X20011713Y16369479D01*
X20020292Y16368096D01*
X20027676Y16367055D01*
X20034132Y16366343D01*
X20039923Y16365949D01*
X20045315Y16365862D01*
X20050571Y16366071D01*
X20055956Y16366563D01*
X20061711Y16367325D01*
X20069305Y16368495D01*
X20075739Y16369611D01*
X20081344Y16370767D01*
X20086453Y16372052D01*
X20091398Y16373558D01*
X20096512Y16375377D01*
X20102128Y16377600D01*
X20107746Y16379961D01*
X20111535Y16381781D01*
X20116072Y16384275D01*
X20121039Y16387236D01*
X20126118Y16390461D01*
X20130992Y16393743D01*
X20135343Y16396878D01*
X20138854Y16399661D01*
X20140364Y16401017D01*
X20143133Y16403582D01*
X20145991Y16406059D01*
X20148456Y16408037D01*
X20149184Y16408568D01*
X20151701Y16410714D01*
X20154140Y16413410D01*
X20155185Y16414855D01*
X20156663Y16416893D01*
X20158892Y16419640D01*
X20161571Y16422738D01*
X20164398Y16425829D01*
X20164417Y16425848D01*
X20166884Y16428499D01*
X20168839Y16430752D01*
X20170481Y16432905D01*
X20172005Y16435260D01*
X20173608Y16438116D01*
X20175487Y16441775D01*
X20177448Y16445739D01*
X20182057Y16455787D01*
X20185953Y16465816D01*
X20188016Y16471934D01*
X20189635Y16477106D01*
X20190920Y16481595D01*
X20191936Y16485746D01*
X20192745Y16489902D01*
X20193413Y16494405D01*
X20194003Y16499601D01*
X20194578Y16505831D01*
X20194788Y16508316D01*
X20195171Y16513077D01*
X20195414Y16516682D01*
X20195519Y16519467D01*
X20195486Y16521769D01*
X20195316Y16523927D01*
X20195010Y16526277D01*
X20194834Y16527445D01*
X20194396Y16531074D01*
X20194097Y16535013D01*
X20194014Y16537596D01*
X20193818Y16541014D01*
X20193330Y16544582D01*
X20192892Y16546598D01*
X20192213Y16549167D01*
X20191318Y16552621D01*
X20190355Y16556390D01*
X20189897Y16558201D01*
X20186845Y16569022D01*
X20183389Y16578696D01*
X20179399Y16587552D01*
X20175099Y16595333D01*
X20171645Y16601009D01*
X20168827Y16605524D01*
X20166545Y16609021D01*
X20164698Y16611646D01*
X20163185Y16613544D01*
X20161906Y16614861D01*
X20161093Y16615516D01*
X20159623Y16616883D01*
X20157724Y16619084D01*
X20155766Y16621683D01*
X20155449Y16622140D01*
X20151895Y16626541D01*
X20148115Y16629755D01*
X20148048Y16629799D01*
X20146002Y16631319D01*
X20143244Y16633609D01*
X20140119Y16636372D01*
X20136970Y16639313D01*
X20136613Y16639658D01*
X20129420Y16645851D01*
X20121001Y16651750D01*
X20111622Y16657210D01*
X20101550Y16662092D01*
X20091051Y16666252D01*
X20080727Y16669459D01*
X20074574Y16670864D01*
X20067523Y16672070D01*
X20059891Y16673055D01*
X20051992Y16673796D01*
X20044144Y16674273D01*
X20036661Y16674462D01*
X20029859Y16674342D01*
X20024054Y16673890D01*
X20021840Y16673571D01*
X20018222Y16672962D01*
X20014108Y16672291D01*
X20010963Y16671793D01*
X20003480Y16670417D01*
X19996372Y16668634D01*
X19989280Y16666320D01*
X19981846Y16663356D01*
X19973713Y16659620D01*
X19970830Y16658205D01*
X19965713Y16655648D01*
X19961720Y16653612D01*
X19958627Y16651960D01*
X19956209Y16650556D01*
X19954242Y16649265D01*
X19952502Y16647948D01*
X19950764Y16646470D01*
X19949205Y16645062D01*
X19946657Y16642888D01*
X19944074Y16640938D01*
X19941992Y16639615D01*
X19941886Y16639560D01*
X19938856Y16637595D01*
X19935399Y16634693D01*
X19931864Y16631202D01*
X19928594Y16627471D01*
X19925936Y16623850D01*
X19925269Y16622768D01*
X19923100Y16619442D01*
X19920420Y16615886D01*
X19917895Y16612962D01*
X19914925Y16609397D01*
X19911647Y16604699D01*
X19908220Y16599160D01*
X19904801Y16593073D01*
X19901549Y16586731D01*
X19898623Y16580425D01*
X19896182Y16574449D01*
X19894723Y16570228D01*
X19891751Y16559829D01*
X19889589Y16550206D01*
X19888165Y16540918D01*
X19887410Y16531524D01*
X19887241Y16523319D01*
X19887293Y16518720D01*
X19887412Y16514360D01*
X19887585Y16510579D01*
X19887797Y16507719D01*
X19887961Y16506441D01*
X19888403Y16503794D01*
X19888921Y16500371D01*
X19889407Y16496888D01*
X19889433Y16496689D01*
X19890058Y16492886D01*
X19890924Y16488787D01*
X19891798Y16485437D01*
X19892789Y16481926D01*
X19893756Y16478153D01*
X19894366Y16475509D01*
X19895163Y16472647D01*
X19896426Y16469082D01*
X19897926Y16465442D01*
X19898469Y16464257D01*
X19900599Y16458939D01*
X19901545Y16454459D01*
X19901316Y16450749D01*
X19900608Y16448842D01*
X19899902Y16447953D01*
X19898256Y16446128D01*
X19895788Y16443492D01*
X19892620Y16440170D01*
X19888870Y16436287D01*
X19884657Y16431968D01*
X19880103Y16427339D01*
X19878951Y16426175D01*
X19874302Y16421447D01*
X19869946Y16416958D01*
X19866009Y16412838D01*
X19862612Y16409220D01*
X19859881Y16406236D01*
X19857938Y16404019D01*
X19856908Y16402700D01*
X19856817Y16402545D01*
X19855749Y16400662D01*
X19854135Y16398054D01*
X19852286Y16395225D01*
X19851911Y16394669D01*
X19849357Y16390800D01*
X19846829Y16386775D01*
X19844511Y16382903D01*
X19842584Y16379493D01*
X19841232Y16376855D01*
X19840827Y16375915D01*
X19839495Y16372175D01*
X19838025Y16367629D01*
X19836531Y16362676D01*
X19835130Y16357716D01*
X19833935Y16353151D01*
X19833061Y16349379D01*
X19832759Y16347785D01*
X19832305Y16344104D01*
X19831983Y16339593D01*
X19831796Y16334645D01*
X19831750Y16329652D01*
X19831848Y16325009D01*
X19832094Y16321106D01*
X19832451Y16318529D01*
X19832827Y16316313D01*
X19833262Y16313115D01*
X19833687Y16309446D01*
X19833906Y16307282D01*
X19834301Y16303515D01*
X19834749Y16299861D01*
X19835181Y16296859D01*
X19835392Y16295655D01*
X19835779Y16293502D01*
X19836313Y16290270D01*
X19836930Y16286365D01*
X19837563Y16282195D01*
X19837681Y16281397D01*
X19838314Y16277132D01*
X19838940Y16272967D01*
X19839491Y16269341D01*
X19839902Y16266692D01*
X19839950Y16266394D01*
X19840836Y16260836D01*
X19841523Y16256479D01*
X19842054Y16253044D01*
X19842472Y16250252D01*
X19842821Y16247823D01*
X19842951Y16246890D01*
X19843319Y16244370D01*
X19843860Y16240839D01*
X19844503Y16236766D01*
X19845172Y16232637D01*
X19845849Y16228441D01*
X19846501Y16224272D01*
X19847054Y16220616D01*
X19847425Y16218009D01*
X19847827Y16215245D01*
X19848412Y16211533D01*
X19849094Y16207403D01*
X19849656Y16204131D01*
X19850359Y16199994D01*
X19851035Y16195796D01*
X19851595Y16192088D01*
X19851899Y16189879D01*
X19852367Y16186473D01*
X19852980Y16182421D01*
X19853612Y16178553D01*
X19853664Y16178251D01*
X19854329Y16174270D01*
X19855031Y16169875D01*
X19855620Y16165994D01*
X19855638Y16165874D01*
X19856170Y16162334D01*
X19856742Y16158736D01*
X19857231Y16155836D01*
X19857247Y16155747D01*
X19857861Y16152136D01*
X19858596Y16147534D01*
X19859378Y16142436D01*
X19860130Y16137340D01*
X19860777Y16132741D01*
X19860961Y16131367D01*
X19861360Y16128504D01*
X19861736Y16126072D01*
X19862005Y16124616D01*
X19862262Y16123270D01*
X19862677Y16120828D01*
X19863186Y16117677D01*
X19863566Y16115239D01*
X19864232Y16110901D01*
X19864971Y16106109D01*
X19865655Y16101675D01*
X19865878Y16100236D01*
X19866469Y16096357D01*
X19867071Y16092316D01*
X19867576Y16088827D01*
X19867695Y16087987D01*
X19868183Y16084684D01*
X19868813Y16080698D01*
X19869457Y16076824D01*
X19869537Y16076360D01*
X19870452Y16071059D01*
X19871150Y16066919D01*
X19871679Y16063626D01*
X19872085Y16060865D01*
X19872415Y16058320D01*
X19872718Y16055678D01*
X19872925Y16053727D01*
X19873492Y16048603D01*
X19874110Y16043715D01*
X19874849Y16038566D01*
X19875779Y16032658D01*
X19876260Y16029722D01*
X19876883Y16025893D01*
X19877506Y16021946D01*
X19878023Y16018570D01*
X19878148Y16017720D01*
X19878724Y16013868D01*
X19879516Y16008737D01*
X19880493Y16002525D01*
X19881624Y15995431D01*
X19882876Y15987656D01*
X19884219Y15979398D01*
X19884883Y15975336D01*
X19885791Y15969707D01*
X19886444Y15965361D01*
X19886847Y15962104D01*
X19887009Y15959741D01*
X19886938Y15958078D01*
X19886639Y15956921D01*
X19886122Y15956077D01*
X19885632Y15955565D01*
X19884275Y15954540D01*
X19882819Y15954107D01*
X19880960Y15954300D01*
X19878392Y15955149D01*
X19874813Y15956687D01*
X19874811Y15956688D01*
X19866563Y15960070D01*
X19857644Y15963122D01*
X19848723Y15965632D01*
X19842180Y15967078D01*
X19838526Y15967787D01*
X19835349Y15968431D01*
X19832974Y15968943D01*
X19831723Y15969255D01*
X19831678Y15969271D01*
X19830511Y15969497D01*
X19828196Y15969798D01*
X19825082Y15970133D01*
X19821926Y15970424D01*
X19817781Y15970807D01*
X19813528Y15971244D01*
X19809770Y15971672D01*
X19807857Y15971917D01*
X19802629Y15972294D01*
X19798480Y15971881D01*
X19796213Y15971533D01*
X19792881Y15971158D01*
X19788919Y15970798D01*
X19784759Y15970497D01*
X19784419Y15970476D01*
X19780331Y15970180D01*
X19776472Y15969813D01*
X19773250Y15969421D01*
X19771074Y15969047D01*
X19770916Y15969009D01*
X19768838Y15968484D01*
X19765738Y15967701D01*
X19762052Y15966771D01*
X19758538Y15965884D01*
X19754093Y15964660D01*
X19749273Y15963169D01*
X19744765Y15961630D01*
X19742207Y15960660D01*
X19739068Y15959434D01*
X19736383Y15958457D01*
X19734494Y15957849D01*
X19733820Y15957708D01*
X19732557Y15957343D01*
X19730219Y15956323D01*
X19727017Y15954760D01*
X19723167Y15952768D01*
X19718880Y15950460D01*
X19714371Y15947947D01*
X19709851Y15945343D01*
X19705536Y15942760D01*
X19705408Y15942682D01*
X19702571Y15940931D01*
X19700153Y15939383D01*
X19697986Y15937892D01*
X19695900Y15936314D01*
X19693729Y15934503D01*
X19691303Y15932315D01*
X19688455Y15929605D01*
X19685015Y15926227D01*
X19680816Y15922036D01*
X19677039Y15918244D01*
X19672690Y15913850D01*
X19668619Y15909691D01*
X19664964Y15905910D01*
X19661862Y15902652D01*
X19659453Y15900064D01*
X19657874Y15898288D01*
X19657342Y15897615D01*
X19652348Y15890056D01*
X19648219Y15883625D01*
X19644914Y15878252D01*
X19642392Y15873871D01*
X19640612Y15870411D01*
X19639624Y15868065D01*
X19638576Y15865343D01*
X19637204Y15862059D01*
X19636040Y15859438D01*
X19632218Y15849930D01*
X19628896Y15839138D01*
X19626115Y15827208D01*
X19624097Y15815555D01*
X19623476Y15810117D01*
X19623039Y15803723D01*
X19622786Y15796749D01*
X19622719Y15789573D01*
X19550748Y15789573D01*
X19550748Y16170750D01*
X19550748Y16733736D01*
X19552792Y16741237D01*
X19556758Y16753353D01*
X19561799Y16764469D01*
X19567974Y16774693D01*
X19575346Y16784131D01*
X19580078Y16789172D01*
X19589340Y16797389D01*
X19599436Y16804394D01*
X19610252Y16810131D01*
X19621674Y16814545D01*
X19633586Y16817581D01*
X19642048Y16818846D01*
X19643256Y16818895D01*
X19645918Y16818943D01*
X19649990Y16818989D01*
X19655424Y16819033D01*
X19662177Y16819076D01*
X19670201Y16819118D01*
X19679453Y16819158D01*
X19689885Y16819196D01*
X19701452Y16819233D01*
X19714109Y16819269D01*
X19727811Y16819303D01*
X19742510Y16819335D01*
X19758163Y16819366D01*
X19774722Y16819396D01*
X19792143Y16819424D01*
X19810380Y16819450D01*
X19829388Y16819475D01*
X19849120Y16819498D01*
X19869531Y16819520D01*
X19890576Y16819540D01*
X19912208Y16819559D01*
X19934383Y16819576D01*
X19957054Y16819592D01*
X19980176Y16819606D01*
X20003704Y16819619D01*
X20027591Y16819629D01*
X20051792Y16819639D01*
X20076262Y16819647D01*
X20100954Y16819654D01*
X20125824Y16819659D01*
X20150825Y16819663D01*
X20175913Y16819665D01*
X20201040Y16819665D01*
X20226163Y16819664D01*
G37*
G36*
X20576745Y18783250D02*
G01*
X20601975Y18783246D01*
X20627112Y18783241D01*
X20652110Y18783232D01*
X20676924Y18783222D01*
X20701507Y18783209D01*
X20725815Y18783194D01*
X20749801Y18783177D01*
X20773420Y18783157D01*
X20796627Y18783135D01*
X20819375Y18783111D01*
X20841620Y18783084D01*
X20863315Y18783055D01*
X20884415Y18783024D01*
X20904874Y18782990D01*
X20924646Y18782954D01*
X20943687Y18782916D01*
X20961950Y18782876D01*
X20979389Y18782833D01*
X20995960Y18782788D01*
X21011616Y18782741D01*
X21026312Y18782691D01*
X21040002Y18782639D01*
X21052641Y18782585D01*
X21064182Y18782528D01*
X21074581Y18782469D01*
X21083792Y18782408D01*
X21091768Y18782344D01*
X21098465Y18782279D01*
X21103837Y18782210D01*
X21107838Y18782140D01*
X21110422Y18782067D01*
X21111506Y18781999D01*
X21123926Y18779403D01*
X21135724Y18775453D01*
X21146848Y18770174D01*
X21157245Y18763594D01*
X21166862Y18755738D01*
X21170009Y18752716D01*
X21178302Y18743382D01*
X21185328Y18733250D01*
X21191062Y18722373D01*
X21195477Y18710803D01*
X21198546Y18698593D01*
X21199292Y18694213D01*
X21199367Y18692963D01*
X21199439Y18690255D01*
X21199509Y18686134D01*
X21199577Y18680646D01*
X21199643Y18673836D01*
X21199706Y18665752D01*
X21199767Y18656436D01*
X21199826Y18645937D01*
X21199882Y18634298D01*
X21199936Y18621566D01*
X21199988Y18607787D01*
X21200038Y18593006D01*
X21200085Y18577268D01*
X21200130Y18560619D01*
X21200172Y18543105D01*
X21200213Y18524771D01*
X21200250Y18505664D01*
X21200286Y18485828D01*
X21200319Y18465309D01*
X21200351Y18444153D01*
X21200379Y18422406D01*
X21200406Y18400113D01*
X21200430Y18377319D01*
X21200452Y18354071D01*
X21200471Y18330414D01*
X21200488Y18306393D01*
X21200503Y18282054D01*
X21200516Y18257443D01*
X21200526Y18232606D01*
X21200534Y18207587D01*
X21200540Y18182434D01*
X21200543Y18157190D01*
X21200544Y18131902D01*
X21200543Y18106616D01*
X21200540Y18081377D01*
X21200534Y18056230D01*
X21200526Y18031222D01*
X21200515Y18006397D01*
X21200502Y17981802D01*
X21200487Y17957483D01*
X21200470Y17933484D01*
X21200450Y17909851D01*
X21200428Y17886630D01*
X21200404Y17863867D01*
X21200377Y17841607D01*
X21200349Y17819896D01*
X21200317Y17798780D01*
X21200284Y17778303D01*
X21200248Y17758512D01*
X21200210Y17739452D01*
X21200170Y17721170D01*
X21200127Y17703709D01*
X21200082Y17687117D01*
X21200035Y17671439D01*
X21199985Y17656719D01*
X21199933Y17643005D01*
X21199879Y17630342D01*
X21199822Y17618774D01*
X21199763Y17608349D01*
X21199702Y17599111D01*
X21199639Y17591105D01*
X21199573Y17584379D01*
X21199505Y17578976D01*
X21199435Y17574944D01*
X21199362Y17572327D01*
X21199292Y17571200D01*
X21196704Y17558848D01*
X21192766Y17547085D01*
X21187525Y17535995D01*
X21181030Y17525658D01*
X21173331Y17516156D01*
X21164476Y17507572D01*
X21158413Y17502736D01*
X21150056Y17497064D01*
X21141746Y17492523D01*
X21132958Y17488852D01*
X21125599Y17486473D01*
X21124752Y17486214D01*
X21124010Y17485967D01*
X21123343Y17485729D01*
X21122718Y17485503D01*
X21122103Y17485286D01*
X21121466Y17485079D01*
X21120774Y17484883D01*
X21119995Y17484695D01*
X21119096Y17484517D01*
X21118047Y17484348D01*
X21116813Y17484188D01*
X21115363Y17484036D01*
X21113666Y17483893D01*
X21111687Y17483758D01*
X21109396Y17483631D01*
X21106760Y17483512D01*
X21103746Y17483399D01*
X21100323Y17483295D01*
X21096458Y17483197D01*
X21092119Y17483106D01*
X21087273Y17483021D01*
X21081889Y17482943D01*
X21075934Y17482871D01*
X21069376Y17482805D01*
X21062182Y17482744D01*
X21054321Y17482689D01*
X21045760Y17482639D01*
X21036466Y17482594D01*
X21026408Y17482554D01*
X21015553Y17482518D01*
X21003869Y17482486D01*
X20991324Y17482459D01*
X20977886Y17482435D01*
X20963521Y17482415D01*
X20948199Y17482398D01*
X20931886Y17482384D01*
X20914551Y17482374D01*
X20896161Y17482365D01*
X20876683Y17482360D01*
X20856087Y17482356D01*
X20834338Y17482355D01*
X20811406Y17482355D01*
X20787258Y17482357D01*
X20761861Y17482360D01*
X20735183Y17482364D01*
X20707193Y17482369D01*
X20677857Y17482374D01*
X20647144Y17482380D01*
X20615021Y17482386D01*
X20581456Y17482392D01*
X20549441Y17482398D01*
X20513505Y17482404D01*
X20479045Y17482411D01*
X20446034Y17482418D01*
X20414444Y17482426D01*
X20384247Y17482436D01*
X20355417Y17482446D01*
X20327924Y17482457D01*
X20301742Y17482469D01*
X20276843Y17482482D01*
X20253200Y17482496D01*
X20230784Y17482512D01*
X20209569Y17482528D01*
X20189526Y17482546D01*
X20170629Y17482565D01*
X20152848Y17482586D01*
X20136158Y17482608D01*
X20120530Y17482631D01*
X20105937Y17482656D01*
X20092351Y17482683D01*
X20079744Y17482711D01*
X20068089Y17482741D01*
X20057358Y17482772D01*
X20047525Y17482806D01*
X20038560Y17482841D01*
X20030437Y17482878D01*
X20023127Y17482917D01*
X20016605Y17482958D01*
X20010840Y17483001D01*
X20005807Y17483046D01*
X20001478Y17483093D01*
X19997824Y17483143D01*
X19994819Y17483194D01*
X19992434Y17483248D01*
X19990643Y17483304D01*
X19989417Y17483363D01*
X19988729Y17483424D01*
X19988705Y17483428D01*
X19976412Y17486092D01*
X19964684Y17490111D01*
X19953615Y17495429D01*
X19943297Y17501991D01*
X19933822Y17509742D01*
X19925283Y17518625D01*
X19920781Y17524293D01*
X19914066Y17534489D01*
X19908738Y17545083D01*
X19904725Y17556247D01*
X19901955Y17568159D01*
X19901460Y17571200D01*
X19901385Y17572450D01*
X19901312Y17575159D01*
X19901242Y17579280D01*
X19901174Y17584768D01*
X19901109Y17591577D01*
X19901045Y17599662D01*
X19900984Y17608977D01*
X19900926Y17619477D01*
X19900869Y17631115D01*
X19900815Y17643847D01*
X19900763Y17657626D01*
X19900714Y17672408D01*
X19900667Y17688146D01*
X19900622Y17704795D01*
X19900579Y17722309D01*
X19900539Y17740642D01*
X19900501Y17759750D01*
X19900465Y17779586D01*
X19900432Y17800104D01*
X19900401Y17821260D01*
X19900372Y17843007D01*
X19900347Y17865301D01*
X19900323Y17888094D01*
X19900301Y17911342D01*
X19900281Y17935000D01*
X19900264Y17959021D01*
X19900249Y17983359D01*
X19900237Y18007970D01*
X19900226Y18032807D01*
X19900218Y18057826D01*
X19900213Y18082980D01*
X19900209Y18108223D01*
X19900208Y18133511D01*
X19900209Y18158798D01*
X19900213Y18184037D01*
X19900219Y18209184D01*
X19900227Y18234192D01*
X19900237Y18259016D01*
X19900250Y18283611D01*
X19900265Y18307931D01*
X19900283Y18331930D01*
X19900302Y18355563D01*
X19900324Y18378783D01*
X19900348Y18401546D01*
X19900355Y18407834D01*
X19962769Y18407834D01*
X19963361Y18407334D01*
X19965081Y18406009D01*
X19967844Y18403922D01*
X19971565Y18401136D01*
X19976159Y18397714D01*
X19981540Y18393720D01*
X19987625Y18389216D01*
X19994326Y18384266D01*
X20001560Y18378933D01*
X20009242Y18373281D01*
X20017285Y18367371D01*
X20017987Y18366856D01*
X20026059Y18360927D01*
X20033776Y18355249D01*
X20041055Y18349885D01*
X20047809Y18344899D01*
X20053953Y18340354D01*
X20059403Y18336313D01*
X20064073Y18332839D01*
X20067877Y18329995D01*
X20070731Y18327845D01*
X20072550Y18326452D01*
X20073247Y18325879D01*
X20073252Y18325870D01*
X20072857Y18325105D01*
X20071761Y18323415D01*
X20070152Y18321086D01*
X20069005Y18319479D01*
X20067511Y18317350D01*
X20066282Y18315398D01*
X20065204Y18313358D01*
X20064162Y18310963D01*
X20063041Y18307949D01*
X20061726Y18304048D01*
X20060104Y18298997D01*
X20059946Y18298501D01*
X20051813Y18270517D01*
X20045180Y18242577D01*
X20040045Y18214662D01*
X20036407Y18186756D01*
X20034262Y18158840D01*
X20033610Y18130897D01*
X20034448Y18102909D01*
X20035378Y18089472D01*
X20038433Y18061250D01*
X20042940Y18033390D01*
X20048881Y18005932D01*
X20056241Y17978915D01*
X20065001Y17952379D01*
X20075144Y17926364D01*
X20086655Y17900909D01*
X20099514Y17876055D01*
X20113706Y17851842D01*
X20129214Y17828308D01*
X20146020Y17805495D01*
X20164107Y17783441D01*
X20169041Y17777809D01*
X20187802Y17757801D01*
X20207709Y17738707D01*
X20228661Y17720604D01*
X20250553Y17703569D01*
X20273283Y17687680D01*
X20296749Y17673013D01*
X20320847Y17659645D01*
X20338339Y17650958D01*
X20363679Y17639761D01*
X20389533Y17629871D01*
X20415789Y17621319D01*
X20442338Y17614132D01*
X20469068Y17608341D01*
X20495870Y17603972D01*
X20522632Y17601056D01*
X20532330Y17600362D01*
X20536918Y17600078D01*
X20541308Y17599804D01*
X20545142Y17599562D01*
X20548059Y17599375D01*
X20549248Y17599296D01*
X20552276Y17599175D01*
X20556557Y17599120D01*
X20561842Y17599126D01*
X20567881Y17599186D01*
X20574426Y17599296D01*
X20581228Y17599448D01*
X20588037Y17599639D01*
X20594604Y17599860D01*
X20600681Y17600108D01*
X20606017Y17600376D01*
X20610365Y17600658D01*
X20611377Y17600739D01*
X20639970Y17603904D01*
X20668123Y17608498D01*
X20695801Y17614505D01*
X20722968Y17621907D01*
X20749591Y17630687D01*
X20775632Y17640827D01*
X20801057Y17652310D01*
X20825832Y17665119D01*
X20849920Y17679236D01*
X20873287Y17694644D01*
X20895897Y17711326D01*
X20917716Y17729264D01*
X20938708Y17748441D01*
X20958838Y17768840D01*
X20964345Y17774801D01*
X20982450Y17795794D01*
X20999371Y17817679D01*
X21015088Y17840392D01*
X21029579Y17863874D01*
X21042822Y17888060D01*
X21054798Y17912889D01*
X21065484Y17938300D01*
X21074860Y17964229D01*
X21082905Y17990615D01*
X21089597Y18017395D01*
X21094916Y18044508D01*
X21098840Y18071891D01*
X21101349Y18099482D01*
X21102420Y18127220D01*
X21102034Y18155041D01*
X21100713Y18176693D01*
X21097653Y18204971D01*
X21093139Y18232888D01*
X21087182Y18260408D01*
X21079797Y18287494D01*
X21070995Y18314110D01*
X21060790Y18340221D01*
X21049194Y18365791D01*
X21036220Y18390784D01*
X21021881Y18415163D01*
X21008391Y18435723D01*
X21002993Y18443450D01*
X20998228Y18450012D01*
X20993974Y18455547D01*
X20990107Y18460191D01*
X20986506Y18464080D01*
X20983047Y18467349D01*
X20979607Y18470135D01*
X20976064Y18472575D01*
X20974072Y18473792D01*
X20964965Y18478405D01*
X20955761Y18481560D01*
X20946287Y18483300D01*
X20936369Y18483669D01*
X20934974Y18483615D01*
X20928561Y18483130D01*
X20923061Y18482242D01*
X20917903Y18480807D01*
X20912517Y18478680D01*
X20909033Y18477058D01*
X20900329Y18472167D01*
X20892834Y18466475D01*
X20886403Y18459841D01*
X20880894Y18452123D01*
X20877446Y18445874D01*
X20874217Y18438677D01*
X20872000Y18431951D01*
X20870673Y18425182D01*
X20870112Y18417854D01*
X20870074Y18415046D01*
X20870501Y18406733D01*
X20871843Y18398923D01*
X20874190Y18391367D01*
X20877633Y18383817D01*
X20882263Y18376023D01*
X20886470Y18370001D01*
X20900561Y18349717D01*
X20913237Y18328984D01*
X20924512Y18307763D01*
X20934402Y18286015D01*
X20942922Y18263700D01*
X20950085Y18240781D01*
X20955908Y18217217D01*
X20960405Y18192969D01*
X20963591Y18167999D01*
X20963698Y18166918D01*
X20964080Y18161808D01*
X20964368Y18155489D01*
X20964561Y18148251D01*
X20964662Y18140387D01*
X20964673Y18132188D01*
X20964595Y18123945D01*
X20964430Y18115949D01*
X20964179Y18108492D01*
X20963843Y18101865D01*
X20963426Y18096359D01*
X20963300Y18095112D01*
X20959978Y18070390D01*
X20955410Y18046473D01*
X20949568Y18023287D01*
X20942426Y18000758D01*
X20933957Y17978811D01*
X20924135Y17957374D01*
X20912933Y17936371D01*
X20900325Y17915729D01*
X20897137Y17910896D01*
X20883893Y17892410D01*
X20869353Y17874575D01*
X20853618Y17857481D01*
X20836786Y17841215D01*
X20818956Y17825866D01*
X20800227Y17811522D01*
X20780700Y17798272D01*
X20760472Y17786204D01*
X20752261Y17781756D01*
X20730682Y17771240D01*
X20708559Y17762101D01*
X20685967Y17754345D01*
X20662980Y17747979D01*
X20639672Y17743008D01*
X20616117Y17739439D01*
X20592389Y17737276D01*
X20568562Y17736527D01*
X20544710Y17737198D01*
X20520907Y17739294D01*
X20497228Y17742821D01*
X20473745Y17747785D01*
X20450533Y17754193D01*
X20442791Y17756677D01*
X20419657Y17765131D01*
X20397341Y17774846D01*
X20375842Y17785824D01*
X20355159Y17798064D01*
X20335293Y17811567D01*
X20316242Y17826333D01*
X20298005Y17842363D01*
X20280582Y17859658D01*
X20263973Y17878218D01*
X20255681Y17888339D01*
X20251794Y17893406D01*
X20247382Y17899462D01*
X20242660Y17906185D01*
X20237844Y17913256D01*
X20233150Y17920353D01*
X20228794Y17927156D01*
X20224992Y17933346D01*
X20222736Y17937212D01*
X20211636Y17958296D01*
X20201781Y17980124D01*
X20193217Y18002553D01*
X20185995Y18025440D01*
X20180162Y18048642D01*
X20175766Y18072013D01*
X20174493Y18080825D01*
X20173603Y18087877D01*
X20172896Y18094333D01*
X20172353Y18100515D01*
X20171956Y18106743D01*
X20171686Y18113340D01*
X20171525Y18120626D01*
X20171454Y18128924D01*
X20171447Y18133835D01*
X20171497Y18143456D01*
X20171659Y18151921D01*
X20171958Y18159577D01*
X20172419Y18166770D01*
X20173067Y18173845D01*
X20173929Y18181148D01*
X20175030Y18189026D01*
X20175963Y18195115D01*
X20176841Y18200369D01*
X20177868Y18205992D01*
X20179001Y18211797D01*
X20180198Y18217599D01*
X20181417Y18223210D01*
X20182614Y18228444D01*
X20183747Y18233115D01*
X20184774Y18237036D01*
X20185652Y18240021D01*
X20186338Y18241884D01*
X20186761Y18242445D01*
X20187419Y18242003D01*
X20189199Y18240732D01*
X20192015Y18238695D01*
X20195779Y18235955D01*
X20200404Y18232578D01*
X20205803Y18228626D01*
X20211888Y18224164D01*
X20218574Y18219254D01*
X20225771Y18213962D01*
X20233394Y18208351D01*
X20240592Y18203046D01*
X20248516Y18197206D01*
X20256087Y18191630D01*
X20263218Y18186382D01*
X20269823Y18181524D01*
X20275815Y18177122D01*
X20281109Y18173237D01*
X20285617Y18169934D01*
X20289253Y18167275D01*
X20291930Y18165325D01*
X20293564Y18164147D01*
X20294069Y18163798D01*
X20294075Y18164552D01*
X20294066Y18166728D01*
X20294045Y18170246D01*
X20294012Y18175022D01*
X20293968Y18180978D01*
X20293913Y18188030D01*
X20293848Y18196098D01*
X20293773Y18205100D01*
X20293691Y18214956D01*
X20293600Y18225583D01*
X20293503Y18236900D01*
X20293399Y18248827D01*
X20293290Y18261281D01*
X20293176Y18274181D01*
X20293058Y18287446D01*
X20292937Y18300995D01*
X20292814Y18314746D01*
X20292688Y18328619D01*
X20292562Y18342530D01*
X20292435Y18356400D01*
X20292324Y18368428D01*
X20492479Y18368428D01*
X20492479Y18136842D01*
X20494114Y18130451D01*
X20497518Y18120030D01*
X20502150Y18110407D01*
X20507928Y18101662D01*
X20514771Y18093870D01*
X20522598Y18087109D01*
X20531326Y18081455D01*
X20540874Y18076987D01*
X20551161Y18073780D01*
X20555068Y18072942D01*
X20560058Y18072318D01*
X20565969Y18072086D01*
X20572271Y18072228D01*
X20578437Y18072726D01*
X20583940Y18073564D01*
X20585715Y18073959D01*
X20595692Y18077123D01*
X20604861Y18081495D01*
X20613368Y18087159D01*
X20621358Y18094196D01*
X20621476Y18094314D01*
X20628368Y18102070D01*
X20633934Y18110295D01*
X20638306Y18119221D01*
X20641615Y18129080D01*
X20641976Y18130451D01*
X20643612Y18136842D01*
X20643612Y18368428D01*
X20643612Y18600014D01*
X20641976Y18606405D01*
X20638796Y18616403D01*
X20634571Y18625438D01*
X20629168Y18633742D01*
X20622458Y18641546D01*
X20621476Y18642542D01*
X20613625Y18649506D01*
X20605294Y18655116D01*
X20596269Y18659492D01*
X20586338Y18662756D01*
X20585339Y18663013D01*
X20579796Y18664024D01*
X20573334Y18664590D01*
X20566472Y18664711D01*
X20559729Y18664387D01*
X20553622Y18663618D01*
X20550752Y18663013D01*
X20540723Y18659848D01*
X20531621Y18655583D01*
X20523233Y18650096D01*
X20515346Y18643265D01*
X20514615Y18642542D01*
X20507723Y18634786D01*
X20502157Y18626561D01*
X20497785Y18617635D01*
X20494476Y18607776D01*
X20494114Y18606405D01*
X20492479Y18600014D01*
X20492479Y18368428D01*
X20292324Y18368428D01*
X20292308Y18370147D01*
X20292183Y18383690D01*
X20292060Y18396947D01*
X20291939Y18409837D01*
X20291822Y18422278D01*
X20291709Y18434189D01*
X20291601Y18445490D01*
X20291498Y18456098D01*
X20291402Y18465932D01*
X20291312Y18474911D01*
X20291231Y18482954D01*
X20291158Y18489979D01*
X20291095Y18495904D01*
X20291041Y18500649D01*
X20290998Y18504133D01*
X20290967Y18506273D01*
X20290949Y18506989D01*
X20290220Y18506805D01*
X20288131Y18506207D01*
X20284759Y18505221D01*
X20280181Y18503868D01*
X20274476Y18502172D01*
X20267722Y18500157D01*
X20259996Y18497847D01*
X20251376Y18495265D01*
X20241940Y18492434D01*
X20231767Y18489378D01*
X20220933Y18486121D01*
X20209518Y18482686D01*
X20197598Y18479097D01*
X20185252Y18475377D01*
X20172557Y18471549D01*
X20159592Y18467638D01*
X20146434Y18463666D01*
X20133161Y18459658D01*
X20119852Y18455637D01*
X20106583Y18451626D01*
X20093434Y18447649D01*
X20080481Y18443729D01*
X20067803Y18439891D01*
X20055477Y18436157D01*
X20043582Y18432551D01*
X20032195Y18429096D01*
X20021395Y18425817D01*
X20011258Y18422736D01*
X20001864Y18419878D01*
X19993290Y18417265D01*
X19985613Y18414922D01*
X19978912Y18412871D01*
X19973265Y18411137D01*
X19968749Y18409742D01*
X19965443Y18408711D01*
X19963424Y18408067D01*
X19962769Y18407834D01*
X19900355Y18407834D01*
X19900374Y18423806D01*
X19900403Y18445517D01*
X19900434Y18466634D01*
X19900468Y18487111D01*
X19900503Y18506901D01*
X19900541Y18525961D01*
X19900582Y18544244D01*
X19900625Y18561704D01*
X19900670Y18578296D01*
X19900717Y18593975D01*
X19900738Y18600014D01*
X19900767Y18608694D01*
X19900818Y18622408D01*
X19900873Y18635072D01*
X19900929Y18646639D01*
X19900988Y18657065D01*
X19901049Y18666303D01*
X19901113Y18674308D01*
X19901178Y18681035D01*
X19901246Y18686437D01*
X19901317Y18690469D01*
X19901390Y18693086D01*
X19901460Y18694213D01*
X19904055Y18706633D01*
X19908006Y18718431D01*
X19913284Y18729555D01*
X19919865Y18739952D01*
X19927721Y18749569D01*
X19930742Y18752716D01*
X19940076Y18761009D01*
X19950208Y18768035D01*
X19961085Y18773769D01*
X19972655Y18778184D01*
X19984865Y18781253D01*
X19989245Y18781999D01*
X19990496Y18782074D01*
X19993204Y18782146D01*
X19997325Y18782216D01*
X20002813Y18782284D01*
X20009622Y18782350D01*
X20017707Y18782413D01*
X20027022Y18782474D01*
X20037522Y18782533D01*
X20049160Y18782589D01*
X20061891Y18782644D01*
X20075670Y18782695D01*
X20090450Y18782745D01*
X20106187Y18782792D01*
X20122835Y18782837D01*
X20140347Y18782879D01*
X20158679Y18782920D01*
X20177785Y18782958D01*
X20197618Y18782993D01*
X20218135Y18783027D01*
X20239288Y18783058D01*
X20261032Y18783086D01*
X20283322Y18783113D01*
X20306111Y18783137D01*
X20329355Y18783159D01*
X20353008Y18783178D01*
X20377024Y18783195D01*
X20401357Y18783210D01*
X20425962Y18783223D01*
X20450793Y18783233D01*
X20475805Y18783241D01*
X20500952Y18783247D01*
X20526188Y18783250D01*
X20551468Y18783251D01*
X20576745Y18783250D01*
G37*
%TD*%
G36*
X19250147Y18900990D02*
G01*
X19345963Y18881932D01*
X19346145Y18881856D01*
X19427414Y18827554D01*
X19427554Y18827414D01*
X19481856Y18746145D01*
X19481932Y18745963D01*
X19500990Y18650147D01*
X19501000Y18650049D01*
X19501000Y17250100D01*
X19519972Y17154719D01*
X19573943Y17073944D01*
X19654718Y17019973D01*
X19750099Y17001000D01*
X20750049Y17001000D01*
X20750147Y17000990D01*
X20845963Y16981932D01*
X20846145Y16981856D01*
X20927414Y16927554D01*
X20927554Y16927414D01*
X20981856Y16846145D01*
X20981932Y16845963D01*
X21000990Y16750147D01*
X21001000Y16750049D01*
X21001000Y15599951D01*
X21000990Y15599853D01*
X20981932Y15504037D01*
X20981856Y15503855D01*
X20927554Y15422586D01*
X20927414Y15422446D01*
X20846145Y15368144D01*
X20845963Y15368068D01*
X20750147Y15349010D01*
X20750049Y15349000D01*
X13749951Y15349000D01*
X13749853Y15349010D01*
X13654037Y15368068D01*
X13653855Y15368144D01*
X13572586Y15422446D01*
X13572446Y15422586D01*
X13518144Y15503855D01*
X13518068Y15504037D01*
X13508727Y15551000D01*
X19601000Y15551000D01*
X20789000Y15551000D01*
X20789000Y16749000D01*
X19601000Y16749000D01*
X19601000Y15551000D01*
X13508727Y15551000D01*
X13499010Y15599853D01*
X13499000Y15599951D01*
X13499000Y15741000D01*
X13581000Y15741000D01*
X14949000Y15741000D01*
X14949000Y15751000D01*
X18051000Y15751000D01*
X19419000Y15751000D01*
X19419000Y16509000D01*
X18051000Y16509000D01*
X18051000Y15751000D01*
X14949000Y15751000D01*
X14949000Y16499000D01*
X13581000Y16499000D01*
X13581000Y15741000D01*
X13499000Y15741000D01*
X13499000Y17901000D01*
X13571000Y17901000D01*
X14939000Y17901000D01*
X18081000Y17901000D01*
X19449000Y17901000D01*
X19449000Y18659000D01*
X18081000Y18659000D01*
X18081000Y17901000D01*
X14939000Y17901000D01*
X14939000Y18659000D01*
X13571000Y18659000D01*
X13571000Y17901000D01*
X13499000Y17901000D01*
X13499000Y18650049D01*
X13499010Y18650147D01*
X13518068Y18745963D01*
X13518144Y18746145D01*
X13572446Y18827414D01*
X13572586Y18827554D01*
X13653855Y18881856D01*
X13654037Y18881932D01*
X13749853Y18900990D01*
X13749951Y18901000D01*
X19250049Y18901000D01*
X19250147Y18900990D01*
G37*
G36*
X27100147Y18900990D02*
G01*
X27195963Y18881932D01*
X27196145Y18881856D01*
X27277414Y18827554D01*
X27277554Y18827414D01*
X27331856Y18746145D01*
X27331932Y18745963D01*
X27350990Y18650147D01*
X27351000Y18650049D01*
X27351000Y15599951D01*
X27350990Y15599853D01*
X27331932Y15504037D01*
X27331856Y15503855D01*
X27277554Y15422586D01*
X27277414Y15422446D01*
X27196145Y15368144D01*
X27195963Y15368068D01*
X27100147Y15349010D01*
X27100049Y15349000D01*
X21599951Y15349000D01*
X21599853Y15349010D01*
X21504037Y15368068D01*
X21503855Y15368144D01*
X21422586Y15422446D01*
X21422446Y15422586D01*
X21368144Y15503855D01*
X21368068Y15504037D01*
X21349010Y15599853D01*
X21349000Y15599951D01*
X21349000Y15751000D01*
X21411000Y15751000D01*
X22779000Y15751000D01*
X25901000Y15751000D01*
X27269000Y15751000D01*
X27269000Y16509000D01*
X25901000Y16509000D01*
X25901000Y15751000D01*
X22779000Y15751000D01*
X22779000Y16509000D01*
X21411000Y16509000D01*
X21411000Y15751000D01*
X21349000Y15751000D01*
X21349000Y17099901D01*
X21330027Y17195282D01*
X21276056Y17276057D01*
X21195281Y17330028D01*
X21099901Y17349000D01*
X20089951Y17349000D01*
X20089853Y17349010D01*
X19994037Y17368068D01*
X19993855Y17368144D01*
X19912586Y17422446D01*
X19912446Y17422586D01*
X19858144Y17503855D01*
X19858068Y17504037D01*
X19846738Y17561000D01*
X19931000Y17561000D01*
X21099000Y17561000D01*
X21099000Y17901000D01*
X21401000Y17901000D01*
X22769000Y17901000D01*
X25901000Y17901000D01*
X27269000Y17901000D01*
X27269000Y18659000D01*
X25901000Y18659000D01*
X25901000Y17901000D01*
X22769000Y17901000D01*
X22769000Y18659000D01*
X21401000Y18659000D01*
X21401000Y17901000D01*
X21099000Y17901000D01*
X21099000Y18679000D01*
X19931000Y18679000D01*
X19931000Y17561000D01*
X19846738Y17561000D01*
X19839010Y17599853D01*
X19839000Y17599951D01*
X19839000Y18650049D01*
X19839010Y18650147D01*
X19858068Y18745963D01*
X19858144Y18746145D01*
X19912446Y18827414D01*
X19912586Y18827554D01*
X19993855Y18881856D01*
X19994037Y18881932D01*
X20089853Y18900990D01*
X20089951Y18901000D01*
X27100049Y18901000D01*
X27100147Y18900990D01*
G37*
%LPC*%
D17*
X30875000Y18000000D02*
G75*
G02*
X29125000Y18000000I-875000J0D01*
G01*
X29125000Y18000000D02*
G75*
G02*
X30875000Y18000000I875000J0D01*
G01*
D18*
X31500000Y4750000D02*
G75*
G02*
X29999999Y3250000I-1500000J0D01*
G01*
X30000000Y16750000D02*
G75*
G02*
X31500000Y15250000I0J-1500000D01*
G01*
X500000Y15250000D02*
G75*
G02*
X2000001Y16750000I1500000J0D01*
G01*
X3250000Y18000000D02*
G75*
G02*
X4750000Y19500000I1500000J0D01*
G01*
D17*
X2875000Y2000000D02*
G75*
G02*
X1125000Y2000000I-875000J0D01*
G01*
X1125000Y2000000D02*
G75*
G02*
X2875000Y2000000I875000J0D01*
G01*
X30875000Y2000000D02*
G75*
G02*
X29125000Y2000000I-875000J0D01*
G01*
X29125000Y2000000D02*
G75*
G02*
X30875000Y2000000I875000J0D01*
G01*
D18*
X28750000Y2000000D02*
G75*
G02*
X27250000Y500000I-1500000J0D01*
G01*
X27250000Y19500000D02*
G75*
G02*
X28750000Y17999999I0J-1500000D01*
G01*
X2000000Y3250000D02*
G75*
G02*
X500000Y4750000I0J1500000D01*
G01*
X4750000Y500000D02*
G75*
G02*
X3250000Y2000001I0J1500000D01*
G01*
D17*
X2875000Y18000000D02*
G75*
G02*
X1125000Y18000000I-875000J0D01*
G01*
X1125000Y18000000D02*
G75*
G02*
X2875000Y18000000I875000J0D01*
G01*
D19*
%TO.C,C1*%
X20620000Y2620000D03*
X20620000Y3580000D03*
%TD*%
D20*
%TO.C,C15*%
X11225000Y18300000D03*
X12775000Y18300000D03*
%TD*%
D21*
%TO.C,R20*%
X9040000Y5350000D03*
X10060000Y5350000D03*
%TD*%
D22*
%TO.C,R15*%
X14860000Y3490000D03*
X14860000Y4510000D03*
%TD*%
%TO.C,R16*%
X21000000Y6140000D03*
X21000000Y7160000D03*
%TD*%
D23*
%TO.C,R17*%
X19860000Y5400000D03*
X18840000Y5400000D03*
%TD*%
D21*
%TO.C,R2*%
X21540000Y3550000D03*
X22560000Y3550000D03*
%TD*%
D24*
%TO.C,C3*%
X16980000Y14600000D03*
X16020000Y14600000D03*
%TD*%
D22*
%TO.C,R11*%
X8120000Y9430000D03*
X8120000Y10450000D03*
%TD*%
D25*
%TO.C,R10*%
X9060000Y10450000D03*
X9060000Y9430000D03*
%TD*%
D22*
%TO.C,R13*%
X21950000Y6140000D03*
X21950000Y7160000D03*
%TD*%
D26*
%TO.C,U2*%
X13400000Y6562500D03*
X13800000Y6562500D03*
X14200000Y6562500D03*
X14600000Y6562500D03*
X15000000Y6562500D03*
X15400000Y6562500D03*
X15800000Y6562500D03*
X16200000Y6562500D03*
X16600000Y6562500D03*
X17000000Y6562500D03*
X17400000Y6562500D03*
X17800000Y6562500D03*
X18200000Y6562500D03*
X18600000Y6562500D03*
D27*
X19437500Y7400000D03*
X19437500Y7800000D03*
X19437500Y8200000D03*
X19437500Y8600000D03*
X19437500Y9000000D03*
X19437500Y9400000D03*
X19437500Y9800000D03*
X19437500Y10200000D03*
X19437500Y10600000D03*
X19437500Y11000000D03*
X19437500Y11400000D03*
X19437500Y11800000D03*
X19437500Y12200000D03*
X19437500Y12600000D03*
D26*
X18600000Y13437500D03*
X18200000Y13437500D03*
X17800000Y13437500D03*
X17400000Y13437500D03*
X17000000Y13437500D03*
X16600000Y13437500D03*
X16200000Y13437500D03*
X15800000Y13437500D03*
X15400000Y13437500D03*
X15000000Y13437500D03*
X14600000Y13437500D03*
X14200000Y13437500D03*
X13800000Y13437500D03*
X13400000Y13437500D03*
D27*
X12562500Y12600000D03*
X12562500Y12200000D03*
X12562500Y11800000D03*
X12562500Y11400000D03*
X12562500Y11000000D03*
X12562500Y10600000D03*
X12562500Y10200000D03*
X12562500Y9800000D03*
X12562500Y9400000D03*
X12562500Y9000000D03*
X12562500Y8600000D03*
X12562500Y8200000D03*
X12562500Y7800000D03*
X12562500Y7400000D03*
D28*
X16000000Y10000000D03*
%TD*%
D29*
%TO.C,D2*%
X4712500Y17900000D03*
X6287500Y17900000D03*
%TD*%
D30*
%TO.C,J2*%
X27813246Y6500127D03*
X27811722Y7498095D03*
X27811722Y8498095D03*
X27811722Y9498095D03*
X27813246Y10500127D03*
X27811722Y11498095D03*
X27811722Y12498095D03*
X27813246Y13499873D03*
D31*
X31319139Y14800102D03*
X31319139Y5199898D03*
%TD*%
D29*
%TO.C,D5*%
X4712500Y16350000D03*
X6287500Y16350000D03*
%TD*%
D32*
%TO.C,U1*%
X9750000Y18087500D03*
X8800000Y18087500D03*
X7850000Y18087500D03*
X7850000Y15812500D03*
X9750000Y15812500D03*
%TD*%
D23*
%TO.C,R4*%
X11510000Y1800000D03*
X10490000Y1800000D03*
%TD*%
D21*
%TO.C,R19*%
X19590000Y14600000D03*
X20610000Y14600000D03*
%TD*%
D33*
%TO.C,U4*%
X10907493Y6329936D03*
X10907493Y6830064D03*
X10907493Y7329936D03*
X10907493Y7830064D03*
X7892507Y7830064D03*
X7892507Y7329936D03*
X7892507Y6830064D03*
X7892507Y6329936D03*
D34*
X9400000Y7080000D03*
%TD*%
D23*
%TO.C,R24*%
X10990000Y11320000D03*
X9970000Y11320000D03*
%TD*%
D19*
%TO.C,C16*%
X25940000Y5200000D03*
X25940000Y6160000D03*
%TD*%
D21*
%TO.C,R1*%
X21540000Y2600000D03*
X22560000Y2600000D03*
%TD*%
D35*
%TO.C,J10*%
X5004928Y12889891D03*
X5004928Y7109855D03*
D36*
X6112516Y13200024D03*
D37*
X6112516Y12399924D03*
D38*
X6075032Y11749936D03*
X6075032Y11249809D03*
X6075032Y10749936D03*
X6075032Y10250064D03*
X6075032Y9749936D03*
X6075032Y9250064D03*
X6075032Y8749936D03*
X6075032Y8249809D03*
D37*
X6112516Y7599822D03*
X6112516Y6799975D03*
D39*
X5525121Y14324994D03*
D40*
X1324968Y14324994D03*
D39*
X5525121Y5675006D03*
D40*
X1324968Y5675006D03*
%TD*%
D23*
%TO.C,R25*%
X10990000Y12260000D03*
X9970000Y12260000D03*
%TD*%
D41*
%TO.C,U5*%
X18749987Y16124943D03*
X14250013Y16124943D03*
X18749987Y18275057D03*
X14250013Y18275057D03*
%TD*%
D25*
%TO.C,R6*%
X9450000Y14210000D03*
X9450000Y13190000D03*
%TD*%
D22*
%TO.C,R14*%
X16100000Y3490000D03*
X16100000Y4510000D03*
%TD*%
D42*
%TO.C,C8*%
X13570000Y5020000D03*
X13570000Y4060000D03*
%TD*%
D24*
%TO.C,C7*%
X11030000Y9470000D03*
X10070000Y9470000D03*
%TD*%
D43*
%TO.C,Y1*%
X25010013Y8949924D03*
X25010013Y11150076D03*
X23309987Y11150076D03*
X23309987Y8949924D03*
%TD*%
D24*
%TO.C,C6*%
X8180000Y5350000D03*
X7220000Y5350000D03*
%TD*%
D44*
%TO.C,C19*%
X20970000Y8445800D03*
X21930000Y8445800D03*
%TD*%
D21*
%TO.C,R12*%
X20920000Y9380000D03*
X21940000Y9380000D03*
%TD*%
D24*
%TO.C,C20*%
X22930000Y12650000D03*
X21970000Y12650000D03*
%TD*%
D44*
%TO.C,C4*%
X13420000Y14600000D03*
X14380000Y14600000D03*
%TD*%
D21*
%TO.C,R7*%
X10940000Y5350000D03*
X11960000Y5350000D03*
%TD*%
D29*
%TO.C,D6*%
X4662500Y2100000D03*
X6237500Y2100000D03*
%TD*%
D23*
%TO.C,R5*%
X11510000Y3800000D03*
X10490000Y3800000D03*
%TD*%
D24*
%TO.C,C9*%
X11380000Y13190000D03*
X10420000Y13190000D03*
%TD*%
D41*
%TO.C,U8*%
X26599987Y16124943D03*
X22100013Y16124943D03*
X26599987Y18275057D03*
X22100013Y18275057D03*
%TD*%
D44*
%TO.C,C18*%
X20970000Y11225800D03*
X21930000Y11225800D03*
%TD*%
D45*
%TO.C,D1*%
X27137500Y2200000D03*
X25562500Y2200000D03*
%TD*%
D24*
%TO.C,C11*%
X11380000Y14110000D03*
X10420000Y14110000D03*
%TD*%
D20*
%TO.C,C14*%
X11225000Y16050000D03*
X12775000Y16050000D03*
%TD*%
D29*
%TO.C,D7*%
X4662500Y3750000D03*
X6237500Y3750000D03*
%TD*%
D45*
%TO.C,D4*%
X27137500Y3750000D03*
X25562500Y3750000D03*
%TD*%
D44*
%TO.C,C10*%
X16970000Y5390000D03*
X17930000Y5390000D03*
%TD*%
D46*
%TO.C,U3*%
X19485001Y4590602D03*
X18850000Y4590602D03*
X18189599Y4590602D03*
X18189599Y2609398D03*
X19510401Y2609398D03*
%TD*%
D23*
%TO.C,R3*%
X11510000Y2800000D03*
X10490000Y2800000D03*
%TD*%
D46*
%TO.C,U6*%
X24385001Y7190602D03*
X23750000Y7190602D03*
X23089599Y7190602D03*
X23089599Y5209398D03*
X24410401Y5209398D03*
%TD*%
D22*
%TO.C,R9*%
X17050000Y3490000D03*
X17050000Y4510000D03*
%TD*%
D23*
%TO.C,R18*%
X25560000Y12650000D03*
X24540000Y12650000D03*
%TD*%
D44*
%TO.C,C2*%
X20970000Y10305800D03*
X21930000Y10305800D03*
%TD*%
D24*
%TO.C,C17*%
X11030000Y10390000D03*
X10070000Y10390000D03*
%TD*%
G36*
X943039Y1230315D02*
G01*
X988794Y1177511D01*
X1000000Y1126000D01*
X1000000Y1000000D01*
X1652374Y1000000D01*
X1688139Y992897D01*
X1688641Y994549D01*
X1694471Y992780D01*
X1896828Y952529D01*
X1896831Y952528D01*
X2103169Y952528D01*
X2103171Y952529D01*
X2305528Y992780D01*
X2311359Y994549D01*
X2311860Y992897D01*
X2347626Y1000000D01*
X29652374Y1000000D01*
X29688139Y992897D01*
X29688641Y994549D01*
X29694471Y992780D01*
X29896828Y952529D01*
X29896831Y952528D01*
X30103169Y952528D01*
X30103171Y952529D01*
X30305528Y992780D01*
X30311359Y994549D01*
X30311860Y992897D01*
X30347626Y1000000D01*
X31000000Y1000000D01*
X31000000Y1126000D01*
X31019685Y1193039D01*
X31072489Y1238794D01*
X31124000Y1250000D01*
X31660429Y1250000D01*
X31727468Y1230315D01*
X31773223Y1177511D01*
X31783167Y1108353D01*
X31773224Y1074489D01*
X31761285Y1048346D01*
X31752805Y1032817D01*
X31607922Y807376D01*
X31597320Y793213D01*
X31421827Y590683D01*
X31409317Y578173D01*
X31206787Y402680D01*
X31192624Y392078D01*
X30967183Y247195D01*
X30951654Y238716D01*
X30707887Y127392D01*
X30691311Y121209D01*
X30434185Y45710D01*
X30416897Y41949D01*
X30150536Y3652D01*
X30135101Y2410D01*
X30001122Y20D01*
X29998910Y0D01*
X2001090Y0D01*
X1998878Y20D01*
X1864898Y2410D01*
X1849463Y3652D01*
X1583102Y41949D01*
X1565814Y45710D01*
X1308688Y121209D01*
X1292112Y127392D01*
X1048345Y238716D01*
X1032816Y247195D01*
X807375Y392078D01*
X793212Y402680D01*
X590682Y578173D01*
X578172Y590683D01*
X402679Y793213D01*
X392077Y807376D01*
X247194Y1032817D01*
X238713Y1048349D01*
X226775Y1074492D01*
X216834Y1143651D01*
X245861Y1207206D01*
X304640Y1244978D01*
X339571Y1250000D01*
X876000Y1250000D01*
X943039Y1230315D01*
G37*
G36*
X1207204Y19754141D02*
G01*
X1244978Y19695363D01*
X1250000Y19660430D01*
X1250000Y19124000D01*
X1230315Y19056961D01*
X1177511Y19011206D01*
X1126000Y19000000D01*
X1000000Y19000000D01*
X1000000Y18347626D01*
X992896Y18311861D01*
X994549Y18311359D01*
X992779Y18305529D01*
X952528Y18103172D01*
X952528Y17896829D01*
X992780Y17694471D01*
X994551Y17688633D01*
X992874Y17688125D01*
X1000000Y17652373D01*
X1000000Y2347626D01*
X992896Y2311861D01*
X994549Y2311359D01*
X992779Y2305529D01*
X952528Y2103172D01*
X952528Y1896829D01*
X992780Y1694471D01*
X994551Y1688633D01*
X992874Y1688125D01*
X1000000Y1652373D01*
X1000000Y1000000D01*
X1126000Y1000000D01*
X1193039Y980315D01*
X1238794Y927511D01*
X1250000Y876000D01*
X1250000Y339572D01*
X1230315Y272533D01*
X1177511Y226778D01*
X1108353Y216834D01*
X1074492Y226776D01*
X1048345Y238716D01*
X1032813Y247197D01*
X807375Y392078D01*
X793212Y402680D01*
X590682Y578173D01*
X578172Y590683D01*
X402679Y793213D01*
X392077Y807376D01*
X247194Y1032817D01*
X238715Y1048346D01*
X127391Y1292113D01*
X121208Y1308689D01*
X45709Y1565815D01*
X41948Y1583103D01*
X3651Y1849464D01*
X2409Y1864900D01*
X20Y1998879D01*
X0Y2001090D01*
X0Y17998911D01*
X20Y18001122D01*
X2409Y18135101D01*
X3651Y18150537D01*
X41948Y18416898D01*
X45709Y18434186D01*
X121208Y18691312D01*
X127391Y18707888D01*
X238715Y18951655D01*
X247194Y18967184D01*
X392077Y19192625D01*
X402679Y19206788D01*
X578172Y19409318D01*
X590682Y19421828D01*
X793212Y19597321D01*
X807375Y19607923D01*
X1032816Y19752806D01*
X1048347Y19761286D01*
X1074491Y19773225D01*
X1143649Y19783168D01*
X1207204Y19754141D01*
G37*
G36*
X30925511Y19773225D02*
G01*
X30951654Y19761286D01*
X30967183Y19752806D01*
X31192624Y19607923D01*
X31206787Y19597321D01*
X31409317Y19421828D01*
X31421827Y19409318D01*
X31597320Y19206788D01*
X31607922Y19192625D01*
X31752805Y18967184D01*
X31761284Y18951655D01*
X31872608Y18707888D01*
X31878791Y18691312D01*
X31954290Y18434186D01*
X31958051Y18416898D01*
X31996348Y18150537D01*
X31997590Y18135102D01*
X31999980Y18001123D01*
X32000000Y17998911D01*
X32000000Y2001090D01*
X31999980Y1998878D01*
X31997590Y1864899D01*
X31996348Y1849464D01*
X31958051Y1583103D01*
X31954290Y1565815D01*
X31878791Y1308689D01*
X31872608Y1292113D01*
X31761284Y1048346D01*
X31752805Y1032817D01*
X31607922Y807376D01*
X31597320Y793213D01*
X31421827Y590683D01*
X31409317Y578173D01*
X31206787Y402680D01*
X31192624Y392078D01*
X30967186Y247197D01*
X30951656Y238717D01*
X30925510Y226777D01*
X30856351Y216834D01*
X30792796Y245860D01*
X30755022Y304639D01*
X30750000Y339572D01*
X30750000Y876000D01*
X30769685Y943039D01*
X30822489Y988794D01*
X30874000Y1000000D01*
X31000000Y1000000D01*
X31000000Y1652373D01*
X31007125Y1688125D01*
X31005449Y1688633D01*
X31007219Y1694471D01*
X31047470Y1896824D01*
X31047471Y1896837D01*
X31049999Y2000000D01*
X31047471Y2103164D01*
X31047470Y2103177D01*
X31007220Y2305529D01*
X31005451Y2311359D01*
X31007103Y2311861D01*
X31000000Y2347626D01*
X31000000Y17652373D01*
X31007125Y17688125D01*
X31005449Y17688633D01*
X31007219Y17694471D01*
X31047470Y17896824D01*
X31047471Y17896837D01*
X31049999Y18000000D01*
X31047471Y18103164D01*
X31047470Y18103177D01*
X31007220Y18305529D01*
X31005451Y18311359D01*
X31007103Y18311861D01*
X31000000Y18347626D01*
X31000000Y19000000D01*
X30874000Y19000000D01*
X30806961Y19019685D01*
X30761206Y19072489D01*
X30750000Y19124000D01*
X30750000Y19660430D01*
X30769685Y19727469D01*
X30822489Y19773224D01*
X30891647Y19783168D01*
X30925511Y19773225D01*
G37*
G36*
X30001121Y19999980D02*
G01*
X30135100Y19997591D01*
X30150536Y19996349D01*
X30416897Y19958052D01*
X30434185Y19954291D01*
X30691311Y19878792D01*
X30707887Y19872609D01*
X30951654Y19761285D01*
X30967183Y19752806D01*
X31192624Y19607923D01*
X31206787Y19597321D01*
X31409317Y19421828D01*
X31421827Y19409318D01*
X31597320Y19206788D01*
X31607922Y19192625D01*
X31752805Y18967184D01*
X31761285Y18951653D01*
X31773224Y18925509D01*
X31783167Y18856351D01*
X31754140Y18792796D01*
X31695362Y18755022D01*
X31660429Y18750000D01*
X31124000Y18750000D01*
X31056961Y18769685D01*
X31011206Y18822489D01*
X31000000Y18874000D01*
X31000000Y19000000D01*
X30347626Y19000000D01*
X30311860Y19007104D01*
X30311359Y19005451D01*
X30305528Y19007221D01*
X30103170Y19047472D01*
X29896830Y19047472D01*
X29694471Y19007221D01*
X29688641Y19005451D01*
X29688139Y19007104D01*
X29652374Y19000000D01*
X2347626Y19000000D01*
X2311860Y19007104D01*
X2311359Y19005451D01*
X2305528Y19007221D01*
X2103170Y19047472D01*
X1896830Y19047472D01*
X1694471Y19007221D01*
X1688641Y19005451D01*
X1688139Y19007104D01*
X1652374Y19000000D01*
X1000000Y19000000D01*
X1000000Y18874000D01*
X980315Y18806961D01*
X927511Y18761206D01*
X876000Y18750000D01*
X339571Y18750000D01*
X272532Y18769685D01*
X226777Y18822489D01*
X216833Y18891647D01*
X226774Y18925506D01*
X238712Y18951650D01*
X247194Y18967184D01*
X392077Y19192625D01*
X402679Y19206788D01*
X578172Y19409318D01*
X590682Y19421828D01*
X793212Y19597321D01*
X807375Y19607923D01*
X1032816Y19752806D01*
X1048345Y19761285D01*
X1292112Y19872609D01*
X1308688Y19878792D01*
X1565814Y19954291D01*
X1583102Y19958052D01*
X1849463Y19996349D01*
X1864899Y19997591D01*
X1998879Y19999980D01*
X2001090Y20000000D01*
X29998910Y20000000D01*
X30001121Y19999980D01*
G37*
%LPD*%
M02*
