%TF.GenerationSoftware,KiCad,Pcbnew,8.0.8*%
%TF.CreationDate,2025-04-16T19:26:52+02:00*%
%TF.ProjectId,PicoFlash,5069636f-466c-4617-9368-2e6b69636164,1.0*%
%TF.SameCoordinates,Original*%
%TF.FileFunction,Copper,L3,Inr*%
%TF.FilePolarity,Positive*%
%FSLAX46Y46*%
G04 Gerber Fmt 4.6, Leading zero omitted, Abs format (unit mm)*
G04 Created by KiCad (PCBNEW 8.0.8) date 2025-04-16 19:26:52*
%MOMM*%
%LPD*%
G01*
G04 APERTURE LIST*
%TA.AperFunction,ComponentPad*%
%ADD10O,2.000000X1.100000*%
%TD*%
%TA.AperFunction,ComponentPad*%
%ADD11O,1.800000X1.200000*%
%TD*%
%TA.AperFunction,ViaPad*%
%ADD12C,0.450000*%
%TD*%
%TA.AperFunction,Conductor*%
%ADD13C,0.200000*%
%TD*%
G04 APERTURE END LIST*
D10*
%TO.N,GND*%
%TO.C,J10*%
X5525121Y14324994D03*
D11*
X1324968Y14324994D03*
D10*
X5525121Y5675006D03*
D11*
X1324968Y5675006D03*
%TD*%
D12*
%TO.N,+3V3*%
X10500000Y14900000D03*
X18586234Y9953261D03*
X17000000Y7700000D03*
X19150000Y14600000D03*
X11800000Y14000000D03*
X9681380Y14890690D03*
X13390000Y10470000D03*
X25550000Y5209398D03*
X11380000Y10470000D03*
X17500000Y14600000D03*
X13660000Y5680000D03*
X20100000Y2450000D03*
X13000000Y13300000D03*
X13422328Y7697484D03*
X19660934Y2969814D03*
X11400000Y14900000D03*
X13000000Y14000000D03*
X24800000Y5209398D03*
X17000000Y12727491D03*
X8600000Y5000000D03*
X10000000Y16300000D03*
X21000000Y13800000D03*
X8600000Y5750000D03*
X13400000Y12400000D03*
%TO.N,GND*%
X31439340Y9939340D03*
X939340Y939340D03*
X19000000Y19500000D03*
X6600000Y6400000D03*
X13000000Y19500000D03*
X20000000Y19500000D03*
X28400000Y5700000D03*
X12460000Y1490000D03*
X500000Y6000000D03*
X500000Y7000000D03*
X6100000Y13600000D03*
X4000000Y500000D03*
X9000000Y500000D03*
X31000000Y19000000D03*
X12000000Y500000D03*
X10000000Y500000D03*
X18600000Y9100000D03*
X28000000Y500000D03*
X17000000Y9000000D03*
X31439340Y3939340D03*
X19135198Y6875000D03*
X19500000Y13750000D03*
X14500000Y1500000D03*
X24150000Y10050000D03*
X20000000Y500000D03*
X27100000Y3000000D03*
X23300000Y9850000D03*
X8000000Y19500000D03*
X5000000Y500000D03*
X25000000Y500000D03*
X10100000Y7100000D03*
X21930000Y12300000D03*
X26000000Y500000D03*
X26200000Y11100000D03*
X500000Y5000000D03*
X27000000Y500000D03*
X30000000Y6900000D03*
X27000000Y19500000D03*
X30000000Y500000D03*
X4000000Y19500000D03*
X16000000Y500000D03*
X18000000Y500000D03*
X22000000Y500000D03*
X15000000Y11000000D03*
X9400000Y1400000D03*
X10150000Y13605627D03*
X15000000Y10000000D03*
X20196203Y3353739D03*
X7125000Y18350000D03*
X31500000Y14000000D03*
X31439340Y12939340D03*
X17000000Y10000000D03*
X31439340Y1939340D03*
X17000000Y19500000D03*
X30000000Y15100000D03*
X9530000Y9440000D03*
X31439340Y10939340D03*
X5400000Y15950000D03*
X12000000Y19500000D03*
X500000Y10000000D03*
X31439340Y8939340D03*
X29000000Y19500000D03*
X2100000Y13000000D03*
X31439340Y17939340D03*
X5600000Y13600000D03*
X10100000Y7700000D03*
X2100000Y9000000D03*
X16000000Y11000000D03*
X19000000Y500000D03*
X13500000Y1500000D03*
X13000000Y500000D03*
X18000000Y19500000D03*
X30000000Y9000000D03*
X18156903Y5700000D03*
X11000000Y500000D03*
X25000000Y19500000D03*
X26200000Y10300000D03*
X6100000Y6400000D03*
X31439340Y7939340D03*
X500000Y16000000D03*
X500000Y2000000D03*
X5399857Y16499673D03*
X500000Y14000000D03*
X21930000Y10750000D03*
X500000Y15000000D03*
X2000000Y500000D03*
X500000Y13000000D03*
X30000000Y19500000D03*
X500000Y3000000D03*
X25000000Y18250000D03*
X6000000Y19500000D03*
X14000000Y19500000D03*
X6000000Y500000D03*
X500000Y17000000D03*
X22000000Y19500000D03*
X23000000Y500000D03*
X2100000Y11000000D03*
X11000000Y19500000D03*
X5399691Y17799673D03*
X15000000Y19500000D03*
X8500000Y1400000D03*
X8000000Y500000D03*
X13449609Y3296768D03*
X3000000Y500000D03*
X30000000Y11000000D03*
X2100000Y7000000D03*
X31439340Y6939340D03*
X26000000Y19500000D03*
X25000000Y10300000D03*
X22700000Y7250000D03*
X24000000Y19500000D03*
X31439340Y11939340D03*
X7000000Y19500000D03*
X31439340Y2939340D03*
X26000000Y17250000D03*
X30000000Y13000000D03*
X2000000Y19500000D03*
X27750000Y16000000D03*
X18870000Y2650000D03*
X15550000Y14600000D03*
X28000000Y19500000D03*
X9930000Y9940000D03*
X14000000Y500000D03*
X5000000Y19500000D03*
X22200000Y14600000D03*
X5600000Y6400000D03*
X7500000Y1400000D03*
X500000Y18000000D03*
X10100000Y6500000D03*
X26400000Y3000000D03*
X31439340Y15939340D03*
X31000000Y878680D03*
X3000000Y19500000D03*
X500000Y9000000D03*
X24000000Y500000D03*
X21000000Y500000D03*
X30000000Y4900000D03*
X21000000Y19500000D03*
X14850000Y14600000D03*
X5400116Y18349675D03*
X500000Y12000000D03*
X15000000Y500000D03*
X16000000Y19500000D03*
X939340Y19060660D03*
X18170000Y5030000D03*
X16000000Y9000000D03*
X500000Y11000000D03*
X500000Y4000000D03*
X17000000Y11000000D03*
X26200000Y11900000D03*
X7740000Y10100000D03*
X15000000Y9000000D03*
X23000000Y19500000D03*
X10000000Y19500000D03*
X12575152Y15467615D03*
X15712463Y7424212D03*
X17000000Y500000D03*
X7200000Y4800000D03*
X31500000Y5000000D03*
X9000000Y19500000D03*
X22675000Y8750000D03*
X16000000Y10000000D03*
X500000Y8000000D03*
X31500000Y6000000D03*
X31500000Y15000000D03*
X6600000Y13600000D03*
X22200000Y13800000D03*
X26200000Y6600000D03*
X7000000Y500000D03*
X31439340Y16939340D03*
X8827180Y13723323D03*
X29000000Y500000D03*
X27100000Y4500000D03*
%TO.N,+1V1*%
X13397026Y11613328D03*
X11374578Y9615422D03*
X18575000Y11403525D03*
X20330729Y11417274D03*
X13400000Y9650000D03*
X11666127Y12593914D03*
%TO.N,/CC2*%
X7739456Y9440000D03*
X4800000Y9391268D03*
%TO.N,/CC1*%
X4796683Y10836097D03*
X9100000Y10850000D03*
%TO.N,BOOTSELECT*%
X12400000Y14550000D03*
X12405422Y6844578D03*
%TO.N,HOST_RESET*%
X25330000Y16100000D03*
X21600013Y15590013D03*
%TO.N,GPIO10*%
X20950000Y12300000D03*
X18575000Y7427301D03*
%TO.N,GPIO8*%
X17645867Y7413589D03*
X21860000Y3320000D03*
%TO.N,GPIO16*%
X12000000Y3800000D03*
X18600000Y12200000D03*
%TO.N,GPIO7*%
X16384275Y7406311D03*
X16384275Y2250000D03*
%TO.N,GPIO15*%
X12000000Y2100000D03*
X18598578Y8400461D03*
%TO.N,/ACT_LED*%
X5401705Y17149673D03*
X6900000Y2909929D03*
%TO.N,/PWR_LED*%
X8984423Y13092628D03*
X6906380Y17737865D03*
%TD*%
D13*
%TO.N,/CC2*%
X7739456Y9440000D02*
X7690724Y9391268D01*
X7690724Y9391268D02*
X4800000Y9391268D01*
%TO.N,/CC1*%
X4796683Y10836097D02*
X9086097Y10836097D01*
X9086097Y10836097D02*
X9100000Y10850000D01*
%TO.N,BOOTSELECT*%
X12400000Y14550000D02*
X12405422Y14544578D01*
X12405422Y14544578D02*
X12405422Y6844578D01*
%TO.N,HOST_RESET*%
X25330000Y16100000D02*
X25130000Y15900000D01*
X25130000Y15900000D02*
X21910000Y15900000D01*
X21910000Y15900000D02*
X21600013Y15590013D01*
%TO.N,GPIO10*%
X20950000Y8250000D02*
X20127301Y7427301D01*
X20127301Y7427301D02*
X18575000Y7427301D01*
X20950000Y12300000D02*
X20950000Y8250000D01*
%TO.N,GPIO8*%
X21180000Y4000000D02*
X18100000Y4000000D01*
X21860000Y3320000D02*
X21180000Y4000000D01*
X17631903Y4468097D02*
X17631903Y7399625D01*
X18100000Y4000000D02*
X17631903Y4468097D01*
X17631903Y7399625D02*
X17645867Y7413589D01*
%TO.N,GPIO16*%
X14200000Y11700000D02*
X14600000Y12100000D01*
X14200000Y4700000D02*
X14200000Y11700000D01*
X18500000Y12100000D02*
X18600000Y12200000D01*
X12000000Y3800000D02*
X13300000Y3800000D01*
X13300000Y3800000D02*
X14200000Y4700000D01*
X14600000Y12100000D02*
X18500000Y12100000D01*
%TO.N,GPIO7*%
X16384275Y2250000D02*
X16384275Y7406311D01*
%TO.N,GPIO15*%
X15100000Y7900000D02*
X15600461Y8400461D01*
X12000000Y2100000D02*
X14600000Y2100000D01*
X14600000Y2100000D02*
X15100000Y2600000D01*
X15100000Y2600000D02*
X15100000Y7900000D01*
X15600461Y8400461D02*
X18598578Y8400461D01*
%TO.N,/ACT_LED*%
X5401705Y17149673D02*
X5299673Y17149673D01*
X3595000Y15445000D02*
X3595000Y4605000D01*
X5299673Y17149673D02*
X3595000Y15445000D01*
X5290071Y2909929D02*
X6900000Y2909929D01*
X3595000Y4605000D02*
X5290071Y2909929D01*
%TO.N,/PWR_LED*%
X8307372Y13092628D02*
X8984423Y13092628D01*
X6906380Y17737865D02*
X7312135Y17737865D01*
X7312135Y17737865D02*
X7850000Y17200000D01*
X7850000Y17200000D02*
X7850000Y13550000D01*
X7850000Y13550000D02*
X8307372Y13092628D01*
%TD*%
%TA.AperFunction,Conductor*%
%TO.N,GND*%
G36*
X11300000Y7600000D02*
G01*
X11100000Y7600000D01*
X10875000Y7600000D01*
X10743668Y7579199D01*
X10625191Y7518832D01*
X10531168Y7424809D01*
X10470801Y7306332D01*
X10450000Y7175000D01*
X10450000Y6050000D01*
X10050000Y6050000D01*
X9650000Y6050000D01*
X9650000Y8000000D01*
X10450000Y8000000D01*
X11300000Y8000000D01*
X11300000Y7600000D01*
G37*
%TD.AperFunction*%
%TD*%
%TA.AperFunction,Conductor*%
%TO.N,GND*%
G36*
X29928782Y19999998D02*
G01*
X30069687Y19998742D01*
X30073167Y19998587D01*
X30212066Y19987407D01*
X30215082Y19987069D01*
X30282542Y19977370D01*
X30285965Y19976752D01*
X30559331Y19917285D01*
X30566023Y19915320D01*
X30826497Y19818169D01*
X30832848Y19815267D01*
X30954837Y19748656D01*
X31076823Y19682046D01*
X31082697Y19678272D01*
X31305261Y19511664D01*
X31310536Y19507091D01*
X31507090Y19310537D01*
X31511663Y19305260D01*
X31678269Y19082701D01*
X31682045Y19076824D01*
X31815264Y18832853D01*
X31818169Y18826494D01*
X31915317Y18566031D01*
X31917286Y18559323D01*
X31976749Y18285976D01*
X31977370Y18282533D01*
X31987066Y18215096D01*
X31987407Y18212054D01*
X31998585Y18073172D01*
X31998741Y18069678D01*
X31999998Y17928783D01*
X32000000Y17928346D01*
X32000000Y2071655D01*
X31999998Y2071218D01*
X31998741Y1930323D01*
X31998585Y1926829D01*
X31987407Y1787947D01*
X31987066Y1784905D01*
X31977370Y1717468D01*
X31976749Y1714025D01*
X31917286Y1440678D01*
X31915317Y1433970D01*
X31818169Y1173507D01*
X31815264Y1167148D01*
X31682045Y923177D01*
X31678266Y917295D01*
X31511669Y694747D01*
X31507090Y689464D01*
X31310536Y492910D01*
X31305253Y488331D01*
X31082705Y321734D01*
X31076823Y317955D01*
X30832852Y184736D01*
X30826493Y181831D01*
X30566030Y84683D01*
X30559322Y82714D01*
X30285975Y23251D01*
X30282532Y22630D01*
X30215095Y12934D01*
X30212053Y12593D01*
X30073171Y1415D01*
X30069677Y1259D01*
X29928782Y2D01*
X29928345Y0D01*
X2071655Y0D01*
X2071218Y2D01*
X1930322Y1259D01*
X1926828Y1415D01*
X1787946Y12593D01*
X1784904Y12934D01*
X1717467Y22630D01*
X1714024Y23251D01*
X1440677Y82714D01*
X1433969Y84683D01*
X1173506Y181831D01*
X1167147Y184736D01*
X923176Y317955D01*
X917299Y321731D01*
X694740Y488337D01*
X689463Y492910D01*
X492909Y689464D01*
X488336Y694739D01*
X321728Y917303D01*
X317954Y923177D01*
X205534Y1129058D01*
X184733Y1167152D01*
X181830Y1173507D01*
X149822Y1259324D01*
X84680Y1433977D01*
X82715Y1440669D01*
X23248Y1714035D01*
X22629Y1717468D01*
X14634Y1773072D01*
X12931Y1784918D01*
X12592Y1787947D01*
X11972Y1795648D01*
X1413Y1926833D01*
X1258Y1930323D01*
X637Y2000001D01*
X952528Y2000001D01*
X952528Y2000000D01*
X974878Y1773072D01*
X983755Y1759055D01*
X1019674Y1640646D01*
X1032262Y1599150D01*
X1032265Y1599145D01*
X1032266Y1599142D01*
X1129057Y1418057D01*
X1129778Y1417086D01*
X1130582Y1416198D01*
X1259323Y1259327D01*
X1259326Y1259324D01*
X1416197Y1130583D01*
X1417085Y1129778D01*
X1418055Y1129059D01*
X1418056Y1129058D01*
X1599150Y1032262D01*
X1759054Y983756D01*
X1769434Y975238D01*
X1795644Y972657D01*
X1795649Y972655D01*
X1795648Y972655D01*
X2000000Y952528D01*
X2204352Y972655D01*
X2204351Y972655D01*
X2204353Y972656D01*
X2226926Y974879D01*
X2240943Y983756D01*
X2400850Y1032262D01*
X2581944Y1129058D01*
X2581945Y1129059D01*
X2581951Y1129065D01*
X2582905Y1129772D01*
X2583790Y1130574D01*
X2740675Y1259325D01*
X2869426Y1416210D01*
X2870228Y1417095D01*
X2870941Y1418055D01*
X2870942Y1418056D01*
X2967738Y1599150D01*
X3027345Y1795649D01*
X3037405Y1846225D01*
X3048736Y1948417D01*
X3048736Y2051583D01*
X3043368Y2100000D01*
X11569196Y2100000D01*
X11590281Y1966874D01*
X11590281Y1966873D01*
X11590282Y1966872D01*
X11651467Y1846787D01*
X11651472Y1846780D01*
X11746779Y1751473D01*
X11746786Y1751468D01*
X11820254Y1714035D01*
X11866874Y1690281D01*
X12000000Y1669196D01*
X12133126Y1690281D01*
X12216420Y1732722D01*
X12253213Y1751468D01*
X12253215Y1751470D01*
X12253220Y1751472D01*
X12286896Y1785148D01*
X12321544Y1799500D01*
X14639564Y1799500D01*
X14666230Y1806646D01*
X14715989Y1819979D01*
X14784511Y1859540D01*
X14840460Y1915489D01*
X15340460Y2415489D01*
X15380022Y2484012D01*
X15400499Y2560435D01*
X15400500Y2560435D01*
X15400500Y7755233D01*
X15414852Y7789881D01*
X15710580Y8085609D01*
X15745228Y8099961D01*
X16679917Y8099961D01*
X16714565Y8085609D01*
X16728917Y8050961D01*
X16714565Y8016313D01*
X16651472Y7953221D01*
X16651468Y7953216D01*
X16590589Y7833732D01*
X16562072Y7809376D01*
X16524686Y7812318D01*
X16517401Y7816030D01*
X16384275Y7837115D01*
X16251149Y7816030D01*
X16251147Y7816030D01*
X16251146Y7816029D01*
X16131061Y7754844D01*
X16131054Y7754839D01*
X16035747Y7659532D01*
X16035742Y7659525D01*
X15974557Y7539440D01*
X15974556Y7539439D01*
X15974556Y7539437D01*
X15953471Y7406311D01*
X15974556Y7273185D01*
X15974556Y7273184D01*
X15974557Y7273183D01*
X16035742Y7153098D01*
X16035747Y7153091D01*
X16069423Y7119415D01*
X16083775Y7084767D01*
X16083775Y2571544D01*
X16069423Y2536896D01*
X16035747Y2503221D01*
X16035742Y2503214D01*
X15974557Y2383129D01*
X15974556Y2383128D01*
X15974556Y2383126D01*
X15953471Y2250000D01*
X15974556Y2116874D01*
X15974556Y2116873D01*
X15974557Y2116872D01*
X16035742Y1996787D01*
X16035747Y1996780D01*
X16131054Y1901473D01*
X16131061Y1901468D01*
X16211117Y1860678D01*
X16251149Y1840281D01*
X16384275Y1819196D01*
X16517401Y1840281D01*
X16600695Y1882722D01*
X16637488Y1901468D01*
X16637490Y1901470D01*
X16637495Y1901472D01*
X16732803Y1996780D01*
X16734445Y2000001D01*
X28952528Y2000001D01*
X28952528Y2000000D01*
X28974878Y1773072D01*
X28983755Y1759055D01*
X29019674Y1640646D01*
X29032262Y1599150D01*
X29032265Y1599145D01*
X29032266Y1599142D01*
X29129057Y1418057D01*
X29129778Y1417086D01*
X29130582Y1416198D01*
X29259323Y1259327D01*
X29259326Y1259324D01*
X29416197Y1130583D01*
X29417085Y1129778D01*
X29418055Y1129059D01*
X29418056Y1129058D01*
X29599150Y1032262D01*
X29759054Y983756D01*
X29769434Y975238D01*
X29795644Y972657D01*
X29795649Y972655D01*
X29795648Y972655D01*
X30000000Y952528D01*
X30204352Y972655D01*
X30204351Y972655D01*
X30204353Y972656D01*
X30226926Y974879D01*
X30240943Y983756D01*
X30400850Y1032262D01*
X30581944Y1129058D01*
X30581945Y1129059D01*
X30581951Y1129065D01*
X30582905Y1129772D01*
X30583790Y1130574D01*
X30740675Y1259325D01*
X30869426Y1416210D01*
X30870228Y1417095D01*
X30870941Y1418055D01*
X30870942Y1418056D01*
X30967738Y1599150D01*
X31027345Y1795649D01*
X31037405Y1846225D01*
X31048736Y1948417D01*
X31048736Y2051583D01*
X31037405Y2153775D01*
X31027345Y2204351D01*
X30967738Y2400850D01*
X30870942Y2581944D01*
X30870941Y2581945D01*
X30870222Y2582915D01*
X30869417Y2583803D01*
X30740676Y2740674D01*
X30740673Y2740677D01*
X30583802Y2869418D01*
X30582914Y2870222D01*
X30581943Y2870943D01*
X30400858Y2967734D01*
X30400855Y2967735D01*
X30400850Y2967738D01*
X30359354Y2980326D01*
X30240945Y3016245D01*
X30230566Y3024763D01*
X30204351Y3027345D01*
X30204352Y3027345D01*
X30000000Y3047472D01*
X29773071Y3025122D01*
X29759054Y3016245D01*
X29599153Y2967739D01*
X29599150Y2967738D01*
X29599147Y2967737D01*
X29599141Y2967734D01*
X29418056Y2870943D01*
X29417083Y2870222D01*
X29416197Y2869418D01*
X29259326Y2740677D01*
X29259323Y2740674D01*
X29130582Y2583803D01*
X29129778Y2582917D01*
X29129057Y2581944D01*
X29032266Y2400859D01*
X29032261Y2400847D01*
X28983755Y2240946D01*
X28975237Y2230568D01*
X28952528Y2000001D01*
X16734445Y2000001D01*
X16754969Y2040283D01*
X16793994Y2116874D01*
X16815079Y2250000D01*
X16793994Y2383126D01*
X16760670Y2448528D01*
X16732807Y2503214D01*
X16732802Y2503221D01*
X16699127Y2536896D01*
X16684775Y2571544D01*
X16684775Y2969814D01*
X19230130Y2969814D01*
X19251215Y2836688D01*
X19251215Y2836687D01*
X19251216Y2836686D01*
X19312401Y2716601D01*
X19312406Y2716594D01*
X19407713Y2621287D01*
X19407720Y2621282D01*
X19481278Y2583803D01*
X19527808Y2560095D01*
X19634349Y2543221D01*
X19666326Y2523625D01*
X19675081Y2487160D01*
X19669196Y2450001D01*
X19669196Y2450000D01*
X19690281Y2316874D01*
X19690281Y2316873D01*
X19690282Y2316872D01*
X19751467Y2196787D01*
X19751472Y2196780D01*
X19846779Y2101473D01*
X19846786Y2101468D01*
X19926842Y2060678D01*
X19966874Y2040281D01*
X20100000Y2019196D01*
X20233126Y2040281D01*
X20316420Y2082722D01*
X20353213Y2101468D01*
X20353215Y2101470D01*
X20353220Y2101472D01*
X20448528Y2196780D01*
X20509719Y2316874D01*
X20530804Y2450000D01*
X20509719Y2583126D01*
X20485882Y2629909D01*
X20448532Y2703214D01*
X20448527Y2703221D01*
X20353220Y2798528D01*
X20353213Y2798533D01*
X20233129Y2859718D01*
X20233127Y2859719D01*
X20233126Y2859719D01*
X20162260Y2870943D01*
X20126583Y2876594D01*
X20094607Y2896190D01*
X20085852Y2932656D01*
X20091738Y2969814D01*
X20070653Y3102940D01*
X20039975Y3163149D01*
X20009466Y3223028D01*
X20009461Y3223035D01*
X19914154Y3318342D01*
X19914147Y3318347D01*
X19794062Y3379532D01*
X19794061Y3379533D01*
X19794060Y3379533D01*
X19660934Y3400618D01*
X19527808Y3379533D01*
X19527806Y3379533D01*
X19527805Y3379532D01*
X19407720Y3318347D01*
X19407713Y3318342D01*
X19312406Y3223035D01*
X19312401Y3223028D01*
X19251216Y3102943D01*
X19251215Y3102942D01*
X19251215Y3102940D01*
X19230130Y2969814D01*
X16684775Y2969814D01*
X16684775Y7084767D01*
X16699127Y7119415D01*
X16711186Y7131474D01*
X16732803Y7153091D01*
X16793686Y7272581D01*
X16822202Y7296936D01*
X16859586Y7293995D01*
X16866874Y7290281D01*
X17000000Y7269196D01*
X17133126Y7290281D01*
X17167659Y7307878D01*
X17205046Y7310820D01*
X17233564Y7286464D01*
X17235622Y7281495D01*
X17297334Y7160376D01*
X17297339Y7160369D01*
X17317051Y7140657D01*
X17331403Y7106009D01*
X17331403Y4428534D01*
X17351881Y4352110D01*
X17351882Y4352106D01*
X17381677Y4300502D01*
X17381678Y4300500D01*
X17391440Y4283590D01*
X17391442Y4283588D01*
X17391443Y4283586D01*
X17859540Y3815489D01*
X17915489Y3759540D01*
X17984011Y3719979D01*
X18019478Y3710476D01*
X18060436Y3699500D01*
X18060438Y3699500D01*
X18139562Y3699500D01*
X21035233Y3699500D01*
X21069881Y3685148D01*
X21416839Y3338190D01*
X21430588Y3311208D01*
X21438943Y3258462D01*
X21450281Y3186874D01*
X21450281Y3186873D01*
X21450282Y3186871D01*
X21511467Y3066787D01*
X21511472Y3066780D01*
X21606779Y2971473D01*
X21606786Y2971468D01*
X21682959Y2932657D01*
X21726874Y2910281D01*
X21860000Y2889196D01*
X21993126Y2910281D01*
X22105894Y2967739D01*
X22113213Y2971468D01*
X22113215Y2971470D01*
X22113220Y2971472D01*
X22208528Y3066780D01*
X22269719Y3186874D01*
X22290804Y3320000D01*
X22269719Y3453126D01*
X22222000Y3546780D01*
X22208532Y3573214D01*
X22208527Y3573221D01*
X22113220Y3668528D01*
X22113213Y3668533D01*
X21993129Y3729718D01*
X21993127Y3729719D01*
X21993126Y3729719D01*
X21930083Y3739704D01*
X21868792Y3749412D01*
X21841810Y3763161D01*
X21364511Y4240460D01*
X21295990Y4280021D01*
X21219564Y4300500D01*
X21219562Y4300500D01*
X18244767Y4300500D01*
X18210119Y4314852D01*
X17946755Y4578216D01*
X17932403Y4612864D01*
X17932403Y5209398D01*
X24369196Y5209398D01*
X24390281Y5076272D01*
X24390281Y5076271D01*
X24390282Y5076270D01*
X24451467Y4956185D01*
X24451472Y4956178D01*
X24546779Y4860871D01*
X24546786Y4860866D01*
X24618217Y4824471D01*
X24666874Y4799679D01*
X24800000Y4778594D01*
X24933126Y4799679D01*
X25021616Y4844767D01*
X25053213Y4860866D01*
X25053215Y4860868D01*
X25053220Y4860870D01*
X25140352Y4948002D01*
X25175000Y4962354D01*
X25209648Y4948002D01*
X25296779Y4860871D01*
X25296786Y4860866D01*
X25368217Y4824471D01*
X25416874Y4799679D01*
X25550000Y4778594D01*
X25683126Y4799679D01*
X25771616Y4844767D01*
X25803213Y4860866D01*
X25803215Y4860868D01*
X25803220Y4860870D01*
X25898528Y4956178D01*
X25959719Y5076272D01*
X25980804Y5209398D01*
X25959719Y5342524D01*
X25939322Y5382556D01*
X25898532Y5462612D01*
X25898527Y5462619D01*
X25803220Y5557926D01*
X25803213Y5557931D01*
X25683128Y5619116D01*
X25683127Y5619117D01*
X25683126Y5619117D01*
X25550000Y5640202D01*
X25416874Y5619117D01*
X25416872Y5619117D01*
X25416871Y5619116D01*
X25296786Y5557931D01*
X25296779Y5557926D01*
X25209648Y5470794D01*
X25175000Y5456442D01*
X25140352Y5470794D01*
X25053220Y5557926D01*
X25053213Y5557931D01*
X24933128Y5619116D01*
X24933127Y5619117D01*
X24933126Y5619117D01*
X24800000Y5640202D01*
X24666874Y5619117D01*
X24666872Y5619117D01*
X24666871Y5619116D01*
X24546786Y5557931D01*
X24546779Y5557926D01*
X24451472Y5462619D01*
X24451467Y5462612D01*
X24390282Y5342527D01*
X24390281Y5342526D01*
X24390281Y5342524D01*
X24369196Y5209398D01*
X17932403Y5209398D01*
X17932403Y7078081D01*
X17946755Y7112729D01*
X17965500Y7131474D01*
X17994395Y7160369D01*
X17997327Y7166122D01*
X18013145Y7197169D01*
X18055586Y7280463D01*
X18063123Y7328053D01*
X18082717Y7360027D01*
X18119184Y7368782D01*
X18151161Y7349187D01*
X18159915Y7328053D01*
X18165281Y7294175D01*
X18165281Y7294174D01*
X18165282Y7294172D01*
X18226467Y7174088D01*
X18226472Y7174081D01*
X18321779Y7078774D01*
X18321786Y7078769D01*
X18401842Y7037979D01*
X18441874Y7017582D01*
X18575000Y6996497D01*
X18708126Y7017582D01*
X18791420Y7060023D01*
X18828213Y7078769D01*
X18828215Y7078771D01*
X18828220Y7078773D01*
X18861896Y7112449D01*
X18896544Y7126801D01*
X20166865Y7126801D01*
X20193531Y7133947D01*
X20243290Y7147280D01*
X20311812Y7186841D01*
X20367761Y7242790D01*
X21190460Y8065489D01*
X21218595Y8114221D01*
X21230021Y8134011D01*
X21250500Y8210438D01*
X21250500Y11978456D01*
X21264852Y12013104D01*
X21279904Y12028156D01*
X21298528Y12046780D01*
X21308766Y12066872D01*
X21317278Y12083580D01*
X21359719Y12166874D01*
X21380804Y12300000D01*
X21359719Y12433126D01*
X21338755Y12474271D01*
X21298532Y12553214D01*
X21298527Y12553221D01*
X21203220Y12648528D01*
X21203213Y12648533D01*
X21083128Y12709718D01*
X21083127Y12709719D01*
X21083126Y12709719D01*
X20950000Y12730804D01*
X20816874Y12709719D01*
X20816872Y12709719D01*
X20816871Y12709718D01*
X20696786Y12648533D01*
X20696779Y12648528D01*
X20601472Y12553221D01*
X20601467Y12553214D01*
X20540282Y12433129D01*
X20540281Y12433128D01*
X20540281Y12433126D01*
X20519196Y12300000D01*
X20540281Y12166874D01*
X20540281Y12166873D01*
X20540282Y12166872D01*
X20601467Y12046787D01*
X20601472Y12046780D01*
X20635148Y12013104D01*
X20649500Y11978456D01*
X20649500Y11812364D01*
X20635148Y11777716D01*
X20600500Y11763364D01*
X20578255Y11768704D01*
X20463855Y11826993D01*
X20330729Y11848078D01*
X20197603Y11826993D01*
X20197601Y11826993D01*
X20197600Y11826992D01*
X20077515Y11765807D01*
X20077508Y11765802D01*
X19982201Y11670495D01*
X19982196Y11670488D01*
X19921011Y11550403D01*
X19921010Y11550402D01*
X19921010Y11550400D01*
X19899925Y11417274D01*
X19921010Y11284148D01*
X19921010Y11284147D01*
X19921011Y11284146D01*
X19982196Y11164061D01*
X19982201Y11164054D01*
X20077508Y11068747D01*
X20077515Y11068742D01*
X20157571Y11027952D01*
X20197603Y11007555D01*
X20330729Y10986470D01*
X20463855Y11007555D01*
X20536226Y11044430D01*
X20578255Y11065844D01*
X20615642Y11068787D01*
X20644159Y11044430D01*
X20649500Y11022185D01*
X20649500Y8394767D01*
X20635148Y8360119D01*
X20017182Y7742153D01*
X19982534Y7727801D01*
X18896544Y7727801D01*
X18861896Y7742153D01*
X18828220Y7775829D01*
X18828213Y7775834D01*
X18708128Y7837019D01*
X18708127Y7837020D01*
X18708126Y7837020D01*
X18575000Y7858105D01*
X18441874Y7837020D01*
X18441872Y7837020D01*
X18441871Y7837019D01*
X18321786Y7775834D01*
X18321779Y7775829D01*
X18226472Y7680522D01*
X18226467Y7680515D01*
X18165282Y7560431D01*
X18165281Y7560429D01*
X18165281Y7560427D01*
X18161957Y7539440D01*
X18157744Y7512840D01*
X18138148Y7480864D01*
X18101681Y7472109D01*
X18069705Y7491705D01*
X18060951Y7512837D01*
X18055586Y7546715D01*
X18016793Y7622851D01*
X17994399Y7666803D01*
X17994394Y7666810D01*
X17899087Y7762117D01*
X17899080Y7762122D01*
X17778995Y7823307D01*
X17778994Y7823308D01*
X17778993Y7823308D01*
X17645867Y7844393D01*
X17512740Y7823308D01*
X17498457Y7816030D01*
X17478206Y7805712D01*
X17440820Y7802770D01*
X17412302Y7827127D01*
X17410240Y7832104D01*
X17348532Y7953214D01*
X17348527Y7953221D01*
X17285435Y8016313D01*
X17271083Y8050961D01*
X17285435Y8085609D01*
X17320083Y8099961D01*
X18277034Y8099961D01*
X18311682Y8085609D01*
X18345357Y8051934D01*
X18345364Y8051929D01*
X18415266Y8016313D01*
X18465452Y7990742D01*
X18598578Y7969657D01*
X18731704Y7990742D01*
X18814998Y8033183D01*
X18851791Y8051929D01*
X18851793Y8051931D01*
X18851798Y8051933D01*
X18947106Y8147241D01*
X19008297Y8267335D01*
X19029382Y8400461D01*
X19008297Y8533587D01*
X18987900Y8573619D01*
X18947110Y8653675D01*
X18947105Y8653682D01*
X18851798Y8748989D01*
X18851791Y8748994D01*
X18731706Y8810179D01*
X18731705Y8810180D01*
X18731704Y8810180D01*
X18598578Y8831265D01*
X18465452Y8810180D01*
X18465450Y8810180D01*
X18465449Y8810179D01*
X18345364Y8748994D01*
X18345357Y8748989D01*
X18311682Y8715313D01*
X18277034Y8700961D01*
X15560896Y8700961D01*
X15484474Y8680484D01*
X15484471Y8680483D01*
X15415949Y8640921D01*
X15415949Y8640920D01*
X14859541Y8084512D01*
X14859540Y8084512D01*
X14819979Y8015992D01*
X14819979Y8015990D01*
X14799500Y7939564D01*
X14799500Y2744767D01*
X14785148Y2710119D01*
X14489881Y2414852D01*
X14455233Y2400500D01*
X12321544Y2400500D01*
X12286896Y2414852D01*
X12253220Y2448528D01*
X12253213Y2448533D01*
X12133128Y2509718D01*
X12133127Y2509719D01*
X12133126Y2509719D01*
X12000000Y2530804D01*
X11866874Y2509719D01*
X11866872Y2509719D01*
X11866871Y2509718D01*
X11746786Y2448533D01*
X11746779Y2448528D01*
X11651472Y2353221D01*
X11651467Y2353214D01*
X11590282Y2233129D01*
X11590281Y2233128D01*
X11590281Y2233126D01*
X11569196Y2100000D01*
X3043368Y2100000D01*
X3037405Y2153775D01*
X3027345Y2204351D01*
X2967738Y2400850D01*
X2870942Y2581944D01*
X2870941Y2581945D01*
X2870222Y2582915D01*
X2869417Y2583803D01*
X2740676Y2740674D01*
X2740673Y2740677D01*
X2583802Y2869418D01*
X2582914Y2870222D01*
X2581943Y2870943D01*
X2400858Y2967734D01*
X2400855Y2967735D01*
X2400850Y2967738D01*
X2359354Y2980326D01*
X2240945Y3016245D01*
X2230566Y3024763D01*
X2204351Y3027345D01*
X2204352Y3027345D01*
X2000000Y3047472D01*
X1773071Y3025122D01*
X1759054Y3016245D01*
X1599153Y2967739D01*
X1599150Y2967738D01*
X1599147Y2967737D01*
X1599141Y2967734D01*
X1418056Y2870943D01*
X1417083Y2870222D01*
X1416197Y2869418D01*
X1259326Y2740677D01*
X1259323Y2740674D01*
X1130582Y2583803D01*
X1129778Y2582917D01*
X1129057Y2581944D01*
X1032266Y2400859D01*
X1032261Y2400847D01*
X983755Y2240946D01*
X975237Y2230568D01*
X952528Y2000001D01*
X637Y2000001D01*
X2Y2071218D01*
X0Y2071655D01*
X0Y4565438D01*
X3294499Y4565438D01*
X3314979Y4489011D01*
X3314979Y4489009D01*
X3331994Y4459540D01*
X3354540Y4420489D01*
X5049611Y2725418D01*
X5105560Y2669469D01*
X5174082Y2629908D01*
X5206255Y2621287D01*
X5250507Y2609429D01*
X5250509Y2609429D01*
X5329633Y2609429D01*
X6578456Y2609429D01*
X6613104Y2595077D01*
X6646779Y2561402D01*
X6646786Y2561397D01*
X6726842Y2520607D01*
X6766874Y2500210D01*
X6900000Y2479125D01*
X7033126Y2500210D01*
X7133294Y2551248D01*
X7153213Y2561397D01*
X7153215Y2561399D01*
X7153220Y2561401D01*
X7248528Y2656709D01*
X7309719Y2776803D01*
X7330804Y2909929D01*
X7309719Y3043055D01*
X7279205Y3102943D01*
X7248532Y3163143D01*
X7248527Y3163150D01*
X7153220Y3258457D01*
X7153213Y3258462D01*
X7033128Y3319647D01*
X7033127Y3319648D01*
X7033126Y3319648D01*
X6900000Y3340733D01*
X6766874Y3319648D01*
X6766872Y3319648D01*
X6766871Y3319647D01*
X6646786Y3258462D01*
X6646779Y3258457D01*
X6613104Y3224781D01*
X6578456Y3210429D01*
X5434838Y3210429D01*
X5400190Y3224781D01*
X4824971Y3800000D01*
X11569196Y3800000D01*
X11590281Y3666874D01*
X11590281Y3666873D01*
X11590282Y3666872D01*
X11651467Y3546787D01*
X11651472Y3546780D01*
X11746779Y3451473D01*
X11746786Y3451468D01*
X11826842Y3410678D01*
X11866874Y3390281D01*
X12000000Y3369196D01*
X12133126Y3390281D01*
X12216420Y3432722D01*
X12253213Y3451468D01*
X12253215Y3451470D01*
X12253220Y3451472D01*
X12286896Y3485148D01*
X12321544Y3499500D01*
X13339564Y3499500D01*
X13366230Y3506646D01*
X13415989Y3519979D01*
X13484511Y3559540D01*
X13540460Y3615489D01*
X14440460Y4515489D01*
X14469298Y4565438D01*
X14480021Y4584011D01*
X14496171Y4644287D01*
X14500500Y4660437D01*
X14500500Y9953261D01*
X18155430Y9953261D01*
X18176515Y9820135D01*
X18176515Y9820134D01*
X18176516Y9820133D01*
X18237701Y9700048D01*
X18237706Y9700041D01*
X18333013Y9604734D01*
X18333020Y9604729D01*
X18395040Y9573129D01*
X18453108Y9543542D01*
X18586234Y9522457D01*
X18719360Y9543542D01*
X18802654Y9585983D01*
X18839447Y9604729D01*
X18839449Y9604731D01*
X18839454Y9604733D01*
X18934762Y9700041D01*
X18937860Y9706120D01*
X18955021Y9739801D01*
X18995953Y9820135D01*
X19017038Y9953261D01*
X18995953Y10086387D01*
X18975556Y10126419D01*
X18934766Y10206475D01*
X18934761Y10206482D01*
X18839454Y10301789D01*
X18839447Y10301794D01*
X18719362Y10362979D01*
X18719361Y10362980D01*
X18719360Y10362980D01*
X18586234Y10384065D01*
X18453108Y10362980D01*
X18453106Y10362980D01*
X18453105Y10362979D01*
X18333020Y10301794D01*
X18333013Y10301789D01*
X18237706Y10206482D01*
X18237701Y10206475D01*
X18176516Y10086390D01*
X18176515Y10086389D01*
X18176515Y10086387D01*
X18155430Y9953261D01*
X14500500Y9953261D01*
X14500500Y11555233D01*
X14514852Y11589881D01*
X14710119Y11785148D01*
X14744767Y11799500D01*
X18250931Y11799500D01*
X18285579Y11785148D01*
X18299931Y11750500D01*
X18285579Y11715852D01*
X18226472Y11656746D01*
X18226467Y11656739D01*
X18165282Y11536654D01*
X18165281Y11536653D01*
X18165281Y11536651D01*
X18144196Y11403525D01*
X18165281Y11270399D01*
X18165281Y11270398D01*
X18165282Y11270397D01*
X18226467Y11150312D01*
X18226472Y11150305D01*
X18321779Y11054998D01*
X18321786Y11054993D01*
X18386177Y11022185D01*
X18441874Y10993806D01*
X18575000Y10972721D01*
X18708126Y10993806D01*
X18807481Y11044430D01*
X18828213Y11054993D01*
X18828215Y11054995D01*
X18828220Y11054997D01*
X18923528Y11150305D01*
X18923857Y11150949D01*
X18950689Y11203611D01*
X18984719Y11270399D01*
X19005804Y11403525D01*
X18984719Y11536651D01*
X18957597Y11589881D01*
X18923532Y11656739D01*
X18923527Y11656746D01*
X18828220Y11752053D01*
X18825096Y11754323D01*
X18825804Y11755298D01*
X18804490Y11780249D01*
X18807430Y11817636D01*
X18828846Y11839054D01*
X18853220Y11851472D01*
X18948528Y11946780D01*
X18956411Y11962250D01*
X18968094Y11985181D01*
X19009719Y12066874D01*
X19030804Y12200000D01*
X19009719Y12333126D01*
X18975645Y12400000D01*
X18948532Y12453214D01*
X18948527Y12453221D01*
X18853220Y12548528D01*
X18853213Y12548533D01*
X18733128Y12609718D01*
X18733127Y12609719D01*
X18733126Y12609719D01*
X18600000Y12630804D01*
X18466874Y12609719D01*
X18466872Y12609719D01*
X18466871Y12609718D01*
X18346786Y12548533D01*
X18346779Y12548528D01*
X18251472Y12453221D01*
X18251469Y12453216D01*
X18238243Y12427256D01*
X18209726Y12402899D01*
X18194583Y12400500D01*
X17390901Y12400500D01*
X17356253Y12414852D01*
X17341901Y12449500D01*
X17347242Y12471745D01*
X17388065Y12551867D01*
X17409719Y12594365D01*
X17430804Y12727491D01*
X17409719Y12860617D01*
X17389322Y12900649D01*
X17348532Y12980705D01*
X17348527Y12980712D01*
X17253220Y13076019D01*
X17253213Y13076024D01*
X17133128Y13137209D01*
X17133127Y13137210D01*
X17133126Y13137210D01*
X17000000Y13158295D01*
X16866874Y13137210D01*
X16866872Y13137210D01*
X16866871Y13137209D01*
X16746786Y13076024D01*
X16746779Y13076019D01*
X16651472Y12980712D01*
X16651467Y12980705D01*
X16590282Y12860620D01*
X16590281Y12860619D01*
X16590281Y12860617D01*
X16569196Y12727491D01*
X16590281Y12594365D01*
X16590281Y12594364D01*
X16590282Y12594363D01*
X16652758Y12471745D01*
X16655701Y12434358D01*
X16631344Y12405841D01*
X16609099Y12400500D01*
X14560436Y12400500D01*
X14484010Y12380021D01*
X14484008Y12380021D01*
X14415887Y12340690D01*
X14415886Y12340691D01*
X14415492Y12340463D01*
X14415488Y12340460D01*
X13959541Y11884512D01*
X13959540Y11884512D01*
X13919979Y11815992D01*
X13919979Y11815990D01*
X13901404Y11746672D01*
X13878573Y11716919D01*
X13841391Y11712025D01*
X13811638Y11734856D01*
X13807471Y11744218D01*
X13806745Y11746450D01*
X13806745Y11746454D01*
X13806634Y11746672D01*
X13745558Y11866542D01*
X13745553Y11866549D01*
X13650249Y11961853D01*
X13650246Y11961856D01*
X13650241Y11961859D01*
X13650239Y11961860D01*
X13649474Y11962250D01*
X13649100Y11962688D01*
X13647126Y11964122D01*
X13647470Y11964597D01*
X13625120Y11990769D01*
X13628066Y12028156D01*
X13649480Y12049567D01*
X13653220Y12051472D01*
X13748528Y12146780D01*
X13758766Y12166872D01*
X13798770Y12245386D01*
X13809719Y12266874D01*
X13830804Y12400000D01*
X13809719Y12533126D01*
X13778516Y12594365D01*
X13748532Y12653214D01*
X13748527Y12653221D01*
X13653220Y12748528D01*
X13653213Y12748533D01*
X13533128Y12809718D01*
X13533127Y12809719D01*
X13533126Y12809719D01*
X13400000Y12830804D01*
X13266874Y12809719D01*
X13266872Y12809719D01*
X13266871Y12809718D01*
X13146786Y12748533D01*
X13146779Y12748528D01*
X13051472Y12653221D01*
X13051467Y12653214D01*
X12990282Y12533129D01*
X12990281Y12533128D01*
X12990281Y12533126D01*
X12969196Y12400000D01*
X12990281Y12266874D01*
X12990281Y12266873D01*
X12990282Y12266872D01*
X13051467Y12146787D01*
X13051472Y12146780D01*
X13146780Y12051472D01*
X13147542Y12051084D01*
X13147914Y12050648D01*
X13149904Y12049202D01*
X13149557Y12048725D01*
X13171901Y12022569D01*
X13168963Y11985181D01*
X13147552Y11963765D01*
X13143808Y11961858D01*
X13143802Y11961853D01*
X13048498Y11866549D01*
X13048493Y11866542D01*
X12987308Y11746457D01*
X12987307Y11746456D01*
X12987307Y11746454D01*
X12966222Y11613328D01*
X12987307Y11480202D01*
X12987307Y11480201D01*
X12987308Y11480200D01*
X13048493Y11360115D01*
X13048498Y11360108D01*
X13143805Y11264801D01*
X13143812Y11264796D01*
X13223868Y11224006D01*
X13263900Y11203609D01*
X13397026Y11182524D01*
X13530152Y11203609D01*
X13613446Y11246050D01*
X13650239Y11264796D01*
X13650241Y11264798D01*
X13650246Y11264800D01*
X13745554Y11360108D01*
X13795507Y11458145D01*
X13806841Y11480390D01*
X13835358Y11504747D01*
X13872745Y11501804D01*
X13897102Y11473287D01*
X13899500Y11458145D01*
X13899500Y10595735D01*
X13885148Y10561087D01*
X13850500Y10546735D01*
X13815852Y10561087D01*
X13802103Y10588069D01*
X13799719Y10603126D01*
X13779322Y10643158D01*
X13738532Y10723214D01*
X13738527Y10723221D01*
X13643220Y10818528D01*
X13643213Y10818533D01*
X13523128Y10879718D01*
X13523127Y10879719D01*
X13523126Y10879719D01*
X13390000Y10900804D01*
X13256874Y10879719D01*
X13256872Y10879719D01*
X13256871Y10879718D01*
X13136786Y10818533D01*
X13136779Y10818528D01*
X13041472Y10723221D01*
X13041467Y10723214D01*
X12980282Y10603129D01*
X12980281Y10603128D01*
X12980281Y10603126D01*
X12959196Y10470000D01*
X12980281Y10336874D01*
X12980281Y10336873D01*
X12980282Y10336872D01*
X13041467Y10216787D01*
X13041472Y10216780D01*
X13136780Y10121472D01*
X13176738Y10101112D01*
X13201095Y10072596D01*
X13198153Y10035208D01*
X13176740Y10013794D01*
X13162530Y10006554D01*
X13146780Y9998528D01*
X13146778Y9998527D01*
X13146776Y9998525D01*
X13051472Y9903221D01*
X13051467Y9903214D01*
X12990282Y9783129D01*
X12990281Y9783128D01*
X12990281Y9783126D01*
X12969196Y9650000D01*
X12990281Y9516874D01*
X12990281Y9516873D01*
X12990282Y9516872D01*
X13051467Y9396787D01*
X13051472Y9396780D01*
X13146779Y9301473D01*
X13146786Y9301468D01*
X13214641Y9266895D01*
X13266874Y9240281D01*
X13400000Y9219196D01*
X13533126Y9240281D01*
X13616420Y9282722D01*
X13653213Y9301468D01*
X13653215Y9301470D01*
X13653220Y9301472D01*
X13748528Y9396780D01*
X13795507Y9488980D01*
X13806841Y9511225D01*
X13835358Y9535582D01*
X13872745Y9532639D01*
X13897102Y9504122D01*
X13899500Y9488980D01*
X13899500Y7902326D01*
X13885148Y7867678D01*
X13850500Y7853326D01*
X13815852Y7867678D01*
X13806841Y7880081D01*
X13770860Y7950698D01*
X13770855Y7950705D01*
X13675548Y8046012D01*
X13675541Y8046017D01*
X13555456Y8107202D01*
X13555455Y8107203D01*
X13555454Y8107203D01*
X13422328Y8128288D01*
X13289202Y8107203D01*
X13289200Y8107203D01*
X13289199Y8107202D01*
X13169114Y8046017D01*
X13169107Y8046012D01*
X13073800Y7950705D01*
X13073795Y7950698D01*
X13012610Y7830613D01*
X13012609Y7830612D01*
X13012609Y7830610D01*
X12991524Y7697484D01*
X13012609Y7564358D01*
X13012609Y7564357D01*
X13012610Y7564356D01*
X13073795Y7444271D01*
X13073800Y7444264D01*
X13169107Y7348957D01*
X13169114Y7348952D01*
X13243954Y7310820D01*
X13289202Y7287765D01*
X13422328Y7266680D01*
X13555454Y7287765D01*
X13654283Y7338121D01*
X13675541Y7348952D01*
X13675543Y7348954D01*
X13675548Y7348956D01*
X13770856Y7444264D01*
X13806841Y7514890D01*
X13835358Y7539245D01*
X13872745Y7536303D01*
X13897102Y7507785D01*
X13899500Y7492643D01*
X13899500Y6115480D01*
X13885148Y6080832D01*
X13850500Y6066480D01*
X13828255Y6071820D01*
X13793126Y6089719D01*
X13660000Y6110804D01*
X13526874Y6089719D01*
X13526872Y6089719D01*
X13526871Y6089718D01*
X13406786Y6028533D01*
X13406779Y6028528D01*
X13311472Y5933221D01*
X13311467Y5933214D01*
X13250282Y5813129D01*
X13250281Y5813128D01*
X13250281Y5813126D01*
X13229196Y5680000D01*
X13250281Y5546874D01*
X13250281Y5546873D01*
X13250282Y5546872D01*
X13311467Y5426787D01*
X13311472Y5426780D01*
X13406779Y5331473D01*
X13406786Y5331468D01*
X13485969Y5291123D01*
X13526874Y5270281D01*
X13660000Y5249196D01*
X13793126Y5270281D01*
X13828254Y5288181D01*
X13865641Y5291123D01*
X13894159Y5266767D01*
X13899500Y5244521D01*
X13899500Y4844767D01*
X13885148Y4810119D01*
X13189881Y4114852D01*
X13155233Y4100500D01*
X12321544Y4100500D01*
X12286896Y4114852D01*
X12253220Y4148528D01*
X12253213Y4148533D01*
X12133128Y4209718D01*
X12133127Y4209719D01*
X12133126Y4209719D01*
X12000000Y4230804D01*
X11866874Y4209719D01*
X11866872Y4209719D01*
X11866871Y4209718D01*
X11746786Y4148533D01*
X11746779Y4148528D01*
X11651472Y4053221D01*
X11651467Y4053214D01*
X11590282Y3933129D01*
X11590281Y3933128D01*
X11590281Y3933126D01*
X11569196Y3800000D01*
X4824971Y3800000D01*
X3909852Y4715119D01*
X3895500Y4749767D01*
X3895500Y5750000D01*
X8169196Y5750000D01*
X8190281Y5616874D01*
X8190281Y5616873D01*
X8190282Y5616872D01*
X8251467Y5496787D01*
X8251472Y5496780D01*
X8338604Y5409648D01*
X8352956Y5375000D01*
X8338604Y5340352D01*
X8251472Y5253221D01*
X8251467Y5253214D01*
X8190282Y5133129D01*
X8190281Y5133128D01*
X8190281Y5133126D01*
X8169196Y5000000D01*
X8190281Y4866874D01*
X8190281Y4866873D01*
X8190282Y4866872D01*
X8251467Y4746787D01*
X8251472Y4746780D01*
X8346779Y4651473D01*
X8346786Y4651468D01*
X8422552Y4612864D01*
X8466874Y4590281D01*
X8600000Y4569196D01*
X8733126Y4590281D01*
X8816420Y4632722D01*
X8853213Y4651468D01*
X8853215Y4651470D01*
X8853220Y4651472D01*
X8948528Y4746780D01*
X9009719Y4866874D01*
X9030804Y5000000D01*
X9009719Y5133126D01*
X8989322Y5173158D01*
X8948532Y5253214D01*
X8948527Y5253221D01*
X8861396Y5340352D01*
X8847044Y5375000D01*
X8861396Y5409648D01*
X8878535Y5426787D01*
X8948528Y5496780D01*
X9009719Y5616874D01*
X9030804Y5750000D01*
X9009719Y5883126D01*
X8984194Y5933221D01*
X8948532Y6003214D01*
X8948527Y6003221D01*
X8901748Y6050000D01*
X9650000Y6050000D01*
X10450000Y6050000D01*
X10450000Y7600000D01*
X11300000Y7600000D01*
X11300000Y8000000D01*
X10450000Y8000000D01*
X9650000Y8000000D01*
X9650000Y6050000D01*
X8901748Y6050000D01*
X8853220Y6098528D01*
X8853213Y6098533D01*
X8733128Y6159718D01*
X8733127Y6159719D01*
X8733126Y6159719D01*
X8600000Y6180804D01*
X8466874Y6159719D01*
X8466872Y6159719D01*
X8466871Y6159718D01*
X8346786Y6098533D01*
X8346779Y6098528D01*
X8251472Y6003221D01*
X8251467Y6003214D01*
X8190282Y5883129D01*
X8190281Y5883128D01*
X8190281Y5883126D01*
X8169196Y5750000D01*
X3895500Y5750000D01*
X3895500Y7182334D01*
X4454415Y7182334D01*
X4454415Y7037377D01*
X4491931Y6897367D01*
X4491932Y6897363D01*
X4522408Y6844578D01*
X4564408Y6771832D01*
X4666905Y6669335D01*
X4712852Y6642808D01*
X4792435Y6596860D01*
X4792437Y6596860D01*
X4792438Y6596859D01*
X4812942Y6591365D01*
X4932449Y6559342D01*
X4932452Y6559342D01*
X5077406Y6559342D01*
X5147411Y6578101D01*
X5217418Y6596859D01*
X5342951Y6669335D01*
X5445448Y6771832D01*
X5517924Y6897365D01*
X5544487Y6996498D01*
X5555441Y7037377D01*
X5555441Y7182334D01*
X5517924Y7322344D01*
X5517923Y7322348D01*
X5457328Y7427301D01*
X5445448Y7447878D01*
X5342951Y7550375D01*
X5217420Y7622851D01*
X5217416Y7622852D01*
X5077407Y7660368D01*
X5077404Y7660368D01*
X4932452Y7660368D01*
X4932449Y7660368D01*
X4792439Y7622852D01*
X4792435Y7622851D01*
X4666904Y7550375D01*
X4666904Y7550374D01*
X4564409Y7447879D01*
X4564408Y7447879D01*
X4491932Y7322348D01*
X4491931Y7322344D01*
X4454415Y7182334D01*
X3895500Y7182334D01*
X3895500Y9391268D01*
X4369196Y9391268D01*
X4390281Y9258142D01*
X4390281Y9258141D01*
X4390282Y9258140D01*
X4451467Y9138055D01*
X4451472Y9138048D01*
X4546779Y9042741D01*
X4546786Y9042736D01*
X4626842Y9001946D01*
X4666874Y8981549D01*
X4800000Y8960464D01*
X4933126Y8981549D01*
X5028772Y9030283D01*
X5053213Y9042736D01*
X5053215Y9042738D01*
X5053220Y9042740D01*
X5086896Y9076416D01*
X5121544Y9090768D01*
X7475854Y9090768D01*
X7498100Y9085427D01*
X7606330Y9030281D01*
X7739456Y9009196D01*
X7872582Y9030281D01*
X7963127Y9076416D01*
X7992669Y9091468D01*
X7992671Y9091470D01*
X7992676Y9091472D01*
X8087984Y9186780D01*
X8149175Y9306874D01*
X8170260Y9440000D01*
X8149175Y9573126D01*
X8127624Y9615422D01*
X10943774Y9615422D01*
X10964859Y9482296D01*
X10964859Y9482295D01*
X10964860Y9482294D01*
X11026045Y9362209D01*
X11026050Y9362202D01*
X11121357Y9266895D01*
X11121364Y9266890D01*
X11201420Y9226100D01*
X11241452Y9205703D01*
X11374578Y9184618D01*
X11507704Y9205703D01*
X11590998Y9248144D01*
X11627791Y9266890D01*
X11627793Y9266892D01*
X11627798Y9266894D01*
X11723106Y9362202D01*
X11784297Y9482296D01*
X11805382Y9615422D01*
X11784297Y9748548D01*
X11763800Y9788776D01*
X11723110Y9868636D01*
X11723105Y9868643D01*
X11627798Y9963950D01*
X11627791Y9963955D01*
X11561618Y9997671D01*
X11537261Y10026188D01*
X11540204Y10063575D01*
X11561615Y10084988D01*
X11633220Y10121472D01*
X11728528Y10216780D01*
X11789719Y10336874D01*
X11810804Y10470000D01*
X11789719Y10603126D01*
X11769322Y10643158D01*
X11728532Y10723214D01*
X11728527Y10723221D01*
X11633220Y10818528D01*
X11633213Y10818533D01*
X11513128Y10879718D01*
X11513127Y10879719D01*
X11513126Y10879719D01*
X11380000Y10900804D01*
X11246874Y10879719D01*
X11246872Y10879719D01*
X11246871Y10879718D01*
X11126786Y10818533D01*
X11126779Y10818528D01*
X11031472Y10723221D01*
X11031467Y10723214D01*
X10970282Y10603129D01*
X10970281Y10603128D01*
X10970281Y10603126D01*
X10949196Y10470000D01*
X10970281Y10336874D01*
X10970281Y10336873D01*
X10970282Y10336872D01*
X11031467Y10216787D01*
X11031472Y10216780D01*
X11126779Y10121473D01*
X11126786Y10121468D01*
X11192958Y10087752D01*
X11217315Y10059235D01*
X11214372Y10021848D01*
X11192959Y10000434D01*
X11121362Y9963954D01*
X11121357Y9963950D01*
X11026050Y9868643D01*
X11026045Y9868636D01*
X10964860Y9748551D01*
X10964859Y9748550D01*
X10964859Y9748548D01*
X10943774Y9615422D01*
X8127624Y9615422D01*
X8087988Y9693214D01*
X8087983Y9693221D01*
X7992676Y9788528D01*
X7992669Y9788533D01*
X7872584Y9849718D01*
X7872583Y9849719D01*
X7872582Y9849719D01*
X7739456Y9870804D01*
X7606330Y9849719D01*
X7606328Y9849719D01*
X7606327Y9849718D01*
X7486242Y9788533D01*
X7486235Y9788528D01*
X7403828Y9706120D01*
X7369180Y9691768D01*
X5121544Y9691768D01*
X5086896Y9706120D01*
X5053220Y9739796D01*
X5053213Y9739801D01*
X4933128Y9800986D01*
X4933127Y9800987D01*
X4933126Y9800987D01*
X4800000Y9822072D01*
X4666874Y9800987D01*
X4666872Y9800987D01*
X4666871Y9800986D01*
X4546786Y9739801D01*
X4546779Y9739796D01*
X4451472Y9644489D01*
X4451467Y9644482D01*
X4390282Y9524397D01*
X4390281Y9524396D01*
X4390281Y9524394D01*
X4369196Y9391268D01*
X3895500Y9391268D01*
X3895500Y10836097D01*
X4365879Y10836097D01*
X4386964Y10702971D01*
X4386964Y10702970D01*
X4386965Y10702969D01*
X4448150Y10582884D01*
X4448155Y10582877D01*
X4543462Y10487570D01*
X4543469Y10487565D01*
X4623525Y10446775D01*
X4663557Y10426378D01*
X4796683Y10405293D01*
X4929809Y10426378D01*
X5015422Y10470000D01*
X5049896Y10487565D01*
X5049898Y10487567D01*
X5049903Y10487569D01*
X5083579Y10521245D01*
X5118227Y10535597D01*
X8792359Y10535597D01*
X8827007Y10521245D01*
X8846779Y10501473D01*
X8846786Y10501468D01*
X8908547Y10470000D01*
X8966874Y10440281D01*
X9100000Y10419196D01*
X9233126Y10440281D01*
X9325936Y10487570D01*
X9353213Y10501468D01*
X9353215Y10501470D01*
X9353220Y10501472D01*
X9448528Y10596780D01*
X9451762Y10603126D01*
X9467278Y10633580D01*
X9509719Y10716874D01*
X9530804Y10850000D01*
X9509719Y10983126D01*
X9473099Y11054997D01*
X9448532Y11103214D01*
X9448527Y11103221D01*
X9353220Y11198528D01*
X9353213Y11198533D01*
X9233128Y11259718D01*
X9233127Y11259719D01*
X9233126Y11259719D01*
X9100000Y11280804D01*
X8966874Y11259719D01*
X8966872Y11259719D01*
X8966871Y11259718D01*
X8846786Y11198533D01*
X8846779Y11198528D01*
X8799201Y11150949D01*
X8764553Y11136597D01*
X5118227Y11136597D01*
X5083579Y11150949D01*
X5049903Y11184625D01*
X5049896Y11184630D01*
X4929811Y11245815D01*
X4929810Y11245816D01*
X4929809Y11245816D01*
X4796683Y11266901D01*
X4663557Y11245816D01*
X4663555Y11245816D01*
X4663554Y11245815D01*
X4543469Y11184630D01*
X4543462Y11184625D01*
X4448155Y11089318D01*
X4448150Y11089311D01*
X4386965Y10969226D01*
X4386964Y10969225D01*
X4386964Y10969223D01*
X4365879Y10836097D01*
X3895500Y10836097D01*
X3895500Y12962370D01*
X4454415Y12962370D01*
X4454415Y12817413D01*
X4491931Y12677403D01*
X4491932Y12677399D01*
X4540133Y12593914D01*
X4564408Y12551868D01*
X4666905Y12449371D01*
X4705210Y12427256D01*
X4792435Y12376896D01*
X4792437Y12376896D01*
X4792438Y12376895D01*
X4827441Y12367516D01*
X4932449Y12339378D01*
X4932452Y12339378D01*
X5077406Y12339378D01*
X5147411Y12358137D01*
X5217418Y12376895D01*
X5222833Y12380021D01*
X5258303Y12400500D01*
X5342951Y12449371D01*
X5445448Y12551868D01*
X5469723Y12593914D01*
X11235323Y12593914D01*
X11256408Y12460788D01*
X11256408Y12460787D01*
X11256409Y12460786D01*
X11317594Y12340701D01*
X11317599Y12340694D01*
X11412906Y12245387D01*
X11412913Y12245382D01*
X11492969Y12204592D01*
X11533001Y12184195D01*
X11666127Y12163110D01*
X11799253Y12184195D01*
X11882547Y12226636D01*
X11919340Y12245382D01*
X11919342Y12245384D01*
X11919347Y12245386D01*
X12014655Y12340694D01*
X12014658Y12340702D01*
X12016282Y12342934D01*
X12048260Y12362526D01*
X12084727Y12353769D01*
X12104319Y12321791D01*
X12104922Y12314129D01*
X12104922Y7166122D01*
X12090570Y7131474D01*
X12056894Y7097799D01*
X12056889Y7097792D01*
X11995704Y6977707D01*
X11995703Y6977706D01*
X11995703Y6977704D01*
X11974618Y6844578D01*
X11995703Y6711452D01*
X11995703Y6711451D01*
X11995704Y6711450D01*
X12056889Y6591365D01*
X12056894Y6591358D01*
X12152201Y6496051D01*
X12152208Y6496046D01*
X12232264Y6455256D01*
X12272296Y6434859D01*
X12405422Y6413774D01*
X12538548Y6434859D01*
X12621842Y6477300D01*
X12658635Y6496046D01*
X12658637Y6496048D01*
X12658642Y6496050D01*
X12753950Y6591358D01*
X12756754Y6596860D01*
X12793681Y6669335D01*
X12815141Y6711452D01*
X12836226Y6844578D01*
X12815141Y6977704D01*
X12784735Y7037379D01*
X12753954Y7097792D01*
X12753949Y7097799D01*
X12720274Y7131474D01*
X12705922Y7166122D01*
X12705922Y12892330D01*
X12720274Y12926978D01*
X12754922Y12941330D01*
X12777166Y12935990D01*
X12866874Y12890281D01*
X13000000Y12869196D01*
X13133126Y12890281D01*
X13222833Y12935989D01*
X13253213Y12951468D01*
X13253215Y12951470D01*
X13253220Y12951472D01*
X13348528Y13046780D01*
X13409719Y13166874D01*
X13430804Y13300000D01*
X13409719Y13433126D01*
X13363706Y13523432D01*
X13348532Y13553214D01*
X13348527Y13553221D01*
X13286396Y13615352D01*
X13272044Y13650000D01*
X13286396Y13684648D01*
X13304922Y13703174D01*
X13348528Y13746780D01*
X13375645Y13800000D01*
X20569196Y13800000D01*
X20590281Y13666874D01*
X20590281Y13666873D01*
X20590282Y13666872D01*
X20651467Y13546787D01*
X20651472Y13546780D01*
X20746779Y13451473D01*
X20746786Y13451468D01*
X20826842Y13410678D01*
X20866874Y13390281D01*
X21000000Y13369196D01*
X21133126Y13390281D01*
X21232984Y13441161D01*
X21253213Y13451468D01*
X21253215Y13451470D01*
X21253220Y13451472D01*
X21348528Y13546780D01*
X21351807Y13553214D01*
X21396797Y13641514D01*
X21409719Y13666874D01*
X21430804Y13800000D01*
X21409719Y13933126D01*
X21375645Y14000000D01*
X21348532Y14053214D01*
X21348527Y14053221D01*
X21253220Y14148528D01*
X21253213Y14148533D01*
X21133128Y14209718D01*
X21133127Y14209719D01*
X21133126Y14209719D01*
X21000000Y14230804D01*
X20866874Y14209719D01*
X20866872Y14209719D01*
X20866871Y14209718D01*
X20746786Y14148533D01*
X20746779Y14148528D01*
X20651472Y14053221D01*
X20651467Y14053214D01*
X20590282Y13933129D01*
X20590281Y13933128D01*
X20590281Y13933126D01*
X20569196Y13800000D01*
X13375645Y13800000D01*
X13409719Y13866874D01*
X13430804Y14000000D01*
X13409719Y14133126D01*
X13380596Y14190283D01*
X13348532Y14253214D01*
X13348526Y14253222D01*
X13253220Y14348528D01*
X13253213Y14348533D01*
X13133128Y14409718D01*
X13133127Y14409719D01*
X13133126Y14409719D01*
X13000000Y14430804D01*
X12999999Y14430804D01*
X12873697Y14410800D01*
X12837230Y14419555D01*
X12817635Y14451532D01*
X12817635Y14466854D01*
X12830804Y14550000D01*
X12822885Y14600000D01*
X17069196Y14600000D01*
X17090281Y14466874D01*
X17090281Y14466873D01*
X17090282Y14466872D01*
X17151467Y14346787D01*
X17151472Y14346780D01*
X17246779Y14251473D01*
X17246786Y14251468D01*
X17326842Y14210678D01*
X17366874Y14190281D01*
X17500000Y14169196D01*
X17633126Y14190281D01*
X17716420Y14232722D01*
X17753213Y14251468D01*
X17753215Y14251470D01*
X17753220Y14251472D01*
X17848528Y14346780D01*
X17849422Y14348533D01*
X17867278Y14383580D01*
X17909719Y14466874D01*
X17930804Y14600000D01*
X18719196Y14600000D01*
X18740281Y14466874D01*
X18740281Y14466873D01*
X18740282Y14466872D01*
X18801467Y14346787D01*
X18801472Y14346780D01*
X18896779Y14251473D01*
X18896786Y14251468D01*
X18976842Y14210678D01*
X19016874Y14190281D01*
X19150000Y14169196D01*
X19283126Y14190281D01*
X19366420Y14232722D01*
X19403213Y14251468D01*
X19403215Y14251470D01*
X19403220Y14251472D01*
X19498528Y14346780D01*
X19499422Y14348533D01*
X19517278Y14383580D01*
X19559719Y14466874D01*
X19580804Y14600000D01*
X19559719Y14733126D01*
X19533491Y14784601D01*
X19498532Y14853214D01*
X19498527Y14853221D01*
X19403220Y14948528D01*
X19403213Y14948533D01*
X19283128Y15009718D01*
X19283127Y15009719D01*
X19283126Y15009719D01*
X19150000Y15030804D01*
X19016874Y15009719D01*
X19016872Y15009719D01*
X19016871Y15009718D01*
X18896786Y14948533D01*
X18896779Y14948528D01*
X18801472Y14853221D01*
X18801467Y14853214D01*
X18740282Y14733129D01*
X18740281Y14733128D01*
X18740281Y14733126D01*
X18719196Y14600000D01*
X17930804Y14600000D01*
X17909719Y14733126D01*
X17883491Y14784601D01*
X17848532Y14853214D01*
X17848527Y14853221D01*
X17753220Y14948528D01*
X17753213Y14948533D01*
X17633128Y15009718D01*
X17633127Y15009719D01*
X17633126Y15009719D01*
X17500000Y15030804D01*
X17366874Y15009719D01*
X17366872Y15009719D01*
X17366871Y15009718D01*
X17246786Y14948533D01*
X17246779Y14948528D01*
X17151472Y14853221D01*
X17151467Y14853214D01*
X17090282Y14733129D01*
X17090281Y14733128D01*
X17090281Y14733126D01*
X17069196Y14600000D01*
X12822885Y14600000D01*
X12809719Y14683126D01*
X12771791Y14757564D01*
X12748532Y14803214D01*
X12748527Y14803221D01*
X12653220Y14898528D01*
X12653213Y14898533D01*
X12533128Y14959718D01*
X12533127Y14959719D01*
X12533126Y14959719D01*
X12400000Y14980804D01*
X12266874Y14959719D01*
X12266872Y14959719D01*
X12266871Y14959718D01*
X12146786Y14898533D01*
X12146779Y14898528D01*
X12051472Y14803221D01*
X12051467Y14803214D01*
X11990282Y14683129D01*
X11990281Y14683128D01*
X11990281Y14683126D01*
X11983050Y14637470D01*
X11969196Y14550000D01*
X11982364Y14466862D01*
X11973609Y14430395D01*
X11941632Y14410800D01*
X11926302Y14410800D01*
X11800000Y14430804D01*
X11666874Y14409719D01*
X11666872Y14409719D01*
X11666871Y14409718D01*
X11546786Y14348533D01*
X11546779Y14348528D01*
X11451474Y14253222D01*
X11451467Y14253214D01*
X11390282Y14133129D01*
X11390281Y14133128D01*
X11390281Y14133126D01*
X11369196Y14000000D01*
X11390281Y13866874D01*
X11390281Y13866873D01*
X11390282Y13866872D01*
X11451467Y13746787D01*
X11451472Y13746780D01*
X11546779Y13651473D01*
X11546786Y13651468D01*
X11608349Y13620101D01*
X11666874Y13590281D01*
X11800000Y13569196D01*
X11933126Y13590281D01*
X12033676Y13641515D01*
X12071064Y13644457D01*
X12099581Y13620101D01*
X12104922Y13597855D01*
X12104922Y12873700D01*
X12090570Y12839052D01*
X12055922Y12824700D01*
X12021274Y12839052D01*
X12016285Y12844892D01*
X12014656Y12847133D01*
X11919347Y12942442D01*
X11919340Y12942447D01*
X11799255Y13003632D01*
X11799254Y13003633D01*
X11799253Y13003633D01*
X11666127Y13024718D01*
X11533001Y13003633D01*
X11532999Y13003633D01*
X11532998Y13003632D01*
X11412913Y12942447D01*
X11412906Y12942442D01*
X11317599Y12847135D01*
X11317594Y12847128D01*
X11256409Y12727043D01*
X11256408Y12727042D01*
X11256408Y12727040D01*
X11235323Y12593914D01*
X5469723Y12593914D01*
X5517924Y12677401D01*
X5544820Y12777776D01*
X5555441Y12817413D01*
X5555441Y12962370D01*
X5517924Y13102380D01*
X5517923Y13102384D01*
X5445447Y13227915D01*
X5342951Y13330411D01*
X5217420Y13402887D01*
X5217416Y13402888D01*
X5077407Y13440404D01*
X5077404Y13440404D01*
X4932452Y13440404D01*
X4932449Y13440404D01*
X4792439Y13402888D01*
X4792435Y13402887D01*
X4666904Y13330411D01*
X4666904Y13330410D01*
X4564409Y13227915D01*
X4564408Y13227915D01*
X4491932Y13102384D01*
X4491931Y13102380D01*
X4454415Y12962370D01*
X3895500Y12962370D01*
X3895500Y15300234D01*
X3909851Y15334881D01*
X5290934Y16715965D01*
X5325581Y16730316D01*
X5333237Y16729714D01*
X5401705Y16718869D01*
X5534831Y16739954D01*
X5618125Y16782395D01*
X5654918Y16801141D01*
X5654920Y16801143D01*
X5654925Y16801145D01*
X5750233Y16896453D01*
X5811424Y17016547D01*
X5832509Y17149673D01*
X5811424Y17282799D01*
X5788318Y17328148D01*
X5750237Y17402887D01*
X5750232Y17402894D01*
X5654925Y17498201D01*
X5654918Y17498206D01*
X5534833Y17559391D01*
X5534832Y17559392D01*
X5534831Y17559392D01*
X5401705Y17580477D01*
X5268579Y17559392D01*
X5268577Y17559392D01*
X5268576Y17559391D01*
X5148491Y17498206D01*
X5148484Y17498201D01*
X5053177Y17402894D01*
X5053172Y17402887D01*
X4991987Y17282805D01*
X4991985Y17282798D01*
X4991494Y17279696D01*
X4977746Y17252719D01*
X3410489Y15685460D01*
X3354541Y15629512D01*
X3354540Y15629512D01*
X3314979Y15560992D01*
X3314979Y15560990D01*
X3294500Y15484564D01*
X3294500Y4565438D01*
X3294499Y4565438D01*
X0Y4565438D01*
X0Y17928346D01*
X2Y17928783D01*
X444Y17978325D01*
X637Y18000001D01*
X952528Y18000001D01*
X952528Y18000000D01*
X974878Y17773072D01*
X983755Y17759055D01*
X990183Y17737865D01*
X1032262Y17599150D01*
X1032265Y17599145D01*
X1032266Y17599142D01*
X1129057Y17418057D01*
X1129778Y17417086D01*
X1130582Y17416198D01*
X1259323Y17259327D01*
X1259326Y17259324D01*
X1416197Y17130583D01*
X1417085Y17129778D01*
X1418055Y17129059D01*
X1418056Y17129058D01*
X1599150Y17032262D01*
X1759054Y16983756D01*
X1769434Y16975238D01*
X1795644Y16972657D01*
X1795649Y16972655D01*
X1795648Y16972655D01*
X2000000Y16952528D01*
X2204352Y16972655D01*
X2204351Y16972655D01*
X2204353Y16972656D01*
X2226926Y16974879D01*
X2240943Y16983756D01*
X2400850Y17032262D01*
X2581944Y17129058D01*
X2581945Y17129059D01*
X2581951Y17129065D01*
X2582905Y17129772D01*
X2583790Y17130574D01*
X2740675Y17259325D01*
X2869426Y17416210D01*
X2870228Y17417095D01*
X2870941Y17418055D01*
X2870942Y17418056D01*
X2967738Y17599150D01*
X3009817Y17737865D01*
X6475576Y17737865D01*
X6496661Y17604739D01*
X6496661Y17604738D01*
X6496662Y17604737D01*
X6557847Y17484652D01*
X6557852Y17484645D01*
X6653159Y17389338D01*
X6653166Y17389333D01*
X6733222Y17348543D01*
X6773254Y17328146D01*
X6906380Y17307061D01*
X7039506Y17328146D01*
X7122800Y17370587D01*
X7159593Y17389333D01*
X7159595Y17389335D01*
X7159600Y17389337D01*
X7162998Y17392735D01*
X7197646Y17407087D01*
X7232294Y17392735D01*
X7535148Y17089881D01*
X7549500Y17055233D01*
X7549500Y13510437D01*
X7569978Y13434013D01*
X7569979Y13434009D01*
X7601815Y13378870D01*
X7601816Y13378868D01*
X7609537Y13365493D01*
X7609539Y13365491D01*
X7609540Y13365489D01*
X8122861Y12852168D01*
X8170437Y12824700D01*
X8183054Y12817415D01*
X8191384Y12812606D01*
X8251658Y12796456D01*
X8267806Y12792129D01*
X8267807Y12792128D01*
X8267810Y12792128D01*
X8346934Y12792128D01*
X8662879Y12792128D01*
X8697527Y12777776D01*
X8731202Y12744101D01*
X8731209Y12744096D01*
X8798679Y12709719D01*
X8851297Y12682909D01*
X8984423Y12661824D01*
X9117549Y12682909D01*
X9211548Y12730804D01*
X9237636Y12744096D01*
X9237638Y12744098D01*
X9237643Y12744100D01*
X9332951Y12839408D01*
X9335746Y12844892D01*
X9358872Y12890281D01*
X9394142Y12959502D01*
X9415227Y13092628D01*
X9394142Y13225754D01*
X9356312Y13300000D01*
X9332955Y13345842D01*
X9332950Y13345849D01*
X9237643Y13441156D01*
X9237636Y13441161D01*
X9117551Y13502346D01*
X9117550Y13502347D01*
X9117549Y13502347D01*
X8984423Y13523432D01*
X8851297Y13502347D01*
X8851295Y13502347D01*
X8851294Y13502346D01*
X8731209Y13441161D01*
X8731202Y13441156D01*
X8697527Y13407480D01*
X8662879Y13393128D01*
X8452139Y13393128D01*
X8417491Y13407480D01*
X8164852Y13660119D01*
X8150500Y13694767D01*
X8150500Y14890690D01*
X9250576Y14890690D01*
X9271661Y14757564D01*
X9271661Y14757563D01*
X9271662Y14757562D01*
X9332847Y14637477D01*
X9332852Y14637470D01*
X9428159Y14542163D01*
X9428166Y14542158D01*
X9508222Y14501368D01*
X9548254Y14480971D01*
X9681380Y14459886D01*
X9814506Y14480971D01*
X9897800Y14523412D01*
X9934593Y14542158D01*
X9934595Y14542160D01*
X9934600Y14542162D01*
X10029908Y14637470D01*
X10049402Y14675731D01*
X10077920Y14700087D01*
X10115307Y14697145D01*
X10136720Y14675732D01*
X10151472Y14646780D01*
X10151475Y14646777D01*
X10246779Y14551473D01*
X10246786Y14551468D01*
X10326842Y14510678D01*
X10366874Y14490281D01*
X10500000Y14469196D01*
X10633126Y14490281D01*
X10716420Y14532722D01*
X10753213Y14551468D01*
X10753215Y14551470D01*
X10753220Y14551472D01*
X10848528Y14646780D01*
X10863280Y14675731D01*
X10906341Y14760244D01*
X10934858Y14784601D01*
X10972245Y14781658D01*
X10993659Y14760244D01*
X11051467Y14646787D01*
X11051472Y14646780D01*
X11146779Y14551473D01*
X11146786Y14551468D01*
X11226842Y14510678D01*
X11266874Y14490281D01*
X11400000Y14469196D01*
X11533126Y14490281D01*
X11616420Y14532722D01*
X11653213Y14551468D01*
X11653215Y14551470D01*
X11653220Y14551472D01*
X11748528Y14646780D01*
X11809719Y14766874D01*
X11830804Y14900000D01*
X11809719Y15033126D01*
X11780432Y15090605D01*
X11748532Y15153214D01*
X11748527Y15153221D01*
X11653220Y15248528D01*
X11653213Y15248533D01*
X11533128Y15309718D01*
X11533127Y15309719D01*
X11533126Y15309719D01*
X11400000Y15330804D01*
X11266874Y15309719D01*
X11266872Y15309719D01*
X11266871Y15309718D01*
X11146786Y15248533D01*
X11146779Y15248528D01*
X11051472Y15153221D01*
X11051467Y15153214D01*
X10993659Y15039757D01*
X10965142Y15015400D01*
X10927755Y15018343D01*
X10906341Y15039757D01*
X10848532Y15153214D01*
X10848527Y15153221D01*
X10753220Y15248528D01*
X10753213Y15248533D01*
X10633128Y15309718D01*
X10633127Y15309719D01*
X10633126Y15309719D01*
X10500000Y15330804D01*
X10366874Y15309719D01*
X10366872Y15309719D01*
X10366871Y15309718D01*
X10246786Y15248533D01*
X10246779Y15248528D01*
X10151472Y15153221D01*
X10151468Y15153216D01*
X10131977Y15114961D01*
X10103460Y15090605D01*
X10066072Y15093548D01*
X10044659Y15114961D01*
X10029911Y15143906D01*
X10029907Y15143911D01*
X9934600Y15239218D01*
X9934593Y15239223D01*
X9814508Y15300408D01*
X9814507Y15300409D01*
X9814506Y15300409D01*
X9681380Y15321494D01*
X9548254Y15300409D01*
X9548252Y15300409D01*
X9548251Y15300408D01*
X9428166Y15239223D01*
X9428159Y15239218D01*
X9332852Y15143911D01*
X9332847Y15143904D01*
X9271662Y15023819D01*
X9271661Y15023818D01*
X9271661Y15023816D01*
X9250576Y14890690D01*
X8150500Y14890690D01*
X8150500Y15590013D01*
X21169209Y15590013D01*
X21190294Y15456887D01*
X21190294Y15456886D01*
X21190295Y15456885D01*
X21251480Y15336800D01*
X21251485Y15336793D01*
X21346792Y15241486D01*
X21346799Y15241481D01*
X21426855Y15200691D01*
X21466887Y15180294D01*
X21600013Y15159209D01*
X21733139Y15180294D01*
X21816433Y15222735D01*
X21853226Y15241481D01*
X21853228Y15241483D01*
X21853233Y15241485D01*
X21948541Y15336793D01*
X22009732Y15456887D01*
X22025773Y15558167D01*
X22045367Y15590142D01*
X22074169Y15599500D01*
X25169564Y15599500D01*
X25196230Y15606646D01*
X25245989Y15619979D01*
X25314511Y15659540D01*
X25314514Y15659544D01*
X25316463Y15661038D01*
X25338627Y15670563D01*
X25463126Y15690281D01*
X25546420Y15732722D01*
X25583213Y15751468D01*
X25583215Y15751470D01*
X25583220Y15751472D01*
X25678528Y15846780D01*
X25739719Y15966874D01*
X25760804Y16100000D01*
X25739719Y16233126D01*
X25705645Y16300000D01*
X25678532Y16353214D01*
X25678527Y16353221D01*
X25583220Y16448528D01*
X25583213Y16448533D01*
X25463128Y16509718D01*
X25463127Y16509719D01*
X25463126Y16509719D01*
X25330000Y16530804D01*
X25196874Y16509719D01*
X25196872Y16509719D01*
X25196871Y16509718D01*
X25076786Y16448533D01*
X25076779Y16448528D01*
X24981472Y16353221D01*
X24981467Y16353214D01*
X24918530Y16229690D01*
X24917250Y16230342D01*
X24896328Y16205842D01*
X24874080Y16200500D01*
X21870436Y16200500D01*
X21794012Y16180022D01*
X21784388Y16174466D01*
X21771240Y16166874D01*
X21771237Y16166872D01*
X21725492Y16140463D01*
X21725490Y16140461D01*
X21618200Y16033172D01*
X21591218Y16019425D01*
X21466887Y15999732D01*
X21466885Y15999732D01*
X21466883Y15999731D01*
X21346799Y15938546D01*
X21346792Y15938541D01*
X21251485Y15843234D01*
X21251480Y15843227D01*
X21190295Y15723142D01*
X21190294Y15723141D01*
X21190294Y15723139D01*
X21169209Y15590013D01*
X8150500Y15590013D01*
X8150500Y16300000D01*
X9569196Y16300000D01*
X9590281Y16166874D01*
X9590281Y16166873D01*
X9590282Y16166872D01*
X9651467Y16046787D01*
X9651472Y16046780D01*
X9746779Y15951473D01*
X9746786Y15951468D01*
X9826842Y15910678D01*
X9866874Y15890281D01*
X10000000Y15869196D01*
X10133126Y15890281D01*
X10227842Y15938541D01*
X10253213Y15951468D01*
X10253215Y15951470D01*
X10253220Y15951472D01*
X10348528Y16046780D01*
X10409719Y16166874D01*
X10430804Y16300000D01*
X10409719Y16433126D01*
X10389322Y16473158D01*
X10348532Y16553214D01*
X10348527Y16553221D01*
X10253220Y16648528D01*
X10253213Y16648533D01*
X10133128Y16709718D01*
X10133127Y16709719D01*
X10133126Y16709719D01*
X10000000Y16730804D01*
X9866874Y16709719D01*
X9866872Y16709719D01*
X9866871Y16709718D01*
X9746786Y16648533D01*
X9746779Y16648528D01*
X9651472Y16553221D01*
X9651467Y16553214D01*
X9590282Y16433129D01*
X9590281Y16433128D01*
X9590281Y16433126D01*
X9569196Y16300000D01*
X8150500Y16300000D01*
X8150500Y17239564D01*
X8138914Y17282799D01*
X8130021Y17315989D01*
X8130020Y17315991D01*
X8130020Y17315992D01*
X8090459Y17384512D01*
X7496646Y17978325D01*
X7474545Y17991085D01*
X7459102Y18000001D01*
X28952528Y18000001D01*
X28952528Y18000000D01*
X28974878Y17773072D01*
X28983755Y17759055D01*
X28990183Y17737865D01*
X29032262Y17599150D01*
X29032265Y17599145D01*
X29032266Y17599142D01*
X29129057Y17418057D01*
X29129778Y17417086D01*
X29130582Y17416198D01*
X29259323Y17259327D01*
X29259326Y17259324D01*
X29416197Y17130583D01*
X29417085Y17129778D01*
X29418055Y17129059D01*
X29418056Y17129058D01*
X29599150Y17032262D01*
X29759054Y16983756D01*
X29769434Y16975238D01*
X29795644Y16972657D01*
X29795649Y16972655D01*
X29795648Y16972655D01*
X30000000Y16952528D01*
X30204352Y16972655D01*
X30204351Y16972655D01*
X30204353Y16972656D01*
X30226926Y16974879D01*
X30240943Y16983756D01*
X30400850Y17032262D01*
X30581944Y17129058D01*
X30581945Y17129059D01*
X30581951Y17129065D01*
X30582905Y17129772D01*
X30583790Y17130574D01*
X30740675Y17259325D01*
X30869426Y17416210D01*
X30870228Y17417095D01*
X30870941Y17418055D01*
X30870942Y17418056D01*
X30967738Y17599150D01*
X31027345Y17795649D01*
X31037405Y17846225D01*
X31048736Y17948417D01*
X31048736Y18051583D01*
X31037405Y18153775D01*
X31027345Y18204351D01*
X30967738Y18400850D01*
X30870942Y18581944D01*
X30870941Y18581945D01*
X30870222Y18582915D01*
X30869417Y18583803D01*
X30740676Y18740674D01*
X30740673Y18740677D01*
X30583802Y18869418D01*
X30582914Y18870222D01*
X30581943Y18870943D01*
X30400858Y18967734D01*
X30400855Y18967735D01*
X30400850Y18967738D01*
X30359354Y18980326D01*
X30240945Y19016245D01*
X30230566Y19024763D01*
X30204351Y19027345D01*
X30204352Y19027345D01*
X30000000Y19047472D01*
X29773071Y19025122D01*
X29759054Y19016245D01*
X29599153Y18967739D01*
X29599150Y18967738D01*
X29599147Y18967737D01*
X29599141Y18967734D01*
X29418056Y18870943D01*
X29417083Y18870222D01*
X29416197Y18869418D01*
X29259326Y18740677D01*
X29259323Y18740674D01*
X29130582Y18583803D01*
X29129778Y18582917D01*
X29129057Y18581944D01*
X29032266Y18400859D01*
X29032261Y18400847D01*
X28983755Y18240946D01*
X28975237Y18230568D01*
X28952528Y18000001D01*
X7459102Y18000001D01*
X7428125Y18017886D01*
X7351699Y18038365D01*
X7351697Y18038365D01*
X7227924Y18038365D01*
X7193276Y18052717D01*
X7159600Y18086393D01*
X7159593Y18086398D01*
X7039508Y18147583D01*
X7039507Y18147584D01*
X7039506Y18147584D01*
X6906380Y18168669D01*
X6773254Y18147584D01*
X6773252Y18147584D01*
X6773251Y18147583D01*
X6653166Y18086398D01*
X6653159Y18086393D01*
X6557852Y17991086D01*
X6557847Y17991079D01*
X6496662Y17870994D01*
X6496661Y17870993D01*
X6496661Y17870991D01*
X6475576Y17737865D01*
X3009817Y17737865D01*
X3027345Y17795649D01*
X3037405Y17846225D01*
X3048736Y17948417D01*
X3048736Y18051583D01*
X3037405Y18153775D01*
X3027345Y18204351D01*
X2967738Y18400850D01*
X2870942Y18581944D01*
X2870941Y18581945D01*
X2870222Y18582915D01*
X2869417Y18583803D01*
X2740676Y18740674D01*
X2740673Y18740677D01*
X2583802Y18869418D01*
X2582914Y18870222D01*
X2581943Y18870943D01*
X2400858Y18967734D01*
X2400855Y18967735D01*
X2400850Y18967738D01*
X2359354Y18980326D01*
X2240945Y19016245D01*
X2230566Y19024763D01*
X2204351Y19027345D01*
X2204352Y19027345D01*
X2000000Y19047472D01*
X1773071Y19025122D01*
X1759054Y19016245D01*
X1599153Y18967739D01*
X1599150Y18967738D01*
X1599147Y18967737D01*
X1599141Y18967734D01*
X1418056Y18870943D01*
X1417083Y18870222D01*
X1416197Y18869418D01*
X1259326Y18740677D01*
X1259323Y18740674D01*
X1130582Y18583803D01*
X1129778Y18582917D01*
X1129057Y18581944D01*
X1032266Y18400859D01*
X1032261Y18400847D01*
X983755Y18240946D01*
X975237Y18230568D01*
X952528Y18000001D01*
X637Y18000001D01*
X1258Y18069689D01*
X1414Y18073172D01*
X7403Y18147583D01*
X12593Y18212070D01*
X12931Y18215079D01*
X22631Y18282548D01*
X23247Y18285962D01*
X82716Y18559336D01*
X84678Y18566021D01*
X181834Y18826503D01*
X184730Y18832843D01*
X317955Y19076826D01*
X321723Y19082692D01*
X488342Y19305269D01*
X492902Y19310530D01*
X689470Y19507098D01*
X694731Y19511658D01*
X917308Y19678277D01*
X923176Y19682046D01*
X1167157Y19815270D01*
X1173497Y19818166D01*
X1433979Y19915322D01*
X1440664Y19917284D01*
X1714038Y19976753D01*
X1717452Y19977369D01*
X1784921Y19987069D01*
X1787930Y19987407D01*
X1926833Y19998587D01*
X1930311Y19998742D01*
X2071218Y19999998D01*
X2071655Y20000000D01*
X29928345Y20000000D01*
X29928782Y19999998D01*
G37*
%TD.AperFunction*%
%TD*%
M02*
