%TF.GenerationSoftware,KiCad,Pcbnew,8.0.8*%
%TF.CreationDate,2025-04-16T19:26:52+02:00*%
%TF.ProjectId,PicoFlash,5069636f-466c-4617-9368-2e6b69636164,1.0*%
%TF.SameCoordinates,Original*%
%TF.FileFunction,Copper,L4,Bot*%
%TF.FilePolarity,Positive*%
%FSLAX46Y46*%
G04 Gerber Fmt 4.6, Leading zero omitted, Abs format (unit mm)*
G04 Created by KiCad (PCBNEW 8.0.8) date 2025-04-16 19:26:52*
%MOMM*%
%LPD*%
G01*
G04 APERTURE LIST*
%TA.AperFunction,ComponentPad*%
%ADD10O,2.000000X1.100000*%
%TD*%
%TA.AperFunction,ComponentPad*%
%ADD11O,1.800000X1.200000*%
%TD*%
%TA.AperFunction,ViaPad*%
%ADD12C,0.450000*%
%TD*%
%TA.AperFunction,Conductor*%
%ADD13C,0.500000*%
%TD*%
%TA.AperFunction,Conductor*%
%ADD14C,0.200000*%
%TD*%
G04 APERTURE END LIST*
D10*
%TO.P,J10,13,SHELL*%
%TO.N,GND*%
X5525121Y14324994D03*
D11*
X1324968Y14324994D03*
D10*
%TO.P,J10,14,SHELL*%
X5525121Y5675006D03*
D11*
X1324968Y5675006D03*
%TD*%
D12*
%TO.N,+3V3*%
X10500000Y14900000D03*
X18586234Y9953261D03*
X17000000Y7700000D03*
X19150000Y14600000D03*
X11800000Y14000000D03*
X9681380Y14890690D03*
X13390000Y10470000D03*
X25550000Y5209398D03*
X11380000Y10470000D03*
X17500000Y14600000D03*
X13660000Y5680000D03*
X20100000Y2450000D03*
X13000000Y13300000D03*
X13422328Y7697484D03*
X19660934Y2969814D03*
X11400000Y14900000D03*
X13000000Y14000000D03*
X24800000Y5209398D03*
X17000000Y12727491D03*
X8600000Y5000000D03*
X10000000Y16300000D03*
X21000000Y13800000D03*
X8600000Y5750000D03*
X13400000Y12400000D03*
%TO.N,GND*%
X31439340Y9939340D03*
X939340Y939340D03*
X19000000Y19500000D03*
X6600000Y6400000D03*
X13000000Y19500000D03*
X20000000Y19500000D03*
X28400000Y5700000D03*
X12460000Y1490000D03*
X500000Y6000000D03*
X500000Y7000000D03*
X6100000Y13600000D03*
X4000000Y500000D03*
X9000000Y500000D03*
X31000000Y19000000D03*
X12000000Y500000D03*
X10000000Y500000D03*
X18600000Y9100000D03*
X28000000Y500000D03*
X17000000Y9000000D03*
X31439340Y3939340D03*
X19135198Y6875000D03*
X19500000Y13750000D03*
X14500000Y1500000D03*
X24150000Y10050000D03*
X20000000Y500000D03*
X27100000Y3000000D03*
X23300000Y9850000D03*
X8000000Y19500000D03*
X5000000Y500000D03*
X25000000Y500000D03*
X10100000Y7100000D03*
X21930000Y12300000D03*
X26000000Y500000D03*
X26200000Y11100000D03*
X500000Y5000000D03*
X27000000Y500000D03*
X30000000Y6900000D03*
X27000000Y19500000D03*
X30000000Y500000D03*
X4000000Y19500000D03*
X16000000Y500000D03*
X18000000Y500000D03*
X22000000Y500000D03*
X15000000Y11000000D03*
X9400000Y1400000D03*
X10150000Y13605627D03*
X15000000Y10000000D03*
X20196203Y3353739D03*
X7125000Y18350000D03*
X31500000Y14000000D03*
X31439340Y12939340D03*
X17000000Y10000000D03*
X31439340Y1939340D03*
X17000000Y19500000D03*
X30000000Y15100000D03*
X9530000Y9440000D03*
X31439340Y10939340D03*
X5400000Y15950000D03*
X12000000Y19500000D03*
X500000Y10000000D03*
X31439340Y8939340D03*
X29000000Y19500000D03*
X2100000Y13000000D03*
X31439340Y17939340D03*
X5600000Y13600000D03*
X10100000Y7700000D03*
X2100000Y9000000D03*
X16000000Y11000000D03*
X19000000Y500000D03*
X13500000Y1500000D03*
X13000000Y500000D03*
X18000000Y19500000D03*
X30000000Y9000000D03*
X18156903Y5700000D03*
X11000000Y500000D03*
X25000000Y19500000D03*
X26200000Y10300000D03*
X6100000Y6400000D03*
X31439340Y7939340D03*
X500000Y16000000D03*
X500000Y2000000D03*
X5399857Y16499673D03*
X500000Y14000000D03*
X21930000Y10750000D03*
X500000Y15000000D03*
X2000000Y500000D03*
X500000Y13000000D03*
X30000000Y19500000D03*
X500000Y3000000D03*
X25000000Y18250000D03*
X6000000Y19500000D03*
X14000000Y19500000D03*
X6000000Y500000D03*
X500000Y17000000D03*
X22000000Y19500000D03*
X23000000Y500000D03*
X2100000Y11000000D03*
X11000000Y19500000D03*
X5399691Y17799673D03*
X15000000Y19500000D03*
X8500000Y1400000D03*
X8000000Y500000D03*
X13449609Y3296768D03*
X3000000Y500000D03*
X30000000Y11000000D03*
X2100000Y7000000D03*
X31439340Y6939340D03*
X26000000Y19500000D03*
X25000000Y10300000D03*
X22700000Y7250000D03*
X24000000Y19500000D03*
X31439340Y11939340D03*
X7000000Y19500000D03*
X31439340Y2939340D03*
X26000000Y17250000D03*
X30000000Y13000000D03*
X2000000Y19500000D03*
X27750000Y16000000D03*
X18870000Y2650000D03*
X15550000Y14600000D03*
X28000000Y19500000D03*
X9930000Y9940000D03*
X14000000Y500000D03*
X5000000Y19500000D03*
X22200000Y14600000D03*
X5600000Y6400000D03*
X7500000Y1400000D03*
X500000Y18000000D03*
X10100000Y6500000D03*
X26400000Y3000000D03*
X31439340Y15939340D03*
X31000000Y878680D03*
X3000000Y19500000D03*
X500000Y9000000D03*
X24000000Y500000D03*
X21000000Y500000D03*
X30000000Y4900000D03*
X21000000Y19500000D03*
X14850000Y14600000D03*
X5400116Y18349675D03*
X500000Y12000000D03*
X15000000Y500000D03*
X16000000Y19500000D03*
X939340Y19060660D03*
X18170000Y5030000D03*
X16000000Y9000000D03*
X500000Y11000000D03*
X500000Y4000000D03*
X17000000Y11000000D03*
X26200000Y11900000D03*
X7740000Y10100000D03*
X15000000Y9000000D03*
X23000000Y19500000D03*
X10000000Y19500000D03*
X12575152Y15467615D03*
X15712463Y7424212D03*
X17000000Y500000D03*
X7200000Y4800000D03*
X31500000Y5000000D03*
X9000000Y19500000D03*
X22675000Y8750000D03*
X16000000Y10000000D03*
X500000Y8000000D03*
X31500000Y6000000D03*
X31500000Y15000000D03*
X6600000Y13600000D03*
X22200000Y13800000D03*
X26200000Y6600000D03*
X7000000Y500000D03*
X31439340Y16939340D03*
X8827180Y13723323D03*
X29000000Y500000D03*
X27100000Y4500000D03*
%TO.N,+1V1*%
X13397026Y11613328D03*
X11374578Y9615422D03*
X18575000Y11403525D03*
X20330729Y11417274D03*
X13400000Y9650000D03*
X11666127Y12593914D03*
%TO.N,/CC2*%
X7739456Y9440000D03*
X4800000Y9391268D03*
%TO.N,/CC1*%
X4796683Y10836097D03*
X9100000Y10850000D03*
%TO.N,BOOTSELECT*%
X12400000Y14550000D03*
X12405422Y6844578D03*
%TO.N,HOST_RESET*%
X25330000Y16100000D03*
X21600013Y15590013D03*
%TO.N,GPIO10*%
X20950000Y12300000D03*
X18575000Y7427301D03*
%TO.N,GPIO8*%
X17645867Y7413589D03*
X21860000Y3320000D03*
%TO.N,GPIO16*%
X12000000Y3800000D03*
X18600000Y12200000D03*
%TO.N,GPIO7*%
X16384275Y7406311D03*
X16384275Y2250000D03*
%TO.N,GPIO15*%
X12000000Y2100000D03*
X18598578Y8400461D03*
%TO.N,/ACT_LED*%
X5401705Y17149673D03*
X6900000Y2909929D03*
%TO.N,/PWR_LED*%
X8984423Y13092628D03*
X6906380Y17737865D03*
%TD*%
D13*
%TO.N,+3V3*%
X13390000Y10470000D02*
X11380000Y10470000D01*
%TO.N,GND*%
X10100000Y6500000D02*
X10100000Y7700000D01*
X14850000Y14600000D02*
X15550000Y14600000D01*
X18156903Y5700000D02*
X18156903Y4956903D01*
X18156903Y4956903D02*
X18150000Y4950000D01*
D14*
X9530000Y9540000D02*
X9930000Y9940000D01*
X9530000Y9440000D02*
X9530000Y9540000D01*
D13*
%TO.N,+1V1*%
X20316980Y11403525D02*
X18575000Y11403525D01*
X13400000Y9650000D02*
X11409156Y9650000D01*
X11666127Y12133873D02*
X12186672Y11613328D01*
X11409156Y9650000D02*
X11374578Y9615422D01*
X20330729Y11417274D02*
X20316980Y11403525D01*
X12186672Y11613328D02*
X13397026Y11613328D01*
X11666127Y12593914D02*
X11666127Y12133873D01*
D14*
%TO.N,/CC2*%
X4800000Y9391268D02*
X4822768Y9368500D01*
%TO.N,/CC1*%
X9100000Y10850000D02*
X9086097Y10836097D01*
%TD*%
%TA.AperFunction,Conductor*%
%TO.N,GND*%
G36*
X20257370Y3566795D02*
G01*
X20271945Y3562058D01*
X20320214Y3537464D01*
X20332617Y3528453D01*
X20370916Y3490154D01*
X20379927Y3477752D01*
X20404518Y3429490D01*
X20409256Y3414909D01*
X20417730Y3361405D01*
X20417730Y3346075D01*
X20409257Y3292573D01*
X20404519Y3277992D01*
X20379926Y3229727D01*
X20370915Y3217325D01*
X20332617Y3179027D01*
X20320214Y3170016D01*
X20271949Y3145424D01*
X20257370Y3140686D01*
X20203870Y3132212D01*
X20188538Y3132212D01*
X20135031Y3140687D01*
X20120452Y3145425D01*
X20072191Y3170015D01*
X20059788Y3179026D01*
X20021487Y3217327D01*
X20012476Y3229729D01*
X19987885Y3277991D01*
X19983147Y3292572D01*
X19978803Y3320000D01*
X19974673Y3346081D01*
X19974673Y3361400D01*
X19983147Y3414909D01*
X19987884Y3429485D01*
X20012477Y3477752D01*
X20021485Y3490152D01*
X20059790Y3528457D01*
X20072190Y3537465D01*
X20120457Y3562058D01*
X20135035Y3566796D01*
X20188542Y3575269D01*
X20203861Y3575269D01*
X20257370Y3566795D01*
G37*
%TD.AperFunction*%
%TA.AperFunction,Conductor*%
G36*
X18195391Y5943331D02*
G01*
X18245236Y5929975D01*
X18257052Y5925081D01*
X18301751Y5899273D01*
X18311898Y5891487D01*
X18348387Y5854998D01*
X18356174Y5844850D01*
X18381980Y5800153D01*
X18386875Y5788336D01*
X18400233Y5738487D01*
X18401903Y5725804D01*
X18401903Y4931102D01*
X18400233Y4918419D01*
X18386875Y4868569D01*
X18381980Y4856752D01*
X18356174Y4812054D01*
X18348387Y4801906D01*
X18304997Y4758516D01*
X18294849Y4750729D01*
X18250151Y4724923D01*
X18238334Y4720028D01*
X18198761Y4709424D01*
X18188487Y4706671D01*
X18175806Y4705001D01*
X18124194Y4705001D01*
X18111511Y4706671D01*
X18097034Y4710551D01*
X18061664Y4720028D01*
X18049847Y4724923D01*
X18005149Y4750729D01*
X17995001Y4758516D01*
X17958511Y4795006D01*
X17950724Y4805154D01*
X17948553Y4808914D01*
X17924922Y4849845D01*
X17920028Y4861659D01*
X17906670Y4911516D01*
X17905001Y4924197D01*
X17905001Y4980827D01*
X17905942Y4990385D01*
X17907624Y4998841D01*
X17910145Y5017992D01*
X17910898Y5029487D01*
X17911903Y5044804D01*
X17911903Y5725808D01*
X17913572Y5738487D01*
X17926930Y5788343D01*
X17931821Y5800149D01*
X17957630Y5844852D01*
X17965410Y5854991D01*
X18001912Y5891493D01*
X18012051Y5899273D01*
X18056753Y5925082D01*
X18068561Y5929973D01*
X18118418Y5943331D01*
X18131099Y5945000D01*
X18182710Y5945000D01*
X18195391Y5943331D01*
G37*
%TD.AperFunction*%
%TA.AperFunction,Conductor*%
G36*
X10138488Y7943331D02*
G01*
X10188333Y7929975D01*
X10200149Y7925081D01*
X10244848Y7899273D01*
X10254995Y7891487D01*
X10291484Y7854998D01*
X10299271Y7844850D01*
X10325078Y7800151D01*
X10329973Y7788334D01*
X10343329Y7738489D01*
X10343330Y7738488D01*
X10345000Y7725805D01*
X10345000Y6474198D01*
X10343330Y6461515D01*
X10329972Y6411667D01*
X10325077Y6399850D01*
X10299271Y6355152D01*
X10291484Y6345004D01*
X10254996Y6308516D01*
X10244848Y6300729D01*
X10200150Y6274923D01*
X10188333Y6270028D01*
X10145917Y6258662D01*
X10138483Y6256670D01*
X10125802Y6255000D01*
X10074198Y6255000D01*
X10061517Y6256670D01*
X10036590Y6263349D01*
X10033493Y6264179D01*
X10033483Y6264181D01*
X10018443Y6268212D01*
X10011664Y6270028D01*
X9999848Y6274923D01*
X9955150Y6300729D01*
X9945002Y6308516D01*
X9908513Y6345005D01*
X9900726Y6355153D01*
X9893988Y6366823D01*
X9874919Y6399851D01*
X9870025Y6411667D01*
X9856668Y6461518D01*
X9855000Y6474195D01*
X9855000Y7725808D01*
X9856668Y7738484D01*
X9870027Y7788343D01*
X9874918Y7800149D01*
X9900727Y7844852D01*
X9908507Y7854991D01*
X9945009Y7891493D01*
X9955148Y7899273D01*
X9999850Y7925082D01*
X10011658Y7929973D01*
X10061515Y7943331D01*
X10074196Y7945000D01*
X10125807Y7945000D01*
X10138488Y7943331D01*
G37*
%TD.AperFunction*%
%TA.AperFunction,Conductor*%
G36*
X18945196Y7128376D02*
G01*
X18980286Y7110990D01*
X18980285Y7110990D01*
X19001163Y7105978D01*
X19035360Y7097768D01*
X19049927Y7097196D01*
X19115471Y7094620D01*
X19115474Y7094621D01*
X19115480Y7094620D01*
X19127532Y7096530D01*
X19142855Y7096530D01*
X19196365Y7088056D01*
X19210940Y7083319D01*
X19259209Y7058725D01*
X19271612Y7049714D01*
X19309911Y7011415D01*
X19318922Y6999013D01*
X19343513Y6950751D01*
X19348251Y6936171D01*
X19353262Y6904535D01*
X19356725Y6882671D01*
X19356726Y6882668D01*
X19356726Y6867337D01*
X19348252Y6813834D01*
X19343514Y6799253D01*
X19318921Y6750988D01*
X19309910Y6738586D01*
X19271612Y6700288D01*
X19259209Y6691277D01*
X19210944Y6666685D01*
X19196365Y6661947D01*
X19142865Y6653473D01*
X19127533Y6653473D01*
X19074026Y6661948D01*
X19059447Y6666686D01*
X19011186Y6691276D01*
X18998783Y6700287D01*
X18960483Y6738587D01*
X18951473Y6750988D01*
X18943895Y6765860D01*
X18943895Y6765861D01*
X18926877Y6799260D01*
X18922142Y6813830D01*
X18913668Y6867338D01*
X18913669Y6882671D01*
X18914498Y6887903D01*
X18917028Y6920048D01*
X18917028Y6943200D01*
X18915981Y6963920D01*
X18886744Y7050577D01*
X18881664Y7058866D01*
X18875795Y7095905D01*
X18897836Y7126247D01*
X18934877Y7132117D01*
X18945196Y7128376D01*
G37*
%TD.AperFunction*%
%TA.AperFunction,Conductor*%
G36*
X15773630Y7637268D02*
G01*
X15788205Y7632531D01*
X15836474Y7607937D01*
X15848876Y7598927D01*
X15859683Y7588120D01*
X15926348Y7543574D01*
X15926349Y7543574D01*
X15926349Y7543573D01*
X15936513Y7539363D01*
X15963032Y7512845D01*
X15966159Y7486429D01*
X15953471Y7406311D01*
X15962396Y7349952D01*
X15953640Y7313486D01*
X15932752Y7297018D01*
X15908453Y7286953D01*
X15849147Y7247327D01*
X15844171Y7244411D01*
X15788210Y7215897D01*
X15773630Y7211159D01*
X15720130Y7202685D01*
X15704798Y7202685D01*
X15651291Y7211160D01*
X15636712Y7215898D01*
X15588451Y7240488D01*
X15576048Y7249499D01*
X15537747Y7287800D01*
X15528736Y7300202D01*
X15504145Y7348464D01*
X15499407Y7363045D01*
X15492555Y7406311D01*
X15490933Y7416554D01*
X15490933Y7431873D01*
X15499406Y7485380D01*
X15504144Y7499958D01*
X15528737Y7548225D01*
X15537745Y7560625D01*
X15576050Y7598930D01*
X15588450Y7607938D01*
X15636717Y7632531D01*
X15651295Y7637269D01*
X15704802Y7645742D01*
X15720121Y7645742D01*
X15773630Y7637268D01*
G37*
%TD.AperFunction*%
%TA.AperFunction,Conductor*%
G36*
X18661167Y9313056D02*
G01*
X18675742Y9308319D01*
X18724011Y9283725D01*
X18736414Y9274714D01*
X18774713Y9236415D01*
X18783724Y9224013D01*
X18808314Y9175753D01*
X18813052Y9161174D01*
X18817475Y9133249D01*
X18821528Y9107667D01*
X18821528Y9092335D01*
X18813053Y9038832D01*
X18808316Y9024253D01*
X18783727Y8975993D01*
X18774716Y8963591D01*
X18758283Y8947158D01*
X18713734Y8880486D01*
X18702295Y8852868D01*
X18675776Y8826350D01*
X18649361Y8823223D01*
X18598578Y8831265D01*
X18549681Y8823521D01*
X18513214Y8832277D01*
X18496746Y8853167D01*
X18484842Y8881907D01*
X18484840Y8881911D01*
X18440299Y8948572D01*
X18440295Y8948577D01*
X18425284Y8963588D01*
X18416273Y8975990D01*
X18416271Y8975993D01*
X18400521Y9006904D01*
X18391682Y9024252D01*
X18386944Y9038833D01*
X18386325Y9042741D01*
X18378470Y9092342D01*
X18378470Y9107661D01*
X18386943Y9161168D01*
X18391681Y9175746D01*
X18414792Y9221104D01*
X18416274Y9224014D01*
X18425282Y9236413D01*
X18463587Y9274718D01*
X18475987Y9283726D01*
X18524254Y9308319D01*
X18538832Y9313057D01*
X18592339Y9321530D01*
X18607658Y9321530D01*
X18661167Y9313056D01*
G37*
%TD.AperFunction*%
%TA.AperFunction,Conductor*%
G36*
X10211167Y13818683D02*
G01*
X10225742Y13813946D01*
X10274011Y13789352D01*
X10286414Y13780341D01*
X10324713Y13742042D01*
X10333724Y13729640D01*
X10358315Y13681378D01*
X10363053Y13666797D01*
X10371527Y13613293D01*
X10371527Y13597963D01*
X10363054Y13544461D01*
X10358316Y13529880D01*
X10333723Y13481615D01*
X10324712Y13469213D01*
X10286414Y13430915D01*
X10274011Y13421904D01*
X10225746Y13397312D01*
X10211167Y13392574D01*
X10157667Y13384100D01*
X10142335Y13384100D01*
X10088828Y13392575D01*
X10074249Y13397313D01*
X10025988Y13421903D01*
X10013585Y13430914D01*
X9975284Y13469215D01*
X9966273Y13481617D01*
X9941682Y13529879D01*
X9936944Y13544460D01*
X9932062Y13575287D01*
X9928470Y13597969D01*
X9928470Y13613288D01*
X9936944Y13666797D01*
X9941681Y13681373D01*
X9966274Y13729640D01*
X9975282Y13742040D01*
X10013587Y13780345D01*
X10025987Y13789353D01*
X10074254Y13813946D01*
X10088832Y13818684D01*
X10142339Y13827157D01*
X10157658Y13827157D01*
X10211167Y13818683D01*
G37*
%TD.AperFunction*%
%TA.AperFunction,Conductor*%
G36*
X19561167Y13963056D02*
G01*
X19575742Y13958319D01*
X19624011Y13933725D01*
X19636414Y13924714D01*
X19674713Y13886415D01*
X19683724Y13874013D01*
X19708315Y13825751D01*
X19713053Y13811170D01*
X19721527Y13757666D01*
X19721527Y13742336D01*
X19713054Y13688834D01*
X19708316Y13674253D01*
X19683723Y13625988D01*
X19674712Y13613586D01*
X19636414Y13575288D01*
X19624011Y13566277D01*
X19575746Y13541685D01*
X19561167Y13536947D01*
X19507667Y13528473D01*
X19492335Y13528473D01*
X19438828Y13536948D01*
X19424249Y13541686D01*
X19375988Y13566276D01*
X19363585Y13575287D01*
X19325284Y13613588D01*
X19316273Y13625990D01*
X19291682Y13674252D01*
X19286944Y13688833D01*
X19286944Y13688834D01*
X19278470Y13742342D01*
X19278470Y13757661D01*
X19286944Y13811170D01*
X19291681Y13825746D01*
X19316274Y13874013D01*
X19325282Y13886413D01*
X19363587Y13924718D01*
X19375987Y13933726D01*
X19424254Y13958319D01*
X19438832Y13963057D01*
X19492339Y13971530D01*
X19507658Y13971530D01*
X19561167Y13963056D01*
G37*
%TD.AperFunction*%
%TA.AperFunction,Conductor*%
G36*
X15588488Y14843331D02*
G01*
X15638333Y14829975D01*
X15650149Y14825081D01*
X15694848Y14799273D01*
X15704995Y14791487D01*
X15741484Y14754998D01*
X15749271Y14744850D01*
X15775077Y14700153D01*
X15779972Y14688336D01*
X15793330Y14638487D01*
X15795000Y14625804D01*
X15795000Y14574198D01*
X15793330Y14561515D01*
X15779972Y14511667D01*
X15775077Y14499850D01*
X15749271Y14455152D01*
X15741484Y14445004D01*
X15704996Y14408516D01*
X15694848Y14400729D01*
X15650150Y14374923D01*
X15638333Y14370028D01*
X15595917Y14358662D01*
X15588483Y14356670D01*
X15575802Y14355000D01*
X14824198Y14355000D01*
X14811517Y14356670D01*
X14786590Y14363349D01*
X14783493Y14364179D01*
X14783483Y14364181D01*
X14768443Y14368212D01*
X14761664Y14370028D01*
X14749848Y14374923D01*
X14705150Y14400729D01*
X14695002Y14408516D01*
X14658513Y14445005D01*
X14650726Y14455153D01*
X14624920Y14499850D01*
X14620025Y14511667D01*
X14606668Y14561518D01*
X14605000Y14574195D01*
X14605000Y14625808D01*
X14606669Y14638487D01*
X14620027Y14688343D01*
X14624918Y14700149D01*
X14650727Y14744852D01*
X14658507Y14754991D01*
X14695009Y14791493D01*
X14705148Y14799273D01*
X14749850Y14825082D01*
X14761658Y14829973D01*
X14811515Y14843331D01*
X14824196Y14845000D01*
X15575807Y14845000D01*
X15588488Y14843331D01*
G37*
%TD.AperFunction*%
%TA.AperFunction,Conductor*%
G36*
X12636319Y15680671D02*
G01*
X12650894Y15675934D01*
X12699163Y15651340D01*
X12711566Y15642329D01*
X12749865Y15604030D01*
X12758876Y15591628D01*
X12783467Y15543366D01*
X12788205Y15528785D01*
X12796679Y15475281D01*
X12796679Y15459951D01*
X12788206Y15406449D01*
X12783468Y15391868D01*
X12758875Y15343603D01*
X12749864Y15331201D01*
X12711566Y15292903D01*
X12699164Y15283892D01*
X12650898Y15259299D01*
X12636320Y15254562D01*
X12620466Y15252051D01*
X12604639Y15248902D01*
X12604628Y15248900D01*
X12604626Y15248899D01*
X12602368Y15248357D01*
X12593288Y15246177D01*
X12588881Y15245066D01*
X12588867Y15245061D01*
X12560264Y15230080D01*
X12522912Y15226718D01*
X12503022Y15239851D01*
X12502550Y15239359D01*
X12500818Y15241024D01*
X12454884Y15277235D01*
X12450571Y15281068D01*
X12400436Y15331203D01*
X12391425Y15343605D01*
X12366834Y15391867D01*
X12362096Y15406448D01*
X12354108Y15456885D01*
X12353622Y15459957D01*
X12353622Y15475276D01*
X12362096Y15528785D01*
X12366833Y15543361D01*
X12391426Y15591628D01*
X12400434Y15604028D01*
X12438739Y15642333D01*
X12451139Y15651341D01*
X12499406Y15675934D01*
X12513984Y15680672D01*
X12567491Y15689145D01*
X12582810Y15689145D01*
X12636319Y15680671D01*
G37*
%TD.AperFunction*%
%TA.AperFunction,Conductor*%
G36*
X29928782Y19999998D02*
G01*
X30069687Y19998742D01*
X30073167Y19998587D01*
X30212066Y19987407D01*
X30215082Y19987069D01*
X30282542Y19977370D01*
X30285965Y19976752D01*
X30559331Y19917285D01*
X30566023Y19915320D01*
X30826497Y19818169D01*
X30832848Y19815267D01*
X30954837Y19748656D01*
X31076823Y19682046D01*
X31082697Y19678272D01*
X31305261Y19511664D01*
X31310536Y19507091D01*
X31507090Y19310537D01*
X31511663Y19305260D01*
X31678269Y19082701D01*
X31682045Y19076824D01*
X31815264Y18832853D01*
X31818169Y18826494D01*
X31915317Y18566031D01*
X31917286Y18559323D01*
X31976749Y18285976D01*
X31977370Y18282533D01*
X31987066Y18215096D01*
X31987407Y18212054D01*
X31998585Y18073172D01*
X31998741Y18069678D01*
X31999998Y17928783D01*
X32000000Y17928346D01*
X32000000Y2071655D01*
X31999998Y2071218D01*
X31998741Y1930323D01*
X31998585Y1926829D01*
X31987407Y1787947D01*
X31987066Y1784905D01*
X31977370Y1717468D01*
X31976749Y1714025D01*
X31917286Y1440678D01*
X31915317Y1433970D01*
X31818169Y1173507D01*
X31815264Y1167148D01*
X31682045Y923177D01*
X31678266Y917295D01*
X31511669Y694747D01*
X31507090Y689464D01*
X31310536Y492910D01*
X31305253Y488331D01*
X31082705Y321734D01*
X31076823Y317955D01*
X30832852Y184736D01*
X30826493Y181831D01*
X30566030Y84683D01*
X30559322Y82714D01*
X30285975Y23251D01*
X30282532Y22630D01*
X30215095Y12934D01*
X30212053Y12593D01*
X30073171Y1415D01*
X30069677Y1259D01*
X29928782Y2D01*
X29928345Y0D01*
X2071655Y0D01*
X2071218Y2D01*
X1930322Y1259D01*
X1926828Y1415D01*
X1787946Y12593D01*
X1784904Y12934D01*
X1717467Y22630D01*
X1714024Y23251D01*
X1440677Y82714D01*
X1433969Y84683D01*
X1173506Y181831D01*
X1167147Y184736D01*
X923176Y317955D01*
X917299Y321731D01*
X694740Y488337D01*
X689463Y492910D01*
X492909Y689464D01*
X488336Y694739D01*
X321728Y917303D01*
X317954Y923177D01*
X205534Y1129058D01*
X184733Y1167152D01*
X181830Y1173507D01*
X149822Y1259324D01*
X84680Y1433977D01*
X82715Y1440669D01*
X23248Y1714035D01*
X22629Y1717468D01*
X14634Y1773072D01*
X12931Y1784918D01*
X12592Y1787947D01*
X11972Y1795648D01*
X1413Y1926833D01*
X1258Y1930323D01*
X1110Y1946889D01*
X637Y2000001D01*
X952528Y2000001D01*
X952528Y2000000D01*
X974878Y1773072D01*
X983755Y1759055D01*
X1019674Y1640646D01*
X1032262Y1599150D01*
X1032265Y1599145D01*
X1032266Y1599142D01*
X1129057Y1418057D01*
X1129778Y1417086D01*
X1130582Y1416198D01*
X1259323Y1259327D01*
X1259326Y1259324D01*
X1416197Y1130583D01*
X1417085Y1129778D01*
X1418055Y1129059D01*
X1418056Y1129058D01*
X1599150Y1032262D01*
X1759054Y983756D01*
X1769434Y975238D01*
X1795644Y972657D01*
X1795649Y972655D01*
X1795648Y972655D01*
X2000000Y952528D01*
X2204352Y972655D01*
X2204351Y972655D01*
X2204353Y972656D01*
X2226926Y974879D01*
X2240943Y983756D01*
X2400850Y1032262D01*
X2581944Y1129058D01*
X2581945Y1129059D01*
X2581951Y1129065D01*
X2582905Y1129772D01*
X2583790Y1130574D01*
X2740675Y1259325D01*
X2869426Y1416210D01*
X2870228Y1417095D01*
X2870941Y1418055D01*
X2870942Y1418056D01*
X2967738Y1599150D01*
X3027345Y1795649D01*
X3037405Y1846225D01*
X3048736Y1948417D01*
X3048736Y2051583D01*
X3043368Y2100000D01*
X11569196Y2100000D01*
X11590281Y1966874D01*
X11590281Y1966873D01*
X11590282Y1966872D01*
X11651467Y1846787D01*
X11651472Y1846780D01*
X11746779Y1751473D01*
X11746786Y1751468D01*
X11820254Y1714035D01*
X11866874Y1690281D01*
X12000000Y1669196D01*
X12133126Y1690281D01*
X12216420Y1732722D01*
X12253213Y1751468D01*
X12253215Y1751470D01*
X12253220Y1751472D01*
X12348528Y1846780D01*
X12409719Y1966874D01*
X12430804Y2100000D01*
X12409719Y2233126D01*
X12401121Y2250000D01*
X15953471Y2250000D01*
X15974556Y2116874D01*
X15974556Y2116873D01*
X15974557Y2116872D01*
X16035742Y1996787D01*
X16035747Y1996780D01*
X16131054Y1901473D01*
X16131061Y1901468D01*
X16211117Y1860678D01*
X16251149Y1840281D01*
X16384275Y1819196D01*
X16517401Y1840281D01*
X16600695Y1882722D01*
X16637488Y1901468D01*
X16637490Y1901470D01*
X16637495Y1901472D01*
X16732803Y1996780D01*
X16734445Y2000001D01*
X16757353Y2044962D01*
X16793994Y2116874D01*
X16815079Y2250000D01*
X16793994Y2383126D01*
X16773597Y2423158D01*
X16732807Y2503214D01*
X16732802Y2503221D01*
X16637495Y2598528D01*
X16637488Y2598533D01*
X16517403Y2659718D01*
X16517402Y2659719D01*
X16517401Y2659719D01*
X16384275Y2680804D01*
X16251149Y2659719D01*
X16251147Y2659719D01*
X16251146Y2659718D01*
X16131061Y2598533D01*
X16131054Y2598528D01*
X16035747Y2503221D01*
X16035742Y2503214D01*
X15974557Y2383129D01*
X15974556Y2383128D01*
X15974556Y2383126D01*
X15953471Y2250000D01*
X12401121Y2250000D01*
X12389322Y2273158D01*
X12348532Y2353214D01*
X12348527Y2353221D01*
X12253220Y2448528D01*
X12253213Y2448533D01*
X12133128Y2509718D01*
X12133127Y2509719D01*
X12133126Y2509719D01*
X12000000Y2530804D01*
X11866874Y2509719D01*
X11866872Y2509719D01*
X11866871Y2509718D01*
X11746786Y2448533D01*
X11746779Y2448528D01*
X11651472Y2353221D01*
X11651467Y2353214D01*
X11590282Y2233129D01*
X11590281Y2233128D01*
X11590281Y2233126D01*
X11569196Y2100000D01*
X3043368Y2100000D01*
X3037405Y2153775D01*
X3027345Y2204351D01*
X2967738Y2400850D01*
X2870942Y2581944D01*
X2870941Y2581945D01*
X2870222Y2582915D01*
X2869417Y2583803D01*
X2740676Y2740674D01*
X2740673Y2740677D01*
X2583802Y2869418D01*
X2582914Y2870222D01*
X2581943Y2870943D01*
X2509005Y2909929D01*
X6469196Y2909929D01*
X6490281Y2776803D01*
X6490281Y2776802D01*
X6490282Y2776801D01*
X6551467Y2656716D01*
X6551472Y2656709D01*
X6646779Y2561402D01*
X6646786Y2561397D01*
X6726842Y2520607D01*
X6766874Y2500210D01*
X6900000Y2479125D01*
X7033126Y2500210D01*
X7116420Y2542651D01*
X7153213Y2561397D01*
X7153215Y2561399D01*
X7153220Y2561401D01*
X7248528Y2656709D01*
X7250062Y2659718D01*
X7267278Y2693509D01*
X7309719Y2776803D01*
X7330804Y2909929D01*
X7309719Y3043055D01*
X7279205Y3102943D01*
X7248532Y3163143D01*
X7248527Y3163150D01*
X7153220Y3258457D01*
X7153213Y3258462D01*
X7033128Y3319647D01*
X7033127Y3319648D01*
X7033126Y3319648D01*
X6900000Y3340733D01*
X6766874Y3319648D01*
X6766872Y3319648D01*
X6766871Y3319647D01*
X6646786Y3258462D01*
X6646779Y3258457D01*
X6551472Y3163150D01*
X6551467Y3163143D01*
X6490282Y3043058D01*
X6490281Y3043057D01*
X6490281Y3043055D01*
X6469196Y2909929D01*
X2509005Y2909929D01*
X2400858Y2967734D01*
X2400855Y2967735D01*
X2400850Y2967738D01*
X2359354Y2980326D01*
X2240945Y3016245D01*
X2230566Y3024763D01*
X2204351Y3027345D01*
X2204352Y3027345D01*
X2000000Y3047472D01*
X1773071Y3025122D01*
X1759054Y3016245D01*
X1599153Y2967739D01*
X1599150Y2967738D01*
X1599147Y2967737D01*
X1599141Y2967734D01*
X1418056Y2870943D01*
X1417083Y2870222D01*
X1416197Y2869418D01*
X1259326Y2740677D01*
X1259323Y2740674D01*
X1130582Y2583803D01*
X1129778Y2582917D01*
X1129057Y2581944D01*
X1032266Y2400859D01*
X1032261Y2400847D01*
X983755Y2240946D01*
X975237Y2230568D01*
X952528Y2000001D01*
X637Y2000001D01*
X2Y2071218D01*
X0Y2071655D01*
X0Y6057964D01*
X7394500Y6057964D01*
X7394500Y4969963D01*
X7400175Y4922010D01*
X7400176Y4922004D01*
X7400177Y4922000D01*
X7402481Y4912401D01*
X7408240Y4888407D01*
X7408308Y4888185D01*
X7409811Y4881638D01*
X7421527Y4807668D01*
X7421527Y4792338D01*
X7412689Y4736535D01*
X7412688Y4736533D01*
X7410176Y4707065D01*
X7410176Y4707062D01*
X7409900Y4685817D01*
X7411642Y4656314D01*
X7411642Y4656308D01*
X7412023Y4653421D01*
X7417267Y4627063D01*
X7417270Y4627049D01*
X7422265Y4608410D01*
X7430904Y4582957D01*
X7430909Y4582944D01*
X7473408Y4480343D01*
X7485279Y4456272D01*
X7485294Y4456244D01*
X7494953Y4439515D01*
X7494960Y4439503D01*
X7509866Y4417194D01*
X7509879Y4417176D01*
X7577471Y4329089D01*
X7577481Y4329076D01*
X7595196Y4308876D01*
X7595218Y4308853D01*
X7608851Y4295220D01*
X7608874Y4295198D01*
X7629074Y4277483D01*
X7629087Y4277473D01*
X7717174Y4209881D01*
X7717192Y4209868D01*
X7739501Y4194962D01*
X7739513Y4194955D01*
X7739522Y4194949D01*
X7756252Y4185290D01*
X7756267Y4185283D01*
X7756270Y4185281D01*
X7780341Y4173410D01*
X7780352Y4173406D01*
X7780359Y4173402D01*
X7882946Y4130909D01*
X7882954Y4130907D01*
X7882965Y4130902D01*
X7908393Y4122270D01*
X7908415Y4122264D01*
X7927054Y4117269D01*
X7927064Y4117267D01*
X7950619Y4112582D01*
X7953424Y4112024D01*
X8053127Y4098898D01*
X8068382Y4096889D01*
X8081748Y4095573D01*
X8086035Y4095293D01*
X8091412Y4094940D01*
X8104851Y4094500D01*
X11592544Y4094500D01*
X11627192Y4080148D01*
X11641544Y4045500D01*
X11636203Y4023255D01*
X11590282Y3933129D01*
X11590281Y3933128D01*
X11590281Y3933126D01*
X11569196Y3800000D01*
X11590281Y3666874D01*
X11590281Y3666873D01*
X11590282Y3666872D01*
X11651467Y3546787D01*
X11651472Y3546780D01*
X11746779Y3451473D01*
X11746786Y3451468D01*
X11803497Y3422573D01*
X11866874Y3390281D01*
X12000000Y3369196D01*
X12133126Y3390281D01*
X12216420Y3432722D01*
X12253213Y3451468D01*
X12253215Y3451470D01*
X12253220Y3451472D01*
X12348528Y3546780D01*
X12409719Y3666874D01*
X12430804Y3800000D01*
X12409719Y3933126D01*
X12395556Y3960923D01*
X12363797Y4023255D01*
X12360854Y4060642D01*
X12385211Y4089159D01*
X12407456Y4094500D01*
X18983319Y4094500D01*
X18989713Y4094081D01*
X19003282Y4092295D01*
X19025301Y4089397D01*
X19025303Y4089397D01*
X19069367Y4083596D01*
X19081723Y4080285D01*
X19140401Y4055979D01*
X19151478Y4049584D01*
X19156801Y4045500D01*
X19201874Y4010915D01*
X19210913Y4001876D01*
X19249582Y3951482D01*
X19255975Y3940408D01*
X19280282Y3881726D01*
X19283593Y3869370D01*
X19294081Y3789713D01*
X19294500Y3783317D01*
X19294500Y3199655D01*
X19289159Y3177410D01*
X19251216Y3102943D01*
X19251215Y3102942D01*
X19251215Y3102940D01*
X19230130Y2969814D01*
X19251215Y2836688D01*
X19251215Y2836687D01*
X19251216Y2836686D01*
X19289159Y2762220D01*
X19294500Y2739974D01*
X19294500Y2654857D01*
X19294940Y2641404D01*
X19295572Y2631763D01*
X19296891Y2618369D01*
X19312022Y2503430D01*
X19312023Y2503427D01*
X19317267Y2477061D01*
X19317270Y2477050D01*
X19317271Y2477045D01*
X19317271Y2477042D01*
X19322262Y2458417D01*
X19322268Y2458395D01*
X19330900Y2432967D01*
X19330909Y2432944D01*
X19373408Y2330343D01*
X19385279Y2306272D01*
X19385294Y2306244D01*
X19394953Y2289515D01*
X19394960Y2289503D01*
X19409866Y2267194D01*
X19409879Y2267176D01*
X19477471Y2179089D01*
X19477481Y2179076D01*
X19495196Y2158876D01*
X19495218Y2158853D01*
X19508851Y2145220D01*
X19508874Y2145198D01*
X19529074Y2127483D01*
X19529087Y2127473D01*
X19617174Y2059881D01*
X19617192Y2059868D01*
X19639501Y2044962D01*
X19639513Y2044955D01*
X19639522Y2044949D01*
X19656252Y2035290D01*
X19656267Y2035283D01*
X19656270Y2035281D01*
X19680341Y2023410D01*
X19680352Y2023406D01*
X19680359Y2023402D01*
X19782946Y1980909D01*
X19782954Y1980907D01*
X19782965Y1980902D01*
X19808393Y1972270D01*
X19808415Y1972264D01*
X19827054Y1967269D01*
X19827064Y1967267D01*
X19851453Y1962416D01*
X19853424Y1962024D01*
X19953127Y1948898D01*
X19968382Y1946889D01*
X19981748Y1945573D01*
X19986035Y1945293D01*
X19991412Y1944940D01*
X20004851Y1944500D01*
X20004856Y1944500D01*
X20995144Y1944500D01*
X20995149Y1944500D01*
X21008588Y1944940D01*
X21014820Y1945349D01*
X21018251Y1945573D01*
X21031617Y1946889D01*
X21034063Y1947212D01*
X21146575Y1962024D01*
X21172939Y1967268D01*
X21172944Y1967269D01*
X21183044Y1969976D01*
X21191599Y1972268D01*
X21191605Y1972270D01*
X21217033Y1980902D01*
X21217037Y1980904D01*
X21217053Y1980909D01*
X21263145Y2000001D01*
X28952528Y2000001D01*
X28952528Y2000000D01*
X28974878Y1773072D01*
X28983755Y1759055D01*
X29019674Y1640646D01*
X29032262Y1599150D01*
X29032265Y1599145D01*
X29032266Y1599142D01*
X29129057Y1418057D01*
X29129778Y1417086D01*
X29130582Y1416198D01*
X29259323Y1259327D01*
X29259326Y1259324D01*
X29416197Y1130583D01*
X29417085Y1129778D01*
X29418055Y1129059D01*
X29418056Y1129058D01*
X29599150Y1032262D01*
X29759054Y983756D01*
X29769434Y975238D01*
X29795644Y972657D01*
X29795649Y972655D01*
X29795648Y972655D01*
X30000000Y952528D01*
X30204352Y972655D01*
X30204351Y972655D01*
X30204353Y972656D01*
X30226926Y974879D01*
X30240943Y983756D01*
X30400850Y1032262D01*
X30581944Y1129058D01*
X30581945Y1129059D01*
X30581951Y1129065D01*
X30582905Y1129772D01*
X30583790Y1130574D01*
X30740675Y1259325D01*
X30869426Y1416210D01*
X30870228Y1417095D01*
X30870941Y1418055D01*
X30870942Y1418056D01*
X30967738Y1599150D01*
X31027345Y1795649D01*
X31037405Y1846225D01*
X31048736Y1948417D01*
X31048736Y2051583D01*
X31037405Y2153775D01*
X31027345Y2204351D01*
X30967738Y2400850D01*
X30870942Y2581944D01*
X30870941Y2581945D01*
X30870222Y2582915D01*
X30869417Y2583803D01*
X30740676Y2740674D01*
X30740673Y2740677D01*
X30583802Y2869418D01*
X30582914Y2870222D01*
X30581943Y2870943D01*
X30400858Y2967734D01*
X30400855Y2967735D01*
X30400850Y2967738D01*
X30359354Y2980326D01*
X30240945Y3016245D01*
X30230566Y3024763D01*
X30204351Y3027345D01*
X30204352Y3027345D01*
X30000000Y3047472D01*
X29773071Y3025122D01*
X29759054Y3016245D01*
X29599153Y2967739D01*
X29599150Y2967738D01*
X29599147Y2967737D01*
X29599141Y2967734D01*
X29418056Y2870943D01*
X29417083Y2870222D01*
X29416197Y2869418D01*
X29259326Y2740677D01*
X29259323Y2740674D01*
X29130582Y2583803D01*
X29129778Y2582917D01*
X29129057Y2581944D01*
X29032266Y2400859D01*
X29032261Y2400847D01*
X28983755Y2240946D01*
X28975237Y2230568D01*
X28952528Y2000001D01*
X21263145Y2000001D01*
X21319640Y2023402D01*
X21319652Y2023408D01*
X21319657Y2023410D01*
X21331912Y2029454D01*
X21343747Y2035290D01*
X21360477Y2044949D01*
X21360492Y2044960D01*
X21360497Y2044962D01*
X21382806Y2059868D01*
X21382817Y2059877D01*
X21382829Y2059884D01*
X21470925Y2127483D01*
X21491134Y2145207D01*
X21504793Y2158866D01*
X21522517Y2179075D01*
X21590116Y2267171D01*
X21590123Y2267183D01*
X21590132Y2267194D01*
X21605038Y2289503D01*
X21605040Y2289508D01*
X21605051Y2289523D01*
X21614710Y2306253D01*
X21626598Y2330360D01*
X21669091Y2432947D01*
X21677732Y2458401D01*
X21682732Y2477061D01*
X21687976Y2503425D01*
X21703109Y2618368D01*
X21703109Y2618370D01*
X21703111Y2618383D01*
X21704427Y2631749D01*
X21705059Y2641404D01*
X21705060Y2641412D01*
X21705500Y2654851D01*
X21705500Y2856296D01*
X21719852Y2890944D01*
X21754500Y2905296D01*
X21762144Y2904695D01*
X21860000Y2889196D01*
X21993126Y2910281D01*
X22105894Y2967739D01*
X22113213Y2971468D01*
X22113215Y2971470D01*
X22113220Y2971472D01*
X22208528Y3066780D01*
X22269719Y3186874D01*
X22290804Y3320000D01*
X22269719Y3453126D01*
X22231338Y3528453D01*
X22208532Y3573214D01*
X22208527Y3573221D01*
X22113220Y3668528D01*
X22113213Y3668533D01*
X21993128Y3729718D01*
X21993127Y3729719D01*
X21993126Y3729719D01*
X21860000Y3750804D01*
X21859999Y3750804D01*
X21762216Y3735317D01*
X21725749Y3744072D01*
X21706154Y3776049D01*
X21705970Y3790104D01*
X21716404Y3869370D01*
X21719715Y3881726D01*
X21741006Y3933126D01*
X21744023Y3940408D01*
X21750416Y3951480D01*
X21750420Y3951485D01*
X21789086Y4001875D01*
X21798125Y4010914D01*
X21848521Y4049585D01*
X21859596Y4055980D01*
X21918275Y4080286D01*
X21930629Y4083596D01*
X21988519Y4091217D01*
X21999845Y4092708D01*
X21999846Y4092707D01*
X22010285Y4094082D01*
X22016679Y4094500D01*
X25432412Y4094500D01*
X25432414Y4094500D01*
X25446060Y4094954D01*
X25455872Y4095607D01*
X25468714Y4096891D01*
X25469485Y4096968D01*
X25586186Y4112580D01*
X25586185Y4112580D01*
X25586201Y4112582D01*
X25612970Y4117994D01*
X25631903Y4123152D01*
X25657712Y4132064D01*
X25761645Y4175877D01*
X25786044Y4188131D01*
X25802957Y4198084D01*
X25825501Y4213455D01*
X25825504Y4213456D01*
X25825507Y4213459D01*
X25825524Y4213470D01*
X25914290Y4283064D01*
X25934619Y4301309D01*
X25948320Y4315358D01*
X25966040Y4336126D01*
X26033392Y4426603D01*
X26048206Y4449541D01*
X26057733Y4466696D01*
X26069376Y4491399D01*
X26110578Y4596395D01*
X26118842Y4622421D01*
X26123525Y4641477D01*
X26128266Y4668370D01*
X26140959Y4785448D01*
X26141979Y4799071D01*
X26142387Y4808896D01*
X26142500Y4822558D01*
X26117767Y5811904D01*
X26116757Y5827754D01*
X26115590Y5839122D01*
X26113359Y5854841D01*
X26088942Y5989347D01*
X26088941Y5989351D01*
X26088939Y5989361D01*
X26080883Y6020029D01*
X26080881Y6020033D01*
X26080879Y6020043D01*
X26073405Y6041570D01*
X26060714Y6070655D01*
X25999253Y6186232D01*
X25982235Y6213016D01*
X25975410Y6222119D01*
X25968569Y6231245D01*
X25947633Y6255085D01*
X25947628Y6255091D01*
X25853919Y6346488D01*
X25853912Y6346494D01*
X25853909Y6346497D01*
X25829559Y6366826D01*
X25829548Y6366834D01*
X25811003Y6380027D01*
X25810987Y6380037D01*
X25802113Y6385369D01*
X25783788Y6396379D01*
X25666704Y6454935D01*
X25637307Y6466897D01*
X25637306Y6466898D01*
X25637302Y6466899D01*
X25615614Y6473826D01*
X25615596Y6473831D01*
X25584718Y6481121D01*
X25584714Y6481122D01*
X25449631Y6502170D01*
X25433873Y6504005D01*
X25422458Y6504889D01*
X25406623Y6505500D01*
X25406611Y6505500D01*
X21969189Y6505500D01*
X21962773Y6505922D01*
X21882881Y6516474D01*
X21870492Y6519804D01*
X21860675Y6523884D01*
X21860673Y6523885D01*
X21811661Y6544257D01*
X21800559Y6550691D01*
X21750091Y6589581D01*
X21741041Y6598676D01*
X21702406Y6649325D01*
X21696027Y6660457D01*
X21671861Y6719408D01*
X21668591Y6731811D01*
X21658430Y6811774D01*
X21658041Y6818167D01*
X21683886Y12090177D01*
X21681436Y12122834D01*
X21677815Y12146064D01*
X21673463Y12166857D01*
X21673463Y12166858D01*
X21652247Y12207366D01*
X21631031Y12247874D01*
X21616645Y12264718D01*
X21605057Y12300384D01*
X21614081Y12325087D01*
X21647952Y12372330D01*
X21669882Y12424549D01*
X21685910Y12503112D01*
X21698738Y15120149D01*
X21698031Y15129573D01*
X21709748Y15165199D01*
X21729727Y15178496D01*
X21729703Y15178543D01*
X21730110Y15178751D01*
X21731755Y15179845D01*
X21733128Y15180293D01*
X21733139Y15180294D01*
X21824251Y15226718D01*
X21853226Y15241481D01*
X21853228Y15241483D01*
X21853233Y15241485D01*
X21948541Y15336793D01*
X22009732Y15456887D01*
X22030817Y15590013D01*
X22009732Y15723139D01*
X21989335Y15763171D01*
X21948545Y15843227D01*
X21948540Y15843234D01*
X21853233Y15938541D01*
X21853226Y15938546D01*
X21733140Y15999732D01*
X21733135Y15999734D01*
X21731389Y16000010D01*
X21730380Y16000629D01*
X21729473Y16000923D01*
X21729543Y16001142D01*
X21699416Y16019610D01*
X21690184Y16051846D01*
X21690515Y16056537D01*
X21693001Y16091855D01*
X21691969Y16100000D01*
X24899196Y16100000D01*
X24920281Y15966874D01*
X24920281Y15966873D01*
X24920282Y15966872D01*
X24981467Y15846787D01*
X24981472Y15846780D01*
X25076779Y15751473D01*
X25076786Y15751468D01*
X25156842Y15710678D01*
X25196874Y15690281D01*
X25330000Y15669196D01*
X25463126Y15690281D01*
X25546420Y15732722D01*
X25583213Y15751468D01*
X25583215Y15751470D01*
X25583220Y15751472D01*
X25678528Y15846780D01*
X25739719Y15966874D01*
X25760804Y16100000D01*
X25739719Y16233126D01*
X25719322Y16273158D01*
X25678532Y16353214D01*
X25678527Y16353221D01*
X25583220Y16448528D01*
X25583213Y16448533D01*
X25463128Y16509718D01*
X25463127Y16509719D01*
X25463126Y16509719D01*
X25330000Y16530804D01*
X25196874Y16509719D01*
X25196872Y16509719D01*
X25196871Y16509718D01*
X25076786Y16448533D01*
X25076779Y16448528D01*
X24981472Y16353221D01*
X24981467Y16353214D01*
X24920282Y16233129D01*
X24920281Y16233128D01*
X24920281Y16233126D01*
X24899196Y16100000D01*
X21691969Y16100000D01*
X21686222Y16145344D01*
X21681102Y16171745D01*
X21676189Y16190437D01*
X21667666Y16215944D01*
X21625636Y16318782D01*
X21613854Y16342958D01*
X21604268Y16359741D01*
X21604265Y16359747D01*
X21589434Y16382164D01*
X21589429Y16382172D01*
X21522202Y16470619D01*
X21504560Y16490921D01*
X21490955Y16504649D01*
X21490952Y16504652D01*
X21490944Y16504660D01*
X21470821Y16522466D01*
X21470812Y16522473D01*
X21382989Y16590485D01*
X21382986Y16590487D01*
X21382981Y16590491D01*
X21360689Y16605530D01*
X21360684Y16605533D01*
X21360678Y16605537D01*
X21351694Y16610776D01*
X21343994Y16615267D01*
X21343983Y16615273D01*
X21343975Y16615277D01*
X21319931Y16627264D01*
X21319910Y16627274D01*
X21217489Y16670219D01*
X21217472Y16670225D01*
X21192050Y16678977D01*
X21192029Y16678983D01*
X21183691Y16681255D01*
X21173400Y16684060D01*
X21173393Y16684062D01*
X21173391Y16684062D01*
X21147041Y16689420D01*
X21147018Y16689424D01*
X21032104Y16705044D01*
X21018702Y16706420D01*
X21009084Y16707091D01*
X20995628Y16707587D01*
X18038865Y16719805D01*
X9907779Y16753403D01*
X9907777Y16753403D01*
X9907768Y16753403D01*
X9894291Y16753017D01*
X9884622Y16752422D01*
X9871217Y16751154D01*
X9755885Y16736415D01*
X9755883Y16736415D01*
X9729441Y16731255D01*
X9729430Y16731252D01*
X9710715Y16726306D01*
X9685169Y16717727D01*
X9685164Y16717726D01*
X9685164Y16717725D01*
X9582169Y16675437D01*
X9557977Y16663595D01*
X9541189Y16653965D01*
X9518733Y16639046D01*
X9518726Y16639041D01*
X9430227Y16571472D01*
X9430222Y16571468D01*
X9409920Y16553743D01*
X9409904Y16553727D01*
X9396218Y16540097D01*
X9396210Y16540088D01*
X9378406Y16519864D01*
X9378391Y16519845D01*
X9310470Y16431645D01*
X9310466Y16431638D01*
X9295471Y16409272D01*
X9295461Y16409257D01*
X9285776Y16392539D01*
X9273810Y16368349D01*
X9231096Y16265528D01*
X9231089Y16265511D01*
X9222411Y16240017D01*
X9222403Y16239992D01*
X9217391Y16221338D01*
X9217387Y16221321D01*
X9212118Y16194904D01*
X9212113Y16194874D01*
X9208181Y16165091D01*
X9208182Y16165090D01*
X9196901Y16079630D01*
X9195578Y16066226D01*
X9194942Y16056537D01*
X9194500Y16043053D01*
X9194500Y13543099D01*
X9180148Y13508451D01*
X9145500Y13494099D01*
X9123255Y13499440D01*
X9117551Y13502346D01*
X9117550Y13502347D01*
X9117549Y13502347D01*
X8984423Y13523432D01*
X8851297Y13502347D01*
X8851295Y13502347D01*
X8851294Y13502346D01*
X8731209Y13441161D01*
X8731202Y13441156D01*
X8635895Y13345849D01*
X8635890Y13345842D01*
X8574705Y13225757D01*
X8574704Y13225756D01*
X8574704Y13225754D01*
X8553619Y13092628D01*
X8574704Y12959502D01*
X8574704Y12959501D01*
X8574705Y12959500D01*
X8635890Y12839415D01*
X8635895Y12839408D01*
X8731202Y12744101D01*
X8731209Y12744096D01*
X8811265Y12703306D01*
X8851297Y12682909D01*
X8984423Y12661824D01*
X9117549Y12682909D01*
X9117553Y12682911D01*
X9123253Y12685815D01*
X9160640Y12688759D01*
X9189158Y12664404D01*
X9194500Y12642157D01*
X9194500Y11323209D01*
X9180148Y11288561D01*
X9145500Y11274209D01*
X9137836Y11274812D01*
X9100000Y11280804D01*
X8966874Y11259719D01*
X8966872Y11259719D01*
X8966871Y11259718D01*
X8846786Y11198533D01*
X8846779Y11198528D01*
X8751472Y11103221D01*
X8751467Y11103214D01*
X8690282Y10983129D01*
X8690281Y10983128D01*
X8690281Y10983126D01*
X8669196Y10850000D01*
X8690281Y10716874D01*
X8690281Y10716873D01*
X8690282Y10716872D01*
X8751467Y10596787D01*
X8751472Y10596780D01*
X8846779Y10501473D01*
X8846786Y10501468D01*
X8926842Y10460678D01*
X8966874Y10440281D01*
X9100000Y10419196D01*
X9137835Y10425189D01*
X9174301Y10416434D01*
X9193897Y10384458D01*
X9194500Y10376792D01*
X9194500Y10145293D01*
X9196907Y10114714D01*
X9197030Y10113145D01*
X9197030Y10113144D01*
X9200653Y10090269D01*
X9203571Y10076415D01*
X9204926Y10069983D01*
X9247357Y9988966D01*
X9284139Y9945899D01*
X9336988Y9901777D01*
X9424280Y9874493D01*
X9475918Y9870429D01*
X9480742Y9870049D01*
X9480742Y9870050D01*
X9480743Y9870049D01*
X9549310Y9876219D01*
X9630327Y9918650D01*
X9673394Y9955432D01*
X9723036Y10018402D01*
X9746276Y10064017D01*
X9755285Y10076416D01*
X9793587Y10114718D01*
X9805987Y10123726D01*
X9854254Y10148319D01*
X9868832Y10153057D01*
X9922339Y10161530D01*
X9937658Y10161530D01*
X9991167Y10153056D01*
X10005742Y10148319D01*
X10054011Y10123725D01*
X10066414Y10114714D01*
X10104713Y10076415D01*
X10113724Y10064013D01*
X10138315Y10015751D01*
X10143053Y10001170D01*
X10151527Y9947666D01*
X10151527Y9932336D01*
X10143054Y9878834D01*
X10138316Y9864253D01*
X10113723Y9815988D01*
X10104712Y9803586D01*
X10066414Y9765288D01*
X10054012Y9756277D01*
X10005749Y9731685D01*
X9992617Y9727417D01*
X9992618Y9727415D01*
X9992586Y9727407D01*
X9991175Y9726948D01*
X9990290Y9726808D01*
X9990286Y9726807D01*
X9915030Y9699037D01*
X9866750Y9669440D01*
X9866748Y9669438D01*
X9841851Y9647679D01*
X9841850Y9647680D01*
X9814911Y9624137D01*
X9814910Y9624135D01*
X9774319Y9542178D01*
X9761670Y9489451D01*
X9760233Y9487301D01*
X9758745Y9477907D01*
X9758723Y9477796D01*
X9758726Y9477781D01*
X9743053Y9378833D01*
X9738315Y9364254D01*
X9713723Y9315989D01*
X9704712Y9303586D01*
X9666414Y9265288D01*
X9654012Y9256277D01*
X9605747Y9231684D01*
X9591166Y9226946D01*
X9537663Y9218472D01*
X9522336Y9218472D01*
X9517714Y9219204D01*
X9501664Y9221104D01*
X9490104Y9222013D01*
X9485526Y9222321D01*
X9485521Y9222321D01*
X9395360Y9207002D01*
X9395357Y9207001D01*
X9343035Y9185329D01*
X9284738Y9148699D01*
X9231816Y9074111D01*
X9231815Y9074108D01*
X9210142Y9021785D01*
X9210140Y9021776D01*
X9194500Y8943150D01*
X9194500Y7105978D01*
X9193918Y7098447D01*
X9179404Y7005139D01*
X9174829Y6990789D01*
X9141550Y6924108D01*
X9132833Y6911825D01*
X9080876Y6858404D01*
X9068840Y6849349D01*
X9003109Y6814232D01*
X8988892Y6809261D01*
X8896027Y6792163D01*
X8888515Y6791372D01*
X8086125Y6769084D01*
X8070336Y6768035D01*
X8058974Y6766839D01*
X8046963Y6765103D01*
X8043292Y6764572D01*
X8043285Y6764571D01*
X8043280Y6764570D01*
X8026657Y6761511D01*
X8026658Y6761510D01*
X7909084Y6739865D01*
X7909062Y6739860D01*
X7878466Y6731748D01*
X7878444Y6731741D01*
X7856998Y6724242D01*
X7827990Y6711512D01*
X7712713Y6649925D01*
X7686003Y6632886D01*
X7667851Y6619229D01*
X7667839Y6619220D01*
X7644071Y6598284D01*
X7552958Y6504604D01*
X7532689Y6480262D01*
X7519529Y6461719D01*
X7503236Y6434543D01*
X7467484Y6362903D01*
X7444891Y6317635D01*
X7444891Y6317634D01*
X7444889Y6317629D01*
X7438026Y6300729D01*
X7432967Y6288273D01*
X7426063Y6266620D01*
X7418792Y6235770D01*
X7405667Y6151382D01*
X7397822Y6100944D01*
X7395988Y6085165D01*
X7395112Y6073828D01*
X7395111Y6073811D01*
X7394990Y6070655D01*
X7394500Y6057964D01*
X0Y6057964D01*
X0Y7182334D01*
X4454415Y7182334D01*
X4454415Y7037377D01*
X4491931Y6897367D01*
X4491932Y6897363D01*
X4564408Y6771832D01*
X4666905Y6669335D01*
X4701564Y6649325D01*
X4792435Y6596860D01*
X4792437Y6596860D01*
X4792438Y6596859D01*
X4804866Y6593529D01*
X4932449Y6559342D01*
X4932452Y6559342D01*
X5077406Y6559342D01*
X5147411Y6578101D01*
X5217418Y6596859D01*
X5219885Y6598283D01*
X5234237Y6606570D01*
X5342951Y6669335D01*
X5445448Y6771832D01*
X5517924Y6897365D01*
X5545161Y6999013D01*
X5555441Y7037377D01*
X5555441Y7182334D01*
X5517924Y7322344D01*
X5517923Y7322348D01*
X5445447Y7447879D01*
X5342951Y7550375D01*
X5217420Y7622851D01*
X5217416Y7622852D01*
X5077407Y7660368D01*
X5077404Y7660368D01*
X4932452Y7660368D01*
X4932449Y7660368D01*
X4792439Y7622852D01*
X4792435Y7622851D01*
X4666904Y7550375D01*
X4666904Y7550374D01*
X4564409Y7447879D01*
X4564408Y7447879D01*
X4491932Y7322348D01*
X4491931Y7322344D01*
X4454415Y7182334D01*
X0Y7182334D01*
X0Y9391268D01*
X4369196Y9391268D01*
X4390281Y9258142D01*
X4390281Y9258141D01*
X4390282Y9258140D01*
X4451467Y9138055D01*
X4451472Y9138048D01*
X4546779Y9042741D01*
X4546786Y9042736D01*
X4620103Y9005380D01*
X4666874Y8981549D01*
X4800000Y8960464D01*
X4933126Y8981549D01*
X5038691Y9035337D01*
X5053213Y9042736D01*
X5053215Y9042738D01*
X5053220Y9042740D01*
X5148528Y9138048D01*
X5150071Y9141075D01*
X5183661Y9207001D01*
X5209719Y9258142D01*
X5230804Y9391268D01*
X5223086Y9440000D01*
X7308652Y9440000D01*
X7329737Y9306874D01*
X7329737Y9306873D01*
X7329738Y9306872D01*
X7390923Y9186787D01*
X7390928Y9186780D01*
X7486235Y9091473D01*
X7486242Y9091468D01*
X7566298Y9050678D01*
X7606330Y9030281D01*
X7739456Y9009196D01*
X7872582Y9030281D01*
X7958603Y9074111D01*
X7992669Y9091468D01*
X7992671Y9091470D01*
X7992676Y9091472D01*
X8087984Y9186780D01*
X8149175Y9306874D01*
X8170260Y9440000D01*
X8149175Y9573126D01*
X8123184Y9624137D01*
X8087988Y9693214D01*
X8087983Y9693221D01*
X7992676Y9788528D01*
X7992669Y9788533D01*
X7872584Y9849718D01*
X7872583Y9849719D01*
X7872582Y9849719D01*
X7739456Y9870804D01*
X7606330Y9849719D01*
X7606328Y9849719D01*
X7606327Y9849718D01*
X7486242Y9788533D01*
X7486235Y9788528D01*
X7390928Y9693221D01*
X7390923Y9693214D01*
X7329738Y9573129D01*
X7329737Y9573128D01*
X7329737Y9573126D01*
X7308652Y9440000D01*
X5223086Y9440000D01*
X5209719Y9524394D01*
X5184887Y9573129D01*
X5148532Y9644482D01*
X5148527Y9644489D01*
X5053220Y9739796D01*
X5053213Y9739801D01*
X4933128Y9800986D01*
X4933127Y9800987D01*
X4933126Y9800987D01*
X4800000Y9822072D01*
X4666874Y9800987D01*
X4666872Y9800987D01*
X4666871Y9800986D01*
X4546786Y9739801D01*
X4546779Y9739796D01*
X4451472Y9644489D01*
X4451467Y9644482D01*
X4390282Y9524397D01*
X4390281Y9524396D01*
X4390281Y9524394D01*
X4369196Y9391268D01*
X0Y9391268D01*
X0Y10836097D01*
X4365879Y10836097D01*
X4386964Y10702971D01*
X4386964Y10702970D01*
X4386965Y10702969D01*
X4448150Y10582884D01*
X4448155Y10582877D01*
X4543462Y10487570D01*
X4543469Y10487565D01*
X4623525Y10446775D01*
X4663557Y10426378D01*
X4796683Y10405293D01*
X4929809Y10426378D01*
X5013103Y10468819D01*
X5049896Y10487565D01*
X5049898Y10487567D01*
X5049903Y10487569D01*
X5145211Y10582877D01*
X5206402Y10702971D01*
X5227487Y10836097D01*
X5206402Y10969223D01*
X5186005Y11009255D01*
X5145215Y11089311D01*
X5145210Y11089318D01*
X5049903Y11184625D01*
X5049896Y11184630D01*
X4929811Y11245815D01*
X4929810Y11245816D01*
X4929809Y11245816D01*
X4796683Y11266901D01*
X4663557Y11245816D01*
X4663555Y11245816D01*
X4663554Y11245815D01*
X4543469Y11184630D01*
X4543462Y11184625D01*
X4448155Y11089318D01*
X4448150Y11089311D01*
X4386965Y10969226D01*
X4386964Y10969225D01*
X4386964Y10969223D01*
X4365879Y10836097D01*
X0Y10836097D01*
X0Y12962370D01*
X4454415Y12962370D01*
X4454415Y12817413D01*
X4491931Y12677403D01*
X4491932Y12677399D01*
X4521509Y12626171D01*
X4564408Y12551868D01*
X4666905Y12449371D01*
X4709897Y12424550D01*
X4792435Y12376896D01*
X4792437Y12376896D01*
X4792438Y12376895D01*
X4809471Y12372331D01*
X4932449Y12339378D01*
X4932452Y12339378D01*
X5077406Y12339378D01*
X5147411Y12358137D01*
X5217418Y12376895D01*
X5342951Y12449371D01*
X5445448Y12551868D01*
X5517924Y12677401D01*
X5536682Y12747408D01*
X5555441Y12817413D01*
X5555441Y12962370D01*
X5517924Y13102380D01*
X5517923Y13102384D01*
X5445447Y13227915D01*
X5373362Y13300000D01*
X6900000Y13300000D01*
X6900000Y14900000D01*
X4500000Y14900000D01*
X4500000Y13300000D01*
X4636494Y13300000D01*
X4564409Y13227915D01*
X4564408Y13227915D01*
X4491932Y13102384D01*
X4491931Y13102380D01*
X4454415Y12962370D01*
X0Y12962370D01*
X0Y17928346D01*
X2Y17928783D01*
X177Y17948421D01*
X637Y18000001D01*
X952528Y18000001D01*
X952528Y18000000D01*
X974878Y17773072D01*
X983755Y17759055D01*
X990183Y17737865D01*
X1032262Y17599150D01*
X1032265Y17599145D01*
X1032266Y17599142D01*
X1129057Y17418057D01*
X1129778Y17417086D01*
X1130582Y17416198D01*
X1259323Y17259327D01*
X1259326Y17259324D01*
X1416197Y17130583D01*
X1417085Y17129778D01*
X1418055Y17129059D01*
X1418056Y17129058D01*
X1599150Y17032262D01*
X1759054Y16983756D01*
X1769434Y16975238D01*
X1795644Y16972657D01*
X1795649Y16972655D01*
X1795648Y16972655D01*
X2000000Y16952528D01*
X2204352Y16972655D01*
X2204351Y16972655D01*
X2204353Y16972656D01*
X2226926Y16974879D01*
X2240943Y16983756D01*
X2400850Y17032262D01*
X2581944Y17129058D01*
X2581945Y17129059D01*
X2581951Y17129065D01*
X2582905Y17129772D01*
X2583790Y17130574D01*
X2607062Y17149673D01*
X4970901Y17149673D01*
X4991986Y17016547D01*
X4991986Y17016546D01*
X4991987Y17016545D01*
X5053172Y16896460D01*
X5053177Y16896453D01*
X5148484Y16801146D01*
X5148491Y16801141D01*
X5228547Y16760351D01*
X5268579Y16739954D01*
X5401705Y16718869D01*
X5534831Y16739954D01*
X5618125Y16782395D01*
X5654918Y16801141D01*
X5654920Y16801143D01*
X5654925Y16801145D01*
X5750233Y16896453D01*
X5811424Y17016547D01*
X5832509Y17149673D01*
X5811424Y17282799D01*
X5788318Y17328148D01*
X5750237Y17402887D01*
X5750232Y17402894D01*
X5654925Y17498201D01*
X5654918Y17498206D01*
X5534833Y17559391D01*
X5534832Y17559392D01*
X5534831Y17559392D01*
X5401705Y17580477D01*
X5268579Y17559392D01*
X5268577Y17559392D01*
X5268576Y17559391D01*
X5148491Y17498206D01*
X5148484Y17498201D01*
X5053177Y17402894D01*
X5053172Y17402887D01*
X4991987Y17282802D01*
X4991986Y17282801D01*
X4991986Y17282799D01*
X4970901Y17149673D01*
X2607062Y17149673D01*
X2740675Y17259325D01*
X2869426Y17416210D01*
X2870228Y17417095D01*
X2870941Y17418055D01*
X2870942Y17418056D01*
X2967738Y17599150D01*
X3009817Y17737865D01*
X6475576Y17737865D01*
X6496661Y17604739D01*
X6496661Y17604738D01*
X6496662Y17604737D01*
X6557847Y17484652D01*
X6557852Y17484645D01*
X6653159Y17389338D01*
X6653166Y17389333D01*
X6733222Y17348543D01*
X6773254Y17328146D01*
X6906380Y17307061D01*
X7039506Y17328146D01*
X7122800Y17370587D01*
X7159593Y17389333D01*
X7159595Y17389335D01*
X7159600Y17389337D01*
X7254908Y17484645D01*
X7316099Y17604739D01*
X7337184Y17737865D01*
X7316099Y17870991D01*
X7286875Y17928346D01*
X7254912Y17991079D01*
X7254907Y17991086D01*
X7245992Y18000001D01*
X28952528Y18000001D01*
X28952528Y18000000D01*
X28974878Y17773072D01*
X28983755Y17759055D01*
X28990183Y17737865D01*
X29032262Y17599150D01*
X29032265Y17599145D01*
X29032266Y17599142D01*
X29129057Y17418057D01*
X29129778Y17417086D01*
X29130582Y17416198D01*
X29259323Y17259327D01*
X29259326Y17259324D01*
X29416197Y17130583D01*
X29417085Y17129778D01*
X29418055Y17129059D01*
X29418056Y17129058D01*
X29599150Y17032262D01*
X29759054Y16983756D01*
X29769434Y16975238D01*
X29795644Y16972657D01*
X29795649Y16972655D01*
X29795648Y16972655D01*
X30000000Y16952528D01*
X30204352Y16972655D01*
X30204351Y16972655D01*
X30204353Y16972656D01*
X30226926Y16974879D01*
X30240943Y16983756D01*
X30400850Y17032262D01*
X30581944Y17129058D01*
X30581945Y17129059D01*
X30581951Y17129065D01*
X30582905Y17129772D01*
X30583790Y17130574D01*
X30740675Y17259325D01*
X30869426Y17416210D01*
X30870228Y17417095D01*
X30870941Y17418055D01*
X30870942Y17418056D01*
X30967738Y17599150D01*
X31027345Y17795649D01*
X31037405Y17846225D01*
X31048736Y17948417D01*
X31048736Y18051583D01*
X31037405Y18153775D01*
X31027345Y18204351D01*
X30967738Y18400850D01*
X30870942Y18581944D01*
X30870941Y18581945D01*
X30870222Y18582915D01*
X30869417Y18583803D01*
X30740676Y18740674D01*
X30740673Y18740677D01*
X30583802Y18869418D01*
X30582914Y18870222D01*
X30581943Y18870943D01*
X30400858Y18967734D01*
X30400855Y18967735D01*
X30400850Y18967738D01*
X30359354Y18980326D01*
X30240945Y19016245D01*
X30230566Y19024763D01*
X30204351Y19027345D01*
X30204352Y19027345D01*
X30000000Y19047472D01*
X29773071Y19025122D01*
X29759054Y19016245D01*
X29599153Y18967739D01*
X29599150Y18967738D01*
X29599147Y18967737D01*
X29599141Y18967734D01*
X29418056Y18870943D01*
X29417083Y18870222D01*
X29416197Y18869418D01*
X29259326Y18740677D01*
X29259323Y18740674D01*
X29130582Y18583803D01*
X29129778Y18582917D01*
X29129057Y18581944D01*
X29032266Y18400859D01*
X29032261Y18400847D01*
X28983755Y18240946D01*
X28975237Y18230568D01*
X28952528Y18000001D01*
X7245992Y18000001D01*
X7159600Y18086393D01*
X7159593Y18086398D01*
X7039508Y18147583D01*
X7039507Y18147584D01*
X7039506Y18147584D01*
X6906380Y18168669D01*
X6773254Y18147584D01*
X6773252Y18147584D01*
X6773251Y18147583D01*
X6653166Y18086398D01*
X6653159Y18086393D01*
X6557852Y17991086D01*
X6557847Y17991079D01*
X6496662Y17870994D01*
X6496661Y17870993D01*
X6496661Y17870991D01*
X6475576Y17737865D01*
X3009817Y17737865D01*
X3027345Y17795649D01*
X3037405Y17846225D01*
X3048736Y17948417D01*
X3048736Y18051583D01*
X3037405Y18153775D01*
X3027345Y18204351D01*
X2967738Y18400850D01*
X2870942Y18581944D01*
X2870941Y18581945D01*
X2870222Y18582915D01*
X2869417Y18583803D01*
X2740676Y18740674D01*
X2740673Y18740677D01*
X2583802Y18869418D01*
X2582914Y18870222D01*
X2581943Y18870943D01*
X2400858Y18967734D01*
X2400855Y18967735D01*
X2400850Y18967738D01*
X2359354Y18980326D01*
X2240945Y19016245D01*
X2230566Y19024763D01*
X2204351Y19027345D01*
X2204352Y19027345D01*
X2000000Y19047472D01*
X1773071Y19025122D01*
X1759054Y19016245D01*
X1599153Y18967739D01*
X1599150Y18967738D01*
X1599147Y18967737D01*
X1599141Y18967734D01*
X1418056Y18870943D01*
X1417083Y18870222D01*
X1416197Y18869418D01*
X1259326Y18740677D01*
X1259323Y18740674D01*
X1130582Y18583803D01*
X1129778Y18582917D01*
X1129057Y18581944D01*
X1032266Y18400859D01*
X1032261Y18400847D01*
X983755Y18240946D01*
X975237Y18230568D01*
X952528Y18000001D01*
X637Y18000001D01*
X1258Y18069689D01*
X1414Y18073172D01*
X7403Y18147583D01*
X12593Y18212070D01*
X12931Y18215079D01*
X22631Y18282548D01*
X23247Y18285962D01*
X82716Y18559336D01*
X84678Y18566021D01*
X181834Y18826503D01*
X184730Y18832843D01*
X317955Y19076826D01*
X321723Y19082692D01*
X488342Y19305269D01*
X492902Y19310530D01*
X689470Y19507098D01*
X694731Y19511658D01*
X917308Y19678277D01*
X923176Y19682046D01*
X1167157Y19815270D01*
X1173497Y19818166D01*
X1433979Y19915322D01*
X1440664Y19917284D01*
X1714038Y19976753D01*
X1717452Y19977369D01*
X1784921Y19987069D01*
X1787930Y19987407D01*
X1926833Y19998587D01*
X1930311Y19998742D01*
X2071218Y19999998D01*
X2071655Y20000000D01*
X29928345Y20000000D01*
X29928782Y19999998D01*
G37*
%TD.AperFunction*%
%TD*%
%TA.AperFunction,Conductor*%
%TO.N,+3V3*%
G36*
X20994775Y16502089D02*
G01*
X21004409Y16501417D01*
X21119362Y16485792D01*
X21138008Y16480710D01*
X21240462Y16437752D01*
X21257157Y16428015D01*
X21344992Y16359994D01*
X21358597Y16346266D01*
X21425824Y16257819D01*
X21435410Y16241036D01*
X21477440Y16138198D01*
X21482353Y16119506D01*
X21489132Y16066017D01*
X21474209Y16011381D01*
X21449315Y15990779D01*
X21346791Y15938540D01*
X21251484Y15843233D01*
X21190294Y15723140D01*
X21190293Y15723140D01*
X21169209Y15590013D01*
X21190293Y15456887D01*
X21251484Y15336794D01*
X21251485Y15336793D01*
X21346793Y15241485D01*
X21452837Y15187453D01*
X21489619Y15144386D01*
X21493240Y15121156D01*
X21480412Y12504119D01*
X21458482Y12451900D01*
X21406050Y12430483D01*
X21353831Y12452413D01*
X21340479Y12470887D01*
X21298528Y12553220D01*
X21203219Y12648529D01*
X21083126Y12709719D01*
X21083126Y12709720D01*
X20950000Y12730804D01*
X20816873Y12709720D01*
X20816873Y12709719D01*
X20696780Y12648529D01*
X20601471Y12553220D01*
X20540281Y12433127D01*
X20540280Y12433127D01*
X20519196Y12300000D01*
X20540280Y12166874D01*
X20601471Y12046781D01*
X20601472Y12046780D01*
X20696780Y11951472D01*
X20816873Y11890282D01*
X20816873Y11890281D01*
X20835075Y11887399D01*
X20950000Y11869196D01*
X21083126Y11890281D01*
X21203220Y11951472D01*
X21298528Y12046780D01*
X21338456Y12125145D01*
X21381522Y12161925D01*
X21437984Y12157482D01*
X21474767Y12114414D01*
X21478388Y12091184D01*
X21452462Y6802460D01*
X21452463Y6802450D01*
X21468969Y6672564D01*
X21518631Y6551414D01*
X21592174Y6455001D01*
X21598038Y6447314D01*
X21614200Y6434860D01*
X21701747Y6367398D01*
X21701754Y6367394D01*
X21782352Y6333894D01*
X21822653Y6317143D01*
X21952457Y6300000D01*
X25406611Y6300000D01*
X25418004Y6299118D01*
X25553080Y6278071D01*
X25574784Y6271139D01*
X25691868Y6212583D01*
X25710435Y6199374D01*
X25804144Y6107977D01*
X25817812Y6089746D01*
X25879273Y5974169D01*
X25886747Y5952642D01*
X25911164Y5818136D01*
X25912331Y5806768D01*
X25937064Y4817422D01*
X25936656Y4807597D01*
X25923963Y4690519D01*
X25919280Y4671463D01*
X25878078Y4566467D01*
X25868551Y4549312D01*
X25801199Y4458835D01*
X25787498Y4444786D01*
X25698732Y4375192D01*
X25681819Y4365239D01*
X25577886Y4321426D01*
X25558953Y4316268D01*
X25442226Y4300653D01*
X25432414Y4300000D01*
X22000000Y4300000D01*
X21973029Y4296450D01*
X21870590Y4282964D01*
X21870587Y4282963D01*
X21750000Y4233014D01*
X21646447Y4153553D01*
X21566986Y4050000D01*
X21517037Y3929413D01*
X21517036Y3929410D01*
X21500000Y3799999D01*
X21500000Y3568470D01*
X21491935Y3534878D01*
X21467472Y3486865D01*
X21450280Y3453124D01*
X21429196Y3320000D01*
X21450280Y3186876D01*
X21450280Y3186875D01*
X21450281Y3186874D01*
X21491934Y3105125D01*
X21500000Y3071531D01*
X21500000Y2654851D01*
X21499367Y2645192D01*
X21484234Y2530249D01*
X21479234Y2511589D01*
X21436741Y2409002D01*
X21427082Y2392272D01*
X21359483Y2304176D01*
X21345824Y2290517D01*
X21257728Y2222918D01*
X21240998Y2213259D01*
X21138411Y2170766D01*
X21119751Y2165766D01*
X21004808Y2150633D01*
X20995149Y2150000D01*
X20004851Y2150000D01*
X19995192Y2150633D01*
X19880248Y2165766D01*
X19861588Y2170766D01*
X19759001Y2213259D01*
X19742271Y2222918D01*
X19654175Y2290517D01*
X19640516Y2304176D01*
X19572917Y2392272D01*
X19563258Y2409002D01*
X19520765Y2511589D01*
X19515765Y2530249D01*
X19500633Y2645192D01*
X19500000Y2654851D01*
X19500000Y3353739D01*
X19765399Y3353739D01*
X19786483Y3220613D01*
X19845327Y3105127D01*
X19847675Y3100519D01*
X19942983Y3005211D01*
X20063076Y2944021D01*
X20063076Y2944020D01*
X20081278Y2941138D01*
X20196203Y2922935D01*
X20329329Y2944020D01*
X20449423Y3005211D01*
X20544731Y3100519D01*
X20605922Y3220613D01*
X20627007Y3353739D01*
X20605922Y3486865D01*
X20605922Y3486866D01*
X20544731Y3606959D01*
X20449422Y3702268D01*
X20329329Y3763458D01*
X20329329Y3763459D01*
X20196203Y3784543D01*
X20063076Y3763459D01*
X20063076Y3763458D01*
X19942983Y3702268D01*
X19847674Y3606959D01*
X19786484Y3486866D01*
X19786483Y3486866D01*
X19765399Y3353739D01*
X19500000Y3353739D01*
X19500000Y3799999D01*
X19482963Y3929410D01*
X19482962Y3929413D01*
X19433013Y4050000D01*
X19353553Y4153553D01*
X19250000Y4233013D01*
X19249999Y4233014D01*
X19129412Y4282963D01*
X19129409Y4282964D01*
X19030108Y4296037D01*
X19000000Y4300000D01*
X18999998Y4300000D01*
X8104851Y4300000D01*
X8095192Y4300633D01*
X7980248Y4315766D01*
X7961588Y4320766D01*
X7859001Y4363259D01*
X7842271Y4372918D01*
X7754175Y4440517D01*
X7740516Y4454176D01*
X7672917Y4542272D01*
X7663258Y4559002D01*
X7620765Y4661589D01*
X7615766Y4680245D01*
X7615383Y4683153D01*
X7615659Y4704384D01*
X7630804Y4800000D01*
X7609719Y4933126D01*
X7608064Y4936375D01*
X7600000Y4969968D01*
X7600000Y5009309D01*
X17699501Y5009309D01*
X17699501Y4890691D01*
X17723801Y4800000D01*
X17730201Y4776113D01*
X17730203Y4776109D01*
X17789508Y4673390D01*
X17789509Y4673389D01*
X17789511Y4673386D01*
X17873386Y4589511D01*
X17976113Y4530201D01*
X18090691Y4499501D01*
X18090692Y4499501D01*
X18209308Y4499501D01*
X18209309Y4499501D01*
X18323887Y4530201D01*
X18426614Y4589511D01*
X18517392Y4680289D01*
X18571829Y4774579D01*
X18571832Y4774581D01*
X18576702Y4783017D01*
X18605553Y4890691D01*
X18607402Y4897592D01*
X18607403Y4897592D01*
X18607403Y5759311D01*
X18607402Y5759312D01*
X18576703Y5873883D01*
X18576701Y5873888D01*
X18517394Y5976610D01*
X18517393Y5976611D01*
X18517392Y5976613D01*
X18433516Y6060489D01*
X18433513Y6060491D01*
X18433512Y6060492D01*
X18330790Y6119799D01*
X18330785Y6119801D01*
X18216214Y6150500D01*
X18216212Y6150500D01*
X18097594Y6150500D01*
X18097592Y6150500D01*
X17983020Y6119801D01*
X17983015Y6119799D01*
X17880293Y6060492D01*
X17796411Y5976610D01*
X17737104Y5873888D01*
X17737102Y5873883D01*
X17706403Y5759312D01*
X17706403Y5044812D01*
X17703882Y5025661D01*
X17699501Y5009309D01*
X7600000Y5009309D01*
X7600000Y6057975D01*
X7600879Y6069348D01*
X7608726Y6119799D01*
X7621852Y6204191D01*
X7628761Y6225861D01*
X7651358Y6271138D01*
X7687113Y6342782D01*
X7700273Y6361325D01*
X7791386Y6455005D01*
X7809555Y6468674D01*
X7924820Y6530255D01*
X7946280Y6537759D01*
X8063866Y6559407D01*
X8080495Y6562468D01*
X8091837Y6563662D01*
X8913884Y6586497D01*
X9065034Y6614325D01*
X9200592Y6686748D01*
X9307748Y6796923D01*
X9376379Y6934439D01*
X9400000Y7086304D01*
X9400000Y7759312D01*
X9649500Y7759312D01*
X9649500Y6440689D01*
X9680199Y6326118D01*
X9680201Y6326113D01*
X9739508Y6223391D01*
X9739509Y6223390D01*
X9739511Y6223387D01*
X9823387Y6139511D01*
X9823389Y6139510D01*
X9823390Y6139509D01*
X9926112Y6080202D01*
X9926114Y6080201D01*
X9926115Y6080201D01*
X9926117Y6080200D01*
X9983402Y6064851D01*
X10040688Y6049501D01*
X10040689Y6049500D01*
X10040691Y6049500D01*
X10159311Y6049500D01*
X10159311Y6049501D01*
X10273886Y6080201D01*
X10376613Y6139511D01*
X10460489Y6223387D01*
X10519799Y6326114D01*
X10550499Y6440689D01*
X10550500Y6440689D01*
X10550500Y6844578D01*
X11974618Y6844578D01*
X11995702Y6711452D01*
X12056893Y6591359D01*
X12056894Y6591358D01*
X12152202Y6496050D01*
X12272295Y6434860D01*
X12272295Y6434859D01*
X12290497Y6431977D01*
X12405422Y6413774D01*
X12538548Y6434859D01*
X12658642Y6496050D01*
X12753950Y6591358D01*
X12815141Y6711452D01*
X12836226Y6844578D01*
X12815141Y6977704D01*
X12815141Y6977705D01*
X12753950Y7097798D01*
X12658641Y7193107D01*
X12538548Y7254297D01*
X12538548Y7254298D01*
X12405422Y7275382D01*
X12272295Y7254298D01*
X12272295Y7254297D01*
X12152202Y7193107D01*
X12056893Y7097798D01*
X11995703Y6977705D01*
X11995702Y6977705D01*
X11974618Y6844578D01*
X10550500Y6844578D01*
X10550500Y7424212D01*
X15281659Y7424212D01*
X15302743Y7291086D01*
X15363934Y7170993D01*
X15363935Y7170992D01*
X15459243Y7075684D01*
X15579336Y7014494D01*
X15579336Y7014493D01*
X15597538Y7011611D01*
X15712463Y6993408D01*
X15845589Y7014493D01*
X15965683Y7075684D01*
X15987092Y7097094D01*
X16039417Y7118768D01*
X16091743Y7097095D01*
X16131055Y7057783D01*
X16251148Y6996593D01*
X16251148Y6996592D01*
X16269350Y6993710D01*
X16384275Y6975507D01*
X16517401Y6996592D01*
X16637495Y7057783D01*
X16732803Y7153091D01*
X16793994Y7273185D01*
X16815079Y7406311D01*
X16813926Y7413589D01*
X17215063Y7413589D01*
X17236147Y7280463D01*
X17291926Y7170992D01*
X17297339Y7160369D01*
X17392647Y7065061D01*
X17512740Y7003871D01*
X17512740Y7003870D01*
X17530942Y7000988D01*
X17645867Y6982785D01*
X17778993Y7003870D01*
X17899087Y7065061D01*
X17994395Y7160369D01*
X18047994Y7265565D01*
X18091058Y7302344D01*
X18147521Y7297901D01*
X18179860Y7265562D01*
X18226472Y7174081D01*
X18321780Y7078773D01*
X18441873Y7017583D01*
X18441873Y7017582D01*
X18461371Y7014494D01*
X18575000Y6996497D01*
X18626864Y7004712D01*
X18681934Y6991491D01*
X18711528Y6943200D01*
X18711528Y6920048D01*
X18704394Y6875002D01*
X18704394Y6875001D01*
X18725478Y6741874D01*
X18760794Y6672564D01*
X18786670Y6621780D01*
X18881978Y6526472D01*
X19002071Y6465282D01*
X19002071Y6465281D01*
X19020273Y6462399D01*
X19135198Y6444196D01*
X19268324Y6465281D01*
X19388418Y6526472D01*
X19483726Y6621780D01*
X19544917Y6741874D01*
X19566002Y6875000D01*
X19544917Y7008126D01*
X19544917Y7008127D01*
X19483726Y7128220D01*
X19388417Y7223529D01*
X19268324Y7284719D01*
X19268324Y7284720D01*
X19135198Y7305804D01*
X19083334Y7297590D01*
X19028261Y7310812D01*
X18998669Y7359103D01*
X18998669Y7382253D01*
X19005804Y7427301D01*
X18984719Y7560427D01*
X18984719Y7560428D01*
X18923528Y7680521D01*
X18828219Y7775830D01*
X18708126Y7837020D01*
X18708125Y7837021D01*
X18696099Y7838925D01*
X18647808Y7868518D01*
X18634586Y7923590D01*
X18664179Y7971881D01*
X18696098Y7985103D01*
X18731704Y7990742D01*
X18851798Y8051933D01*
X18947106Y8147241D01*
X19008297Y8267335D01*
X19029382Y8400461D01*
X19008297Y8533587D01*
X19008297Y8533588D01*
X18947106Y8653681D01*
X18903593Y8697194D01*
X18881919Y8749520D01*
X18903592Y8801845D01*
X18948528Y8846780D01*
X19009719Y8966874D01*
X19030804Y9100000D01*
X19012601Y9214925D01*
X19009719Y9233127D01*
X18948528Y9353220D01*
X18853219Y9448529D01*
X18733126Y9509719D01*
X18733126Y9509720D01*
X18600000Y9530804D01*
X18466873Y9509720D01*
X18466873Y9509719D01*
X18346780Y9448529D01*
X18251471Y9353220D01*
X18190281Y9233127D01*
X18190280Y9233127D01*
X18169196Y9100000D01*
X18190280Y8966874D01*
X18251471Y8846781D01*
X18294984Y8803268D01*
X18316658Y8750942D01*
X18294984Y8698617D01*
X18250053Y8653686D01*
X18250049Y8653681D01*
X18188859Y8533588D01*
X18188858Y8533588D01*
X18167774Y8400461D01*
X18188858Y8267335D01*
X18248389Y8150500D01*
X18250050Y8147241D01*
X18345358Y8051933D01*
X18465452Y7990742D01*
X18477475Y7988838D01*
X18525767Y7959248D01*
X18538991Y7904176D01*
X18509401Y7855884D01*
X18477480Y7842660D01*
X18441873Y7837020D01*
X18321780Y7775830D01*
X18226473Y7680523D01*
X18226472Y7680521D01*
X18172875Y7575330D01*
X18172874Y7575329D01*
X18129807Y7538547D01*
X18073344Y7542991D01*
X18041006Y7575330D01*
X17994395Y7666809D01*
X17899086Y7762118D01*
X17778993Y7823308D01*
X17778993Y7823309D01*
X17645867Y7844393D01*
X17512740Y7823309D01*
X17512740Y7823308D01*
X17392647Y7762118D01*
X17297338Y7666809D01*
X17236148Y7546716D01*
X17236147Y7546716D01*
X17215063Y7413589D01*
X16813926Y7413589D01*
X16793994Y7539437D01*
X16793994Y7539438D01*
X16732803Y7659531D01*
X16637494Y7754840D01*
X16517401Y7816030D01*
X16517401Y7816031D01*
X16384275Y7837115D01*
X16251151Y7816031D01*
X16131056Y7754840D01*
X16109643Y7733428D01*
X16057316Y7711756D01*
X16004993Y7733430D01*
X15965682Y7772741D01*
X15845589Y7833931D01*
X15845589Y7833932D01*
X15712463Y7855016D01*
X15579336Y7833932D01*
X15579336Y7833931D01*
X15459243Y7772741D01*
X15363934Y7677432D01*
X15302744Y7557339D01*
X15302743Y7557339D01*
X15281659Y7424212D01*
X10550500Y7424212D01*
X10550500Y7759311D01*
X10550499Y7759312D01*
X10549747Y7762117D01*
X10524028Y7858105D01*
X10519800Y7873883D01*
X10519798Y7873888D01*
X10460491Y7976610D01*
X10460490Y7976611D01*
X10460489Y7976613D01*
X10376613Y8060489D01*
X10376610Y8060491D01*
X10376609Y8060492D01*
X10273887Y8119799D01*
X10273882Y8119801D01*
X10159311Y8150500D01*
X10159309Y8150500D01*
X10040691Y8150500D01*
X10040689Y8150500D01*
X9926117Y8119801D01*
X9926112Y8119799D01*
X9823390Y8060492D01*
X9739508Y7976610D01*
X9680201Y7873888D01*
X9680199Y7873883D01*
X9649500Y7759312D01*
X9400000Y7759312D01*
X9400000Y8943144D01*
X9421674Y8995470D01*
X9474000Y9017144D01*
X9485562Y9016235D01*
X9530000Y9009196D01*
X9663126Y9030281D01*
X9783220Y9091472D01*
X9878528Y9186780D01*
X9939719Y9306874D01*
X9960804Y9440000D01*
X9960804Y9440001D01*
X9960804Y9445824D01*
X9962534Y9445824D01*
X9974149Y9494237D01*
X10022434Y9523837D01*
X10063126Y9530281D01*
X10183220Y9591472D01*
X10266479Y9674731D01*
X10924079Y9674731D01*
X10924079Y9556113D01*
X10940658Y9494237D01*
X10954779Y9441535D01*
X10954781Y9441531D01*
X11014086Y9338812D01*
X11014087Y9338811D01*
X11014089Y9338808D01*
X11097964Y9254933D01*
X11200691Y9195623D01*
X11315269Y9164923D01*
X11315270Y9164923D01*
X11433886Y9164923D01*
X11433887Y9164923D01*
X11548465Y9195623D01*
X11548467Y9195625D01*
X11553150Y9196879D01*
X11553466Y9195700D01*
X11572543Y9199500D01*
X13459311Y9199500D01*
X13459311Y9199501D01*
X13573886Y9230201D01*
X13676613Y9289511D01*
X13760489Y9373387D01*
X13819799Y9476114D01*
X13850499Y9590689D01*
X13850500Y9590689D01*
X13850500Y9709311D01*
X13850499Y9709312D01*
X13819800Y9823883D01*
X13819798Y9823888D01*
X13760491Y9926610D01*
X13760490Y9926611D01*
X13760489Y9926613D01*
X13676613Y10010489D01*
X13676610Y10010491D01*
X13676609Y10010492D01*
X13573887Y10069799D01*
X13573882Y10069801D01*
X13459311Y10100500D01*
X13459309Y10100500D01*
X11349847Y10100500D01*
X11349845Y10100500D01*
X11270947Y10079359D01*
X11259482Y10076287D01*
X11245501Y10072541D01*
X11235267Y10069799D01*
X11132544Y10010492D01*
X11014087Y9892035D01*
X10954781Y9789314D01*
X10954779Y9789310D01*
X10949678Y9770272D01*
X10924079Y9674731D01*
X10266479Y9674731D01*
X10278528Y9686780D01*
X10339719Y9806874D01*
X10360804Y9940000D01*
X10339719Y10073126D01*
X10339719Y10073127D01*
X10278528Y10193220D01*
X10183219Y10288529D01*
X10063126Y10349719D01*
X10063126Y10349720D01*
X9930000Y10370804D01*
X9796873Y10349720D01*
X9796873Y10349719D01*
X9676780Y10288529D01*
X9581473Y10193222D01*
X9539934Y10111697D01*
X9496867Y10074915D01*
X9440404Y10079359D01*
X9403622Y10122426D01*
X9400000Y10145293D01*
X9400000Y10517600D01*
X9421674Y10569926D01*
X9448528Y10596780D01*
X9509719Y10716874D01*
X9530038Y10845164D01*
X14444500Y10845164D01*
X14444500Y9154838D01*
X14444939Y9141416D01*
X14445572Y9131768D01*
X14446891Y9118369D01*
X14462022Y9003430D01*
X14462025Y9003410D01*
X14467265Y8977070D01*
X14467273Y8977037D01*
X14472262Y8958415D01*
X14472267Y8958401D01*
X14480908Y8932947D01*
X14480914Y8932933D01*
X14516599Y8846780D01*
X14523401Y8830360D01*
X14535289Y8806253D01*
X14535290Y8806251D01*
X14544952Y8789516D01*
X14559782Y8767323D01*
X14559883Y8767171D01*
X14627482Y8679075D01*
X14645206Y8658866D01*
X14658865Y8645207D01*
X14679074Y8627483D01*
X14767170Y8559884D01*
X14778194Y8552518D01*
X14789514Y8544954D01*
X14789517Y8544952D01*
X14789522Y8544949D01*
X14806252Y8535290D01*
X14830359Y8523402D01*
X14932946Y8480909D01*
X14958400Y8472268D01*
X14958406Y8472267D01*
X14958413Y8472264D01*
X14977055Y8467269D01*
X14977063Y8467267D01*
X15003413Y8462026D01*
X15003416Y8462026D01*
X15003424Y8462024D01*
X15118368Y8446891D01*
X15131753Y8445573D01*
X15141412Y8444940D01*
X15143931Y8444858D01*
X15154838Y8444500D01*
X15154851Y8444500D01*
X16795162Y8444500D01*
X16805425Y8444837D01*
X16808588Y8444940D01*
X16818247Y8445573D01*
X16831632Y8446891D01*
X16946575Y8462024D01*
X16947921Y8462292D01*
X16972935Y8467267D01*
X16972943Y8467269D01*
X16991585Y8472264D01*
X16991588Y8472266D01*
X16991599Y8472268D01*
X17017053Y8480909D01*
X17119640Y8523402D01*
X17143747Y8535290D01*
X17160477Y8544949D01*
X17182829Y8559884D01*
X17270925Y8627483D01*
X17291134Y8645207D01*
X17304793Y8658866D01*
X17322517Y8679075D01*
X17390116Y8767171D01*
X17405051Y8789523D01*
X17414710Y8806253D01*
X17426598Y8830360D01*
X17469091Y8932947D01*
X17477732Y8958401D01*
X17480003Y8966874D01*
X17482731Y8977057D01*
X17482733Y8977065D01*
X17487974Y9003415D01*
X17487973Y9003415D01*
X17487976Y9003425D01*
X17503109Y9118368D01*
X17504427Y9131753D01*
X17505060Y9141412D01*
X17505500Y9154851D01*
X17505500Y10845150D01*
X17505060Y10858589D01*
X17504427Y10868248D01*
X17503109Y10881633D01*
X17487976Y10996576D01*
X17487972Y10996597D01*
X17482733Y11022937D01*
X17482731Y11022945D01*
X17477736Y11041587D01*
X17477733Y11041594D01*
X17477732Y11041600D01*
X17469091Y11067054D01*
X17426598Y11169641D01*
X17414710Y11193748D01*
X17405051Y11210478D01*
X17390116Y11232830D01*
X17322517Y11320926D01*
X17304793Y11341135D01*
X17291134Y11354794D01*
X17270925Y11372518D01*
X17182829Y11440117D01*
X17160482Y11455049D01*
X17160478Y11455052D01*
X17160471Y11455056D01*
X17160470Y11455057D01*
X17146994Y11462837D01*
X18124500Y11462837D01*
X18124500Y11344214D01*
X18155199Y11229643D01*
X18155201Y11229638D01*
X18214508Y11126916D01*
X18214509Y11126915D01*
X18214511Y11126912D01*
X18298387Y11043036D01*
X18298389Y11043035D01*
X18298390Y11043034D01*
X18401112Y10983727D01*
X18401114Y10983726D01*
X18401115Y10983726D01*
X18401117Y10983725D01*
X18458402Y10968376D01*
X18515688Y10953026D01*
X18515689Y10953025D01*
X18515691Y10953025D01*
X20376289Y10953025D01*
X20466653Y10977239D01*
X20466654Y10977239D01*
X20477330Y10980100D01*
X20490867Y10983726D01*
X20593594Y11043036D01*
X20691218Y11140660D01*
X20750528Y11243387D01*
X20781228Y11357965D01*
X20781228Y11476583D01*
X20750528Y11591161D01*
X20718416Y11646780D01*
X20691220Y11693885D01*
X20691219Y11693886D01*
X20691218Y11693888D01*
X20607343Y11777763D01*
X20607340Y11777765D01*
X20607339Y11777766D01*
X20504620Y11837071D01*
X20504616Y11837073D01*
X20450876Y11851472D01*
X20390038Y11867773D01*
X20271420Y11867773D01*
X20232180Y11857259D01*
X20229519Y11856546D01*
X20210367Y11854025D01*
X19022023Y11854025D01*
X18969697Y11875699D01*
X18948023Y11928025D01*
X18956088Y11961618D01*
X19009719Y12066874D01*
X19030804Y12200000D01*
X19009719Y12333126D01*
X19009719Y12333127D01*
X18948528Y12453220D01*
X18853219Y12548529D01*
X18733126Y12609719D01*
X18733126Y12609720D01*
X18600000Y12630804D01*
X18466873Y12609720D01*
X18466873Y12609719D01*
X18346780Y12548529D01*
X18251471Y12453220D01*
X18190281Y12333127D01*
X18190280Y12333127D01*
X18169196Y12200000D01*
X18190280Y12066874D01*
X18251471Y11946781D01*
X18316320Y11881932D01*
X18337994Y11829606D01*
X18316320Y11777280D01*
X18300997Y11765522D01*
X18298392Y11764018D01*
X18298391Y11764018D01*
X18214508Y11680135D01*
X18155201Y11577413D01*
X18155199Y11577408D01*
X18124500Y11462837D01*
X17146994Y11462837D01*
X17143771Y11464698D01*
X17143760Y11464704D01*
X17143753Y11464708D01*
X17143745Y11464712D01*
X17119644Y11476599D01*
X17119622Y11476609D01*
X17017052Y11519094D01*
X16991603Y11527732D01*
X16972953Y11532730D01*
X16972925Y11532737D01*
X16946592Y11537974D01*
X16946578Y11537977D01*
X16946575Y11537977D01*
X16946572Y11537978D01*
X16946557Y11537980D01*
X16831635Y11553109D01*
X16824828Y11553779D01*
X16818247Y11554427D01*
X16818232Y11554428D01*
X16808584Y11555061D01*
X16795162Y11555500D01*
X16795149Y11555500D01*
X15154851Y11555500D01*
X15154838Y11555500D01*
X15141415Y11555061D01*
X15131765Y11554428D01*
X15131758Y11554428D01*
X15131753Y11554427D01*
X15129518Y11554207D01*
X15118370Y11553110D01*
X15003434Y11537978D01*
X15003424Y11537977D01*
X15003421Y11537976D01*
X15003418Y11537976D01*
X15003403Y11537973D01*
X14977080Y11532738D01*
X14977075Y11532736D01*
X14977068Y11532735D01*
X14977062Y11532733D01*
X14969545Y11530720D01*
X14958427Y11527741D01*
X14958417Y11527738D01*
X14958411Y11527736D01*
X14936646Y11520349D01*
X14932940Y11519090D01*
X14830363Y11476601D01*
X14806247Y11464709D01*
X14789534Y11455060D01*
X14767170Y11440118D01*
X14679068Y11372514D01*
X14679058Y11372505D01*
X14658862Y11354792D01*
X14658859Y11354790D01*
X14645210Y11341141D01*
X14645208Y11341138D01*
X14627495Y11320942D01*
X14627486Y11320932D01*
X14559882Y11232830D01*
X14544940Y11210466D01*
X14535291Y11193753D01*
X14523399Y11169637D01*
X14480910Y11067060D01*
X14480908Y11067054D01*
X14480906Y11067048D01*
X14472264Y11041589D01*
X14472262Y11041583D01*
X14472259Y11041573D01*
X14467264Y11022925D01*
X14467262Y11022920D01*
X14462027Y10996597D01*
X14462022Y10996566D01*
X14446890Y10881631D01*
X14445572Y10868236D01*
X14444939Y10858586D01*
X14444500Y10845164D01*
X9530038Y10845164D01*
X9530804Y10850000D01*
X9512293Y10966874D01*
X9509719Y10983127D01*
X9448528Y11103220D01*
X9421674Y11130074D01*
X9400000Y11182400D01*
X9400000Y12653226D01*
X11215627Y12653226D01*
X11215627Y12074565D01*
X11232111Y12013044D01*
X11232110Y12013044D01*
X11246326Y11959990D01*
X11246328Y11959985D01*
X11305636Y11857261D01*
X11305638Y11857259D01*
X11910058Y11252838D01*
X12012785Y11193529D01*
X12012787Y11193529D01*
X12012788Y11193528D01*
X12020856Y11191367D01*
X12036998Y11187042D01*
X12101986Y11169628D01*
X12127362Y11162828D01*
X12127363Y11162828D01*
X13456337Y11162828D01*
X13456337Y11162829D01*
X13570912Y11193529D01*
X13673639Y11252839D01*
X13757515Y11336715D01*
X13816825Y11439442D01*
X13847525Y11554017D01*
X13847526Y11554017D01*
X13847526Y11672639D01*
X13847525Y11672640D01*
X13841832Y11693885D01*
X13832175Y11729926D01*
X13816826Y11787211D01*
X13816824Y11787216D01*
X13757517Y11889938D01*
X13757516Y11889939D01*
X13757515Y11889941D01*
X13673639Y11973817D01*
X13673636Y11973819D01*
X13673635Y11973820D01*
X13570913Y12033127D01*
X13570908Y12033129D01*
X13456337Y12063828D01*
X13456335Y12063828D01*
X12403928Y12063828D01*
X12351602Y12085502D01*
X12138301Y12298803D01*
X12116627Y12351129D01*
X12116627Y12653225D01*
X12116626Y12653226D01*
X12085927Y12767797D01*
X12085925Y12767802D01*
X12026618Y12870524D01*
X12026617Y12870525D01*
X12026616Y12870527D01*
X11942740Y12954403D01*
X11942737Y12954405D01*
X11942736Y12954406D01*
X11840014Y13013713D01*
X11840009Y13013715D01*
X11725438Y13044414D01*
X11725436Y13044414D01*
X11606818Y13044414D01*
X11606816Y13044414D01*
X11492244Y13013715D01*
X11492239Y13013713D01*
X11389517Y12954406D01*
X11305635Y12870524D01*
X11246328Y12767802D01*
X11246326Y12767797D01*
X11215627Y12653226D01*
X9400000Y12653226D01*
X9400000Y12990665D01*
X9400911Y13002241D01*
X9402728Y13013715D01*
X9415227Y13092628D01*
X9402209Y13174823D01*
X9400911Y13183017D01*
X9400000Y13194593D01*
X9400000Y13605627D01*
X9719196Y13605627D01*
X9740280Y13472501D01*
X9801471Y13352408D01*
X9801472Y13352407D01*
X9896780Y13257099D01*
X10016873Y13195909D01*
X10016873Y13195908D01*
X10035075Y13193026D01*
X10150000Y13174823D01*
X10283126Y13195908D01*
X10403220Y13257099D01*
X10498528Y13352407D01*
X10559719Y13472501D01*
X10580804Y13605627D01*
X10559719Y13738753D01*
X10559719Y13738754D01*
X10553989Y13750000D01*
X19069196Y13750000D01*
X19090280Y13616874D01*
X19151471Y13496781D01*
X19151472Y13496780D01*
X19246780Y13401472D01*
X19366873Y13340282D01*
X19366873Y13340281D01*
X19385075Y13337399D01*
X19500000Y13319196D01*
X19633126Y13340281D01*
X19753220Y13401472D01*
X19848528Y13496780D01*
X19909719Y13616874D01*
X19930804Y13750000D01*
X19909719Y13883126D01*
X19909719Y13883127D01*
X19848528Y14003220D01*
X19753219Y14098529D01*
X19633126Y14159719D01*
X19633126Y14159720D01*
X19500000Y14180804D01*
X19366873Y14159720D01*
X19366873Y14159719D01*
X19246780Y14098529D01*
X19151471Y14003220D01*
X19090281Y13883127D01*
X19090280Y13883127D01*
X19069196Y13750000D01*
X10553989Y13750000D01*
X10498528Y13858847D01*
X10403219Y13954156D01*
X10283126Y14015346D01*
X10283126Y14015347D01*
X10150000Y14036431D01*
X10016873Y14015347D01*
X10016873Y14015346D01*
X9896780Y13954156D01*
X9801471Y13858847D01*
X9740281Y13738754D01*
X9740280Y13738754D01*
X9719196Y13605627D01*
X9400000Y13605627D01*
X9400000Y14550000D01*
X11969196Y14550000D01*
X11990280Y14416874D01*
X12051471Y14296781D01*
X12051472Y14296780D01*
X12146780Y14201472D01*
X12266873Y14140282D01*
X12266873Y14140281D01*
X12285075Y14137399D01*
X12400000Y14119196D01*
X12533126Y14140281D01*
X12653220Y14201472D01*
X12748528Y14296780D01*
X12809719Y14416874D01*
X12830804Y14550000D01*
X12813491Y14659312D01*
X14399500Y14659312D01*
X14399500Y14540689D01*
X14430199Y14426118D01*
X14430201Y14426113D01*
X14489508Y14323391D01*
X14489509Y14323390D01*
X14489511Y14323387D01*
X14573387Y14239511D01*
X14573389Y14239510D01*
X14573390Y14239509D01*
X14676112Y14180202D01*
X14676114Y14180201D01*
X14676115Y14180201D01*
X14676117Y14180200D01*
X14733402Y14164851D01*
X14790688Y14149501D01*
X14790689Y14149500D01*
X14790691Y14149500D01*
X15609311Y14149500D01*
X15609311Y14149501D01*
X15723886Y14180201D01*
X15826613Y14239511D01*
X15910489Y14323387D01*
X15969799Y14426114D01*
X16000499Y14540689D01*
X16000500Y14540689D01*
X16000500Y14659311D01*
X16000499Y14659312D01*
X15969800Y14773883D01*
X15969798Y14773888D01*
X15910491Y14876610D01*
X15910490Y14876611D01*
X15910489Y14876613D01*
X15826613Y14960489D01*
X15826610Y14960491D01*
X15826609Y14960492D01*
X15723887Y15019799D01*
X15723882Y15019801D01*
X15609311Y15050500D01*
X15609309Y15050500D01*
X14790691Y15050500D01*
X14790689Y15050500D01*
X14676117Y15019801D01*
X14676112Y15019799D01*
X14573390Y14960492D01*
X14489508Y14876610D01*
X14430201Y14773888D01*
X14430199Y14773883D01*
X14399500Y14659312D01*
X12813491Y14659312D01*
X12809719Y14683126D01*
X12809719Y14683127D01*
X12748528Y14803220D01*
X12653219Y14898529D01*
X12630593Y14910057D01*
X12593810Y14953124D01*
X12598254Y15009586D01*
X12641321Y15046369D01*
X12652607Y15049079D01*
X12708278Y15057896D01*
X12828372Y15119087D01*
X12923680Y15214395D01*
X12984871Y15334489D01*
X13005956Y15467615D01*
X12984871Y15600741D01*
X12984871Y15600742D01*
X12923680Y15720835D01*
X12828371Y15816144D01*
X12708278Y15877334D01*
X12708278Y15877335D01*
X12575152Y15898419D01*
X12442025Y15877335D01*
X12442025Y15877334D01*
X12321932Y15816144D01*
X12226623Y15720835D01*
X12165433Y15600742D01*
X12165432Y15600742D01*
X12144348Y15467615D01*
X12165432Y15334489D01*
X12226623Y15214396D01*
X12226624Y15214395D01*
X12321932Y15119087D01*
X12344558Y15107559D01*
X12381341Y15064493D01*
X12376898Y15008031D01*
X12333831Y14971247D01*
X12322540Y14968536D01*
X12266873Y14959719D01*
X12146780Y14898529D01*
X12051471Y14803220D01*
X11990281Y14683127D01*
X11990280Y14683127D01*
X11969196Y14550000D01*
X9400000Y14550000D01*
X9400000Y16043065D01*
X9400636Y16052749D01*
X9411915Y16138198D01*
X9415848Y16167996D01*
X9420870Y16186686D01*
X9463588Y16289516D01*
X9473290Y16306264D01*
X9541219Y16394476D01*
X9554932Y16408134D01*
X9643439Y16475709D01*
X9660224Y16485337D01*
X9763222Y16527627D01*
X9781937Y16532573D01*
X9897246Y16547309D01*
X9906930Y16547905D01*
X20994775Y16502089D01*
G37*
%TD.AperFunction*%
%TD*%
%TA.AperFunction,Conductor*%
%TO.N,GND*%
G36*
X16804808Y11349367D02*
G01*
X16919753Y11334235D01*
X16938408Y11329236D01*
X17040999Y11286742D01*
X17057728Y11277083D01*
X17145824Y11209484D01*
X17159483Y11195825D01*
X17227082Y11107729D01*
X17236741Y11090999D01*
X17279234Y10988412D01*
X17284234Y10969752D01*
X17299367Y10854809D01*
X17300000Y10845150D01*
X17300000Y9154851D01*
X17299367Y9145192D01*
X17284234Y9030249D01*
X17279234Y9011589D01*
X17236741Y8909002D01*
X17227082Y8892272D01*
X17159483Y8804176D01*
X17145824Y8790517D01*
X17057728Y8722918D01*
X17040998Y8713259D01*
X16938411Y8670766D01*
X16919751Y8665766D01*
X16804808Y8650633D01*
X16795149Y8650000D01*
X15154851Y8650000D01*
X15145192Y8650633D01*
X15030248Y8665766D01*
X15011588Y8670766D01*
X14909001Y8713259D01*
X14892271Y8722918D01*
X14804175Y8790517D01*
X14790516Y8804176D01*
X14722917Y8892272D01*
X14713258Y8909002D01*
X14670765Y9011589D01*
X14665765Y9030249D01*
X14650633Y9145192D01*
X14650000Y9154851D01*
X14650000Y10845150D01*
X14650633Y10854809D01*
X14665766Y10969756D01*
X14670763Y10988407D01*
X14713260Y11091004D01*
X14722914Y11107726D01*
X14790520Y11195830D01*
X14804170Y11209480D01*
X14892274Y11277086D01*
X14908996Y11286740D01*
X15011593Y11329237D01*
X15030244Y11334234D01*
X15145192Y11349367D01*
X15154851Y11350000D01*
X16795149Y11350000D01*
X16804808Y11349367D01*
G37*
%TD.AperFunction*%
%TD*%
%TA.AperFunction,Conductor*%
%TO.N,GND*%
G36*
X6900000Y13300000D02*
G01*
X6400000Y13300000D01*
X5373362Y13300000D01*
X5342951Y13330411D01*
X5217415Y13402889D01*
X5077406Y13440404D01*
X5077404Y13440404D01*
X4932452Y13440404D01*
X4932450Y13440404D01*
X4792440Y13402889D01*
X4666904Y13330411D01*
X4636493Y13300000D01*
X4500000Y13300000D01*
X4500000Y14900000D01*
X6900000Y14900000D01*
X6900000Y13300000D01*
G37*
%TD.AperFunction*%
%TD*%
M02*
