%TF.GenerationSoftware,KiCad,Pcbnew,8.0.8*%
%TF.CreationDate,2025-04-16T19:26:52+02:00*%
%TF.ProjectId,PicoFlash,5069636f-466c-4617-9368-2e6b69636164,1.0*%
%TF.SameCoordinates,Original*%
%TF.FileFunction,Paste,Top*%
%TF.FilePolarity,Positive*%
%FSLAX46Y46*%
G04 Gerber Fmt 4.6, Leading zero omitted, Abs format (unit mm)*
G04 Created by KiCad (PCBNEW 8.0.8) date 2025-04-16 19:26:52*
%MOMM*%
%LPD*%
G01*
G04 APERTURE LIST*
G04 Aperture macros list*
%AMRoundRect*
0 Rectangle with rounded corners*
0 $1 Rounding radius*
0 $2 $3 $4 $5 $6 $7 $8 $9 X,Y pos of 4 corners*
0 Add a 4 corners polygon primitive as box body*
4,1,4,$2,$3,$4,$5,$6,$7,$8,$9,$2,$3,0*
0 Add four circle primitives for the rounded corners*
1,1,$1+$1,$2,$3*
1,1,$1+$1,$4,$5*
1,1,$1+$1,$6,$7*
1,1,$1+$1,$8,$9*
0 Add four rect primitives between the rounded corners*
20,1,$1+$1,$2,$3,$4,$5,0*
20,1,$1+$1,$4,$5,$6,$7,0*
20,1,$1+$1,$6,$7,$8,$9,0*
20,1,$1+$1,$8,$9,$2,$3,0*%
G04 Aperture macros list end*
%ADD10RoundRect,0.140000X0.170000X-0.140000X0.170000X0.140000X-0.170000X0.140000X-0.170000X-0.140000X0*%
%ADD11RoundRect,0.225000X-0.225000X-0.250000X0.225000X-0.250000X0.225000X0.250000X-0.225000X0.250000X0*%
%ADD12RoundRect,0.135000X-0.135000X-0.185000X0.135000X-0.185000X0.135000X0.185000X-0.135000X0.185000X0*%
%ADD13RoundRect,0.135000X0.185000X-0.135000X0.185000X0.135000X-0.185000X0.135000X-0.185000X-0.135000X0*%
%ADD14RoundRect,0.135000X0.135000X0.185000X-0.135000X0.185000X-0.135000X-0.185000X0.135000X-0.185000X0*%
%ADD15RoundRect,0.140000X0.140000X0.170000X-0.140000X0.170000X-0.140000X-0.170000X0.140000X-0.170000X0*%
%ADD16RoundRect,0.135000X-0.185000X0.135000X-0.185000X-0.135000X0.185000X-0.135000X0.185000X0.135000X0*%
%ADD17RoundRect,0.249999X0.395001X-0.395001X0.395001X0.395001X-0.395001X0.395001X-0.395001X-0.395001X0*%
%ADD18RoundRect,0.050000X0.050000X-0.387500X0.050000X0.387500X-0.050000X0.387500X-0.050000X-0.387500X0*%
%ADD19RoundRect,0.050000X0.387500X-0.050000X0.387500X0.050000X-0.387500X0.050000X-0.387500X-0.050000X0*%
%ADD20RoundRect,0.218750X-0.218750X-0.256250X0.218750X-0.256250X0.218750X0.256250X-0.218750X0.256250X0*%
%ADD21R,1.550013X0.600000*%
%ADD22R,1.261722X1.500000*%
%ADD23RoundRect,0.150000X-0.150000X0.512500X-0.150000X-0.512500X0.150000X-0.512500X0.150000X0.512500X0*%
%ADD24R,0.600000X0.280010*%
%ADD25R,0.300000X1.700000*%
%ADD26R,1.025032X0.550010*%
%ADD27R,1.025032X0.550012*%
%ADD28R,1.100000X0.300000*%
%ADD29R,1.300000X0.700000*%
%ADD30RoundRect,0.140000X-0.170000X0.140000X-0.170000X-0.140000X0.170000X-0.140000X0.170000X0.140000X0*%
%ADD31R,1.200000X1.400000*%
%ADD32RoundRect,0.140000X-0.140000X-0.170000X0.140000X-0.170000X0.140000X0.170000X-0.140000X0.170000X0*%
%ADD33RoundRect,0.218750X0.218750X0.256250X-0.218750X0.256250X-0.218750X-0.256250X0.218750X-0.256250X0*%
%ADD34R,0.398781X0.551181*%
G04 APERTURE END LIST*
D10*
%TO.C,C1*%
X20620000Y2620000D03*
X20620000Y3580000D03*
%TD*%
D11*
%TO.C,C15*%
X11225000Y18300000D03*
X12775000Y18300000D03*
%TD*%
D12*
%TO.C,R20*%
X9040000Y5350000D03*
X10060000Y5350000D03*
%TD*%
D13*
%TO.C,R15*%
X14860000Y3490000D03*
X14860000Y4510000D03*
%TD*%
%TO.C,R16*%
X21000000Y6140000D03*
X21000000Y7160000D03*
%TD*%
D14*
%TO.C,R17*%
X19860000Y5400000D03*
X18840000Y5400000D03*
%TD*%
D12*
%TO.C,R2*%
X21540000Y3550000D03*
X22560000Y3550000D03*
%TD*%
D15*
%TO.C,C3*%
X16980000Y14600000D03*
X16020000Y14600000D03*
%TD*%
D13*
%TO.C,R11*%
X8120000Y9430000D03*
X8120000Y10450000D03*
%TD*%
D16*
%TO.C,R10*%
X9060000Y10450000D03*
X9060000Y9430000D03*
%TD*%
D13*
%TO.C,R13*%
X21950000Y6140000D03*
X21950000Y7160000D03*
%TD*%
D17*
%TO.C,U2*%
X15200000Y9200000D03*
X16800000Y9200000D03*
X15200000Y10800000D03*
X16800000Y10800000D03*
D18*
X13400000Y6562500D03*
X13800000Y6562500D03*
X14200000Y6562500D03*
X14600000Y6562500D03*
X15000000Y6562500D03*
X15400000Y6562500D03*
X15800000Y6562500D03*
X16200000Y6562500D03*
X16600000Y6562500D03*
X17000000Y6562500D03*
X17400000Y6562500D03*
X17800000Y6562500D03*
X18200000Y6562500D03*
X18600000Y6562500D03*
D19*
X19437500Y7400000D03*
X19437500Y7800000D03*
X19437500Y8200000D03*
X19437500Y8600000D03*
X19437500Y9000000D03*
X19437500Y9400000D03*
X19437500Y9800000D03*
X19437500Y10200000D03*
X19437500Y10600000D03*
X19437500Y11000000D03*
X19437500Y11400000D03*
X19437500Y11800000D03*
X19437500Y12200000D03*
X19437500Y12600000D03*
D18*
X18600000Y13437500D03*
X18200000Y13437500D03*
X17800000Y13437500D03*
X17400000Y13437500D03*
X17000000Y13437500D03*
X16600000Y13437500D03*
X16200000Y13437500D03*
X15800000Y13437500D03*
X15400000Y13437500D03*
X15000000Y13437500D03*
X14600000Y13437500D03*
X14200000Y13437500D03*
X13800000Y13437500D03*
X13400000Y13437500D03*
D19*
X12562500Y12600000D03*
X12562500Y12200000D03*
X12562500Y11800000D03*
X12562500Y11400000D03*
X12562500Y11000000D03*
X12562500Y10600000D03*
X12562500Y10200000D03*
X12562500Y9800000D03*
X12562500Y9400000D03*
X12562500Y9000000D03*
X12562500Y8600000D03*
X12562500Y8200000D03*
X12562500Y7800000D03*
X12562500Y7400000D03*
%TD*%
D20*
%TO.C,D2*%
X4712500Y17900000D03*
X6287500Y17900000D03*
%TD*%
D21*
%TO.C,J2*%
X27813246Y6500127D03*
X27811722Y7498095D03*
X27811722Y8498095D03*
X27811722Y9498095D03*
X27813246Y10500127D03*
X27811722Y11498095D03*
X27811722Y12498095D03*
X27813246Y13499873D03*
D22*
X31319139Y14800102D03*
X31319139Y5199898D03*
%TD*%
D20*
%TO.C,D5*%
X4712500Y16350000D03*
X6287500Y16350000D03*
%TD*%
D23*
%TO.C,U1*%
X9750000Y18087500D03*
X8800000Y18087500D03*
X7850000Y18087500D03*
X7850000Y15812500D03*
X9750000Y15812500D03*
%TD*%
D14*
%TO.C,R4*%
X11510000Y1800000D03*
X10490000Y1800000D03*
%TD*%
D12*
%TO.C,R19*%
X19590000Y14600000D03*
X20610000Y14600000D03*
%TD*%
D24*
%TO.C,U4*%
X10907493Y6329936D03*
X10907493Y6830064D03*
X10907493Y7329936D03*
X10907493Y7830064D03*
X7892507Y7830064D03*
X7892507Y7329936D03*
X7892507Y6830064D03*
X7892507Y6329936D03*
D25*
X9400000Y7080000D03*
%TD*%
D14*
%TO.C,R24*%
X10990000Y11320000D03*
X9970000Y11320000D03*
%TD*%
D10*
%TO.C,C16*%
X25940000Y5200000D03*
X25940000Y6160000D03*
%TD*%
D12*
%TO.C,R1*%
X21540000Y2600000D03*
X22560000Y2600000D03*
%TD*%
D26*
%TO.C,J10*%
X6112516Y13200024D03*
D27*
X6112516Y12399924D03*
D28*
X6075032Y11749936D03*
X6075032Y11249809D03*
X6075032Y10749936D03*
X6075032Y10250064D03*
X6075032Y9749936D03*
X6075032Y9250064D03*
X6075032Y8749936D03*
X6075032Y8249809D03*
D27*
X6112516Y7599822D03*
X6112516Y6799975D03*
%TD*%
D14*
%TO.C,R25*%
X10990000Y12260000D03*
X9970000Y12260000D03*
%TD*%
D29*
%TO.C,U5*%
X18749987Y16124943D03*
X14250013Y16124943D03*
X18749987Y18275057D03*
X14250013Y18275057D03*
%TD*%
D16*
%TO.C,R6*%
X9450000Y14210000D03*
X9450000Y13190000D03*
%TD*%
D13*
%TO.C,R14*%
X16100000Y3490000D03*
X16100000Y4510000D03*
%TD*%
D30*
%TO.C,C8*%
X13570000Y5020000D03*
X13570000Y4060000D03*
%TD*%
D15*
%TO.C,C7*%
X11030000Y9470000D03*
X10070000Y9470000D03*
%TD*%
D31*
%TO.C,Y1*%
X25010013Y8949924D03*
X25010013Y11150076D03*
X23309987Y11150076D03*
X23309987Y8949924D03*
%TD*%
D15*
%TO.C,C6*%
X8180000Y5350000D03*
X7220000Y5350000D03*
%TD*%
D32*
%TO.C,C19*%
X20970000Y8445800D03*
X21930000Y8445800D03*
%TD*%
D12*
%TO.C,R12*%
X20920000Y9380000D03*
X21940000Y9380000D03*
%TD*%
D15*
%TO.C,C20*%
X22930000Y12650000D03*
X21970000Y12650000D03*
%TD*%
D32*
%TO.C,C4*%
X13420000Y14600000D03*
X14380000Y14600000D03*
%TD*%
D12*
%TO.C,R7*%
X10940000Y5350000D03*
X11960000Y5350000D03*
%TD*%
D20*
%TO.C,D6*%
X4662500Y2100000D03*
X6237500Y2100000D03*
%TD*%
D14*
%TO.C,R5*%
X11510000Y3800000D03*
X10490000Y3800000D03*
%TD*%
D15*
%TO.C,C9*%
X11380000Y13190000D03*
X10420000Y13190000D03*
%TD*%
D29*
%TO.C,U8*%
X26599987Y16124943D03*
X22100013Y16124943D03*
X26599987Y18275057D03*
X22100013Y18275057D03*
%TD*%
D32*
%TO.C,C18*%
X20970000Y11225800D03*
X21930000Y11225800D03*
%TD*%
D33*
%TO.C,D1*%
X27137500Y2200000D03*
X25562500Y2200000D03*
%TD*%
D15*
%TO.C,C11*%
X11380000Y14110000D03*
X10420000Y14110000D03*
%TD*%
D11*
%TO.C,C14*%
X11225000Y16050000D03*
X12775000Y16050000D03*
%TD*%
D20*
%TO.C,D7*%
X4662500Y3750000D03*
X6237500Y3750000D03*
%TD*%
D33*
%TO.C,D4*%
X27137500Y3750000D03*
X25562500Y3750000D03*
%TD*%
D32*
%TO.C,C10*%
X16970000Y5390000D03*
X17930000Y5390000D03*
%TD*%
D34*
%TO.C,U3*%
X19485001Y4590602D03*
X18850000Y4590602D03*
X18189599Y4590602D03*
X18189599Y2609398D03*
X19510401Y2609398D03*
%TD*%
D14*
%TO.C,R3*%
X11510000Y2800000D03*
X10490000Y2800000D03*
%TD*%
D34*
%TO.C,U6*%
X24385001Y7190602D03*
X23750000Y7190602D03*
X23089599Y7190602D03*
X23089599Y5209398D03*
X24410401Y5209398D03*
%TD*%
D13*
%TO.C,R9*%
X17050000Y3490000D03*
X17050000Y4510000D03*
%TD*%
D14*
%TO.C,R18*%
X25560000Y12650000D03*
X24540000Y12650000D03*
%TD*%
D32*
%TO.C,C2*%
X20970000Y10305800D03*
X21930000Y10305800D03*
%TD*%
D15*
%TO.C,C17*%
X11030000Y10390000D03*
X10070000Y10390000D03*
%TD*%
M02*
