%TF.GenerationSoftware,KiCad,Pcbnew,8.0.8*%
%TF.CreationDate,2025-04-16T19:26:52+02:00*%
%TF.ProjectId,PicoFlash,5069636f-466c-4617-9368-2e6b69636164,1.0*%
%TF.SameCoordinates,Original*%
%TF.FileFunction,Soldermask,Bot*%
%TF.FilePolarity,Negative*%
%FSLAX46Y46*%
G04 Gerber Fmt 4.6, Leading zero omitted, Abs format (unit mm)*
G04 Created by KiCad (PCBNEW 8.0.8) date 2025-04-16 19:26:52*
%MOMM*%
%LPD*%
G01*
G04 APERTURE LIST*
%ADD10C,1.000000*%
%ADD11C,1.750000*%
%ADD12C,0.700025*%
%ADD13O,2.000000X1.100000*%
%ADD14O,1.800000X1.200000*%
G04 APERTURE END LIST*
D10*
X31500000Y4750000D02*
G75*
G02*
X29999999Y3250000I-1500000J0D01*
G01*
X2000001Y3250000D02*
G75*
G02*
X500000Y4750000I-1J1500000D01*
G01*
X3250000Y17999999D02*
G75*
G02*
X4750000Y19500000I1500000J1D01*
G01*
X28750000Y2000001D02*
G75*
G02*
X27250000Y500000I-1500000J-1D01*
G01*
X27250000Y19500000D02*
G75*
G02*
X28750000Y17999999I0J-1500000D01*
G01*
X500000Y15250000D02*
G75*
G02*
X2000001Y16750000I1500000J0D01*
G01*
D11*
X30875000Y18000000D02*
G75*
G02*
X29125000Y18000000I-875000J0D01*
G01*
X29125000Y18000000D02*
G75*
G02*
X30875000Y18000000I875000J0D01*
G01*
X2875000Y18000000D02*
G75*
G02*
X1125000Y18000000I-875000J0D01*
G01*
X1125000Y18000000D02*
G75*
G02*
X2875000Y18000000I875000J0D01*
G01*
X2875000Y2000000D02*
G75*
G02*
X1125000Y2000000I-875000J0D01*
G01*
X1125000Y2000000D02*
G75*
G02*
X2875000Y2000000I875000J0D01*
G01*
D10*
X4750000Y500000D02*
G75*
G02*
X3250000Y2000001I0J1500000D01*
G01*
X29999999Y16750000D02*
G75*
G02*
X31500000Y15250000I1J-1500000D01*
G01*
D11*
X30875000Y2000000D02*
G75*
G02*
X29125000Y2000000I-875000J0D01*
G01*
X29125000Y2000000D02*
G75*
G02*
X30875000Y2000000I875000J0D01*
G01*
D12*
%TO.C,J10*%
X5004928Y12889891D03*
X5004928Y7109855D03*
D13*
X5525121Y14324994D03*
D14*
X1324968Y14324994D03*
D13*
X5525121Y5675006D03*
D14*
X1324968Y5675006D03*
%TD*%
G36*
X943039Y1230315D02*
G01*
X988794Y1177511D01*
X1000000Y1126000D01*
X1000000Y1000000D01*
X1652374Y1000000D01*
X1688139Y992897D01*
X1688641Y994549D01*
X1694471Y992780D01*
X1896828Y952529D01*
X1896831Y952528D01*
X2103169Y952528D01*
X2103171Y952529D01*
X2305528Y992780D01*
X2311359Y994549D01*
X2311860Y992897D01*
X2347626Y1000000D01*
X29652374Y1000000D01*
X29688139Y992897D01*
X29688641Y994549D01*
X29694471Y992780D01*
X29896828Y952529D01*
X29896831Y952528D01*
X30103169Y952528D01*
X30103171Y952529D01*
X30305528Y992780D01*
X30311359Y994549D01*
X30311860Y992897D01*
X30347626Y1000000D01*
X31000000Y1000000D01*
X31000000Y1126000D01*
X31019685Y1193039D01*
X31072489Y1238794D01*
X31124000Y1250000D01*
X31660429Y1250000D01*
X31727468Y1230315D01*
X31773223Y1177511D01*
X31783167Y1108353D01*
X31773224Y1074489D01*
X31761285Y1048346D01*
X31752805Y1032817D01*
X31607922Y807376D01*
X31597320Y793213D01*
X31421827Y590683D01*
X31409317Y578173D01*
X31206787Y402680D01*
X31192624Y392078D01*
X30967183Y247195D01*
X30951654Y238716D01*
X30707887Y127392D01*
X30691311Y121209D01*
X30434185Y45710D01*
X30416897Y41949D01*
X30150536Y3652D01*
X30135101Y2410D01*
X30001122Y20D01*
X29998910Y0D01*
X2001090Y0D01*
X1998878Y20D01*
X1864898Y2410D01*
X1849463Y3652D01*
X1583102Y41949D01*
X1565814Y45710D01*
X1308688Y121209D01*
X1292112Y127392D01*
X1048345Y238716D01*
X1032816Y247195D01*
X807375Y392078D01*
X793212Y402680D01*
X590682Y578173D01*
X578172Y590683D01*
X402679Y793213D01*
X392077Y807376D01*
X247194Y1032817D01*
X238713Y1048349D01*
X226775Y1074492D01*
X216834Y1143651D01*
X245861Y1207206D01*
X304640Y1244978D01*
X339571Y1250000D01*
X876000Y1250000D01*
X943039Y1230315D01*
G37*
G36*
X1207204Y19754141D02*
G01*
X1244978Y19695363D01*
X1250000Y19660430D01*
X1250000Y19124000D01*
X1230315Y19056961D01*
X1177511Y19011206D01*
X1126000Y19000000D01*
X1000000Y19000000D01*
X1000000Y18347626D01*
X992896Y18311861D01*
X994549Y18311359D01*
X992779Y18305529D01*
X952528Y18103172D01*
X952528Y17896829D01*
X992780Y17694471D01*
X994551Y17688633D01*
X992874Y17688125D01*
X1000000Y17652373D01*
X1000000Y2347626D01*
X992896Y2311861D01*
X994549Y2311359D01*
X992779Y2305529D01*
X952528Y2103172D01*
X952528Y1896829D01*
X992780Y1694471D01*
X994551Y1688633D01*
X992874Y1688125D01*
X1000000Y1652373D01*
X1000000Y1000000D01*
X1126000Y1000000D01*
X1193039Y980315D01*
X1238794Y927511D01*
X1250000Y876000D01*
X1250000Y339572D01*
X1230315Y272533D01*
X1177511Y226778D01*
X1108353Y216834D01*
X1074492Y226776D01*
X1048345Y238716D01*
X1032813Y247197D01*
X807375Y392078D01*
X793212Y402680D01*
X590682Y578173D01*
X578172Y590683D01*
X402679Y793213D01*
X392077Y807376D01*
X247194Y1032817D01*
X238715Y1048346D01*
X127391Y1292113D01*
X121208Y1308689D01*
X45709Y1565815D01*
X41948Y1583103D01*
X3651Y1849464D01*
X2409Y1864900D01*
X20Y1998879D01*
X0Y2001090D01*
X0Y17998911D01*
X20Y18001122D01*
X2409Y18135101D01*
X3651Y18150537D01*
X41948Y18416898D01*
X45709Y18434186D01*
X121208Y18691312D01*
X127391Y18707888D01*
X238715Y18951655D01*
X247194Y18967184D01*
X392077Y19192625D01*
X402679Y19206788D01*
X578172Y19409318D01*
X590682Y19421828D01*
X793212Y19597321D01*
X807375Y19607923D01*
X1032816Y19752806D01*
X1048347Y19761286D01*
X1074491Y19773225D01*
X1143649Y19783168D01*
X1207204Y19754141D01*
G37*
G36*
X30925511Y19773225D02*
G01*
X30951654Y19761286D01*
X30967183Y19752806D01*
X31192624Y19607923D01*
X31206787Y19597321D01*
X31409317Y19421828D01*
X31421827Y19409318D01*
X31597320Y19206788D01*
X31607922Y19192625D01*
X31752805Y18967184D01*
X31761284Y18951655D01*
X31872608Y18707888D01*
X31878791Y18691312D01*
X31954290Y18434186D01*
X31958051Y18416898D01*
X31996348Y18150537D01*
X31997590Y18135102D01*
X31999980Y18001123D01*
X32000000Y17998911D01*
X32000000Y2001090D01*
X31999980Y1998878D01*
X31997590Y1864899D01*
X31996348Y1849464D01*
X31958051Y1583103D01*
X31954290Y1565815D01*
X31878791Y1308689D01*
X31872608Y1292113D01*
X31761284Y1048346D01*
X31752805Y1032817D01*
X31607922Y807376D01*
X31597320Y793213D01*
X31421827Y590683D01*
X31409317Y578173D01*
X31206787Y402680D01*
X31192624Y392078D01*
X30967186Y247197D01*
X30951656Y238717D01*
X30925510Y226777D01*
X30856351Y216834D01*
X30792796Y245860D01*
X30755022Y304639D01*
X30750000Y339572D01*
X30750000Y876000D01*
X30769685Y943039D01*
X30822489Y988794D01*
X30874000Y1000000D01*
X31000000Y1000000D01*
X31000000Y1652373D01*
X31007125Y1688125D01*
X31005449Y1688633D01*
X31007219Y1694471D01*
X31047470Y1896824D01*
X31047471Y1896837D01*
X31049999Y2000000D01*
X31047471Y2103164D01*
X31047470Y2103177D01*
X31007220Y2305529D01*
X31005451Y2311359D01*
X31007103Y2311861D01*
X31000000Y2347626D01*
X31000000Y17652373D01*
X31007125Y17688125D01*
X31005449Y17688633D01*
X31007219Y17694471D01*
X31047470Y17896824D01*
X31047471Y17896837D01*
X31049999Y18000000D01*
X31047471Y18103164D01*
X31047470Y18103177D01*
X31007220Y18305529D01*
X31005451Y18311359D01*
X31007103Y18311861D01*
X31000000Y18347626D01*
X31000000Y19000000D01*
X30874000Y19000000D01*
X30806961Y19019685D01*
X30761206Y19072489D01*
X30750000Y19124000D01*
X30750000Y19660430D01*
X30769685Y19727469D01*
X30822489Y19773224D01*
X30891647Y19783168D01*
X30925511Y19773225D01*
G37*
G36*
X30001121Y19999980D02*
G01*
X30135100Y19997591D01*
X30150536Y19996349D01*
X30416897Y19958052D01*
X30434185Y19954291D01*
X30691311Y19878792D01*
X30707887Y19872609D01*
X30951654Y19761285D01*
X30967183Y19752806D01*
X31192624Y19607923D01*
X31206787Y19597321D01*
X31409317Y19421828D01*
X31421827Y19409318D01*
X31597320Y19206788D01*
X31607922Y19192625D01*
X31752805Y18967184D01*
X31761285Y18951653D01*
X31773224Y18925509D01*
X31783167Y18856351D01*
X31754140Y18792796D01*
X31695362Y18755022D01*
X31660429Y18750000D01*
X31124000Y18750000D01*
X31056961Y18769685D01*
X31011206Y18822489D01*
X31000000Y18874000D01*
X31000000Y19000000D01*
X30347626Y19000000D01*
X30311860Y19007104D01*
X30311359Y19005451D01*
X30305528Y19007221D01*
X30103170Y19047472D01*
X29896830Y19047472D01*
X29694471Y19007221D01*
X29688641Y19005451D01*
X29688139Y19007104D01*
X29652374Y19000000D01*
X2347626Y19000000D01*
X2311860Y19007104D01*
X2311359Y19005451D01*
X2305528Y19007221D01*
X2103170Y19047472D01*
X1896830Y19047472D01*
X1694471Y19007221D01*
X1688641Y19005451D01*
X1688139Y19007104D01*
X1652374Y19000000D01*
X1000000Y19000000D01*
X1000000Y18874000D01*
X980315Y18806961D01*
X927511Y18761206D01*
X876000Y18750000D01*
X339571Y18750000D01*
X272532Y18769685D01*
X226777Y18822489D01*
X216833Y18891647D01*
X226774Y18925506D01*
X238712Y18951650D01*
X247194Y18967184D01*
X392077Y19192625D01*
X402679Y19206788D01*
X578172Y19409318D01*
X590682Y19421828D01*
X793212Y19597321D01*
X807375Y19607923D01*
X1032816Y19752806D01*
X1048345Y19761285D01*
X1292112Y19872609D01*
X1308688Y19878792D01*
X1565814Y19954291D01*
X1583102Y19958052D01*
X1849463Y19996349D01*
X1864899Y19997591D01*
X1998879Y19999980D01*
X2001090Y20000000D01*
X29998910Y20000000D01*
X30001121Y19999980D01*
G37*
M02*
